<?xml version="1.0" encoding="utf-8"?>
<!-- Generator: Adobe Illustrator 26.0.3, SVG Export Plug-In . SVG Version: 6.00 Build 0)  -->
<svg version="1.1" id="Слой_1" xmlns="http://www.w3.org/2000/svg" xmlns:xlink="http://www.w3.org/1999/xlink" x="0px" y="0px"
	 viewBox="0 0 1920 1080" style="enable-background:new 0 0 1920 1080;" xml:space="preserve">
<style type="text/css">
	.st0{fill:#66B9FF;}
	.st1{fill:#FFFFFF;}
	.st2{fill:none;stroke:#0085CC;stroke-width:4.4633;stroke-linecap:round;stroke-linejoin:round;stroke-miterlimit:10;}
	.st3{fill:none;stroke:#0085CC;stroke-width:2.0002;stroke-linecap:round;stroke-linejoin:round;stroke-miterlimit:10;}
	.st4{fill:none;stroke:#0085CC;stroke-width:1.4878;stroke-linecap:round;stroke-linejoin:round;stroke-miterlimit:10;}
	.st5{fill:none;stroke:#0085CC;stroke-width:4.3879;stroke-linecap:round;stroke-linejoin:round;stroke-miterlimit:10;}
	.st6{fill:none;stroke:#0085CC;stroke-width:1.4112;stroke-linecap:round;stroke-linejoin:round;stroke-miterlimit:10;}
	.st7{fill:none;stroke:#0085CC;stroke-width:6.9429;stroke-linecap:round;stroke-linejoin:round;stroke-miterlimit:10;}
	.st8{fill:#1D0EB1;}
	.st9{fill:none;}
	.st10{fill:none;stroke:#1D0EB1;stroke-width:1.5272;stroke-linecap:round;stroke-linejoin:round;}
	.st11{fill:#FB493B;stroke:#FB493B;stroke-width:2.7662;stroke-linecap:round;stroke-linejoin:round;stroke-miterlimit:10;}
	.st12{enable-background:new    ;}
</style>
<g>
	<g>
		<g>
			<polygon class="st0" points="1337.2,570.6 1470.7,527 1562.8,496.4 1607.4,541.2 1567.8,554.2 1705.2,635.2 804.6,934.7 
				734.7,864.7 647.5,914.5 524.1,844.2 440.1,801.6 310.2,736.7 400.3,673.3 289.4,620.4 455.8,454.5 596.9,313.8 817.3,93.2 
				1061,174.4 1029.2,204.9 1132.3,240.3 1099.1,273.5 1080.5,266.1 981.8,364.9 997.3,374.4 1086.4,425.8 1240.5,502.4 1264,528.2 
							"/>
		</g>
		<g>
			<polygon class="st1" points="1337.9,543.8 1471.4,500.2 1563.5,469.6 1608,514.3 1568.5,527.4 1705.9,608.4 805.3,907.9 
				735.4,837.9 648.2,887.7 524.8,817.4 440.8,774.8 310.9,709.9 401,646.5 290.1,593.6 456.5,427.7 597.6,287 817.9,66.4 
				1061.7,147.6 1029.9,178.1 1132.9,213.5 1079.4,267.1 1079.4,267 998,347.6 1087.1,399 1292.2,476.2 1264.7,501.4 			"/>
		</g>
		<g>
			<polygon class="st0" points="959.2,314 679.8,220.9 822.2,78.4 1041.4,152.5 1008.7,185.3 1105.3,218.6 1057.6,266.6 
				1021.2,253.9 			"/>
		</g>
		<g>
			<line class="st2" x1="1472.8" y1="686.4" x2="1424.6" y2="638.3"/>
			<polyline class="st2" points="552.6,445.6 487.9,510.4 485.5,512.6 			"/>
			<polyline class="st2" points="651.9,477.4 600.3,529 583.8,545.4 			"/>
			<polyline class="st3" points="1079.6,267 1062.6,284 1059.4,287.1 			"/>
			<polyline class="st4" points="1186.6,717.7 1222.6,705.6 1252.4,695.8 1315.1,674.8 			"/>
			<path class="st2" d="M1471.8,500.3c-96.9-94.6-231.4-174.5-392.3-233.3"/>
			<path class="st4" d="M1437,511.9c-93.4-91.1-222.8-168.1-377.6-224.8"/>
			<line class="st2" x1="656.8" y1="548.2" x2="600" y2="529.3"/>
			<line class="st2" x1="502.2" y1="428.7" x2="435.2" y2="495.9"/>
			<line class="st2" x1="469.1" y1="417.7" x2="552.6" y2="445.6"/>
			<line class="st4" x1="651.9" y1="477.4" x2="552.6" y2="445.6"/>
			<polyline class="st2" points="1125.9,776.9 1076.1,793.6 1016.6,813.4 			"/>
			<polyline class="st2" points="1129.8,660.5 1186.6,717.7 1234.6,765.8 			"/>
			<polygon class="st4" points="1153.4,724.9 1082.8,654.2 1053.2,664 1123.8,734.7 			"/>
			<polyline class="st4" points="1222.6,705.6 1242.6,725.6 1270.8,753.7 			"/>
			<polyline class="st2" points="877.3,414.1 797.9,387.6 706.2,357.1 613.6,326.2 			"/>
			<line class="st2" x1="631.7" y1="587" x2="554" y2="561"/>
			<polyline class="st2" points="530.7,553.3 515.3,548.2 500.9,543.3 			"/>
			<polyline class="st2" points="477.7,535.6 380.9,503.5 380.7,503.5 			"/>
			<polyline class="st2" points="631.7,587 623.4,595.2 588.2,630.4 471.8,591.7 337.4,547 			"/>
			<line class="st2" x1="515.3" y1="548.2" x2="471.8" y2="591.7"/>
			<polyline class="st2" points="485.5,512.6 583.8,545.4 640.7,564.4 656.8,548.2 			"/>
			<line class="st2" x1="1096.1" y1="747.2" x2="986.7" y2="783.6"/>
			<polyline class="st4" points="1253.2,695.4 1273.1,715.3 1242.6,725.6 			"/>
			<line class="st3" x1="1290" y1="647.3" x2="1263" y2="656.8"/>
			<polyline class="st5" points="613.6,326.2 590,349.8 562.9,376.7 			"/>
			<line class="st5" x1="877.3" y1="414.1" x2="828.1" y2="463.4"/>
			<polyline class="st4" points="964.5,244.4 960.1,248.9 997.2,261.4 1023.6,270.1 			"/>
			<line class="st2" x1="1263" y1="656.8" x2="1231.8" y2="625.8"/>
			<line class="st5" x1="1076.1" y1="793.6" x2="1094.9" y2="812.4"/>
			<line class="st4" x1="1459.2" y1="488.2" x2="1424.9" y2="500.4"/>
			<line class="st4" x1="1446" y1="476.1" x2="1412.2" y2="488.8"/>
			<line class="st4" x1="1432.4" y1="464.2" x2="1399" y2="477.4"/>
			<line class="st4" x1="1418.3" y1="452.6" x2="1385.4" y2="466"/>
			<line class="st4" x1="1403.9" y1="441.1" x2="1371.5" y2="454.8"/>
			<line class="st4" x1="1389" y1="429.7" x2="1357" y2="443.9"/>
			<line class="st4" x1="1373.7" y1="418.5" x2="1342.3" y2="433.1"/>
			<line class="st4" x1="1358" y1="407.6" x2="1327.2" y2="422.4"/>
			<line class="st4" x1="1342" y1="396.8" x2="1311.7" y2="412"/>
			<line class="st4" x1="1325.6" y1="386.1" x2="1295.9" y2="401.8"/>
			<line class="st4" x1="1308.8" y1="375.7" x2="1279.6" y2="391.7"/>
			<line class="st4" x1="1291.7" y1="365.5" x2="1263" y2="381.9"/>
			<line class="st4" x1="1274.1" y1="355.5" x2="1246.1" y2="372.2"/>
			<line class="st4" x1="1256.3" y1="345.7" x2="1228.8" y2="362.7"/>
			<line class="st4" x1="1238.1" y1="336" x2="1211.3" y2="353.4"/>
			<line class="st4" x1="1219.6" y1="326.6" x2="1193.3" y2="344.3"/>
			<line class="st4" x1="1200.6" y1="317.5" x2="1175.1" y2="335.5"/>
			<line class="st4" x1="1181.5" y1="308.7" x2="1156.6" y2="326.9"/>
			<line class="st4" x1="1161.9" y1="300" x2="1137.6" y2="318.5"/>
			<line class="st4" x1="1142.1" y1="291.4" x2="1118.6" y2="310.3"/>
			<line class="st4" x1="1122.1" y1="283.1" x2="1099.1" y2="302.3"/>
			<line class="st4" x1="1101.6" y1="275.3" x2="1079.4" y2="294.6"/>
			<polyline class="st4" points="1445,509.1 1451.2,491 1420,485.8 1424.5,467.3 1393.1,463 1396.3,444.3 1364.5,440.7 
				1366.4,421.9 1334.4,419.1 1335,400.3 1302.7,398.2 1302,379.4 1269.8,378 1267.7,359.3 1235.3,358.7 1231.8,340.1 1199.4,340.2 
				1194.7,321.7 1162.3,322.5 1156.3,304.2 1124,305.9 1116.7,287.6 1084.6,290.1 1074.9,271.6 			"/>
			<line class="st5" x1="1079.6" y1="267" x2="1058.9" y2="287.6"/>
			<polyline class="st5" points="1021.2,270.1 1047.6,278.9 1062.6,284 			"/>
			<polyline class="st6" points="1461.5,503.6 1338.4,544.7 1265.1,502.5 1266.3,501.3 			"/>
			<polyline class="st4" points="1283.5,485.4 1292.6,477.1 1087.6,400 998.2,348.4 1059.4,287.1 			"/>
			<line class="st4" x1="1322.2" y1="446.6" x2="1416.4" y2="518.7"/>
			<line class="st4" x1="1266.3" y1="501.3" x2="1361.5" y2="537"/>
			<polyline class="st4" points="1296.4,457.8 1362.2,508.3 1358.2,513.5 1283.5,485.4 			"/>
			<line class="st2" x1="715.7" y1="626.5" x2="768.9" y2="585.6"/>
			<line class="st4" x1="623.4" y1="595.2" x2="716.1" y2="626.1"/>
			<line class="st2" x1="911.1" y1="659.8" x2="869.9" y2="683.6"/>
			<line class="st2" x1="768.9" y1="585.6" x2="831" y2="538.1"/>
			<polyline class="st2" points="768.9,585.6 911.1,659.8 1014.5,599.7 			"/>
			<line class="st4" x1="826.9" y1="464.5" x2="562.9" y2="376.7"/>
			<line class="st4" x1="702" y1="355" x2="651.5" y2="405.5"/>
			<line class="st4" x1="806.5" y1="390.6" x2="756" y2="441.1"/>
			<line class="st4" x1="705.2" y1="424" x2="755.7" y2="373.5"/>
			<line class="st4" x1="617.6" y1="751.4" x2="839" y2="623"/>
			<line class="st4" x1="1459.7" y1="612.9" x2="1619.8" y2="559.5"/>
			<polyline class="st4" points="1504.7,597.9 1556.5,650.1 1562.4,656 			"/>
			<line class="st5" x1="616.8" y1="322.8" x2="613.6" y2="326.2"/>
			<line class="st5" x1="625.4" y1="314.7" x2="628" y2="312.2"/>
			<polyline class="st7" points="1569,527.6 1706.5,608.4 804.5,909.2 673.2,777.7 289.1,595.1 515.4,369 818,66.1 1061.9,147.5 
				1030.3,179 1133.2,213.3 1080.5,266.1 			"/>
			<polyline class="st2" points="399.6,648.2 310.3,710.1 353.8,731.2 396.7,752.8 440.3,775.1 524.5,817.7 535.2,823.6 
				545.4,829.2 555.6,835 565.7,840.7 576,846.5 586.1,852.2 626.3,875.4 636.3,881.3 647.2,887.6 734.7,839.3 			"/>
			<line class="st5" x1="562.9" y1="376.7" x2="556.1" y2="383.7"/>
			<line class="st2" x1="546.3" y1="393.5" x2="540.9" y2="398.9"/>
			<line class="st4" x1="833.4" y1="164.7" x2="822.2" y2="175.8"/>
			<line class="st5" x1="1021.2" y1="270.1" x2="1001.9" y2="289.4"/>
			<line class="st5" x1="987.6" y1="303.8" x2="963.6" y2="327.7"/>
			<line class="st2" x1="540.9" y1="398.9" x2="508.8" y2="431"/>
			<line class="st4" x1="903.4" y1="94.6" x2="833.4" y2="164.7"/>
			<line class="st4" x1="801.3" y1="196.7" x2="765.4" y2="232.8"/>
			<line class="st4" x1="752.5" y1="245.7" x2="741.4" y2="256.9"/>
			<line class="st4" x1="1033.6" y1="175.4" x2="976.3" y2="232.6"/>
			<line class="st4" x1="715.8" y1="168.2" x2="801.3" y2="196.7"/>
			<polyline class="st4" points="869.9,685.1 904.8,702 930.6,728.8 			"/>
			<polyline class="st2" points="485.7,512.8 472.9,508.6 471.6,508 			"/>
			<line class="st5" x1="449.6" y1="500.7" x2="435.3" y2="495.9"/>
			<line class="st2" x1="485.7" y1="512.8" x2="471.6" y2="508"/>
			<line class="st5" x1="449.6" y1="500.7" x2="400.2" y2="484.1"/>
			<line class="st2" x1="1095.7" y1="746.7" x2="1104.5" y2="755.6"/>
			<polyline class="st2" points="1117.3,768.2 1118,769 1126,776.9 			"/>
			<line class="st2" x1="1398.4" y1="611.9" x2="1289.8" y2="648"/>
			<line class="st2" x1="1367.7" y1="581.2" x2="1258.3" y2="617.7"/>
			<line class="st5" x1="1397.9" y1="611.4" x2="1406.3" y2="619.8"/>
			<line class="st5" x1="1398.4" y1="611.9" x2="1389.6" y2="603.1"/>
			<line class="st2" x1="1376.8" y1="590.3" x2="1367.7" y2="581.2"/>
			<polyline class="st2" points="1288.6,648.3 1292.1,651.8 1314.1,673.9 1423.8,637.3 1416.1,629.6 			"/>
			<polyline class="st5" points="1258.1,617.7 1266.8,626.4 1267.4,627.1 			"/>
			<polyline class="st5" points="1280.2,639.8 1281.6,641.2 1288.6,648.3 			"/>
			<polyline class="st2" points="1016.6,813.4 986.7,783.6 930.2,727 1039.5,690.5 1096.1,747.2 			"/>
			<polyline class="st2" points="1501.8,676.5 1456.8,631.6 1413.7,588.5 1397.1,571.8 			"/>
			<polyline class="st2" points="1453,627.6 1469.2,622.2 1413.4,566.5 1397.1,571.8 			"/>
			<polyline class="st4" points="1418.8,593 1517.2,559.7 1543.4,585 			"/>
			<line class="st2" x1="1231.8" y1="625.8" x2="1129.8" y2="660.5"/>
			<polyline class="st4" points="658,340.2 639,359.2 628.6,369.7 609.1,389 607.2,390.9 			"/>
			<line class="st4" x1="1322.2" y1="446.6" x2="1296.4" y2="457.8"/>
			<line class="st2" x1="857.2" y1="387.5" x2="928.6" y2="316.1"/>
			<line class="st2" x1="670.4" y1="269.9" x2="713.9" y2="284.4"/>
			<polyline class="st2" points="625.4,314.7 657.1,283.3 700.4,297.7 			"/>
			<line class="st2" x1="670.4" y1="269.9" x2="700.4" y2="240.1"/>
			<polyline class="st5" points="857.2,387.5 812.6,372.6 809.7,371.6 			"/>
			<line class="st2" x1="672.5" y1="325.8" x2="731" y2="345.3"/>
			<line class="st5" x1="748.8" y1="351.2" x2="786.5" y2="363.9"/>
			<line class="st5" x1="774.2" y1="264.6" x2="787.7" y2="269.1"/>
			<line class="st5" x1="757.2" y1="259" x2="658.2" y2="226"/>
			<line class="st2" x1="857.2" y1="387.5" x2="928.6" y2="316.1"/>
			<polyline class="st2" points="834.8,284.8 766.5,353 763.4,356.2 			"/>
			<line class="st2" x1="903.9" y1="307.8" x2="832.4" y2="379.2"/>
			<line class="st2" x1="670.4" y1="269.9" x2="713.9" y2="284.4"/>
			<line class="st2" x1="657.1" y1="283.3" x2="700.4" y2="297.7"/>
			<polyline class="st2" points="928.6,316.1 787.7,269.1 781.9,274.9 716.1,340.2 			"/>
			<polyline class="st2" points="743.5,254.8 717.1,281.2 702.7,295.6 675.7,322.4 672.4,325.8 			"/>
			<line class="st5" x1="787.7" y1="269.1" x2="940.1" y2="319.9"/>
			<line class="st2" x1="670.4" y1="269.9" x2="700.4" y2="240.1"/>
			<polyline class="st5" points="857.2,387.5 812.6,372.6 809.7,371.6 			"/>
			<line class="st2" x1="630.9" y1="312.2" x2="672.4" y2="325.8"/>
			<line class="st2" x1="672.5" y1="325.8" x2="731" y2="345.3"/>
			<line class="st5" x1="748.8" y1="351.2" x2="786.5" y2="363.9"/>
			<polyline class="st2" points="1569,527.6 1559.6,530.7 1553.7,527.2 1544.7,522.3 1496.6,538.3 			"/>
			<polyline class="st7" points="1471.8,500.3 1471.8,500.3 1563.9,469.6 1608.5,514.3 1608.7,514.3 1569,527.6 			"/>
			<line class="st2" x1="1463" y1="504.6" x2="1470.1" y2="511.8"/>
			<line class="st2" x1="1437.7" y1="512.6" x2="1472.5" y2="501.4"/>
			<polyline class="st2" points="1485,526.6 1508.8,550.6 1516.7,558.6 1583.6,536.2 			"/>
			<line class="st4" x1="1283.5" y1="485.4" x2="1266.3" y2="501.3"/>
		</g>
		<line class="st4" x1="831" y1="538.1" x2="1013.8" y2="599"/>
	</g>
	<g>
		<g>
			<circle class="st8" cx="725.5" cy="272.8" r="19.7"/>
		</g>
		<path class="st1" d="M735.3,264.6h-5.8c-0.3,0-0.6,0.3-0.6,0.6v2.8h-4.1c-0.3,0-0.6,0.3-0.6,0.6v2.7h-4.1c-0.3,0-0.6,0.3-0.6,0.6
			v2.8h-4.1c-0.3,0-0.6,0.3-0.6,0.6v4.9c0,0.3,0.3,0.6,0.6,0.6h6c0.1,0,0.2,0,0.3-0.1l13.7-9.7c0.2-0.1,0.3-0.3,0.3-0.5v-5.3
			C735.9,264.9,735.6,264.6,735.3,264.6z M734.7,265.9v4.4l-13.3,9.5h-5.2v-3.7h4.1c0.3,0,0.6-0.3,0.6-0.6v-2.8h4.1
			c0.3,0,0.6-0.3,0.6-0.6v-2.7h4.1c0.3,0,0.6-0.3,0.6-0.6V266L734.7,265.9z"/>
		<g>
			<path class="st8" d="M725.5,290.3c0,0,0.2,0.2,0.5,0.6c0.2,0.2,0.4,0.5,0.5,0.7c0.1,0.1,0.2,0.3,0.3,0.5c0.1,0.1,0,0.2,0,0.2
				c0,0.1,0,0.2,0,0.3c0,1.4,0,3.3,0,5.2s0,3.8,0,5.2c0,0.1,0,0.2,0,0.3c0,0.1,0,0.2,0,0.2c-0.1,0.2-0.2,0.3-0.3,0.5
				c-0.2,0.3-0.4,0.5-0.5,0.7c-0.3,0.4-0.5,0.6-0.5,0.6s-0.2-0.2-0.5-0.6c-0.2-0.2-0.4-0.5-0.5-0.7c-0.1-0.1-0.2-0.3-0.3-0.5
				c-0.1-0.1-0.1-0.2,0-0.2c0-0.1,0-0.2,0-0.3c0-1.4,0-3.3,0-5.2s0-3.8,0-5.2c0-0.1,0-0.2,0-0.3c0-0.1,0-0.2,0-0.2
				c0.1-0.2,0.2-0.3,0.3-0.5c0.2-0.3,0.4-0.5,0.5-0.7C725.2,290.6,725.5,290.3,725.5,290.3z"/>
		</g>
	</g>
	<g>
		<g>
			<circle class="st8" cx="837" cy="300.5" r="19.7"/>
		</g>
		<g>
			<path class="st8" d="M837,317.1c0,0,0.2,0.3,0.5,0.7c0.1,0.2,0.3,0.5,0.5,0.8c0.1,0.2,0.2,0.3,0.3,0.5s0,0.4,0,0.5
				c0,1.5,0,3.5,0,5.5s0,4,0,5.5c0,0.1,0,0.2,0,0.3c0,0.1,0,0.2,0,0.3c-0.1,0.2-0.2,0.3-0.3,0.5c-0.2,0.3-0.4,0.6-0.5,0.8
				c-0.3,0.4-0.5,0.7-0.5,0.7s-0.2-0.3-0.5-0.7c-0.1-0.2-0.3-0.5-0.5-0.8c-0.1-0.2-0.2-0.3-0.3-0.5c-0.1-0.1-0.1-0.2,0-0.3
				c0-0.1,0-0.2,0-0.3c0-1.5,0-3.5,0-5.5s0-4,0-5.5c0-0.2-0.1-0.4,0-0.5c0.1-0.2,0.2-0.3,0.3-0.5c0.2-0.3,0.4-0.6,0.5-0.8
				C836.7,317.4,837,317.1,837,317.1z"/>
		</g>
		<g>
			<g>
				<circle class="st1" cx="830.7" cy="292.2" r="1.7"/>
				<path class="st1" d="M832.9,294.5h-4.4c-0.8,0-1.4,0.6-1.4,1.4v7c0,0.3,0.2,0.5,0.5,0.5h0.8v5.5c0,0.5,0.4,0.8,0.8,0.8
					c0,0,0,0,0.1,0c0.3,0,0.5-0.1,0.7-0.2c0.2-0.2,0.3-0.4,0.3-0.8v-5.3h0.9v5.5c0,0.5,0.4,0.8,0.8,0.8c0,0,0,0,0.1,0
					c0.3,0,0.5-0.1,0.7-0.2c0.2-0.2,0.3-0.4,0.3-0.8v-5.3h0.7c0.3,0,0.5-0.2,0.5-0.5v-7C834.3,295.1,833.6,294.5,832.9,294.5z"/>
				<path class="st1" d="M843.2,293.6c0.9,0,1.7-0.8,1.7-1.7c0-0.9-0.8-1.7-1.7-1.7s-1.7,0.8-1.7,1.7
					C841.5,292.8,842.2,293.6,843.2,293.6z"/>
				<path class="st1" d="M847.7,302.5l-1.7-7.4c-0.2-0.9-0.8-1-1.3-1h-3.1c-0.7,0-1.3,0.6-1.3,1.3l-1.3,7.1c0,0.3,0.2,0.5,0.5,0.5
					h1.6v5.6c0,0.5,0.4,0.8,0.8,0.8c0,0,0,0,0.1,0c0.3,0,0.5-0.1,0.7-0.2c0.2-0.2,0.3-0.4,0.3-0.8V303h0.9v5.6
					c0,0.5,0.4,0.8,0.8,0.8c0,0,0,0,0.1,0c0.3,0,0.5-0.1,0.7-0.2c0.2-0.2,0.3-0.4,0.3-0.8V303h1.7
					C847.5,303,847.7,302.8,847.7,302.5L847.7,302.5z"/>
				<path class="st1" d="M836.9,288.6c-0.3,0-0.5,0.2-0.5,0.5v21.7c0,0.3,0.2,0.5,0.5,0.5s0.5-0.2,0.5-0.5v-21.7
					C837.5,288.9,837.2,288.6,836.9,288.6z"/>
			</g>
		</g>
	</g>
	<g>
		<g>
			<circle class="st8" cx="431.4" cy="525.5" r="19.7"/>
		</g>
		<g>
			<path class="st8" d="M431.4,542.2c0,0,0.2,0.3,0.5,0.7c0.1,0.2,0.3,0.5,0.5,0.8c0.1,0.2,0.2,0.3,0.3,0.5c0.1,0.2,0,0.4,0,0.5
				c0,1.5,0,3.5,0,5.5s0,4,0,5.5c0,0.1,0,0.2,0,0.3s0,0.2,0,0.3c-0.1,0.2-0.2,0.3-0.3,0.5c-0.2,0.3-0.4,0.6-0.5,0.8
				c-0.3,0.4-0.5,0.7-0.5,0.7s-0.2-0.3-0.5-0.7c-0.1-0.2-0.3-0.5-0.5-0.8c-0.1-0.2-0.2-0.3-0.3-0.5c-0.1-0.1-0.1-0.2,0-0.3
				c0-0.1,0-0.2,0-0.3c0-1.5,0-3.5,0-5.5s0-4,0-5.5c0-0.2-0.1-0.4,0-0.5c0.1-0.2,0.2-0.3,0.3-0.5c0.2-0.3,0.4-0.6,0.5-0.8
				C431.2,542.4,431.4,542.2,431.4,542.2z"/>
		</g>
		<g>
			<g>
				<path class="st1" d="M431.2,518.6c0.9,0,1.7-0.8,1.7-1.7s-0.8-1.7-1.7-1.7c-0.9,0-1.7,0.8-1.7,1.7
					C429.6,517.9,430.3,518.6,431.2,518.6z"/>
				<path class="st1" d="M435.8,527.5l-1.7-7.4c-0.2-0.9-0.8-1-1.3-1h-3.1c-0.7,0-1.3,0.6-1.3,1.3l-1.3,7.1c0,0.3,0.2,0.5,0.5,0.5
					h1.6v5.6c0,0.5,0.4,0.8,0.8,0.8c0,0,0,0,0.1,0c0.3,0,0.5-0.1,0.7-0.2c0.2-0.2,0.3-0.4,0.3-0.8V528h0.9v5.6
					c0,0.5,0.4,0.8,0.8,0.8c0,0,0,0,0.1,0c0.3,0,0.5-0.1,0.7-0.2c0.2-0.2,0.3-0.4,0.3-0.8V528h1.7
					C435.6,528.1,435.8,527.8,435.8,527.5L435.8,527.5z"/>
			</g>
		</g>
	</g>
	<g>
		<g>
			<circle class="st8" cx="561" cy="568.2" r="19.7"/>
		</g>
		<g>
			<path class="st8" d="M561,584.9c0,0,0.2,0.3,0.5,0.7c0.1,0.2,0.3,0.5,0.5,0.8c0.1,0.2,0.2,0.3,0.3,0.5s0,0.4,0,0.5
				c0,1.5,0,3.5,0,5.5s0,4,0,5.5c0,0.1,0,0.2,0,0.3s0,0.2,0,0.3c-0.1,0.2-0.2,0.3-0.3,0.5c-0.2,0.3-0.4,0.6-0.5,0.8
				c-0.3,0.4-0.5,0.7-0.5,0.7s-0.2-0.3-0.5-0.7c-0.1-0.2-0.3-0.5-0.5-0.8c-0.1-0.2-0.2-0.3-0.3-0.5c-0.1-0.1-0.1-0.2,0-0.3
				c0-0.1,0-0.2,0-0.3c0-1.5,0-3.5,0-5.5s0-4,0-5.5c0-0.2-0.1-0.4,0-0.5c0.1-0.2,0.2-0.3,0.3-0.5c0.2-0.3,0.4-0.6,0.5-0.8
				C560.8,585.1,561,584.9,561,584.9z"/>
		</g>
		<g>
			<g>
				<circle class="st1" cx="561" cy="559.9" r="1.7"/>
				<path class="st1" d="M563.2,562.2h-4.4c-0.8,0-1.4,0.6-1.4,1.4v7c0,0.3,0.2,0.5,0.5,0.5h0.8v5.5c0,0.5,0.4,0.8,0.8,0.8
					c0,0,0,0,0.1,0c0.3,0,0.5-0.1,0.7-0.2c0.2-0.2,0.3-0.4,0.3-0.8v-5.3h0.9v5.5c0,0.5,0.4,0.8,0.8,0.8c0,0,0,0,0.1,0
					c0.3,0,0.5-0.1,0.7-0.2c0.2-0.2,0.3-0.4,0.3-0.8v-5.3h0.7c0.3,0,0.5-0.2,0.5-0.5v-7C564.6,562.9,564,562.2,563.2,562.2z"/>
			</g>
		</g>
	</g>
	<g>
		<g>
			<circle class="st8" cx="772" cy="284.4" r="19.7"/>
		</g>
		<g>
			<path class="st8" d="M772,301.9c0,0,0.2,0.2,0.5,0.6c0.1,0.2,0.3,0.5,0.5,0.7c0.1,0.1,0.2,0.3,0.3,0.5s0,0.3,0,0.5
				c0,1.4,0,3.3,0,5.2s0,3.8,0,5.2c0,0.1,0,0.2,0,0.3c0,0.1,0,0.2,0,0.2c-0.1,0.2-0.2,0.3-0.3,0.5c-0.2,0.3-0.3,0.5-0.5,0.7
				c-0.3,0.4-0.5,0.6-0.5,0.6s-0.2-0.2-0.5-0.6c-0.1-0.2-0.3-0.5-0.5-0.7c-0.1-0.1-0.2-0.3-0.3-0.5c-0.1-0.1-0.1-0.2,0-0.2
				c0-0.1,0-0.2,0-0.3c0-1.4,0-3.3,0-5.2s0-3.8,0-5.2c0-0.2-0.1-0.3,0-0.5s0.2-0.3,0.3-0.5c0.2-0.3,0.3-0.5,0.5-0.7
				C771.8,302.2,772,301.9,772,301.9z"/>
		</g>
		<g>
			<path class="st1" d="M780.6,280.4l-17.1-0.2c-0.7,0-1.2,0.5-1.2,1.2l-0.1,12.9c0,0.7,0.5,1.2,1.2,1.2l17.1,0.2
				c0.7,0,1.2-0.5,1.2-1.2l0.1-12.9C781.8,281,781.3,280.4,780.6,280.4z M763.4,281.5C763.4,281.5,763.5,281.4,763.4,281.5l17.2,0.1
				l0,0l-0.1,13l0,0l-17.1-0.2l0,0L763.4,281.5z"/>
			<path class="st1" d="M767.4,279C767.4,279,767.5,279.1,767.4,279C767.5,279.1,767.5,279.1,767.4,279c0.1,0.1,0.2,0.2,0.2,0.2l0,0
				l0,0c0.1,0,0.1,0,0.2,0l0,0l0,0l0,0l0,0c0.1,0,0.1,0,0.2,0l0,0c0.1,0,0.1-0.1,0.2-0.1l0,0c0,0,0,0,0.1-0.1l0,0l2.9-3.5
				c0.1-0.1,0.2-0.3,0.1-0.5c0-0.2-0.1-0.3-0.2-0.4c-0.3-0.2-0.7-0.2-0.9,0.1l-1.8,2.2l0.1-5.4c0-0.3-0.3-0.6-0.6-0.6
				s-0.6,0.3-0.6,0.6l-0.1,5.5l-1.6-1.9c-0.1-0.1-0.3-0.2-0.4-0.2c-0.2,0-0.3,0-0.5,0.1c-0.1,0.1-0.2,0.3-0.2,0.4s0,0.3,0.1,0.5
				L767.4,279z"/>
			<path class="st1" d="M773.7,275.3c0.2,0,0.4-0.1,0.5-0.2l1.7-1.9l-0.1,5.5c0,0.3,0.3,0.6,0.6,0.6s0.6-0.3,0.6-0.6l0.1-5.4
				l1.7,2.2c0.2,0.3,0.6,0.3,0.9,0.1c0.3-0.2,0.3-0.6,0.1-0.9l-2.8-3.6l0,0c0,0,0-0.1-0.1-0.1l0,0l0,0c0,0-0.1-0.1-0.2-0.1l0,0
				c-0.1,0-0.1,0-0.2,0l0,0c-0.1,0-0.1,0-0.2,0l0,0l0,0c-0.1,0-0.1,0-0.1,0.1l0,0l-0.1,0.1l-2.8,3.1c-0.2,0.3-0.2,0.6,0.1,0.9
				C773.4,275.3,773.5,275.3,773.7,275.3z"/>
			<path class="st1" d="M767,284.4c0.5,0,0.9-0.4,0.9-0.9s-0.4-0.9-0.9-0.9s-0.9,0.4-0.9,0.9S766.5,284.4,767,284.4z"/>
			<path class="st1" d="M776.9,284.5c0.5,0,0.9-0.4,0.9-0.9s-0.4-0.9-0.9-0.9s-0.9,0.4-0.9,0.9S776.4,284.5,776.9,284.5z"/>
			<path class="st1" d="M772,284.5c0.5,0,0.9-0.4,0.9-0.9s-0.4-0.9-0.9-0.9s-0.9,0.4-0.9,0.9S771.5,284.5,772,284.5z"/>
			<path class="st1" d="M765.7,289.5L765.7,289.5l0.1,3.5c0,0.3,0.3,0.6,0.6,0.6c0.2,0,0.3,0,0.4-0.2c0.1-0.1,0.2-0.3,0.2-0.5v-3.4
				h0.2v3.5c0,0.3,0.2,0.6,0.5,0.6l0,0c0.2,0,0.3,0,0.4-0.2c0.1-0.1,0.2-0.3,0.2-0.5v-3.4l0,0c0.4,0,0.6-0.3,0.6-0.6v-2.6
				c0-0.9-0.7-1.7-1.6-1.7h-0.7c-0.9,0-1.7,0.7-1.7,1.6v2.6C765,289.2,765.3,289.5,765.7,289.5z"/>
			<path class="st1" d="M770.6,289.6L770.6,289.6l0.1,3.5c0,0.3,0.3,0.6,0.6,0.6c0.2,0,0.3,0,0.4-0.2c0.1-0.1,0.2-0.3,0.2-0.5v-3.4
				h0.2v3.5c0,0.3,0.3,0.6,0.6,0.6c0.2,0,0.3,0,0.4-0.2c0.1-0.1,0.2-0.3,0.2-0.5v-3.4l0,0c0.4,0,0.6-0.3,0.6-0.6v-2.6
				c0-0.9-0.7-1.7-1.6-1.7h-0.7c-0.9,0-1.7,0.7-1.7,1.6v2.6C770,289.3,770.3,289.6,770.6,289.6z"/>
			<path class="st1" d="M775.5,289.6L775.5,289.6v3.6c0,0.3,0.3,0.6,0.6,0.6c0.2,0,0.3,0,0.4-0.2c0.1-0.1,0.2-0.3,0.2-0.5v-3.5h0.2
				v3.6c0,0.3,0.3,0.6,0.6,0.6c0.2,0,0.3,0,0.4-0.2c0.1-0.1,0.2-0.3,0.2-0.5v-3.5l0,0c0.4,0,0.6-0.3,0.6-0.6v-2.6
				c0-0.9-0.7-1.7-1.6-1.7h-0.7c-0.9,0-1.7,0.7-1.7,1.6v2.6C774.8,289.3,775.1,289.6,775.5,289.6z"/>
		</g>
	</g>
	<g>
		<g>
			<circle class="st8" cx="1059.1" cy="754.4" r="19.7"/>
		</g>
		<path class="st1" d="M1068.9,746.2h-5.8c-0.3,0-0.6,0.3-0.6,0.6v2.8h-4.1c-0.3,0-0.6,0.3-0.6,0.6v2.7h-4.1c-0.3,0-0.6,0.3-0.6,0.6
			v2.8h-4.1c-0.3,0-0.6,0.3-0.6,0.6v4.9c0,0.3,0.3,0.6,0.6,0.6h6c0.1,0,0.2,0,0.3-0.1l13.7-9.7c0.2-0.1,0.3-0.3,0.3-0.5v-5.3
			C1069.5,746.5,1069.2,746.2,1068.9,746.2z M1068.3,747.4v4.4l-13.3,9.5h-5.2v-3.7h4.1c0.3,0,0.6-0.3,0.6-0.6v-2.8h4.1
			c0.3,0,0.6-0.3,0.6-0.6v-2.7h4.1c0.3,0,0.6-0.3,0.6-0.6v-2.8L1068.3,747.4z"/>
		<g>
			<path class="st8" d="M1059.1,771.9c0,0,0.2,0.2,0.5,0.6c0.2,0.2,0.4,0.5,0.5,0.7c0.1,0.1,0.2,0.3,0.3,0.5c0.1,0.1,0,0.2,0,0.2
				c0,0.1,0,0.2,0,0.3c0,1.4,0,3.3,0,5.2s0,3.8,0,5.2c0,0.1,0,0.2,0,0.3s0,0.2,0,0.2c-0.1,0.2-0.2,0.3-0.3,0.5
				c-0.2,0.3-0.4,0.5-0.5,0.7c-0.3,0.4-0.5,0.6-0.5,0.6s-0.2-0.2-0.5-0.6c-0.2-0.2-0.4-0.5-0.5-0.7c-0.1-0.1-0.2-0.3-0.3-0.5
				c-0.1-0.1-0.1-0.2,0-0.2c0-0.1,0-0.2,0-0.3c0-1.4,0-3.3,0-5.2s0-3.8,0-5.2c0-0.1,0-0.2,0-0.3s0-0.2,0-0.2
				c0.1-0.2,0.2-0.3,0.3-0.5c0.2-0.3,0.4-0.5,0.5-0.7C1058.8,772.1,1059.1,771.9,1059.1,771.9z"/>
		</g>
	</g>
	<g>
		<g>
			<circle class="st8" cx="881.5" cy="582.4" r="19.7"/>
		</g>
		<path class="st1" d="M891.3,574.2h-5.8c-0.3,0-0.6,0.3-0.6,0.6v2.8h-4.1c-0.3,0-0.6,0.3-0.6,0.6v2.7h-4.1c-0.3,0-0.6,0.3-0.6,0.6
			v2.8h-4.1c-0.3,0-0.6,0.3-0.6,0.6v4.9c0,0.3,0.3,0.6,0.6,0.6h6c0.1,0,0.2,0,0.3-0.1l13.7-9.7c0.2-0.1,0.3-0.3,0.3-0.5v-5.3
			C891.9,574.5,891.6,574.2,891.3,574.2z M890.8,575.5v4.4l-13.3,9.5h-5.2v-3.7h4.1c0.3,0,0.6-0.3,0.6-0.6v-2.8h4.1
			c0.3,0,0.6-0.3,0.6-0.6V579h4.1c0.3,0,0.6-0.3,0.6-0.6v-2.8L890.8,575.5z"/>
		<g>
			<path class="st8" d="M881.5,599.9c0,0,0.2,0.2,0.5,0.6c0.2,0.2,0.4,0.5,0.5,0.7c0.1,0.1,0.2,0.3,0.3,0.5c0.1,0.1,0,0.2,0,0.2
				c0,0.1,0,0.2,0,0.3c0,1.4,0,3.3,0,5.2s0,3.8,0,5.2c0,0.1,0,0.2,0,0.3s0,0.2,0,0.2c-0.1,0.2-0.2,0.3-0.3,0.5
				c-0.2,0.3-0.4,0.5-0.5,0.7c-0.3,0.4-0.5,0.6-0.5,0.6s-0.2-0.2-0.5-0.6c-0.2-0.2-0.4-0.5-0.5-0.7c-0.1-0.1-0.2-0.3-0.3-0.5
				c-0.1-0.1-0.1-0.2,0-0.2c0-0.1,0-0.2,0-0.3c0-1.4,0-3.3,0-5.2s0-3.8,0-5.2c0-0.1,0-0.2,0-0.3s0-0.2,0-0.2
				c0.1-0.2,0.2-0.3,0.3-0.5c0.2-0.3,0.4-0.5,0.5-0.7C881.3,600.2,881.5,599.9,881.5,599.9z"/>
		</g>
	</g>
	<g>
		<g>
			<circle class="st8" cx="1373" cy="489.7" r="19.7"/>
		</g>
		<path class="st1" d="M1382.9,481.5h-5.8c-0.3,0-0.6,0.3-0.6,0.6v2.8h-4.1c-0.3,0-0.6,0.3-0.6,0.6v2.7h-4.1c-0.3,0-0.6,0.3-0.6,0.6
			v2.8h-4.1c-0.3,0-0.6,0.3-0.6,0.6v4.9c0,0.3,0.3,0.6,0.6,0.6h6c0.1,0,0.2,0,0.3-0.1l13.7-9.7c0.2-0.1,0.3-0.3,0.3-0.5v-5.3
			C1383.5,481.8,1383.2,481.5,1382.9,481.5z M1382.3,482.7v4.4l-13.3,9.5h-5.2v-3.7h4.1c0.3,0,0.6-0.3,0.6-0.6v-2.8h4.1
			c0.3,0,0.6-0.3,0.6-0.6v-2.7h4.1c0.3,0,0.6-0.3,0.6-0.6v-2.8L1382.3,482.7z"/>
		<g>
			<path class="st8" d="M1373,507.2c0,0,0.2,0.2,0.5,0.6c0.2,0.2,0.4,0.5,0.5,0.7c0.1,0.1,0.2,0.3,0.3,0.5c0.1,0.1,0,0.2,0,0.2
				c0,0.1,0,0.2,0,0.3c0,1.4,0,3.3,0,5.2c0,1.9,0,3.8,0,5.2c0,0.1,0,0.2,0,0.3s0,0.2,0,0.2c-0.1,0.2-0.2,0.3-0.3,0.5
				c-0.2,0.3-0.4,0.5-0.5,0.7c-0.3,0.4-0.5,0.6-0.5,0.6s-0.2-0.2-0.5-0.6c-0.2-0.2-0.4-0.5-0.5-0.7c-0.1-0.1-0.2-0.3-0.3-0.5
				c-0.1-0.1-0.1-0.2,0-0.2c0-0.1,0-0.2,0-0.3c0-1.4,0-3.3,0-5.2s0-3.8,0-5.2c0-0.1,0-0.2,0-0.3c0-0.1,0-0.2,0-0.2
				c0.1-0.2,0.2-0.3,0.3-0.5c0.2-0.3,0.4-0.5,0.5-0.7C1372.8,507.4,1373,507.2,1373,507.2z"/>
		</g>
	</g>
	<g>
		<g>
			<circle class="st8" cx="1557.4" cy="477.3" r="19.7"/>
		</g>
		<path class="st1" d="M1567.2,469.1h-5.8c-0.3,0-0.6,0.3-0.6,0.6v2.8h-4.1c-0.3,0-0.6,0.3-0.6,0.6v2.7h-4.1c-0.3,0-0.6,0.3-0.6,0.6
			v2.8h-4.1c-0.3,0-0.6,0.3-0.6,0.6v4.9c0,0.3,0.3,0.6,0.6,0.6h6c0.1,0,0.2,0,0.3-0.1l13.7-9.7c0.2-0.1,0.3-0.3,0.3-0.5v-5.3
			C1567.8,469.4,1567.6,469.1,1567.2,469.1z M1566.7,470.4v4.4l-13.3,9.5h-5.2v-3.7h4.1c0.3,0,0.6-0.3,0.6-0.6v-2.8h4.1
			c0.3,0,0.6-0.3,0.6-0.6v-2.7h4.1c0.3,0,0.6-0.3,0.6-0.6v-2.8L1566.7,470.4z"/>
		<g>
			<path class="st8" d="M1557.4,494.8c0,0,0.2,0.2,0.5,0.6c0.2,0.2,0.4,0.5,0.5,0.7c0.1,0.1,0.2,0.3,0.3,0.5c0.1,0.1,0.1,0.2,0,0.2
				c0,0.1,0,0.2,0,0.3c0,1.4,0,3.3,0,5.2c0,1.9,0,3.8,0,5.2c0,0.1,0,0.2,0,0.3c0,0.1,0,0.2,0,0.2c-0.1,0.2-0.2,0.3-0.3,0.5
				c-0.2,0.3-0.4,0.5-0.5,0.7c-0.3,0.4-0.5,0.6-0.5,0.6s-0.2-0.2-0.5-0.6c-0.2-0.2-0.4-0.5-0.5-0.7c-0.1-0.1-0.2-0.3-0.3-0.5
				c-0.1-0.1-0.1-0.2,0-0.2c0-0.1,0-0.2,0-0.3c0-1.4,0-3.3,0-5.2c0-1.9,0-3.8,0-5.2c0-0.1,0-0.2,0-0.3c0-0.1,0-0.2,0-0.2
				c0.1-0.2,0.2-0.3,0.3-0.5c0.2-0.3,0.4-0.5,0.5-0.7C1557.2,495.1,1557.4,494.8,1557.4,494.8z"/>
		</g>
	</g>
	<g>
		<g>
			<circle class="st8" cx="1327.7" cy="585.4" r="19.7"/>
		</g>
		<g>
			<path class="st8" d="M1327.7,602.9c0,0,0.2,0.2,0.5,0.6c0.1,0.2,0.3,0.5,0.5,0.7c0.1,0.1,0.2,0.3,0.3,0.5c0.1,0.2,0,0.3,0,0.5
				c0,1.4,0,3.3,0,5.2s0,3.8,0,5.2c0,0.1,0,0.2,0,0.3s0,0.2,0,0.2c-0.1,0.2-0.2,0.3-0.3,0.5c-0.2,0.3-0.3,0.5-0.5,0.7
				c-0.3,0.4-0.5,0.6-0.5,0.6s-0.2-0.2-0.5-0.6c-0.1-0.2-0.3-0.5-0.5-0.7c-0.1-0.1-0.2-0.3-0.3-0.5c-0.1-0.1-0.1-0.2,0-0.2
				c0-0.1,0-0.2,0-0.3c0-1.4,0-3.3,0-5.2s0-3.8,0-5.2c0-0.2-0.1-0.3,0-0.5s0.2-0.3,0.3-0.5c0.2-0.3,0.3-0.5,0.5-0.7
				C1327.5,603.2,1327.7,602.9,1327.7,602.9z"/>
		</g>
		<g>
			<g>
				<circle class="st1" cx="1321.5" cy="577.2" r="1.7"/>
				<path class="st1" d="M1323.7,579.5h-4.4c-0.8,0-1.4,0.6-1.4,1.4v7c0,0.3,0.2,0.5,0.5,0.5h0.8v5.5c0,0.5,0.4,0.8,0.8,0.8
					c0,0,0,0,0.1,0c0.3,0,0.5-0.1,0.7-0.2c0.2-0.2,0.3-0.4,0.3-0.8v-5.3h0.9v5.5c0,0.5,0.4,0.8,0.8,0.8c0,0,0,0,0.1,0
					c0.3,0,0.5-0.1,0.7-0.2c0.2-0.2,0.3-0.4,0.3-0.8v-5.3h0.7c0.3,0,0.5-0.2,0.5-0.5v-7C1325,580.1,1324.4,579.5,1323.7,579.5z"/>
				<path class="st1" d="M1334,578.5c0.9,0,1.7-0.8,1.7-1.7s-0.8-1.7-1.7-1.7c-0.9,0-1.7,0.8-1.7,1.7
					C1332.3,577.8,1333,578.5,1334,578.5z"/>
				<path class="st1" d="M1338.5,587.4l-1.7-7.4c-0.2-0.9-0.8-1-1.3-1h-3.1c-0.7,0-1.3,0.6-1.3,1.3l-1.3,7.1c0,0.3,0.2,0.5,0.5,0.5
					h1.6v5.6c0,0.5,0.4,0.8,0.8,0.8c0,0,0,0,0.1,0c0.3,0,0.5-0.1,0.7-0.2c0.2-0.2,0.3-0.4,0.3-0.8v-5.4h0.9v5.6
					c0,0.5,0.4,0.8,0.8,0.8c0,0,0,0,0.1,0c0.3,0,0.5-0.1,0.7-0.2c0.2-0.2,0.3-0.4,0.3-0.8v-5.4h1.7
					C1338.3,588,1338.5,587.8,1338.5,587.4C1338.5,587.5,1338.5,587.4,1338.5,587.4z"/>
				<path class="st1" d="M1327.7,573.6c-0.3,0-0.5,0.2-0.5,0.5v21.7c0,0.3,0.2,0.5,0.5,0.5s0.5-0.2,0.5-0.5v-21.7
					C1328.2,573.8,1328,573.6,1327.7,573.6z"/>
			</g>
		</g>
	</g>
	<g>
		<g>
			<circle class="st8" cx="1360.5" cy="616.7" r="19.7"/>
		</g>
		<g>
			<path class="st8" d="M1360.5,634.3c0,0,0.2,0.2,0.5,0.6c0.1,0.2,0.3,0.5,0.5,0.7c0.1,0.1,0.2,0.3,0.3,0.5c0.1,0.2,0,0.3,0,0.5
				c0,1.4,0,3.3,0,5.2s0,3.8,0,5.2c0,0.1,0,0.2,0,0.3s0,0.2,0,0.2c-0.1,0.2-0.2,0.3-0.3,0.5c-0.2,0.3-0.3,0.5-0.5,0.7
				c-0.3,0.4-0.5,0.6-0.5,0.6s-0.2-0.2-0.5-0.6c-0.1-0.2-0.3-0.5-0.5-0.7c-0.1-0.1-0.2-0.3-0.3-0.5c-0.1-0.1-0.1-0.2,0-0.2
				c0-0.1,0-0.2,0-0.3c0-1.4,0-3.3,0-5.2s0-3.8,0-5.2c0-0.2-0.1-0.3,0-0.5s0.2-0.3,0.3-0.5c0.2-0.3,0.3-0.5,0.5-0.7
				C1360.3,634.5,1360.5,634.3,1360.5,634.3z"/>
		</g>
		<g>
			<path class="st1" d="M1369.1,612.8l-17.1-0.2c-0.7,0-1.2,0.5-1.2,1.2l-0.1,12.9c0,0.7,0.5,1.2,1.2,1.2l17.1,0.2
				c0.7,0,1.2-0.5,1.2-1.2l0.1-12.9C1370.4,613.3,1369.8,612.8,1369.1,612.8z M1352,613.8L1352,613.8l17.2,0.1l0,0l-0.1,13l0,0
				l-17.1-0.2l0,0V613.8z"/>
			<path class="st1" d="M1355.9,611.3C1356,611.4,1356,611.4,1355.9,611.3L1355.9,611.3c0.1,0.1,0.2,0.2,0.2,0.2l0,0l0,0
				c0.1,0,0.1,0,0.2,0l0,0l0,0l0,0l0,0c0.1,0,0.1,0,0.2,0l0,0c0.1,0,0.1-0.1,0.2-0.1l0,0c0,0,0,0,0.1-0.1l0,0l2.9-3.5
				c0.1-0.1,0.2-0.3,0.1-0.5c0-0.2-0.1-0.3-0.2-0.4c-0.3-0.2-0.7-0.2-0.9,0.1l-1.8,2.2l0.1-5.4c0-0.3-0.3-0.6-0.6-0.6
				s-0.6,0.3-0.6,0.6l-0.1,5.5l-1.6-1.9c-0.1-0.1-0.3-0.2-0.4-0.2c-0.2,0-0.3,0-0.5,0.1c-0.1,0.1-0.2,0.3-0.2,0.4s0,0.3,0.1,0.5
				L1355.9,611.3z"/>
			<path class="st1" d="M1362.2,607.6c0.2,0,0.4-0.1,0.5-0.2l1.7-1.9l-0.1,5.5c0,0.3,0.3,0.6,0.6,0.6s0.6-0.3,0.6-0.6l0.1-5.4
				l1.7,2.2c0.2,0.3,0.6,0.3,0.9,0.1s0.3-0.6,0.1-0.9l-2.8-3.6l0,0c0,0,0-0.1-0.1-0.1l0,0l0,0c0,0-0.1-0.1-0.2-0.1l0,0
				c-0.1,0-0.1,0-0.2,0l0,0c-0.1,0-0.1,0-0.2,0l0,0l0,0c-0.1,0-0.1,0-0.1,0.1l0,0l-0.1,0.1l-2.8,3.1c-0.2,0.3-0.2,0.6,0.1,0.9
				C1361.9,607.6,1362.1,607.6,1362.2,607.6z"/>
			<path class="st1" d="M1355.6,616.8c0.5,0,0.9-0.4,0.9-0.9s-0.4-0.9-0.9-0.9s-0.9,0.4-0.9,0.9
				C1354.7,616.4,1355.1,616.8,1355.6,616.8z"/>
			<path class="st1" d="M1365.4,616.9c0.5,0,0.9-0.4,0.9-0.9s-0.4-0.9-0.9-0.9s-0.9,0.4-0.9,0.9S1364.9,616.9,1365.4,616.9z"/>
			<path class="st1" d="M1360.5,616.8c0.5,0,0.9-0.4,0.9-0.9s-0.4-0.9-0.9-0.9s-0.9,0.4-0.9,0.9
				C1359.7,616.4,1360,616.8,1360.5,616.8z"/>
			<path class="st1" d="M1354.2,621.9L1354.2,621.9l0.1,3.5c0,0.3,0.3,0.6,0.6,0.6c0.2,0,0.3,0,0.4-0.2c0.1-0.1,0.2-0.3,0.2-0.5
				v-3.4h0.2v3.5c0,0.3,0.2,0.6,0.5,0.6l0,0c0.2,0,0.3,0,0.4-0.2c0.1-0.1,0.2-0.3,0.2-0.5v-3.4l0,0c0.4,0,0.6-0.3,0.6-0.6v-2.6
				c0-0.9-0.7-1.7-1.6-1.7h-0.7c-0.9,0-1.7,0.7-1.7,1.6v2.6C1353.6,621.6,1353.8,621.9,1354.2,621.9z"/>
			<path class="st1" d="M1359.1,621.9L1359.1,621.9l0.1,3.5c0,0.3,0.3,0.6,0.6,0.6c0.2,0,0.3,0,0.4-0.2c0.1-0.1,0.2-0.3,0.2-0.5
				v-3.4h0.2v3.5c0,0.3,0.3,0.6,0.6,0.6c0.2,0,0.3,0,0.4-0.2c0.1-0.1,0.2-0.3,0.2-0.5v-3.4l0,0c0.4,0,0.6-0.3,0.6-0.6v-2.6
				c0-0.9-0.7-1.7-1.6-1.7h-0.7c-0.9,0-1.7,0.7-1.7,1.6v2.6C1358.5,621.6,1358.8,621.9,1359.1,621.9z"/>
			<path class="st1" d="M1364,622L1364,622v3.6c0,0.3,0.3,0.6,0.6,0.6c0.2,0,0.3,0,0.4-0.2c0.1-0.1,0.2-0.3,0.2-0.5V622h0.2v3.6
				c0,0.3,0.3,0.6,0.6,0.6c0.2,0,0.3,0,0.4-0.2c0.1-0.1,0.2-0.3,0.2-0.5V622l0,0c0.4,0,0.6-0.3,0.6-0.6v-2.6c0-0.9-0.7-1.7-1.6-1.7
				h-0.7c-0.9,0-1.7,0.7-1.7,1.6v2.6C1363.4,621.7,1363.7,622,1364,622z"/>
		</g>
	</g>
	<g>
		<g>
			<circle class="st8" cx="853.4" cy="226.2" r="19.7"/>
		</g>
		<g>
			<path class="st8" d="M853.4,243.7c0,0,0.2,0.2,0.5,0.6c0.1,0.2,0.3,0.5,0.5,0.7c0.1,0.1,0.2,0.3,0.3,0.5s0,0.3,0,0.5
				c0,1.4,0,3.3,0,5.2s0,3.8,0,5.2c0,0.1,0,0.2,0,0.3c0,0.1,0,0.2,0,0.2c-0.1,0.2-0.2,0.3-0.3,0.5c-0.2,0.3-0.3,0.5-0.5,0.7
				c-0.3,0.4-0.5,0.6-0.5,0.6s-0.2-0.2-0.5-0.6c-0.1-0.2-0.3-0.5-0.5-0.7c-0.1-0.1-0.2-0.3-0.3-0.5c-0.1-0.1-0.1-0.2,0-0.2
				c0-0.1,0-0.2,0-0.3c0-1.4,0-3.3,0-5.2s0-3.8,0-5.2c0-0.2-0.1-0.3,0-0.5s0.2-0.3,0.3-0.5c0.2-0.3,0.3-0.5,0.5-0.7
				C853.2,244,853.4,243.7,853.4,243.7z"/>
		</g>
		<g>
			<path class="st9" d="M861.9,224.3h-1.1v5.5c0.4,0.1,0.7,0.2,1.1,0.2c1.7,0,3.1-1.3,3.1-2.8C865.1,225.6,863.6,224.3,861.9,224.3z
				"/>
			<path class="st1" d="M853.9,217c0.7,0.6,1.3,1,1.3,2.2c0,0.8-0.8,1.6-1.2,1.8c-0.2,0.1-0.3,0.4-0.3,0.6c0.1,0.2,0.2,0.3,0.4,0.3
				c0.1,0,0.1,0,0.2,0c0.7-0.3,1.8-1.4,1.8-2.6c0-1.6-0.9-2.3-1.6-2.9c-0.6-0.5-1.1-0.9-1.1-1.8c0-1.3,1.2-2,1.5-2
				c0.2,0,0.5-0.2,0.5-0.5s-0.2-0.5-0.5-0.5c-0.7,0-2.4,1-2.4,2.9C852.4,215.9,853.2,216.5,853.9,217z"/>
			<path class="st1" d="M850.1,217.5c0.6,0.5,1.1,0.8,1.1,1.8c0,0.6-0.6,1.3-1,1.4c-0.2,0.1-0.3,0.4-0.3,0.6
				c0.1,0.2,0.2,0.3,0.4,0.3c0.1,0,0.1,0,0.2,0c0.6-0.3,1.5-1.2,1.5-2.3c0-1.4-0.8-2-1.4-2.5c-0.5-0.4-0.9-0.7-0.9-1.5
				c0-1,1-1.6,1.2-1.6s0.5-0.2,0.5-0.5c0-0.2-0.2-0.5-0.5-0.5c-0.7,0-2.1,0.9-2.1,2.5C848.8,216.5,849.5,217.1,850.1,217.5z"/>
			<path class="st1" d="M861.9,223.7h-2.5l0,0h-13.2c-0.3,0-0.6,0.3-0.6,0.6v8.4c0,0.3,0.3,0.6,0.6,0.6h14c0.3,0,0.6-0.3,0.6-0.6
				v-2.2c0.4,0.1,0.7,0.2,1.1,0.2c2.1,0,3.7-1.5,3.7-3.4S864,223.7,861.9,223.7z M861.9,230c-0.4,0-0.8-0.1-1.1-0.2v-5.5h1.1
				c1.7,0,3.1,1.3,3.1,2.8C865.1,228.7,863.6,230,861.9,230z"/>
			<path class="st1" d="M863.1,234.7H844c-0.3,0-0.6,0.3-0.6,0.6s0.3,0.6,0.6,0.6h19.1c0.3,0,0.6-0.3,0.6-0.6
				C863.7,235,863.4,234.7,863.1,234.7z"/>
		</g>
	</g>
	<g>
		<g>
			<circle class="st8" cx="1105.6" cy="667.5" r="19.7"/>
		</g>
		<g>
			<path class="st8" d="M1105.6,685c0,0,0.2,0.2,0.5,0.6c0.1,0.2,0.3,0.5,0.5,0.7c0.1,0.1,0.2,0.3,0.3,0.5c0.1,0.2,0,0.3,0,0.5
				c0,1.4,0,3.3,0,5.2s0,3.8,0,5.2c0,0.1,0,0.2,0,0.3s0,0.2,0,0.2c-0.1,0.2-0.2,0.3-0.3,0.5c-0.2,0.3-0.3,0.5-0.5,0.7
				c-0.3,0.4-0.5,0.6-0.5,0.6s-0.2-0.2-0.5-0.6c-0.1-0.2-0.3-0.5-0.5-0.7c-0.1-0.1-0.2-0.3-0.3-0.5c-0.1-0.1-0.1-0.2,0-0.2
				c0-0.1,0-0.2,0-0.3c0-1.4,0-3.3,0-5.2s0-3.8,0-5.2c0-0.2-0.1-0.3,0-0.5s0.2-0.3,0.3-0.5c0.2-0.3,0.3-0.5,0.5-0.7
				C1105.4,685.3,1105.6,685,1105.6,685z"/>
		</g>
		<g>
			<path class="st1" d="M1118.6,662.3c-0.5-0.6-1.2-0.9-1.6-1c-0.1,0-0.3-0.1-0.4-0.1h-5.3c-0.3,0-0.6,0.1-0.9,0.3l-5,3.7v-0.6v-0.1
				c0-0.1-0.1-0.3-0.1-0.4c-0.3-0.7-0.8-1.1-1.4-1.2c-1-0.2-1.7,0.4-1.8,0.4c-0.6,0.5-0.7,1.3-0.7,1.5v3.4l-1.3,1
				c-0.1,0-0.1,0.1-0.2,0.1h-3.5c-0.2,0-0.3,0-0.4,0.1c-0.5,0.1-1.6,0.6-2.2,1.9c-0.6,1.4-0.1,2.6,0,3c0.5,1.1,1.4,1.6,1.9,1.8
				c0.2,0.1,0.3,0.1,0.5,0.1h5.9c0.3,0,0.6-0.1,0.9-0.3l10.3-7.7c0.1,0,0.1-0.1,0.2-0.1h3.3c0.1,0,0.2,0,0.3,0
				c0.3-0.1,0.6-0.2,0.9-0.3c1.1-0.6,1.5-1.8,1.5-2.3C1119.8,663.7,1118.7,662.4,1118.6,662.3z M1118.3,665.1
				c-0.1,0.3-0.3,1.2-1,1.6c-0.2,0.1-0.3,0.2-0.5,0.2l0,0h-3.3c-0.3,0-0.6,0.1-0.9,0.3l-10.3,7.7c-0.1,0-0.1,0.1-0.2,0.1h-5.9h-0.1
				c-0.3-0.1-1-0.5-1.3-1.2c-0.1-0.2-0.5-1.1,0-2c0.4-0.9,1.2-1.2,1.5-1.3h0.1h3.5c0.3,0,0.6-0.1,0.9-0.3l10.4-7.7
				c0.1,0,0.1-0.1,0.2-0.1h5.3h0.1c0.3,0.1,0.7,0.3,1.1,0.7C1117.8,663.1,1118.6,664,1118.3,665.1z"/>
			<path class="st1" d="M1103.4,662.7c1,0,1.9-0.8,1.9-1.9c0-1-0.8-1.9-1.9-1.9c-1,0-1.9,0.8-1.9,1.9
				C1101.5,661.8,1102.3,662.7,1103.4,662.7z"/>
		</g>
	</g>
	<g>
		<g>
			<polyline class="st10" points="1019.3,251.9 1019.3,162.9 575,162.9 			"/>
			<g>
				<path class="st8" d="M1025.1,251.9c0,3.2-2.6,5.7-5.7,5.7c-3.2,0-5.7-2.6-5.7-5.7c0-3.2,2.6-5.7,5.7-5.7
					C1022.5,246.2,1025.1,248.8,1025.1,251.9z"/>
			</g>
		</g>
	</g>
	<polygon class="st11" points="951,342.9 947.4,329.3 927.1,334.2 	"/>
</g>
<rect x="326.3" y="136.9" class="st0" width="251.7" height="52"/>
<rect x="344.8" y="152.4" class="st9" width="209.6" height="25.5"/>
<g class="st12">
	<path class="st1" d="M349.8,170.9v-18h4.9v14l-1.3-1l10.2-13h5.3l-14.6,18H349.8z M358.4,162.3l3.6-3l7.1,11.6h-5.6L358.4,162.3z"
		/>
	<path class="st1" d="M382.8,164c-0.2,1.4-0.7,2.7-1.3,3.8s-1.5,1.9-2.5,2.5c-1,0.6-2.2,0.9-3.5,0.9c-1.3,0-2.5-0.3-3.5-0.9
		c-1-0.6-1.8-1.4-2.4-2.5c-0.6-1.1-0.9-2.4-0.9-3.8c0-1.5,0.3-2.7,0.9-3.8c0.6-1.1,1.4-1.9,2.4-2.5c1-0.6,2.2-0.9,3.5-0.9
		c1.3,0,2.5,0.3,3.5,0.9s1.9,1.4,2.5,2.5S382.6,162.5,382.8,164z M373.7,164c0,0.7,0.1,1.3,0.4,1.8s0.7,0.9,1.2,1.2s1.1,0.4,1.7,0.4
		c0.7,0,1.3-0.1,1.9-0.4c0.6-0.3,1.1-0.7,1.6-1.2c0.4-0.5,0.8-1.1,1-1.8c-0.2-0.7-0.6-1.3-1-1.8c-0.4-0.5-1-0.9-1.6-1.2
		c-0.6-0.3-1.2-0.5-1.9-0.5c-0.6,0-1.2,0.2-1.7,0.5c-0.5,0.3-0.9,0.7-1.2,1.2S373.7,163.3,373.7,164z M381.7,170.9l-0.6-4.9l0.6-1.9
		l-0.6-1.9l0.6-5h5.1l-0.9,6.8l0.9,6.9H381.7z"/>
	<path class="st1" d="M402.2,164c-0.2,1.4-0.6,2.7-1.3,3.8c-0.6,1.1-1.5,1.9-2.4,2.5c-1,0.6-2.1,0.9-3.4,0.9c-1.3,0-2.5-0.3-3.5-0.9
		c-1-0.6-1.8-1.4-2.3-2.5c-0.6-1.1-0.8-2.4-0.8-3.8c0-1.5,0.3-2.7,0.8-3.8c0.6-1.1,1.3-1.9,2.3-2.5c1-0.6,2.2-0.9,3.5-0.9
		c1.3,0,2.4,0.3,3.4,0.9s1.8,1.4,2.4,2.5C401.5,161.2,402,162.5,402.2,164z M393.4,164c0,0.7,0.1,1.3,0.4,1.8
		c0.3,0.5,0.6,0.9,1.1,1.2s1,0.5,1.7,0.5c1,0,1.8-0.3,2.6-1c0.8-0.7,1.3-1.5,1.7-2.5c-0.3-1-0.9-1.9-1.7-2.5c-0.8-0.7-1.7-1-2.6-1
		c-0.6,0-1.2,0.2-1.7,0.5c-0.5,0.3-0.8,0.7-1.1,1.2C393.5,162.7,393.4,163.3,393.4,164z M400.7,174.8v-7.3l0.3-0.8v-5.6l-0.3-0.8v-8
		h4.8v8l-0.4,0.7v5.6l0.4,0.8v7.3H400.7z M404,164c0.2-1.5,0.6-2.8,1.3-3.9c0.6-1.1,1.4-1.9,2.4-2.5c1-0.6,2.1-0.9,3.4-0.9
		c1.3,0,2.5,0.3,3.5,0.9c1,0.6,1.8,1.5,2.3,2.5c0.5,1.1,0.8,2.4,0.8,3.8c0,1.4-0.3,2.7-0.8,3.8c-0.6,1.1-1.3,1.9-2.3,2.5
		c-1,0.6-2.2,0.9-3.5,0.9c-1.3,0-2.4-0.3-3.4-0.9c-1-0.6-1.8-1.4-2.4-2.5S404.2,165.5,404,164z M412.7,164c0-0.7-0.1-1.3-0.4-1.8
		c-0.3-0.5-0.6-0.9-1.1-1.2c-0.5-0.3-1-0.5-1.6-0.5c-1,0-1.9,0.3-2.6,1c-0.8,0.7-1.3,1.5-1.7,2.5c0.4,1,0.9,1.8,1.7,2.5
		c0.8,0.7,1.7,1,2.6,1c0.6,0,1.2-0.2,1.6-0.5c0.5-0.3,0.8-0.7,1.1-1.2C412.6,165.3,412.7,164.7,412.7,164z"/>
	<path class="st1" d="M427.9,171.2c-1.7,0-3.1-0.3-4.5-0.9c-1.3-0.6-2.3-1.5-3.1-2.6c-0.8-1.1-1.1-2.4-1.1-3.8
		c0-1.4,0.4-2.7,1.1-3.8c0.7-1.1,1.7-1.9,3-2.5c1.3-0.6,2.7-0.9,4.3-0.9c1.6,0,3.1,0.4,4.2,1.1s2.1,1.7,2.7,3s0.9,2.8,0.9,4.6h-12.2
		v-3h9.4l-1.6,1c-0.1-0.7-0.2-1.3-0.5-1.8c-0.3-0.5-0.7-0.9-1.1-1.1c-0.5-0.3-1-0.4-1.7-0.4c-0.7,0-1.3,0.1-1.8,0.4
		s-0.9,0.7-1.2,1.2c-0.3,0.5-0.4,1.1-0.4,1.8c0,0.9,0.2,1.6,0.6,2.2c0.4,0.6,1,1.1,1.7,1.4c0.8,0.3,1.7,0.5,2.8,0.5c1,0,2-0.1,3-0.4
		c1-0.3,1.9-0.6,2.7-1.1v3.1c-0.9,0.6-2,1.1-3.2,1.5C430.5,171.1,429.2,171.2,427.9,171.2z"/>
	<path class="st1" d="M446.5,157.7h5l-4,6.3v-1.1l4,6.3h-5l-3.5-5.7L446.5,157.7z M453.7,157.7h5l-4,6.3v-1.1l4,6.3h-5l-3.5-5.7
		L453.7,157.7z"/>
	<path class="st1" d="M473.9,152.9l8.2,18h-5.3l-6.9-15.9h1.4l-6.9,15.9h-5.3l8.2-18H473.9z M464.4,167.4v-4h12.4v4H464.4z"/>
	<path class="st1" d="M492.7,164.5l-4.4,6.4h-5.5l4.7-6.4H492.7z M495.1,163.3v3h-6.6l0-0.1c-1.1,0-2-0.2-2.8-0.6
		c-0.8-0.4-1.5-0.9-1.9-1.6c-0.5-0.7-0.7-1.5-0.7-2.4c0-0.9,0.2-1.7,0.7-2.4c0.5-0.7,1.1-1.2,1.9-1.6c0.8-0.4,1.8-0.6,2.8-0.6h10.2
		v13.7h-4.9v-12.5l1.3,2h-5.4c-0.5,0-1,0.1-1.3,0.4c-0.3,0.3-0.5,0.6-0.5,1.1c0,0.5,0.2,0.9,0.5,1.1c0.3,0.3,0.7,0.4,1.3,0.4H495.1z
		"/>
	<path class="st1" d="M501.4,170.9v-13.7h4.9v9.9l-1.4-0.5l7.6-9.4h5.2l-11.9,13.7H501.4z M512.5,170.9l-3.9-6.7l3.7-2.6l5.7,9.3
		H512.5z"/>
	<path class="st1" d="M534.7,165.1c-0.1,1.2-0.6,2.3-1.3,3.2c-0.8,0.9-1.8,1.6-3,2.2s-2.6,0.8-4.1,0.8c-1.7,0-3.2-0.3-4.4-0.9
		c-1.3-0.6-2.3-1.5-3-2.5c-0.7-1.1-1.1-2.3-1.1-3.8c0-1.4,0.4-2.7,1.1-3.8c0.7-1.1,1.7-1.9,3-2.6c1.3-0.6,2.8-0.9,4.4-0.9
		c1.5,0,2.9,0.3,4.1,0.8c1.2,0.5,2.2,1.2,3,2.2c0.8,0.9,1.2,2,1.3,3.3h-4.9c-0.2-0.8-0.6-1.4-1.2-1.9s-1.4-0.7-2.4-0.7
		c-0.7,0-1.3,0.1-1.9,0.4s-1,0.7-1.2,1.2c-0.3,0.5-0.4,1.2-0.4,2c0,0.8,0.1,1.4,0.4,2c0.3,0.5,0.7,0.9,1.2,1.2
		c0.5,0.3,1.2,0.4,1.9,0.4c0.9,0,1.7-0.2,2.4-0.7s1.1-1.1,1.2-1.8H534.7z"/>
	<path class="st1" d="M540.9,157.7l3.6,5.8l-3.6,5.7h-5l4-6.3v1.1l-4-6.3H540.9z M548,157.7l3.5,5.8l-3.5,5.7h-5l4-6.3v1.1l-4-6.3
		H548z"/>
</g>
</svg>
