<?xml version="1.0" encoding="utf-8"?>
<!-- Generator: Adobe Illustrator 26.0.3, SVG Export Plug-In . SVG Version: 6.00 Build 0)  -->
<svg version="1.1" id="Слой_1" xmlns="http://www.w3.org/2000/svg" xmlns:xlink="http://www.w3.org/1999/xlink" x="0px" y="0px"
	 viewBox="0 0 1920 1080" style="enable-background:new 0 0 1920 1080;" xml:space="preserve">
<style type="text/css">
	.st0{fill:#66B9FF;}
	.st1{fill:#FFFFFF;}
	.st2{fill:#E95042;}
	.st3{fill:none;stroke:#0085CC;stroke-width:4.4454;stroke-linecap:round;stroke-linejoin:round;stroke-miterlimit:10;}
	.st4{fill:none;stroke:#0085CC;stroke-width:1.9922;stroke-linecap:round;stroke-linejoin:round;stroke-miterlimit:10;}
	.st5{fill:none;stroke:#0085CC;stroke-width:1.4818;stroke-linecap:round;stroke-linejoin:round;stroke-miterlimit:10;}
	.st6{fill:none;stroke:#0085CC;stroke-width:4.3703;stroke-linecap:round;stroke-linejoin:round;stroke-miterlimit:10;}
	.st7{fill:none;stroke:#0085CC;stroke-width:1.4055;stroke-linecap:round;stroke-linejoin:round;stroke-miterlimit:10;}
	.st8{fill:none;stroke:#0085CC;stroke-width:6.9429;stroke-linecap:round;stroke-linejoin:round;stroke-miterlimit:10;}
	.st9{fill:none;stroke:#0085CC;stroke-width:6.9151;stroke-linecap:round;stroke-linejoin:round;stroke-miterlimit:10;}
	.st10{fill:#1D0EB1;}
	.st11{fill:none;}
	.st12{fill:#1C8172;}
	.st13{fill:#CC466C;}
	.st14{fill:#A5D5CD;}
	.st15{fill:#70C083;}
	.st16{fill:#9A7DEC;}
	.st17{fill:#E6799D;}
	.st18{fill:#80C2E2;}
	.st19{fill:#FEC031;}
	.st20{fill:#E95042;stroke:#E95042;stroke-width:1.8144;stroke-linecap:round;stroke-linejoin:round;stroke-miterlimit:10;}
	.st21{fill:none;stroke:#1D0EB1;stroke-width:1.3123;stroke-linecap:round;stroke-linejoin:round;}
	.st22{fill:#FB493B;}
	.st23{enable-background:new    ;}
</style>
<g>
	<g>
		<g>
			<polygon class="st0" points="1328.5,569.7 1461.4,526.2 1553.1,495.8 1597.5,540.3 1558.2,553.3 1695,634 798,932.3 728.4,862.6 
				641.5,912.1 518.6,842.2 435,799.7 305.5,735.1 395.3,671.9 284.9,619.3 450.6,454 591.1,313.8 810.6,94.2 1053.4,175.1 
				1021.7,205.4 1124.3,240.7 1091.3,273.7 1072.8,266.3 974.5,364.7 989.9,374.2 1078.7,425.5 1232.1,501.7 1255.5,527.4 			"/>
		</g>
		<g>
			<polygon class="st1" points="1330,544 1462.1,499.5 1553.8,469.1 1598.2,513.6 1558.8,526.6 1695.7,607.3 798.7,905.6 
				729.1,835.9 642.2,885.5 519.3,815.5 435.7,773.1 306.2,708.4 396,645.2 285.6,592.6 451.3,427.3 591.8,287.1 811.3,67.5 
				1054.1,148.4 1022.4,178.7 1125,214 1071.7,267.3 1071.7,267.3 990.6,347.5 1079.4,398.8 1283.6,475.6 1256.2,500.7 			"/>
		</g>
		<g>
			<path class="st2" d="M966.7,345.6l110.8,64.6l183.4,69l-24.4,22.7l65.3,37.7l-228.5,97.8l-61.1-48.7l-217.6-72.9l51-49
				L966.7,345.6 M965.8,339.1L963,342L841.9,463.2l-50.9,49l-6.2,6l8.2,2.7l216.7,72.6l60.4,48.1l2.4,1.9l2.9-1.2l228.5-97.8
				l9.6-4.1l-9-5.2l-59.2-34.2l19.2-17.9l6.2-5.7l-7.9-3l-183-68.8l-110.4-64.4L965.8,339.1L965.8,339.1z"/>
		</g>
		<g>
			<line class="st3" x1="1463.5" y1="685" x2="1415.5" y2="637.1"/>
			<polyline class="st3" points="547,445.1 482.5,509.7 480.2,511.9 			"/>
			<polyline class="st3" points="645.9,476.8 594.5,528.2 578.1,544.6 			"/>
			<polyline class="st4" points="1071.9,267.3 1054.9,284.2 1051.7,287.2 			"/>
			<polyline class="st5" points="1178.5,716.2 1214.4,704.1 1244,694.4 1306.4,673.4 			"/>
			<path class="st3" d="M1462.6,499.6c-96.6-94.2-230.5-173.8-390.7-232.3"/>
			<path class="st5" d="M1427.8,511.2c-93-90.7-221.9-167.4-376.1-223.9"/>
			<line class="st3" x1="650.8" y1="547.4" x2="594.2" y2="528.5"/>
			<line class="st3" x1="496.8" y1="428.3" x2="430" y2="495.3"/>
			<line class="st3" x1="463.8" y1="417.3" x2="547" y2="445.1"/>
			<line class="st5" x1="645.9" y1="476.8" x2="547" y2="445.1"/>
			<polyline class="st3" points="1118,775.1 1068.4,791.7 1009.1,811.4 			"/>
			<polyline class="st3" points="1121.9,659.2 1178.5,716.2 1226.2,764.1 			"/>
			<polygon class="st5" points="1145.3,723.3 1075.1,652.9 1045.6,662.6 1115.9,733.1 			"/>
			<polyline class="st5" points="1214.4,704.1 1234.2,724 1262.3,752.1 			"/>
			<polyline class="st3" points="870.4,413.8 791.3,387.4 699.9,357 607.7,326.2 			"/>
			<line class="st3" x1="625.8" y1="585.9" x2="548.4" y2="560.1"/>
			<polyline class="st3" points="525.2,552.4 509.8,547.4 495.5,542.5 			"/>
			<polyline class="st3" points="472.3,534.8 375.9,502.8 375.8,502.8 			"/>
			<polyline class="st3" points="625.8,585.9 617.5,594.2 582.4,629.3 466.5,590.7 332.6,546.1 			"/>
			<line class="st3" x1="509.8" y1="547.4" x2="466.5" y2="590.7"/>
			<polyline class="st3" points="480.2,511.9 578.1,544.6 634.7,563.5 650.8,547.4 			"/>
			<line class="st3" x1="1088.3" y1="745.5" x2="979.4" y2="781.8"/>
			<polyline class="st5" points="1244.8,693.9 1264.7,713.8 1234.2,724 			"/>
			<line class="st4" x1="1281.4" y1="646" x2="1254.6" y2="655.5"/>
			<polyline class="st6" points="607.7,326.2 584.3,349.7 557.3,376.5 			"/>
			<line class="st6" x1="870.4" y1="413.8" x2="821.4" y2="462.8"/>
			<polyline class="st5" points="957.3,244.8 952.8,249.2 989.8,261.7 1016.1,270.3 			"/>
			<line class="st3" x1="1254.6" y1="655.5" x2="1223.4" y2="624.6"/>
			<line class="st6" x1="1068.4" y1="791.7" x2="1087.1" y2="810.5"/>
			<line class="st5" x1="1449.9" y1="487.6" x2="1415.8" y2="499.7"/>
			<line class="st5" x1="1436.8" y1="475.6" x2="1403.1" y2="488.1"/>
			<line class="st5" x1="1423.2" y1="463.7" x2="1390" y2="476.8"/>
			<line class="st5" x1="1409.3" y1="452.1" x2="1376.4" y2="465.5"/>
			<line class="st5" x1="1394.9" y1="440.6" x2="1362.6" y2="454.3"/>
			<line class="st5" x1="1380.1" y1="429.3" x2="1348.2" y2="443.4"/>
			<line class="st5" x1="1364.8" y1="418.2" x2="1333.5" y2="432.7"/>
			<line class="st5" x1="1349.2" y1="407.3" x2="1318.4" y2="422.1"/>
			<line class="st5" x1="1333.3" y1="396.5" x2="1303.1" y2="411.7"/>
			<line class="st5" x1="1316.9" y1="385.9" x2="1287.3" y2="401.5"/>
			<line class="st5" x1="1300.1" y1="375.5" x2="1271.1" y2="391.5"/>
			<line class="st5" x1="1283.1" y1="365.3" x2="1254.6" y2="381.7"/>
			<line class="st5" x1="1265.6" y1="355.4" x2="1237.7" y2="372"/>
			<line class="st5" x1="1247.9" y1="345.6" x2="1220.5" y2="362.5"/>
			<line class="st5" x1="1229.7" y1="336" x2="1203" y2="353.3"/>
			<line class="st5" x1="1211.3" y1="326.6" x2="1185.2" y2="344.2"/>
			<line class="st5" x1="1192.4" y1="317.6" x2="1167" y2="335.4"/>
			<line class="st5" x1="1173.4" y1="308.8" x2="1148.6" y2="326.9"/>
			<line class="st5" x1="1153.9" y1="300.1" x2="1129.7" y2="318.5"/>
			<line class="st5" x1="1134.2" y1="291.6" x2="1110.7" y2="310.4"/>
			<line class="st5" x1="1114.2" y1="283.3" x2="1091.3" y2="302.5"/>
			<line class="st5" x1="1093.8" y1="275.5" x2="1071.7" y2="294.8"/>
			<polyline class="st5" points="1435.8,508.4 1442,490.4 1410.9,485.2 1415.4,466.8 1384.1,462.4 1387.3,443.9 1355.6,440.2 
				1357.6,421.5 1325.7,418.7 1326.3,400 1294.1,397.9 1293.4,379.2 1261.3,377.8 1259.2,359.2 1226.9,358.6 1223.4,340.1 
				1191.2,340.2 1186.6,321.8 1154.3,322.6 1148.3,304.3 1116.1,306 1108.9,287.8 1076.9,290.3 1067.2,271.9 			"/>
			<line class="st6" x1="1071.9" y1="267.3" x2="1051.3" y2="287.8"/>
			<polyline class="st6" points="1013.7,270.3 1040,279.1 1054.9,284.2 			"/>
			<polyline class="st7" points="1452.3,503 1329.6,543.9 1256.6,501.8 1257.8,500.6 			"/>
			<polyline class="st5" points="1275,484.8 1284.1,476.6 1079.8,399.7 990.8,348.3 1051.7,287.2 			"/>
			<line class="st5" x1="1313.6" y1="446.1" x2="1407.3" y2="517.9"/>
			<line class="st5" x1="1257.8" y1="500.6" x2="1352.7" y2="536.2"/>
			<polyline class="st5" points="1287.8,457.3 1353.4,507.6 1349.3,512.7 1275,484.8 			"/>
			<line class="st3" x1="709.4" y1="625.3" x2="762.4" y2="584.5"/>
			<line class="st5" x1="617.5" y1="594.2" x2="709.9" y2="624.9"/>
			<line class="st3" x1="904.1" y1="658.5" x2="863" y2="682.2"/>
			<line class="st3" x1="762.4" y1="584.5" x2="824.3" y2="537.3"/>
			<polyline class="st3" points="762.4,584.5 904.1,658.5 1007,598.7 			"/>
			<line class="st5" x1="820.2" y1="464" x2="557.3" y2="376.5"/>
			<line class="st5" x1="695.7" y1="354.9" x2="645.5" y2="405.2"/>
			<line class="st5" x1="799.8" y1="390.3" x2="749.5" y2="440.6"/>
			<line class="st5" x1="699" y1="423.6" x2="749.3" y2="373.3"/>
			<line class="st5" x1="611.8" y1="749.7" x2="832.2" y2="621.9"/>
			<line class="st5" x1="1450.5" y1="611.8" x2="1609.9" y2="558.6"/>
			<polyline class="st5" points="1495.3,596.8 1546.9,648.8 1552.7,654.7 			"/>
			<line class="st6" x1="610.9" y1="322.9" x2="607.7" y2="326.2"/>
			<line class="st6" x1="619.5" y1="314.8" x2="622.1" y2="312.3"/>
			<polyline class="st8" points="1559.3,526.8 1696.2,607.3 797.9,906.9 667.1,776 284.6,594.1 509.9,368.8 811.3,67.2 
				1054.2,148.2 1022.8,179.7 1125.2,213.8 1072.8,266.3 			"/>
			<polyline class="st3" points="394.6,647 305.7,708.6 349,729.6 391.7,751.1 435.2,773.3 519,815.8 529.6,821.6 539.8,827.2 
				550,833 560.1,838.7 570.3,844.4 580.3,850.1 620.4,873.2 630.4,879.1 641.3,885.4 728.4,837.3 			"/>
			<line class="st6" x1="557.3" y1="376.5" x2="550.4" y2="383.5"/>
			<line class="st3" x1="540.7" y1="393.3" x2="535.4" y2="398.6"/>
			<line class="st5" x1="826.7" y1="165.4" x2="815.5" y2="176.4"/>
			<line class="st6" x1="1013.7" y1="270.3" x2="994.5" y2="289.6"/>
			<line class="st6" x1="980.2" y1="303.9" x2="956.3" y2="327.8"/>
			<line class="st3" x1="535.4" y1="398.6" x2="503.4" y2="430.6"/>
			<line class="st5" x1="896.4" y1="95.6" x2="826.7" y2="165.4"/>
			<line class="st5" x1="794.7" y1="197.3" x2="758.9" y2="233.2"/>
			<line class="st5" x1="746" y1="246" x2="735" y2="257.2"/>
			<line class="st5" x1="1026" y1="176" x2="969" y2="233"/>
			<line class="st5" x1="709.6" y1="168.9" x2="794.7" y2="197.3"/>
			<polyline class="st5" points="863,683.7 897.8,700.5 923.5,727.2 			"/>
			<polyline class="st3" points="480.3,512 467.6,507.8 466.3,507.3 			"/>
			<line class="st6" x1="444.4" y1="500" x2="430.2" y2="495.3"/>
			<line class="st3" x1="480.3" y1="512" x2="466.3" y2="507.3"/>
			<line class="st6" x1="444.4" y1="500" x2="395.2" y2="483.5"/>
			<line class="st3" x1="1087.9" y1="745.1" x2="1096.7" y2="753.9"/>
			<polyline class="st3" points="1109.4,766.5 1110.1,767.3 1118.1,775.1 			"/>
			<line class="st3" x1="1389.4" y1="610.8" x2="1281.3" y2="646.7"/>
			<line class="st3" x1="1358.8" y1="580.2" x2="1249.8" y2="616.5"/>
			<line class="st6" x1="1388.9" y1="610.3" x2="1397.2" y2="618.6"/>
			<line class="st6" x1="1389.4" y1="610.8" x2="1380.6" y2="602"/>
			<line class="st3" x1="1367.9" y1="589.3" x2="1358.8" y2="580.2"/>
			<polyline class="st3" points="1280,647 1283.5,650.5 1305.5,672.6 1414.7,636.1 1407,628.4 			"/>
			<polyline class="st6" points="1249.7,616.5 1258.4,625.2 1258.9,625.9 			"/>
			<polyline class="st6" points="1271.6,638.6 1273,640 1280,647 			"/>
			<polyline class="st3" points="1009.1,811.4 979.4,781.8 923.1,725.4 1031.9,689.1 1088.3,745.5 			"/>
			<polyline class="st3" points="1492.4,675.1 1447.5,630.4 1404.6,587.5 1388.2,570.9 			"/>
			<polyline class="st3" points="1443.8,626.5 1460,621 1404.4,565.5 1388.2,570.9 			"/>
			<polyline class="st5" points="1409.7,592 1507.7,558.8 1533.8,584 			"/>
			<line class="st3" x1="1223.4" y1="624.6" x2="1121.9" y2="659.2"/>
			<polyline class="st5" points="652,340.2 633,359.1 622.7,369.5 603.3,388.8 601.4,390.7 			"/>
			<line class="st5" x1="1313.6" y1="446.1" x2="1287.8" y2="457.3"/>
			<line class="st3" x1="850.4" y1="387.3" x2="921.5" y2="316.2"/>
			<line class="st3" x1="664.3" y1="270.2" x2="707.6" y2="284.6"/>
			<polyline class="st3" points="619.5,314.8 651,283.5 694.2,297.9 			"/>
			<line class="st3" x1="664.3" y1="270.2" x2="694.2" y2="240.4"/>
			<polyline class="st6" points="850.4,387.3 806,372.5 803,371.5 			"/>
			<line class="st3" x1="666.4" y1="325.8" x2="724.7" y2="345.2"/>
			<line class="st6" x1="742.4" y1="351.1" x2="780" y2="363.8"/>
			<line class="st6" x1="767.7" y1="264.9" x2="781.1" y2="269.4"/>
			<line class="st6" x1="750.8" y1="259.3" x2="652.2" y2="226.5"/>
			<line class="st3" x1="850.4" y1="387.3" x2="921.5" y2="316.2"/>
			<polyline class="st3" points="828.1,285 760,352.9 756.9,356.1 			"/>
			<line class="st3" x1="896.9" y1="307.9" x2="825.7" y2="379"/>
			<line class="st3" x1="664.3" y1="270.2" x2="707.6" y2="284.6"/>
			<line class="st3" x1="651" y1="283.5" x2="694.2" y2="297.9"/>
			<polyline class="st3" points="921.5,316.2 781.1,269.4 775.4,275.1 709.9,340.2 			"/>
			<polyline class="st3" points="737.1,255.1 710.8,281.4 696.4,295.8 669.6,322.4 666.3,325.8 			"/>
			<line class="st6" x1="781.1" y1="269.4" x2="933" y2="319.9"/>
			<line class="st3" x1="664.3" y1="270.2" x2="694.2" y2="240.4"/>
			<polyline class="st6" points="850.4,387.3 806,372.5 803,371.5 			"/>
			<line class="st3" x1="625" y1="312.3" x2="666.3" y2="325.8"/>
			<line class="st3" x1="666.4" y1="325.8" x2="724.7" y2="345.2"/>
			<line class="st6" x1="742.4" y1="351.1" x2="780" y2="363.8"/>
			<polyline class="st3" points="1559.3,526.8 1549.9,529.9 1544.1,526.4 1535.1,521.5 1487.2,537.5 			"/>
			<polyline class="st9" points="1462.5,499.6 1462.5,499.6 1554.3,469 1598.7,513.6 1598.8,513.6 1559.3,526.8 			"/>
			<line class="st3" x1="1453.7" y1="503.9" x2="1460.8" y2="511.1"/>
			<line class="st3" x1="1428.6" y1="511.9" x2="1463.2" y2="500.7"/>
			<polyline class="st3" points="1475.6,525.9 1499.4,549.8 1507.2,557.7 1573.9,535.4 			"/>
			<line class="st5" x1="1275" y1="484.8" x2="1257.8" y2="500.6"/>
		</g>
		<line class="st5" x1="824.3" y1="537.3" x2="1006.3" y2="597.9"/>
	</g>
	<g>
		<g>
			<circle class="st10" cx="1550.3" cy="475.7" r="19.6"/>
		</g>
		<path class="st1" d="M1560.1,467.6h-5.8c-0.3,0-0.6,0.3-0.6,0.6v2.7h-4.1c-0.3,0-0.6,0.3-0.6,0.6v2.7h-4.1c-0.3,0-0.6,0.3-0.6,0.6
			v2.8h-4.1c-0.3,0-0.6,0.3-0.6,0.6v4.9c0,0.3,0.3,0.6,0.6,0.6h6c0.1,0,0.2,0,0.3-0.1l13.7-9.7c0.2-0.1,0.3-0.3,0.3-0.5v-5.3
			C1560.7,467.9,1560.4,467.6,1560.1,467.6z M1559.5,468.8v4.3l-13.3,9.4h-5.2v-3.6h4.1c0.3,0,0.6-0.3,0.6-0.6v-2.8h4.1
			c0.3,0,0.6-0.3,0.6-0.6v-2.7h4.1c0.3,0,0.6-0.3,0.6-0.6v-2.7L1559.5,468.8z"/>
		<g>
			<path class="st10" d="M1550.3,493.2c0.6,0.6,1,1.2,1.4,1.9c0,0.6,0,1.2,0,1.9v3.7c0,1.2,0,4.4,0,5.6c-0.4,0.6-0.8,1.2-1.4,1.9
				c-0.6-0.6-1-1.2-1.4-1.9c0-1.2,0-4.4,0-5.6V497c0-0.6,0-1.2,0-1.9C1549.3,494.4,1549.7,493.8,1550.3,493.2L1550.3,493.2z"/>
		</g>
	</g>
	<g>
		<g>
			<circle class="st10" cx="426.3" cy="524.7" r="19.6"/>
		</g>
		<g>
			<path class="st10" d="M426.3,541.3c0.5,0.7,0.9,1.3,1.3,2c0,0.7,0,1.3,0,2v4c0,1.3,0,4.7,0,6c-0.4,0.7-0.8,1.3-1.3,2
				c-0.5-0.7-0.9-1.3-1.3-2c0-1.3,0-4.7,0-6v-4c0-0.7,0-1.3,0-2C425.3,542.7,425.7,542,426.3,541.3L426.3,541.3z"/>
		</g>
		<g>
			<g>
				<path class="st1" d="M426.1,517.9c0.9,0,1.7-0.8,1.7-1.7s-0.8-1.7-1.7-1.7c-0.9,0-1.7,0.8-1.7,1.7
					C424.4,517.1,425.2,517.9,426.1,517.9z"/>
				<path class="st1" d="M430.7,526.7l-1.7-7.3c-0.2-0.8-0.8-1-1.3-1h-3.1c-0.7,0-1.3,0.6-1.3,1.3l-1.3,7c0,0.3,0.2,0.5,0.5,0.5h1.5
					v5.6c0,0.5,0.4,0.8,0.8,0.8c0,0,0,0,0.1,0c0.3,0,0.5-0.1,0.7-0.2c0.2-0.2,0.3-0.4,0.3-0.8v-5.4h0.9v5.6c0,0.5,0.4,0.8,0.8,0.8
					c0,0,0,0,0.1,0c0.3,0,0.5-0.1,0.7-0.2c0.2-0.2,0.3-0.4,0.3-0.8v-5.4h1.7C430.4,527.3,430.7,527.1,430.7,526.7
					C430.7,526.8,430.7,526.7,430.7,526.7z"/>
			</g>
		</g>
	</g>
	<g>
		<g>
			<circle class="st10" cx="555.4" cy="567.2" r="19.6"/>
		</g>
		<g>
			<path class="st10" d="M555.4,583.9c0.5,0.7,0.9,1.3,1.3,2c0,0.7,0,1.3,0,2v4c0,1.3,0,4.7,0,6c-0.4,0.7-0.8,1.3-1.3,2
				c-0.5-0.7-0.9-1.3-1.3-2c0-1.3,0-4.7,0-6v-4c0-0.7,0-1.3,0-2C554.4,585.2,554.8,584.5,555.4,583.9L555.4,583.9z"/>
		</g>
		<g>
			<g>
				<circle class="st1" cx="555.4" cy="559" r="1.7"/>
				<path class="st1" d="M557.5,561.3h-4.4c-0.8,0-1.4,0.6-1.4,1.4v6.9c0,0.3,0.2,0.5,0.5,0.5h0.8v5.5c0,0.5,0.4,0.8,0.8,0.8
					c0,0,0,0,0.1,0c0.3,0,0.5-0.1,0.7-0.2c0.2-0.2,0.3-0.4,0.3-0.8v-5.3h0.9v5.5c0,0.5,0.4,0.8,0.8,0.8c0,0,0,0,0.1,0
					c0.3,0,0.5-0.1,0.7-0.2c0.2-0.2,0.3-0.4,0.3-0.8v-5.3h0.7c0.3,0,0.5-0.2,0.5-0.5v-6.9C558.9,561.9,558.3,561.3,557.5,561.3z"/>
			</g>
		</g>
	</g>
	<g>
		<g>
			<circle class="st10" cx="1051.4" cy="752.7" r="19.6"/>
		</g>
		<path class="st1" d="M1061.2,744.5h-5.8c-0.3,0-0.6,0.3-0.6,0.6v2.7h-4.1c-0.3,0-0.6,0.3-0.6,0.6v2.7h-4.1c-0.3,0-0.6,0.3-0.6,0.6
			v2.8h-4.1c-0.3,0-0.6,0.3-0.6,0.6v4.9c0,0.3,0.3,0.6,0.6,0.6h5.9c0.1,0,0.2,0,0.3-0.1l13.7-9.7c0.2-0.1,0.3-0.3,0.3-0.5V745
			C1061.8,744.8,1061.6,744.5,1061.2,744.5z M1060.7,745.8v4.3l-13.3,9.4h-5.2v-3.6h4.1c0.3,0,0.6-0.3,0.6-0.6v-2.8h4.1
			c0.3,0,0.6-0.3,0.6-0.6v-2.7h4.1c0.3,0,0.6-0.3,0.6-0.6v-2.7L1060.7,745.8z"/>
		<g>
			<path class="st10" d="M1051.4,770.1c0.6,0.6,1,1.2,1.4,1.9c0,0.6,0,1.2,0,1.9v3.7c0,1.2,0,4.4,0,5.6c-0.4,0.6-0.8,1.2-1.4,1.9
				c-0.6-0.6-1-1.2-1.4-1.9c0-1.2,0-4.4,0-5.6v-3.7c0-0.6,0-1.2,0-1.9C1050.4,771.4,1050.8,770.8,1051.4,770.1L1051.4,770.1z"/>
		</g>
	</g>
	<g>
		<g>
			<circle class="st10" cx="874.6" cy="581.4" r="19.6"/>
		</g>
		<path class="st1" d="M884.4,573.3h-5.8c-0.3,0-0.6,0.3-0.6,0.6v2.7h-4.1c-0.3,0-0.6,0.3-0.6,0.6v2.7h-4.1c-0.3,0-0.6,0.3-0.6,0.6
			v2.8h-4.1c-0.3,0-0.6,0.3-0.6,0.6v4.9c0,0.3,0.3,0.6,0.6,0.6h6c0.1,0,0.2,0,0.3-0.1l13.7-9.7c0.2-0.1,0.3-0.3,0.3-0.5v-5.3
			C884.9,573.5,884.7,573.3,884.4,573.3z M883.8,574.5v4.3l-13.3,9.4h-5.2v-3.6h4.1c0.3,0,0.6-0.3,0.6-0.6v-2.8h4.1
			c0.3,0,0.6-0.3,0.6-0.6v-2.7h4.1c0.3,0,0.6-0.3,0.6-0.6v-2.7L883.8,574.5z"/>
		<g>
			<path class="st10" d="M874.6,598.9c0.6,0.6,1,1.2,1.4,1.9c0,0.6,0,1.2,0,1.9v3.7c0,1.2,0,4.4,0,5.6c-0.4,0.6-0.8,1.2-1.4,1.9
				c-0.6-0.6-1-1.2-1.4-1.9c0-1.2,0-4.4,0-5.6v-3.7c0-0.6,0-1.2,0-1.9C873.6,600.1,874,599.5,874.6,598.9L874.6,598.9z"/>
		</g>
	</g>
	<g>
		<g>
			<circle class="st10" cx="1364.1" cy="489" r="19.6"/>
		</g>
		<path class="st1" d="M1373.9,480.9h-5.8c-0.3,0-0.6,0.3-0.6,0.6v2.7h-4.1c-0.3,0-0.6,0.3-0.6,0.6v2.7h-4.1c-0.3,0-0.6,0.3-0.6,0.6
			v2.8h-4.1c-0.3,0-0.6,0.3-0.6,0.6v4.9c0,0.3,0.3,0.6,0.6,0.6h5.9c0.1,0,0.2,0,0.3-0.1l13.7-9.7c0.2-0.1,0.3-0.3,0.3-0.5v-5.3
			C1374.5,481.2,1374.3,480.9,1373.9,480.9z M1373.4,482.1v4.3l-13.3,9.4h-5.2v-3.6h4.1c0.3,0,0.6-0.3,0.6-0.6v-2.8h4.1
			c0.3,0,0.6-0.3,0.6-0.6v-2.7h4.1c0.3,0,0.6-0.3,0.6-0.6v-2.7L1373.4,482.1z"/>
		<g>
			<path class="st10" d="M1364.1,506.5c0.6,0.6,1,1.2,1.4,1.9c0,0.6,0,1.2,0,1.9v3.7c0,1.2,0,4.4,0,5.6c-0.4,0.6-0.8,1.2-1.4,1.9
				c-0.6-0.6-1-1.2-1.4-1.9c0-1.2,0-4.4,0-5.6v-3.7c0-0.6,0-1.2,0-1.9C1363.1,507.7,1363.5,507.1,1364.1,506.5L1364.1,506.5z"/>
		</g>
	</g>
	<g>
		<g>
			<circle class="st10" cx="1319" cy="584.4" r="19.6"/>
		</g>
		<g>
			<path class="st10" d="M1319,601.9c1.1,1.3,1.4,2.1,1.2,3.7v3.7c0,1.2,0,4.4,0,5.6c-0.4,0.6-0.7,1.2-1.2,1.9
				c-0.5-0.6-0.8-1.2-1.2-1.9c0-1.2,0-4.4,0-5.6v-3.7C1317.7,604,1317.9,603.1,1319,601.9L1319,601.9z"/>
		</g>
		<g>
			<g>
				<circle class="st1" cx="1312.8" cy="576.2" r="1.7"/>
				<path class="st1" d="M1315,578.5h-4.4c-0.8,0-1.4,0.6-1.4,1.4v6.9c0,0.3,0.2,0.5,0.5,0.5h0.8v5.5c0,0.5,0.4,0.8,0.8,0.8
					c0,0,0,0,0.1,0c0.3,0,0.5-0.1,0.7-0.2c0.2-0.2,0.3-0.4,0.3-0.8v-5.3h0.9v5.5c0,0.5,0.4,0.8,0.8,0.8c0,0,0,0,0.1,0
					c0.3,0,0.5-0.1,0.7-0.2c0.2-0.2,0.3-0.4,0.3-0.8v-5.3h0.7c0.3,0,0.5-0.2,0.5-0.5v-6.9C1316.3,579.1,1315.7,578.5,1315,578.5z"/>
				<path class="st1" d="M1325.2,577.5c0.9,0,1.7-0.8,1.7-1.7s-0.8-1.7-1.7-1.7c-0.9,0-1.7,0.8-1.7,1.7
					C1323.5,576.8,1324.3,577.5,1325.2,577.5z"/>
				<path class="st1" d="M1329.8,586.4l-1.7-7.3c-0.2-0.8-0.8-1-1.3-1h-3.1c-0.7,0-1.3,0.6-1.3,1.3l-1.3,7c0,0.3,0.2,0.5,0.5,0.5
					h1.5v5.6c0,0.5,0.4,0.8,0.8,0.8c0,0,0,0,0.1,0c0.3,0,0.5-0.1,0.7-0.2c0.2-0.2,0.3-0.4,0.3-0.8v-5.4h0.9v5.6
					c0,0.5,0.4,0.8,0.8,0.8c0,0,0,0,0.1,0c0.3,0,0.5-0.1,0.7-0.2c0.2-0.2,0.3-0.4,0.3-0.8v-5.4h1.7
					C1329.5,587,1329.8,586.7,1329.8,586.4L1329.8,586.4z"/>
				<path class="st1" d="M1319,572.6c-0.3,0-0.5,0.2-0.5,0.5v21.6c0,0.3,0.2,0.5,0.5,0.5s0.5-0.2,0.5-0.5v-21.6
					C1319.5,572.8,1319.3,572.6,1319,572.6z"/>
			</g>
		</g>
	</g>
	<g>
		<g>
			<circle class="st10" cx="1351.7" cy="615.6" r="19.6"/>
		</g>
		<g>
			<path class="st10" d="M1351.7,633.1c1.1,1.2,1.4,2.1,1.2,3.7v3.7c0,1.2,0,4.4,0,5.6c-0.4,0.6-0.7,1.2-1.2,1.9
				c-0.5-0.6-0.8-1.2-1.2-1.9c0-1.2,0-4.4,0-5.6v-3.7C1350.3,635.2,1350.6,634.3,1351.7,633.1L1351.7,633.1z"/>
		</g>
		<g>
			<path class="st1" d="M1360.3,611.6l-17-0.2c-0.7,0-1.2,0.5-1.2,1.2l-0.1,12.9c0,0.7,0.5,1.2,1.2,1.2l17,0.2
				c0.7,0,1.2-0.5,1.2-1.2l0.1-12.9C1361.5,612.2,1360.9,611.6,1360.3,611.6z M1343.2,612.7C1343.2,612.7,1343.2,612.6,1343.2,612.7
				l17.1,0.1l0,0l-0.1,12.9l0,0l-17-0.2l0,0V612.7z"/>
			<path class="st1" d="M1347.1,610.2C1347.1,610.3,1347.2,610.3,1347.1,610.2C1347.2,610.3,1347.2,610.3,1347.1,610.2
				c0.1,0.1,0.2,0.1,0.2,0.2l0,0l0,0c0.1,0,0.1,0,0.2,0l0,0l0,0l0,0l0,0c0.1,0,0.1,0,0.2,0l0,0c0.1,0,0.1-0.1,0.2-0.1l0,0
				c0,0,0,0,0.1-0.1l0,0l2.9-3.5c0.1-0.1,0.2-0.3,0.1-0.5c0-0.2-0.1-0.3-0.2-0.4c-0.3-0.2-0.7-0.2-0.9,0.1l-1.8,2.2l0.1-5.3
				c0-0.3-0.3-0.6-0.6-0.6c-0.3,0-0.6,0.3-0.6,0.6l-0.1,5.5l-1.6-1.9c-0.1-0.1-0.3-0.2-0.4-0.2c-0.2,0-0.3,0-0.4,0.1
				s-0.2,0.3-0.2,0.4c0,0.2,0,0.3,0.1,0.4L1347.1,610.2z"/>
			<path class="st1" d="M1353.4,606.5c0.2,0,0.3-0.1,0.5-0.2l1.7-1.9l-0.1,5.5c0,0.3,0.3,0.6,0.6,0.6c0.3,0,0.6-0.3,0.6-0.6l0.1-5.3
				l1.7,2.2c0.2,0.3,0.6,0.3,0.9,0.1s0.3-0.6,0.1-0.9l-2.8-3.6l0,0c0,0,0-0.1-0.1-0.1l0,0l0,0c0,0-0.1-0.1-0.2-0.1l0,0
				c-0.1,0-0.1,0-0.2,0l0,0c-0.1,0-0.1,0-0.2,0l0,0l0,0c-0.1,0-0.1,0-0.1,0.1l0,0l-0.1,0.1l-2.8,3.1c-0.2,0.3-0.2,0.6,0.1,0.9
				C1353.1,606.5,1353.2,606.5,1353.4,606.5z"/>
			<path class="st1" d="M1346.7,615.6c0.5,0,0.9-0.4,0.9-0.9s-0.4-0.9-0.9-0.9s-0.9,0.4-0.9,0.9
				C1345.9,615.2,1346.2,615.6,1346.7,615.6z"/>
			<path class="st1" d="M1356.5,615.7c0.5,0,0.9-0.4,0.9-0.9s-0.4-0.9-0.9-0.9s-0.9,0.4-0.9,0.9
				C1355.7,615.3,1356.1,615.7,1356.5,615.7z"/>
			<path class="st1" d="M1351.7,615.7c0.5,0,0.9-0.4,0.9-0.9s-0.4-0.9-0.9-0.9s-0.9,0.4-0.9,0.9
				C1350.8,615.3,1351.2,615.7,1351.7,615.7z"/>
			<path class="st1" d="M1345.4,620.7L1345.4,620.7l0.1,3.5c0,0.3,0.3,0.5,0.6,0.6c0.2,0,0.3,0,0.4-0.2c0.1-0.1,0.2-0.3,0.2-0.5
				v-3.4h0.2v3.5c0,0.3,0.2,0.5,0.5,0.6l0,0c0.2,0,0.3,0,0.4-0.2c0.1-0.1,0.2-0.3,0.2-0.5v-3.4l0,0c0.4,0,0.6-0.3,0.6-0.6v-2.6
				c0-0.9-0.7-1.7-1.6-1.7h-0.7c-0.9,0-1.7,0.7-1.7,1.6v2.6C1344.7,620.4,1345,620.7,1345.4,620.7z"/>
			<path class="st1" d="M1350.3,620.8L1350.3,620.8l0.1,3.5c0,0.3,0.3,0.6,0.6,0.6c0.2,0,0.3,0,0.4-0.2c0.1-0.1,0.2-0.3,0.2-0.5
				v-3.4h0.2v3.5c0,0.3,0.3,0.6,0.6,0.6c0.2,0,0.3,0,0.4-0.2c0.1-0.1,0.2-0.3,0.2-0.5v-3.4l0,0c0.4,0,0.6-0.3,0.6-0.6v-2.6
				c0-0.9-0.7-1.7-1.6-1.7h-0.7c-0.9,0-1.7,0.7-1.7,1.6v2.6C1349.7,620.5,1350,620.8,1350.3,620.8z"/>
			<path class="st1" d="M1355.2,620.8L1355.2,620.8v3.6c0,0.3,0.3,0.6,0.6,0.6c0.2,0,0.3,0,0.4-0.1s0.2-0.3,0.2-0.5v-3.5h0.2v3.6
				c0,0.3,0.3,0.6,0.6,0.6c0.2,0,0.3,0,0.4-0.1s0.2-0.3,0.2-0.5V621l0,0c0.4,0,0.6-0.3,0.6-0.6v-2.6c0-0.9-0.7-1.7-1.6-1.7h-0.7
				c-0.9,0-1.7,0.7-1.7,1.6v2.6C1354.5,620.5,1354.8,620.8,1355.2,620.8z"/>
		</g>
	</g>
	<g>
		<g>
			<circle class="st10" cx="846.6" cy="226.6" r="19.6"/>
		</g>
		<g>
			<path class="st10" d="M846.6,244.1c1.1,1.3,1.4,2.1,1.2,3.7v3.7c0,1.2,0,4.4,0,5.6c-0.4,0.6-0.7,1.2-1.2,1.9
				c-0.5-0.6-0.8-1.2-1.2-1.9c0-1.2,0-4.4,0-5.6v-3.7C845.2,246.2,845.5,245.3,846.6,244.1L846.6,244.1z"/>
		</g>
		<g>
			<path class="st11" d="M855.1,224.8H854v5.4c0.4,0.1,0.7,0.2,1.1,0.2c1.7,0,3.1-1.3,3.1-2.8S856.8,224.8,855.1,224.8z"/>
			<path class="st1" d="M847.1,217.5c0.7,0.6,1.3,1,1.3,2.2c0,0.8-0.8,1.6-1.2,1.8c-0.2,0.1-0.3,0.4-0.3,0.6
				c0.1,0.2,0.2,0.3,0.4,0.3c0.1,0,0.1,0,0.2,0c0.7-0.3,1.8-1.4,1.8-2.6c0-1.6-0.9-2.3-1.6-2.9c-0.6-0.5-1.1-0.9-1.1-1.8
				c0-1.3,1.2-2,1.5-2c0.2,0,0.5-0.2,0.5-0.5c0-0.2-0.2-0.5-0.5-0.5c-0.7,0-2.4,1-2.4,2.9C845.6,216.3,846.4,216.9,847.1,217.5z"/>
			<path class="st1" d="M843.3,218c0.6,0.5,1.1,0.8,1.1,1.8c0,0.6-0.6,1.3-1,1.4c-0.2,0.1-0.3,0.4-0.3,0.6c0.1,0.2,0.2,0.3,0.4,0.3
				c0.1,0,0.1,0,0.2,0c0.6-0.3,1.5-1.2,1.5-2.2c0-1.4-0.8-2-1.4-2.5c-0.5-0.4-0.9-0.7-0.9-1.4c0-1,1-1.6,1.2-1.6s0.4-0.2,0.4-0.5
				c0-0.2-0.2-0.4-0.4-0.4c-0.7,0-2.1,0.9-2.1,2.5C842,217,842.7,217.5,843.3,218z"/>
			<path class="st1" d="M855.1,224.2h-2.5l0,0h-13.1c-0.3,0-0.6,0.3-0.6,0.6v8.3c0,0.3,0.3,0.6,0.6,0.6h13.9c0.3,0,0.6-0.3,0.6-0.6
				v-2.2c0.4,0.1,0.7,0.2,1.1,0.2c2.1,0,3.7-1.5,3.7-3.4C858.8,225.7,857.1,224.2,855.1,224.2z M855.1,230.4c-0.4,0-0.8-0.1-1.1-0.2
				v-5.4h1.1c1.7,0,3.1,1.3,3.1,2.8S856.8,230.4,855.1,230.4z"/>
			<path class="st1" d="M856.2,235.1h-19c-0.3,0-0.6,0.3-0.6,0.6s0.3,0.6,0.6,0.6h19c0.3,0,0.6-0.3,0.6-0.6S856.5,235.1,856.2,235.1
				z"/>
		</g>
	</g>
	<g>
		<g>
			<circle class="st10" cx="1097.7" cy="666.2" r="19.6"/>
		</g>
		<g>
			<path class="st10" d="M1097.7,683.6c1.1,1.2,1.4,2.1,1.2,3.7v3.7c0,1.2,0,4.4,0,5.6c-0.4,0.6-0.7,1.2-1.2,1.9
				c-0.5-0.6-0.8-1.2-1.2-1.9c0-1.2,0-4.4,0-5.6v-3.7C1096.4,685.8,1096.6,684.9,1097.7,683.6L1097.7,683.6z"/>
		</g>
		<g>
			<path class="st1" d="M1110.7,661c-0.5-0.6-1.2-0.9-1.6-1c-0.1,0-0.3-0.1-0.4-0.1h-5.3c-0.3,0-0.6,0.1-0.9,0.3l-4.9,3.7v-0.6v-0.1
				c0-0.1-0.1-0.3-0.1-0.4c-0.3-0.7-0.8-1.1-1.4-1.2c-1-0.2-1.7,0.4-1.8,0.4c-0.6,0.5-0.7,1.3-0.7,1.5v3.4l-1.3,1
				c-0.1,0-0.1,0.1-0.2,0.1h-3.5c-0.1,0-0.3,0-0.4,0.1c-0.5,0.1-1.6,0.6-2.2,1.9c-0.6,1.4-0.1,2.6,0,3c0.5,1.1,1.4,1.6,1.9,1.8
				c0.2,0.1,0.3,0.1,0.5,0.1h5.9c0.3,0,0.6-0.1,0.9-0.3l10.3-7.7c0.1,0,0.1-0.1,0.2-0.1h3.3c0.1,0,0.2,0,0.3,0
				c0.3-0.1,0.6-0.2,0.9-0.3c1.1-0.6,1.5-1.8,1.5-2.3C1111.9,662.3,1110.8,661.1,1110.7,661z M1110.5,663.8c-0.1,0.3-0.3,1.1-1,1.5
				c-0.2,0.1-0.3,0.2-0.5,0.2l0,0h-3.3c-0.3,0-0.6,0.1-0.9,0.3l-10.3,7.7c-0.1,0-0.1,0.1-0.2,0.1h-5.9h-0.1c-0.3-0.1-1-0.5-1.3-1.2
				c-0.1-0.2-0.5-1.1,0-2c0.4-0.8,1.2-1.2,1.5-1.3h0.1h3.5c0.3,0,0.6-0.1,0.9-0.3l10.3-7.7c0.1,0,0.1-0.1,0.2-0.1h5.3h0.1
				c0.3,0.1,0.7,0.3,1.1,0.7C1109.9,661.7,1110.7,662.6,1110.5,663.8z"/>
			<path class="st1" d="M1095.6,661.4c1,0,1.9-0.8,1.9-1.9c0-1-0.8-1.9-1.9-1.9c-1,0-1.9,0.8-1.9,1.9
				C1093.7,660.5,1094.5,661.4,1095.6,661.4z"/>
		</g>
	</g>
	<g>
		<g>
			<path class="st10" d="M940.2,398.7c1.1,1.3,1.4,2.1,1.2,3.7v3.7c0,1.2,0,4.4,0,5.6c-0.4,0.6-0.7,1.2-1.2,1.9
				c-0.5-0.6-0.8-1.2-1.2-1.9c0-1.2,0-4.4,0-5.6v-3.7C938.8,400.8,939.1,399.9,940.2,398.7L940.2,398.7z"/>
		</g>
		<g>
			<g>
				<circle class="st12" cx="940.7" cy="381.2" r="20.3"/>
			</g>
		</g>
		<g>
			<path class="st10" d="M940.2,361.6c10.8,0,19.6,8.8,19.6,19.6s-8.8,19.6-19.6,19.6s-19.6-8.8-19.6-19.6S929.4,361.6,940.2,361.6
				 M940.2,360.1c-11.6,0-21.1,9.5-21.1,21.1s9.5,21.1,21.1,21.1s21.1-9.5,21.1-21.1S951.8,360.1,940.2,360.1L940.2,360.1z"/>
		</g>
		<g>
			<g>
				<path class="st1" d="M932.4,378.2c0.1-1,0.5-2,1.1-2.9s1.6-1.6,2.9-2.1c1.3-0.5,2.8-0.8,4.6-0.8c1.5,0,2.9,0.2,4,0.6
					s2,0.9,2.7,1.6c0.6,0.7,0.9,1.5,0.9,2.5c0,0.7-0.2,1.4-0.7,2s-1.2,1.1-2.1,1.5s-2.2,0.5-3.8,0.5v-0.5c1.4-0.1,2.7,0,3.7,0.3
					s1.8,0.7,2.4,1.3c0.6,0.6,0.8,1.4,0.8,2.3c0,1-0.3,1.9-1,2.7s-1.6,1.4-2.8,1.8s-2.7,0.7-4.5,0.7c-1.7,0-3.2-0.2-4.5-0.7
					s-2.3-1.1-3-2s-1.1-1.9-1.1-3.1h4.6c0.1,0.7,0.5,1.3,1.2,1.7c0.7,0.4,1.6,0.6,2.9,0.6c1.2,0,2.1-0.2,2.7-0.5
					c0.6-0.4,0.9-0.8,0.9-1.5c0-0.4-0.1-0.7-0.3-0.9s-0.5-0.4-1.1-0.6c-0.5-0.1-1.2-0.2-2.1-0.2H938v-3.1h2.9c1.2,0,2-0.2,2.4-0.5
					s0.7-0.7,0.7-1.2c0-0.6-0.3-1-0.8-1.3s-1.3-0.5-2.4-0.5c-1.2,0-2,0.2-2.7,0.6s-1,0.9-1.1,1.6h-4.6V378.2z"/>
			</g>
		</g>
	</g>
	<g>
		<g>
			<path class="st10" d="M1174.1,459.2c1.1,1.3,1.4,2.1,1.2,3.7v3.7c0,1.2,0,4.4,0,5.6c-0.4,0.6-0.7,1.2-1.2,1.9
				c-0.5-0.6-0.8-1.2-1.2-1.9c0-1.2,0-4.4,0-5.6v-3.7C1172.7,461.4,1173,460.5,1174.1,459.2L1174.1,459.2z"/>
		</g>
		<g>
			<g>
				<circle class="st13" cx="1175" cy="441.8" r="20.3"/>
			</g>
		</g>
		<g>
			<path class="st10" d="M1175,422.2c10.8,0,19.6,8.8,19.6,19.6s-8.8,19.6-19.6,19.6c-10.8,0-19.6-8.8-19.6-19.6
				S1164.2,422.2,1175,422.2 M1175,420.7c-11.6,0-21.1,9.5-21.1,21.1s9.5,21.1,21.1,21.1s21.1-9.5,21.1-21.1
				S1186.7,420.7,1175,420.7L1175,420.7z"/>
		</g>
		<g>
			<g>
				<path class="st1" d="M1168.8,433.5h13v3.4h-11.6l1.8-0.8l-0.9,6h-1.1c0.3-0.6,0.8-1.1,1.3-1.5c0.6-0.5,1.3-0.8,2.1-1.1
					c0.8-0.3,1.8-0.4,2.9-0.4c1.4,0,2.6,0.2,3.7,0.7c1,0.5,1.8,1.1,2.4,1.9s0.8,1.8,0.8,2.8c0,1.2-0.3,2.2-1,3.1
					c-0.6,0.9-1.6,1.6-2.8,2.1c-1.2,0.5-2.7,0.8-4.3,0.8c-1.6,0-3.1-0.2-4.3-0.7s-2.2-1.1-2.9-1.9c-0.7-0.8-1.1-1.7-1.2-2.8h4.6
					c0.1,0.6,0.5,1,1.2,1.4c0.6,0.3,1.5,0.5,2.6,0.5c0.7,0,1.4-0.1,1.9-0.3s0.9-0.5,1.2-0.8s0.4-0.8,0.4-1.3s-0.1-0.9-0.4-1.3
					s-0.6-0.7-1.1-0.9c-0.5-0.2-1.1-0.3-1.9-0.3c-0.6,0-1.2,0.1-1.7,0.2s-0.9,0.3-1.3,0.5s-0.7,0.4-0.9,0.7h-4L1168.8,433.5z"/>
			</g>
		</g>
	</g>
	<g>
		<g>
			<path class="st10" d="M1255.1,537.5c1.1,1.3,1.4,2.1,1.2,3.7v3.7c0,1.2,0,4.4,0,5.6c-0.4,0.6-0.7,1.2-1.2,1.9
				c-0.5-0.6-0.8-1.2-1.2-1.9c0-1.2,0-4.4,0-5.6v-3.7C1253.7,539.7,1254,538.8,1255.1,537.5L1255.1,537.5z"/>
		</g>
		<g>
			<g>
				<circle class="st14" cx="1255.6" cy="520.1" r="20.3"/>
			</g>
		</g>
		<g>
			<path class="st10" d="M1255.1,500.5c10.8,0,19.6,8.8,19.6,19.6c0,10.8-8.8,19.6-19.6,19.6c-10.8,0-19.6-8.8-19.6-19.6
				C1235.5,509.3,1244.3,500.5,1255.1,500.5 M1255.1,499c-11.6,0-21.1,9.5-21.1,21.1c0,11.6,9.5,21.1,21.1,21.1s21.1-9.5,21.1-21.1
				C1276.2,508.5,1266.7,499,1255.1,499L1255.1,499z"/>
		</g>
		<g>
			<g>
				<path class="st1" d="M1256,511.4c1.4,0,2.7,0.2,3.8,0.7c1.1,0.4,2,1,2.7,1.8s1.1,1.6,1.3,2.5h-4.2c-0.2-0.4-0.6-0.8-1.1-1.1
					s-1.3-0.5-2.3-0.5c-1.1,0-2,0.2-2.7,0.6c-0.7,0.4-1.2,1-1.6,1.7c-0.3,0.8-0.5,1.7-0.5,2.8c0,1.2,0.2,2.2,0.6,3s0.9,1.4,1.7,1.8
					s1.6,0.6,2.7,0.6c0.7,0,1.3-0.1,1.8-0.3s0.9-0.5,1.1-0.8s0.4-0.7,0.4-1.1c0-0.4-0.1-0.8-0.4-1.2c-0.2-0.3-0.6-0.6-1.1-0.8
					s-1.1-0.3-1.8-0.3c-0.9,0-1.8,0.2-2.7,0.6c-0.9,0.4-1.6,1-2.3,1.8l-1.5-1.1c0.5-0.9,1-1.7,1.8-2.4c0.7-0.7,1.6-1.3,2.6-1.7
					s2.1-0.6,3.4-0.6c1.4,0,2.6,0.2,3.6,0.7s1.8,1.1,2.3,1.9c0.5,0.8,0.8,1.7,0.8,2.8s-0.3,2.1-0.9,3s-1.5,1.6-2.7,2
					s-2.6,0.7-4.3,0.7c-2,0-3.7-0.4-5.1-1.1c-1.4-0.7-2.4-1.8-3-3.1c-0.7-1.3-1-2.8-1-4.5s0.3-3.2,1-4.5s1.7-2.3,3-3.1
					C1252.4,511.8,1254.1,511.4,1256,511.4z"/>
			</g>
		</g>
	</g>
	<g>
		<g>
			<path class="st10" d="M1199.6,559.6c1.1,1.3,1.4,2.1,1.2,3.7v3.7c0,1.2,0,4.4,0,5.6c-0.4,0.6-0.7,1.2-1.2,1.9
				c-0.5-0.6-0.8-1.2-1.2-1.9c0-1.2,0-4.4,0-5.6v-3.7C1198.2,561.7,1198.5,560.8,1199.6,559.6L1199.6,559.6z"/>
		</g>
		<g>
			<g>
				<circle class="st14" cx="1200.1" cy="542.1" r="20.3"/>
			</g>
		</g>
		<g>
			<path class="st10" d="M1199.6,522.5c10.8,0,19.6,8.8,19.6,19.6s-8.8,19.6-19.6,19.6c-10.8,0-19.6-8.8-19.6-19.6
				S1188.8,522.5,1199.6,522.5 M1199.6,521c-11.6,0-21.1,9.5-21.1,21.1s9.5,21.1,21.1,21.1s21.1-9.5,21.1-21.1
				S1211.2,521,1199.6,521L1199.6,521z"/>
		</g>
		<g>
			<g>
				<path class="st1" d="M1194.5,550.4l9.1-14.3v1.3H1192v-3.6h15.8v3.7l-8.1,12.9L1194.5,550.4L1194.5,550.4z"/>
			</g>
		</g>
	</g>
	<g>
		<g>
			<path class="st10" d="M1142.4,584.1c1.1,1.3,1.4,2.1,1.2,3.7v3.7c0,1.2,0,4.4,0,5.6c-0.4,0.6-0.7,1.2-1.2,1.9
				c-0.5-0.6-0.8-1.2-1.2-1.9c0-1.2,0-4.4,0-5.6v-3.7C1141.1,586.3,1141.3,585.4,1142.4,584.1L1142.4,584.1z"/>
		</g>
		<g>
			<g>
				<circle class="st10" cx="1142.9" cy="566.7" r="20.3"/>
			</g>
		</g>
		<g>
			<path class="st10" d="M1142.4,547.1c10.8,0,19.6,8.8,19.6,19.6s-8.8,19.6-19.6,19.6c-10.8,0-19.6-8.8-19.6-19.6
				S1131.6,547.1,1142.4,547.1 M1142.4,545.6c-11.6,0-21.1,9.5-21.1,21.1s9.5,21.1,21.1,21.1s21.1-9.5,21.1-21.1
				C1163.5,555,1154.1,545.6,1142.4,545.6L1142.4,545.6z"/>
		</g>
		<g>
			<g>
				<path class="st1" d="M1142,558c2.7,0,4.8,0.4,6.3,1.3c1.4,0.8,2.2,2,2.2,3.5c0,1.3-0.6,2.3-1.9,3s-3,1-5.2,0.9v-0.4
					c2.4-0.2,4.3,0.1,5.6,0.8c1.3,0.7,2,1.8,2,3.4c0,1.6-0.8,2.8-2.3,3.7c-1.5,0.8-3.7,1.3-6.7,1.3c-2.9,0-5.1-0.4-6.6-1.3
					c-1.5-0.8-2.3-2.1-2.3-3.7c0-1.5,0.7-2.7,2-3.4c1.4-0.7,3.2-1,5.6-0.8v0.4c-2.2,0.1-4-0.2-5.3-0.9s-1.9-1.7-1.9-3
					c0-1.5,0.7-2.7,2.2-3.5C1137.1,558.4,1139.2,558,1142,558z M1142,571.8c1.4,0,2.5-0.2,3.2-0.5s1.1-0.8,1.1-1.4
					c0-0.6-0.4-1.1-1.1-1.4s-1.8-0.5-3.2-0.5c-1.4,0-2.5,0.2-3.2,0.5s-1.1,0.8-1.1,1.4c0,0.6,0.4,1.1,1.1,1.4
					C1139.5,571.7,1140.6,571.8,1142,571.8z M1142,564.9c0.8,0,1.5-0.1,2.1-0.2c0.6-0.1,1-0.3,1.3-0.6s0.5-0.6,0.5-1
					c0-0.5-0.3-1-1-1.3s-1.6-0.4-2.9-0.4c-1.2,0-2.2,0.1-2.9,0.4c-0.7,0.3-1,0.7-1,1.3c0,0.4,0.1,0.7,0.4,1s0.7,0.5,1.3,0.6
					C1140.4,564.9,1141.1,564.9,1142,564.9z"/>
			</g>
		</g>
	</g>
	<g>
		<g>
			<path class="st10" d="M1084.8,610.7c1.1,1.3,1.4,2.1,1.2,3.7v3.7c0,1.2,0,4.4,0,5.6c-0.4,0.6-0.7,1.2-1.2,1.9
				c-0.5-0.6-0.8-1.2-1.2-1.9c0-1.2,0-4.4,0-5.6v-3.7C1083.4,612.8,1083.7,611.9,1084.8,610.7L1084.8,610.7z"/>
		</g>
		<g>
			<g>
				<circle class="st15" cx="1085.3" cy="593.2" r="20.3"/>
			</g>
		</g>
		<g>
			<path class="st10" d="M1084.8,573.6c10.8,0,19.6,8.8,19.6,19.6s-8.8,19.6-19.6,19.6c-10.8,0-19.6-8.8-19.6-19.6
				S1074,573.6,1084.8,573.6 M1084.8,572.1c-11.6,0-21.1,9.5-21.1,21.1s9.5,21.1,21.1,21.1s21.1-9.5,21.1-21.1
				S1096.4,572.1,1084.8,572.1L1084.8,572.1z"/>
		</g>
		<g>
			<g>
				<path class="st1" d="M1084.8,601.9c-1.4,0-2.7-0.2-3.8-0.7c-1.1-0.4-2-1-2.7-1.8s-1.1-1.6-1.3-2.5h4.2c0.2,0.4,0.6,0.8,1.1,1.1
					s1.3,0.5,2.3,0.5c1.1,0,2-0.2,2.7-0.6c0.7-0.4,1.2-1,1.6-1.7c0.3-0.8,0.5-1.7,0.5-2.8c0-1.2-0.2-2.2-0.6-3s-0.9-1.4-1.7-1.8
					s-1.6-0.6-2.6-0.6c-0.7,0-1.4,0.1-1.8,0.3s-0.9,0.5-1.1,0.8c-0.3,0.3-0.4,0.7-0.4,1.2c0,0.4,0.1,0.8,0.4,1.2
					c0.2,0.3,0.6,0.6,1.1,0.8s1.1,0.3,1.8,0.3c0.9,0,1.8-0.2,2.7-0.6s1.6-1,2.3-1.8l1.5,1.1c-0.4,0.9-1,1.7-1.8,2.4
					s-1.6,1.3-2.6,1.7s-2.1,0.6-3.4,0.6c-1.4,0-2.6-0.2-3.6-0.7s-1.8-1.1-2.3-1.9s-0.8-1.7-0.8-2.8s0.3-2.1,1-3
					c0.6-0.9,1.5-1.6,2.7-2c1.2-0.5,2.6-0.7,4.3-0.7c2,0,3.7,0.4,5.1,1.1c1.4,0.7,2.4,1.8,3,3.1s1,2.8,1,4.5s-0.3,3.2-1,4.5
					s-1.7,2.3-3,3.1C1088.5,601.5,1086.8,601.9,1084.8,601.9z"/>
			</g>
		</g>
	</g>
	<g>
		<g>
			<path class="st10" d="M1016.1,559c1.1,1.2,1.4,2.1,1.2,3.7v3.7c0,1.2,0,4.4,0,5.6c-0.4,0.6-0.7,1.2-1.2,1.9
				c-0.5-0.6-0.8-1.2-1.2-1.9c0-1.2,0-4.4,0-5.6v-3.7C1014.7,561.1,1015,560.2,1016.1,559L1016.1,559z"/>
		</g>
		<g>
			<g>
				
					<ellipse transform="matrix(0.1602 -0.9871 0.9871 0.1602 319.1672 1458.1356)" class="st15" cx="1016.5" cy="541.5" rx="20.3" ry="20.3"/>
			</g>
		</g>
		<g>
			<path class="st10" d="M1016.1,521.9c10.8,0,19.6,8.8,19.6,19.6s-8.8,19.6-19.6,19.6c-10.8,0-19.6-8.8-19.6-19.6
				C996.4,530.7,1005.2,521.9,1016.1,521.9 M1016.1,520.4c-11.6,0-21.1,9.5-21.1,21.1s9.5,21.1,21.1,21.1s21.1-9.5,21.1-21.1
				C1037.1,529.9,1027.7,520.4,1016.1,520.4L1016.1,520.4z"/>
		</g>
		<g>
			<g>
				<path class="st1" d="M1010.4,533.2v16.6h-4.5v-15l2.1,2l-7.1,1.3v-3.5l6.2-1.3L1010.4,533.2L1010.4,533.2z"/>
				<path class="st1" d="M1022.3,550.1c-1.9,0-3.5-0.4-4.9-1.1c-1.4-0.7-2.5-1.7-3.2-3c-0.8-1.3-1.1-2.8-1.1-4.6s0.4-3.3,1.1-4.6
					c0.8-1.3,1.8-2.3,3.2-3s3-1.1,4.9-1.1c1.9,0,3.5,0.4,4.9,1.1c1.4,0.7,2.5,1.7,3.2,3s1.2,2.8,1.2,4.6s-0.4,3.3-1.2,4.6
					c-0.8,1.3-1.8,2.3-3.2,3C1025.8,549.8,1024.2,550.1,1022.3,550.1z M1022.3,546.4c1.5,0,2.6-0.4,3.5-1.3c0.8-0.9,1.2-2.1,1.2-3.6
					c0-1.6-0.4-2.8-1.2-3.7c-0.8-0.9-2-1.3-3.5-1.3s-2.7,0.4-3.5,1.3c-0.8,0.9-1.3,2.1-1.3,3.7c0,1.6,0.4,2.8,1.3,3.6
					C1019.6,546,1020.8,546.4,1022.3,546.4z"/>
			</g>
		</g>
	</g>
	<g>
		<g>
			<path class="st10" d="M952.1,534.6c1.1,1.3,1.4,2.1,1.2,3.7v3.7c0,1.2,0,4.4,0,5.6c-0.4,0.6-0.7,1.2-1.2,1.9
				c-0.5-0.6-0.8-1.2-1.2-1.9c0-1.2,0-4.4,0-5.6v-3.7C950.7,536.7,951,535.8,952.1,534.6L952.1,534.6z"/>
		</g>
		<g>
			<g>
				<circle class="st16" cx="952.6" cy="517.1" r="20.3"/>
			</g>
		</g>
		<g>
			<path class="st10" d="M952.1,497.5c10.8,0,19.6,8.8,19.6,19.6c0,10.8-8.8,19.6-19.6,19.6s-19.6-8.8-19.6-19.6
				C932.5,506.3,941.3,497.5,952.1,497.5 M952.1,496c-11.6,0-21.1,9.5-21.1,21.1c0,11.6,9.5,21.1,21.1,21.1s21.1-9.5,21.1-21.1
				C973.2,505.5,963.7,496,952.1,496L952.1,496z"/>
		</g>
		<g>
			<g>
				<path class="st1" d="M950.9,508.8v16.6h-4.5v-15l2.1,2l-7.1,1.3v-3.5l6.2-1.3L950.9,508.8L950.9,508.8z"/>
				<path class="st1" d="M962.4,508.8v16.6h-4.5v-15l2.1,2l-7.1,1.3v-3.5l6.2-1.3L962.4,508.8L962.4,508.8z"/>
			</g>
		</g>
	</g>
	<g>
		<g>
			<path class="st10" d="M1070.6,498c1.1,1.2,1.4,2.1,1.2,3.7v3.7c0,1.2,0,4.4,0,5.6c-0.4,0.6-0.7,1.2-1.2,1.9
				c-0.5-0.6-0.8-1.2-1.2-1.9c0-1.2,0-4.4,0-5.6v-3.7C1069.3,500.2,1069.5,499.3,1070.6,498L1070.6,498z"/>
		</g>
		<g>
			<g>
				<circle class="st17" cx="1071.1" cy="480.6" r="20.3"/>
			</g>
		</g>
		<g>
			<path class="st18" d="M1070.6,500.9c-11.2,0-20.3-9.1-20.3-20.3c0-11.2,9.1-20.3,20.3-20.3s20.3,9.1,20.3,20.3
				C1091,491.8,1081.9,500.9,1070.6,500.9z"/>
			<path class="st10" d="M1070.6,461c10.8,0,19.6,8.8,19.6,19.6s-8.8,19.6-19.6,19.6c-10.8,0-19.6-8.8-19.6-19.6
				S1059.8,461,1070.6,461 M1070.6,459.5c-11.6,0-21.1,9.5-21.1,21.1s9.5,21.1,21.1,21.1s21.1-9.5,21.1-21.1
				S1082.3,459.5,1070.6,459.5L1070.6,459.5z"/>
		</g>
		<g>
			<g>
				<path class="st1" d="M1065.9,472.3v16.6h-4.5v-15l2.1,2l-7.1,1.3v-3.5l6.2-1.3h3.3V472.3z"/>
				<path class="st1" d="M1068.6,477.6c0.1-1,0.5-2,1.1-2.9s1.6-1.6,2.9-2.1s2.8-0.8,4.6-0.8c1.5,0,2.9,0.2,4,0.6s2,0.9,2.7,1.6
					c0.6,0.7,0.9,1.5,0.9,2.5c0,0.7-0.2,1.4-0.7,2s-1.2,1.1-2.1,1.5s-2.2,0.5-3.8,0.5V480c1.4-0.1,2.7,0,3.7,0.3s1.8,0.7,2.4,1.3
					c0.6,0.6,0.8,1.4,0.8,2.3c0,1-0.3,1.9-1,2.7s-1.6,1.4-2.8,1.8c-1.2,0.4-2.7,0.7-4.5,0.7c-1.7,0-3.2-0.2-4.5-0.7s-2.3-1.1-3-2
					s-1.1-1.9-1.1-3.1h4.6c0.1,0.7,0.5,1.3,1.2,1.7c0.7,0.4,1.6,0.6,2.9,0.6c1.2,0,2.1-0.2,2.7-0.5c0.6-0.4,0.9-0.8,0.9-1.5
					c0-0.4-0.1-0.7-0.3-0.9s-0.5-0.4-1.1-0.6c-0.5-0.1-1.2-0.2-2.1-0.2h-2.9v-3.1h2.9c1.2,0,2-0.2,2.4-0.5s0.7-0.7,0.7-1.2
					c0-0.6-0.3-1-0.8-1.3s-1.3-0.5-2.4-0.5c-1.2,0-2,0.2-2.7,0.6s-1,0.9-1.1,1.6h-4.5V477.6z"/>
			</g>
		</g>
	</g>
	<g>
		<g>
			<path class="st10" d="M1006.6,472.7c1.1,1.3,1.4,2.1,1.2,3.7v3.7c0,1.2,0,4.4,0,5.6c-0.4,0.6-0.7,1.2-1.2,1.9
				c-0.5-0.6-0.8-1.2-1.2-1.9c0-1.2,0-4.4,0-5.6v-3.7C1005.2,474.9,1005.5,474,1006.6,472.7L1006.6,472.7z"/>
		</g>
		<g>
			<g>
				
					<ellipse transform="matrix(0.1602 -0.9871 0.9871 0.1602 396.2758 1376.3661)" class="st19" cx="1007" cy="455.3" rx="20.3" ry="20.3"/>
			</g>
		</g>
		<g>
			<path class="st10" d="M1006.6,435.7c10.8,0,19.6,8.8,19.6,19.6s-8.8,19.6-19.6,19.6s-19.6-8.8-19.6-19.6
				S995.7,435.7,1006.6,435.7 M1006.6,434.2c-11.6,0-21.1,9.5-21.1,21.1s9.5,21.1,21.1,21.1s21.1-9.5,21.1-21.1
				S1018.2,434.2,1006.6,434.2L1006.6,434.2z"/>
		</g>
		<g>
			<g>
				<path class="st1" d="M1001.9,447v16.6h-4.5v-15l2.1,2l-7.1,1.3v-3.5l6.2-1.3h3.3V447z"/>
				<path class="st1" d="M1004.3,453c0.1-1.3,0.5-2.4,1.3-3.4s1.8-1.7,3.1-2.2s2.7-0.8,4.3-0.8c1.5,0,2.9,0.2,4,0.7s2,1.1,2.7,1.9
					c0.6,0.8,1,1.8,1,2.9c0,0.8-0.2,1.6-0.7,2.4c-0.5,0.7-1.2,1.4-2.1,2.1c-1,0.7-2.3,1.4-3.8,2.2l-4.6,2.3l-0.2-1.2h11.9v3.6h-16.4
					v-3.2l7.1-4c1.1-0.6,2-1.2,2.6-1.6s1-0.8,1.3-1.2c0.3-0.4,0.4-0.8,0.4-1.2c0-0.5-0.1-0.9-0.4-1.2s-0.6-0.6-1.1-0.8
					c-0.5-0.2-1.1-0.3-1.8-0.3c-0.9,0-1.6,0.1-2.2,0.4c-0.6,0.3-1,0.6-1.3,1s-0.5,0.9-0.5,1.4h-4.6V453z"/>
			</g>
		</g>
	</g>
	<g>
		<g>
			<path class="st10" d="M1018.5,401.5c1.1,1.3,1.4,2.1,1.2,3.7v3.7c0,1.2,0,4.4,0,5.6c-0.4,0.6-0.7,1.2-1.2,1.9
				c-0.5-0.6-0.8-1.2-1.2-1.9c0-1.2,0-4.4,0-5.6v-3.7C1017.2,403.7,1017.4,402.8,1018.5,401.5L1018.5,401.5z"/>
		</g>
		<g>
			<g>
				
					<ellipse transform="matrix(0.1602 -0.9871 0.9871 0.1602 476.6343 1328.416)" class="st19" cx="1019" cy="384.1" rx="20.3" ry="20.3"/>
			</g>
		</g>
		<g>
			<path class="st10" d="M1018.5,364.4c10.8,0,19.6,8.8,19.6,19.6c0,10.8-8.8,19.6-19.6,19.6c-10.8,0-19.6-8.8-19.6-19.6
				C998.9,373.2,1007.7,364.4,1018.5,364.4 M1018.5,363c-11.6,0-21.1,9.5-21.1,21.1s9.5,21.1,21.1,21.1s21.1-9.5,21.1-21.1
				C1039.6,372.4,1030.2,363,1018.5,363L1018.5,363z"/>
		</g>
		<g>
			<g>
				<path class="st1" d="M1024.1,375.7v16.6h-4.5v-14.6h1.4l-8.6,9.5v-1.4h14.5v3.4H1009V386l9.3-10.3H1024.1z"/>
			</g>
		</g>
	</g>
	<g>
		<g>
			<path class="st10" d="M892.9,450.9c1.1,1.2,1.4,2.1,1.2,3.7v3.7c0,1.2,0,4.4,0,5.6c-0.4,0.6-0.7,1.2-1.2,1.9
				c-0.5-0.6-0.8-1.2-1.2-1.9c0-1.2,0-4.4,0-5.6v-3.7C891.5,453.1,891.8,452.2,892.9,450.9L892.9,450.9z"/>
		</g>
		<g>
			<g>
				<circle class="st19" cx="893.3" cy="433.4" r="20.3"/>
			</g>
		</g>
		<g>
			<path class="st10" d="M892.9,413.8c10.8,0,19.6,8.8,19.6,19.6s-8.8,19.6-19.6,19.6s-19.6-8.8-19.6-19.6S882,413.8,892.9,413.8
				 M892.9,412.4c-11.6,0-21.1,9.5-21.1,21.1s9.5,21.1,21.1,21.1s21.1-9.5,21.1-21.1S904.5,412.4,892.9,412.4L892.9,412.4z"/>
		</g>
		<g>
			<g>
				<path class="st1" d="M884.8,431.1c0.1-1.3,0.5-2.4,1.3-3.4s1.8-1.7,3.1-2.2s2.7-0.8,4.3-0.8c1.5,0,2.9,0.2,4,0.7s2,1.1,2.7,1.9
					c0.6,0.8,1,1.8,1,2.9c0,0.8-0.2,1.6-0.7,2.4c-0.5,0.7-1.2,1.4-2.1,2.1c-1,0.7-2.3,1.4-3.8,2.2l-4.6,2.3l-0.2-1.2h11.9v3.6h-16.4
					v-3.2l7.1-4c1.1-0.6,2-1.2,2.6-1.6s1-0.8,1.3-1.2c0.3-0.4,0.4-0.8,0.4-1.2c0-0.5-0.1-0.9-0.4-1.2s-0.6-0.6-1.1-0.8
					c-0.5-0.2-1.1-0.3-1.8-0.3c-0.9,0-1.6,0.1-2.2,0.4c-0.6,0.3-1,0.6-1.3,1s-0.5,0.9-0.5,1.4h-4.6V431.1z"/>
			</g>
		</g>
	</g>
	<g>
		<g>
			<path class="st10" d="M841.6,502.9c1.1,1.3,1.4,2.1,1.2,3.7v3.7c0,1.2,0,4.4,0,5.6c-0.4,0.6-0.7,1.2-1.2,1.9
				c-0.5-0.6-0.8-1.2-1.2-1.9c0-1.2,0-4.4,0-5.6v-3.7C840.3,505.1,840.5,504.2,841.6,502.9L841.6,502.9z"/>
		</g>
		<g>
			<g>
				<circle class="st17" cx="841.6" cy="485.5" r="20.3"/>
			</g>
		</g>
		<g>
			<path class="st10" d="M841.3,465.9c10.8,0,19.6,8.8,19.6,19.6s-8.8,19.6-19.6,19.6s-19.6-8.8-19.6-19.6S830.5,465.9,841.3,465.9
				 M841.3,464.4c-11.6,0-21.1,9.5-21.1,21.1s9.5,21.1,21.1,21.1s21.1-9.5,21.1-21.1S853,464.4,841.3,464.4L841.3,464.4z"/>
		</g>
		<g>
			<g>
				<path class="st1" d="M845.8,477.2v16.6h-4.5v-15l2.1,2l-7.1,1.3v-3.5l6.2-1.3h3.3V477.2z"/>
			</g>
		</g>
	</g>
	<polygon class="st20" points="942.6,337.5 940.2,328.6 926.9,331.8 	"/>
	<g>
		<g>
			<circle class="st10" cx="724.8" cy="265.7" r="19.6"/>
		</g>
		<path class="st1" d="M734.6,257.5h-5.8c-0.3,0-0.6,0.3-0.6,0.6v2.7h-4.1c-0.3,0-0.6,0.3-0.6,0.6v2.7h-4.1c-0.3,0-0.6,0.3-0.6,0.6
			v2.8h-4.1c-0.3,0-0.6,0.3-0.6,0.6v4.9c0,0.3,0.3,0.6,0.6,0.6h6c0.1,0,0.2,0,0.3-0.1l14-9.5c0.2-0.1,0.3-0.3,0.3-0.5v-5.3
			C735.2,257.8,735,257.5,734.6,257.5z M734.1,258.8v4.3l-13.3,9.4h-5.2v-3.6h4.1c0.3,0,0.6-0.3,0.6-0.6v-2.8h4.1
			c0.3,0,0.6-0.3,0.6-0.6v-2.7h4.1c0.3,0,0.6-0.3,0.6-0.6v-2.7L734.1,258.8z"/>
		<g>
			<path class="st10" d="M724.8,283.1c0.6,0.6,1,1.2,1.4,1.9c0,0.6,0,1.2,0,1.9v3.7c0,1.2,0,4.4,0,5.6c-0.4,0.6-0.8,1.2-1.4,1.9
				c-0.6-0.6-1-1.2-1.4-1.9c0-1.2,0-4.4,0-5.6v-3.7c0-0.6,0-1.2,0-1.9C723.8,284.4,724.3,283.8,724.8,283.1L724.8,283.1z"/>
		</g>
	</g>
	<g>
		<g>
			<circle class="st10" cx="838.5" cy="305.2" r="19.6"/>
		</g>
		<g>
			<path class="st10" d="M838.5,322.6c1.1,1.3,1.4,2.1,1.2,3.7v3.7c0,1.2,0,4.4,0,5.6c-0.4,0.6-0.7,1.2-1.2,1.9
				c-0.5-0.6-0.8-1.2-1.2-1.9c0-1.2,0-4.4,0-5.6v-3.7C837.1,324.8,837.4,323.9,838.5,322.6L838.5,322.6z"/>
		</g>
		<g>
			<g>
				<circle class="st1" cx="832.2" cy="297" r="1.7"/>
				<path class="st1" d="M834.4,299.3H830c-0.8,0-1.4,0.6-1.4,1.4v6.9c0,0.3,0.2,0.5,0.5,0.5h0.8v5.5c0,0.5,0.4,0.8,0.8,0.8
					c0,0,0,0,0.1,0c0.3,0,0.5-0.1,0.7-0.2c0.2-0.2,0.3-0.4,0.3-0.8v-5.3h0.9v5.5c0,0.5,0.4,0.8,0.8,0.8c0,0,0,0,0.1,0
					c0.3,0,0.5-0.1,0.7-0.2c0.2-0.2,0.3-0.4,0.3-0.8v-5.3h0.7c0.3,0,0.5-0.2,0.5-0.5v-6.9C835.8,299.9,835.2,299.3,834.4,299.3z"/>
				<path class="st1" d="M844.7,298.3c0.9,0,1.7-0.8,1.7-1.7c0-0.9-0.8-1.7-1.7-1.7s-1.7,0.8-1.7,1.7
					C843,297.6,843.8,298.3,844.7,298.3z"/>
				<path class="st1" d="M849.2,307.2l-1.7-7.3c-0.2-0.8-0.8-1-1.3-1h-3.1c-0.7,0-1.3,0.6-1.3,1.3l-1.3,7c0,0.3,0.2,0.5,0.5,0.5h1.5
					v5.6c0,0.5,0.4,0.8,0.8,0.8c0,0,0,0,0.1,0c0.3,0,0.5-0.1,0.7-0.2c0.2-0.2,0.3-0.4,0.3-0.8v-5.4h0.9v5.6c0,0.5,0.4,0.8,0.8,0.8
					c0,0,0,0,0.1,0c0.3,0,0.5-0.1,0.7-0.2c0.2-0.2,0.3-0.4,0.3-0.8v-5.4h1.7C849,307.7,849.2,307.5,849.2,307.2L849.2,307.2z"/>
				<path class="st1" d="M838.5,293.4c-0.3,0-0.5,0.2-0.5,0.5v21.6c0,0.3,0.2,0.5,0.5,0.5s0.5-0.2,0.5-0.5v-21.6
					C839,293.6,838.8,293.4,838.5,293.4z"/>
			</g>
		</g>
	</g>
	<g>
		<g>
			<circle class="st10" cx="775.8" cy="283.3" r="19.6"/>
		</g>
		<g>
			<path class="st10" d="M775.8,300.7c1.1,1.3,1.4,2.1,1.2,3.7v3.7c0,1.2,0,4.4,0,5.6c-0.4,0.6-0.7,1.2-1.2,1.9
				c-0.5-0.6-0.8-1.2-1.2-1.9c0-1.2,0-4.4,0-5.6v-3.7C774.4,302.9,774.7,302,775.8,300.7L775.8,300.7z"/>
		</g>
		<g>
			<path class="st1" d="M784.4,279.3l-17-0.2c-0.7,0-1.2,0.5-1.2,1.2l-0.1,12.9c0,0.7,0.5,1.2,1.2,1.2l17,0.2c0.7,0,1.2-0.5,1.2-1.2
				l0.1-12.9C785.6,279.8,785.1,279.3,784.4,279.3z M767.3,280.3L767.3,280.3l17.1,0.1l0,0l-0.1,12.9l0,0l-17-0.2l0,0V280.3z"/>
			<path class="st1" d="M771.2,277.9C771.3,277.9,771.3,277.9,771.2,277.9C771.3,278,771.3,278,771.2,277.9c0.1,0.1,0.2,0.1,0.2,0.2
				l0,0l0,0c0.1,0,0.1,0,0.2,0l0,0l0,0l0,0l0,0c0.1,0,0.1,0,0.2,0l0,0c0.1,0,0.1-0.1,0.2-0.1l0,0c0,0,0,0,0.1-0.1l0,0l2.9-3.5
				c0.1-0.1,0.2-0.3,0.1-0.5c0-0.2-0.1-0.3-0.2-0.4c-0.3-0.2-0.7-0.2-0.9,0.1l-1.8,2.2l0.1-5.3c0-0.3-0.3-0.6-0.6-0.6
				s-0.6,0.3-0.6,0.6L771,276l-1.6-1.9c-0.1-0.1-0.3-0.2-0.4-0.2c-0.2,0-0.3,0-0.4,0.1c-0.1,0.1-0.2,0.3-0.2,0.4s0,0.3,0.1,0.4
				L771.2,277.9z"/>
			<path class="st1" d="M777.5,274.2c0.2,0,0.3-0.1,0.5-0.2l1.7-1.9l-0.1,5.5c0,0.3,0.3,0.6,0.6,0.6s0.6-0.3,0.6-0.6l0.1-5.3
				l1.7,2.2c0.2,0.3,0.6,0.3,0.9,0.1c0.3-0.2,0.3-0.6,0.1-0.9l-2.8-3.6l0,0c0,0,0-0.1-0.1-0.1l0,0l0,0c0,0-0.1-0.1-0.2-0.1l0,0
				c-0.1,0-0.1,0-0.2,0l0,0c-0.1,0-0.1,0-0.2,0l0,0l0,0c-0.1,0-0.1,0-0.1,0.1l0,0l-0.1,0.1l-2.8,3.1c-0.2,0.3-0.2,0.6,0.1,0.9
				C777.2,274.1,777.3,274.2,777.5,274.2z"/>
			<path class="st1" d="M770.9,283.3c0.5,0,0.9-0.4,0.9-0.9s-0.4-0.9-0.9-0.9s-0.9,0.4-0.9,0.9S770.4,283.3,770.9,283.3z"/>
			<path class="st1" d="M780.7,283.4c0.5,0,0.9-0.4,0.9-0.9s-0.4-0.9-0.9-0.9s-0.9,0.4-0.9,0.9S780.2,283.4,780.7,283.4z"/>
			<path class="st1" d="M775.8,283.3c0.5,0,0.9-0.4,0.9-0.9s-0.4-0.9-0.9-0.9s-0.9,0.4-0.9,0.9C774.9,282.9,775.3,283.3,775.8,283.3
				z"/>
			<path class="st1" d="M769.5,288.4L769.5,288.4l0.1,3.5c0,0.3,0.3,0.5,0.6,0.6c0.2,0,0.3,0,0.4-0.2c0.1-0.1,0.2-0.3,0.2-0.5v-3.4
				h0.2v3.5c0,0.3,0.2,0.5,0.5,0.6l0,0c0.2,0,0.3,0,0.4-0.2c0.1-0.1,0.2-0.3,0.2-0.5v-3.4l0,0c0.4,0,0.6-0.3,0.6-0.6v-2.6
				c0-0.9-0.7-1.7-1.6-1.7h-0.7c-0.9,0-1.7,0.7-1.7,1.6v2.6C768.9,288.1,769.1,288.4,769.5,288.4z"/>
			<path class="st1" d="M774.4,288.4L774.4,288.4l0.1,3.5c0,0.3,0.3,0.6,0.6,0.6c0.2,0,0.3,0,0.4-0.1c0.1-0.1,0.2-0.3,0.2-0.5v-3.4
				h0.2v3.5c0,0.3,0.3,0.6,0.6,0.6c0.2,0,0.3,0,0.4-0.1c0.1-0.1,0.2-0.3,0.2-0.5v-3.4l0,0c0.4,0,0.6-0.3,0.6-0.6v-2.6
				c0-0.9-0.7-1.7-1.6-1.7h-0.7c-0.9,0-1.7,0.7-1.7,1.6v2.6C773.8,288.1,774.1,288.4,774.4,288.4z"/>
			<path class="st1" d="M779.3,288.5L779.3,288.5v3.6c0,0.3,0.3,0.6,0.6,0.6c0.2,0,0.3,0,0.4-0.1c0.1-0.1,0.2-0.3,0.2-0.5v-3.5h0.2
				v3.6c0,0.3,0.3,0.6,0.6,0.6c0.2,0,0.3,0,0.4-0.1c0.1-0.1,0.2-0.3,0.2-0.5v-3.5l0,0c0.4,0,0.6-0.3,0.6-0.6v-2.6
				c0-0.9-0.7-1.7-1.6-1.7h-0.7c-0.9,0-1.7,0.7-1.7,1.6v2.6C778.6,288.2,778.9,288.5,779.3,288.5z"/>
		</g>
	</g>
</g>
<g>
	<g>
		<polyline class="st21" points="1184.7,592.5 1185.4,848.1 1343.5,848.1 		"/>
		<g>
			<path class="st10" d="M1179.8,592.5c0-2.7,2.2-4.9,4.9-4.9c2.7,0,4.9,2.2,4.9,4.9s-2.2,4.9-4.9,4.9S1179.8,595.2,1179.8,592.5z"
				/>
		</g>
	</g>
</g>
<rect x="1343.4" y="823" class="st22" width="184" height="49.5"/>
<rect x="1354.1" y="837.1" class="st11" width="163.3" height="37"/>
<g class="st23">
	<path class="st1" d="M1365.7,853.2l-9-15.6h5.5l7,12.2L1365.7,853.2z M1362.5,855.6l3.2-5.6h0.1l7-12.4h5.4l-10.3,18H1362.5z"/>
	<path class="st1" d="M1377.7,841.9h4.9v3.9l-0.2,0.6v3.8l0.2,1.1v8.2h-4.9V841.9z M1381,848.8c0.2-1.5,0.6-2.8,1.3-3.9
		c0.7-1.1,1.5-1.9,2.5-2.5c1-0.6,2.2-0.9,3.5-0.9c1.3,0,2.5,0.3,3.5,0.9c1,0.6,1.8,1.5,2.4,2.5c0.6,1.1,0.9,2.4,0.9,3.8
		c0,1.4-0.3,2.7-0.9,3.8c-0.6,1.1-1.4,1.9-2.4,2.5c-1,0.6-2.2,0.9-3.5,0.9c-1.3,0-2.5-0.3-3.5-0.9c-1-0.6-1.9-1.4-2.5-2.5
		C1381.7,851.5,1381.3,850.2,1381,848.8z M1390.2,848.8c0-0.7-0.1-1.3-0.4-1.8c-0.3-0.5-0.7-0.9-1.2-1.2c-0.5-0.3-1.1-0.5-1.7-0.5
		c-0.7,0-1.3,0.2-1.9,0.5c-0.6,0.3-1.1,0.7-1.6,1.2c-0.4,0.5-0.8,1.1-1,1.8c0.2,0.7,0.6,1.3,1,1.8c0.4,0.5,1,0.9,1.6,1.2
		s1.2,0.4,1.9,0.4c0.6,0,1.2-0.1,1.7-0.4s0.9-0.7,1.2-1.2C1390,850.1,1390.2,849.5,1390.2,848.8z"/>
	<path class="st1" d="M1405.4,856c-1.8,0-3.3-0.3-4.6-0.9c-1.3-0.6-2.3-1.4-3.1-2.5c-0.7-1.1-1.1-2.4-1.1-3.8c0-1.5,0.4-2.7,1.1-3.8
		c0.7-1.1,1.8-1.9,3.1-2.5c1.3-0.6,2.8-0.9,4.6-0.9c1.7,0,3.3,0.3,4.6,0.9c1.3,0.6,2.3,1.5,3.1,2.5c0.7,1.1,1.1,2.4,1.1,3.8
		c0,1.4-0.4,2.7-1.1,3.8c-0.7,1.1-1.8,1.9-3.1,2.5C1408.7,855.7,1407.1,856,1405.4,856z M1405.4,852.4c0.8,0,1.5-0.1,2.1-0.4
		c0.6-0.3,1-0.7,1.3-1.2s0.5-1.2,0.5-1.9c0-0.8-0.2-1.4-0.5-2s-0.7-0.9-1.3-1.2c-0.6-0.3-1.3-0.4-2.1-0.4s-1.5,0.1-2.1,0.4
		s-1,0.7-1.3,1.2s-0.5,1.2-0.5,1.9c0,0.8,0.2,1.4,0.5,1.9s0.7,1,1.3,1.2S1404.6,852.4,1405.4,852.4z"/>
	<path class="st1" d="M1415.8,855.6l0.9-6.9l-0.9-6.8h11.2c1.3,0,2.4,0.3,3.2,0.9c0.8,0.6,1.2,1.5,1.2,2.5c0,1-0.4,1.8-1.2,2.4
		c-0.8,0.6-1.9,1-3.3,1.1l0.3-0.8c1.6,0.1,2.9,0.4,3.7,1c0.9,0.6,1.3,1.5,1.3,2.6c0,1.2-0.4,2.1-1.3,2.8c-0.9,0.7-2.1,1.1-3.6,1.1
		H1415.8z M1420.5,854.6l-1.9-2h7c0.5,0,0.9-0.1,1.2-0.3c0.3-0.2,0.4-0.6,0.4-1c0-0.4-0.1-0.7-0.4-0.9c-0.3-0.2-0.7-0.4-1.3-0.4
		h-5.9v-2.5h5.3c0.5,0,0.9-0.1,1.1-0.3c0.3-0.2,0.4-0.5,0.4-0.9s-0.1-0.7-0.3-0.9c-0.2-0.2-0.6-0.3-1.1-0.3h-6.3l1.9-2l0.8,5.8
		L1420.5,854.6z"/>
	<path class="st1" d="M1442.2,856c-1.7,0-3.1-0.3-4.5-0.9c-1.3-0.6-2.3-1.5-3.1-2.6s-1.1-2.4-1.1-3.8c0-1.4,0.4-2.7,1.1-3.8
		s1.7-1.9,3-2.5c1.3-0.6,2.7-0.9,4.3-0.9c1.6,0,3.1,0.4,4.2,1.1s2.1,1.7,2.7,3s0.9,2.8,0.9,4.6h-12.2v-3h9.4l-1.6,1
		c-0.1-0.7-0.2-1.3-0.5-1.8c-0.3-0.5-0.7-0.9-1.1-1.1c-0.5-0.3-1-0.4-1.7-0.4c-0.7,0-1.3,0.1-1.8,0.4c-0.5,0.3-0.9,0.7-1.2,1.2
		s-0.4,1.1-0.4,1.8c0,0.9,0.2,1.6,0.6,2.2c0.4,0.6,1,1.1,1.7,1.4c0.8,0.3,1.7,0.5,2.8,0.5c1,0,2-0.1,3-0.4c1-0.3,1.9-0.6,2.7-1.1
		v3.1c-0.9,0.6-2,1.1-3.2,1.5C1444.9,855.8,1443.6,856,1442.2,856z"/>
	<path class="st1" d="M1451.8,841.9h4.9v13.7h-4.9V841.9z M1454.6,846.8h10.4v3.6h-10.4V846.8z M1463.1,841.9h4.9v13.7h-4.9V841.9z"
		/>
	<path class="st1" d="M1470.7,855.6v-13.7h4.9v12.5l-1.5-2.2h4.8c0.6,0,1.1-0.1,1.4-0.4c0.3-0.3,0.5-0.7,0.5-1.3
		c0-0.5-0.2-0.9-0.5-1.2c-0.3-0.3-0.8-0.4-1.4-0.4h-4.9v-3.3h5.7c1.2,0,2.3,0.2,3.2,0.6s1.6,1,2.1,1.8c0.5,0.8,0.8,1.6,0.8,2.7
		c0,1-0.3,1.9-0.8,2.7c-0.5,0.8-1.2,1.3-2.1,1.8c-0.9,0.4-1.9,0.6-3.1,0.6H1470.7z"/>
	<path class="st1" d="M1508.5,837.6v18h-4.9v-15.8h1.5l-9.4,10.3l0-1.6h15.7v3.7h-19.3v-3.5l10.1-11.1H1508.5z"/>
</g>
</svg>
