<svg width="1920" height="1080" viewBox="0 0 1920 1080" fill="none" xmlns="http://www.w3.org/2000/svg">
<path d="M1333.3 569.6L1466.7 526L1558.8 495.4L1603.4 540.1L1563.9 553.2L1701.3 634.2L800.7 933.6L730.8 863.7L643.5 913.4L520.2 843.2L436.2 800.6L306.2 735.7L396.3 672.3L285.5 619.4L451.9 453.5L592.9 312.7L813.3 92.2L1057.1 173.4L1025.3 203.9L1128.3 239.3L1095.1 272.5L1076.6 265L977.9 363.8L993.4 373.3L1082.5 424.8L1236.5 501.3L1260 527.1L1333.3 569.6Z" fill="#66B9FF"/>
<path d="M1334 542.8L1467.4 499.1L1559.5 468.6L1604.1 513.3L1564.6 526.3L1702 607.4L801.4 906.8L731.5 836.9L644.2 886.6L520.9 816.4L436.9 773.8L306.9 708.9L397 645.5L286.2 592.6L452.6 426.7L593.6 285.9L814 65.4L1057.8 146.6L1025.9 177.1L1129 212.5L1075.4 266L994.1 346.5L1083.2 398L1288.3 475.2L1260.7 500.3L1334 542.8Z" fill="white"/>
<path d="M970 344.7L1081.3 409.6L1265.5 478.9L1241 501.7L1306.6 539.6L1077 637.7L1015.6 588.8L797.2 515.6L848.4 466.4L970 344.7ZM969.1 337.6L966 340.7L844.4 462.4L793.3 511.6L786.6 518L795.4 521L1012.9 593.9L1073.5 642.1L1076.1 644.2L1079.2 642.9L1308.6 544.7L1318.9 540.3L1309.2 534.7L1250.2 500.6L1269.1 483L1275.8 476.8L1267.3 473.6L1083.6 404.5L972.7 339.9L969.1 337.6Z" fill="#FB493B"/>
<path d="M1468.8 685.4L1420.7 637.3" stroke="#0085CC" stroke-width="4.4633" stroke-miterlimit="10" stroke-linecap="round" stroke-linejoin="round"/>
<path d="M548.6 444.5L483.9 509.3L481.6 511.6" stroke="#0085CC" stroke-width="4.4633" stroke-miterlimit="10" stroke-linecap="round" stroke-linejoin="round"/>
<path d="M647.9 476.4L596.3 528L579.9 544.4" stroke="#0085CC" stroke-width="4.4633" stroke-miterlimit="10" stroke-linecap="round" stroke-linejoin="round"/>
<path d="M1075.6 266L1058.6 282.9L1055.4 286" stroke="#0085CC" stroke-width="2.0002" stroke-miterlimit="10" stroke-linecap="round" stroke-linejoin="round"/>
<path d="M1182.6 716.7L1218.7 704.6L1248.4 694.8L1311.1 673.7" stroke="#0085CC" stroke-width="1.4878" stroke-miterlimit="10" stroke-linecap="round" stroke-linejoin="round"/>
<path d="M1467.9 499.2C1371 404.6 1236.5 324.7 1075.6 265.9" stroke="#0085CC" stroke-width="4.4633" stroke-miterlimit="10" stroke-linecap="round" stroke-linejoin="round"/>
<path d="M1433 510.9C1339.6 419.8 1210.2 342.8 1055.4 286.1" stroke="#0085CC" stroke-width="1.4878" stroke-miterlimit="10" stroke-linecap="round" stroke-linejoin="round"/>
<path d="M652.8 547.2L596 528.3" stroke="#0085CC" stroke-width="4.4633" stroke-miterlimit="10" stroke-linecap="round" stroke-linejoin="round"/>
<path d="M498.2 427.7L431.2 494.9" stroke="#0085CC" stroke-width="4.4633" stroke-miterlimit="10" stroke-linecap="round" stroke-linejoin="round"/>
<path d="M465.2 416.6L548.6 444.5" stroke="#0085CC" stroke-width="4.4633" stroke-miterlimit="10" stroke-linecap="round" stroke-linejoin="round"/>
<path d="M647.9 476.4L548.6 444.5" stroke="#0085CC" stroke-width="1.4878" stroke-miterlimit="10" stroke-linecap="round" stroke-linejoin="round"/>
<path d="M1121.9 775.9L1072.1 792.5L1012.6 812.3" stroke="#0085CC" stroke-width="4.4633" stroke-miterlimit="10" stroke-linecap="round" stroke-linejoin="round"/>
<path d="M1125.8 659.4L1182.6 716.7L1230.6 764.8" stroke="#0085CC" stroke-width="4.4633" stroke-miterlimit="10" stroke-linecap="round" stroke-linejoin="round"/>
<path d="M1149.4 723.8L1078.8 653.1L1049.2 662.9L1119.8 733.6L1149.4 723.8Z" stroke="#0085CC" stroke-width="1.4878" stroke-miterlimit="10" stroke-linecap="round" stroke-linejoin="round"/>
<path d="M1218.7 704.6L1238.6 724.5L1266.8 752.7" stroke="#0085CC" stroke-width="1.4878" stroke-miterlimit="10" stroke-linecap="round" stroke-linejoin="round"/>
<path d="M873.3 413.1L794 386.6L702.2 356L609.6 325.2" stroke="#0085CC" stroke-width="4.4633" stroke-miterlimit="10" stroke-linecap="round" stroke-linejoin="round"/>
<path d="M627.7 585.9L550 560" stroke="#0085CC" stroke-width="4.4633" stroke-miterlimit="10" stroke-linecap="round" stroke-linejoin="round"/>
<path d="M526.7 552.3L511.3 547.2L497 542.3" stroke="#0085CC" stroke-width="4.4633" stroke-miterlimit="10" stroke-linecap="round" stroke-linejoin="round"/>
<path d="M473.7 534.6L376.9 502.5H376.8" stroke="#0085CC" stroke-width="4.4633" stroke-miterlimit="10" stroke-linecap="round" stroke-linejoin="round"/>
<path d="M627.7 585.9L619.5 594.2L584.2 629.4L467.8 590.7L333.4 545.9" stroke="#0085CC" stroke-width="4.4633" stroke-miterlimit="10" stroke-linecap="round" stroke-linejoin="round"/>
<path d="M511.3 547.2L467.8 590.7" stroke="#0085CC" stroke-width="4.4633" stroke-miterlimit="10" stroke-linecap="round" stroke-linejoin="round"/>
<path d="M481.6 511.6L579.9 544.4L636.7 563.3L652.8 547.2" stroke="#0085CC" stroke-width="4.4633" stroke-miterlimit="10" stroke-linecap="round" stroke-linejoin="round"/>
<path d="M1092.2 746.1L982.8 782.6" stroke="#0085CC" stroke-width="4.4633" stroke-miterlimit="10" stroke-linecap="round" stroke-linejoin="round"/>
<path d="M1249.3 694.4L1269.2 714.3L1238.6 724.5" stroke="#0085CC" stroke-width="1.4878" stroke-miterlimit="10" stroke-linecap="round" stroke-linejoin="round"/>
<path d="M1286 646.2L1259.1 655.8" stroke="#0085CC" stroke-width="2.0002" stroke-miterlimit="10" stroke-linecap="round" stroke-linejoin="round"/>
<path d="M609.6 325.2L586.1 348.7L559 375.7" stroke="#0085CC" stroke-width="4.3879" stroke-miterlimit="10" stroke-linecap="round" stroke-linejoin="round"/>
<path d="M873.3 413.1L824.1 462.3" stroke="#0085CC" stroke-width="4.3879" stroke-miterlimit="10" stroke-linecap="round" stroke-linejoin="round"/>
<path d="M960.6 243.4L956.1 247.9L993.3 260.3L1019.6 269" stroke="#0085CC" stroke-width="1.4878" stroke-miterlimit="10" stroke-linecap="round" stroke-linejoin="round"/>
<path d="M1259.1 655.8L1227.8 624.8" stroke="#0085CC" stroke-width="4.4633" stroke-miterlimit="10" stroke-linecap="round" stroke-linejoin="round"/>
<path d="M1072.1 792.5L1090.9 811.3" stroke="#0085CC" stroke-width="4.3879" stroke-miterlimit="10" stroke-linecap="round" stroke-linejoin="round"/>
<path d="M1455.2 487.2L1421 499.4" stroke="#0085CC" stroke-width="1.4878" stroke-miterlimit="10" stroke-linecap="round" stroke-linejoin="round"/>
<path d="M1442 475.1L1408.2 487.7" stroke="#0085CC" stroke-width="1.4878" stroke-miterlimit="10" stroke-linecap="round" stroke-linejoin="round"/>
<path d="M1428.4 463.2L1395 476.4" stroke="#0085CC" stroke-width="1.4878" stroke-miterlimit="10" stroke-linecap="round" stroke-linejoin="round"/>
<path d="M1414.4 451.5L1381.4 465" stroke="#0085CC" stroke-width="1.4878" stroke-miterlimit="10" stroke-linecap="round" stroke-linejoin="round"/>
<path d="M1399.9 440L1367.5 453.8" stroke="#0085CC" stroke-width="1.4878" stroke-miterlimit="10" stroke-linecap="round" stroke-linejoin="round"/>
<path d="M1385.1 428.7L1353.1 442.8" stroke="#0085CC" stroke-width="1.4878" stroke-miterlimit="10" stroke-linecap="round" stroke-linejoin="round"/>
<path d="M1369.8 417.5L1338.4 432" stroke="#0085CC" stroke-width="1.4878" stroke-miterlimit="10" stroke-linecap="round" stroke-linejoin="round"/>
<path d="M1354.1 406.5L1323.2 421.4" stroke="#0085CC" stroke-width="1.4878" stroke-miterlimit="10" stroke-linecap="round" stroke-linejoin="round"/>
<path d="M1338.1 395.7L1307.8 411" stroke="#0085CC" stroke-width="1.4878" stroke-miterlimit="10" stroke-linecap="round" stroke-linejoin="round"/>
<path d="M1321.7 385.1L1291.9 400.8" stroke="#0085CC" stroke-width="1.4878" stroke-miterlimit="10" stroke-linecap="round" stroke-linejoin="round"/>
<path d="M1304.8 374.7L1275.7 390.7" stroke="#0085CC" stroke-width="1.4878" stroke-miterlimit="10" stroke-linecap="round" stroke-linejoin="round"/>
<path d="M1287.7 364.4L1259.1 380.8" stroke="#0085CC" stroke-width="1.4878" stroke-miterlimit="10" stroke-linecap="round" stroke-linejoin="round"/>
<path d="M1270.2 354.5L1242.1 371.2" stroke="#0085CC" stroke-width="1.4878" stroke-miterlimit="10" stroke-linecap="round" stroke-linejoin="round"/>
<path d="M1252.4 344.7L1224.9 361.6" stroke="#0085CC" stroke-width="1.4878" stroke-miterlimit="10" stroke-linecap="round" stroke-linejoin="round"/>
<path d="M1234.1 335L1207.3 352.4" stroke="#0085CC" stroke-width="1.4878" stroke-miterlimit="10" stroke-linecap="round" stroke-linejoin="round"/>
<path d="M1215.6 325.6L1189.4 343.3" stroke="#0085CC" stroke-width="1.4878" stroke-miterlimit="10" stroke-linecap="round" stroke-linejoin="round"/>
<path d="M1196.7 316.5L1171.1 334.4" stroke="#0085CC" stroke-width="1.4878" stroke-miterlimit="10" stroke-linecap="round" stroke-linejoin="round"/>
<path d="M1177.6 307.6L1152.6 325.9" stroke="#0085CC" stroke-width="1.4878" stroke-miterlimit="10" stroke-linecap="round" stroke-linejoin="round"/>
<path d="M1158 298.9L1133.7 317.4" stroke="#0085CC" stroke-width="1.4878" stroke-miterlimit="10" stroke-linecap="round" stroke-linejoin="round"/>
<path d="M1138.2 290.4L1114.6 309.3" stroke="#0085CC" stroke-width="1.4878" stroke-miterlimit="10" stroke-linecap="round" stroke-linejoin="round"/>
<path d="M1118.1 282.1L1095.1 301.3" stroke="#0085CC" stroke-width="1.4878" stroke-miterlimit="10" stroke-linecap="round" stroke-linejoin="round"/>
<path d="M1097.6 274.2L1075.5 293.6" stroke="#0085CC" stroke-width="1.4878" stroke-miterlimit="10" stroke-linecap="round" stroke-linejoin="round"/>
<path d="M1441 508.1L1447.2 490L1416.1 484.8L1420.6 466.3L1389.1 461.9L1392.4 443.3L1360.5 439.6L1362.5 420.8L1330.5 418L1331.1 399.2L1298.8 397.1L1298.1 378.3L1265.8 376.9L1263.7 358.3L1231.3 357.7L1227.8 339L1195.4 339.2L1190.8 320.7L1158.4 321.5L1152.3 303.1L1120.1 304.8L1112.8 286.6L1080.7 289.1L1071 270.6" stroke="#0085CC" stroke-width="1.4878" stroke-miterlimit="10" stroke-linecap="round" stroke-linejoin="round"/>
<path d="M1075.6 266L1055 286.6" stroke="#0085CC" stroke-width="4.3879" stroke-miterlimit="10" stroke-linecap="round" stroke-linejoin="round"/>
<path d="M1017.3 269L1043.6 277.9L1058.6 282.9" stroke="#0085CC" stroke-width="4.3879" stroke-miterlimit="10" stroke-linecap="round" stroke-linejoin="round"/>
<path d="M1457.6 502.6L1334.4 543.7L1261.1 501.5L1262.3 500.2" stroke="#0085CC" stroke-width="1.4112" stroke-miterlimit="10" stroke-linecap="round" stroke-linejoin="round"/>
<path d="M1279.6 484.4L1288.7 476.1L1083.6 398.9L994.3 347.3L1055.4 286" stroke="#0085CC" stroke-width="1.4878" stroke-miterlimit="10" stroke-linecap="round" stroke-linejoin="round"/>
<path d="M1318.3 445.5L1412.4 517.6" stroke="#0085CC" stroke-width="1.4878" stroke-miterlimit="10" stroke-linecap="round" stroke-linejoin="round"/>
<path d="M1262.3 500.2L1357.6 536" stroke="#0085CC" stroke-width="1.4878" stroke-miterlimit="10" stroke-linecap="round" stroke-linejoin="round"/>
<path d="M1292.5 456.7L1358.3 507.2L1354.2 512.4L1279.6 484.4" stroke="#0085CC" stroke-width="1.4878" stroke-miterlimit="10" stroke-linecap="round" stroke-linejoin="round"/>
<path d="M711.8 625.5L764.9 584.5" stroke="#0085CC" stroke-width="4.4633" stroke-miterlimit="10" stroke-linecap="round" stroke-linejoin="round"/>
<path d="M619.5 594.2L712.2 625.1" stroke="#0085CC" stroke-width="1.4878" stroke-miterlimit="10" stroke-linecap="round" stroke-linejoin="round"/>
<path d="M907.2 658.7L865.9 682.6" stroke="#0085CC" stroke-width="4.4633" stroke-miterlimit="10" stroke-linecap="round" stroke-linejoin="round"/>
<path d="M764.9 584.5L827.1 537.1" stroke="#0085CC" stroke-width="4.4633" stroke-miterlimit="10" stroke-linecap="round" stroke-linejoin="round"/>
<path d="M764.9 584.5L907.2 658.7L1010.5 598.7" stroke="#0085CC" stroke-width="4.4633" stroke-miterlimit="10" stroke-linecap="round" stroke-linejoin="round"/>
<path d="M823 463.5L559 375.7" stroke="#0085CC" stroke-width="1.4878" stroke-miterlimit="10" stroke-linecap="round" stroke-linejoin="round"/>
<path d="M698 353.9L647.5 404.4" stroke="#0085CC" stroke-width="1.4878" stroke-miterlimit="10" stroke-linecap="round" stroke-linejoin="round"/>
<path d="M802.5 389.5L752 440" stroke="#0085CC" stroke-width="1.4878" stroke-miterlimit="10" stroke-linecap="round" stroke-linejoin="round"/>
<path d="M701.2 422.9L751.7 372.4" stroke="#0085CC" stroke-width="1.4878" stroke-miterlimit="10" stroke-linecap="round" stroke-linejoin="round"/>
<path d="M613.7 750.3L835.1 622" stroke="#0085CC" stroke-width="1.4878" stroke-miterlimit="10" stroke-linecap="round" stroke-linejoin="round"/>
<path d="M1455.8 611.9L1615.8 558.4" stroke="#0085CC" stroke-width="1.4878" stroke-miterlimit="10" stroke-linecap="round" stroke-linejoin="round"/>
<path d="M1500.8 596.9L1552.5 649L1558.4 654.9" stroke="#0085CC" stroke-width="1.4878" stroke-miterlimit="10" stroke-linecap="round" stroke-linejoin="round"/>
<path d="M612.9 321.8L609.6 325.2" stroke="#0085CC" stroke-width="4.3879" stroke-miterlimit="10" stroke-linecap="round" stroke-linejoin="round"/>
<path d="M621.4 313.7L624.1 311.1" stroke="#0085CC" stroke-width="4.3879" stroke-miterlimit="10" stroke-linecap="round" stroke-linejoin="round"/>
<path d="M1565 526.6L1702.5 607.4L800.5 908.1L669.2 776.7L285.2 594.1L511.4 367.9L814 65.1L1057.9 146.4L1026.4 178L1129.2 212.2L1076.6 265" stroke="#0085CC" stroke-width="6.9429" stroke-miterlimit="10" stroke-linecap="round" stroke-linejoin="round"/>
<path d="M395.7 647.2L306.4 709.1L349.8 730.1L392.8 751.7L436.4 774L520.6 816.7L531.2 822.6L541.5 828.2L551.7 833.9L561.8 839.7L572 845.4L582.1 851.2L622.4 874.3L632.4 880.2L643.3 886.5L730.8 838.3" stroke="#0085CC" stroke-width="4.4633" stroke-miterlimit="10" stroke-linecap="round" stroke-linejoin="round"/>
<path d="M559 375.7L552.1 382.7" stroke="#0085CC" stroke-width="4.3879" stroke-miterlimit="10" stroke-linecap="round" stroke-linejoin="round"/>
<path d="M542.3 392.5L537 397.8" stroke="#0085CC" stroke-width="4.4633" stroke-miterlimit="10" stroke-linecap="round" stroke-linejoin="round"/>
<path d="M829.4 163.7L818.2 174.8" stroke="#0085CC" stroke-width="1.4878" stroke-miterlimit="10" stroke-linecap="round" stroke-linejoin="round"/>
<path d="M1017.3 269L997.9 288.4" stroke="#0085CC" stroke-width="4.3879" stroke-miterlimit="10" stroke-linecap="round" stroke-linejoin="round"/>
<path d="M983.6 302.7L959.6 326.7" stroke="#0085CC" stroke-width="4.3879" stroke-miterlimit="10" stroke-linecap="round" stroke-linejoin="round"/>
<path d="M537 397.8L504.8 429.9" stroke="#0085CC" stroke-width="4.4633" stroke-miterlimit="10" stroke-linecap="round" stroke-linejoin="round"/>
<path d="M899.4 93.6L829.4 163.7" stroke="#0085CC" stroke-width="1.4878" stroke-miterlimit="10" stroke-linecap="round" stroke-linejoin="round"/>
<path d="M797.3 195.7L761.4 231.7" stroke="#0085CC" stroke-width="1.4878" stroke-miterlimit="10" stroke-linecap="round" stroke-linejoin="round"/>
<path d="M748.5 244.6L737.4 255.9" stroke="#0085CC" stroke-width="1.4878" stroke-miterlimit="10" stroke-linecap="round" stroke-linejoin="round"/>
<path d="M1029.6 174.4L972.4 231.6" stroke="#0085CC" stroke-width="1.4878" stroke-miterlimit="10" stroke-linecap="round" stroke-linejoin="round"/>
<path d="M711.9 167.2L797.3 195.7" stroke="#0085CC" stroke-width="1.4878" stroke-miterlimit="10" stroke-linecap="round" stroke-linejoin="round"/>
<path d="M865.9 684.1L900.9 700.9L926.7 727.7" stroke="#0085CC" stroke-width="1.4878" stroke-miterlimit="10" stroke-linecap="round" stroke-linejoin="round"/>
<path d="M481.7 511.7L468.9 507.5L467.7 506.9" stroke="#0085CC" stroke-width="4.4633" stroke-miterlimit="10" stroke-linecap="round" stroke-linejoin="round"/>
<path d="M445.7 499.7L431.3 494.9" stroke="#0085CC" stroke-width="4.3879" stroke-miterlimit="10" stroke-linecap="round" stroke-linejoin="round"/>
<path d="M481.7 511.7L467.7 506.9" stroke="#0085CC" stroke-width="4.4633" stroke-miterlimit="10" stroke-linecap="round" stroke-linejoin="round"/>
<path d="M445.7 499.7L396.3 483.1" stroke="#0085CC" stroke-width="4.3879" stroke-miterlimit="10" stroke-linecap="round" stroke-linejoin="round"/>
<path d="M1091.8 745.7L1100.6 754.5" stroke="#0085CC" stroke-width="4.4633" stroke-miterlimit="10" stroke-linecap="round" stroke-linejoin="round"/>
<path d="M1113.4 767.2L1114.1 768L1122.1 775.9" stroke="#0085CC" stroke-width="4.4633" stroke-miterlimit="10" stroke-linecap="round" stroke-linejoin="round"/>
<path d="M1394.5 610.9L1285.9 646.9" stroke="#0085CC" stroke-width="4.4633" stroke-miterlimit="10" stroke-linecap="round" stroke-linejoin="round"/>
<path d="M1363.7 580.2L1254.3 616.6" stroke="#0085CC" stroke-width="4.4633" stroke-miterlimit="10" stroke-linecap="round" stroke-linejoin="round"/>
<path d="M1393.9 610.3L1402.3 618.7" stroke="#0085CC" stroke-width="4.3879" stroke-miterlimit="10" stroke-linecap="round" stroke-linejoin="round"/>
<path d="M1394.5 610.9L1385.6 602.1" stroke="#0085CC" stroke-width="4.3879" stroke-miterlimit="10" stroke-linecap="round" stroke-linejoin="round"/>
<path d="M1372.9 589.3L1363.7 580.2" stroke="#0085CC" stroke-width="4.4633" stroke-miterlimit="10" stroke-linecap="round" stroke-linejoin="round"/>
<path d="M1284.6 647.2L1288.1 650.7L1310.2 672.9L1419.9 636.3L1412.1 628.6" stroke="#0085CC" stroke-width="4.4633" stroke-miterlimit="10" stroke-linecap="round" stroke-linejoin="round"/>
<path d="M1254.2 616.6L1262.9 625.3L1263.4 626" stroke="#0085CC" stroke-width="4.3879" stroke-miterlimit="10" stroke-linecap="round" stroke-linejoin="round"/>
<path d="M1276.2 638.8L1277.6 640.2L1284.6 647.2" stroke="#0085CC" stroke-width="4.3879" stroke-miterlimit="10" stroke-linecap="round" stroke-linejoin="round"/>
<path d="M1012.6 812.3L982.8 782.6L926.2 725.9L1035.5 689.4L1092.2 746.1" stroke="#0085CC" stroke-width="4.4633" stroke-miterlimit="10" stroke-linecap="round" stroke-linejoin="round"/>
<path d="M1497.8 675.4L1452.8 630.5L1409.8 587.5L1393.2 570.8" stroke="#0085CC" stroke-width="4.4633" stroke-miterlimit="10" stroke-linecap="round" stroke-linejoin="round"/>
<path d="M1449 626.6L1465.3 621.1L1409.5 565.4L1393.2 570.8" stroke="#0085CC" stroke-width="4.4633" stroke-miterlimit="10" stroke-linecap="round" stroke-linejoin="round"/>
<path d="M1414.8 592L1513.2 558.7L1539.4 583.9" stroke="#0085CC" stroke-width="1.4878" stroke-miterlimit="10" stroke-linecap="round" stroke-linejoin="round"/>
<path d="M1227.8 624.8L1125.8 659.4" stroke="#0085CC" stroke-width="4.4633" stroke-miterlimit="10" stroke-linecap="round" stroke-linejoin="round"/>
<path d="M654.1 339.2L635 358.1L624.6 368.6L605.1 388L603.3 389.9" stroke="#0085CC" stroke-width="1.4878" stroke-miterlimit="10" stroke-linecap="round" stroke-linejoin="round"/>
<path d="M1318.3 445.5L1292.5 456.7" stroke="#0085CC" stroke-width="1.4878" stroke-miterlimit="10" stroke-linecap="round" stroke-linejoin="round"/>
<path d="M853.3 386.5L924.7 315.1" stroke="#0085CC" stroke-width="4.4633" stroke-miterlimit="10" stroke-linecap="round" stroke-linejoin="round"/>
<path d="M666.4 268.9L709.9 283.4" stroke="#0085CC" stroke-width="4.4633" stroke-miterlimit="10" stroke-linecap="round" stroke-linejoin="round"/>
<path d="M621.4 313.7L653.1 282.2L696.5 296.7" stroke="#0085CC" stroke-width="4.4633" stroke-miterlimit="10" stroke-linecap="round" stroke-linejoin="round"/>
<path d="M666.4 268.9L696.5 239" stroke="#0085CC" stroke-width="4.4633" stroke-miterlimit="10" stroke-linecap="round" stroke-linejoin="round"/>
<path d="M853.3 386.5L808.7 371.6L805.7 370.6" stroke="#0085CC" stroke-width="4.3879" stroke-miterlimit="10" stroke-linecap="round" stroke-linejoin="round"/>
<path d="M668.5 324.7L727 344.2" stroke="#0085CC" stroke-width="4.4633" stroke-miterlimit="10" stroke-linecap="round" stroke-linejoin="round"/>
<path d="M744.9 350.1L782.6 362.9" stroke="#0085CC" stroke-width="4.3879" stroke-miterlimit="10" stroke-linecap="round" stroke-linejoin="round"/>
<path d="M770.2 263.6L783.7 268.1" stroke="#0085CC" stroke-width="4.3879" stroke-miterlimit="10" stroke-linecap="round" stroke-linejoin="round"/>
<path d="M753.3 258L654.2 225" stroke="#0085CC" stroke-width="4.3879" stroke-miterlimit="10" stroke-linecap="round" stroke-linejoin="round"/>
<path d="M853.3 386.5L924.7 315.1" stroke="#0085CC" stroke-width="4.4633" stroke-miterlimit="10" stroke-linecap="round" stroke-linejoin="round"/>
<path d="M830.8 283.8L762.5 351.9L759.4 355.2" stroke="#0085CC" stroke-width="4.4633" stroke-miterlimit="10" stroke-linecap="round" stroke-linejoin="round"/>
<path d="M900 306.8L828.5 378.2" stroke="#0085CC" stroke-width="4.4633" stroke-miterlimit="10" stroke-linecap="round" stroke-linejoin="round"/>
<path d="M666.4 268.9L709.9 283.4" stroke="#0085CC" stroke-width="4.4633" stroke-miterlimit="10" stroke-linecap="round" stroke-linejoin="round"/>
<path d="M653.1 282.2L696.5 296.7" stroke="#0085CC" stroke-width="4.4633" stroke-miterlimit="10" stroke-linecap="round" stroke-linejoin="round"/>
<path d="M924.7 315.1L783.7 268.1L778 273.8L712.2 339.2" stroke="#0085CC" stroke-width="4.4633" stroke-miterlimit="10" stroke-linecap="round" stroke-linejoin="round"/>
<path d="M739.5 253.8L713.2 280.1L698.7 294.6L671.8 321.4L668.4 324.7" stroke="#0085CC" stroke-width="4.4633" stroke-miterlimit="10" stroke-linecap="round" stroke-linejoin="round"/>
<path d="M783.7 268.1L936.2 318.8" stroke="#0085CC" stroke-width="4.3879" stroke-miterlimit="10" stroke-linecap="round" stroke-linejoin="round"/>
<path d="M666.4 268.9L696.5 239" stroke="#0085CC" stroke-width="4.4633" stroke-miterlimit="10" stroke-linecap="round" stroke-linejoin="round"/>
<path d="M853.3 386.5L808.7 371.6L805.7 370.6" stroke="#0085CC" stroke-width="4.3879" stroke-miterlimit="10" stroke-linecap="round" stroke-linejoin="round"/>
<path d="M627 311.1L668.4 324.7" stroke="#0085CC" stroke-width="4.4633" stroke-miterlimit="10" stroke-linecap="round" stroke-linejoin="round"/>
<path d="M668.5 324.7L727 344.2" stroke="#0085CC" stroke-width="4.4633" stroke-miterlimit="10" stroke-linecap="round" stroke-linejoin="round"/>
<path d="M744.9 350.1L782.6 362.9" stroke="#0085CC" stroke-width="4.3879" stroke-miterlimit="10" stroke-linecap="round" stroke-linejoin="round"/>
<path d="M1565 526.6L1555.6 529.7L1549.7 526.2L1540.8 521.3L1492.7 537.2" stroke="#0085CC" stroke-width="4.4633" stroke-miterlimit="10" stroke-linecap="round" stroke-linejoin="round"/>
<path d="M1467.8 499.2L1560 468.5L1604.6 513.3H1604.7L1565 526.6" stroke="#0085CC" stroke-width="6.9429" stroke-miterlimit="10" stroke-linecap="round" stroke-linejoin="round"/>
<path d="M1459 503.5L1466.1 510.7" stroke="#0085CC" stroke-width="4.4633" stroke-miterlimit="10" stroke-linecap="round" stroke-linejoin="round"/>
<path d="M1433.8 511.6L1468.5 500.4" stroke="#0085CC" stroke-width="4.4633" stroke-miterlimit="10" stroke-linecap="round" stroke-linejoin="round"/>
<path d="M1481 525.6L1504.9 549.6L1512.7 557.6L1579.7 535.2" stroke="#0085CC" stroke-width="4.4633" stroke-miterlimit="10" stroke-linecap="round" stroke-linejoin="round"/>
<path d="M1279.6 484.4L1262.3 500.2" stroke="#0085CC" stroke-width="1.4878" stroke-miterlimit="10" stroke-linecap="round" stroke-linejoin="round"/>
<path d="M827.1 537.1L1009.8 598" stroke="#0085CC" stroke-width="1.4878" stroke-miterlimit="10" stroke-linecap="round" stroke-linejoin="round"/>
<path d="M721.5 291.5C732.38 291.5 741.2 282.68 741.2 271.8C741.2 260.92 732.38 252.1 721.5 252.1C710.62 252.1 701.8 260.92 701.8 271.8C701.8 282.68 710.62 291.5 721.5 291.5Z" fill="#1D0EB1"/>
<path d="M731.4 263.6H725.6C725.3 263.6 725 263.9 725 264.2V267H720.9C720.6 267 720.3 267.3 720.3 267.6V270.3H716.2C715.9 270.3 715.6 270.6 715.6 270.9V273.7H711.5C711.2 273.7 710.9 274 710.9 274.3V279.2C710.9 279.5 711.2 279.8 711.5 279.8H717.5C717.6 279.8 717.7 279.8 717.8 279.7L731.5 270C731.7 269.9 731.8 269.7 731.8 269.5V264.2C731.9 263.9 731.7 263.6 731.4 263.6ZM730.8 264.8V269.2L717.5 278.7H712.3V275H716.4C716.7 275 717 274.7 717 274.4V271.6H721.1C721.4 271.6 721.7 271.3 721.7 271V268.3H725.8C726.1 268.3 726.4 268 726.4 267.7V264.9L730.8 264.8Z" fill="white"/>
<path d="M721.5 289.3C721.5 289.3 721.7 289.5 722 289.9C722.2 290.1 722.4 290.4 722.5 290.6C722.6 290.7 722.7 290.9 722.8 291.1C722.9 291.2 722.8 291.3 722.8 291.3C722.8 291.4 722.8 291.5 722.8 291.6C722.8 293 722.8 294.9 722.8 296.8C722.8 298.7 722.8 300.6 722.8 302C722.8 302.1 722.8 302.2 722.8 302.3C722.8 302.4 722.8 302.5 722.8 302.5C722.7 302.7 722.6 302.8 722.5 303C722.3 303.3 722.1 303.5 722 303.7C721.7 304.1 721.5 304.3 721.5 304.3C721.5 304.3 721.3 304.1 721 303.7C720.8 303.5 720.6 303.2 720.5 303C720.4 302.9 720.3 302.7 720.2 302.5C720.1 302.4 720.1 302.3 720.2 302.3C720.2 302.2 720.2 302.1 720.2 302C720.2 300.6 720.2 298.7 720.2 296.8C720.2 294.9 720.2 293 720.2 291.6C720.2 291.5 720.2 291.4 720.2 291.3C720.2 291.2 720.2 291.1 720.2 291.1C720.3 290.9 720.4 290.8 720.5 290.6C720.7 290.3 720.9 290.1 721 289.9C721.3 289.5 721.5 289.3 721.5 289.3Z" fill="#1D0EB1"/>
<path d="M833 319.1C843.88 319.1 852.7 310.28 852.7 299.4C852.7 288.52 843.88 279.7 833 279.7C822.12 279.7 813.3 288.52 813.3 299.4C813.3 310.28 822.12 319.1 833 319.1Z" fill="#1D0EB1"/>
<path d="M833 316.1C833 316.1 833.2 316.4 833.5 316.8C833.6 317 833.8 317.3 834 317.6C834.1 317.8 834.2 317.9 834.3 318.1C834.4 318.3 834.3 318.5 834.3 318.6C834.3 320.1 834.3 322.1 834.3 324.1C834.3 326.1 834.3 328.1 834.3 329.6C834.3 329.7 834.3 329.8 834.3 329.9C834.3 330 834.3 330.1 834.3 330.2C834.2 330.4 834.1 330.5 834 330.7C833.8 331 833.6 331.3 833.5 331.5C833.2 331.9 833 332.2 833 332.2C833 332.2 832.8 331.9 832.5 331.5C832.4 331.3 832.2 331 832 330.7C831.9 330.5 831.8 330.4 831.7 330.2C831.6 330.1 831.6 330 831.7 329.9C831.7 329.8 831.7 329.7 831.7 329.6C831.7 328.1 831.7 326.1 831.7 324.1C831.7 322.1 831.7 320.1 831.7 318.6C831.7 318.4 831.6 318.2 831.7 318.1C831.8 317.9 831.9 317.8 832 317.6C832.2 317.3 832.4 317 832.5 316.8C832.8 316.3 833 316.1 833 316.1Z" fill="#1D0EB1"/>
<path d="M826.7 292.9C827.639 292.9 828.4 292.139 828.4 291.2C828.4 290.261 827.639 289.5 826.7 289.5C825.761 289.5 825 290.261 825 291.2C825 292.139 825.761 292.9 826.7 292.9Z" fill="white"/>
<path d="M828.9 293.5H824.5C823.7 293.5 823.1 294.1 823.1 294.9V301.9C823.1 302.2 823.3 302.4 823.6 302.4H824.4V307.9C824.4 308.4 824.8 308.7 825.2 308.7C825.2 308.7 825.2 308.7 825.3 308.7C825.6 308.7 825.8 308.6 826 308.5C826.2 308.3 826.3 308.1 826.3 307.7V302.4H827.2V307.9C827.2 308.4 827.6 308.7 828 308.7C828 308.7 828 308.7 828.1 308.7C828.4 308.7 828.6 308.6 828.8 308.5C829 308.3 829.1 308.1 829.1 307.7V302.4H829.8C830.1 302.4 830.3 302.2 830.3 301.9V294.9C830.3 294.1 829.7 293.5 828.9 293.5Z" fill="white"/>
<path d="M839.2 292.5C840.139 292.5 840.9 291.739 840.9 290.8C840.9 289.861 840.139 289.1 839.2 289.1C838.261 289.1 837.5 289.861 837.5 290.8C837.5 291.739 838.261 292.5 839.2 292.5Z" fill="white"/>
<path d="M843.8 301.4L842.1 294C841.9 293.1 841.3 293 840.8 293H837.7C837 293 836.4 293.6 836.4 294.3L835.1 301.4C835.1 301.7 835.3 301.9 835.6 301.9H837.2V307.5C837.2 308 837.6 308.3 838 308.3C838 308.3 838 308.3 838.1 308.3C838.4 308.3 838.6 308.2 838.8 308.1C839 307.9 839.1 307.7 839.1 307.3V301.9H840V307.5C840 308 840.4 308.3 840.8 308.3C840.8 308.3 840.8 308.3 840.9 308.3C841.2 308.3 841.4 308.2 841.6 308.1C841.8 307.9 841.9 307.7 841.9 307.3V301.9H843.6C843.6 302 843.8 301.7 843.8 301.4Z" fill="white"/>
<path d="M833 287.6C832.7 287.6 832.5 287.8 832.5 288.1V309.8C832.5 310.1 832.7 310.3 833 310.3C833.3 310.3 833.5 310.1 833.5 309.8V288.1C833.5 287.8 833.3 287.6 833 287.6Z" fill="white"/>
<path d="M427.4 544.2C438.28 544.2 447.1 535.38 447.1 524.5C447.1 513.62 438.28 504.8 427.4 504.8C416.52 504.8 407.7 513.62 407.7 524.5C407.7 535.38 416.52 544.2 427.4 544.2Z" fill="#1D0EB1"/>
<path d="M427.4 541.1C427.4 541.1 427.6 541.4 427.9 541.8C428 542 428.2 542.3 428.4 542.6C428.5 542.8 428.6 542.9 428.7 543.1C428.8 543.3 428.7 543.5 428.7 543.6C428.7 545.1 428.7 547.1 428.7 549.1C428.7 551.1 428.7 553.1 428.7 554.6C428.7 554.7 428.7 554.8 428.7 554.9C428.7 555 428.7 555.1 428.7 555.2C428.6 555.4 428.5 555.5 428.4 555.7C428.2 556 428 556.3 427.9 556.5C427.6 556.9 427.4 557.2 427.4 557.2C427.4 557.2 427.2 556.9 426.9 556.5C426.8 556.3 426.6 556 426.4 555.7C426.3 555.5 426.2 555.4 426.1 555.2C426 555.1 426 555 426.1 554.9C426.1 554.8 426.1 554.7 426.1 554.6C426.1 553.1 426.1 551.1 426.1 549.1C426.1 547.1 426.1 545.1 426.1 543.6C426.1 543.4 426 543.2 426.1 543.1C426.2 542.9 426.3 542.8 426.4 542.6C426.6 542.3 426.8 542 426.9 541.8C427.2 541.4 427.4 541.1 427.4 541.1Z" fill="#1D0EB1"/>
<path d="M427.3 517.6C428.239 517.6 429 516.839 429 515.9C429 514.961 428.239 514.2 427.3 514.2C426.361 514.2 425.6 514.961 425.6 515.9C425.6 516.839 426.361 517.6 427.3 517.6Z" fill="white"/>
<path d="M431.9 526.5L430.2 519.1C430 518.2 429.4 518.1 428.9 518.1H425.8C425.1 518.1 424.5 518.7 424.5 519.4L423.2 526.5C423.2 526.8 423.4 527 423.7 527H425.3V532.6C425.3 533.1 425.7 533.4 426.1 533.4C426.1 533.4 426.1 533.4 426.2 533.4C426.5 533.4 426.7 533.3 426.9 533.2C427.1 533 427.2 532.8 427.2 532.4V527H428.1V532.6C428.1 533.1 428.5 533.4 428.9 533.4C428.9 533.4 428.9 533.4 429 533.4C429.3 533.4 429.5 533.3 429.7 533.2C429.9 533 430 532.8 430 532.4V527H431.7C431.6 527 431.9 526.8 431.9 526.5Z" fill="white"/>
<path d="M557.1 586.8C567.98 586.8 576.8 577.98 576.8 567.1C576.8 556.22 567.98 547.4 557.1 547.4C546.22 547.4 537.4 556.22 537.4 567.1C537.4 577.98 546.22 586.8 557.1 586.8Z" fill="#1D0EB1"/>
<path d="M557.1 583.8C557.1 583.8 557.3 584.1 557.6 584.5C557.7 584.7 557.9 585 558.1 585.3C558.2 585.5 558.3 585.6 558.4 585.8C558.5 586 558.4 586.2 558.4 586.3C558.4 587.8 558.4 589.8 558.4 591.8C558.4 593.8 558.4 595.8 558.4 597.3C558.4 597.4 558.4 597.5 558.4 597.6C558.4 597.7 558.4 597.8 558.4 597.9C558.3 598.1 558.2 598.2 558.1 598.4C557.9 598.7 557.7 599 557.6 599.2C557.3 599.6 557.1 599.9 557.1 599.9C557.1 599.9 556.9 599.6 556.6 599.2C556.5 599 556.3 598.7 556.1 598.4C556 598.2 555.9 598.1 555.8 597.9C555.7 597.8 555.7 597.7 555.8 597.6C555.8 597.5 555.8 597.4 555.8 597.3C555.8 595.8 555.8 593.8 555.8 591.8C555.8 589.8 555.8 587.8 555.8 586.3C555.8 586.1 555.7 585.9 555.8 585.8C555.9 585.6 556 585.5 556.1 585.3C556.3 585 556.5 584.7 556.6 584.5C556.9 584.1 557.1 583.8 557.1 583.8Z" fill="#1D0EB1"/>
<path d="M557.1 560.6C558.039 560.6 558.8 559.839 558.8 558.9C558.8 557.961 558.039 557.2 557.1 557.2C556.161 557.2 555.4 557.961 555.4 558.9C555.4 559.839 556.161 560.6 557.1 560.6Z" fill="white"/>
<path d="M559.2 561.2H554.8C554 561.2 553.4 561.8 553.4 562.6V569.6C553.4 569.9 553.6 570.1 553.9 570.1H554.7V575.6C554.7 576.1 555.1 576.4 555.5 576.4C555.5 576.4 555.5 576.4 555.6 576.4C555.9 576.4 556.1 576.3 556.3 576.2C556.5 576 556.6 575.8 556.6 575.4V570.1H557.5V575.6C557.5 576.1 557.9 576.4 558.3 576.4C558.3 576.4 558.3 576.4 558.4 576.4C558.7 576.4 558.9 576.3 559.1 576.2C559.3 576 559.4 575.8 559.4 575.4V570.1H560.1C560.4 570.1 560.6 569.9 560.6 569.6V562.6C560.6 561.8 560 561.2 559.2 561.2Z" fill="white"/>
<path d="M768 303.1C778.88 303.1 787.7 294.28 787.7 283.4C787.7 272.52 778.88 263.7 768 263.7C757.12 263.7 748.3 272.52 748.3 283.4C748.3 294.28 757.12 303.1 768 303.1Z" fill="#1D0EB1"/>
<path d="M768 300.9C768 300.9 768.2 301.1 768.5 301.5C768.6 301.7 768.8 302 769 302.2C769.1 302.3 769.2 302.5 769.3 302.7C769.4 302.9 769.3 303 769.3 303.2C769.3 304.6 769.3 306.5 769.3 308.4C769.3 310.3 769.3 312.2 769.3 313.6C769.3 313.7 769.3 313.8 769.3 313.9C769.3 314 769.3 314.1 769.3 314.1C769.2 314.3 769.1 314.4 769 314.6C768.8 314.9 768.7 315.1 768.5 315.3C768.2 315.7 768 315.9 768 315.9C768 315.9 767.8 315.7 767.5 315.3C767.4 315.1 767.2 314.8 767 314.6C766.9 314.5 766.8 314.3 766.7 314.1C766.6 314 766.6 313.9 766.7 313.9C766.7 313.8 766.7 313.7 766.7 313.6C766.7 312.2 766.7 310.3 766.7 308.4C766.7 306.5 766.7 304.6 766.7 303.2C766.7 303 766.6 302.9 766.7 302.7C766.8 302.5 766.9 302.4 767 302.2C767.2 301.9 767.3 301.7 767.5 301.5C767.8 301.1 768 300.9 768 300.9Z" fill="#1D0EB1"/>
<path d="M776.7 279.4L759.6 279.2C758.9 279.2 758.4 279.7 758.4 280.4L758.3 293.3C758.3 294 758.8 294.5 759.5 294.5L776.6 294.7C777.3 294.7 777.8 294.2 777.8 293.5L777.9 280.6C777.9 279.9 777.3 279.4 776.7 279.4ZM759.5 280.4L776.7 280.5L776.6 293.5L759.5 293.3V280.4Z" fill="white"/>
<path d="M763.4 278C763.5 278 763.5 278 763.4 278C763.5 278.1 763.5 278.1 763.4 278C763.5 278.1 763.6 278.2 763.6 278.2C763.7 278.2 763.7 278.2 763.8 278.2C763.9 278.2 763.9 278.2 764 278.2C764.1 278.2 764.1 278.1 764.2 278.1C764.2 278.1 764.2 278.1 764.3 278L767.2 274.5C767.3 274.4 767.4 274.2 767.3 274C767.3 273.8 767.2 273.7 767.1 273.6C766.8 273.4 766.4 273.4 766.2 273.7L764.4 275.9L764.5 270.5C764.5 270.2 764.2 269.9 763.9 269.9C763.6 269.9 763.3 270.2 763.3 270.5L763.2 276L761.6 274.1C761.5 274 761.3 273.9 761.2 273.9C761 273.9 760.9 273.9 760.7 274C760.6 274.1 760.5 274.3 760.5 274.4C760.5 274.5 760.5 274.7 760.6 274.9L763.4 278Z" fill="white"/>
<path d="M769.7 274.3C769.9 274.3 770.1 274.2 770.2 274.1L771.9 272.2L771.8 277.7C771.8 278 772.1 278.3 772.4 278.3C772.7 278.3 773 278 773 277.7L773.1 272.3L774.8 274.5C775 274.8 775.4 274.8 775.7 274.6C776 274.4 776 274 775.8 273.7L773 270.1C773 270.1 773 270 772.9 270C772.9 270 772.8 269.9 772.7 269.9C772.6 269.9 772.6 269.9 772.5 269.9C772.4 269.9 772.4 269.9 772.3 269.9C772.2 269.9 772.2 269.9 772.2 270L772.1 270.1L769.3 273.2C769.1 273.5 769.1 273.8 769.4 274.1C769.4 274.2 769.6 274.3 769.7 274.3Z" fill="white"/>
<path d="M763.1 283.4C763.597 283.4 764 282.997 764 282.5C764 282.003 763.597 281.6 763.1 281.6C762.603 281.6 762.2 282.003 762.2 282.5C762.2 282.997 762.603 283.4 763.1 283.4Z" fill="white"/>
<path d="M772.9 283.5C773.397 283.5 773.8 283.097 773.8 282.6C773.8 282.103 773.397 281.7 772.9 281.7C772.403 281.7 772 282.103 772 282.6C772 283.097 772.403 283.5 772.9 283.5Z" fill="white"/>
<path d="M768.1 283.5C768.597 283.5 769 283.097 769 282.6C769 282.103 768.597 281.7 768.1 281.7C767.603 281.7 767.2 282.103 767.2 282.6C767.2 283.097 767.603 283.5 768.1 283.5Z" fill="white"/>
<path d="M761.7 288.5L761.8 292C761.8 292.3 762.1 292.6 762.4 292.6C762.6 292.6 762.7 292.6 762.8 292.4C762.9 292.3 763 292.1 763 291.9V288.5H763.2V292C763.2 292.3 763.4 292.6 763.7 292.6C763.9 292.6 764 292.6 764.1 292.4C764.2 292.3 764.3 292.1 764.3 291.9V288.5C764.7 288.5 764.9 288.2 764.9 287.9V285.3C764.9 284.4 764.2 283.6 763.3 283.6H762.6C761.7 283.6 760.9 284.3 760.9 285.2V287.8C761.1 288.2 761.4 288.5 761.7 288.5Z" fill="white"/>
<path d="M766.7 288.5L766.8 292C766.8 292.3 767.1 292.6 767.4 292.6C767.6 292.6 767.7 292.6 767.8 292.4C767.9 292.3 768 292.1 768 291.9V288.5H768.2V292C768.2 292.3 768.5 292.6 768.8 292.6C769 292.6 769.1 292.6 769.2 292.4C769.3 292.3 769.4 292.1 769.4 291.9V288.5C769.8 288.5 770 288.2 770 287.9V285.3C770 284.4 769.3 283.6 768.4 283.6H767.7C766.8 283.6 766 284.3 766 285.2V287.8C766 288.2 766.3 288.5 766.7 288.5Z" fill="white"/>
<path d="M771.5 288.6V292.2C771.5 292.5 771.8 292.8 772.1 292.8C772.3 292.8 772.4 292.8 772.5 292.6C772.6 292.5 772.7 292.3 772.7 292.1V288.6H772.9V292.2C772.9 292.5 773.2 292.8 773.5 292.8C773.7 292.8 773.8 292.8 773.9 292.6C774 292.5 774.1 292.3 774.1 292.1V288.6C774.5 288.6 774.7 288.3 774.7 288V285.4C774.7 284.5 774 283.7 773.1 283.7H772.4C771.5 283.7 770.7 284.4 770.7 285.3V287.9C770.9 288.3 771.2 288.6 771.5 288.6Z" fill="white"/>
<path d="M1055.1 773C1065.98 773 1074.8 764.18 1074.8 753.3C1074.8 742.42 1065.98 733.6 1055.1 733.6C1044.22 733.6 1035.4 742.42 1035.4 753.3C1035.4 764.18 1044.22 773 1055.1 773Z" fill="#1D0EB1"/>
<path d="M1065 745.1H1059.2C1058.9 745.1 1058.6 745.4 1058.6 745.7V748.5H1054.5C1054.2 748.5 1053.9 748.8 1053.9 749.1V751.8H1049.8C1049.5 751.8 1049.2 752.1 1049.2 752.4V755.2H1045.1C1044.8 755.2 1044.5 755.5 1044.5 755.8V760.7C1044.5 761 1044.8 761.3 1045.1 761.3H1051.1C1051.2 761.3 1051.3 761.3 1051.4 761.2L1065.1 751.5C1065.3 751.4 1065.4 751.2 1065.4 751V745.7C1065.5 745.4 1065.3 745.1 1065 745.1ZM1064.4 746.4V750.8L1051.1 760.3H1045.9V756.6H1050C1050.3 756.6 1050.6 756.3 1050.6 756V753.2H1054.7C1055 753.2 1055.3 752.9 1055.3 752.6V749.9H1059.4C1059.7 749.9 1060 749.6 1060 749.3V746.5L1064.4 746.4Z" fill="white"/>
<path d="M1055.1 770.8C1055.1 770.8 1055.3 771 1055.6 771.4C1055.8 771.6 1056 771.9 1056.1 772.1C1056.2 772.2 1056.3 772.4 1056.4 772.6C1056.5 772.7 1056.4 772.8 1056.4 772.8C1056.4 772.9 1056.4 773 1056.4 773.1C1056.4 774.5 1056.4 776.4 1056.4 778.3C1056.4 780.2 1056.4 782.1 1056.4 783.5C1056.4 783.6 1056.4 783.7 1056.4 783.8C1056.4 783.9 1056.4 784 1056.4 784C1056.3 784.2 1056.2 784.3 1056.1 784.5C1055.9 784.8 1055.7 785 1055.6 785.2C1055.3 785.6 1055.1 785.8 1055.1 785.8C1055.1 785.8 1054.9 785.6 1054.6 785.2C1054.4 785 1054.2 784.7 1054.1 784.5C1054 784.4 1053.9 784.2 1053.8 784C1053.7 783.9 1053.7 783.8 1053.8 783.8C1053.8 783.7 1053.8 783.6 1053.8 783.5C1053.8 782.1 1053.8 780.2 1053.8 778.3C1053.8 776.4 1053.8 774.5 1053.8 773.1C1053.8 773 1053.8 772.9 1053.8 772.8C1053.8 772.7 1053.8 772.6 1053.8 772.6C1053.9 772.4 1054 772.3 1054.1 772.1C1054.3 771.8 1054.5 771.6 1054.6 771.4C1054.9 771.1 1055.1 770.8 1055.1 770.8Z" fill="#1D0EB1"/>
<path d="M877.5 601.1C888.38 601.1 897.2 592.28 897.2 581.4C897.2 570.52 888.38 561.7 877.5 561.7C866.62 561.7 857.8 570.52 857.8 581.4C857.8 592.28 866.62 601.1 877.5 601.1Z" fill="#1D0EB1"/>
<path d="M887.4 573.2H881.6C881.3 573.2 881 573.5 881 573.8V576.6H876.9C876.6 576.6 876.3 576.9 876.3 577.2V579.9H872.2C871.9 579.9 871.6 580.2 871.6 580.5V583.3H867.5C867.2 583.3 866.9 583.6 866.9 583.9V588.8C866.9 589.1 867.2 589.4 867.5 589.4H873.5C873.6 589.4 873.7 589.4 873.8 589.3L887.5 579.6C887.7 579.5 887.8 579.3 887.8 579.1V573.8C888 573.5 887.7 573.2 887.4 573.2ZM886.8 574.4V578.8L873.5 588.3H868.3V584.6H872.4C872.7 584.6 873 584.3 873 584V581.2H877.1C877.4 581.2 877.7 580.9 877.7 580.6V577.9H881.8C882.1 577.9 882.4 577.6 882.4 577.3V574.5L886.8 574.4Z" fill="white"/>
<path d="M877.5 598.9C877.5 598.9 877.7 599.1 878 599.5C878.2 599.7 878.4 600 878.5 600.2C878.6 600.3 878.7 600.5 878.8 600.7C878.9 600.8 878.8 600.9 878.8 600.9C878.8 601 878.8 601.1 878.8 601.2C878.8 602.6 878.8 604.5 878.8 606.4C878.8 608.3 878.8 610.2 878.8 611.6C878.8 611.7 878.8 611.8 878.8 611.9C878.8 612 878.8 612.1 878.8 612.1C878.7 612.3 878.6 612.4 878.5 612.6C878.3 612.9 878.1 613.1 878 613.3C877.7 613.7 877.5 613.9 877.5 613.9C877.5 613.9 877.3 613.7 877 613.3C876.8 613.1 876.6 612.8 876.5 612.6C876.4 612.5 876.3 612.3 876.2 612.1C876.1 612 876.1 611.9 876.2 611.9C876.2 611.8 876.2 611.7 876.2 611.6C876.2 610.2 876.2 608.3 876.2 606.4C876.2 604.5 876.2 602.6 876.2 601.2C876.2 601.1 876.2 601 876.2 600.9C876.2 600.8 876.2 600.7 876.2 600.7C876.3 600.5 876.4 600.4 876.5 600.2C876.7 599.9 876.9 599.7 877 599.5C877.3 599.1 877.5 598.9 877.5 598.9Z" fill="#1D0EB1"/>
<path d="M1369.1 508.3C1379.98 508.3 1388.8 499.48 1388.8 488.6C1388.8 477.72 1379.98 468.9 1369.1 468.9C1358.22 468.9 1349.4 477.72 1349.4 488.6C1349.4 499.48 1358.22 508.3 1369.1 508.3Z" fill="#1D0EB1"/>
<path d="M1378.9 480.4H1373.1C1372.8 480.4 1372.5 480.7 1372.5 481V483.8H1368.4C1368.1 483.8 1367.8 484.1 1367.8 484.4V487.1H1363.7C1363.4 487.1 1363.1 487.4 1363.1 487.7V490.5H1359C1358.7 490.5 1358.4 490.8 1358.4 491.1V496C1358.4 496.3 1358.7 496.6 1359 496.6H1365C1365.1 496.6 1365.2 496.6 1365.3 496.5L1379 486.8C1379.2 486.7 1379.3 486.5 1379.3 486.3V481C1379.5 480.7 1379.2 480.4 1378.9 480.4ZM1378.4 481.7V486.1L1365.1 495.6H1359.9V491.9H1364C1364.3 491.9 1364.6 491.6 1364.6 491.3V488.5H1368.7C1369 488.5 1369.3 488.2 1369.3 487.9V485.2H1373.4C1373.7 485.2 1374 484.9 1374 484.6V481.8L1378.4 481.7Z" fill="white"/>
<path d="M1369.1 506.2C1369.1 506.2 1369.3 506.4 1369.6 506.8C1369.8 507 1370 507.3 1370.1 507.5C1370.2 507.6 1370.3 507.8 1370.4 508C1370.5 508.1 1370.4 508.2 1370.4 508.2C1370.4 508.3 1370.4 508.4 1370.4 508.5C1370.4 509.9 1370.4 511.8 1370.4 513.7C1370.4 515.6 1370.4 517.5 1370.4 518.9C1370.4 519 1370.4 519.1 1370.4 519.2C1370.4 519.3 1370.4 519.4 1370.4 519.4C1370.3 519.6 1370.2 519.7 1370.1 519.9C1369.9 520.2 1369.7 520.4 1369.6 520.6C1369.3 521 1369.1 521.2 1369.1 521.2C1369.1 521.2 1368.9 521 1368.6 520.6C1368.4 520.4 1368.2 520.1 1368.1 519.9C1368 519.8 1367.9 519.6 1367.8 519.4C1367.7 519.3 1367.7 519.2 1367.8 519.2C1367.8 519.1 1367.8 519 1367.8 518.9C1367.8 517.5 1367.8 515.6 1367.8 513.7C1367.8 511.8 1367.8 509.9 1367.8 508.5C1367.8 508.4 1367.8 508.3 1367.8 508.2C1367.8 508.1 1367.8 508 1367.8 508C1367.9 507.8 1368 507.7 1368.1 507.5C1368.3 507.2 1368.5 507 1368.6 506.8C1368.8 506.4 1369.1 506.2 1369.1 506.2Z" fill="#1D0EB1"/>
<path d="M1553.4 496C1564.28 496 1573.1 487.18 1573.1 476.3C1573.1 465.42 1564.28 456.6 1553.4 456.6C1542.52 456.6 1533.7 465.42 1533.7 476.3C1533.7 487.18 1542.52 496 1553.4 496Z" fill="#1D0EB1"/>
<path d="M1563.3 468.1H1557.5C1557.2 468.1 1556.9 468.4 1556.9 468.7V471.5H1552.8C1552.5 471.5 1552.2 471.8 1552.2 472.1V474.8H1548.1C1547.8 474.8 1547.5 475.1 1547.5 475.4V478.2H1543.4C1543.1 478.2 1542.8 478.5 1542.8 478.8V483.7C1542.8 484 1543.1 484.3 1543.4 484.3H1549.4C1549.5 484.3 1549.6 484.3 1549.7 484.2L1563.4 474.5C1563.6 474.4 1563.7 474.2 1563.7 474V468.7C1563.9 468.4 1563.6 468.1 1563.3 468.1ZM1562.7 469.3V473.7L1549.4 483.2H1544.2V479.5H1548.3C1548.6 479.5 1548.9 479.2 1548.9 478.9V476.1H1553C1553.3 476.1 1553.6 475.8 1553.6 475.5V472.8H1557.7C1558 472.8 1558.3 472.5 1558.3 472.2V469.4L1562.7 469.3Z" fill="white"/>
<path d="M1553.4 493.8C1553.4 493.8 1553.6 494 1553.9 494.4C1554.1 494.6 1554.3 494.9 1554.4 495.1C1554.5 495.2 1554.6 495.4 1554.7 495.6C1554.8 495.7 1554.8 495.8 1554.7 495.8C1554.7 495.9 1554.7 496 1554.7 496.1C1554.7 497.5 1554.7 499.4 1554.7 501.3C1554.7 503.2 1554.7 505.1 1554.7 506.5C1554.7 506.6 1554.7 506.7 1554.7 506.8C1554.7 506.9 1554.7 507 1554.7 507C1554.6 507.2 1554.5 507.3 1554.4 507.5C1554.2 507.8 1554 508 1553.9 508.2C1553.6 508.6 1553.4 508.8 1553.4 508.8C1553.4 508.8 1553.2 508.6 1552.9 508.2C1552.7 508 1552.5 507.7 1552.4 507.5C1552.3 507.4 1552.2 507.2 1552.1 507C1552 506.9 1552 506.8 1552.1 506.8C1552.1 506.7 1552.1 506.6 1552.1 506.5C1552.1 505.1 1552.1 503.2 1552.1 501.3C1552.1 499.4 1552.1 497.5 1552.1 496.1C1552.1 496 1552.1 495.9 1552.1 495.8C1552.1 495.7 1552.1 495.6 1552.1 495.6C1552.2 495.4 1552.3 495.3 1552.4 495.1C1552.6 494.8 1552.8 494.6 1552.9 494.4C1553.2 494 1553.4 493.8 1553.4 493.8Z" fill="#1D0EB1"/>
<path d="M1323.8 604.1C1334.68 604.1 1343.5 595.28 1343.5 584.4C1343.5 573.52 1334.68 564.7 1323.8 564.7C1312.92 564.7 1304.1 573.52 1304.1 584.4C1304.1 595.28 1312.92 604.1 1323.8 604.1Z" fill="#1D0EB1"/>
<path d="M1323.8 601.9C1323.8 601.9 1324 602.1 1324.3 602.5C1324.4 602.7 1324.6 603 1324.8 603.2C1324.9 603.3 1325 603.5 1325.1 603.7C1325.2 603.9 1325.1 604 1325.1 604.2C1325.1 605.6 1325.1 607.5 1325.1 609.4C1325.1 611.3 1325.1 613.2 1325.1 614.6C1325.1 614.7 1325.1 614.8 1325.1 614.9C1325.1 615 1325.1 615.1 1325.1 615.1C1325 615.3 1324.9 615.4 1324.8 615.6C1324.6 615.9 1324.5 616.1 1324.3 616.3C1324 616.7 1323.8 616.9 1323.8 616.9C1323.8 616.9 1323.6 616.7 1323.3 616.3C1323.2 616.1 1323 615.8 1322.8 615.6C1322.7 615.5 1322.6 615.3 1322.5 615.1C1322.4 615 1322.4 614.9 1322.5 614.9C1322.5 614.8 1322.5 614.7 1322.5 614.6C1322.5 613.2 1322.5 611.3 1322.5 609.4C1322.5 607.5 1322.5 605.6 1322.5 604.2C1322.5 604 1322.4 603.9 1322.5 603.7C1322.6 603.5 1322.7 603.4 1322.8 603.2C1323 602.9 1323.1 602.7 1323.3 602.5C1323.6 602.1 1323.8 601.9 1323.8 601.9Z" fill="#1D0EB1"/>
<path d="M1317.5 577.8C1318.44 577.8 1319.2 577.039 1319.2 576.1C1319.2 575.161 1318.44 574.4 1317.5 574.4C1316.56 574.4 1315.8 575.161 1315.8 576.1C1315.8 577.039 1316.56 577.8 1317.5 577.8Z" fill="white"/>
<path d="M1319.7 578.4H1315.3C1314.5 578.4 1313.9 579 1313.9 579.8V586.8C1313.9 587.1 1314.1 587.3 1314.4 587.3H1315.2V592.8C1315.2 593.3 1315.6 593.6 1316 593.6C1316 593.6 1316 593.6 1316.1 593.6C1316.4 593.6 1316.6 593.5 1316.8 593.4C1317 593.2 1317.1 593 1317.1 592.6V587.3H1318V592.8C1318 593.3 1318.4 593.6 1318.8 593.6C1318.8 593.6 1318.8 593.6 1318.9 593.6C1319.2 593.6 1319.4 593.5 1319.6 593.4C1319.8 593.2 1319.9 593 1319.9 592.6V587.3H1320.6C1320.9 587.3 1321.1 587.1 1321.1 586.8V579.8C1321.1 579.1 1320.5 578.4 1319.7 578.4Z" fill="white"/>
<path d="M1330 577.5C1330.94 577.5 1331.7 576.739 1331.7 575.8C1331.7 574.861 1330.94 574.1 1330 574.1C1329.06 574.1 1328.3 574.861 1328.3 575.8C1328.3 576.739 1329.06 577.5 1330 577.5Z" fill="white"/>
<path d="M1334.6 586.4L1332.9 579C1332.7 578.1 1332.1 578 1331.6 578H1328.5C1327.8 578 1327.2 578.6 1327.2 579.3L1325.9 586.4C1325.9 586.7 1326.1 586.9 1326.4 586.9H1328V592.5C1328 593 1328.4 593.3 1328.8 593.3C1328.8 593.3 1328.8 593.3 1328.9 593.3C1329.2 593.3 1329.4 593.2 1329.6 593.1C1329.8 592.9 1329.9 592.7 1329.9 592.3V586.9H1330.8V592.5C1330.8 593 1331.2 593.3 1331.6 593.3C1331.6 593.3 1331.6 593.3 1331.7 593.3C1332 593.3 1332.2 593.2 1332.4 593.1C1332.6 592.9 1332.7 592.7 1332.7 592.3V586.9H1334.4C1334.3 586.9 1334.6 586.7 1334.6 586.4Z" fill="white"/>
<path d="M1323.8 572.5C1323.5 572.5 1323.3 572.7 1323.3 573V594.7C1323.3 595 1323.5 595.2 1323.8 595.2C1324.1 595.2 1324.3 595 1324.3 594.7V573C1324.3 572.8 1324.1 572.5 1323.8 572.5Z" fill="white"/>
<path d="M1356.6 635.4C1367.48 635.4 1376.3 626.58 1376.3 615.7C1376.3 604.82 1367.48 596 1356.6 596C1345.72 596 1336.9 604.82 1336.9 615.7C1336.9 626.58 1345.72 635.4 1356.6 635.4Z" fill="#1D0EB1"/>
<path d="M1356.6 633.2C1356.6 633.2 1356.8 633.4 1357.1 633.8C1357.2 634 1357.4 634.3 1357.6 634.5C1357.7 634.6 1357.8 634.8 1357.9 635C1358 635.2 1357.9 635.3 1357.9 635.5C1357.9 636.9 1357.9 638.8 1357.9 640.7C1357.9 642.6 1357.9 644.5 1357.9 645.9C1357.9 646 1357.9 646.1 1357.9 646.2C1357.9 646.3 1357.9 646.4 1357.9 646.4C1357.8 646.6 1357.7 646.7 1357.6 646.9C1357.4 647.2 1357.3 647.4 1357.1 647.6C1356.8 648 1356.6 648.2 1356.6 648.2C1356.6 648.2 1356.4 648 1356.1 647.6C1356 647.4 1355.8 647.1 1355.6 646.9C1355.5 646.8 1355.4 646.6 1355.3 646.4C1355.2 646.3 1355.2 646.2 1355.3 646.2C1355.3 646.1 1355.3 646 1355.3 645.9C1355.3 644.5 1355.3 642.6 1355.3 640.7C1355.3 638.8 1355.3 636.9 1355.3 635.5C1355.3 635.3 1355.2 635.2 1355.3 635C1355.4 634.8 1355.5 634.7 1355.6 634.5C1355.8 634.2 1355.9 634 1356.1 633.8C1356.4 633.5 1356.6 633.2 1356.6 633.2Z" fill="#1D0EB1"/>
<path d="M1365.2 611.7L1348.1 611.5C1347.4 611.5 1346.9 612 1346.9 612.7L1346.8 625.6C1346.8 626.3 1347.3 626.8 1348 626.8L1365.1 627C1365.8 627 1366.3 626.5 1366.3 625.8L1366.4 612.9C1366.4 612.3 1365.9 611.7 1365.2 611.7ZM1348 612.8L1365.2 612.9L1365.1 625.9L1348 625.7V612.8Z" fill="white"/>
<path d="M1352 610.3C1352.1 610.4 1352.2 610.5 1352.2 610.5C1352.3 610.5 1352.3 610.5 1352.4 610.5C1352.5 610.5 1352.5 610.5 1352.6 610.5C1352.7 610.5 1352.7 610.4 1352.8 610.4C1352.8 610.4 1352.8 610.4 1352.9 610.3L1355.8 606.8C1355.9 606.7 1356 606.5 1355.9 606.3C1355.9 606.1 1355.8 606 1355.7 605.9C1355.4 605.7 1355 605.7 1354.8 606L1353 608.2L1353.1 602.8C1353.1 602.5 1352.8 602.2 1352.5 602.2C1352.2 602.2 1351.9 602.5 1351.9 602.8L1351.8 608.3L1350.2 606.4C1350.1 606.3 1349.9 606.2 1349.8 606.2C1349.6 606.2 1349.5 606.2 1349.3 606.3C1349.2 606.4 1349.1 606.6 1349.1 606.7C1349.1 606.9 1349.1 607 1349.2 607.2L1352 610.3Z" fill="white"/>
<path d="M1358.3 606.6C1358.5 606.6 1358.7 606.5 1358.8 606.4L1360.5 604.5L1360.4 610C1360.4 610.3 1360.7 610.6 1361 610.6C1361.3 610.6 1361.6 610.3 1361.6 610L1361.7 604.6L1363.4 606.8C1363.6 607.1 1364 607.1 1364.3 606.9C1364.6 606.7 1364.6 606.3 1364.4 606L1361.6 602.4C1361.6 602.4 1361.6 602.3 1361.5 602.3C1361.5 602.3 1361.4 602.2 1361.3 602.2C1361.2 602.2 1361.2 602.2 1361.1 602.2C1361 602.2 1361 602.2 1360.9 602.2C1360.8 602.2 1360.8 602.2 1360.8 602.3L1360.7 602.4L1357.9 605.5C1357.7 605.8 1357.7 606.1 1358 606.4C1358 606.5 1358.1 606.6 1358.3 606.6Z" fill="white"/>
<path d="M1351.6 615.8C1352.1 615.8 1352.5 615.397 1352.5 614.9C1352.5 614.403 1352.1 614 1351.6 614C1351.1 614 1350.7 614.403 1350.7 614.9C1350.7 615.397 1351.1 615.8 1351.6 615.8Z" fill="white"/>
<path d="M1361.5 615.9C1362 615.9 1362.4 615.497 1362.4 615C1362.4 614.503 1362 614.1 1361.5 614.1C1361 614.1 1360.6 614.503 1360.6 615C1360.6 615.497 1361 615.9 1361.5 615.9Z" fill="white"/>
<path d="M1356.6 615.8C1357.1 615.8 1357.5 615.397 1357.5 614.9C1357.5 614.403 1357.1 614 1356.6 614C1356.1 614 1355.7 614.403 1355.7 614.9C1355.7 615.397 1356.1 615.8 1356.6 615.8Z" fill="white"/>
<path d="M1350.2 620.8L1350.3 624.3C1350.3 624.6 1350.6 624.9 1350.9 624.9C1351.1 624.9 1351.2 624.9 1351.3 624.7C1351.4 624.6 1351.5 624.4 1351.5 624.2V620.8H1351.7V624.3C1351.7 624.6 1351.9 624.9 1352.2 624.9C1352.4 624.9 1352.5 624.9 1352.6 624.7C1352.7 624.6 1352.8 624.4 1352.8 624.2V620.8C1353.2 620.8 1353.4 620.5 1353.4 620.2V617.6C1353.4 616.7 1352.7 615.9 1351.8 615.9H1351.1C1350.2 615.9 1349.4 616.6 1349.4 617.5V620.1C1349.6 620.5 1349.9 620.8 1350.2 620.8Z" fill="white"/>
<path d="M1355.2 620.9L1355.3 624.4C1355.3 624.7 1355.6 625 1355.9 625C1356.1 625 1356.2 625 1356.3 624.8C1356.4 624.7 1356.5 624.5 1356.5 624.3V620.9H1356.7V624.4C1356.7 624.7 1357 625 1357.3 625C1357.5 625 1357.6 625 1357.7 624.8C1357.8 624.7 1357.9 624.5 1357.9 624.3V620.9C1358.3 620.9 1358.5 620.6 1358.5 620.3V617.7C1358.5 616.8 1357.8 616 1356.9 616H1356.2C1355.3 616 1354.5 616.7 1354.5 617.6V620.2C1354.6 620.6 1354.8 620.9 1355.2 620.9Z" fill="white"/>
<path d="M1360.1 620.9V624.5C1360.1 624.8 1360.4 625.1 1360.7 625.1C1360.9 625.1 1361 625.1 1361.1 624.9C1361.2 624.8 1361.3 624.6 1361.3 624.4V620.9H1361.5V624.5C1361.5 624.8 1361.8 625.1 1362.1 625.1C1362.3 625.1 1362.4 625.1 1362.5 624.9C1362.6 624.8 1362.7 624.6 1362.7 624.4V620.9C1363.1 620.9 1363.3 620.6 1363.3 620.3V617.7C1363.3 616.8 1362.6 616 1361.7 616H1361C1360.1 616 1359.3 616.7 1359.3 617.6V620.2C1359.4 620.6 1359.7 620.9 1360.1 620.9Z" fill="white"/>
<path d="M849.4 244.9C860.28 244.9 869.1 236.08 869.1 225.2C869.1 214.32 860.28 205.5 849.4 205.5C838.52 205.5 829.7 214.32 829.7 225.2C829.7 236.08 838.52 244.9 849.4 244.9Z" fill="#1D0EB1"/>
<path d="M849.4 242.7C849.4 242.7 849.6 242.9 849.9 243.3C850 243.5 850.2 243.8 850.4 244C850.5 244.1 850.6 244.3 850.7 244.5C850.8 244.7 850.7 244.8 850.7 245C850.7 246.4 850.7 248.3 850.7 250.2C850.7 252.1 850.7 254 850.7 255.4C850.7 255.5 850.7 255.6 850.7 255.7C850.7 255.8 850.7 255.9 850.7 255.9C850.6 256.1 850.5 256.2 850.4 256.4C850.2 256.7 850.1 256.9 849.9 257.1C849.6 257.5 849.4 257.7 849.4 257.7C849.4 257.7 849.2 257.5 848.9 257.1C848.8 256.9 848.6 256.6 848.4 256.4C848.3 256.3 848.2 256.1 848.1 255.9C848 255.8 848 255.7 848.1 255.7C848.1 255.6 848.1 255.5 848.1 255.4C848.1 254 848.1 252.1 848.1 250.2C848.1 248.3 848.1 246.4 848.1 245C848.1 244.8 848 244.7 848.1 244.5C848.2 244.3 848.3 244.2 848.4 244C848.6 243.7 848.7 243.5 848.9 243.3C849.2 242.9 849.4 242.7 849.4 242.7Z" fill="#1D0EB1"/>
<path d="M849.9 216C850.6 216.6 851.2 217 851.2 218.2C851.2 219 850.4 219.8 850 220C849.8 220.1 849.7 220.4 849.7 220.6C849.8 220.8 849.9 220.9 850.1 220.9C850.2 220.9 850.2 220.9 850.3 220.9C851 220.6 852.1 219.5 852.1 218.3C852.1 216.7 851.2 216 850.5 215.4C849.9 214.9 849.4 214.5 849.4 213.6C849.4 212.3 850.6 211.6 850.9 211.6C851.1 211.6 851.4 211.4 851.4 211.1C851.4 210.8 851.2 210.6 850.9 210.6C850.2 210.6 848.5 211.6 848.5 213.5C848.4 214.8 849.2 215.4 849.9 216Z" fill="white"/>
<path d="M846.2 216.5C846.8 217 847.3 217.3 847.3 218.3C847.3 218.9 846.7 219.6 846.3 219.7C846.1 219.8 846 220.1 846 220.3C846.1 220.5 846.2 220.6 846.4 220.6C846.5 220.6 846.5 220.6 846.6 220.6C847.2 220.3 848.1 219.4 848.1 218.3C848.1 216.9 847.3 216.3 846.7 215.8C846.2 215.4 845.8 215.1 845.8 214.3C845.8 213.3 846.8 212.7 847 212.7C847.2 212.7 847.5 212.5 847.5 212.2C847.5 212 847.3 211.7 847 211.7C846.3 211.7 844.9 212.6 844.9 214.2C844.9 215.5 845.6 216 846.2 216.5Z" fill="white"/>
<path d="M858 222.7H855.5H842.3C842 222.7 841.7 223 841.7 223.3V231.7C841.7 232 842 232.3 842.3 232.3H856.3C856.6 232.3 856.9 232 856.9 231.7V229.5C857.3 229.6 857.6 229.7 858 229.7C860.1 229.7 861.7 228.2 861.7 226.3C861.7 224.2 860 222.7 858 222.7ZM858 229C857.6 229 857.2 228.9 856.9 228.8V223.3H858C859.7 223.3 861.1 224.6 861.1 226.1C861.1 227.7 859.7 229 858 229Z" fill="white"/>
<path d="M859.1 233.7H840C839.7 233.7 839.4 234 839.4 234.3C839.4 234.6 839.7 234.9 840 234.9H859.1C859.4 234.9 859.7 234.6 859.7 234.3C859.7 233.9 859.4 233.7 859.1 233.7Z" fill="white"/>
<path d="M1101.6 686.2C1112.48 686.2 1121.3 677.38 1121.3 666.5C1121.3 655.62 1112.48 646.8 1101.6 646.8C1090.72 646.8 1081.9 655.62 1081.9 666.5C1081.9 677.38 1090.72 686.2 1101.6 686.2Z" fill="#1D0EB1"/>
<path d="M1101.6 684C1101.6 684 1101.8 684.2 1102.1 684.6C1102.2 684.8 1102.4 685.1 1102.6 685.3C1102.7 685.4 1102.8 685.6 1102.9 685.8C1103 686 1102.9 686.1 1102.9 686.3C1102.9 687.7 1102.9 689.6 1102.9 691.5C1102.9 693.4 1102.9 695.3 1102.9 696.7C1102.9 696.8 1102.9 696.9 1102.9 697C1102.9 697.1 1102.9 697.2 1102.9 697.2C1102.8 697.4 1102.7 697.5 1102.6 697.7C1102.4 698 1102.3 698.2 1102.1 698.4C1101.8 698.8 1101.6 699 1101.6 699C1101.6 699 1101.4 698.8 1101.1 698.4C1101 698.2 1100.8 697.9 1100.6 697.7C1100.5 697.6 1100.4 697.4 1100.3 697.2C1100.2 697.1 1100.2 697 1100.3 697C1100.3 696.9 1100.3 696.8 1100.3 696.7C1100.3 695.3 1100.3 693.4 1100.3 691.5C1100.3 689.6 1100.3 687.7 1100.3 686.3C1100.3 686.1 1100.2 686 1100.3 685.8C1100.4 685.6 1100.5 685.5 1100.6 685.3C1100.8 685 1100.9 684.8 1101.1 684.6C1101.4 684.2 1101.6 684 1101.6 684Z" fill="#1D0EB1"/>
<path d="M1114.6 661.2C1114.1 660.6 1113.4 660.3 1113 660.2C1112.9 660.2 1112.7 660.1 1112.6 660.1H1107.3C1107 660.1 1106.7 660.2 1106.4 660.4L1101.4 664.1V663.5V663.4C1101.4 663.3 1101.3 663.1 1101.3 663C1101 662.3 1100.5 661.9 1099.9 661.8C1098.9 661.6 1098.2 662.2 1098.1 662.2C1097.5 662.7 1097.4 663.5 1097.4 663.7V667.1L1096.1 668.1C1096 668.1 1096 668.2 1095.9 668.2H1092.4C1092.2 668.2 1092.1 668.2 1092 668.3C1091.5 668.4 1090.4 668.9 1089.8 670.2C1089.2 671.6 1089.7 672.8 1089.8 673.2C1090.3 674.3 1091.2 674.8 1091.7 675C1091.9 675.1 1092 675.1 1092.2 675.1H1098.1C1098.4 675.1 1098.7 675 1099 674.8L1109.3 667.1C1109.4 667.1 1109.4 667 1109.5 667H1112.8C1112.9 667 1113 667 1113.1 667C1113.4 666.9 1113.7 666.8 1114 666.7C1115.1 666.1 1115.5 664.9 1115.5 664.4C1115.8 662.6 1114.8 661.4 1114.6 661.2ZM1114.4 664.1C1114.3 664.4 1114.1 665.3 1113.4 665.7C1113.2 665.8 1113.1 665.9 1112.9 665.9H1109.6C1109.3 665.9 1109 666 1108.7 666.2L1098.4 673.9C1098.3 673.9 1098.3 674 1098.2 674H1092.3H1092.2C1091.9 673.9 1091.2 673.5 1090.9 672.8C1090.8 672.6 1090.4 671.7 1090.9 670.8C1091.3 669.9 1092.1 669.6 1092.4 669.5H1092.5H1096C1096.3 669.5 1096.6 669.4 1096.9 669.2L1107.3 661.5C1107.4 661.5 1107.4 661.4 1107.5 661.4H1112.8H1112.9C1113.2 661.5 1113.6 661.7 1114 662.1C1113.8 662 1114.6 662.9 1114.4 664.1Z" fill="white"/>
<path d="M1099.4 661.7C1100.45 661.7 1101.3 660.849 1101.3 659.8C1101.3 658.751 1100.45 657.9 1099.4 657.9C1098.35 657.9 1097.5 658.751 1097.5 659.8C1097.5 660.849 1098.35 661.7 1099.4 661.7Z" fill="white"/>
<path d="M1184.7 594.5L1185.4 850.1H1343.5" stroke="#1D0EB1" stroke-width="1.3123" stroke-linecap="round" stroke-linejoin="round"/>
<path d="M1184.7 599.4C1187.41 599.4 1189.6 597.206 1189.6 594.5C1189.6 591.794 1187.41 589.6 1184.7 589.6C1181.99 589.6 1179.8 591.794 1179.8 594.5C1179.8 597.206 1181.99 599.4 1184.7 599.4Z" fill="#1D0EB1"/>
<path d="M943.5 394C943.5 394 943.7 394.2 944 394.6C944.1 394.8 944.3 395.1 944.5 395.3C944.6 395.4 944.7 395.6 944.8 395.8C944.9 396 944.8 396.1 944.8 396.3C944.8 397.7 944.8 399.6 944.8 401.5C944.8 403.4 944.8 405.3 944.8 406.7C944.8 406.8 944.8 406.9 944.8 407C944.8 407.1 944.8 407.2 944.8 407.2C944.7 407.4 944.6 407.5 944.5 407.7C944.3 408 944.2 408.2 944 408.4C943.7 408.8 943.5 409 943.5 409C943.5 409 943.3 408.8 943 408.4C942.9 408.2 942.7 407.9 942.5 407.7C942.4 407.6 942.3 407.4 942.2 407.2C942.1 407.1 942.1 407 942.2 407C942.2 406.9 942.2 406.8 942.2 406.7C942.2 405.3 942.2 403.4 942.2 401.5C942.2 399.6 942.2 397.7 942.2 396.3C942.2 396.1 942.1 396 942.2 395.8C942.3 395.6 942.4 395.5 942.5 395.3C942.7 395 942.8 394.8 943 394.6C943.3 394.3 943.5 394 943.5 394Z" fill="#1D0EB1"/>
<path d="M944 396.8C955.211 396.8 964.3 387.711 964.3 376.5C964.3 365.289 955.211 356.2 944 356.2C932.788 356.2 923.7 365.289 923.7 376.5C923.7 387.711 932.788 396.8 944 396.8Z" fill="#CF496E"/>
<path d="M943.5 356.8C954.4 356.8 963.2 365.6 963.2 376.5C963.2 387.4 954.4 396.2 943.5 396.2C932.6 396.2 923.8 387.4 923.8 376.5C923.8 365.6 932.6 356.8 943.5 356.8ZM943.5 355.3C931.8 355.3 922.3 364.8 922.3 376.5C922.3 388.2 931.8 397.7 943.5 397.7C955.2 397.7 964.7 388.2 964.7 376.5C964.7 364.8 955.2 355.3 943.5 355.3Z" fill="#1D0EB1"/>
<path d="M935.7 373.5C935.8 372.4 936.2 371.5 936.8 370.6C937.4 369.7 938.4 369 939.7 368.5C941 368 942.5 367.7 944.3 367.7C945.8 367.7 947.2 367.9 948.3 368.3C949.4 368.7 950.3 369.2 951 369.9C951.6 370.6 951.9 371.4 951.9 372.4C951.9 373.1 951.7 373.8 951.2 374.4C950.7 375 950 375.5 949.1 375.9C948.1 376.3 946.9 376.4 945.3 376.4V375.9C946.8 375.8 948 375.9 949 376.2C950 376.5 950.8 376.9 951.4 377.5C952 378.1 952.2 378.9 952.2 379.8C952.2 380.8 951.9 381.7 951.2 382.5C950.5 383.3 949.6 383.9 948.4 384.3C947.2 384.7 945.6 385 943.9 385C942.2 385 940.7 384.8 939.4 384.3C938.1 383.8 937.1 383.1 936.4 382.3C935.7 381.4 935.3 380.4 935.3 379.2H939.9C940 379.9 940.4 380.5 941.1 380.9C941.8 381.3 942.7 381.5 944 381.5C945.2 381.5 946.1 381.3 946.7 381C947.3 380.6 947.6 380.1 947.6 379.5C947.6 379.1 947.5 378.8 947.3 378.6C947.1 378.3 946.7 378.2 946.2 378C945.7 377.9 945 377.8 944.1 377.8H941.2V374.7H944.1C945.3 374.7 946.1 374.5 946.6 374.2C947.1 373.9 947.3 373.5 947.3 373C947.3 372.4 947 372 946.5 371.7C946 371.4 945.1 371.2 944.1 371.2C942.9 371.2 942.1 371.4 941.4 371.8C940.8 372.2 940.4 372.7 940.3 373.4H935.7V373.5Z" fill="white"/>
<path d="M1178.4 454.9C1178.4 454.9 1178.6 455.1 1178.9 455.5C1179 455.7 1179.2 456 1179.4 456.2C1179.5 456.3 1179.6 456.5 1179.7 456.7C1179.8 456.9 1179.7 457 1179.7 457.2C1179.7 458.6 1179.7 460.5 1179.7 462.4C1179.7 464.3 1179.7 466.2 1179.7 467.6C1179.7 467.7 1179.7 467.8 1179.7 467.9C1179.7 468 1179.7 468.1 1179.7 468.1C1179.6 468.3 1179.5 468.4 1179.4 468.6C1179.2 468.9 1179.1 469.1 1178.9 469.3C1178.6 469.7 1178.4 469.9 1178.4 469.9C1178.4 469.9 1178.2 469.7 1177.9 469.3C1177.8 469.1 1177.6 468.8 1177.4 468.6C1177.3 468.5 1177.2 468.3 1177.1 468.1C1177 468 1177 467.9 1177.1 467.9C1177.1 467.8 1177.1 467.7 1177.1 467.6C1177.1 466.2 1177.1 464.3 1177.1 462.4C1177.1 460.5 1177.1 458.6 1177.1 457.2C1177.1 457 1177 456.9 1177.1 456.7C1177.2 456.5 1177.3 456.4 1177.4 456.2C1177.6 455.9 1177.7 455.7 1177.9 455.5C1178.2 455.1 1178.4 454.9 1178.4 454.9Z" fill="#1D0EB1"/>
<path d="M1179.4 457.7C1190.61 457.7 1199.7 448.611 1199.7 437.4C1199.7 426.189 1190.61 417.1 1179.4 417.1C1168.19 417.1 1159.1 426.189 1159.1 437.4C1159.1 448.611 1168.19 457.7 1179.4 457.7Z" fill="#9A7DEC"/>
<path d="M1179.4 417.7C1190.3 417.7 1199.1 426.5 1199.1 437.4C1199.1 448.3 1190.3 457.1 1179.4 457.1C1168.5 457.1 1159.7 448.3 1159.7 437.4C1159.7 426.5 1168.5 417.7 1179.4 417.7ZM1179.4 416.2C1167.7 416.2 1158.2 425.7 1158.2 437.4C1158.2 449.1 1167.7 458.6 1179.4 458.6C1191.1 458.6 1200.6 449.1 1200.6 437.4C1200.6 425.7 1191 416.2 1179.4 416.2Z" fill="#1D0EB1"/>
<path d="M1173.1 429H1186.1V432.4H1174.4L1176.2 431.6L1175.3 437.6H1174.2C1174.5 437 1175 436.5 1175.5 436.1C1176.1 435.6 1176.8 435.3 1177.6 435C1178.4 434.7 1179.4 434.6 1180.5 434.6C1181.9 434.6 1183.1 434.8 1184.2 435.3C1185.2 435.8 1186 436.4 1186.6 437.2C1187.2 438 1187.4 439 1187.4 440.1C1187.4 441.3 1187.1 442.3 1186.4 443.2C1185.8 444.1 1184.8 444.8 1183.6 445.3C1182.4 445.8 1180.9 446.1 1179.2 446.1C1177.6 446.1 1176.1 445.9 1174.9 445.4C1173.7 444.9 1172.7 444.3 1172 443.4C1171.3 442.6 1170.9 441.7 1170.8 440.6H1175.4C1175.5 441.2 1175.9 441.6 1176.6 442C1177.3 442.3 1178.1 442.5 1179.2 442.5C1179.9 442.5 1180.6 442.4 1181.1 442.2C1181.6 442 1182 441.7 1182.3 441.4C1182.6 441 1182.7 440.6 1182.7 440.1C1182.7 439.6 1182.6 439.2 1182.3 438.8C1182 438.4 1181.7 438.1 1181.2 437.9C1180.7 437.7 1180.1 437.6 1179.3 437.6C1178.7 437.6 1178.1 437.7 1177.6 437.8C1177.1 437.9 1176.7 438.1 1176.3 438.3C1175.9 438.5 1175.6 438.7 1175.4 439H1171.4L1173.1 429Z" fill="white"/>
<path d="M1259.8 533.5C1259.8 533.5 1260 533.7 1260.3 534.1C1260.4 534.3 1260.6 534.6 1260.8 534.8C1260.9 534.9 1261 535.1 1261.1 535.3C1261.2 535.5 1261.1 535.6 1261.1 535.8C1261.1 537.2 1261.1 539.1 1261.1 541C1261.1 542.9 1261.1 544.8 1261.1 546.2C1261.1 546.3 1261.1 546.4 1261.1 546.5C1261.1 546.6 1261.1 546.7 1261.1 546.7C1261 546.9 1260.9 547 1260.8 547.2C1260.6 547.5 1260.5 547.7 1260.3 547.9C1260 548.3 1259.8 548.5 1259.8 548.5C1259.8 548.5 1259.6 548.3 1259.3 547.9C1259.2 547.7 1259 547.4 1258.8 547.2C1258.7 547.1 1258.6 546.9 1258.5 546.7C1258.4 546.6 1258.4 546.5 1258.5 546.5C1258.5 546.4 1258.5 546.3 1258.5 546.2C1258.5 544.8 1258.5 542.9 1258.5 541C1258.5 539.1 1258.5 537.2 1258.5 535.8C1258.5 535.6 1258.4 535.5 1258.5 535.3C1258.6 535.1 1258.7 535 1258.8 534.8C1259 534.5 1259.1 534.3 1259.3 534.1C1259.6 533.8 1259.8 533.5 1259.8 533.5Z" fill="#1D0EB1"/>
<path d="M1260.3 536.3C1271.51 536.3 1280.6 527.211 1280.6 516C1280.6 504.789 1271.51 495.7 1260.3 495.7C1249.09 495.7 1240 504.789 1240 516C1240 527.211 1249.09 536.3 1260.3 536.3Z" fill="#A0DCD2"/>
<path d="M1259.8 496.3C1270.7 496.3 1279.5 505.1 1279.5 516C1279.5 526.9 1270.7 535.7 1259.8 535.7C1248.9 535.7 1240.1 526.9 1240.1 516C1240.1 505.1 1248.9 496.3 1259.8 496.3ZM1259.8 494.8C1248.1 494.8 1238.6 504.3 1238.6 516C1238.6 527.7 1248.1 537.2 1259.8 537.2C1271.5 537.2 1281 527.7 1281 516C1281 504.3 1271.5 494.8 1259.8 494.8Z" fill="#1D0EB1"/>
<path d="M1260.7 507.3C1262.1 507.3 1263.4 507.5 1264.5 508C1265.6 508.4 1266.5 509 1267.2 509.8C1267.9 510.5 1268.3 511.4 1268.5 512.3H1264.2C1264 511.9 1263.6 511.5 1263.1 511.2C1262.6 510.9 1261.8 510.7 1260.8 510.7C1259.7 510.7 1258.8 510.9 1258.1 511.3C1257.4 511.7 1256.8 512.3 1256.5 513C1256.2 513.8 1256 514.7 1256 515.8C1256 517 1256.2 518 1256.6 518.8C1257 519.6 1257.5 520.2 1258.3 520.6C1259 521 1259.9 521.2 1261 521.2C1261.7 521.2 1262.3 521.1 1262.8 520.9C1263.3 520.7 1263.7 520.4 1263.9 520.1C1264.2 519.8 1264.3 519.4 1264.3 519C1264.3 518.6 1264.2 518.2 1263.9 517.8C1263.7 517.5 1263.3 517.2 1262.8 517C1262.3 516.8 1261.7 516.7 1261 516.7C1260.1 516.7 1259.1 516.9 1258.3 517.3C1257.4 517.7 1256.7 518.3 1255.9 519.1L1254.3 518C1254.8 517.1 1255.4 516.3 1256.1 515.5C1256.8 514.8 1257.7 514.2 1258.7 513.8C1259.7 513.4 1260.8 513.2 1262.1 513.2C1263.5 513.2 1264.7 513.4 1265.7 513.9C1266.7 514.4 1267.5 515 1268 515.8C1268.5 516.6 1268.8 517.6 1268.8 518.6C1268.8 519.7 1268.5 520.7 1267.9 521.6C1267.3 522.5 1266.4 523.2 1265.2 523.7C1264 524.2 1262.6 524.4 1260.8 524.4C1258.8 524.4 1257.1 524 1255.7 523.3C1254.3 522.6 1253.3 521.5 1252.7 520.2C1252 518.9 1251.7 517.4 1251.7 515.7C1251.7 514 1252 512.5 1252.7 511.2C1253.4 509.9 1254.4 508.9 1255.7 508.1C1257.1 507.7 1258.7 507.3 1260.7 507.3Z" fill="white"/>
<path d="M1204.1 555.7C1204.1 555.7 1204.3 555.9 1204.6 556.3C1204.7 556.5 1204.9 556.8 1205.1 557C1205.2 557.1 1205.3 557.3 1205.4 557.5C1205.5 557.7 1205.4 557.8 1205.4 558C1205.4 559.4 1205.4 561.3 1205.4 563.2C1205.4 565.1 1205.4 567 1205.4 568.4C1205.4 568.5 1205.4 568.6 1205.4 568.7C1205.4 568.8 1205.4 568.9 1205.4 568.9C1205.3 569.1 1205.2 569.2 1205.1 569.4C1204.9 569.7 1204.8 569.9 1204.6 570.1C1204.3 570.5 1204.1 570.7 1204.1 570.7C1204.1 570.7 1203.9 570.5 1203.6 570.1C1203.5 569.9 1203.3 569.6 1203.1 569.4C1203 569.3 1202.9 569.1 1202.8 568.9C1202.7 568.8 1202.7 568.7 1202.8 568.7C1202.8 568.6 1202.8 568.5 1202.8 568.4C1202.8 567 1202.8 565.1 1202.8 563.2C1202.8 561.3 1202.8 559.4 1202.8 558C1202.8 557.8 1202.7 557.7 1202.8 557.5C1202.9 557.3 1203 557.2 1203.1 557C1203.3 556.7 1203.4 556.5 1203.6 556.3C1203.9 555.9 1204.1 555.7 1204.1 555.7Z" fill="#1D0EB1"/>
<path d="M1204.5 558.4C1215.71 558.4 1224.8 549.311 1224.8 538.1C1224.8 526.889 1215.71 517.8 1204.5 517.8C1193.29 517.8 1184.2 526.889 1184.2 538.1C1184.2 549.311 1193.29 558.4 1204.5 558.4Z" fill="#A5D5CD"/>
<path d="M1204.1 558.6C1192.8 558.6 1183.7 549.4 1183.7 538.2C1183.7 527 1192.9 517.8 1204.1 517.8C1215.3 517.8 1224.5 527 1224.5 538.2C1224.5 549.4 1215.3 558.6 1204.1 558.6Z" fill="#A0DCD2"/>
<path d="M1204.1 518.5C1215 518.5 1223.8 527.3 1223.8 538.2C1223.8 549.1 1215 557.9 1204.1 557.9C1193.2 557.9 1184.4 549.1 1184.4 538.2C1184.4 527.3 1193.2 518.5 1204.1 518.5ZM1204.1 517C1192.4 517 1182.9 526.5 1182.9 538.2C1182.9 549.9 1192.4 559.4 1204.1 559.4C1215.8 559.4 1225.3 549.9 1225.3 538.2C1225.3 526.5 1215.7 517 1204.1 517Z" fill="#1D0EB1"/>
<path d="M1198.9 546.5L1208.1 532.2V533.5H1196.5V529.9H1212.3V533.6L1204.2 546.6H1198.9V546.5Z" fill="white"/>
<path d="M1146.6 580.3C1146.6 580.3 1146.8 580.5 1147.1 580.9C1147.2 581.1 1147.4 581.4 1147.6 581.6C1147.7 581.7 1147.8 581.9 1147.9 582.1C1148 582.3 1147.9 582.4 1147.9 582.6C1147.9 584 1147.9 585.9 1147.9 587.8C1147.9 589.7 1147.9 591.6 1147.9 593C1147.9 593.1 1147.9 593.2 1147.9 593.3C1147.9 593.4 1147.9 593.5 1147.9 593.5C1147.8 593.7 1147.7 593.8 1147.6 594C1147.4 594.3 1147.3 594.5 1147.1 594.7C1146.8 595.1 1146.6 595.3 1146.6 595.3C1146.6 595.3 1146.4 595.1 1146.1 594.7C1146 594.5 1145.8 594.2 1145.6 594C1145.5 593.9 1145.4 593.7 1145.3 593.5C1145.2 593.4 1145.2 593.3 1145.3 593.3C1145.3 593.2 1145.3 593.1 1145.3 593C1145.3 591.6 1145.3 589.7 1145.3 587.8C1145.3 585.9 1145.3 584 1145.3 582.6C1145.3 582.4 1145.2 582.3 1145.3 582.1C1145.4 581.9 1145.5 581.8 1145.6 581.6C1145.8 581.3 1145.9 581.1 1146.1 580.9C1146.4 580.6 1146.6 580.3 1146.6 580.3Z" fill="#1D0EB1"/>
<path d="M1147.1 583.1C1158.31 583.1 1167.4 574.011 1167.4 562.8C1167.4 551.589 1158.31 542.5 1147.1 542.5C1135.89 542.5 1126.8 551.589 1126.8 562.8C1126.8 574.011 1135.89 583.1 1147.1 583.1Z" fill="#1D0EB1"/>
<path d="M1146.6 543.1C1157.5 543.1 1166.3 551.9 1166.3 562.8C1166.3 573.7 1157.5 582.5 1146.6 582.5C1135.7 582.5 1126.9 573.7 1126.9 562.8C1126.9 551.9 1135.7 543.1 1146.6 543.1ZM1146.6 541.6C1134.9 541.6 1125.4 551.1 1125.4 562.8C1125.4 574.5 1134.9 584 1146.6 584C1158.3 584 1167.8 574.5 1167.8 562.8C1167.8 551.1 1158.3 541.6 1146.6 541.6Z" fill="#1D0EB1"/>
<path d="M1146.2 554.1C1148.9 554.1 1151 554.5 1152.5 555.4C1154 556.2 1154.7 557.4 1154.7 558.9C1154.7 560.2 1154.1 561.2 1152.8 561.9C1151.5 562.6 1149.8 562.9 1147.5 562.8V562.4C1149.9 562.2 1151.8 562.5 1153.1 563.2C1154.4 563.9 1155.1 565 1155.1 566.6C1155.1 568.2 1154.3 569.4 1152.8 570.3C1151.3 571.2 1149 571.6 1146.1 571.6C1143.2 571.6 1141 571.2 1139.4 570.3C1137.9 569.4 1137.1 568.2 1137.1 566.6C1137.1 565.1 1137.8 563.9 1139.1 563.2C1140.5 562.5 1142.3 562.2 1144.8 562.4V562.8C1142.5 562.9 1140.8 562.6 1139.5 561.9C1138.2 561.2 1137.6 560.2 1137.6 558.9C1137.6 557.4 1138.3 556.2 1139.8 555.4C1141.3 554.5 1143.4 554.1 1146.2 554.1ZM1146.2 568C1147.6 568 1148.7 567.8 1149.4 567.5C1150.1 567.2 1150.5 566.7 1150.5 566.1C1150.5 565.5 1150.1 565 1149.4 564.7C1148.7 564.4 1147.6 564.2 1146.2 564.2C1144.8 564.2 1143.7 564.4 1143 564.7C1142.3 565 1141.9 565.5 1141.9 566.1C1141.9 566.7 1142.3 567.2 1143 567.5C1143.7 567.8 1144.7 568 1146.2 568ZM1146.2 561.1C1147 561.1 1147.8 561 1148.3 560.9C1148.9 560.8 1149.3 560.6 1149.6 560.3C1149.9 560 1150.1 559.7 1150.1 559.3C1150.1 558.8 1149.8 558.3 1149.1 558C1148.4 557.7 1147.5 557.6 1146.2 557.6C1145 557.6 1144 557.7 1143.3 558C1142.6 558.3 1142.3 558.7 1142.3 559.3C1142.3 559.7 1142.4 560 1142.7 560.3C1143 560.6 1143.4 560.8 1144 560.9C1144.6 561 1145.3 561.1 1146.2 561.1Z" fill="white"/>
<path d="M1088.7 607C1088.7 607 1088.9 607.2 1089.2 607.6C1089.3 607.8 1089.5 608.1 1089.7 608.3C1089.8 608.4 1089.9 608.6 1090 608.8C1090.1 609 1090 609.1 1090 609.3C1090 610.7 1090 612.6 1090 614.5C1090 616.4 1090 618.3 1090 619.7C1090 619.8 1090 619.9 1090 620C1090 620.1 1090 620.2 1090 620.2C1089.9 620.4 1089.8 620.5 1089.7 620.7C1089.5 621 1089.4 621.2 1089.2 621.4C1088.9 621.8 1088.7 622 1088.7 622C1088.7 622 1088.5 621.8 1088.2 621.4C1088.1 621.2 1087.9 620.9 1087.7 620.7C1087.6 620.6 1087.5 620.4 1087.4 620.2C1087.3 620.1 1087.3 620 1087.4 620C1087.4 619.9 1087.4 619.8 1087.4 619.7C1087.4 618.3 1087.4 616.4 1087.4 614.5C1087.4 612.6 1087.4 610.7 1087.4 609.3C1087.4 609.1 1087.3 609 1087.4 608.8C1087.5 608.6 1087.6 608.5 1087.7 608.3C1087.9 608 1088 607.8 1088.2 607.6C1088.6 607.2 1088.7 607 1088.7 607Z" fill="#1D0EB1"/>
<path d="M1089.2 609.8C1100.41 609.8 1109.5 600.711 1109.5 589.5C1109.5 578.289 1100.41 569.2 1089.2 569.2C1077.99 569.2 1068.9 578.289 1068.9 589.5C1068.9 600.711 1077.99 609.8 1089.2 609.8Z" fill="#70C083"/>
<path d="M1088.7 569.8C1099.6 569.8 1108.4 578.6 1108.4 589.5C1108.4 600.4 1099.6 609.2 1088.7 609.2C1077.8 609.2 1069 600.4 1069 589.5C1069.1 578.6 1077.9 569.8 1088.7 569.8ZM1088.7 568.3C1077 568.3 1067.5 577.8 1067.5 589.5C1067.5 601.2 1077 610.7 1088.7 610.7C1100.4 610.7 1109.9 601.2 1109.9 589.5C1109.9 577.8 1100.4 568.3 1088.7 568.3Z" fill="#1D0EB1"/>
<path d="M1088.8 598.2C1087.4 598.2 1086.1 598 1085 597.5C1083.9 597.1 1083 596.5 1082.3 595.7C1081.6 594.9 1081.2 594.1 1081 593.2H1085.2C1085.4 593.6 1085.8 594 1086.3 594.3C1086.8 594.6 1087.6 594.8 1088.6 594.8C1089.7 594.8 1090.6 594.6 1091.3 594.2C1092 593.8 1092.5 593.2 1092.9 592.4C1093.2 591.6 1093.4 590.7 1093.4 589.6C1093.4 588.4 1093.2 587.4 1092.8 586.6C1092.4 585.8 1091.9 585.2 1091.1 584.8C1090.4 584.4 1089.5 584.2 1088.4 584.2C1087.7 584.2 1087 584.3 1086.6 584.5C1086.1 584.7 1085.7 585 1085.5 585.3C1085.2 585.6 1085.1 586 1085.1 586.5C1085.1 586.9 1085.2 587.3 1085.5 587.7C1085.8 588.1 1086.1 588.3 1086.6 588.5C1087.1 588.7 1087.7 588.8 1088.4 588.8C1089.3 588.8 1090.3 588.6 1091.1 588.2C1092 587.8 1092.7 587.2 1093.4 586.4L1095 587.5C1094.6 588.4 1094 589.2 1093.2 590C1092.5 590.7 1091.6 591.3 1090.6 591.7C1089.6 592.1 1088.5 592.3 1087.2 592.3C1085.8 592.3 1084.6 592.1 1083.6 591.6C1082.6 591.1 1081.8 590.5 1081.3 589.7C1080.8 588.9 1080.5 587.9 1080.5 586.9C1080.5 585.8 1080.8 584.8 1081.5 583.9C1082.1 583 1083 582.3 1084.2 581.8C1085.4 581.3 1086.9 581.1 1088.6 581.1C1090.6 581.1 1092.3 581.5 1093.7 582.2C1095.1 582.9 1096.1 584 1096.8 585.3C1097.5 586.6 1097.8 588.1 1097.8 589.8C1097.8 591.5 1097.5 593 1096.8 594.3C1096.1 595.6 1095.1 596.6 1093.8 597.4C1092.4 597.8 1090.7 598.2 1088.8 598.2Z" fill="white"/>
<path d="M1019.7 555.1C1019.7 555.1 1019.9 555.3 1020.2 555.7C1020.3 555.9 1020.5 556.2 1020.7 556.4C1020.8 556.5 1020.9 556.7 1021 556.9C1021.1 557.1 1021 557.2 1021 557.4C1021 558.8 1021 560.7 1021 562.6C1021 564.5 1021 566.4 1021 567.8C1021 567.9 1021 568 1021 568.1C1021 568.2 1021 568.3 1021 568.3C1020.9 568.5 1020.8 568.6 1020.7 568.8C1020.5 569.1 1020.4 569.3 1020.2 569.5C1019.9 569.9 1019.7 570.1 1019.7 570.1C1019.7 570.1 1019.5 569.9 1019.2 569.5C1019.1 569.3 1018.9 569 1018.7 568.8C1018.6 568.7 1018.5 568.5 1018.4 568.3C1018.3 568.2 1018.3 568.1 1018.4 568.1C1018.4 568 1018.4 567.9 1018.4 567.8C1018.4 566.4 1018.4 564.5 1018.4 562.6C1018.4 560.7 1018.4 558.8 1018.4 557.4C1018.4 557.2 1018.3 557.1 1018.4 556.9C1018.5 556.7 1018.6 556.6 1018.7 556.4C1018.9 556.1 1019 555.9 1019.2 555.7C1019.5 555.3 1019.7 555.1 1019.7 555.1Z" fill="#1D0EB1"/>
<path d="M1020.1 557.8C1031.31 557.8 1040.4 548.711 1040.4 537.5C1040.4 526.289 1031.31 517.2 1020.1 517.2C1008.89 517.2 999.8 526.289 999.8 537.5C999.8 548.711 1008.89 557.8 1020.1 557.8Z" fill="#70C083"/>
<path d="M1019.7 517.8C1030.6 517.8 1039.4 526.6 1039.4 537.5C1039.4 548.4 1030.6 557.2 1019.7 557.2C1008.8 557.2 1000 548.4 1000 537.5C1000 526.6 1008.8 517.8 1019.7 517.8ZM1019.7 516.4C1008 516.4 998.5 525.9 998.5 537.6C998.5 549.3 1008 558.8 1019.7 558.8C1031.4 558.8 1040.9 549.3 1040.9 537.6C1040.9 525.9 1031.4 516.4 1019.7 516.4Z" fill="#1D0EB1"/>
<path d="M1014 529.2V545.9H1009.4V530.8L1011.5 532.8L1004.3 534.1V530.5L1010.5 529.2H1014Z" fill="white"/>
<path d="M1025.9 546.2C1024 546.2 1022.4 545.8 1020.9 545.1C1019.4 544.4 1018.4 543.4 1017.6 542.1C1016.8 540.8 1016.5 539.3 1016.5 537.5C1016.5 535.7 1016.9 534.2 1017.6 532.9C1018.4 531.6 1019.4 530.6 1020.9 529.9C1022.4 529.2 1024 528.8 1025.9 528.8C1027.8 528.8 1029.4 529.2 1030.8 529.9C1032.2 530.6 1033.3 531.6 1034.1 532.9C1034.9 534.2 1035.3 535.7 1035.3 537.5C1035.3 539.3 1034.9 540.8 1034.1 542.1C1033.3 543.4 1032.2 544.4 1030.8 545.1C1029.5 545.9 1027.8 546.2 1025.9 546.2ZM1025.9 542.5C1027.4 542.5 1028.6 542.1 1029.4 541.2C1030.2 540.3 1030.6 539.1 1030.6 537.5C1030.6 535.9 1030.2 534.7 1029.4 533.8C1028.6 532.9 1027.4 532.5 1025.9 532.5C1024.4 532.5 1023.2 532.9 1022.4 533.8C1021.6 534.7 1021.1 535.9 1021.1 537.5C1021.1 539.1 1021.5 540.3 1022.4 541.2C1023.3 542.1 1024.4 542.5 1025.9 542.5Z" fill="white"/>
<path d="M955.5 530.6C955.5 530.6 955.7 530.8 956 531.2C956.1 531.4 956.3 531.7 956.5 531.9C956.6 532 956.7 532.2 956.8 532.4C956.9 532.6 956.8 532.7 956.8 532.9C956.8 534.3 956.8 536.2 956.8 538.1C956.8 540 956.8 541.9 956.8 543.3C956.8 543.4 956.8 543.5 956.8 543.6C956.8 543.7 956.8 543.8 956.8 543.8C956.7 544 956.6 544.1 956.5 544.3C956.3 544.6 956.2 544.8 956 545C955.7 545.4 955.5 545.6 955.5 545.6C955.5 545.6 955.3 545.4 955 545C954.9 544.8 954.7 544.5 954.5 544.3C954.4 544.2 954.3 544 954.2 543.8C954.1 543.7 954.1 543.6 954.2 543.6C954.2 543.5 954.2 543.4 954.2 543.3C954.2 541.9 954.2 540 954.2 538.1C954.2 536.2 954.2 534.3 954.2 532.9C954.2 532.7 954.1 532.6 954.2 532.4C954.3 532.2 954.4 532.1 954.5 531.9C954.7 531.6 954.8 531.4 955 531.2C955.3 530.8 955.5 530.6 955.5 530.6Z" fill="#1D0EB1"/>
<path d="M955.9 533.3C967.111 533.3 976.2 524.211 976.2 513C976.2 501.789 967.111 492.7 955.9 492.7C944.689 492.7 935.6 501.789 935.6 513C935.6 524.211 944.689 533.3 955.9 533.3Z" fill="#FEC031"/>
<path d="M955.5 493.4C966.4 493.4 975.2 502.2 975.2 513.1C975.2 524 966.4 532.8 955.5 532.8C944.6 532.8 935.8 524 935.8 513.1C935.8 502.2 944.6 493.4 955.5 493.4ZM955.5 491.9C943.8 491.9 934.3 501.4 934.3 513.1C934.3 524.8 943.8 534.3 955.5 534.3C967.2 534.3 976.7 524.8 976.7 513.1C976.7 501.4 967.1 491.9 955.5 491.9Z" fill="#1D0EB1"/>
<path d="M954.3 504.7V521.4H949.7V506.3L951.8 508.3L944.6 509.6V506L950.8 504.7H954.3Z" fill="white"/>
<path d="M965.8 504.7V521.4H961.2V506.3L963.3 508.3L956.1 509.6V506L962.3 504.7H965.8Z" fill="white"/>
<path d="M1074.5 493.9C1074.5 493.9 1074.7 494.1 1075 494.5C1075.1 494.7 1075.3 495 1075.5 495.2C1075.6 495.3 1075.7 495.5 1075.8 495.7C1075.9 495.9 1075.8 496 1075.8 496.2C1075.8 497.6 1075.8 499.5 1075.8 501.4C1075.8 503.3 1075.8 505.2 1075.8 506.6C1075.8 506.7 1075.8 506.8 1075.8 506.9C1075.8 507 1075.8 507.1 1075.8 507.1C1075.7 507.3 1075.6 507.4 1075.5 507.6C1075.3 507.9 1075.2 508.1 1075 508.3C1074.7 508.7 1074.5 508.9 1074.5 508.9C1074.5 508.9 1074.3 508.7 1074 508.3C1073.9 508.1 1073.7 507.8 1073.5 507.6C1073.4 507.5 1073.3 507.3 1073.2 507.1C1073.1 507 1073.1 506.9 1073.2 506.9C1073.2 506.8 1073.2 506.7 1073.2 506.6C1073.2 505.2 1073.2 503.3 1073.2 501.4C1073.2 499.5 1073.2 497.6 1073.2 496.2C1073.2 496 1073.1 495.9 1073.2 495.7C1073.3 495.5 1073.4 495.4 1073.5 495.2C1073.7 494.9 1073.8 494.7 1074 494.5C1074.3 494.1 1074.5 493.9 1074.5 493.9Z" fill="#1D0EB1"/>
<path d="M1075 496.6C1086.21 496.6 1095.3 487.511 1095.3 476.3C1095.3 465.089 1086.21 456 1075 456C1063.79 456 1054.7 465.089 1054.7 476.3C1054.7 487.511 1063.79 496.6 1075 496.6Z" fill="#E6789D"/>
<path d="M1074.5 456.6C1085.4 456.6 1094.2 465.4 1094.2 476.3C1094.2 487.2 1085.4 496 1074.5 496C1063.6 496 1054.8 487.2 1054.8 476.3C1054.8 465.4 1063.6 456.6 1074.5 456.6ZM1074.5 455.2C1062.8 455.2 1053.3 464.7 1053.3 476.4C1053.3 488.1 1062.8 497.6 1074.5 497.6C1086.2 497.6 1095.7 488.1 1095.7 476.4C1095.7 464.7 1086.2 455.2 1074.5 455.2Z" fill="#1D0EB1"/>
<path d="M1069.8 468V484.7H1065.2V469.6L1067.3 471.6L1060.1 472.9V469.3L1066.3 468H1069.8Z" fill="white"/>
<path d="M1072.5 473.4C1072.6 472.3 1073 471.4 1073.6 470.5C1074.2 469.6 1075.2 468.9 1076.5 468.4C1077.8 467.9 1079.3 467.6 1081.1 467.6C1082.6 467.6 1084 467.8 1085.1 468.2C1086.2 468.6 1087.1 469.1 1087.8 469.8C1088.4 470.5 1088.7 471.3 1088.7 472.3C1088.7 473 1088.5 473.7 1088 474.3C1087.5 474.9 1086.8 475.4 1085.9 475.8C1084.9 476.2 1083.7 476.3 1082.1 476.3V475.8C1083.6 475.7 1084.8 475.8 1085.8 476.1C1086.8 476.4 1087.6 476.8 1088.2 477.4C1088.8 478 1089 478.8 1089 479.7C1089 480.7 1088.7 481.6 1088 482.4C1087.3 483.2 1086.4 483.8 1085.2 484.2C1084 484.6 1082.4 484.9 1080.7 484.9C1079 484.9 1077.5 484.7 1076.2 484.2C1074.9 483.7 1073.9 483 1073.2 482.2C1072.5 481.3 1072.1 480.3 1072.1 479.1H1076.7C1076.8 479.8 1077.2 480.4 1077.9 480.8C1078.6 481.2 1079.5 481.4 1080.8 481.4C1082 481.4 1082.9 481.2 1083.5 480.9C1084.1 480.5 1084.4 480 1084.4 479.4C1084.4 479 1084.3 478.7 1084.1 478.5C1083.9 478.2 1083.5 478.1 1083 477.9C1082.5 477.8 1081.8 477.7 1080.9 477.7H1078V474.6H1080.9C1082.1 474.6 1082.9 474.4 1083.4 474.1C1083.9 473.8 1084.1 473.4 1084.1 472.9C1084.1 472.3 1083.8 471.9 1083.3 471.6C1082.8 471.3 1081.9 471.1 1080.9 471.1C1079.7 471.1 1078.9 471.3 1078.2 471.7C1077.6 472.1 1077.2 472.6 1077.1 473.3H1072.5V473.4Z" fill="white"/>
<path d="M1012.8 468.5C1012.8 468.5 1013 468.7 1013.3 469.1C1013.4 469.3 1013.6 469.6 1013.8 469.8C1013.9 469.9 1014 470.1 1014.1 470.3C1014.2 470.5 1014.1 470.6 1014.1 470.8C1014.1 472.2 1014.1 474.1 1014.1 476C1014.1 477.9 1014.1 479.8 1014.1 481.2C1014.1 481.3 1014.1 481.4 1014.1 481.5C1014.1 481.6 1014.1 481.7 1014.1 481.7C1014 481.9 1013.9 482 1013.8 482.2C1013.6 482.5 1013.5 482.7 1013.3 482.9C1013 483.3 1012.8 483.5 1012.8 483.5C1012.8 483.5 1012.6 483.3 1012.3 482.9C1012.2 482.7 1012 482.4 1011.8 482.2C1011.7 482.1 1011.6 481.9 1011.5 481.7C1011.4 481.6 1011.4 481.5 1011.5 481.5C1011.5 481.4 1011.5 481.3 1011.5 481.2C1011.5 479.8 1011.5 477.9 1011.5 476C1011.5 474.1 1011.5 472.2 1011.5 470.8C1011.5 470.6 1011.4 470.5 1011.5 470.3C1011.6 470.1 1011.7 470 1011.8 469.8C1012 469.5 1012.1 469.3 1012.3 469.1C1012.6 468.7 1012.8 468.5 1012.8 468.5Z" fill="#1D0EB1"/>
<path d="M1013.2 471.2C1024.41 471.2 1033.5 462.111 1033.5 450.9C1033.5 439.689 1024.41 430.6 1013.2 430.6C1001.99 430.6 992.9 439.689 992.9 450.9C992.9 462.111 1001.99 471.2 1013.2 471.2Z" fill="#80C2E2"/>
<path d="M1012.8 431.2C1023.7 431.2 1032.5 440 1032.5 450.9C1032.5 461.8 1023.7 470.6 1012.8 470.6C1001.9 470.6 993.1 461.8 993.1 450.9C993.1 440 1001.9 431.2 1012.8 431.2ZM1012.8 429.8C1001.1 429.8 991.6 439.3 991.6 451C991.6 462.7 1001.1 472.2 1012.8 472.2C1024.5 472.2 1034 462.7 1034 451C1034 439.3 1024.5 429.8 1012.8 429.8Z" fill="#1D0EB1"/>
<path d="M1008.1 442.6V459.3H1003.5V444.2L1005.6 446.2L998.4 447.5V443.9L1004.6 442.6H1008.1Z" fill="white"/>
<path d="M1010.5 448.6C1010.6 447.3 1011 446.2 1011.8 445.2C1012.6 444.2 1013.6 443.5 1014.9 443C1016.2 442.5 1017.6 442.2 1019.2 442.2C1020.7 442.2 1022.1 442.4 1023.2 442.9C1024.3 443.4 1025.2 444 1025.9 444.8C1026.6 445.6 1026.9 446.6 1026.9 447.7C1026.9 448.5 1026.7 449.3 1026.2 450.1C1025.7 450.8 1025 451.6 1024 452.3C1023 453 1021.7 453.7 1020.2 454.5L1015.6 456.8L1015.4 455.6H1027.3V459.2H1010.8V456L1018 452C1019.1 451.4 1020 450.8 1020.6 450.4C1021.2 450 1021.7 449.6 1021.9 449.2C1022.2 448.8 1022.3 448.4 1022.3 448C1022.3 447.5 1022.2 447.1 1021.9 446.8C1021.7 446.5 1021.3 446.2 1020.8 446C1020.3 445.8 1019.7 445.7 1019 445.7C1018.1 445.7 1017.4 445.8 1016.8 446.1C1016.2 446.4 1015.8 446.7 1015.5 447.1C1015.2 447.5 1015 448 1015 448.5H1010.5V448.6Z" fill="white"/>
<path d="M1022.2 396.9C1022.2 396.9 1022.4 397.1 1022.7 397.5C1022.8 397.7 1023 398 1023.2 398.2C1023.3 398.3 1023.4 398.5 1023.5 398.7C1023.6 398.9 1023.5 399 1023.5 399.2C1023.5 400.6 1023.5 402.5 1023.5 404.4C1023.5 406.3 1023.5 408.2 1023.5 409.6C1023.5 409.7 1023.5 409.8 1023.5 409.9C1023.5 410 1023.5 410.1 1023.5 410.1C1023.4 410.3 1023.3 410.4 1023.2 410.6C1023 410.9 1022.9 411.1 1022.7 411.3C1022.4 411.7 1022.2 411.9 1022.2 411.9C1022.2 411.9 1022 411.7 1021.7 411.3C1021.6 411.1 1021.4 410.8 1021.2 410.6C1021.1 410.5 1021 410.3 1020.9 410.1C1020.8 410 1020.8 409.9 1020.9 409.9C1020.9 409.8 1020.9 409.7 1020.9 409.6C1020.9 408.2 1020.9 406.3 1020.9 404.4C1020.9 402.5 1020.9 400.6 1020.9 399.2C1020.9 399 1020.8 398.9 1020.9 398.7C1021 398.5 1021.1 398.4 1021.2 398.2C1021.4 397.9 1021.5 397.7 1021.7 397.5C1022 397.2 1022.2 396.9 1022.2 396.9Z" fill="#1D0EB1"/>
<path d="M1022.6 399.7C1033.81 399.7 1042.9 390.611 1042.9 379.4C1042.9 368.189 1033.81 359.1 1022.6 359.1C1011.39 359.1 1002.3 368.189 1002.3 379.4C1002.3 390.611 1011.39 399.7 1022.6 399.7Z" fill="#80C2E2"/>
<path d="M1022.2 359.7C1033.1 359.7 1041.9 368.5 1041.9 379.4C1041.9 390.3 1033.1 399.1 1022.2 399.1C1011.3 399.1 1002.5 390.3 1002.5 379.4C1002.5 368.5 1011.3 359.7 1022.2 359.7ZM1022.2 358.2C1010.5 358.2 1001 367.7 1001 379.4C1001 391.1 1010.5 400.6 1022.2 400.6C1033.9 400.6 1043.4 391.1 1043.4 379.4C1043.4 367.7 1033.8 358.2 1022.2 358.2Z" fill="#1D0EB1"/>
<path d="M1028.8 371V387.7H1024.2V373H1025.6L1016.9 382.6V381.2H1031.4V384.6H1013.5V381.4L1022.9 371.1H1028.8V371Z" fill="white"/>
<path d="M895.9 446.5C895.9 446.5 896.1 446.7 896.4 447.1C896.5 447.3 896.7 447.6 896.9 447.8C897 447.9 897.1 448.1 897.2 448.3C897.3 448.5 897.2 448.6 897.2 448.8C897.2 450.2 897.2 452.1 897.2 454C897.2 455.9 897.2 457.8 897.2 459.2C897.2 459.3 897.2 459.4 897.2 459.5C897.2 459.6 897.2 459.7 897.2 459.7C897.1 459.9 897 460 896.9 460.2C896.7 460.5 896.6 460.7 896.4 460.9C896.1 461.3 895.9 461.5 895.9 461.5C895.9 461.5 895.7 461.3 895.4 460.9C895.3 460.7 895.1 460.4 894.9 460.2C894.8 460.1 894.7 459.9 894.6 459.7C894.5 459.6 894.5 459.5 894.6 459.5C894.6 459.4 894.6 459.3 894.6 459.2C894.6 457.8 894.6 455.9 894.6 454C894.6 452.1 894.6 450.2 894.6 448.8C894.6 448.6 894.5 448.5 894.6 448.3C894.7 448.1 894.8 448 894.9 447.8C895.1 447.5 895.2 447.3 895.4 447.1C895.8 446.8 895.9 446.5 895.9 446.5Z" fill="#1D0EB1"/>
<path d="M896.4 449.3C907.611 449.3 916.7 440.211 916.7 429C916.7 417.789 907.611 408.7 896.4 408.7C885.189 408.7 876.1 417.789 876.1 429C876.1 440.211 885.189 449.3 896.4 449.3Z" fill="#FEC031"/>
<path d="M895.9 409.3C906.8 409.3 915.6 418.1 915.6 429C915.6 439.9 906.8 448.7 895.9 448.7C885 448.7 876.2 439.9 876.2 429C876.2 418.1 885.1 409.3 895.9 409.3ZM895.9 407.8C884.2 407.8 874.7 417.3 874.7 429C874.7 440.7 884.2 450.2 895.9 450.2C907.6 450.2 917.1 440.7 917.1 429C917.1 417.3 907.6 407.8 895.9 407.8Z" fill="#1D0EB1"/>
<path d="M887.9 426.7C888 425.4 888.4 424.3 889.2 423.3C890 422.3 891 421.6 892.3 421.1C893.6 420.6 895 420.3 896.6 420.3C898.1 420.3 899.5 420.5 900.6 421C901.7 421.5 902.6 422.1 903.3 422.9C904 423.7 904.3 424.7 904.3 425.8C904.3 426.6 904.1 427.4 903.6 428.2C903.1 428.9 902.4 429.7 901.4 430.4C900.4 431.1 899.1 431.8 897.6 432.6L893 434.9L892.8 433.7H904.7V437.3H888.2V434.1L895.4 430.1C896.5 429.5 897.4 428.9 898 428.5C898.6 428.1 899.1 427.7 899.3 427.3C899.6 426.9 899.7 426.5 899.7 426.1C899.7 425.6 899.6 425.2 899.3 424.9C899.1 424.6 898.7 424.3 898.2 424.1C897.7 423.9 897.1 423.8 896.4 423.8C895.5 423.8 894.8 423.9 894.2 424.2C893.6 424.5 893.2 424.8 892.9 425.2C892.6 425.6 892.4 426.1 892.4 426.6H887.9V426.7Z" fill="white"/>
<path d="M844.5 498.8C844.5 498.8 844.7 499 845 499.4C845.1 499.6 845.3 499.9 845.5 500.1C845.6 500.2 845.7 500.4 845.8 500.6C845.9 500.8 845.8 500.9 845.8 501.1C845.8 502.5 845.8 504.4 845.8 506.3C845.8 508.2 845.8 510.1 845.8 511.5C845.8 511.6 845.8 511.7 845.8 511.8C845.8 511.9 845.8 512 845.8 512C845.7 512.2 845.6 512.3 845.5 512.5C845.3 512.8 845.2 513 845 513.2C844.7 513.6 844.5 513.8 844.5 513.8C844.5 513.8 844.3 513.6 844 513.2C843.9 513 843.7 512.7 843.5 512.5C843.4 512.4 843.3 512.2 843.2 512C843.1 511.9 843.1 511.8 843.2 511.8C843.2 511.7 843.2 511.6 843.2 511.5C843.2 510.1 843.2 508.2 843.2 506.3C843.2 504.4 843.2 502.5 843.2 501.1C843.2 500.9 843.1 500.8 843.2 500.6C843.3 500.4 843.4 500.3 843.5 500.1C843.7 499.8 843.8 499.6 844 499.4C844.3 499 844.5 498.8 844.5 498.8Z" fill="#1D0EB1"/>
<path d="M844.5 501.6C855.711 501.6 864.8 492.511 864.8 481.3C864.8 470.089 855.711 461 844.5 461C833.289 461 824.2 470.089 824.2 481.3C824.2 492.511 833.289 501.6 844.5 501.6Z" fill="#FEC031"/>
<path d="M844.2 461.6C855.1 461.6 863.9 470.4 863.9 481.3C863.9 492.2 855.1 501 844.2 501C833.3 501 824.5 492.2 824.5 481.3C824.5 470.4 833.3 461.6 844.2 461.6ZM844.2 460.1C832.5 460.1 823 469.6 823 481.3C823 493 832.5 502.5 844.2 502.5C855.9 502.5 865.4 493 865.4 481.3C865.4 469.6 855.9 460.1 844.2 460.1Z" fill="#1D0EB1"/>
<path d="M848.6 472.9V489.6H844V474.5L846.1 476.5L838.9 477.8V474.2L845.1 472.9H848.6Z" fill="white"/>
<path d="M1528.9 824.5H1344.9V874H1528.9V824.5Z" fill="#FB493B"/>
<path d="M1368.5 854.7L1359.5 839.1H1365L1372 851.3L1368.5 854.7ZM1365.3 857.1L1368.5 851.5H1368.6L1375.6 839.1H1381L1370.7 857.1H1365.3Z" fill="white"/>
<path d="M1380.5 843.4H1385.4V847.3L1385.2 847.9V851.7L1385.4 852.8V861H1380.5V843.4ZM1383.9 850.3C1384.1 848.8 1384.5 847.5 1385.2 846.4C1385.9 845.3 1386.7 844.5 1387.7 843.9C1388.7 843.3 1389.9 843 1391.2 843C1392.5 843 1393.7 843.3 1394.7 843.9C1395.7 844.5 1396.5 845.4 1397.1 846.4C1397.7 847.5 1398 848.8 1398 850.2C1398 851.6 1397.7 852.9 1397.1 854C1396.5 855.1 1395.7 855.9 1394.7 856.5C1393.7 857.1 1392.5 857.4 1391.2 857.4C1389.9 857.4 1388.7 857.1 1387.7 856.5C1386.7 855.9 1385.8 855.1 1385.2 854C1384.5 853 1384.1 851.7 1383.9 850.3ZM1393 850.3C1393 849.6 1392.9 849 1392.6 848.5C1392.3 848 1391.9 847.6 1391.4 847.3C1390.9 847 1390.3 846.8 1389.7 846.8C1389 846.8 1388.4 847 1387.8 847.3C1387.2 847.6 1386.7 848 1386.2 848.5C1385.8 849 1385.4 849.6 1385.2 850.3C1385.4 851 1385.8 851.6 1386.2 852.1C1386.6 852.6 1387.2 853 1387.8 853.3C1388.4 853.6 1389 853.7 1389.7 853.7C1390.3 853.7 1390.9 853.6 1391.4 853.3C1391.9 853 1392.3 852.6 1392.6 852.1C1392.9 851.6 1393 851 1393 850.3Z" fill="white"/>
<path d="M1408.2 857.5C1406.4 857.5 1404.9 857.2 1403.6 856.6C1402.3 856 1401.3 855.2 1400.5 854.1C1399.8 853 1399.4 851.7 1399.4 850.3C1399.4 848.8 1399.8 847.6 1400.5 846.5C1401.2 845.4 1402.3 844.6 1403.6 844C1404.9 843.4 1406.4 843.1 1408.2 843.1C1409.9 843.1 1411.5 843.4 1412.8 844C1414.1 844.6 1415.1 845.5 1415.9 846.5C1416.6 847.6 1417 848.9 1417 850.3C1417 851.7 1416.6 853 1415.9 854.1C1415.2 855.2 1414.1 856 1412.8 856.6C1411.5 857.2 1410 857.5 1408.2 857.5ZM1408.2 853.9C1409 853.9 1409.7 853.8 1410.3 853.5C1410.9 853.2 1411.3 852.8 1411.6 852.3C1411.9 851.8 1412.1 851.1 1412.1 850.4C1412.1 849.6 1411.9 849 1411.6 848.4C1411.3 847.9 1410.9 847.5 1410.3 847.2C1409.7 846.9 1409 846.8 1408.2 846.8C1407.4 846.8 1406.7 846.9 1406.1 847.2C1405.5 847.5 1405.1 847.9 1404.8 848.4C1404.5 848.9 1404.3 849.6 1404.3 850.3C1404.3 851.1 1404.5 851.7 1404.8 852.2C1405.1 852.7 1405.5 853.2 1406.1 853.4C1406.7 853.6 1407.4 853.9 1408.2 853.9Z" fill="white"/>
<path d="M1418.6 857.1L1419.5 850.2L1418.6 843.4H1429.8C1431.1 843.4 1432.2 843.7 1433 844.3C1433.8 844.9 1434.2 845.8 1434.2 846.8C1434.2 847.8 1433.8 848.6 1433 849.2C1432.2 849.8 1431.1 850.2 1429.7 850.3L1430 849.5C1431.6 849.6 1432.9 849.9 1433.7 850.5C1434.6 851.1 1435 852 1435 853.1C1435 854.3 1434.6 855.2 1433.7 855.9C1432.8 856.6 1431.6 857 1430.1 857H1418.6V857.1ZM1423.4 856.1L1421.5 854.1H1428.5C1429 854.1 1429.4 854 1429.7 853.8C1430 853.6 1430.1 853.2 1430.1 852.8C1430.1 852.4 1430 852.1 1429.7 851.9C1429.4 851.7 1429 851.5 1428.4 851.5H1422.5V849H1427.8C1428.3 849 1428.7 848.9 1428.9 848.7C1429.2 848.5 1429.3 848.2 1429.3 847.8C1429.3 847.4 1429.2 847.1 1429 846.9C1428.8 846.7 1428.4 846.6 1427.9 846.6H1421.6L1423.5 844.6L1424.3 850.4L1423.4 856.1Z" fill="white"/>
<path d="M1445 857.5C1443.3 857.5 1441.9 857.2 1440.5 856.6C1439.2 856 1438.2 855.1 1437.4 854C1436.6 852.9 1436.3 851.6 1436.3 850.2C1436.3 848.8 1436.7 847.5 1437.4 846.4C1438.1 845.3 1439.1 844.5 1440.4 843.9C1441.7 843.3 1443.1 843 1444.7 843C1446.3 843 1447.8 843.4 1448.9 844.1C1450 844.8 1451 845.8 1451.6 847.1C1452.2 848.4 1452.5 849.9 1452.5 851.7H1440.3V848.7H1449.7L1448.1 849.7C1448 849 1447.9 848.4 1447.6 847.9C1447.3 847.4 1446.9 847 1446.5 846.8C1446 846.5 1445.5 846.4 1444.8 846.4C1444.1 846.4 1443.5 846.5 1443 846.8C1442.5 847.1 1442.1 847.5 1441.8 848C1441.5 848.5 1441.4 849.1 1441.4 849.8C1441.4 850.7 1441.6 851.4 1442 852C1442.4 852.6 1443 853.1 1443.7 853.4C1444.5 853.7 1445.4 853.9 1446.5 853.9C1447.5 853.9 1448.5 853.8 1449.5 853.5C1450.5 853.2 1451.4 852.9 1452.2 852.4V855.5C1451.3 856.1 1450.2 856.6 1449 857C1447.7 857.3 1446.4 857.5 1445 857.5Z" fill="white"/>
<path d="M1454.6 843.4H1459.5V857.1H1454.6V843.4ZM1457.4 848.3H1467.8V851.9H1457.4V848.3ZM1466 843.4H1470.9V857.1H1466V843.4Z" fill="white"/>
<path d="M1473.6 857.1V843.4H1478.5V855.9L1477 853.7H1481.8C1482.4 853.7 1482.9 853.6 1483.2 853.3C1483.5 853 1483.7 852.6 1483.7 852C1483.7 851.5 1483.5 851.1 1483.2 850.8C1482.9 850.5 1482.4 850.4 1481.8 850.4H1476.9V847H1482.6C1483.8 847 1484.9 847.2 1485.8 847.6C1486.7 848 1487.4 848.6 1487.9 849.4C1488.4 850.2 1488.7 851 1488.7 852.1C1488.7 853.1 1488.4 854 1487.9 854.8C1487.4 855.6 1486.7 856.1 1485.8 856.6C1484.9 857 1483.9 857.2 1482.7 857.2H1473.6V857.1Z" fill="white"/>
<path d="M1511.4 839.1V857.1H1506.5V841.3H1508L1498.6 851.6V850H1514.3V853.7H1495V850.2L1505.1 839.1H1511.4Z" fill="white"/>
</svg>
