<?xml version="1.0" encoding="utf-8"?>
<!-- Generator: Adobe Illustrator 26.0.3, SVG Export Plug-In . SVG Version: 6.00 Build 0)  -->
<svg version="1.1" id="Слой_1" xmlns="http://www.w3.org/2000/svg" xmlns:xlink="http://www.w3.org/1999/xlink" x="0px" y="0px"
	 viewBox="0 0 1920 1080" style="enable-background:new 0 0 1920 1080;" xml:space="preserve">
<style type="text/css">
	.st0{fill:#3387FF;}
	.st1{fill:none;}
	.st2{enable-background:new    ;}
	.st3{fill:#FFFFFF;}
	.st4{fill:#66B9FF;}
	.st5{fill:none;stroke:#0085CC;stroke-width:4.3703;stroke-linecap:round;stroke-linejoin:round;stroke-miterlimit:10;}
	.st6{fill:none;stroke:#0085CC;stroke-width:4.4454;stroke-linecap:round;stroke-linejoin:round;stroke-miterlimit:10;}
	.st7{fill:none;stroke:#0085CC;stroke-width:1.4818;stroke-linecap:round;stroke-linejoin:round;stroke-miterlimit:10;}
	.st8{fill:none;stroke:#0085CC;stroke-width:6.7914;stroke-linecap:round;stroke-linejoin:round;stroke-miterlimit:10;}
	.st9{fill:none;stroke:#0085CC;stroke-width:6.9151;stroke-linecap:round;stroke-linejoin:round;stroke-miterlimit:10;}
	.st10{fill:none;stroke:#0085CC;stroke-width:1.9926;stroke-linecap:round;stroke-linejoin:round;stroke-miterlimit:10;}
	.st11{fill:none;stroke:#0085CC;stroke-width:1.4438;stroke-linecap:round;stroke-linejoin:round;stroke-miterlimit:10;}
	.st12{fill:#0085CC;}
	.st13{fill:#1D0EB1;}
	.st14{fill:#FB493B;}
	.st15{fill:none;stroke:#1D0EB1;stroke-width:1.5272;stroke-linecap:round;stroke-linejoin:round;}
</style>
<rect x="1314.4" y="860" class="st0" width="184" height="49.5"/>
<rect x="1325.1" y="874.1" class="st1" width="163.3" height="37"/>
<g class="st2">
	<path class="st3" d="M1337.4,888.9l-9-15.6h5.5l7,12.2L1337.4,888.9z M1334.2,891.4l3.2-5.6h0.1l7-12.4h5.4l-10.3,18H1334.2z"/>
	<path class="st3" d="M1349.4,877.7h4.9v3.9l-0.2,0.6v3.8l0.2,1.1v8.2h-4.9V877.7z M1352.7,884.5c0.2-1.5,0.6-2.8,1.3-3.9
		s1.5-1.9,2.5-2.5c1-0.6,2.2-0.9,3.5-0.9c1.3,0,2.5,0.3,3.5,0.9c1,0.6,1.8,1.5,2.4,2.5c0.6,1.1,0.9,2.4,0.9,3.8
		c0,1.4-0.3,2.7-0.9,3.8c-0.6,1.1-1.4,1.9-2.4,2.5c-1,0.6-2.2,0.9-3.5,0.9c-1.3,0-2.5-0.3-3.5-0.9c-1-0.6-1.9-1.4-2.5-2.5
		S1353,886,1352.7,884.5z M1361.9,884.5c0-0.7-0.1-1.3-0.4-1.8c-0.3-0.5-0.7-0.9-1.2-1.2c-0.5-0.3-1.1-0.5-1.7-0.5
		c-0.7,0-1.3,0.2-1.9,0.5c-0.6,0.3-1.1,0.7-1.6,1.2s-0.8,1.1-1,1.8c0.2,0.7,0.6,1.3,1,1.8s1,0.9,1.6,1.2c0.6,0.3,1.2,0.4,1.9,0.4
		c0.6,0,1.2-0.1,1.7-0.4s0.9-0.7,1.2-1.2C1361.7,885.8,1361.9,885.2,1361.9,884.5z"/>
	<path class="st3" d="M1377.1,891.7c-1.8,0-3.3-0.3-4.6-0.9c-1.3-0.6-2.3-1.4-3.1-2.5c-0.7-1.1-1.1-2.4-1.1-3.8
		c0-1.5,0.4-2.7,1.1-3.8c0.7-1.1,1.8-1.9,3.1-2.5c1.3-0.6,2.8-0.9,4.6-0.9c1.7,0,3.3,0.3,4.6,0.9c1.3,0.6,2.3,1.5,3.1,2.5
		c0.7,1.1,1.1,2.4,1.1,3.8c0,1.4-0.4,2.7-1.1,3.8s-1.8,1.9-3.1,2.5C1380.4,891.4,1378.8,891.7,1377.1,891.7z M1377.1,888.1
		c0.8,0,1.5-0.1,2.1-0.4c0.6-0.3,1-0.7,1.3-1.2c0.3-0.5,0.5-1.2,0.5-1.9c0-0.8-0.2-1.4-0.5-2c-0.3-0.5-0.7-0.9-1.3-1.2
		c-0.6-0.3-1.3-0.4-2.1-0.4c-0.8,0-1.5,0.1-2.1,0.4s-1,0.7-1.3,1.2c-0.3,0.5-0.5,1.2-0.5,1.9c0,0.8,0.2,1.4,0.5,1.9
		c0.3,0.5,0.7,1,1.3,1.2S1376.3,888.1,1377.1,888.1z"/>
	<path class="st3" d="M1387.5,891.4l0.9-6.9l-0.9-6.8h11.2c1.3,0,2.4,0.3,3.2,0.9c0.8,0.6,1.2,1.5,1.2,2.5c0,1-0.4,1.8-1.2,2.4
		c-0.8,0.6-1.9,1-3.3,1.1l0.3-0.8c1.6,0.1,2.9,0.4,3.7,1c0.9,0.6,1.3,1.5,1.3,2.6c0,1.2-0.4,2.1-1.3,2.8s-2.1,1.1-3.6,1.1H1387.5z
		 M1392.2,890.3l-1.9-2h7c0.5,0,0.9-0.1,1.2-0.3c0.3-0.2,0.4-0.6,0.4-1c0-0.4-0.1-0.7-0.4-0.9c-0.3-0.2-0.7-0.4-1.3-0.4h-5.9v-2.5
		h5.3c0.5,0,0.9-0.1,1.1-0.3c0.3-0.2,0.4-0.5,0.4-0.9s-0.1-0.7-0.3-0.9c-0.2-0.2-0.6-0.3-1.1-0.3h-6.3l1.9-2l0.8,5.8L1392.2,890.3z"
		/>
	<path class="st3" d="M1413.9,891.7c-1.7,0-3.1-0.3-4.5-0.9c-1.3-0.6-2.3-1.5-3.1-2.6c-0.8-1.1-1.1-2.4-1.1-3.8
		c0-1.4,0.4-2.7,1.1-3.8c0.7-1.1,1.7-1.9,3-2.5c1.3-0.6,2.7-0.9,4.3-0.9c1.6,0,3.1,0.4,4.2,1.1s2.1,1.7,2.7,3s0.9,2.8,0.9,4.6h-12.2
		v-3h9.4l-1.6,1c-0.1-0.7-0.2-1.3-0.5-1.8c-0.3-0.5-0.7-0.9-1.1-1.1c-0.5-0.3-1-0.4-1.7-0.4c-0.7,0-1.3,0.1-1.8,0.4
		c-0.5,0.3-0.9,0.7-1.2,1.2c-0.3,0.5-0.4,1.1-0.4,1.8c0,0.9,0.2,1.6,0.6,2.2c0.4,0.6,1,1.1,1.7,1.4c0.8,0.3,1.7,0.5,2.8,0.5
		c1,0,2-0.1,3-0.4c1-0.3,1.9-0.6,2.7-1.1v3.1c-0.9,0.6-2,1.1-3.2,1.5S1415.3,891.7,1413.9,891.7z"/>
	<path class="st3" d="M1423.5,877.7h4.9v13.7h-4.9V877.7z M1426.3,882.5h10.4v3.6h-10.4V882.5z M1434.8,877.7h4.9v13.7h-4.9V877.7z"
		/>
	<path class="st3" d="M1442.4,891.4v-13.7h4.9v12.5l-1.5-2.2h4.8c0.6,0,1.1-0.1,1.4-0.4s0.5-0.7,0.5-1.3c0-0.5-0.2-0.9-0.5-1.2
		s-0.8-0.4-1.4-0.4h-4.9v-3.3h5.7c1.2,0,2.3,0.2,3.2,0.6c0.9,0.4,1.6,1,2.1,1.8s0.8,1.6,0.8,2.7c0,1-0.3,1.9-0.8,2.7
		s-1.2,1.3-2.1,1.8s-1.9,0.6-3.1,0.6H1442.4z"/>
	<path class="st3" d="M1466.2,873.4h14.1v3.7h-12.6l2-0.9l-1,6.5l-1.2,0c0.4-0.6,0.8-1.2,1.4-1.7c0.6-0.5,1.4-0.9,2.3-1.2
		c0.9-0.3,1.9-0.4,3.1-0.4c1.5,0,2.9,0.3,4,0.8s2,1.2,2.6,2.1c0.6,0.9,0.9,1.9,0.9,3.1c0,1.2-0.3,2.4-1,3.3c-0.7,1-1.7,1.7-3,2.3
		c-1.3,0.6-2.9,0.8-4.7,0.8c-1.8,0-3.3-0.3-4.6-0.8c-1.3-0.5-2.4-1.2-3.1-2.1c-0.7-0.9-1.2-1.9-1.3-3h4.9c0.2,0.6,0.6,1.1,1.3,1.5
		c0.7,0.4,1.6,0.6,2.8,0.6c0.8,0,1.5-0.1,2-0.3c0.6-0.2,1-0.5,1.3-0.9c0.3-0.4,0.5-0.9,0.5-1.4c0-0.5-0.1-1-0.4-1.4
		c-0.3-0.4-0.7-0.7-1.2-0.9s-1.2-0.3-2-0.3c-0.7,0-1.3,0.1-1.8,0.2c-0.5,0.1-1,0.3-1.4,0.6c-0.4,0.2-0.7,0.5-1,0.7h-4.3
		L1466.2,873.4z"/>
</g>
<g>
	<g>
		<g>
			<g>
				<polygon class="st4" points="1455.9,525.2 1547.4,494.9 1591.7,539.3 1552.4,552.3 1688.9,632.8 794.1,930.3 724.7,860.8 
					638,910.2 515.4,840.5 432,798.1 302.9,733.6 392.4,670.6 282.2,618.1 447.6,453.2 587.7,313.4 806.7,94.3 1048.9,174.9 
					1017.6,206.4 1119.7,240.4 1084.2,273 1059.3,263.6 888.2,388.1 655.8,586.1 733.6,628.2 892.8,711.5 1085.8,647.2 
					1071.9,631.9 1317.1,550.2 1331.5,566.1 				"/>
			</g>
			<g>
				<polygon class="st3" points="1455.9,499.4 1547.4,469.1 1591.7,513.5 1552.4,526.4 1688.9,607 794.1,904.5 724.7,835 638,884.4 
					515.4,814.6 432,772.3 302.9,707.8 392.4,644.8 282.2,592.2 447.6,427.4 587.7,287.6 806.7,68.5 1048.9,149.1 1017.6,180.6 
					1119.7,214.6 1066.5,267.8 1066.5,267.8 916.4,417.9 886.8,408 706.4,588.5 733.6,602.4 820.1,535.9 1002.8,597 870.4,673.9 
					892.8,685.6 1085.8,621.4 1064.8,600.5 1310.1,518.8 1331.5,540.3 				"/>
			</g>
			<polygon class="st0" points="695.2,590.8 865.7,420.2 810,401.6 697.7,513.7 620.8,559.5 			"/>
			<polygon class="st0" points="584.5,626.7 848,714.5 892.5,693.7 885.8,690.1 695.4,590.5 620.8,559.5 			"/>
			<g>
				<polyline class="st5" points="391.7,645.6 302.2,707.6 345.5,728.6 388.1,750.1 431.7,772.3 515.5,814.9 526.2,820.7 
					536.4,826.4 546.6,832 556.6,837.7 566.8,843.5 576.9,849.2 617,872.4 626.9,878.1 637.8,884.4 724.9,836.2 				"/>
				<polyline class="st6" points="1556,525.8 1546.7,528.9 1540.8,525.5 1531.9,520.5 1484.2,536.4 				"/>
				<polyline class="st6" points="1570.7,534.5 1503.9,556.7 1496.1,548.7 1472.3,524.8 				"/>
				<line class="st6" x1="543.5" y1="444.1" x2="476.7" y2="511"/>
				<polyline class="st6" points="640.3,476.4 589.6,527.2 574,542.8 				"/>
				<polyline class="st6" points="494.4,649.5 487.3,645.4 454.2,634.7 				"/>
				<line class="st7" x1="783.1" y1="700.8" x2="843.5" y2="720.9"/>
				<line class="st7" x1="651.8" y1="657" x2="768.2" y2="695.9"/>
				<line class="st7" x1="579" y1="632.7" x2="636.3" y2="651.9"/>
				<polyline class="st6" points="843.5,720.9 944.8,822.2 970,847.4 				"/>
				<line class="st6" x1="426.5" y1="494.2" x2="476.7" y2="510.9"/>
				<polyline class="st5" points="1303.1,672.6 1280.2,649.5 1276.7,646 				"/>
				<line class="st6" x1="976" y1="780.8" x2="1005.7" y2="810.5"/>
				<line class="st6" x1="494.4" y1="649.5" x2="497.9" y2="651.4"/>
				<polyline class="st6" points="512.9,660.1 522.1,665.6 483.2,688 				"/>
				<polyline class="st6" points="634.7,542.2 611,555.7 574.6,543.6 				"/>
				<line class="st7" x1="480.2" y1="624.8" x2="358.2" y2="584.2"/>
				<line class="st7" x1="497.1" y1="607.9" x2="375.1" y2="567.2"/>
				<line class="st6" x1="428.3" y1="660.7" x2="454.2" y2="634.7"/>
				<polyline class="st8" points="1459,498.4 1551,468 1595.4,512.5 1595.6,512.7 1556,525.8 				"/>
				<line class="st6" x1="1355.5" y1="579.2" x2="1246.4" y2="615.5"/>
				<polyline class="st6" points="1028.5,688.1 919.7,724.4 976,780.8 				"/>
				<path class="st7" d="M1424.5,510.2c-93.1-90.7-221.9-167.4-376.1-223.9"/>
				<line class="st6" x1="559.6" y1="314.5" x2="807.7" y2="397.3"/>
				<polyline class="st7" points="1175.1,715.2 1211,703.2 1240.6,693.4 				"/>
				<line class="st6" x1="493.2" y1="427.6" x2="445.9" y2="475"/>
				<line class="st6" x1="433.1" y1="487.7" x2="426.5" y2="494.2"/>
				<polyline class="st6" points="1114.6,774.1 1065,790.8 1005.7,810.5 				"/>
				<polyline class="st7" points="1211,703.2 1230.9,723 1259,751.1 				"/>
				<line class="st6" x1="1085" y1="744.5" x2="976" y2="780.8"/>
				<polyline class="st7" points="1439.5,626 1430.9,628.8 1411.2,635.4 				"/>
				<polyline class="st7" points="1240.6,693.4 1260.5,713.2 1230.9,723 				"/>
				<line class="st6" x1="579" y1="632.7" x2="522.1" y2="665.6"/>
				<line class="st6" x1="720.7" y1="481.1" x2="475" y2="399.2"/>
				<line class="st6" x1="735.9" y1="465.9" x2="720.7" y2="481.1"/>
				<line class="st7" x1="778.7" y1="425.4" x2="746.4" y2="458"/>
				<line class="st7" x1="806.6" y1="397" x2="788.7" y2="415.3"/>
				<line class="st6" x1="720.7" y1="481.1" x2="715.1" y2="486.8"/>
				<line class="st6" x1="1006.9" y1="273" x2="1047.9" y2="286.7"/>
				<line class="st6" x1="1028.5" y1="688.1" x2="1085" y2="744.5"/>
				<polyline class="st9" points="1555.9,525.8 1570.7,534.5 1693,606.3 1259,751.1 1222.9,763.1 1083.7,809.5 1003.2,836.3 
					970,847.4 794.5,905.9 663.7,775 391.7,645.6 281.3,592.9 475,399.2 559.6,314.5 661.4,212.7 807.9,66.2 1050.9,147.1 
					1019.4,178.7 1121.9,212.8 1068.5,266.2 				"/>
				<line class="st7" x1="1446.6" y1="486.6" x2="1412.5" y2="498.7"/>
				<line class="st7" x1="1433.5" y1="474.5" x2="1399.8" y2="487.1"/>
				<line class="st7" x1="1419.9" y1="462.8" x2="1386.7" y2="475.8"/>
				<line class="st7" x1="1406" y1="451.1" x2="1373.1" y2="464.5"/>
				<line class="st7" x1="1391.6" y1="439.6" x2="1359.3" y2="453.4"/>
				<line class="st7" x1="1376.8" y1="428.3" x2="1344.9" y2="442.4"/>
				<line class="st7" x1="1361.5" y1="417.1" x2="1330.2" y2="431.6"/>
				<line class="st7" x1="1345.9" y1="406.2" x2="1315.1" y2="421.2"/>
				<line class="st7" x1="1329.9" y1="395.4" x2="1299.8" y2="410.7"/>
				<line class="st7" x1="1313.6" y1="384.8" x2="1284" y2="400.5"/>
				<line class="st7" x1="1296.8" y1="374.5" x2="1267.8" y2="390.4"/>
				<line class="st7" x1="1279.8" y1="364.3" x2="1251.3" y2="380.6"/>
				<line class="st7" x1="1262.3" y1="354.4" x2="1234.4" y2="371"/>
				<line class="st7" x1="1244.6" y1="344.6" x2="1217.2" y2="361.5"/>
				<line class="st7" x1="1226.4" y1="334.9" x2="1199.7" y2="352.3"/>
				<line class="st7" x1="1208" y1="325.7" x2="1181.8" y2="343.3"/>
				<line class="st7" x1="1189.1" y1="316.5" x2="1163.7" y2="334.5"/>
				<line class="st7" x1="1170.1" y1="307.7" x2="1145.2" y2="325.9"/>
				<line class="st7" x1="1150.5" y1="299" x2="1126.3" y2="317.5"/>
				<line class="st7" x1="1130.8" y1="290.5" x2="1107.3" y2="309.4"/>
				<line class="st7" x1="1110.8" y1="282.4" x2="1087.9" y2="301.4"/>
				<line class="st7" x1="1090.4" y1="274.4" x2="1068.3" y2="293.7"/>
				<polyline class="st7" points="1432.5,507.4 1438.7,489.4 1407.6,484.2 1412.1,465.7 1380.8,461.4 1384,442.8 1352.3,439.2 
					1354.3,420.6 1322.4,417.7 1323,398.9 1290.8,396.8 1290.1,378.3 1258,376.9 1255.9,358.1 1223.6,357.6 1220.1,339 1188,339.1 
					1183.2,320.7 1150.9,321.7 1144.9,303.4 1112.8,304.9 1105.5,286.7 1073.5,289.2 1063.9,270.8 				"/>
				<line class="st6" x1="1068.5" y1="266.2" x2="1047.9" y2="286.7"/>
				<line class="st6" x1="1459" y1="498.4" x2="1424.4" y2="510.2"/>
				<polyline class="st7" points="1050.7,284.1 917,418.1 887.4,408.2 706.6,589.1 733.5,603.1 				"/>
				<polyline class="st7" points="870.9,674.8 893.4,686.5 1086.8,622.1 1065.8,601.1 1311.6,519.3 1333,540.6 1424.4,510.2 				"/>
				<polyline class="st7" points="733.5,603.1 820.5,536.4 1003.7,597.6 870.9,674.8 				"/>
				<line class="st6" x1="476.7" y1="510.9" x2="574.6" y2="543.6"/>
				<line class="st10" x1="559.4" y1="314.5" x2="559.6" y2="314.5"/>
				<line class="st6" x1="426.5" y1="494.2" x2="417.6" y2="491.2"/>
				<line class="st6" x1="400.7" y1="485.6" x2="391.7" y2="482.5"/>
				<line class="st6" x1="847" y1="386.2" x2="918.1" y2="315.1"/>
				<line class="st6" x1="660.9" y1="269.1" x2="704.2" y2="283.5"/>
				<line class="st6" x1="647.6" y1="282.4" x2="690.8" y2="296.9"/>
				<line class="st6" x1="740.5" y1="350.6" x2="776.6" y2="362.7"/>
				<polyline class="st6" points="847,386.2 802.6,371.4 799.6,370.4 				"/>
				<line class="st6" x1="660.9" y1="269.1" x2="690.8" y2="239.5"/>
				<line class="st6" x1="619.5" y1="310.3" x2="647.6" y2="282.4"/>
				<line class="st6" x1="619.5" y1="310.3" x2="662.8" y2="324.7"/>
				<line class="st6" x1="663" y1="324.7" x2="721.2" y2="344.2"/>
				<line class="st6" x1="739" y1="350" x2="776.6" y2="362.7"/>
				<line class="st6" x1="764.3" y1="263.8" x2="777.6" y2="268.3"/>
				<polyline class="st6" points="689.2,238.9 732.3,253.2 747.2,258.2 721.7,249.7 677.9,235.2 677.2,234.9 				"/>
				<polyline class="st6" points="648.7,225.4 661.4,229.6 662.8,230.1 				"/>
				<line class="st6" x1="847" y1="386.2" x2="918.1" y2="315.1"/>
				<polyline class="st6" points="824.6,283.9 756.6,351.8 753.5,355.1 				"/>
				<line class="st6" x1="893.5" y1="306.9" x2="822.3" y2="378"/>
				<line class="st6" x1="660.9" y1="269.1" x2="704.2" y2="283.5"/>
				<line class="st6" x1="647.6" y1="282.4" x2="690.8" y2="296.9"/>
				<polyline class="st6" points="918.1,315.1 777.7,268.3 772,274 706.4,339.1 				"/>
				<polyline class="st6" points="733.7,254 707.4,280.3 693,294.7 666.2,321.4 662.8,324.7 				"/>
				<line class="st6" x1="740.5" y1="350.6" x2="776.6" y2="362.7"/>
				<polyline class="st6" points="847,386.2 802.6,371.4 799.6,370.4 				"/>
				<line class="st6" x1="660.9" y1="269.1" x2="690.8" y2="239.5"/>
				<polyline class="st6" points="662.8,324.7 619.5,310.3 647.6,282.4 				"/>
				<line class="st6" x1="663" y1="324.7" x2="721.2" y2="344.2"/>
				<line class="st6" x1="739" y1="350" x2="776.6" y2="362.7"/>
				<line class="st7" x1="1019.4" y1="178.7" x2="945.2" y2="252.4"/>
				<polyline class="st6" points="664.9,209.2 907.9,290.2 945.2,253.1 				"/>
				<line class="st6" x1="487.3" y1="645.4" x2="445.9" y2="669.3"/>
				<line class="st7" x1="497.1" y1="607.9" x2="480.2" y2="624.8"/>
				<line class="st11" x1="375.1" y1="567.2" x2="358.2" y2="584.1"/>
				<line class="st6" x1="1084.6" y1="744.1" x2="1093.4" y2="752.9"/>
				<polyline class="st6" points="1106.1,765.6 1106.8,766.3 1114.7,774.1 				"/>
				<polyline class="st6" points="1246.4,615.5 1255,624.3 1255.6,624.9 				"/>
				<polyline class="st6" points="1268.3,637.6 1269.7,639 1276.7,646 				"/>
				<line class="st6" x1="1386" y1="609.8" x2="1377.3" y2="601"/>
				<line class="st6" x1="1364.6" y1="588.3" x2="1355.5" y2="579.2"/>
				<line class="st6" x1="641.6" y1="476.8" x2="660.4" y2="483.1"/>
				<line class="st6" x1="686.2" y1="491.7" x2="703.4" y2="497.4"/>
				<line class="st6" x1="1350.8" y1="720.5" x2="1303.1" y2="672.6"/>
				<polyline class="st6" points="1117.7,657.7 1175.1,715.2 1222.9,763.1 				"/>
				<line class="st6" x1="1117.7" y1="657.7" x2="1220.1" y2="623.6"/>
				<line class="st7" x1="1112.5" y1="732.1" x2="1042.2" y2="661.7"/>
				<polyline class="st7" points="1142,722.3 1071.7,652 1042.2,661.7 				"/>
				<polyline class="st6" points="1302.1,671.6 1411.4,635.1 1403.7,627.4 				"/>
				<line class="st6" x1="1385.6" y1="609.2" x2="1393.9" y2="617.6"/>
				<polyline class="st6" points="1303.1,672.6 1280.2,649.5 1276.7,646 				"/>
				<line class="st6" x1="1449.4" y1="501.9" x2="1457.5" y2="510"/>
				<line class="st6" x1="459.4" y1="416.1" x2="660.3" y2="483.1"/>
				<polyline class="st6" points="1386.1,609.8 1251.3,654.7 1220.1,623.6 				"/>
				<polyline class="st6" points="1456.7,620 1440.5,625.5 1401.4,586.5 1384.9,569.8 1401.1,564.5 1456.7,620 				"/>
				<line class="st7" x1="1504.2" y1="556.8" x2="1406.4" y2="591.1"/>
				<polyline class="st6" points="707.5,494.2 693,508.8 634.7,542.2 590.7,527.5 				"/>
				<line class="st11" x1="1112.5" y1="732.1" x2="1142" y2="722.3"/>
				<path class="st6" d="M1459,498.4c-96.6-94.2-230.3-173.7-390.6-232.2"/>
			</g>
			<line class="st7" x1="733.5" y1="602.9" x2="873.4" y2="676"/>
			<polyline class="st12" points="892.5,693.7 1022.2,649.3 1033.2,660.2 1048.7,675.6 868.9,734.5 848,714.5 			"/>
			<polygon class="st0" points="1122.6,646.2 1349.3,571.2 1307.4,526.8 1079.3,603.1 			"/>
			<polyline class="st0" points="892.5,693.7 1099.4,622.9 1122.9,646.2 1085.8,659.4 1072.7,646.9 1033.2,660.2 1048.7,675.6 
				868.9,734.5 848,714.5 			"/>
		</g>
		<g>
			<g>
				<circle class="st13" cx="1546.2" cy="478.3" r="19.6"/>
			</g>
			<path class="st3" d="M1556,470.1h-5.8c-0.3,0-0.6,0.3-0.6,0.6v2.7h-4.1c-0.3,0-0.6,0.3-0.6,0.6v2.7h-4.1c-0.3,0-0.6,0.3-0.6,0.6
				v2.8h-4.1c-0.3,0-0.6,0.3-0.6,0.6v4.9c0,0.3,0.3,0.6,0.6,0.6h6c0.1,0,0.2,0,0.3-0.1l13.7-9.7c0.2-0.1,0.3-0.3,0.3-0.5v-5.3
				C1556.6,470.4,1556.3,470.1,1556,470.1z M1555.4,471.4v4.3l-13.3,9.4h-5.2v-3.6h4.1c0.3,0,0.6-0.3,0.6-0.6v-2.8h4.1
				c0.3,0,0.6-0.3,0.6-0.6v-2.7h4.1c0.3,0,0.6-0.3,0.6-0.6v-2.7L1555.4,471.4z"/>
			<g>
				<path class="st13" d="M1546.2,495.7c0.6,0.6,1,1.2,1.4,1.9c0,0.6,0,1.2,0,1.9v3.7c0,1.2,0,4.4,0,5.6c-0.4,0.6-0.8,1.2-1.4,1.9
					c-0.6-0.6-1-1.2-1.4-1.9c0-1.2,0-4.4,0-5.6v-3.7c0-0.6,0-1.2,0-1.9C1545.2,497,1545.6,496.4,1546.2,495.7L1546.2,495.7z"/>
			</g>
		</g>
		<g>
			<g>
				<circle class="st13" cx="720.7" cy="265.5" r="19.6"/>
			</g>
			<path class="st3" d="M730.5,257.3h-5.8c-0.3,0-0.6,0.3-0.6,0.6v2.7H720c-0.3,0-0.6,0.3-0.6,0.6v2.7h-4.1c-0.3,0-0.6,0.3-0.6,0.6
				v2.8h-4.1c-0.3,0-0.6,0.3-0.6,0.6v4.9c0,0.3,0.3,0.6,0.6,0.6h6c0.1,0,0.2,0,0.3-0.1l13.7-9.7c0.2-0.1,0.3-0.3,0.3-0.5v-5.3
				C731.1,257.6,730.9,257.3,730.5,257.3z M730,258.6v4.3l-13.3,9.4h-5.2v-3.6h4.1c0.3,0,0.6-0.3,0.6-0.6v-2.8h4.1
				c0.3,0,0.6-0.3,0.6-0.6V262h4.1c0.3,0,0.6-0.3,0.6-0.6v-2.7L730,258.6z"/>
			<g>
				<path class="st13" d="M720.7,282.9c0.6,0.6,1,1.2,1.4,1.9c0,0.6,0,1.2,0,1.9v3.7c0,1.2,0,4.4,0,5.6c-0.4,0.6-0.8,1.2-1.4,1.9
					c-0.6-0.6-1-1.2-1.4-1.9c0-1.2,0-4.4,0-5.6v-3.7c0-0.6,0-1.2,0-1.9C719.7,284.2,720.1,283.6,720.7,282.9L720.7,282.9z"/>
			</g>
		</g>
		<g>
			<g>
				<circle class="st13" cx="834.4" cy="305" r="19.6"/>
			</g>
			<g>
				<path class="st13" d="M834.4,322.4c1.1,1.3,1.4,2.1,1.2,3.7v3.7c0,1.2,0,4.4,0,5.6c-0.4,0.6-0.7,1.2-1.2,1.9
					c-0.5-0.6-0.8-1.2-1.2-1.9c0-1.2,0-4.4,0-5.6v-3.7C833,324.6,833.3,323.7,834.4,322.4L834.4,322.4z"/>
			</g>
			<g>
				<g>
					<circle class="st3" cx="828.1" cy="296.8" r="1.7"/>
					<path class="st3" d="M830.3,299.1h-4.4c-0.8,0-1.4,0.6-1.4,1.4v6.9c0,0.3,0.2,0.5,0.5,0.5h0.8v5.5c0,0.5,0.4,0.8,0.8,0.8
						c0,0,0,0,0.1,0c0.3,0,0.5-0.1,0.7-0.2c0.2-0.2,0.3-0.4,0.3-0.8v-5.3h0.9v5.5c0,0.5,0.4,0.8,0.8,0.8c0,0,0,0,0.1,0
						c0.3,0,0.5-0.1,0.7-0.2c0.2-0.2,0.3-0.4,0.3-0.8v-5.3h0.7c0.3,0,0.5-0.2,0.5-0.5v-6.9C831.7,299.7,831.1,299.1,830.3,299.1z"/>
					<path class="st3" d="M840.6,298.1c0.9,0,1.7-0.8,1.7-1.7c0-0.9-0.8-1.7-1.7-1.7s-1.7,0.8-1.7,1.7
						C838.9,297.4,839.6,298.1,840.6,298.1z"/>
					<path class="st3" d="M845.1,307l-1.7-7.3c-0.2-0.8-0.8-1-1.3-1H839c-0.7,0-1.3,0.6-1.3,1.3l-1.3,7c0,0.3,0.2,0.5,0.5,0.5h1.5
						v5.6c0,0.5,0.4,0.8,0.8,0.8c0,0,0,0,0.1,0c0.3,0,0.5-0.1,0.7-0.2c0.2-0.2,0.3-0.4,0.3-0.8v-5.4h0.9v5.6c0,0.5,0.4,0.8,0.8,0.8
						c0,0,0,0,0.1,0c0.3,0,0.5-0.1,0.7-0.2c0.2-0.2,0.3-0.4,0.3-0.8v-5.4h1.7C844.9,307.5,845.1,307.3,845.1,307L845.1,307z"/>
					<path class="st3" d="M834.4,293.2c-0.3,0-0.5,0.2-0.5,0.5v21.6c0,0.3,0.2,0.5,0.5,0.5s0.5-0.2,0.5-0.5v-21.6
						C834.9,293.4,834.7,293.2,834.4,293.2z"/>
				</g>
			</g>
		</g>
		<g>
			<g>
				<circle class="st13" cx="1307.8" cy="594.7" r="19.6"/>
			</g>
			<g>
				<path class="st13" d="M1307.8,612.2c1.1,1.2,1.4,2.1,1.2,3.7v3.7c0,1.2,0,4.4,0,5.6c-0.4,0.6-0.7,1.2-1.2,1.9
					c-0.5-0.6-0.8-1.2-1.2-1.9c0-1.2,0-4.4,0-5.6v-3.7C1306.5,614.3,1306.8,613.4,1307.8,612.2L1307.8,612.2z"/>
			</g>
			<g>
				<g>
					<circle class="st3" cx="1301.6" cy="586.5" r="1.7"/>
					<path class="st3" d="M1303.8,588.8h-4.4c-0.8,0-1.4,0.6-1.4,1.4v6.9c0,0.3,0.2,0.5,0.5,0.5h0.8v5.5c0,0.5,0.4,0.8,0.8,0.8
						c0,0,0,0,0.1,0c0.3,0,0.5-0.1,0.7-0.2c0.2-0.2,0.3-0.4,0.3-0.8v-5.3h0.9v5.5c0,0.5,0.4,0.8,0.8,0.8c0,0,0,0,0.1,0
						c0.3,0,0.5-0.1,0.7-0.2c0.2-0.2,0.3-0.4,0.3-0.8v-5.3h0.7c0.3,0,0.5-0.2,0.5-0.5v-6.9C1305.2,589.4,1304.5,588.8,1303.8,588.8z
						"/>
					<path class="st3" d="M1314,587.8c0.9,0,1.7-0.8,1.7-1.7s-0.8-1.7-1.7-1.7c-0.9,0-1.7,0.8-1.7,1.7
						C1312.4,587.1,1313.1,587.8,1314,587.8z"/>
					<path class="st3" d="M1318.6,596.7l-1.7-7.3c-0.2-0.8-0.8-1-1.3-1h-3.1c-0.7,0-1.3,0.6-1.3,1.3l-1.3,7c0,0.3,0.2,0.5,0.5,0.5
						h1.5v5.6c0,0.5,0.4,0.8,0.8,0.8c0,0,0,0,0.1,0c0.3,0,0.5-0.1,0.7-0.2c0.2-0.2,0.3-0.4,0.3-0.8v-5.4h0.9v5.6
						c0,0.5,0.4,0.8,0.8,0.8c0,0,0,0,0.1,0c0.3,0,0.5-0.1,0.7-0.2c0.2-0.2,0.3-0.4,0.3-0.8v-5.4h1.7
						C1318.4,597.3,1318.6,597,1318.6,596.7L1318.6,596.7z"/>
					<path class="st3" d="M1307.8,582.9c-0.3,0-0.5,0.2-0.5,0.5V605c0,0.3,0.2,0.5,0.5,0.5s0.5-0.2,0.5-0.5v-21.6
						C1308.4,583.1,1308.1,582.9,1307.8,582.9z"/>
				</g>
			</g>
		</g>
		<g>
			<g>
				<circle class="st13" cx="771.7" cy="283.1" r="19.6"/>
			</g>
			<g>
				<path class="st13" d="M771.7,300.5c1.1,1.3,1.4,2.1,1.2,3.7v3.7c0,1.2,0,4.4,0,5.6c-0.4,0.6-0.7,1.2-1.2,1.9
					c-0.5-0.6-0.8-1.2-1.2-1.9c0-1.2,0-4.4,0-5.6v-3.7C770.3,302.7,770.6,301.8,771.7,300.5L771.7,300.5z"/>
			</g>
			<g>
				<path class="st3" d="M780.3,279.1l-17-0.2c-0.7,0-1.2,0.5-1.2,1.2L762,293c0,0.7,0.5,1.2,1.2,1.2l17,0.2c0.7,0,1.2-0.5,1.2-1.2
					l0.1-12.9C781.5,279.6,781,279.1,780.3,279.1z M763.2,280.1L763.2,280.1l17.1,0.1l0,0l-0.1,12.9l0,0l-17-0.2l0,0V280.1z"/>
				<path class="st3" d="M767.1,277.7C767.2,277.7,767.2,277.7,767.1,277.7C767.2,277.8,767.2,277.8,767.1,277.7
					c0.1,0.1,0.2,0.1,0.2,0.2l0,0l0,0c0.1,0,0.1,0,0.2,0l0,0l0,0l0,0l0,0c0.1,0,0.1,0,0.2,0l0,0c0.1,0,0.1-0.1,0.2-0.1l0,0
					c0,0,0,0,0.1-0.1l0,0l2.9-3.5c0.1-0.1,0.2-0.3,0.1-0.5c0-0.2-0.1-0.3-0.2-0.4c-0.3-0.2-0.7-0.2-0.9,0.1l-1.8,2.2l0.1-5.3
					c0-0.3-0.3-0.6-0.6-0.6s-0.6,0.3-0.6,0.6l-0.1,5.5l-1.6-1.9c-0.1-0.1-0.3-0.2-0.4-0.2c-0.2,0-0.3,0-0.4,0.1
					c-0.1,0.1-0.2,0.3-0.2,0.4c0,0.2,0,0.3,0.1,0.4L767.1,277.7z"/>
				<path class="st3" d="M773.4,274c0.2,0,0.3-0.1,0.5-0.2l1.7-1.9l-0.1,5.5c0,0.3,0.3,0.6,0.6,0.6s0.6-0.3,0.6-0.6l0.1-5.3l1.7,2.2
					c0.2,0.3,0.6,0.3,0.9,0.1c0.3-0.2,0.3-0.6,0.1-0.9l-2.8-3.6l0,0c0,0,0-0.1-0.1-0.1l0,0l0,0c0,0-0.1-0.1-0.2-0.1l0,0
					c-0.1,0-0.1,0-0.2,0l0,0c-0.1,0-0.1,0-0.2,0l0,0l0,0c-0.1,0-0.1,0-0.1,0.1l0,0l-0.1,0.1L773,273c-0.2,0.3-0.2,0.6,0.1,0.9
					C773.1,273.9,773.2,274,773.4,274z"/>
				<path class="st3" d="M766.8,283.1c0.5,0,0.9-0.4,0.9-0.9s-0.4-0.9-0.9-0.9s-0.9,0.4-0.9,0.9
					C765.9,282.7,766.3,283.1,766.8,283.1z"/>
				<path class="st3" d="M776.6,283.2c0.5,0,0.9-0.4,0.9-0.9s-0.4-0.9-0.9-0.9s-0.9,0.4-0.9,0.9
					C775.7,282.8,776.1,283.2,776.6,283.2z"/>
				<path class="st3" d="M771.7,283.1c0.5,0,0.9-0.4,0.9-0.9s-0.4-0.9-0.9-0.9s-0.9,0.4-0.9,0.9S771.2,283.1,771.7,283.1z"/>
				<path class="st3" d="M765.4,288.2L765.4,288.2l0.1,3.5c0,0.3,0.3,0.5,0.6,0.6c0.2,0,0.3,0,0.4-0.2c0.1-0.1,0.2-0.3,0.2-0.5v-3.4
					h0.2v3.5c0,0.3,0.2,0.5,0.5,0.6l0,0c0.2,0,0.3,0,0.4-0.2c0.1-0.1,0.2-0.3,0.2-0.5v-3.4l0,0c0.4,0,0.6-0.3,0.6-0.6V285
					c0-0.9-0.7-1.7-1.6-1.7h-0.7c-0.9,0-1.7,0.7-1.7,1.6v2.6C764.8,287.9,765,288.2,765.4,288.2z"/>
				<path class="st3" d="M770.3,288.2L770.3,288.2l0.1,3.5c0,0.3,0.3,0.6,0.6,0.6c0.2,0,0.3,0,0.4-0.1c0.1-0.1,0.2-0.3,0.2-0.5v-3.4
					h0.2v3.5c0,0.3,0.3,0.6,0.6,0.6c0.2,0,0.3,0,0.4-0.1c0.1-0.1,0.2-0.3,0.2-0.5v-3.4l0,0c0.4,0,0.6-0.3,0.6-0.6v-2.6
					c0-0.9-0.7-1.7-1.6-1.7h-0.7c-0.9,0-1.7,0.7-1.7,1.6v2.6C769.7,287.9,770,288.2,770.3,288.2z"/>
				<path class="st3" d="M775.2,288.3L775.2,288.3v3.6c0,0.3,0.3,0.6,0.6,0.6c0.2,0,0.3,0,0.4-0.1c0.1-0.1,0.2-0.3,0.2-0.5v-3.5h0.2
					v3.6c0,0.3,0.3,0.6,0.6,0.6c0.2,0,0.3,0,0.4-0.1c0.1-0.1,0.2-0.3,0.2-0.5v-3.5l0,0c0.4,0,0.6-0.3,0.6-0.6v-2.6
					c0-0.9-0.7-1.7-1.6-1.7h-0.7c-0.9,0-1.7,0.7-1.7,1.6v2.6C774.5,288,774.8,288.2,775.2,288.3z"/>
			</g>
		</g>
		<g>
			<g>
				<circle class="st13" cx="641.6" cy="488.2" r="19.6"/>
			</g>
			<path class="st3" d="M651.4,480h-5.8c-0.3,0-0.6,0.3-0.6,0.6v2.7h-4.1c-0.3,0-0.6,0.3-0.6,0.6v2.7h-4.1c-0.3,0-0.6,0.3-0.6,0.6
				v2.8h-4.1c-0.3,0-0.6,0.3-0.6,0.6v4.9c0,0.3,0.3,0.6,0.6,0.6h6c0.1,0,0.2,0,0.3-0.1l13.7-9.7c0.2-0.1,0.3-0.3,0.3-0.5v-5.3
				C652,480.3,651.7,480,651.4,480z M650.8,481.3v4.3l-13.3,9.4h-5.2v-3.6h4.1c0.3,0,0.6-0.3,0.6-0.6V488h4.1c0.3,0,0.6-0.3,0.6-0.6
				v-2.7h4.1c0.3,0,0.6-0.3,0.6-0.6v-2.7L650.8,481.3z"/>
			<g>
				<path class="st13" d="M641.6,505.6c0.6,0.6,1,1.2,1.4,1.9c0,0.6,0,1.2,0,1.9v3.7c0,1.2,0,4.4,0,5.6c-0.4,0.6-0.8,1.2-1.4,1.9
					c-0.6-0.6-1-1.2-1.4-1.9c0-1.2,0-4.4,0-5.6v-3.7c0-0.6,0-1.2,0-1.9C640.6,506.9,641,506.2,641.6,505.6L641.6,505.6z"/>
			</g>
		</g>
		<g>
			<g>
				<circle class="st13" cx="486.1" cy="443.2" r="19.6"/>
			</g>
			<path class="st3" d="M495.9,435h-5.8c-0.3,0-0.6,0.3-0.6,0.6v2.7h-4.1c-0.3,0-0.6,0.3-0.6,0.6v2.7h-4.1c-0.3,0-0.6,0.3-0.6,0.6
				v2.8H476c-0.3,0-0.6,0.3-0.6,0.6v4.9c0,0.3,0.3,0.6,0.6,0.6h6c0.1,0,0.2,0,0.3-0.1l13.7-9.7c0.2-0.1,0.3-0.3,0.3-0.5v-5.3
				C496.5,435.3,496.2,435,495.9,435z M495.3,436.3v4.3L482,450h-5.2v-3.6h4.1c0.3,0,0.6-0.3,0.6-0.6V443h4.1c0.3,0,0.6-0.3,0.6-0.6
				v-2.7h4.1c0.3,0,0.6-0.3,0.6-0.6v-2.7L495.3,436.3z"/>
			<g>
				<path class="st13" d="M486.1,460.6c0.6,0.6,1,1.2,1.4,1.9c0,0.6,0,1.2,0,1.9v3.7c0,1.2,0,4.4,0,5.6c-0.4,0.6-0.8,1.2-1.4,1.9
					c-0.6-0.6-1-1.2-1.4-1.9c0-1.2,0-4.4,0-5.6v-3.7c0-0.6,0-1.2,0-1.9C485.1,461.9,485.5,461.3,486.1,460.6L486.1,460.6z"/>
			</g>
		</g>
		<g>
			<g>
				<circle class="st13" cx="1030.2" cy="762" r="19.6"/>
			</g>
			<path class="st3" d="M1040,753.8h-5.8c-0.3,0-0.6,0.3-0.6,0.6v2.7h-4.1c-0.3,0-0.6,0.3-0.6,0.6v2.7h-4.1c-0.3,0-0.6,0.3-0.6,0.6
				v2.8h-4.1c-0.3,0-0.6,0.3-0.6,0.6v4.9c0,0.3,0.3,0.6,0.6,0.6h6c0.1,0,0.2,0,0.3-0.1l13.7-9.7c0.2-0.1,0.3-0.3,0.3-0.5v-5.3
				C1040.6,754.1,1040.3,753.8,1040,753.8z M1039.4,755.1v4.3l-13.3,9.4h-5.2v-3.6h4.1c0.3,0,0.6-0.3,0.6-0.6v-2.8h4.1
				c0.3,0,0.6-0.3,0.6-0.6v-2.7h4.1c0.3,0,0.6-0.3,0.6-0.6v-2.7L1039.4,755.1z"/>
			<g>
				<path class="st13" d="M1030.2,779.4c0.6,0.6,1,1.2,1.4,1.9c0,0.6,0,1.2,0,1.9v3.7c0,1.2,0,4.4,0,5.6c-0.4,0.6-0.8,1.2-1.4,1.9
					c-0.6-0.6-1-1.2-1.4-1.9c0-1.2,0-4.4,0-5.6v-3.7c0-0.6,0-1.2,0-1.9C1029.2,780.7,1029.6,780,1030.2,779.4L1030.2,779.4z"/>
			</g>
		</g>
		<g>
			<g>
				<circle class="st13" cx="846.5" cy="589.6" r="19.6"/>
			</g>
			<path class="st3" d="M856.3,581.5h-5.8c-0.3,0-0.6,0.3-0.6,0.6v2.8h-4.1c-0.3,0-0.6,0.3-0.6,0.6v2.7h-4.1c-0.3,0-0.6,0.3-0.6,0.6
				v2.8h-4.1c-0.3,0-0.6,0.3-0.6,0.6v4.9c0,0.3,0.3,0.6,0.6,0.6h6c0.1,0,0.2,0,0.3-0.1l13.7-9.7c0.2-0.1,0.3-0.3,0.3-0.5v-5.3
				C856.9,581.8,856.7,581.5,856.3,581.5z M855.8,582.7v4.4l-13.3,9.5h-5.2v-3.7h4.1c0.3,0,0.6-0.3,0.6-0.6v-2.8h4.1
				c0.3,0,0.6-0.3,0.6-0.6v-2.7h4.1c0.3,0,0.6-0.3,0.6-0.6v-2.8L855.8,582.7z"/>
			<g>
				<path class="st13" d="M846.5,607.1c0.6,0.6,1,1.2,1.4,1.9c0,0.6,0,1.2,0,1.9v3.7c0,1.2,0,4.4,0,5.6c-0.4,0.6-0.8,1.2-1.4,1.9
					c-0.6-0.6-1-1.2-1.4-1.9c0-1.2,0-4.4,0-5.6v-3.7c0-0.6,0-1.2,0-1.9C845.5,608.4,845.9,607.7,846.5,607.1L846.5,607.1z"/>
			</g>
		</g>
		<g>
			<g>
				<circle class="st13" cx="1340.5" cy="625.9" r="19.6"/>
			</g>
			<g>
				<path class="st13" d="M1340.5,643.4c1.1,1.2,1.4,2.1,1.2,3.7v3.7c0,1.2,0,4.4,0,5.6c-0.4,0.6-0.7,1.2-1.2,1.9
					c-0.5-0.6-0.8-1.2-1.2-1.9c0-1.2,0-4.4,0-5.6v-3.7C1339.1,645.5,1339.4,644.6,1340.5,643.4L1340.5,643.4z"/>
			</g>
			<g>
				<path class="st3" d="M1349.1,621.9l-17-0.2c-0.7,0-1.2,0.5-1.2,1.2l-0.1,12.9c0,0.7,0.5,1.2,1.2,1.2l17,0.2
					c0.7,0,1.2-0.5,1.2-1.2l0.1-12.9C1350.3,622.5,1349.8,621.9,1349.1,621.9z M1332,623C1332,623,1332,622.9,1332,623l17.1,0.1l0,0
					L1349,636l0,0l-17-0.2l0,0V623z"/>
				<path class="st3" d="M1335.9,620.5C1336,620.6,1336,620.6,1335.9,620.5C1336,620.6,1336,620.6,1335.9,620.5
					c0.1,0.1,0.2,0.1,0.2,0.2l0,0l0,0c0.1,0,0.1,0,0.2,0l0,0l0,0l0,0l0,0c0.1,0,0.1,0,0.2,0l0,0c0.1,0,0.1-0.1,0.2-0.1l0,0
					c0,0,0,0,0.1-0.1l0,0l2.9-3.5c0.1-0.1,0.2-0.3,0.1-0.5c0-0.2-0.1-0.3-0.2-0.4c-0.3-0.2-0.7-0.2-0.9,0.1l-1.8,2.2l0.1-5.3
					c0-0.3-0.3-0.6-0.6-0.6s-0.6,0.3-0.6,0.6l-0.1,5.5l-1.6-1.9c-0.1-0.1-0.3-0.2-0.4-0.2c-0.2,0-0.3,0-0.4,0.1s-0.2,0.3-0.2,0.4
					c0,0.2,0,0.3,0.1,0.4L1335.9,620.5z"/>
				<path class="st3" d="M1342.2,616.8c0.2,0,0.3-0.1,0.5-0.2l1.7-1.9l-0.1,5.5c0,0.3,0.3,0.6,0.6,0.6c0.3,0,0.6-0.3,0.6-0.6
					l0.1-5.3l1.7,2.2c0.2,0.3,0.6,0.3,0.9,0.1s0.3-0.6,0.1-0.9l-2.8-3.6l0,0c0,0,0-0.1-0.1-0.1l0,0l0,0c0,0-0.1-0.1-0.2-0.1l0,0
					c-0.1,0-0.1,0-0.2,0l0,0c-0.1,0-0.1,0-0.2,0l0,0l0,0c-0.1,0-0.1,0-0.1,0.1l0,0l-0.1,0.1l-2.8,3.1c-0.2,0.3-0.2,0.6,0.1,0.9
					C1341.9,616.8,1342,616.8,1342.2,616.8z"/>
				<path class="st3" d="M1335.6,625.9c0.5,0,0.9-0.4,0.9-0.9s-0.4-0.9-0.9-0.9s-0.9,0.4-0.9,0.9S1335.1,625.9,1335.6,625.9z"/>
				<path class="st3" d="M1345.4,626c0.5,0,0.9-0.4,0.9-0.9s-0.4-0.9-0.9-0.9s-0.9,0.4-0.9,0.9S1344.9,626,1345.4,626z"/>
				<path class="st3" d="M1340.5,626c0.5,0,0.9-0.4,0.9-0.9s-0.4-0.9-0.9-0.9s-0.9,0.4-0.9,0.9S1340,626,1340.5,626z"/>
				<path class="st3" d="M1334.2,631L1334.2,631l0.1,3.5c0,0.3,0.3,0.5,0.6,0.6c0.2,0,0.3,0,0.4-0.2c0.1-0.1,0.2-0.3,0.2-0.5V631
					h0.2v3.5c0,0.3,0.2,0.5,0.5,0.6l0,0c0.2,0,0.3,0,0.4-0.2c0.1-0.1,0.2-0.3,0.2-0.5V631l0,0c0.4,0,0.6-0.3,0.6-0.6v-2.6
					c0-0.9-0.7-1.7-1.6-1.7h-0.7c-0.9,0-1.7,0.7-1.7,1.6v2.6C1333.6,630.7,1333.8,631,1334.2,631z"/>
				<path class="st3" d="M1339.1,631L1339.1,631l0.1,3.5c0,0.3,0.3,0.6,0.6,0.6c0.2,0,0.3,0,0.4-0.1s0.2-0.3,0.2-0.5v-3.4h0.2v3.5
					c0,0.3,0.3,0.6,0.6,0.6c0.2,0,0.3,0,0.4-0.1s0.2-0.3,0.2-0.5v-3.4l0,0c0.4,0,0.6-0.3,0.6-0.6V628c0-0.9-0.7-1.7-1.6-1.7h-0.7
					c-0.9,0-1.7,0.7-1.7,1.6v2.6C1338.5,630.8,1338.8,631,1339.1,631z"/>
				<path class="st3" d="M1344,631.1L1344,631.1v3.6c0,0.3,0.3,0.6,0.6,0.6c0.2,0,0.3,0,0.4-0.2c0.1-0.1,0.2-0.3,0.2-0.5v-3.5h0.2
					v3.6c0,0.3,0.3,0.6,0.6,0.6c0.2,0,0.3,0,0.4-0.2c0.1-0.1,0.2-0.3,0.2-0.5v-3.5l0,0c0.4,0,0.6-0.3,0.6-0.6v-2.6
					c0-0.9-0.7-1.7-1.6-1.7h-0.7c-0.9,0-1.7,0.7-1.7,1.6v2.6C1343.3,630.8,1343.6,631.1,1344,631.1z"/>
			</g>
		</g>
		<g>
			<g>
				<circle class="st13" cx="483.2" cy="640.1" r="19.6"/>
			</g>
			<g>
				<path class="st13" d="M483.2,657.6c1.1,1.2,1.4,2.1,1.2,3.7v3.7c0,1.2,0,4.4,0,5.6c-0.4,0.6-0.7,1.2-1.2,1.9
					c-0.5-0.6-0.8-1.2-1.2-1.9c0-1.2,0-4.4,0-5.6v-3.7C481.9,659.7,482.2,658.8,483.2,657.6L483.2,657.6z"/>
			</g>
			<g>
				<path class="st3" d="M491.8,636.1l-17-0.2c-0.7,0-1.2,0.5-1.2,1.2l-0.1,12.9c0,0.7,0.5,1.2,1.2,1.2l17,0.2
					c0.7,0,1.2-0.5,1.2-1.2l0.1-12.9C493.1,636.7,492.5,636.1,491.8,636.1z M474.7,637.2C474.7,637.2,474.8,637.1,474.7,637.2
					l17.1,0.1l0,0l-0.1,12.9l0,0l-17-0.2l0,0V637.2z"/>
				<path class="st3" d="M478.7,634.7C478.7,634.8,478.7,634.8,478.7,634.7L478.7,634.7c0.1,0.1,0.2,0.1,0.2,0.2l0,0l0,0
					c0.1,0,0.1,0,0.2,0l0,0l0,0l0,0l0,0c0.1,0,0.1,0,0.2,0l0,0c0.1,0,0.1-0.1,0.2-0.1l0,0c0,0,0,0,0.1-0.1l0,0l2.9-3.5
					c0.1-0.1,0.2-0.3,0.1-0.5c0-0.2-0.1-0.3-0.2-0.4c-0.3-0.2-0.7-0.2-0.9,0.1l-1.8,2.2l0.1-5.3c0-0.3-0.3-0.6-0.6-0.6
					c-0.3,0-0.6,0.3-0.6,0.6l-0.1,5.5l-1.6-1.9c-0.1-0.1-0.3-0.2-0.4-0.2c-0.2,0-0.3,0-0.4,0.1s-0.2,0.3-0.2,0.4
					c0,0.2,0,0.3,0.1,0.4L478.7,634.7z"/>
				<path class="st3" d="M484.9,631c0.2,0,0.3-0.1,0.5-0.2l1.7-1.9l-0.1,5.5c0,0.3,0.3,0.6,0.6,0.6s0.6-0.3,0.6-0.6l0.1-5.3l1.7,2.2
					c0.2,0.3,0.6,0.3,0.9,0.1s0.3-0.6,0.1-0.9l-2.8-3.6l0,0c0,0,0-0.1-0.1-0.1l0,0l0,0c0,0-0.1-0.1-0.2-0.1l0,0c-0.1,0-0.1,0-0.2,0
					l0,0c-0.1,0-0.1,0-0.2,0l0,0l0,0c-0.1,0-0.1,0-0.1,0.1l0,0l-0.1,0.1l-2.8,3.1c-0.2,0.3-0.2,0.6,0.1,0.9
					C484.7,631,484.8,631,484.9,631z"/>
				<path class="st3" d="M478.3,640.1c0.5,0,0.9-0.4,0.9-0.9s-0.4-0.9-0.9-0.9s-0.9,0.4-0.9,0.9
					C477.4,639.7,477.8,640.1,478.3,640.1z"/>
				<path class="st3" d="M488.1,640.2c0.5,0,0.9-0.4,0.9-0.9s-0.4-0.9-0.9-0.9s-0.9,0.4-0.9,0.9S487.6,640.2,488.1,640.2z"/>
				<path class="st3" d="M483.3,640.2c0.5,0,0.9-0.4,0.9-0.9s-0.4-0.9-0.9-0.9s-0.9,0.4-0.9,0.9S482.8,640.2,483.3,640.2z"/>
				<path class="st3" d="M476.9,645.2L476.9,645.2l0.1,3.5c0,0.3,0.3,0.5,0.6,0.6c0.2,0,0.3,0,0.4-0.2c0.1-0.1,0.2-0.3,0.2-0.5v-3.4
					h0.2v3.5c0,0.3,0.2,0.5,0.5,0.6l0,0c0.2,0,0.3,0,0.4-0.2c0.1-0.1,0.2-0.3,0.2-0.5v-3.4l0,0c0.4,0,0.6-0.3,0.6-0.6V642
					c0-0.9-0.7-1.7-1.6-1.7h-0.7c-0.9,0-1.7,0.7-1.7,1.6v2.6C476.3,644.9,476.6,645.2,476.9,645.2z"/>
				<path class="st3" d="M481.9,645.3L481.9,645.3l0.1,3.5c0,0.3,0.3,0.6,0.6,0.6c0.2,0,0.3,0,0.4-0.1s0.2-0.3,0.2-0.5v-3.4h0.2v3.5
					c0,0.3,0.3,0.6,0.6,0.6c0.2,0,0.3,0,0.4-0.1s0.2-0.3,0.2-0.5v-3.4l0,0c0.4,0,0.6-0.3,0.6-0.6v-2.6c0-0.9-0.7-1.7-1.6-1.7h-0.7
					c-0.9,0-1.7,0.7-1.7,1.6v2.6C481.3,645,481.5,645.3,481.9,645.3z"/>
				<path class="st3" d="M486.7,645.3L486.7,645.3v3.6c0,0.3,0.3,0.6,0.6,0.6c0.2,0,0.3,0,0.4-0.2c0.1-0.1,0.2-0.3,0.2-0.5v-3.5h0.2
					v3.6c0,0.3,0.3,0.6,0.6,0.6c0.2,0,0.3,0,0.4-0.1s0.2-0.3,0.2-0.5v-3.5l0,0c0.4,0,0.6-0.3,0.6-0.6v-2.6c0-0.9-0.7-1.7-1.6-1.7
					h-0.7c-0.9,0-1.7,0.7-1.7,1.6v2.6C486.1,645,486.4,645.3,486.7,645.3z"/>
			</g>
		</g>
		<g>
			<g>
				<path class="st13" d="M747,665.6c0.6,0.6,1,1.2,1.4,1.9c0,0.6,0,1.2,0,1.9v3.7c0,1.2,0,4.4,0,5.6c-0.4,0.6-0.8,1.2-1.4,1.9
					c-0.6-0.6-1-1.2-1.4-1.9c0-1.2,0-4.4,0-5.6v-3.7c0-0.6,0-1.2,0-1.9C746,666.8,746.4,666.2,747,665.6L747,665.6z"/>
			</g>
			<g>
				<path class="st14" d="M747,668.4c-11.2,0-20.3-9.1-20.3-20.3s9.1-20.3,20.3-20.3s20.3,9.1,20.3,20.3
					C767.3,659.3,758.2,668.4,747,668.4z"/>
				<g>
					<path class="st13" d="M747,628.5c10.8,0,19.6,8.8,19.6,19.6s-8.8,19.6-19.6,19.6s-19.6-8.8-19.6-19.6S736.2,628.5,747,628.5
						 M747,627.1c-11.6,0-21,9.4-21,21s9.4,21,21,21s21-9.4,21-21C768,636.6,758.6,627.1,747,627.1L747,627.1z"/>
				</g>
			</g>
			<g>
				<g>
					<path class="st3" d="M746,642.3v12.4h-3.4v-11l1.5,1.6h-9.4l1.5-1.6v11h-3.4v-12.4H746z"/>
					<path class="st3" d="M748.3,654.8v-12.4h3.4v9.7l-0.9-0.7l7.1-9h3.6l-10.1,12.4H748.3z M754.2,648.8l2.5-2.1l4.9,8h-3.9
						L754.2,648.8z"/>
				</g>
			</g>
		</g>
		<g>
			<g>
				<path class="st13" d="M947,689.4c0.6,0.6,1,1.2,1.4,1.9c0,0.6,0,1.2,0,1.9v3.7c0,1.2,0,4.4,0,5.6c-0.4,0.6-0.8,1.2-1.4,1.9
					c-0.6-0.6-1-1.2-1.4-1.9c0-1.2,0-4.4,0-5.6v-3.7c0-0.6,0-1.2,0-1.9C946,690.6,946.4,690,947,689.4L947,689.4z"/>
			</g>
			<g>
				<circle class="st14" cx="947" cy="671.9" r="20.3"/>
				<g>
					<path class="st13" d="M947,652.3c10.8,0,19.6,8.8,19.6,19.6s-8.8,19.6-19.6,19.6s-19.6-8.8-19.6-19.6S936.1,652.3,947,652.3
						 M947,650.9c-11.6,0-21,9.4-21,21s9.4,21,21,21s21-9.4,21-21C968,660.3,958.5,650.9,947,650.9L947,650.9z"/>
				</g>
			</g>
			<g>
				<g>
					<g>
						<path class="st3" d="M945,666v10.5l-1.2-1.1h3.4v5.6H944v-3.2l0.9,0.6H932V666h3.4v10.5l-1.1-1.1h8.5l-1.2,1.1V666H945z"/>
						<path class="st3" d="M962,666v12.4h-3.4v-11l1.5,1.6h-9.4l1.5-1.6v11h-3.4V666H962z"/>
					</g>
				</g>
			</g>
		</g>
		<g>
			<g>
				<path class="st13" d="M636,566.1c0.6,0.6,1,1.2,1.4,1.9c0,0.6,0,1.2,0,1.9v3.7c0,1.2,0,4.4,0,5.6c-0.4,0.6-0.8,1.2-1.4,1.9
					c-0.6-0.6-1-1.2-1.4-1.9c0-1.2,0-4.4,0-5.6v-3.7c0-0.6,0-1.2,0-1.9C635,567.3,635.4,566.7,636,566.1L636,566.1z"/>
			</g>
			<g>
				<ellipse class="st14" cx="636" cy="548.6" rx="20.3" ry="20.3"/>
				<g>
					<path class="st13" d="M636,529c10.8,0,19.6,8.8,19.6,19.6s-8.8,19.6-19.6,19.6s-19.6-8.8-19.6-19.6
						C616.3,537.8,625.1,529,636,529 M636,527.6c-11.6,0-21,9.4-21,21s9.4,21,21,21s21-9.4,21-21S647.5,527.6,636,527.6L636,527.6z"
						/>
				</g>
			</g>
			<g>
				<g>
					<path class="st3" d="M621.6,554.2v-3.7h1.8h0.7h5.8h0.6h2.4v3.7h-2.1v-1.7h-7v1.7H621.6z M623.3,544.2h8.1v7.7h-2.3v-6.7l1,1
						h-5.6l1-0.8c0.1,0.3,0.1,0.7,0.1,1s0,0.6,0,0.9c0,0.9-0.1,1.6-0.2,2.2c-0.1,0.6-0.4,1-0.7,1.3s-0.7,0.5-1.1,0.5l-1-0.8
						c0.3-0.3,0.5-0.8,0.7-1.4c0.1-0.6,0.2-1.3,0.2-2.2c0-0.4,0-0.8,0-1.3C623.4,545.1,623.3,544.7,623.3,544.2z"/>
					<path class="st3" d="M638.3,552.7c-1,0-1.8-0.2-2.6-0.5c-0.7-0.4-1.3-0.9-1.7-1.5s-0.6-1.4-0.6-2.3c0-0.9,0.2-1.6,0.6-2.3
						c0.4-0.6,1-1.2,1.7-1.5c0.7-0.4,1.6-0.5,2.6-0.5s1.9,0.2,2.6,0.5c0.7,0.4,1.3,0.9,1.7,1.5s0.6,1.4,0.6,2.3
						c0,0.9-0.2,1.6-0.6,2.3c-0.4,0.6-1,1.2-1.7,1.5C640.1,552.5,639.3,552.7,638.3,552.7z M638.3,550.6c0.5,0,1-0.1,1.4-0.3
						s0.7-0.4,0.9-0.8c0.2-0.3,0.3-0.7,0.3-1.2s-0.1-0.9-0.3-1.2s-0.5-0.6-0.9-0.8s-0.9-0.3-1.4-0.3s-1,0.1-1.4,0.3
						s-0.7,0.5-0.9,0.8s-0.3,0.7-0.3,1.2s0.1,0.9,0.3,1.2s0.5,0.6,0.9,0.8S637.7,550.6,638.3,550.6z"/>
					<path class="st3" d="M650.7,544.2v2h-5l1-1v7.3h-2.3v-8.3H650.7z"/>
				</g>
			</g>
		</g>
		<g>
			<g>
				<circle class="st13" cx="426" cy="563.8" r="19.6"/>
			</g>
			<g>
				<path class="st13" d="M426,581.2c1.1,1.2,1.4,2.1,1.2,3.7v3.7c0,1.2,0,4.4,0,5.6c-0.4,0.6-0.7,1.2-1.2,1.9
					c-0.5-0.6-0.8-1.2-1.2-1.9c0-1.2,0-4.4,0-5.6v-3.7C424.7,583.4,424.9,582.5,426,581.2L426,581.2z"/>
			</g>
			<g>
				<path class="st3" d="M439,558.6c-0.5-0.6-1.2-0.9-1.6-1c-0.1,0-0.3-0.1-0.4-0.1h-5.3c-0.3,0-0.6,0.1-0.9,0.3l-4.9,3.7v-0.6v-0.1
					c0-0.1-0.1-0.3-0.1-0.4c-0.3-0.7-0.8-1.1-1.4-1.2c-1-0.2-1.7,0.4-1.8,0.4c-0.6,0.5-0.7,1.3-0.7,1.5v3.4l-1.3,1
					c-0.1,0-0.1,0.1-0.2,0.1h-3.5c-0.1,0-0.3,0-0.4,0.1c-0.5,0.1-1.6,0.6-2.2,1.9c-0.6,1.4-0.1,2.6,0,3c0.5,1.1,1.4,1.6,1.9,1.8
					c0.2,0.1,0.3,0.1,0.5,0.1h5.9c0.3,0,0.6-0.1,0.9-0.3l10.3-7.7c0.1,0,0.1-0.1,0.2-0.1h3.3c0.1,0,0.2,0,0.3,0
					c0.3-0.1,0.6-0.2,0.9-0.3c1.1-0.6,1.5-1.8,1.5-2.3C440.2,560,439.1,558.7,439,558.6z M438.8,561.4c-0.1,0.3-0.3,1.1-1,1.5
					c-0.2,0.1-0.3,0.2-0.5,0.2l0,0H434c-0.3,0-0.6,0.1-0.9,0.3l-10.3,7.7c-0.1,0-0.1,0.1-0.2,0.1h-5.9h-0.1c-0.3-0.1-1-0.5-1.3-1.2
					c-0.1-0.2-0.5-1.1,0-2c0.4-0.8,1.2-1.2,1.5-1.3h0.1h3.5c0.3,0,0.6-0.1,0.9-0.3l10.3-7.7c0.1,0,0.1-0.1,0.2-0.1h5.3h0.1
					c0.3,0.1,0.7,0.3,1.1,0.7C438.2,559.4,439,560.3,438.8,561.4z"/>
				<path class="st3" d="M423.8,559c1,0,1.9-0.8,1.9-1.9c0-1-0.8-1.9-1.9-1.9c-1,0-1.9,0.8-1.9,1.9C422,558.2,422.8,559,423.8,559z"
					/>
			</g>
		</g>
		<g>
			<g>
				<circle class="st13" cx="1081.6" cy="671.2" r="19.6"/>
			</g>
			<g>
				<path class="st13" d="M1081.6,688.7c1.1,1.2,1.4,2.1,1.2,3.7v3.7c0,1.2,0,4.4,0,5.6c-0.4,0.6-0.7,1.2-1.2,1.9
					c-0.5-0.6-0.8-1.2-1.2-1.9c0-1.2,0-4.4,0-5.6v-3.7C1080.3,690.9,1080.6,689.9,1081.6,688.7L1081.6,688.7z"/>
			</g>
			<g>
				<path class="st3" d="M1094.6,666c-0.5-0.6-1.2-0.9-1.6-1c-0.1,0-0.3-0.1-0.4-0.1h-5.3c-0.3,0-0.6,0.1-0.9,0.3l-4.9,3.7v-0.6
					v-0.1c0-0.1-0.1-0.3-0.1-0.4c-0.3-0.7-0.8-1.1-1.4-1.2c-1-0.2-1.7,0.4-1.8,0.4c-0.6,0.5-0.7,1.3-0.7,1.5v3.4l-1.3,1
					c-0.1,0-0.1,0.1-0.2,0.1h-3.5c-0.1,0-0.3,0-0.4,0.1c-0.5,0.1-1.6,0.6-2.2,1.9c-0.6,1.4-0.1,2.6,0,3c0.5,1.1,1.4,1.6,1.9,1.8
					c0.2,0.1,0.3,0.1,0.5,0.1h5.9c0.3,0,0.6-0.1,0.9-0.3l10.3-7.7c0.1,0,0.1-0.1,0.2-0.1h3.3c0.1,0,0.2,0,0.3,0
					c0.3-0.1,0.6-0.2,0.9-0.3c1.1-0.6,1.5-1.8,1.5-2.3C1095.8,667.4,1094.8,666.2,1094.6,666z M1094.4,668.9c-0.1,0.3-0.3,1.1-1,1.5
					c-0.2,0.1-0.3,0.2-0.5,0.2l0,0h-3.3c-0.3,0-0.6,0.1-0.9,0.3l-10.3,7.7c-0.1,0-0.1,0.1-0.2,0.1h-5.9h-0.1c-0.3-0.1-1-0.5-1.3-1.2
					c-0.1-0.2-0.5-1.1,0-2c0.4-0.8,1.2-1.2,1.5-1.3h0.1h3.5c0.3,0,0.6-0.1,0.9-0.3l10.3-7.7c0.1,0,0.1-0.1,0.2-0.1h5.3h0.1
					c0.3,0.1,0.7,0.3,1.1,0.7C1093.8,666.8,1094.6,667.7,1094.4,668.9z"/>
				<path class="st3" d="M1079.5,666.5c1,0,1.9-0.8,1.9-1.9c0-1-0.8-1.9-1.9-1.9c-1,0-1.9,0.8-1.9,1.9
					C1077.6,665.6,1078.4,666.5,1079.5,666.5z"/>
			</g>
		</g>
		<g>
			<g>
				<path class="st13" d="M732.2,477.7c0.6,0.6,1,1.2,1.4,1.9c0,0.6,0,1.2,0,1.9v3.7c0,1.2,0,4.4,0,5.6c-0.4,0.6-0.8,1.2-1.4,1.9
					c-0.6-0.6-1-1.2-1.4-1.9c0-1.2,0-4.4,0-5.6v-3.7c0-0.6,0-1.2,0-1.9C731.2,478.9,731.6,478.3,732.2,477.7L732.2,477.7z"/>
			</g>
			<g>
				<ellipse class="st14" cx="732.2" cy="460.2" rx="20.3" ry="20.3"/>
				<g>
					<path class="st13" d="M732.2,440.6c10.8,0,19.6,8.8,19.6,19.6c0,10.8-8.8,19.6-19.6,19.6s-19.6-8.8-19.6-19.6
						C712.6,449.4,721.4,440.6,732.2,440.6 M732.2,439.2c-11.6,0-21,9.4-21,21s9.4,21,21,21s21-9.4,21-21S743.8,439.2,732.2,439.2
						L732.2,439.2z"/>
				</g>
			</g>
			<g>
				<g>
					<path class="st3" d="M715.6,465.8v-3.7h1.8h0.7h5.8h0.6h2.4v3.7h-2.1v-1.7h-7v1.7H715.6z M717.3,455.8h8.1v7.7h-2.3v-6.7l1,1
						h-5.6l1-0.8c0.1,0.3,0.1,0.7,0.1,1s0,0.6,0,0.9c0,0.9-0.1,1.6-0.2,2.2c-0.1,0.6-0.4,1-0.7,1.3s-0.7,0.5-1.1,0.5l-1-0.8
						c0.3-0.3,0.5-0.8,0.7-1.4c0.1-0.6,0.2-1.3,0.2-2.2c0-0.4,0-0.8,0-1.3C717.4,456.8,717.3,456.3,717.3,455.8z"/>
					<path class="st3" d="M736.7,455.8v8.3h-2.3v-7.3l1,1h-6.3l1-1v7.3h-2.3v-8.3H736.7z"/>
					<path class="st3" d="M742.8,464.3c-1,0-1.8-0.2-2.6-0.5c-0.7-0.4-1.3-0.9-1.7-1.5s-0.6-1.4-0.6-2.3s0.2-1.6,0.6-2.3
						c0.4-0.6,1-1.2,1.7-1.5c0.7-0.4,1.6-0.5,2.6-0.5s1.9,0.2,2.6,0.5s1.3,0.9,1.7,1.5s0.6,1.4,0.6,2.3s-0.2,1.6-0.6,2.3
						c-0.4,0.6-1,1.2-1.7,1.5C744.7,464.1,743.8,464.3,742.8,464.3z M742.8,462.2c0.5,0,1-0.1,1.4-0.3c0.4-0.2,0.7-0.4,0.9-0.8
						c0.2-0.3,0.3-0.7,0.3-1.2s-0.1-0.9-0.3-1.2c-0.2-0.3-0.5-0.6-0.9-0.8c-0.4-0.2-0.9-0.3-1.4-0.3s-1,0.1-1.4,0.3
						c-0.4,0.2-0.7,0.5-0.9,0.8s-0.3,0.7-0.3,1.2s0.1,0.9,0.3,1.2c0.2,0.3,0.5,0.6,0.9,0.8C741.8,462.2,742.3,462.2,742.8,462.2z"/>
				</g>
			</g>
		</g>
		<g>
			<g>
				<path class="st13" d="M798.4,408.5c0.6,0.6,1,1.2,1.4,1.9c0,0.6,0,1.2,0,1.9v3.7c0,1.2,0,4.4,0,5.6c-0.4,0.6-0.8,1.2-1.4,1.9
					c-0.6-0.6-1-1.2-1.4-1.9c0-1.2,0-4.4,0-5.6v-3.7c0-0.6,0-1.2,0-1.9C797.4,409.8,797.8,409.2,798.4,408.5L798.4,408.5z"/>
			</g>
			<g>
				<ellipse class="st14" cx="798.4" cy="391" rx="20.3" ry="20.3"/>
				<path class="st13" d="M798.4,371.5c10.8,0,19.6,8.8,19.6,19.6c0,10.8-8.8,19.6-19.6,19.6s-19.6-8.8-19.6-19.6
					C778.8,380.2,787.5,371.5,798.4,371.5 M798.4,370.1c-11.6,0-21,9.4-21,21s9.4,21,21,21s21-9.4,21-21S810,370.1,798.4,370.1
					L798.4,370.1z"/>
			</g>
			<g>
				<g>
					<path class="st3" d="M793,388.6h7.8c1.5,0,2.7,0.2,3.7,0.7s1.7,1.1,2.1,1.9c0.5,0.8,0.7,1.8,0.7,2.9s-0.3,2.1-0.8,2.9
						s-1.3,1.5-2.2,1.9c-1,0.5-2.1,0.7-3.5,0.7h-11.5l1.4-9.2l-1.4-8.5H806v3.7h-13.7l1.9-2.2l1.1,7l-1.2,8l-1.9-2.2h7.9
						c0.7,0,1.3-0.2,1.7-0.5c0.4-0.4,0.6-0.9,0.6-1.5s-0.2-1.1-0.6-1.5c-0.4-0.4-1-0.5-1.7-0.5H793V388.6z"/>
				</g>
			</g>
		</g>
		<g>
			<g>
				<path class="st13" d="M1203,559.3c0.6,0.6,1,1.2,1.4,1.9c0,0.6,0,1.2,0,1.9v3.7c0,1.2,0,4.4,0,5.6c-0.4,0.6-0.8,1.2-1.4,1.9
					c-0.6-0.6-1-1.2-1.4-1.9c0-1.2,0-4.4,0-5.6v-3.7c0-0.6,0-1.2,0-1.9C1202,560.5,1202.4,559.9,1203,559.3L1203,559.3z"/>
			</g>
			<g>
				
					<ellipse transform="matrix(0.9951 -9.854151e-02 9.854151e-02 0.9951 -47.5292 121.2669)" class="st14" cx="1203.9" cy="541.8" rx="20.3" ry="20.3"/>
				<g>
					<path class="st13" d="M1203.9,522.2c10.8,0,19.6,8.8,19.6,19.6s-8.8,19.6-19.6,19.6c-10.8,0-19.6-8.8-19.6-19.6
						S1193.1,522.2,1203.9,522.2 M1203.9,520.8c-11.6,0-21,9.4-21,21s9.4,21,21,21s21-9.4,21-21
						C1225,530.2,1215.5,520.8,1203.9,520.8L1203.9,520.8z"/>
				</g>
			</g>
			<g>
				<g>
					<g>
						<path class="st3" d="M1206.2,533c1.4,0,2.7,0.2,3.7,0.7c1.1,0.5,1.9,1.2,2.4,2.1c0.6,0.9,0.8,1.9,0.8,3.1
							c0,1.2-0.3,2.2-0.8,3.1c-0.6,0.9-1.4,1.6-2.4,2.1c-1.1,0.5-2.3,0.7-3.7,0.7h-7.5V541h7.2c0.8,0,1.4-0.2,1.8-0.6
							c0.4-0.4,0.6-0.9,0.6-1.6c0-0.7-0.2-1.2-0.6-1.6c-0.4-0.4-1-0.6-1.8-0.6h-6.8l2.1-2.2v15.7h-4.8V533H1206.2z"/>
					</g>
				</g>
			</g>
		</g>
		<g>
			<g>
				
					<ellipse transform="matrix(0.1602 -0.9871 0.9871 0.1602 -68.427 942.3733)" class="st13" cx="519.6" cy="511.4" rx="19.4" ry="19.4"/>
			</g>
			<g>
				<path class="st13" d="M519.6,528.6c1.1,1.2,1.4,2.1,1.2,3.7v3.7c0,1.2,0,4.4,0,5.5c-0.4,0.6-0.7,1.2-1.2,1.8
					c-0.5-0.6-0.8-1.2-1.2-1.8c0-1.2,0-4.3,0-5.5v-3.7C518.2,530.7,518.5,529.8,519.6,528.6L519.6,528.6z"/>
			</g>
			<g>
				<path class="st1" d="M528,509.5h-1.1v5.4c0.4,0.1,0.7,0.2,1.1,0.2c1.7,0,3.1-1.2,3.1-2.8C531.1,510.7,529.7,509.5,528,509.5z"/>
				<path class="st3" d="M520.1,502.3c0.7,0.5,1.3,1,1.3,2.2c0,0.8-0.8,1.6-1.2,1.7c-0.2,0.1-0.3,0.3-0.2,0.6
					c0.1,0.2,0.2,0.3,0.4,0.3c0.1,0,0.1,0,0.2,0c0.7-0.3,1.7-1.4,1.7-2.6c0-1.6-0.9-2.3-1.6-2.9c-0.6-0.5-1.1-0.9-1.1-1.8
					c0-1.3,1.2-1.9,1.5-1.9c0.2,0,0.4-0.2,0.4-0.4c0-0.2-0.2-0.4-0.4-0.4c-0.7,0-2.4,1-2.4,2.8C518.6,501.2,519.4,501.8,520.1,502.3
					z"/>
				<path class="st3" d="M516.3,502.8c0.6,0.5,1,0.8,1,1.8c0,0.6-0.6,1.3-0.9,1.4c-0.2,0.1-0.3,0.3-0.2,0.6c0.1,0.2,0.2,0.3,0.4,0.3
					c0.1,0,0.1,0,0.2,0c0.6-0.2,1.5-1.2,1.5-2.2c0-1.4-0.8-2-1.4-2.5c-0.5-0.4-0.9-0.7-0.9-1.4c0-1,1-1.5,1.2-1.5s0.4-0.2,0.4-0.4
					c0-0.2-0.2-0.4-0.4-0.4c-0.7,0-2.1,0.9-2.1,2.4C515.1,501.9,515.8,502.4,516.3,502.8z"/>
				<path class="st3" d="M528,508.9h-2.5l0,0h-12.9c-0.3,0-0.6,0.3-0.6,0.6v8.2c0,0.3,0.3,0.6,0.6,0.6h13.7c0.3,0,0.6-0.3,0.6-0.6
					v-2.2c0.4,0.1,0.7,0.2,1.1,0.2c2,0,3.7-1.5,3.7-3.4C531.6,510.4,530,508.9,528,508.9z M528,515.1c-0.4,0-0.8-0.1-1.1-0.2v-5.4
					h1.1c1.7,0,3.1,1.2,3.1,2.8C531.1,513.9,529.7,515.1,528,515.1z"/>
				<path class="st3" d="M529.1,519.7h-18.8c-0.3,0-0.6,0.3-0.6,0.6s0.3,0.6,0.6,0.6h18.8c0.3,0,0.6-0.3,0.6-0.6
					C529.7,520,529.4,519.7,529.1,519.7z"/>
			</g>
		</g>
	</g>
</g>
<g>
	<g>
		<polyline class="st15" points="1154.6,636.1 1155.5,884.3 1314.4,884.3 		"/>
		<g>
			<path class="st13" d="M1148.9,636.2c0-3.2,2.5-5.8,5.7-5.8s5.8,2.5,5.8,5.7s-2.5,5.8-5.7,5.8
				C1151.5,641.9,1148.9,639.3,1148.9,636.2z"/>
		</g>
	</g>
</g>
<g>
	<g>
		<polyline class="st15" points="870.7,733.7 870.7,884.3 1155.5,884.3 		"/>
		<g>
			<circle class="st13" cx="870.7" cy="733.7" r="5.7"/>
		</g>
	</g>
</g>
</svg>
