<?xml version="1.0" encoding="utf-8"?>
<!-- Generator: Adobe Illustrator 26.0.3, SVG Export Plug-In . SVG Version: 6.00 Build 0)  -->
<svg version="1.1" id="Слой_1" xmlns="http://www.w3.org/2000/svg" xmlns:xlink="http://www.w3.org/1999/xlink" x="0px" y="0px"
	 viewBox="0 0 1920 1080" style="enable-background:new 0 0 1920 1080;" xml:space="preserve">
<style type="text/css">
	.st0{fill:#66B9FF;}
	.st1{fill:#FFFFFF;}
	.st2{fill:none;stroke:#0085CC;stroke-width:4.3985;stroke-linecap:round;stroke-linejoin:round;stroke-miterlimit:10;}
	.st3{fill:none;stroke:#0085CC;stroke-width:1.4662;stroke-linecap:round;stroke-linejoin:round;stroke-miterlimit:10;}
	.st4{fill:none;stroke:#0085CC;stroke-width:4.4379;stroke-linecap:round;stroke-linejoin:round;stroke-miterlimit:10;}
	.st5{fill:none;stroke:#0085CC;stroke-width:6.8421;stroke-linecap:round;stroke-linejoin:round;stroke-miterlimit:10;}
	.st6{fill:none;stroke:#0085CC;stroke-width:1.97;stroke-linecap:round;stroke-linejoin:round;stroke-miterlimit:10;}
	.st7{fill:none;stroke:#0085CC;stroke-width:6.7196;stroke-linecap:round;stroke-linejoin:round;stroke-miterlimit:10;}
	.st8{fill:#1D0EB1;}
	.st9{fill:none;}
	.st10{fill:#FB493B;}
	.st11{fill:#FB493B;stroke:#FB493B;stroke-width:2.5161;stroke-linecap:round;stroke-linejoin:round;stroke-miterlimit:10;}
	.st12{fill:none;stroke:#1D0EB1;stroke-width:1.557;stroke-linecap:round;stroke-linejoin:round;}
	.st13{fill-rule:evenodd;clip-rule:evenodd;fill:#FFFFFF;}
	.st14{enable-background:new    ;}
	.st15{fill:#FB493B;stroke:#FB493B;stroke-width:2.1779;stroke-linecap:round;stroke-linejoin:round;stroke-miterlimit:10;}
	.st16{fill:#FB493B;stroke:#FB493B;stroke-width:1.9192;stroke-linecap:round;stroke-linejoin:round;stroke-miterlimit:10;}
</style>
<g>
	<g>
		<g>
			<polyline class="st0" points="598.8,306.4 529.6,375.5 427.7,434.3 467.2,447.4 265.1,649.9 265,650.1 365,696.7 323.7,725.5 
				451.7,789.4 534.4,831.4 656,900.6 699.6,875.6 787,928.6 1576.6,665.9 1698.1,625.5 1562.7,545.6 1601.7,532.8 1557.8,488.7 
				1467,518.8 1467.1,518.8 1341.1,560.8 1320,539.7 1077.1,620.6 1097.8,641.3 906.6,705 685.7,587.6 1081.5,263.2 1100.3,269.7 
				1080.8,289.1 1133.6,236.4 1032.4,202.7 1063.4,171.5 823.2,91.5 606.1,308.8 598.8,306.4 			"/>
		</g>
		<g>
			<polyline class="st1" points="599.1,280.2 529.8,349.3 427.8,408.2 467.3,421.4 265.1,624 265,624.1 365,670.9 323.7,699.6 
				451.8,763.6 434.4,774.5 454.2,785 495.7,807.2 515.4,817.8 534.6,805.6 656.3,874.9 700,849.9 787.4,902.9 1577.6,640 
				1699.2,599.5 1563.8,519.6 1602.7,506.8 1558.8,462.7 1468,492.8 1468,492.8 1342,534.8 1320.8,513.7 1077.7,594.7 1098.4,615.4 
				907.1,679.1 704.7,573.7 969.9,420.5 940.4,403.5 1081.5,262.9 1134.3,210.1 1033,176.4 1064.1,145.2 823.7,65.1 606.4,282.6 
				599.1,280.2 			"/>
		</g>
		<polygon class="st0" points="523.4,684.4 649.7,753.6 682.7,739.8 877.3,674.8 656.2,560.1 554.9,664.6 		"/>
		<g>
			<polyline class="st2" points="817.5,709.4 661,761.7 726.8,799.1 727.4,799.5 			"/>
			<polyline class="st2" points="485.5,631.3 506.6,638.4 517.1,644.4 			"/>
			<polyline class="st2" points="706.2,236.3 748.9,250.5 763.7,255.3 			"/>
			<line class="st2" x1="1365.3" y1="572.8" x2="1300.9" y2="594.4"/>
			<line class="st3" x1="1300.9" y1="594.4" x2="1331" y2="624.5"/>
			<line class="st2" x1="1300.9" y1="594.4" x2="1236.3" y2="615.8"/>
			<polyline class="st2" points="1365.3,572.8 1375.6,583.2 1395.7,603.1 			"/>
			<line class="st4" x1="517.1" y1="644.4" x2="520.4" y2="646.4"/>
			<polyline class="st2" points="537.7,656.3 543.3,659.5 544.6,660.3 			"/>
			<polyline class="st2" points="721.1,492.3 710.1,503.3 652.3,536.2 607.8,521.4 			"/>
			<polyline class="st2" points="652.3,536.2 629,549.6 591.9,537.3 			"/>
			<polyline class="st2" points="496.1,505.4 522.2,514.1 528.7,516.3 			"/>
			<polyline class="st2" points="558.7,526.3 562.3,527.5 591.9,537.3 			"/>
			<polyline class="st4" points="1563.8,519.9 1554.5,522.9 1540.1,514.6 1492.3,530.7 			"/>
			<polyline class="st5" points="700,850.1 787.4,903.1 809.8,895.7 			"/>
			<line class="st2" x1="858.7" y1="879.4" x2="727.4" y2="799.5"/>
			<polyline class="st2" points="726.8,799.1 824.4,766.6 861.7,754.2 			"/>
			<polyline class="st2" points="824.4,766.6 824.5,766.6 918,860.2 			"/>
			<line class="st5" x1="838.1" y1="886.9" x2="917.3" y2="860.5"/>
			<line class="st4" x1="305.6" y1="583.6" x2="460.6" y2="656.3"/>
			<polyline class="st2" points="564.4,614.3 397.3,558.7 347.3,542 			"/>
			<polyline class="st3" points="391.5,565.1 505.4,602.8 481.5,625.5 368.2,587.7 			"/>
			<line class="st3" x1="397.3" y1="558.7" x2="351.7" y2="604.2"/>
			<line class="st4" x1="460" y1="493.4" x2="411.8" y2="477.3"/>
			<line class="st2" x1="562.2" y1="439.2" x2="496.1" y2="505.4"/>
			<polyline class="st2" points="658,471.1 607.8,521.4 591.9,537.3 			"/>
			<line class="st2" x1="862.3" y1="382" x2="932.8" y2="311.6"/>
			<line class="st2" x1="706.2" y1="236.3" x2="676.8" y2="265.7"/>
			<line class="st2" x1="663.6" y1="278.8" x2="636.1" y2="306.5"/>
			<polyline class="st2" points="840.3,280.9 773,348.1 769.9,351.1 			"/>
			<line class="st2" x1="908.3" y1="303.6" x2="837.9" y2="373.8"/>
			<polyline class="st2" points="750.2,251.2 725.3,276.1 711.8,289.6 686.5,315.1 680.2,321.1 			"/>
			<line class="st2" x1="676.8" y1="265.7" x2="721" y2="280.4"/>
			<line class="st2" x1="663.6" y1="278.8" x2="707.7" y2="293.6"/>
			<line class="st2" x1="918" y1="230.5" x2="1018.2" y2="130.2"/>
			<polyline class="st2" points="907.9,93.5 807.7,193.7 795.8,189.7 			"/>
			<line class="st2" x1="723.6" y1="165.6" x2="774.5" y2="182.6"/>
			<polyline class="st2" points="1449,618.7 1393.7,563.4 1492.3,530.7 			"/>
			<line class="st2" x1="1042" y1="680.7" x2="934.2" y2="716.6"/>
			<polyline class="st2" points="956.1,782.9 935.8,762.6 886.7,778.9 			"/>
			<line class="st2" x1="1042" y1="680.7" x2="1097.3" y2="735.9"/>
			<polyline class="st2" points="989.4,771.9 964,780.3 956.1,782.9 			"/>
			<polyline class="st5" points="1081.5,263.2 1134.3,210.4 1033,176.7 1064.1,145.4 1018.2,130.2 907.9,93.5 823.7,65.4 
				706.6,182.6 606.4,282.8 599.1,280.5 529.8,349.6 427.8,408.5 467.4,421.6 411.8,477.3 359,530.3 347.3,542 305.6,583.6 
				293.3,596.1 			"/>
			<polyline class="st5" points="265.1,624.3 277.2,612.2 265,624.4 365.1,671.1 323.8,699.9 451.9,763.9 434.5,774.8 454.2,785.3 
							"/>
			<line class="st6" x1="1061.6" y1="283.1" x2="1061.6" y2="283.1"/>
			<path class="st3" d="M1433.6,504.5c-92-89.7-219.5-165.6-372-221.4"/>
			<line class="st2" x1="662.3" y1="339.2" x2="845.6" y2="400.3"/>
			<polyline class="st2" points="886.7,778.9 853,745.1 849.6,741.6 			"/>
			<line class="st2" x1="832.3" y1="724.2" x2="819.7" y2="711.6"/>
			<polyline class="st5" points="700,850.1 656.3,875.1 534.7,805.9 515.5,818 495.7,807.4 			"/>
			<polyline class="st4" points="579.9,777.7 703.2,848.3 700,850.1 			"/>
			<line class="st2" x1="485.5" y1="631.3" x2="455.8" y2="661"/>
			<line class="st2" x1="932.8" y1="311.6" x2="780.4" y2="261"/>
			<polyline class="st2" points="1097.3,735.9 1015,763.3 989.4,771.9 			"/>
			<path class="st3" d="M1433.6,504.5c-92-89.7-219.3-165.5-371.8-221.4"/>
			<line class="st3" x1="1455.5" y1="481.2" x2="1421.8" y2="493.3"/>
			<line class="st3" x1="1442.4" y1="469.4" x2="1409.3" y2="481.8"/>
			<line class="st3" x1="1429" y1="457.7" x2="1396.2" y2="470.6"/>
			<line class="st3" x1="1415.2" y1="446.2" x2="1382.8" y2="459.4"/>
			<line class="st3" x1="1400.9" y1="434.8" x2="1369.2" y2="448.4"/>
			<line class="st3" x1="1386.3" y1="423.6" x2="1355" y2="437.6"/>
			<line class="st3" x1="1371.4" y1="412.6" x2="1340.6" y2="426.9"/>
			<line class="st3" x1="1355.9" y1="401.7" x2="1325.7" y2="416.4"/>
			<line class="st3" x1="1340.1" y1="391.1" x2="1310.3" y2="406.1"/>
			<line class="st3" x1="1323.9" y1="380.7" x2="1294.7" y2="396"/>
			<line class="st3" x1="1307.4" y1="370.3" x2="1278.8" y2="386.2"/>
			<line class="st3" x1="1290.5" y1="360.2" x2="1262.3" y2="376.4"/>
			<line class="st3" x1="1273.2" y1="350.4" x2="1245.6" y2="366.9"/>
			<line class="st3" x1="1255.7" y1="340.8" x2="1228.8" y2="357.5"/>
			<line class="st3" x1="1237.7" y1="331.4" x2="1211.2" y2="348.4"/>
			<line class="st3" x1="1219.4" y1="322.1" x2="1193.8" y2="339.4"/>
			<line class="st3" x1="1200.8" y1="313.1" x2="1175.9" y2="330.6"/>
			<line class="st3" x1="1181.9" y1="304.3" x2="1157.2" y2="322.2"/>
			<line class="st3" x1="1162.6" y1="295.7" x2="1138.7" y2="313.9"/>
			<line class="st3" x1="1143.1" y1="287.4" x2="1120" y2="305.8"/>
			<line class="st3" x1="1123.4" y1="279.3" x2="1100.7" y2="298"/>
			<line class="st3" x1="1103.2" y1="271.4" x2="1081.2" y2="290.4"/>
			<polyline class="st3" points="1441.6,501.9 1447.7,484.1 1417,479 1421.4,460.7 1390.4,456.3 1393.5,437.9 1362.2,434.3 
				1364,416 1332.5,413.1 1333.1,394.7 1301.4,392.5 1300.7,374.1 1268.8,372.7 1266.7,354.3 1234.8,353.6 1231.5,335.4 
				1199.5,335.5 1194.8,317.3 1163.1,318.1 1157.1,300 1125.3,301.6 1118,283.7 1086.3,286 1076.8,267.9 			"/>
			<line class="st3" x1="947.8" y1="407" x2="966.5" y2="417.8"/>
			<polyline class="st3" points="1433.6,504.6 1343.2,534.7 1322,513.5 1078.9,594.5 1099.6,615.3 908.3,679 903.9,676.8 
				705.9,573.5 971.1,420.4 941.6,403.4 1061.6,283.1 1059.5,285.2 			"/>
			<line class="st4" x1="1080.8" y1="262.3" x2="1061.7" y2="281.5"/>
			<line class="st2" x1="1468" y1="493.1" x2="1433.6" y2="504.5"/>
			<line class="st2" x1="918" y1="230.5" x2="970.2" y2="247.9"/>
			<line class="st2" x1="1007.4" y1="260.2" x2="1064" y2="279.1"/>
			<polyline class="st3" points="882.3,437.7 792.9,489.4 882.3,437.7 905,450.8 815.4,502.5 905,450.8 			"/>
			<polyline class="st3" points="792.9,489.4 815.4,502.5 792.9,489.4 			"/>
			<line class="st2" x1="1236.3" y1="615.8" x2="1164" y2="639.9"/>
			<line class="st2" x1="1113.8" y1="656.6" x2="1042" y2="680.7"/>
			<line class="st4" x1="534.7" y1="805.9" x2="550.3" y2="796.2"/>
			<line class="st4" x1="567" y1="785.7" x2="579.9" y2="777.7"/>
			<line class="st2" x1="451.9" y1="763.9" x2="469.4" y2="752.9"/>
			<polyline class="st2" points="486.2,742.4 499.2,734.4 369.2,669.6 366.3,671.7 			"/>
			<polyline class="st2" points="544.6,660.3 511.2,679.5 455.8,661 			"/>
			<line class="st2" x1="1312.6" y1="664.2" x2="1258.1" y2="609.5"/>
			<line class="st2" x1="1395.7" y1="603.2" x2="1287.6" y2="639"/>
			<line class="st4" x1="1312.6" y1="664.2" x2="1420.6" y2="628.1"/>
			<line class="st2" x1="989.4" y1="771.9" x2="970.9" y2="753.2"/>
			<line class="st2" x1="953.5" y1="735.8" x2="934.3" y2="716.6"/>
			<line class="st2" x1="1458.3" y1="496.4" x2="1466.3" y2="504.4"/>
			<line class="st2" x1="458.7" y1="494.9" x2="426.9" y2="526.7"/>
			<polyline class="st2" points="624.9,460.2 659.1,471.5 677.7,477.7 			"/>
			<line class="st2" x1="562.2" y1="439.2" x2="595.5" y2="450.4"/>
			<line class="st2" x1="703.3" y1="486.3" x2="721.1" y2="492.3"/>
			<line class="st2" x1="413.9" y1="539.8" x2="395.5" y2="557.8"/>
			<polyline class="st2" points="723.4,335.4 788.1,271 793.7,265.4 			"/>
			<line class="st2" x1="1413" y1="620.5" x2="1420.4" y2="628"/>
			<line class="st2" x1="1417.5" y1="629.2" x2="1448.9" y2="618.7"/>
			<line class="st2" x1="1395" y1="602.6" x2="1403.4" y2="610.8"/>
			<polyline class="st2" points="1563.1,519.1 1553.4,522.3 1539.7,514.9 1492.3,530.7 			"/>
			<polyline class="st7" points="1468,493.1 1558.8,462.9 1602.7,507 1563.6,520 1580.6,530 1699.2,599.8 1577.6,640.3 918,860.2 
							"/>
			<path class="st2" d="M1269.1,348.1c77.1,42.8,144.1,91.5,198.9,145"/>
			<path class="st2" d="M1081.5,263.2c67.6,24.7,130.4,53.1,187.7,84.9"/>
			<polyline class="st2" points="1480.8,519.1 1512.2,550.6 1576.5,529.2 			"/>
			<polyline class="st2" points="862.3,382 818.3,367.3 815.4,366.3 			"/>
			<line class="st2" x1="637.2" y1="306.9" x2="680.2" y2="321.1"/>
			<line class="st2" x1="680.2" y1="321.1" x2="737.9" y2="340.3"/>
			<line class="st2" x1="755.4" y1="346.3" x2="792.7" y2="358.7"/>
			<polyline class="st2" points="826.1,718 817.5,709.4 672.2,757.8 			"/>
			<line class="st2" x1="1312.6" y1="664.2" x2="1420.6" y2="628.1"/>
			<line class="st2" x1="1460" y1="497.1" x2="1470.8" y2="493.3"/>
		</g>
	</g>
	<g>
		<path class="st8" d="M384,840.5l0.8-6.3L384,828h10.2c1.2,0,2.2,0.3,2.9,0.8c0.7,0.6,1.1,1.3,1.1,2.3c0,0.9-0.4,1.6-1.1,2.2
			c-0.7,0.6-1.7,0.9-3,1l0.3-0.7c1.5,0.1,2.6,0.4,3.4,0.9c0.8,0.6,1.2,1.4,1.2,2.4c0,1.1-0.4,1.9-1.2,2.6c-0.8,0.6-1.9,1-3.2,1H384z
			 M388.4,839.6l-1.7-1.8h6.4c0.5,0,0.8-0.1,1.1-0.3c0.2-0.2,0.4-0.5,0.4-0.9c0-0.3-0.1-0.6-0.4-0.9c-0.3-0.2-0.7-0.3-1.2-0.3h-5.4
			V833h4.8c0.5,0,0.8-0.1,1-0.3s0.4-0.5,0.4-0.8s-0.1-0.6-0.3-0.8c-0.2-0.2-0.5-0.3-1-0.3h-5.8l1.7-1.8l0.7,5.3L388.4,839.6z"/>
		<path class="st8" d="M399.1,840.5l5.8-7v1.3l-5.5-6.8h5l3.5,4.3h-1.3l3.5-4.3h4.9l-5.7,6.9l-0.2-1.8l6.2,7.4h-5.1l-3.8-4.6h1.4
			l-3.8,4.6L399.1,840.5L399.1,840.5z"/>
		<path class="st8" d="M423.6,840.9c-1.6,0-3-0.3-4.2-0.8s-2.1-1.3-2.8-2.3c-0.7-1-1-2.2-1-3.5s0.3-2.5,1-3.5s1.6-1.8,2.8-2.3
			c1.2-0.6,2.6-0.8,4.2-0.8s3,0.3,4.2,0.8c1.2,0.6,2.1,1.3,2.8,2.3c0.7,1,1,2.2,1,3.5s-0.3,2.5-1,3.5s-1.6,1.8-2.8,2.3
			C426.6,840.6,425.2,840.9,423.6,840.9z M423.6,837.6c0.7,0,1.4-0.1,1.9-0.4c0.5-0.3,0.9-0.6,1.2-1.1c0.3-0.5,0.4-1.1,0.4-1.8
			s-0.1-1.3-0.4-1.8s-0.7-0.9-1.2-1.1c-0.5-0.3-1.1-0.4-1.9-0.4c-0.7,0-1.4,0.1-1.9,0.4c-0.5,0.3-0.9,0.6-1.2,1.1
			c-0.3,0.5-0.4,1.1-0.4,1.8s0.1,1.3,0.4,1.8s0.7,0.9,1.2,1.1C422.3,837.4,422.9,837.6,423.6,837.6z"/>
		<path class="st8" d="M451.1,837.2v6.3h-3.9v-3h-10.9v3h-3.9v-6.3h3.8l0.8,0.1h9.1l0.8-0.1H451.1z M435.1,828h13.8v11.7h-4.5v-10.5
			l2,2h-9.2l1.7-1.6c0.2,0.6,0.3,1.2,0.4,1.7c0,0.5,0.1,1,0.1,1.5c0,2-0.3,3.6-1,4.7c-0.7,1.1-1.7,1.7-2.9,1.7l-1.8-1.5
			c1.1-0.8,1.7-2.7,1.7-5.8c0-0.6,0-1.2-0.1-1.9C435.2,829.3,435.2,828.7,435.1,828z"/>
	</g>
	<g>
		<g>
			<circle class="st8" cx="660.5" cy="485.1" r="19.4"/>
		</g>
		<path class="st1" d="M670.2,477h-5.7c-0.3,0-0.6,0.3-0.6,0.6v2.7h-4c-0.3,0-0.6,0.3-0.6,0.6v2.7h-4c-0.3,0-0.6,0.3-0.6,0.6v2.7h-4
			c-0.3,0-0.6,0.3-0.6,0.6v4.8c0,0.3,0.3,0.6,0.6,0.6h5.9c0.1,0,0.2,0,0.3-0.1l13.6-9.6c0.2-0.1,0.3-0.3,0.3-0.5v-5.3
			C670.8,477.3,670.6,477,670.2,477z M669.7,478.3v4.3l-13.2,9.4h-5.2v-3.6h4c0.3,0,0.6-0.3,0.6-0.6v-2.7h4c0.3,0,0.6-0.3,0.6-0.6
			v-2.7h4c0.3,0,0.6-0.3,0.6-0.6v-2.7L669.7,478.3z"/>
		<g>
			<path class="st8" d="M660.5,502.4c0,0,0.2,0.2,0.5,0.6c0.2,0.2,0.4,0.4,0.5,0.7c0.1,0.1,0.2,0.3,0.3,0.5s0,0.3,0,0.5
				c0,1.4,0,3.2,0,5.1s0,3.7,0,5.1c0,0.1,0,0.2,0,0.3s0,0.2,0,0.2c-0.1,0.2-0.2,0.3-0.3,0.5c-0.2,0.3-0.4,0.5-0.5,0.7
				c-0.3,0.4-0.5,0.6-0.5,0.6s-0.2-0.2-0.5-0.6c-0.2-0.2-0.3-0.4-0.5-0.7c-0.1-0.1-0.2-0.3-0.3-0.5c-0.1-0.1-0.1-0.2,0-0.2
				c0-0.1,0-0.2,0-0.3c0-1.4,0-3.2,0-5.1s0-3.7,0-5.1c0-0.2-0.1-0.3,0-0.5s0.2-0.3,0.3-0.5c0.2-0.3,0.4-0.5,0.5-0.7
				C660.3,502.7,660.5,502.4,660.5,502.4z"/>
		</g>
	</g>
	<g>
		<g>
			<circle class="st8" cx="848.9" cy="439" r="19.4"/>
		</g>
		<path class="st1" d="M858.7,430.9H853c-0.3,0-0.6,0.3-0.6,0.6v2.7h-4c-0.3,0-0.6,0.3-0.6,0.6v2.7h-4c-0.3,0-0.6,0.3-0.6,0.6v2.7
			h-4c-0.3,0-0.6,0.3-0.6,0.6v4.8c0,0.3,0.3,0.6,0.6,0.6h5.9c0.1,0,0.2,0,0.3-0.1l13.6-9.6c0.2-0.1,0.3-0.3,0.3-0.5v-5.3
			C859.2,431.2,859,430.9,858.7,430.9z M858.1,432.1v4.3l-13.2,9.4h-5.2v-3.6h4c0.3,0,0.6-0.3,0.6-0.6v-2.7h4c0.3,0,0.6-0.3,0.6-0.6
			v-2.7h4c0.3,0,0.6-0.3,0.6-0.6v-2.7L858.1,432.1z"/>
		<g>
			<path class="st8" d="M848.9,456.3c0,0,0.2,0.2,0.5,0.6c0.2,0.2,0.4,0.4,0.5,0.7c0.1,0.1,0.2,0.3,0.3,0.5s0,0.3,0,0.5
				c0,1.4,0,3.2,0,5.1s0,3.7,0,5.1c0,0.1,0,0.2,0,0.3c0,0.1,0,0.2,0,0.2c-0.1,0.2-0.2,0.3-0.3,0.5c-0.2,0.3-0.4,0.5-0.5,0.7
				c-0.3,0.4-0.5,0.6-0.5,0.6s-0.2-0.2-0.5-0.6c-0.2-0.2-0.3-0.4-0.5-0.7c-0.1-0.1-0.2-0.3-0.3-0.5c-0.1-0.1-0.1-0.2,0-0.2
				c0-0.1,0-0.2,0-0.3c0-1.4,0-3.2,0-5.1s0-3.7,0-5.1c0-0.2-0.1-0.3,0-0.5s0.2-0.3,0.3-0.5c0.2-0.3,0.4-0.5,0.5-0.7
				C848.7,456.5,848.9,456.3,848.9,456.3z"/>
		</g>
	</g>
	<g>
		<g>
			<circle class="st8" cx="1549.6" cy="473.8" r="19.4"/>
		</g>
		<path class="st1" d="M1559.3,465.7h-5.7c-0.3,0-0.6,0.3-0.6,0.6v2.7h-4c-0.3,0-0.6,0.3-0.6,0.6v2.7h-4c-0.3,0-0.6,0.3-0.6,0.6v2.7
			h-4c-0.3,0-0.6,0.3-0.6,0.6v4.8c0,0.3,0.3,0.6,0.6,0.6h5.9c0.1,0,0.2,0,0.3-0.1l13.6-9.6c0.2-0.1,0.3-0.3,0.3-0.5v-5.3
			C1559.9,466,1559.6,465.7,1559.3,465.7z M1558.8,466.9v4.3l-13.2,9.4h-5.2V477h4c0.3,0,0.6-0.3,0.6-0.6v-2.7h4
			c0.3,0,0.6-0.3,0.6-0.6v-2.7h4c0.3,0,0.6-0.3,0.6-0.6v-2.7L1558.8,466.9z"/>
		<g>
			<path class="st8" d="M1549.6,491.1c0,0,0.2,0.2,0.5,0.6c0.2,0.2,0.4,0.4,0.5,0.7c0.1,0.1,0.2,0.3,0.3,0.5c0.1,0.2,0,0.3,0,0.5
				c0,1.4,0,3.2,0,5.1s0,3.7,0,5.1c0,0.1,0,0.2,0,0.3c0,0.1,0,0.2,0,0.2c-0.1,0.2-0.2,0.3-0.3,0.5c-0.2,0.3-0.4,0.5-0.5,0.7
				c-0.3,0.4-0.5,0.6-0.5,0.6s-0.2-0.2-0.5-0.6c-0.2-0.2-0.3-0.4-0.5-0.7c-0.1-0.1-0.2-0.3-0.3-0.5c-0.1-0.1-0.1-0.2,0-0.2
				c0-0.1,0-0.2,0-0.3c0-1.4,0-3.2,0-5.1s0-3.7,0-5.1c0-0.2-0.1-0.3,0-0.5s0.2-0.3,0.3-0.5c0.2-0.3,0.4-0.5,0.5-0.7
				C1549.4,491.3,1549.6,491.1,1549.6,491.1z"/>
		</g>
	</g>
	<g>
		<g>
			<circle class="st8" cx="774.3" cy="731" r="19.4"/>
		</g>
		<path class="st1" d="M784.1,722.9h-5.7c-0.3,0-0.6,0.3-0.6,0.6v2.7h-4c-0.3,0-0.6,0.3-0.6,0.6v2.7h-4c-0.3,0-0.6,0.3-0.6,0.6v2.7
			h-4c-0.3,0-0.6,0.3-0.6,0.6v4.8c0,0.3,0.3,0.6,0.6,0.6h5.9c0.1,0,0.2,0,0.3-0.1l13.6-9.6c0.2-0.1,0.3-0.3,0.3-0.5v-5.3
			C784.6,723.2,784.4,722.9,784.1,722.9z M783.5,724.1v4.3l-13.2,9.4h-5.2v-3.6h4c0.3,0,0.6-0.3,0.6-0.6v-2.7h4
			c0.3,0,0.6-0.3,0.6-0.6v-2.7h4c0.3,0,0.6-0.3,0.6-0.6v-2.7L783.5,724.1z"/>
		<g>
			<path class="st8" d="M774.3,748.3c0,0,0.2,0.2,0.5,0.6c0.2,0.2,0.4,0.4,0.5,0.7c0.1,0.1,0.2,0.3,0.3,0.5s0,0.3,0,0.5
				c0,1.4,0,3.2,0,5.1s0,3.7,0,5.1c0,0.1,0,0.2,0,0.3s0,0.2,0,0.2c-0.1,0.2-0.2,0.3-0.3,0.5c-0.2,0.3-0.4,0.5-0.5,0.7
				c-0.3,0.4-0.5,0.6-0.5,0.6s-0.2-0.2-0.5-0.6c-0.2-0.2-0.3-0.4-0.5-0.7c-0.1-0.1-0.2-0.3-0.3-0.5c-0.1-0.1-0.1-0.2,0-0.2
				c0-0.1,0-0.2,0-0.3c0-1.4,0-3.2,0-5.1s0-3.7,0-5.1c0-0.2-0.1-0.3,0-0.5s0.2-0.3,0.3-0.5c0.2-0.3,0.4-0.5,0.5-0.7
				C774.1,748.5,774.3,748.3,774.3,748.3z"/>
		</g>
	</g>
	<g>
		<g>
			<circle class="st8" cx="575" cy="469.2" r="19.4"/>
		</g>
		<g>
			<path class="st8" d="M575,486.5c0,0,0.2,0.2,0.5,0.6c0.1,0.2,0.3,0.4,0.5,0.7c0.1,0.1,0.2,0.3,0.3,0.5s0,0.3,0,0.5
				c0,1.4,0,3.2,0,5.1s0,3.7,0,5.1c0,0.1,0,0.2,0,0.3c0,0.1,0,0.2,0,0.2c-0.1,0.2-0.2,0.3-0.3,0.5c-0.2,0.3-0.3,0.5-0.5,0.7
				c-0.3,0.4-0.5,0.6-0.5,0.6s-0.2-0.2-0.5-0.6c-0.1-0.2-0.3-0.4-0.5-0.7c-0.1-0.1-0.2-0.3-0.3-0.5c-0.1-0.1-0.1-0.2,0-0.2
				c0-0.1,0-0.2,0-0.3c0-1.4,0-3.2,0-5.1s0-3.7,0-5.1c0-0.2-0.1-0.3,0-0.5s0.2-0.3,0.3-0.5c0.2-0.3,0.3-0.5,0.5-0.7
				C574.8,486.8,575,486.5,575,486.5z"/>
		</g>
		<g>
			<path class="st1" d="M583.5,465.3l-16.9-0.2c-0.7,0-1.2,0.5-1.2,1.2l-0.1,12.8c0,0.7,0.5,1.2,1.2,1.2l16.9,0.2
				c0.7,0,1.2-0.5,1.2-1.2l0.1-12.8C584.7,465.8,584.2,465.3,583.5,465.3z M566.6,466.3L566.6,466.3l16.9,0.1l0,0l-0.1,12.8l0,0
				l-16.9-0.2l0,0L566.6,466.3z"/>
			<path class="st1" d="M570.5,463.9L570.5,463.9C570.6,464,570.6,464,570.5,463.9c0.1,0.1,0.2,0.1,0.2,0.2l0,0l0,0
				c0.1,0,0.1,0,0.2,0l0,0l0,0l0,0l0,0c0.1,0,0.1,0,0.2,0l0,0c0.1,0,0.1-0.1,0.2-0.1l0,0c0,0,0,0,0.1-0.1l0,0l2.8-3.5
				c0.1-0.1,0.2-0.3,0.1-0.4c0-0.2-0.1-0.3-0.2-0.4c-0.3-0.2-0.6-0.2-0.9,0.1l-1.7,2.1l0.1-5.3c0-0.3-0.3-0.6-0.6-0.6
				s-0.6,0.3-0.6,0.6l-0.1,5.4l-1.6-1.9c-0.1-0.1-0.3-0.2-0.4-0.2c-0.2,0-0.3,0-0.4,0.1c-0.1,0.1-0.2,0.3-0.2,0.4s0,0.3,0.1,0.4
				L570.5,463.9z"/>
			<path class="st1" d="M576.7,460.2c0.2,0,0.3-0.1,0.5-0.2l1.7-1.9l-0.1,5.4c0,0.3,0.3,0.6,0.6,0.6s0.6-0.3,0.6-0.6l0.1-5.3
				l1.7,2.2c0.2,0.3,0.6,0.3,0.9,0.1s0.3-0.6,0.1-0.9L580,456l0,0c0,0,0,0-0.1-0.1l0,0l0,0c0,0-0.1-0.1-0.2-0.1l0,0
				c-0.1,0-0.1,0-0.2,0l0,0c-0.1,0-0.1,0-0.2,0l0,0l0,0c-0.1,0-0.1,0-0.1,0.1l0,0l-0.1,0.1l-2.7,3.1c-0.2,0.3-0.2,0.6,0.1,0.9
				C576.4,460.2,576.5,460.2,576.7,460.2z"/>
			<path class="st1" d="M570.1,469.2c0.5,0,0.9-0.4,0.9-0.9s-0.4-0.9-0.9-0.9s-0.9,0.4-0.9,0.9C569.2,468.9,569.6,469.2,570.1,469.2
				z"/>
			<path class="st1" d="M579.8,469.3c0.5,0,0.9-0.4,0.9-0.9s-0.4-0.9-0.9-0.9s-0.9,0.4-0.9,0.9C579,468.9,579.3,469.3,579.8,469.3z"
				/>
			<path class="st1" d="M575,469.3c0.5,0,0.9-0.4,0.9-0.9s-0.4-0.9-0.9-0.9s-0.9,0.4-0.9,0.9S574.5,469.3,575,469.3z"/>
			<path class="st1" d="M568.7,474.3L568.7,474.3l0.1,3.5c0,0.3,0.3,0.5,0.6,0.5c0.2,0,0.3,0,0.4-0.1c0.1-0.1,0.2-0.3,0.2-0.5v-3.4
				h0.2v3.5c0,0.3,0.2,0.5,0.5,0.5l0,0c0.2,0,0.3,0,0.4-0.1c0.1-0.1,0.2-0.3,0.2-0.5v-3.4l0,0c0.3,0,0.6-0.3,0.6-0.6v-2.6
				c0-0.9-0.7-1.6-1.6-1.6h-0.7c-0.9,0-1.6,0.7-1.6,1.6v2.6C568.1,474,568.4,474.3,568.7,474.3z"/>
			<path class="st1" d="M573.6,474.3L573.6,474.3l0.1,3.5c0,0.3,0.3,0.5,0.6,0.5c0.2,0,0.3,0,0.4-0.1c0.1-0.1,0.2-0.3,0.2-0.5v-3.4
				h0.2v3.5c0,0.3,0.3,0.5,0.6,0.5c0.2,0,0.3,0,0.4-0.1c0.1-0.1,0.2-0.3,0.2-0.5v-3.4l0,0c0.3,0,0.6-0.3,0.6-0.6v-2.6
				c0-0.9-0.7-1.6-1.6-1.6h-0.7c-0.9,0-1.6,0.7-1.6,1.6v2.6C573,474,573.3,474.3,573.6,474.3z"/>
			<path class="st1" d="M578.4,474.4L578.4,474.4v3.5c0,0.3,0.3,0.5,0.6,0.5c0.2,0,0.3,0,0.4-0.1c0.1-0.1,0.2-0.3,0.2-0.5v-3.4h0.2
				v3.5c0,0.3,0.3,0.5,0.6,0.5c0.2,0,0.3,0,0.4-0.1c0.1-0.1,0.2-0.3,0.2-0.5v-3.4l0,0c0.3,0,0.6-0.3,0.6-0.6v-2.6
				c0-0.9-0.7-1.6-1.6-1.6h-0.7c-0.9,0-1.6,0.7-1.6,1.6v2.6C577.8,474.1,578.1,474.4,578.4,474.4z"/>
		</g>
	</g>
	<g>
		<g>
			<circle class="st8" cx="1014" cy="701.9" r="19.4"/>
		</g>
		<g>
			<path class="st8" d="M1014,719.3c0,0,0.2,0.2,0.5,0.6c0.1,0.2,0.3,0.4,0.5,0.7c0.1,0.1,0.2,0.3,0.3,0.5s0,0.3,0,0.5
				c0,1.4,0,3.2,0,5.1s0,3.7,0,5.1c0,0.1,0,0.2,0,0.3s0,0.2,0,0.2c-0.1,0.2-0.2,0.3-0.3,0.5c-0.2,0.3-0.3,0.5-0.5,0.7
				c-0.3,0.4-0.5,0.6-0.5,0.6s-0.2-0.2-0.5-0.6c-0.1-0.2-0.3-0.4-0.5-0.7c-0.1-0.1-0.2-0.3-0.3-0.5c-0.1-0.1-0.1-0.2,0-0.2
				c0-0.1,0-0.2,0-0.3c0-1.4,0-3.2,0-5.1s0-3.7,0-5.1c0-0.2-0.1-0.3,0-0.5s0.2-0.3,0.3-0.5c0.2-0.3,0.3-0.5,0.5-0.7
				C1013.8,719.5,1014,719.3,1014,719.3z"/>
		</g>
		<g>
			<path class="st1" d="M1022.5,698l-16.9-0.2c-0.7,0-1.2,0.5-1.2,1.2l-0.1,12.8c0,0.7,0.5,1.2,1.2,1.2l16.9,0.2
				c0.7,0,1.2-0.5,1.2-1.2l0.1-12.8C1023.7,698.6,1023.2,698,1022.5,698z M1005.5,699C1005.5,699,1005.6,699,1005.5,699l16.9,0.1
				l0,0l-0.1,12.8l0,0l-16.9-0.2l0,0L1005.5,699z"/>
			<path class="st1" d="M1009.4,696.6C1009.5,696.6,1009.5,696.7,1009.4,696.6L1009.4,696.6c0.1,0.1,0.2,0.1,0.2,0.2l0,0l0,0
				c0.1,0,0.1,0,0.2,0l0,0l0,0l0,0l0,0c0.1,0,0.1,0,0.2,0l0,0c0.1,0,0.1-0.1,0.2-0.1l0,0c0,0,0,0,0.1-0.1l0,0l2.8-3.5
				c0.1-0.1,0.2-0.3,0.1-0.4c0-0.2-0.1-0.3-0.2-0.4c-0.3-0.2-0.6-0.2-0.9,0.1l-1.7,2.1l0.1-5.3c0-0.3-0.3-0.6-0.6-0.6
				s-0.6,0.3-0.6,0.6l-0.1,5.4l-1.6-1.9c-0.1-0.1-0.3-0.2-0.4-0.2c-0.2,0-0.3,0-0.4,0.1c-0.1,0.1-0.2,0.3-0.2,0.4
				c0,0.2,0,0.3,0.1,0.4L1009.4,696.6z"/>
			<path class="st1" d="M1015.6,693c0.2,0,0.3-0.1,0.5-0.2l1.7-1.9l-0.1,5.4c0,0.3,0.3,0.6,0.6,0.6s0.6-0.3,0.6-0.6l0.1-5.3l1.7,2.2
				c0.2,0.3,0.6,0.3,0.9,0.1s0.3-0.6,0.1-0.9l-2.8-3.6l0,0c0,0,0,0-0.1-0.1l0,0l0,0c0,0-0.1-0.1-0.2-0.1l0,0c-0.1,0-0.1,0-0.2,0l0,0
				c-0.1,0-0.1,0-0.2,0l0,0l0,0c-0.1,0-0.1,0-0.1,0.1l0,0l-0.1,0.1l-2.7,3.1c-0.2,0.3-0.2,0.6,0.1,0.9
				C1015.4,692.9,1015.5,693,1015.6,693z"/>
			<path class="st1" d="M1009.1,702c0.5,0,0.9-0.4,0.9-0.9s-0.4-0.9-0.9-0.9s-0.9,0.4-0.9,0.9C1008.2,701.6,1008.6,702,1009.1,702z"
				/>
			<path class="st1" d="M1018.8,702.1c0.5,0,0.9-0.4,0.9-0.9s-0.4-0.9-0.9-0.9s-0.9,0.4-0.9,0.9
				C1017.9,701.7,1018.3,702.1,1018.8,702.1z"/>
			<path class="st1" d="M1014,702c0.5,0,0.9-0.4,0.9-0.9s-0.4-0.9-0.9-0.9s-0.9,0.4-0.9,0.9S1013.5,702,1014,702z"/>
			<path class="st1" d="M1007.7,707L1007.7,707l0.1,3.5c0,0.3,0.3,0.5,0.6,0.5c0.2,0,0.3,0,0.4-0.1c0.1-0.1,0.2-0.3,0.2-0.5V707h0.2
				v3.5c0,0.3,0.2,0.5,0.5,0.5l0,0c0.2,0,0.3,0,0.4-0.1c0.1-0.1,0.2-0.3,0.2-0.5V707l0,0c0.3,0,0.6-0.3,0.6-0.6v-2.6
				c0-0.9-0.7-1.6-1.6-1.6h-0.7c-0.9,0-1.6,0.7-1.6,1.6v2.6C1007.1,706.7,1007.4,707,1007.7,707z"/>
			<path class="st1" d="M1012.6,707.1L1012.6,707.1l0.1,3.5c0,0.3,0.3,0.5,0.6,0.5c0.2,0,0.3,0,0.4-0.1c0.1-0.1,0.2-0.3,0.2-0.5
				v-3.4h0.2v3.5c0,0.3,0.3,0.5,0.6,0.5c0.2,0,0.3,0,0.4-0.1c0.1-0.1,0.2-0.3,0.2-0.5v-3.4l0,0c0.3,0,0.6-0.3,0.6-0.6v-2.6
				c0-0.9-0.7-1.6-1.6-1.6h-0.7c-0.9,0-1.6,0.7-1.6,1.6v2.6C1012,706.8,1012.3,707,1012.6,707.1z"/>
			<path class="st1" d="M1017.4,707.1L1017.4,707.1v3.5c0,0.3,0.3,0.5,0.6,0.5c0.2,0,0.3,0,0.4-0.1c0.1-0.1,0.2-0.3,0.2-0.5v-3.4
				h0.2v3.5c0,0.3,0.3,0.5,0.6,0.5c0.2,0,0.3,0,0.4-0.1c0.1-0.1,0.2-0.3,0.2-0.5v-3.4l0,0c0.3,0,0.6-0.3,0.6-0.6v-2.6
				c0-0.9-0.7-1.6-1.6-1.6h-0.7c-0.9,0-1.6,0.7-1.6,1.6v2.6C1016.8,706.8,1017.1,707.1,1017.4,707.1z"/>
		</g>
	</g>
	<g>
		<g>
			<circle class="st8" cx="1352.8" cy="604.5" r="19.4"/>
		</g>
		<g>
			<path class="st8" d="M1352.8,621.8c0,0,0.2,0.2,0.5,0.6c0.1,0.2,0.3,0.4,0.5,0.7c0.1,0.1,0.2,0.3,0.3,0.5c0.1,0.2,0,0.3,0,0.5
				c0,1.4,0,3.2,0,5.1c0,1.9,0,3.7,0,5.1c0,0.1,0,0.2,0,0.3s0,0.2,0,0.2c-0.1,0.2-0.2,0.3-0.3,0.5c-0.2,0.3-0.3,0.5-0.5,0.7
				c-0.3,0.4-0.5,0.6-0.5,0.6s-0.2-0.2-0.5-0.6c-0.1-0.2-0.3-0.4-0.5-0.7c-0.1-0.1-0.2-0.3-0.3-0.5c-0.1-0.1-0.1-0.2,0-0.2
				c0-0.1,0-0.2,0-0.3c0-1.4,0-3.2,0-5.1c0-1.9,0-3.7,0-5.1c0-0.2-0.1-0.3,0-0.5s0.2-0.3,0.3-0.5c0.2-0.3,0.3-0.5,0.5-0.7
				C1352.6,622,1352.8,621.8,1352.8,621.8z"/>
		</g>
		<g>
			<path class="st1" d="M1361.3,600.5l-16.9-0.2c-0.7,0-1.2,0.5-1.2,1.2l-0.1,12.8c0,0.7,0.5,1.2,1.2,1.2l16.9,0.2
				c0.7,0,1.2-0.5,1.2-1.2l0.1-12.8C1362.5,601.1,1362,600.6,1361.3,600.5z M1344.4,601.6C1344.4,601.6,1344.4,601.5,1344.4,601.6
				l16.9,0.1l0,0l-0.1,12.8l0,0l-16.9-0.2l0,0L1344.4,601.6z"/>
			<path class="st1" d="M1348.3,599.2L1348.3,599.2L1348.3,599.2c0.1,0.1,0.2,0.1,0.2,0.2l0,0l0,0c0.1,0,0.1,0,0.2,0l0,0l0,0l0,0
				l0,0c0.1,0,0.1,0,0.2,0l0,0c0.1,0,0.1-0.1,0.2-0.1l0,0c0,0,0,0,0.1-0.1l0,0l2.8-3.5c0.1-0.1,0.2-0.3,0.1-0.4
				c0-0.2-0.1-0.3-0.2-0.4c-0.3-0.2-0.6-0.2-0.9,0.1l-1.7,2.1l0.1-5.3c0-0.3-0.3-0.6-0.6-0.6s-0.6,0.3-0.6,0.6l-0.1,5.4l-1.6-1.9
				c-0.1-0.1-0.3-0.2-0.4-0.2c-0.2,0-0.3,0-0.4,0.1s-0.2,0.3-0.2,0.4c0,0.2,0,0.3,0.1,0.4L1348.3,599.2z"/>
			<path class="st1" d="M1354.5,595.5c0.2,0,0.3-0.1,0.5-0.2l1.7-1.9l-0.1,5.4c0,0.3,0.3,0.6,0.6,0.6c0.3,0,0.6-0.3,0.6-0.6l0.1-5.3
				l1.7,2.2c0.2,0.3,0.6,0.3,0.9,0.1s0.3-0.6,0.1-0.9l-2.8-3.6l0,0c0,0,0-0.1-0.1-0.1l0,0l0,0c0,0-0.1-0.1-0.2-0.1l0,0
				c-0.1,0-0.1,0-0.2,0l0,0c-0.1,0-0.1,0-0.2,0l0,0l0,0c-0.1,0-0.1,0-0.1,0.1l0,0l-0.1,0.1l-2.7,3.1c-0.2,0.3-0.2,0.6,0.1,0.9
				C1354.2,595.4,1354.3,595.5,1354.5,595.5z"/>
			<path class="st1" d="M1347.9,604.5c0.5,0,0.9-0.4,0.9-0.9s-0.4-0.9-0.9-0.9s-0.9,0.4-0.9,0.9S1347.4,604.5,1347.9,604.5z"/>
			<path class="st1" d="M1357.6,604.6c0.5,0,0.9-0.4,0.9-0.9s-0.4-0.9-0.9-0.9s-0.9,0.4-0.9,0.9
				C1356.8,604.2,1357.1,604.6,1357.6,604.6z"/>
			<path class="st1" d="M1352.8,604.6c0.5,0,0.9-0.4,0.9-0.9s-0.4-0.9-0.9-0.9s-0.9,0.4-0.9,0.9
				C1351.9,604.2,1352.3,604.6,1352.8,604.6z"/>
			<path class="st1" d="M1346.6,609.5L1346.6,609.5l0.1,3.5c0,0.3,0.3,0.5,0.6,0.5c0.2,0,0.3,0,0.4-0.1s0.2-0.3,0.2-0.5v-3.4h0.2
				v3.5c0,0.3,0.2,0.5,0.5,0.5l0,0c0.2,0,0.3,0,0.4-0.1s0.2-0.3,0.2-0.5v-3.4l0,0c0.3,0,0.6-0.3,0.6-0.6v-2.6c0-0.9-0.7-1.6-1.6-1.6
				h-0.7c-0.9,0-1.6,0.7-1.6,1.6v2.6C1345.9,609.3,1346.2,609.5,1346.6,609.5z"/>
			<path class="st1" d="M1351.4,609.6L1351.4,609.6l0.1,3.5c0,0.3,0.3,0.5,0.6,0.5c0.2,0,0.3,0,0.4-0.1s0.2-0.3,0.2-0.5v-3.4h0.2
				v3.5c0,0.3,0.3,0.5,0.6,0.5c0.2,0,0.3,0,0.4-0.1s0.2-0.3,0.2-0.5v-3.4l0,0c0.3,0,0.6-0.3,0.6-0.6v-2.6c0-0.9-0.7-1.6-1.6-1.6
				h-0.7c-0.9,0-1.6,0.7-1.6,1.6v2.6C1350.8,609.3,1351.1,609.6,1351.4,609.6z"/>
			<path class="st1" d="M1356.2,609.6L1356.2,609.6v3.5c0,0.3,0.3,0.5,0.6,0.5c0.2,0,0.3,0,0.4-0.1s0.2-0.3,0.2-0.5v-3.4h0.2v3.5
				c0,0.3,0.3,0.5,0.6,0.5c0.2,0,0.3,0,0.4-0.1s0.2-0.3,0.2-0.5v-3.4l0,0c0.3,0,0.6-0.3,0.6-0.6v-2.6c0-0.9-0.7-1.6-1.6-1.6h-0.7
				c-0.9,0-1.6,0.7-1.6,1.6v2.6C1355.6,609.4,1355.9,609.6,1356.2,609.6z"/>
		</g>
	</g>
	<g>
		<g>
			
				<ellipse transform="matrix(0.9239 -0.3827 0.3827 0.9239 -203.5531 241.6691)" class="st8" cx="505.7" cy="632.5" rx="19.4" ry="19.4"/>
		</g>
		<g>
			<path class="st8" d="M505.7,649.8c0,0,0.2,0.2,0.5,0.6c0.1,0.2,0.3,0.4,0.5,0.7c0.1,0.1,0.2,0.3,0.3,0.5c0.1,0.2,0,0.3,0,0.5
				c0,1.4,0,3.2,0,5.1s0,3.7,0,5.1c0,0.1,0,0.2,0,0.3s0,0.2,0,0.2c-0.1,0.2-0.2,0.3-0.3,0.5c-0.2,0.3-0.3,0.5-0.5,0.7
				c-0.3,0.4-0.5,0.6-0.5,0.6s-0.2-0.2-0.5-0.6c-0.1-0.2-0.3-0.4-0.5-0.7c-0.1-0.1-0.2-0.3-0.3-0.5c-0.1-0.1-0.1-0.2,0-0.2
				c0-0.1,0-0.2,0-0.3c0-1.4,0-3.2,0-5.1s0-3.7,0-5.1c0-0.2-0.1-0.3,0-0.5s0.2-0.3,0.3-0.5c0.2-0.3,0.3-0.5,0.5-0.7
				C505.5,650,505.7,649.8,505.7,649.8z"/>
		</g>
		<g>
			<path class="st1" d="M514.3,628.5l-16.9-0.2c-0.7,0-1.2,0.5-1.2,1.2l-0.1,12.8c0,0.7,0.5,1.2,1.2,1.2l16.9,0.2
				c0.7,0,1.2-0.5,1.2-1.2l0.1-12.8C515.5,629.1,514.9,628.5,514.3,628.5z M497.3,629.6C497.3,629.5,497.3,629.5,497.3,629.6
				l16.9,0.1l0,0l-0.1,12.8l0,0l-16.9-0.2l0,0L497.3,629.6z"/>
			<path class="st1" d="M501.2,627.1C501.2,627.2,501.3,627.2,501.2,627.1L501.2,627.1c0.1,0.1,0.2,0.1,0.2,0.2l0,0l0,0
				c0.1,0,0.1,0,0.2,0l0,0l0,0l0,0l0,0c0.1,0,0.1,0,0.2,0l0,0c0.1,0,0.1-0.1,0.2-0.1l0,0c0,0,0,0,0.1-0.1l0,0l2.8-3.5
				c0.1-0.1,0.2-0.3,0.1-0.4c0-0.2-0.1-0.3-0.2-0.4c-0.3-0.2-0.6-0.2-0.9,0.1l-1.7,2.1l0.1-5.3c0-0.3-0.3-0.6-0.6-0.6
				c-0.3,0-0.6,0.3-0.6,0.6l-0.1,5.4l-1.6-1.9c-0.1-0.1-0.3-0.2-0.4-0.2c-0.2,0-0.3,0-0.4,0.1s-0.2,0.3-0.2,0.4c0,0.2,0,0.3,0.1,0.4
				L501.2,627.1z"/>
			<path class="st1" d="M507.4,623.5c0.2,0,0.3-0.1,0.5-0.2l1.7-1.9l-0.1,5.4c0,0.3,0.3,0.6,0.6,0.6c0.3,0,0.6-0.3,0.6-0.6l0.1-5.3
				l1.7,2.2c0.2,0.3,0.6,0.3,0.9,0.1c0.3-0.2,0.3-0.6,0.1-0.9l-2.8-3.6l0,0c0,0,0,0-0.1-0.1l0,0l0,0c0,0-0.1-0.1-0.2-0.1l0,0
				c-0.1,0-0.1,0-0.2,0l0,0c-0.1,0-0.1,0-0.2,0l0,0l0,0c-0.1,0-0.1,0-0.1,0.1l0,0l-0.1,0.1l-2.7,3.1c-0.2,0.3-0.2,0.6,0.1,0.9
				C507.1,623.4,507.3,623.5,507.4,623.5z"/>
			<path class="st1" d="M500.8,632.5c0.5,0,0.9-0.4,0.9-0.9s-0.4-0.9-0.9-0.9s-0.9,0.4-0.9,0.9C500,632.1,500.4,632.5,500.8,632.5z"
				/>
			<path class="st1" d="M510.6,632.6c0.5,0,0.9-0.4,0.9-0.9s-0.4-0.9-0.9-0.9s-0.9,0.4-0.9,0.9C509.7,632.2,510.1,632.6,510.6,632.6
				z"/>
			<path class="st1" d="M505.8,632.5c0.5,0,0.9-0.4,0.9-0.9s-0.4-0.9-0.9-0.9s-0.9,0.4-0.9,0.9S505.3,632.5,505.8,632.5z"/>
			<path class="st1" d="M499.5,637.5L499.5,637.5l0.1,3.5c0,0.3,0.3,0.5,0.6,0.5c0.2,0,0.3,0,0.4-0.1s0.2-0.3,0.2-0.5v-3.4h0.2v3.5
				c0,0.3,0.2,0.5,0.5,0.5l0,0c0.2,0,0.3,0,0.4-0.1s0.2-0.3,0.2-0.5v-3.4l0,0c0.3,0,0.6-0.3,0.6-0.6v-2.6c0-0.9-0.7-1.6-1.6-1.6
				h-0.7c-0.9,0-1.6,0.7-1.6,1.6v2.6C498.9,637.2,499.1,637.5,499.5,637.5z"/>
			<path class="st1" d="M504.4,637.6L504.4,637.6l0.1,3.5c0,0.3,0.3,0.5,0.6,0.5c0.2,0,0.3,0,0.4-0.1s0.2-0.3,0.2-0.5v-3.4h0.2v3.5
				c0,0.3,0.3,0.5,0.6,0.5c0.2,0,0.3,0,0.4-0.1s0.2-0.3,0.2-0.5v-3.4l0,0c0.3,0,0.6-0.3,0.6-0.6v-2.6c0-0.9-0.7-1.6-1.6-1.6h-0.7
				c-0.9,0-1.6,0.7-1.6,1.6v2.6C503.8,637.3,504,637.6,504.4,637.6z"/>
			<path class="st1" d="M509.2,637.6L509.2,637.6v3.5c0,0.3,0.3,0.5,0.6,0.5c0.2,0,0.3,0,0.4-0.1s0.2-0.3,0.2-0.5v-3.4h0.2v3.5
				c0,0.3,0.3,0.5,0.6,0.5c0.2,0,0.3,0,0.4-0.1s0.2-0.3,0.2-0.5v-3.4l0,0c0.3,0,0.6-0.3,0.6-0.6v-2.6c0-0.9-0.7-1.6-1.6-1.6h-0.7
				c-0.9,0-1.6,0.7-1.6,1.6v2.6C508.6,637.3,508.8,637.6,509.2,637.6z"/>
		</g>
	</g>
	<g>
		<g>
			<circle class="st8" cx="1224.2" cy="542.4" r="19.4"/>
		</g>
		<g>
			<path class="st8" d="M1224.2,559.7c0,0,0.2,0.2,0.5,0.6c0.1,0.2,0.3,0.4,0.5,0.7c0.1,0.1,0.2,0.3,0.3,0.5c0.1,0.2,0,0.3,0,0.5
				c0,1.4,0,3.2,0,5.1c0,1.9,0,3.7,0,5.1c0,0.1,0,0.2,0,0.3s0,0.2,0,0.2c-0.1,0.2-0.2,0.3-0.3,0.5c-0.2,0.3-0.3,0.5-0.5,0.7
				c-0.3,0.4-0.5,0.6-0.5,0.6s-0.2-0.2-0.5-0.6c-0.1-0.2-0.3-0.4-0.5-0.7c-0.1-0.1-0.2-0.3-0.3-0.5c-0.1-0.1-0.1-0.2,0-0.2
				c0-0.1,0-0.2,0-0.3c0-1.4,0-3.2,0-5.1c0-1.9,0-3.7,0-5.1c0-0.2-0.1-0.3,0-0.5s0.2-0.3,0.3-0.5c0.2-0.3,0.3-0.5,0.5-0.7
				C1224.1,559.9,1224.2,559.7,1224.2,559.7z"/>
		</g>
		<g>
			<path class="st9" d="M1232.7,540.5h-1.1v5.4c0.4,0.1,0.7,0.2,1.1,0.2c1.7,0,3.1-1.3,3.1-2.8
				C1235.8,541.8,1234.4,540.5,1232.7,540.5z"/>
			<path class="st1" d="M1224.8,533.3c0.7,0.5,1.3,1,1.3,2.2c0,0.8-0.8,1.6-1.2,1.8c-0.2,0.1-0.3,0.4-0.2,0.6
				c0.1,0.2,0.2,0.3,0.4,0.3c0.1,0,0.1,0,0.2,0c0.7-0.3,1.8-1.4,1.8-2.6c0-1.6-0.9-2.3-1.6-2.9c-0.6-0.5-1.1-0.9-1.1-1.8
				c0-1.3,1.2-1.9,1.5-1.9c0.2,0,0.4-0.2,0.4-0.4s-0.2-0.4-0.4-0.4c-0.7,0-2.4,1-2.4,2.8C1223.3,532.1,1224.1,532.8,1224.8,533.3z"
				/>
			<path class="st1" d="M1221,533.8c0.6,0.5,1,0.8,1,1.8c0,0.6-0.6,1.3-0.9,1.4c-0.2,0.1-0.3,0.4-0.3,0.6c0.1,0.2,0.2,0.3,0.4,0.3
				c0.1,0,0.1,0,0.2,0c0.6-0.2,1.5-1.2,1.5-2.2c0-1.4-0.8-2-1.4-2.5c-0.5-0.4-0.9-0.7-0.9-1.4c0-1,1-1.5,1.2-1.5s0.4-0.2,0.4-0.4
				s-0.2-0.4-0.4-0.4c-0.7,0-2.1,0.9-2.1,2.4C1219.8,532.8,1220.4,533.3,1221,533.8z"/>
			<path class="st1" d="M1232.7,539.9h-2.5l0,0h-13c-0.3,0-0.6,0.3-0.6,0.6v8.3c0,0.3,0.3,0.6,0.6,0.6h13.8c0.3,0,0.6-0.3,0.6-0.6
				v-2.2c0.4,0.1,0.7,0.2,1.1,0.2c2,0,3.7-1.5,3.7-3.4C1236.4,541.4,1234.7,539.9,1232.7,539.9z M1232.7,546.1
				c-0.4,0-0.8-0.1-1.1-0.2v-5.4h1.1c1.7,0,3.1,1.3,3.1,2.8C1235.8,544.9,1234.4,546.1,1232.7,546.1z"/>
			<path class="st1" d="M1233.8,550.8H1215c-0.3,0-0.6,0.3-0.6,0.6s0.3,0.6,0.6,0.6h18.8c0.3,0,0.6-0.3,0.6-0.6
				C1234.4,551,1234.1,550.8,1233.8,550.8z"/>
		</g>
	</g>
	<g>
		<g>
			<circle class="st8" cx="905" cy="148.7" r="19.4"/>
		</g>
		<g>
			<path class="st8" d="M905,166.1c0,0,0.2,0.2,0.5,0.6c0.1,0.2,0.3,0.4,0.5,0.7c0.1,0.1,0.2,0.3,0.3,0.5s0,0.3,0,0.5
				c0,1.4,0,3.2,0,5.1s0,3.7,0,5.1c0,0.1,0,0.2,0,0.3s0,0.2,0,0.2c-0.1,0.2-0.2,0.3-0.3,0.5c-0.2,0.3-0.3,0.5-0.5,0.7
				c-0.3,0.4-0.5,0.6-0.5,0.6s-0.2-0.2-0.5-0.6c-0.1-0.2-0.3-0.4-0.5-0.7c-0.1-0.1-0.2-0.3-0.3-0.5c-0.1-0.1-0.1-0.2,0-0.2
				c0-0.1,0-0.2,0-0.3c0-1.4,0-3.2,0-5.1s0-3.7,0-5.1c0-0.2-0.1-0.3,0-0.5s0.2-0.3,0.3-0.5c0.2-0.3,0.3-0.5,0.5-0.7
				C904.8,166.3,905,166.1,905,166.1z"/>
		</g>
		<g>
			<path class="st9" d="M913.4,146.9h-1.1v5.4c0.4,0.1,0.7,0.2,1.1,0.2c1.7,0,3.1-1.3,3.1-2.8S915.1,146.9,913.4,146.9z"/>
			<path class="st1" d="M905.5,139.7c0.7,0.5,1.3,1,1.3,2.2c0,0.8-0.8,1.6-1.2,1.8c-0.2,0.1-0.3,0.4-0.2,0.6
				c0.1,0.2,0.2,0.3,0.4,0.3c0.1,0,0.1,0,0.2,0c0.7-0.3,1.8-1.4,1.8-2.6c0-1.6-0.9-2.3-1.6-2.9c-0.6-0.5-1.1-0.9-1.1-1.8
				c0-1.3,1.2-1.9,1.5-1.9c0.2,0,0.4-0.2,0.4-0.4s-0.2-0.4-0.4-0.4c-0.7,0-2.4,1-2.4,2.8C904,138.5,904.8,139.2,905.5,139.7z"/>
			<path class="st1" d="M901.8,140.2c0.6,0.5,1,0.8,1,1.8c0,0.6-0.6,1.3-0.9,1.4c-0.2,0.1-0.3,0.4-0.3,0.6c0.1,0.2,0.2,0.3,0.4,0.3
				c0.1,0,0.1,0,0.2,0c0.6-0.2,1.5-1.2,1.5-2.2c0-1.4-0.8-2-1.4-2.5c-0.5-0.4-0.9-0.7-0.9-1.4c0-1,1-1.5,1.2-1.5s0.4-0.2,0.4-0.4
				s-0.2-0.4-0.4-0.4c-0.7,0-2.1,0.9-2.1,2.4C900.5,139.2,901.2,139.7,901.8,140.2z"/>
			<path class="st1" d="M913.4,146.3h-2.5l0,0h-13c-0.3,0-0.6,0.3-0.6,0.6v8.3c0,0.3,0.3,0.6,0.6,0.6h13.8c0.3,0,0.6-0.3,0.6-0.6
				V153c0.4,0.1,0.7,0.2,1.1,0.2c2,0,3.7-1.5,3.7-3.4S915.5,146.3,913.4,146.3z M913.4,152.5c-0.4,0-0.8-0.1-1.1-0.2v-5.4h1.1
				c1.7,0,3.1,1.3,3.1,2.8S915.1,152.5,913.4,152.5z"/>
			<path class="st1" d="M914.6,157.1h-18.8c-0.3,0-0.6,0.3-0.6,0.6s0.3,0.6,0.6,0.6h18.8c0.3,0,0.6-0.3,0.6-0.6
				S914.9,157.1,914.6,157.1z"/>
		</g>
	</g>
	<g>
		<g>
			<circle class="st8" cx="439.4" cy="571.1" r="19.4"/>
		</g>
		<g>
			<path class="st8" d="M439.4,588.4c0,0,0.2,0.2,0.5,0.6c0.1,0.2,0.3,0.4,0.5,0.7c0.1,0.1,0.2,0.3,0.3,0.5c0.1,0.2,0,0.3,0,0.5
				c0,1.4,0,3.2,0,5.1c0,1.9,0,3.7,0,5.1c0,0.1,0,0.2,0,0.3s0,0.2,0,0.2c-0.1,0.2-0.2,0.3-0.3,0.5c-0.2,0.3-0.3,0.5-0.5,0.7
				c-0.3,0.4-0.5,0.6-0.5,0.6s-0.2-0.2-0.5-0.6c-0.1-0.2-0.3-0.4-0.5-0.7c-0.1-0.1-0.2-0.3-0.3-0.5c-0.1-0.1-0.1-0.2,0-0.2
				c0-0.1,0-0.2,0-0.3c0-1.4,0-3.2,0-5.1c0-1.9,0-3.7,0-5.1c0-0.2-0.1-0.3,0-0.5s0.2-0.3,0.3-0.5c0.2-0.3,0.3-0.5,0.5-0.7
				C439.2,588.7,439.4,588.4,439.4,588.4z"/>
		</g>
		<g>
			<path class="st1" d="M452.3,566c-0.5-0.6-1.2-0.9-1.6-1c-0.1,0-0.3-0.1-0.4-0.1h-5.2c-0.3,0-0.6,0.1-0.9,0.3l-4.9,3.7v-0.6v-0.1
				c0-0.1-0.1-0.3-0.1-0.4c-0.3-0.6-0.8-1.1-1.4-1.2c-1-0.2-1.7,0.4-1.8,0.4c-0.6,0.5-0.7,1.3-0.7,1.5v3.4l-1.3,1
				c-0.1,0-0.1,0.1-0.2,0.1h-3.5c-0.1,0-0.3,0-0.4,0.1c-0.5,0.1-1.6,0.6-2.2,1.9c-0.6,1.4-0.1,2.6,0,2.9c0.5,1.1,1.4,1.6,1.9,1.8
				c0.2,0.1,0.3,0.1,0.5,0.1h5.8c0.3,0,0.6-0.1,0.9-0.3l10.2-7.6c0.1,0,0.1-0.1,0.2-0.1h3.3c0.1,0,0.2,0,0.3,0
				c0.3-0.1,0.6-0.2,0.8-0.3c1.1-0.6,1.4-1.8,1.5-2.3C453.5,567.3,452.4,566.1,452.3,566z M452.1,568.8c-0.1,0.3-0.3,1.1-1,1.5
				c-0.2,0.1-0.3,0.2-0.5,0.2l0,0h-3.3c-0.3,0-0.6,0.1-0.9,0.3l-10.2,7.6c-0.1,0-0.1,0.1-0.2,0.1h-5.8h-0.1c-0.3-0.1-1-0.5-1.3-1.2
				c-0.1-0.2-0.5-1.1,0-2c0.4-0.8,1.2-1.2,1.5-1.3h0.1h3.5c0.3,0,0.6-0.1,0.9-0.3l10.2-7.6c0.1,0,0.1-0.1,0.2-0.1h5.2h0.1
				c0.3,0.1,0.7,0.3,1.1,0.7C451.5,566.8,452.3,567.6,452.1,568.8z"/>
			<path class="st1" d="M437.3,566.4c1,0,1.9-0.8,1.9-1.9c0-1-0.8-1.9-1.9-1.9c-1,0-1.9,0.8-1.9,1.9
				C435.4,565.6,436.2,566.4,437.3,566.4z"/>
		</g>
	</g>
	<g>
		<g>
			<path class="st8" d="M644.1,695.4c1.1,1.2,1.4,2,1.2,3.6v3.6c0,1.2,0,4.2,0,5.4c-0.4,0.6-0.7,1.2-1.2,1.8
				c-0.5-0.6-0.8-1.2-1.2-1.8c0-1.1,0-4.2,0-5.4V699C642.8,697.4,643.1,696.5,644.1,695.4L644.1,695.4z"/>
		</g>
		<g>
			<g>
				<ellipse class="st10" cx="644.1" cy="678.7" rx="19.4" ry="19.3"/>
			</g>
		</g>
		<g>
			<path class="st8" d="M643.8,660c10.4,0,18.8,8.4,18.8,18.7s-8.4,18.7-18.8,18.7c-10.4,0-18.8-8.4-18.8-18.7S633.4,660,643.8,660
				 M643.8,657.6c-11.7,0-21.2,9.5-21.2,21.1s9.5,21.1,21.2,21.1s21.2-9.5,21.2-21.1C665.1,667,655.5,657.6,643.8,657.6L643.8,657.6
				z"/>
		</g>
		<g>
			<g>
				<path class="st1" d="M648.1,670.8v15.8h-4.4v-14.3l2,1.9l-6.9,1.2V672l5.9-1.2H648.1z"/>
			</g>
		</g>
	</g>
	<polygon class="st11" points="469.3,826 466.3,804.9 434.9,808.4 	"/>
	<g>
		<g>
			<circle class="st8" cx="849.2" cy="299.8" r="19.4"/>
		</g>
		<g>
			<path class="st8" d="M849.2,317.1c0,0,0.2,0.2,0.5,0.6c0.1,0.2,0.3,0.4,0.5,0.7c0.1,0.1,0.2,0.3,0.3,0.5s0,0.3,0,0.5
				c0,1.4,0,3.2,0,5.1s0,3.7,0,5.1c0,0.1,0,0.2,0,0.3c0,0.1,0,0.2,0,0.2c-0.1,0.2-0.2,0.3-0.3,0.5c-0.2,0.3-0.3,0.5-0.5,0.7
				c-0.3,0.4-0.5,0.6-0.5,0.6s-0.2-0.2-0.5-0.6c-0.1-0.2-0.3-0.4-0.5-0.7c-0.1-0.1-0.2-0.3-0.3-0.5c-0.1-0.1-0.1-0.2,0-0.2
				c0-0.1,0-0.2,0-0.3c0-1.4,0-3.2,0-5.1s0-3.7,0-5.1c0-0.2-0.1-0.3,0-0.5s0.2-0.3,0.3-0.5c0.2-0.3,0.3-0.5,0.5-0.7
				C849,317.3,849.2,317.1,849.2,317.1z"/>
		</g>
		<g>
			<g>
				<circle class="st1" cx="843" cy="291.6" r="1.7"/>
				<path class="st1" d="M845.2,293.9h-4.3c-0.8,0-1.4,0.6-1.4,1.4v6.9c0,0.3,0.2,0.5,0.5,0.5h0.8v5.5c0,0.4,0.4,0.8,0.8,0.8
					c0,0,0,0,0.1,0c0.3,0,0.5-0.1,0.7-0.2c0.2-0.2,0.3-0.4,0.3-0.8v-5.3h0.9v5.5c0,0.4,0.4,0.8,0.8,0.8c0,0,0,0,0.1,0
					c0.3,0,0.5-0.1,0.7-0.2c0.2-0.2,0.3-0.4,0.3-0.8v-5.3h0.7c0.3,0,0.5-0.2,0.5-0.5v-6.9C846.6,294.5,845.9,293.9,845.2,293.9z"/>
				<path class="st1" d="M855.4,293c0.9,0,1.7-0.7,1.7-1.7c0-0.9-0.7-1.7-1.7-1.7c-0.9,0-1.7,0.7-1.7,1.7
					C853.7,292.2,854.4,293,855.4,293z"/>
				<path class="st1" d="M859.9,301.8l-1.7-7.3c-0.2-0.8-0.8-1-1.3-1h-3.1c-0.7,0-1.3,0.6-1.3,1.3l-1.3,7c0,0.3,0.2,0.5,0.5,0.5h1.5
					v5.5c0,0.4,0.4,0.8,0.8,0.8c0,0,0,0,0.1,0c0.3,0,0.5-0.1,0.7-0.2c0.2-0.2,0.3-0.4,0.3-0.8v-5.3h0.9v5.5c0,0.4,0.4,0.8,0.8,0.8
					c0,0,0,0,0.1,0c0.3,0,0.5-0.1,0.7-0.2c0.2-0.2,0.3-0.4,0.3-0.8v-5.3h1.7C859.6,302.3,859.9,302.1,859.9,301.8L859.9,301.8z"/>
				<path class="st1" d="M849.2,288.1c-0.3,0-0.5,0.2-0.5,0.5V310c0,0.3,0.2,0.5,0.5,0.5s0.5-0.2,0.5-0.5v-21.4
					C849.7,288.3,849.5,288.1,849.2,288.1z"/>
			</g>
		</g>
	</g>
	<g>
		<g>
			<polyline class="st12" points="577.8,714.2 575.3,909.4 334.3,909.4 			"/>
			<g>
				<path class="st8" d="M572,714.1c0-3.2,2.7-5.8,5.9-5.8s5.8,2.7,5.8,5.9s-2.7,5.8-5.9,5.8C574.5,720,571.9,717.3,572,714.1z"/>
			</g>
		</g>
	</g>
	<g>
		<g>
			<circle class="st8" cx="214.5" cy="700.7" r="19.4"/>
		</g>
		<g>
			<path class="st8" d="M214.5,717.9c1.1,1.2,1.4,2.1,1.2,3.7v3.7c0,1.2,0,4.4,0,5.5c-0.4,0.6-0.7,1.2-1.2,1.8
				c-0.5-0.6-0.8-1.2-1.2-1.8c0-1.2,0-4.3,0-5.5v-3.7C213.1,720.1,213.4,719.2,214.5,717.9L214.5,717.9z"/>
		</g>
		<path class="st13" d="M212.6,687.8c-0.1,0-0.1,0.1-0.1,0.1v3c0,0.1,0.1,0.1,0.1,0.1h3.7c0.1,0,0.1-0.1,0.1-0.1v-3
			c0-0.1-0.1-0.1-0.1-0.1H212.6L212.6,687.8z M224.4,709v0.3c0,0.1-0.1,0.3-0.3,0.3H223v2.4c0,0.5-0.4,0.8-0.9,0.8h-0.5
			c-0.5,0-0.8-0.4-0.8-0.8v-2.4h-12.7v2.4c0,0.5-0.4,0.8-0.9,0.8h-0.5c-0.5,0-0.8-0.4-0.8-0.8v-2.4h-1.2c-0.2,0-0.3-0.1-0.3-0.3V709
			c0-4.8,0-9.6,0-14.4c0-3.2,3.2-5.1,7-5.7v-1.6c0-0.2,0.2-0.4,0.4-0.4h5c0.2,0,0.4,0.2,0.4,0.4v1.6c3.8,0.7,7,2.6,7,5.8
			C224.4,699.5,224.4,704.2,224.4,709L224.4,709z M221.2,702.5c-1.1,0-1.9,0.8-1.9,1.8s0.9,1.8,1.9,1.8c1.1,0,1.9-0.8,1.9-1.8
			C223.1,703.3,222.2,702.5,221.2,702.5L221.2,702.5z M207.7,702.5c-1.1,0-1.9,0.8-1.9,1.8s0.9,1.8,1.9,1.8c1.1,0,1.9-0.8,1.9-1.8
			C209.7,703.3,208.8,702.5,207.7,702.5L207.7,702.5z M217.4,690.2v1.4c0,0.2-0.2,0.4-0.4,0.4h-5c-0.2,0-0.4-0.2-0.4-0.4v-1.4
			c-3.1,0.6-5.7,2.2-5.7,4.9v5.4c5.8,1.4,11.6,1.4,17.3,0v-5.3C223.1,692.5,220.6,690.8,217.4,690.2L217.4,690.2z"/>
	</g>
	<g>
		<g>
			<path class="st8" d="M744.7,692.1c1.1,1.2,1.4,2.1,1.2,3.6v3.6c0,1.2,0,4.3,0,5.4c-0.4,0.6-0.7,1.2-1.2,1.8
				c-0.5-0.6-0.8-1.2-1.2-1.8c0-1.1,0-4.2,0-5.4v-3.6C743.4,694.2,743.7,693.3,744.7,692.1L744.7,692.1z"/>
		</g>
		<g>
			<circle class="st10" cx="744.7" cy="675.2" r="20.1"/>
			<path class="st8" d="M744.7,656.3c10.5,0,18.9,8.5,18.9,18.9s-8.5,18.9-18.9,18.9c-10.5,0-18.9-8.5-18.9-18.9
				S734.3,656.3,744.7,656.3 M744.7,653.9c-11.8,0-21.4,9.6-21.4,21.4s9.6,21.4,21.4,21.4c11.8,0,21.4-9.6,21.4-21.4
				S756.5,653.9,744.7,653.9L744.7,653.9z"/>
		</g>
		<g>
			<g>
				<path class="st1" d="M728.4,680.6V677h1.7h0.7h5.6h0.6h2.3v3.6h-2.1V679h-6.7v1.6H728.4z M730,671h7.8v7.4h-2.2v-6.5l1,1h-5.4
					l0.9-0.7c0.1,0.3,0.1,0.6,0.1,1c0,0.3,0,0.6,0,0.9c0,0.8-0.1,1.5-0.2,2.1s-0.4,1-0.7,1.3s-0.6,0.4-1.1,0.4l-0.9-0.8
					c0.3-0.3,0.5-0.8,0.6-1.4c0.1-0.6,0.2-1.3,0.2-2.2c0-0.4,0-0.8,0-1.2C730.1,671.9,730.1,671.4,730,671z"/>
				<path class="st1" d="M740.1,680.6V677h1.7h0.7h5.6h0.6h2.3v3.6h-2V679h-6.7v1.6H740.1z M741.8,671h7.8v7.4h-2.2v-6.5l1,1H743
					l0.9-0.7c0.1,0.3,0.1,0.6,0.1,1c0,0.3,0,0.6,0,0.9c0,0.8-0.1,1.5-0.2,2.1s-0.4,1-0.7,1.3s-0.6,0.4-1.1,0.4l-0.9-0.8
					c0.3-0.3,0.5-0.8,0.6-1.4c0.1-0.6,0.2-1.3,0.2-2.2c0-0.4,0-0.8,0-1.2C741.9,671.9,741.9,671.4,741.8,671z"/>
				<path class="st1" d="M756.4,679.1c-0.9,0-1.8-0.2-2.5-0.5s-1.3-0.8-1.7-1.5c-0.4-0.6-0.6-1.4-0.6-2.2s0.2-1.6,0.6-2.2
					c0.4-0.6,0.9-1.1,1.7-1.5c0.7-0.3,1.5-0.5,2.5-0.5s1.8,0.2,2.5,0.5s1.3,0.8,1.7,1.5s0.6,1.4,0.6,2.2s-0.2,1.6-0.6,2.2
					c-0.4,0.6-1,1.1-1.7,1.5S757.3,679.1,756.4,679.1z M756.4,677.2c0.5,0,1-0.1,1.3-0.3c0.4-0.2,0.7-0.4,0.9-0.8
					c0.2-0.3,0.3-0.7,0.3-1.2s-0.1-0.8-0.3-1.2c-0.2-0.3-0.5-0.6-0.9-0.8s-0.8-0.3-1.3-0.3s-1,0.1-1.3,0.3c-0.4,0.2-0.7,0.4-0.9,0.8
					c-0.2,0.3-0.3,0.7-0.3,1.2s0.1,0.8,0.3,1.2c0.2,0.3,0.5,0.6,0.9,0.8C755.4,677.1,755.9,677.2,756.4,677.2z"/>
			</g>
		</g>
	</g>
</g>
<rect x="206.6" y="882.5" class="st0" width="184" height="49.5"/>
<rect x="217.4" y="896.6" class="st9" width="163.3" height="37"/>
<g class="st14">
	<path class="st1" d="M229,912.7l-9-15.6h5.5l7,12.2L229,912.7z M225.8,915.1l3.2-5.6h0.1l7-12.4h5.4l-10.3,18H225.8z"/>
	<path class="st1" d="M241,901.4h4.9v3.9l-0.2,0.6v3.8l0.2,1.1v8.2H241V901.4z M244.4,908.3c0.2-1.5,0.6-2.8,1.3-3.9
		c0.7-1.1,1.5-1.9,2.5-2.5s2.2-0.9,3.5-0.9c1.3,0,2.5,0.3,3.5,0.9c1,0.6,1.8,1.5,2.4,2.5c0.6,1.1,0.9,2.4,0.9,3.8
		c0,1.4-0.3,2.7-0.9,3.8s-1.4,1.9-2.4,2.5c-1,0.6-2.2,0.9-3.5,0.9c-1.3,0-2.5-0.3-3.5-0.9c-1-0.6-1.9-1.4-2.5-2.5
		C245,911,244.6,909.7,244.4,908.3z M253.5,908.3c0-0.7-0.1-1.3-0.4-1.8c-0.3-0.5-0.7-0.9-1.2-1.2c-0.5-0.3-1.1-0.5-1.7-0.5
		c-0.7,0-1.3,0.2-1.9,0.5c-0.6,0.3-1.1,0.7-1.6,1.2c-0.4,0.5-0.8,1.1-1,1.8c0.2,0.7,0.6,1.3,1,1.8c0.4,0.5,1,0.9,1.6,1.2
		c0.6,0.3,1.2,0.4,1.9,0.4c0.6,0,1.2-0.1,1.7-0.4s0.9-0.7,1.2-1.2C253.4,909.5,253.5,908.9,253.5,908.3z"/>
	<path class="st1" d="M268.7,915.5c-1.8,0-3.3-0.3-4.6-0.9c-1.3-0.6-2.3-1.4-3.1-2.5c-0.7-1.1-1.1-2.4-1.1-3.8
		c0-1.5,0.4-2.7,1.1-3.8c0.7-1.1,1.8-1.9,3.1-2.5c1.3-0.6,2.8-0.9,4.6-0.9c1.7,0,3.3,0.3,4.6,0.9c1.3,0.6,2.3,1.5,3.1,2.5
		c0.7,1.1,1.1,2.4,1.1,3.8c0,1.4-0.4,2.7-1.1,3.8c-0.7,1.1-1.8,1.9-3.1,2.5C272,915.2,270.5,915.5,268.7,915.5z M268.7,911.9
		c0.8,0,1.5-0.1,2.1-0.4c0.6-0.3,1-0.7,1.3-1.2c0.3-0.5,0.5-1.2,0.5-1.9c0-0.8-0.2-1.4-0.5-2c-0.3-0.5-0.7-0.9-1.3-1.2
		c-0.6-0.3-1.3-0.4-2.1-0.4c-0.8,0-1.5,0.1-2.1,0.4s-1,0.7-1.3,1.2c-0.3,0.5-0.5,1.2-0.5,1.9c0,0.8,0.2,1.4,0.5,1.9
		c0.3,0.5,0.7,1,1.3,1.2S267.9,911.9,268.7,911.9z"/>
	<path class="st1" d="M279.1,915.1l0.9-6.9l-0.9-6.8h11.2c1.3,0,2.4,0.3,3.2,0.9c0.8,0.6,1.2,1.5,1.2,2.5c0,1-0.4,1.8-1.2,2.4
		c-0.8,0.6-1.9,1-3.3,1.1l0.3-0.8c1.6,0.1,2.9,0.4,3.7,1c0.9,0.6,1.3,1.5,1.3,2.6c0,1.2-0.4,2.1-1.3,2.8c-0.9,0.7-2.1,1.1-3.6,1.1
		H279.1z M283.9,914.1l-1.9-2h7c0.5,0,0.9-0.1,1.2-0.3c0.3-0.2,0.4-0.6,0.4-1c0-0.4-0.1-0.7-0.4-0.9c-0.3-0.2-0.7-0.4-1.3-0.4h-5.9
		v-2.5h5.3c0.5,0,0.9-0.1,1.1-0.3c0.3-0.2,0.4-0.5,0.4-0.9s-0.1-0.7-0.3-0.9c-0.2-0.2-0.6-0.3-1.1-0.3H282l1.9-2l0.8,5.8
		L283.9,914.1z"/>
	<path class="st1" d="M305.5,915.5c-1.7,0-3.1-0.3-4.5-0.9c-1.3-0.6-2.3-1.5-3.1-2.6c-0.8-1.1-1.1-2.4-1.1-3.8
		c0-1.4,0.4-2.7,1.1-3.8c0.7-1.1,1.7-1.9,3-2.5c1.3-0.6,2.7-0.9,4.3-0.9c1.6,0,3.1,0.4,4.2,1.1s2.1,1.7,2.7,3s0.9,2.8,0.9,4.6h-12.2
		v-3h9.4l-1.6,1c-0.1-0.7-0.2-1.3-0.5-1.8c-0.3-0.5-0.7-0.9-1.1-1.1c-0.5-0.3-1-0.4-1.7-0.4c-0.7,0-1.3,0.1-1.8,0.4
		s-0.9,0.7-1.2,1.2c-0.3,0.5-0.4,1.1-0.4,1.8c0,0.9,0.2,1.6,0.6,2.2c0.4,0.6,1,1.1,1.7,1.4c0.8,0.3,1.7,0.5,2.8,0.5c1,0,2-0.1,3-0.4
		c1-0.3,1.9-0.6,2.7-1.1v3.1c-0.9,0.6-2,1.1-3.2,1.5C308.2,915.3,306.9,915.5,305.5,915.5z"/>
	<path class="st1" d="M315.1,901.4h4.9v13.7h-4.9V901.4z M317.9,906.3h10.4v3.6h-10.4V906.3z M326.5,901.4h4.9v13.7h-4.9V901.4z"/>
	<path class="st1" d="M334,915.1v-13.7h4.9v12.5l-1.5-2.2h4.8c0.6,0,1.1-0.1,1.4-0.4c0.3-0.3,0.5-0.7,0.5-1.3c0-0.5-0.2-0.9-0.5-1.2
		c-0.3-0.3-0.8-0.4-1.4-0.4h-4.9V905h5.7c1.2,0,2.3,0.2,3.2,0.6c0.9,0.4,1.6,1,2.1,1.8c0.5,0.8,0.8,1.6,0.8,2.7c0,1-0.3,1.9-0.8,2.7
		c-0.5,0.8-1.2,1.3-2.1,1.8c-0.9,0.4-1.9,0.6-3.1,0.6H334z"/>
	<path class="st1" d="M365.6,896.7c1.6,0,2.9,0.2,4.1,0.7c1.2,0.5,2.2,1.1,2.9,1.9c0.7,0.8,1.2,1.7,1.4,2.7h-4.6
		c-0.2-0.5-0.6-0.9-1.2-1.2c-0.6-0.3-1.4-0.5-2.5-0.5c-1.2,0-2.1,0.2-2.9,0.7c-0.8,0.4-1.4,1.1-1.7,1.9c-0.4,0.8-0.6,1.8-0.6,3
		c0,1.3,0.2,2.4,0.6,3.3c0.4,0.9,1,1.5,1.8,2c0.8,0.4,1.7,0.7,2.9,0.7c0.8,0,1.4-0.1,2-0.3c0.5-0.2,0.9-0.5,1.2-0.9
		c0.3-0.4,0.4-0.8,0.4-1.2c0-0.5-0.1-0.9-0.4-1.3c-0.3-0.4-0.6-0.6-1.2-0.8c-0.5-0.2-1.2-0.3-1.9-0.3c-1,0-2,0.2-2.9,0.7
		c-0.9,0.4-1.8,1.1-2.5,2l-1.7-1.2c0.5-1,1.1-1.9,1.9-2.7c0.8-0.8,1.7-1.4,2.8-1.8c1.1-0.4,2.3-0.7,3.7-0.7c1.5,0,2.8,0.2,3.9,0.7
		c1.1,0.5,1.9,1.2,2.5,2.1c0.6,0.9,0.9,1.9,0.9,3.1c0,1.2-0.3,2.3-1,3.2c-0.7,0.9-1.7,1.7-2.9,2.2c-1.3,0.5-2.8,0.8-4.7,0.8
		c-2.2,0-4-0.4-5.5-1.2c-1.5-0.8-2.6-1.9-3.3-3.3c-0.7-1.4-1.1-3-1.1-4.8c0-1.8,0.4-3.4,1.1-4.9c0.7-1.4,1.8-2.5,3.3-3.3
		C361.7,897.1,363.5,896.7,365.6,896.7z"/>
</g>
<polygon class="st15" points="313.8,601.6 290.4,606 293,621.8 "/>
<g>
	<g>
		<circle class="st8" cx="266.5" cy="585.1" r="19.2"/>
	</g>
</g>
<g>
	<path class="st1" d="M270.7,585l0.4-1c1.5,0,2.8,0.3,3.7,0.7c1,0.4,1.7,1,2.2,1.8s0.7,1.6,0.7,2.6c0,1.1-0.2,2-0.7,2.8
		s-1.2,1.5-2.2,2s-2.2,0.7-3.6,0.7h-14.5l1.5-10.1l-1.5-9.5h13.9c1.8,0,3.2,0.4,4.2,1.3c1,0.8,1.5,2,1.5,3.5c0,0.8-0.2,1.6-0.6,2.4
		c-0.4,0.7-1,1.4-1.8,1.9C273.3,584.5,272.1,584.9,270.7,585z M262.2,593.3l-2.1-2.5h9.7c0.8,0,1.4-0.2,1.8-0.6
		c0.4-0.4,0.7-0.9,0.7-1.6c0-0.7-0.2-1.2-0.7-1.6c-0.5-0.4-1.2-0.6-2.1-0.6h-8v-3.7h7.3c0.6,0,1.2-0.2,1.6-0.6
		c0.4-0.4,0.6-0.9,0.6-1.5c0-0.5-0.2-1-0.5-1.3c-0.4-0.3-0.9-0.5-1.6-0.5h-8.8l2.1-2.5l1.3,8.3L262.2,593.3z"/>
</g>
<g>
	<g>
		<circle class="st8" cx="841.2" cy="911.1" r="19.3"/>
	</g>
</g>
<g>
	<path class="st1" d="M852,912.6c-0.2,1.7-0.8,3.1-1.7,4.4c-1,1.2-2.2,2.2-3.8,2.9c-1.5,0.7-3.3,1-5.3,1c-2.2,0-4.1-0.4-5.8-1.2
		c-1.6-0.8-2.9-2-3.8-3.4c-0.9-1.5-1.4-3.2-1.4-5.2s0.5-3.7,1.4-5.2s2.2-2.6,3.8-3.4c1.6-0.8,3.6-1.2,5.8-1.2c2,0,3.8,0.3,5.3,1
		s2.8,1.7,3.8,2.9s1.5,2.7,1.7,4.4h-5.2c-0.2-0.8-0.5-1.5-1-2c-0.5-0.6-1.1-1-1.9-1.3s-1.7-0.5-2.7-0.5c-1.2,0-2.2,0.2-3,0.6
		c-0.9,0.4-1.5,1-2,1.8s-0.7,1.7-0.7,2.9c0,1.1,0.2,2.1,0.7,2.9c0.5,0.8,1.1,1.4,2,1.8c0.9,0.4,1.9,0.6,3,0.6c1,0,1.9-0.1,2.7-0.4
		s1.4-0.7,1.9-1.3s0.8-1.3,1-2.1H852z"/>
</g>
<g>
	<polygon class="st16" points="819.9,869.5 789,880.4 814.1,883.7 	"/>
</g>
</svg>
