<?xml version="1.0" encoding="utf-8"?>
<!-- Generator: Adobe Illustrator 26.0.3, SVG Export Plug-In . SVG Version: 6.00 Build 0)  -->
<svg version="1.1" id="Слой_1" xmlns="http://www.w3.org/2000/svg" xmlns:xlink="http://www.w3.org/1999/xlink" x="0px" y="0px"
	 viewBox="0 0 1920 1080" style="enable-background:new 0 0 1920 1080;" xml:space="preserve">
<style type="text/css">
	.st0{fill:#66B9FF;}
	.st1{fill:#FFFFFF;}
	.st2{fill:none;stroke:#0085CC;stroke-width:4.5161;stroke-linecap:round;stroke-linejoin:round;stroke-miterlimit:10;}
	.st3{fill:none;stroke:#0085CC;stroke-width:7.025;stroke-linecap:round;stroke-linejoin:round;stroke-miterlimit:10;}
	.st4{fill:none;stroke:#0085CC;stroke-width:1.5054;stroke-linecap:round;stroke-linejoin:round;stroke-miterlimit:10;}
	.st5{fill:none;stroke:#0085CC;stroke-width:4.3761;stroke-linecap:round;stroke-linejoin:round;stroke-miterlimit:10;}
	.st6{fill:none;stroke:#0085CC;stroke-width:1.4066;stroke-linecap:round;stroke-linejoin:round;stroke-miterlimit:10;}
	.st7{fill:#0085CC;stroke:#0085CC;stroke-width:1.5054;stroke-linecap:round;stroke-linejoin:round;stroke-miterlimit:10;}
	.st8{fill:#FB493B;}
	.st9{fill:none;}
	.st10{fill-rule:evenodd;clip-rule:evenodd;fill:#FB493B;}
	.st11{fill:#FB493B;stroke:#FB493B;stroke-width:2.3558;stroke-linecap:round;stroke-linejoin:round;stroke-miterlimit:10;}
	.st12{fill:#3387FF;}
	.st13{fill:#1D0EB1;}
	.st14{fill:none;stroke:#1D0EB1;stroke-width:1.3206;stroke-linecap:round;stroke-linejoin:round;}
	.st15{enable-background:new    ;}
	.st16{fill:#FB493B;stroke:#FB493B;stroke-width:1.5443;stroke-linecap:round;stroke-linejoin:round;stroke-miterlimit:10;}
</style>
<g>
	<path class="st0" d="M1503,858.2l4-4.9l-39.3-10.8l-39.5-10.4l-39.6-10.1l-39.9-9.9l-40.1-9.6l-39.7-9.1v-0.3l53.6-119l0,0
		c101.5,15.8,211.7-3.8,280.1-52.1c78.9-55.8,81.5-135.5,6.3-193v-0.1c-14.5-10.7-30-20.3-45.6-29.4l-169.4-97.8
		c-5.5,3.2-11,6.3-16.5,9.5c-13.4,7.7-26.8,15.5-40.2,23.2c-16.7,9.7-168.3,97.7-168.3,97.7l-87.2-50.5l18.9-10.8l-32.3-18.6
		l149.3-86.2L938.9,105.1L247.1,504.6l271.4,156.8l48.2-27.7l75.1,43.3l-5,17.1l-67.8-5.5l-20.6,79.1l34.1,2.6l34.1,3l34,3l34,3.5
		l33.8,3.7l33.7,4l33.7,4.3l33.7,4.4l33.5,4.7l33.4,4.9l33.2,5.2l33.1,5.5c54.3,9.1,111.2,19.6,171.6,32l33.2,6.6l32.9,6.7l32.9,7.2
		l32.8,7.3l32.5,7.6l32.3,7.9l32.2,8.1l32,8.4l31.7,8.5l31.5,8.8l43-52.9L1503,858.2z"/>
	<path class="st1" d="M1500.5,835.5l3.9-4.9l-39.2-10.8l-39.3-10.3l-39.5-10l-39.8-9.9l-39.9-9.6l-39.6-9.1v-0.3l53.5-118.6l0,0
		c101.1,15.7,211-3.8,279.1-51.9c78.6-55.6,81.2-135,6.3-192.3v-0.1c-14.5-10.6-29.9-20.2-45.4-29.3l-168.9-97.5
		c-5.5,3.2-10.9,6.3-16.4,9.5c-13.3,7.7-26.7,15.4-40,23.2c-16.6,9.6-167.7,97.4-167.7,97.4l-86.9-50.3l18.8-10.8l-32.2-18.5
		l148.8-85.9L938.4,85L249,483.2l270.4,156.3l48-27.6l74.9,43.1l-5,17l-67.6-5.5l-20.5,78.8l34,2.6l34,3l33.9,3l33.9,3.5l33.7,3.6
		l33.6,3.9l33.6,4.3l33.6,4.4l33.4,4.7l33.3,4.9l33.1,5.2l33,5.5c54.1,9.1,110.8,19.6,171,31.9l33.1,6.5l32.8,6.7l32.8,7.1l32.6,7.3
		l32.3,7.6l32.2,7.9l32,8l31.9,8.4l31.6,8.5l31.4,8.8l42.8-52.7L1500.5,835.5z"/>
	<g>
		<g>
			<polyline class="st2" points="1218.8,795.8 1190.7,838.9 1218.8,795.8 			"/>
			<line class="st3" x1="1320.8" y1="653.1" x2="1267.1" y2="771.9"/>
			<polyline class="st3" points="1505.1,832 1465.8,821.4 1426.4,810.9 1386.8,800.8 1346.9,790.9 1306.9,781.5 1266.5,772.2 			"/>
			<line class="st2" x1="1298.2" y1="822" x2="1285.8" y2="819.2"/>
			<line class="st2" x1="1284.5" y1="841.8" x2="1368.4" y2="862.9"/>
			<path class="st2" d="M1313.8,817.6c-1.5-2.6-4.2-4.8-8-6.5l0,0l18.4-25.6"/>
			<path class="st2" d="M1314.3,824.8c0.9-2.4,0.8-4.8-0.5-7.1"/>
			<line class="st2" x1="1314.5" y1="824.9" x2="1383.7" y2="842.8"/>
			<line class="st2" x1="1267.6" y1="815" x2="1243.8" y2="809.7"/>
			<line class="st2" x1="1225.4" y1="805.5" x2="1214.1" y2="803.3"/>
			<line class="st2" x1="1181.8" y1="796.3" x2="1214.6" y2="803.3"/>
			<line class="st2" x1="1204.2" y1="758.8" x2="1158.7" y2="834.3"/>
			<polyline class="st4" points="1181.8,796.3 1145.4,789.1 1122.6,827.2 			"/>
			<line class="st2" x1="1297.9" y1="822.4" x2="1272.3" y2="859.1"/>
			<line class="st2" x1="1214.1" y1="803.3" x2="1189.8" y2="840.6"/>
			<line class="st2" x1="1255.8" y1="812.4" x2="1231.3" y2="849.7"/>
			<path class="st2" d="M1171.1,412.5c-4.3,3.6-8.4,7.4-12.4,11.4c-8.6,8.7-16.6,18.1-22.8,28.7c-6.6,11.4-11.4,23.1-13.8,36.1
				c-2.3,12.1-1.7,24.9,1.5,36.7c0.9,3.2,1.9,6.3,2.9,9.4"/>
			<path class="st3" d="M1392,281c-5.5,3.2-11,6.4-16.5,9.5c-13.4,7.7-26.7,15.4-40.1,23.1c-16.7,9.7-33.4,19.3-50.2,29
				c-15.4,8.9-30.8,17.8-46.3,26.7c-9.5,5.5-19,11-28.5,16.4c-7.4,4.3-14.8,8.7-21.8,13.5c-6,4.1-11.9,8.5-17.5,13.2"/>
			<polyline class="st3" points="616.9,269.5 937.4,84.4 1215.9,245.2 1066.7,331.4 1099,350 1080.1,360.8 			"/>
			<line class="st3" x1="1080.1" y1="360.8" x2="1169.8" y2="412.5"/>
			<polyline class="st2" points="1099,350 1023.8,393.3 1133.4,456.7 			"/>
			<line class="st2" x1="1066.7" y1="331.4" x2="1007" y2="365.8"/>
			<line class="st2" x1="1016" y1="371" x2="995.8" y2="359.2"/>
			<line class="st2" x1="1039.3" y1="384.4" x2="1030.3" y2="379.2"/>
			<line class="st2" x1="995.8" y1="359.2" x2="980.4" y2="368.2"/>
			<line class="st2" x1="951.2" y1="351.3" x2="713.3" y2="214"/>
			<line class="st2" x1="991.7" y1="374.8" x2="968.1" y2="361.2"/>
			<line class="st2" x1="697.3" y1="309.8" x2="686.2" y2="303.4"/>
			<line class="st2" x1="775.1" y1="354.7" x2="711.2" y2="317.8"/>
			<polyline class="st2" points="697.3,309.8 861.8,404.8 789,362.7 			"/>
			<line class="st2" x1="900.6" y1="427.3" x2="875.6" y2="412.8"/>
			<polyline class="st2" points="686.2,303.4 663.2,316.8 647.4,307.6 638.4,312.8 620,302.1 595,316.6 565.6,299.6 			"/>
			<line class="st2" x1="763.1" y1="506.6" x2="730.8" y2="525.4"/>
			<line class="st2" x1="940.8" y1="404" x2="777" y2="498.7"/>
			<line class="st2" x1="717" y1="533.4" x2="650" y2="572"/>
			<line class="st2" x1="685.9" y1="551.3" x2="407.4" y2="390.5"/>
			<polyline class="st2" points="652.7,456.4 523,381.3 590.3,342.5 			"/>
			<line class="st2" x1="663.2" y1="316.8" x2="618.9" y2="342.3"/>
			<line class="st4" x1="590.4" y1="341.1" x2="554.9" y2="320.7"/>
			<polyline class="st4" points="596.2,317.4 585.9,323.3 618.9,342.3 			"/>
			<polyline class="st4" points="554.9,320.7 447.6,382.8 613.9,478.8 			"/>
			<line class="st4" x1="612.4" y1="432.9" x2="573.4" y2="455.5"/>
			<polyline class="st4" points="591.5,445 514.6,400.5 496.3,411 			"/>
			<line class="st4" x1="536.7" y1="413.3" x2="518.4" y2="423.8"/>
			<line class="st4" x1="562.6" y1="428.2" x2="544.4" y2="438.7"/>
			<line class="st4" x1="539.4" y1="435.8" x2="512.8" y2="451.2"/>
			<polyline class="st4" points="422.9,381.5 515.5,434.9 499.5,444.1 			"/>
			<line class="st4" x1="492.4" y1="421.5" x2="475.8" y2="431.1"/>
			<line class="st4" x1="472.9" y1="410.3" x2="457.3" y2="419.2"/>
			<line class="st4" x1="457" y1="401.1" x2="441.4" y2="410.1"/>
			<line class="st4" x1="436.3" y1="389.2" x2="420.5" y2="398.4"/>
			<line class="st4" x1="537.1" y1="331.1" x2="573.5" y2="352.1"/>
			<polyline class="st2" points="751.5,513.3 652.7,456.4 587.2,494.2 			"/>
			<line class="st5" x1="591.2" y1="342.9" x2="592" y2="343.4"/>
			<path class="st2" d="M591.8,343.4c6.9,4,18.2,4,25.1,0"/>
			<line class="st2" x1="616.9" y1="343.4" x2="627.6" y2="337.2"/>
			<polyline class="st2" points="629.6,518.7 578.9,548.1 514.1,510.6 451.4,546.7 565.5,612.6 			"/>
			<line class="st2" x1="443.3" y1="597.7" x2="491.5" y2="569.8"/>
			<line class="st2" x1="470.6" y1="613.4" x2="518.7" y2="585.5"/>
			<line class="st2" x1="403.3" y1="574.5" x2="451.4" y2="546.7"/>
			<line class="st2" x1="514.1" y1="510.6" x2="564.7" y2="481.4"/>
			<polyline class="st3" points="565.5,612.6 517.3,640.3 246.1,483.6 591.2,284.4 			"/>
			<polyline class="st2" points="1570,516.8 1591.7,497 1661.3,495.7 			"/>
			<polyline class="st2" points="1541.3,367.3 1499.6,404 1435.8,404.5 1434,404.2 			"/>
			<path class="st2" d="M1433.8,404c-49.5-6.7-101.6-0.3-142.1,17.4"/>
			<path class="st2" d="M1291.8,421.5c-75.4,32.9-90.3,94.8-33.4,138.3s164.2,52.1,239.6,19.3"/>
			<path class="st2" d="M1498,579c30.6-13.3,52.5-32.1,62.3-53.5"/>
			<polyline class="st4" points="1304,331.7 1405.2,390.2 1405.5,390.2 1406,390.2 1406.7,390.2 1408,390.2 1409.5,390.2 
				1411.2,390.3 1413.3,390.3 1415.7,390.5 1418.3,390.6 1421.4,390.8 1424.6,391.1 1428.1,391.5 1431.9,391.8 1436,392.4 
				1440.2,392.9 1444.8,393.7 1452.3,389.4 1478.2,404.3 			"/>
			<line class="st4" x1="1438.4" y1="307.6" x2="1350.4" y2="358.5"/>
			<polyline class="st4" points="1519.6,354.7 1471.5,382.4 1390.3,335.5 			"/>
			<line class="st4" x1="1479.1" y1="331.2" x2="1430.8" y2="358.9"/>
			<polyline class="st4" points="1411.5,347.7 1426.4,339 1465.1,361.4 1450.1,370.1 			"/>
			<polyline class="st4" points="1452.3,389.4 1398.7,358.5 1374.6,372.5 			"/>
			<polyline class="st4" points="1374.6,344.5 1385.9,351 1361.7,365 			"/>
			<line class="st4" x1="1495.5" y1="368.5" x2="1522.3" y2="383.9"/>
			<line class="st4" x1="1408.7" y1="364.3" x2="1384.5" y2="378.3"/>
			<line class="st4" x1="1421.8" y1="371.9" x2="1397.6" y2="385.7"/>
			<line class="st4" x1="1416.9" y1="390.5" x2="1435.7" y2="379.8"/>
			<polyline class="st2" points="1332,408.4 1290.4,347.1 1284,343.3 			"/>
			<path class="st2" d="M1152.8,575.9c6.8,7.3,14.5,14.3,23.2,20.9"/>
			<path class="st2" d="M1175.9,596.9c8.6,6.6,18.1,12.8,28.4,18.5"/>
			<line class="st4" x1="1179.4" y1="599.1" x2="1146.2" y2="614.4"/>
			<path class="st4" d="M1140.9,610.4c-9.4-7.2-17.7-14.7-25-22.7l35.7-12.9"/>
			<path class="st4" d="M1140.9,610.4c10.3,7.9,21.9,15.3,34.5,22"/>
			<polyline class="st4" points="1175.4,632.6 1176.5,633 1206.4,615.7 1203.3,614.7 			"/>
			<path class="st2" d="M733.4,700.3c5.6,0.7,11.2,1.3,16.7,1.9c5.5,0.6,11,1.4,16.5,2c5,0.5,9.9,1.4,14.9,2.1
				c5.1,0.7,10.2,1.4,15.3,2.1c6.8,0.9,13.6,1.8,20.4,2.7c0.2,0,0.3,0,0.5,0.1"/>
			<path class="st6" d="M819.1,711.3c-0.5-0.1-1-0.1-1.4-0.2"/>
			<line class="st2" x1="819" y1="711.4" x2="794.8" y2="771.9"/>
			<polyline class="st4" points="760.2,686.2 768.4,665.3 885.7,681 878.1,700.3 			"/>
			<line class="st4" x1="837.6" y1="674.4" x2="853.5" y2="632.9"/>
			<line class="st2" x1="853.5" y1="634.2" x2="729.8" y2="618.4"/>
			<line class="st4" x1="1527.2" y1="637.1" x2="1487.6" y2="597.1"/>
			<line class="st4" x1="1604.8" y1="597.8" x2="1542.6" y2="570.4"/>
			<path class="st4" d="M1527.8,579.1c12.2-7,22.7-14.9,31.2-23.5"/>
			<path class="st4" d="M1399.1,611.9c48.5-1.2,94.5-12.9,128.8-32.8"/>
			<path class="st4" d="M1356.7,610.3c14,1.4,28.2,1.9,42.3,1.6"/>
			<polyline class="st2" points="1290.9,623.6 1309,600.9 1316.4,602.7 			"/>
			<path class="st3" d="M1320.8,653.1c101.4,15.9,211.3-3.9,279.8-52.3c78.8-55.8,81.4-135.4,6.3-192.9v-0.1c-0.6,0-1.5-1.1-1.9-1.4
				c-0.7-0.6-1.5-1.1-2.3-1.6c-1.5-1-3-2.1-4.5-3.1c-3-2-6-4-9-6c-5.7-3.8-11.6-7.3-17.4-10.9c-3.5-2.1-7-4.3-10.6-6.4L1392,281"/>
			<path class="st2" d="M1282.5,633.8l-7.6,9.4l0.4,0.2c14.9,4.1,30.1,7.3,45.5,9.8"/>
			<polyline class="st2" points="1577.6,530.4 1584.4,516.1 1575.3,512.9 			"/>
			<path class="st4" d="M1351.3,625.9c6.4,0.6,12.9,1.1,19.4,1.4"/>
			<line class="st4" x1="1370.8" y1="627.4" x2="1373.9" y2="611.7"/>
			<line class="st4" x1="1402.5" y1="658.3" x2="1399.4" y2="612"/>
			<line class="st2" x1="1151.5" y1="489.4" x2="1122" y2="489.4"/>
			<path class="st2" d="M1202.8,468.5c-2.8,6.4-4.9,13-6.4,19.6l0,0c-0.1,0.5-0.2,0.9-0.2,1.4l-21.8-0.1"/>
			<path class="st2" d="M1324.4,604.5c0.6,0.1,1.1,0.2,1.7,0.4"/>
			<path class="st2" d="M1326.1,604.9c4.7,1,9.4,1.9,14.2,2.8l12.4,2.1l3.5,0.5l-14,45.5"/>
			<polyline class="st2" points="1298,614.7 1298.2,614.7 1298.6,614.9 1299.4,615.1 1300.3,615.4 1301.5,615.5 1302.7,616 
				1304.3,616.3 1305.9,616.7 1309.4,617.5 1313.6,618.4 1317.7,619.3 1322.1,620.1 1330.9,605.9 			"/>
			<polyline class="st2" points="1630,574.9 1560.2,555.2 1560.4,555.1 1560.7,554.6 1561.9,553.2 1563.4,551.4 1564.8,549.4 			"/>
			<polyline class="st2" points="1221.1,762.3 1184.3,754.7 1147.3,747.2 1110.3,740.2 1073,733.2 1035.5,726.7 999.9,720.6 
				963.9,714.6 928,709 892.1,703.7 855.8,698.5 819.6,693.5 783.4,688.9 746.8,684.3 710.3,680.2 729.1,617.8 650,572 			"/>
			<line class="st4" x1="1017.8" y1="723.2" x2="1038.6" y2="679.2"/>
			<line class="st4" x1="1073.7" y1="733.5" x2="1096.7" y2="689.1"/>
			<line class="st4" x1="1133.1" y1="744.6" x2="1157.6" y2="699.9"/>
			<line class="st2" x1="1218.7" y1="711" x2="1194.3" y2="756.7"/>
			<polyline class="st4" points="1218.5,711.4 1180.5,704 1142.3,697 1103.9,690.1 1066.7,683.7 1029.4,677.6 992,671.8 			"/>
			<line class="st2" x1="973" y1="715" x2="992.1" y2="671.5"/>
			<line class="st2" x1="1268" y1="772.3" x2="1252.6" y2="769"/>
			<path class="st2" d="M733.4,700.3c-1.8,0-3.6-0.5-5.5-0.6c-2.1-0.2-4.2-0.4-6.3-0.8c-3.8-0.6-7.7-0.8-11.5-1.3
				c-2.2-0.3-4.5-0.5-6.7-0.8c-1.7-0.2-3.5-0.5-5.2-0.7c-4.1-0.4-8.2-0.8-12.3-1.3c-4.4-0.5-8.9-1-13.3-1.4
				c-3.6-0.4-7.2-0.7-10.8-1.1c-4.2-0.4-8.3-0.8-12.5-1.2c-3.9-0.4-7.7-0.7-11.6-1c-4.3-0.4-8.5-0.8-12.8-1.1
				c-4.4-0.3-8.9-0.6-13.3-0.9c-0.7,0-1.5-0.1-2.2-0.1"/>
			<polyline class="st3" points="1505.1,832 1446.3,904.2 1414.8,895.4 1383.1,886.9 1351.2,878.5 1319,870.4 1286.8,862.5 
				1254.2,854.9 1221.6,847.6 1188.7,840.6 1155.8,833.7 1122.6,827.2 1094.7,821.4 1066.7,815.7 1038.7,810.4 1009.5,805.1 
				980.2,800.1 950.8,795.2 			"/>
			<polyline class="st3" points="951.2,795.2 918.1,789.7 884.8,784.5 851.4,779.7 818.1,774.9 784.4,770.5 750.8,766.3 717,762.3 
				683.2,758.6 649.4,755.3 615.2,752.1 581.3,749 547.2,746.5 567.6,667.4 635.3,672.9 640.5,655.9 565.6,612.8 			"/>
			<line class="st4" x1="1436.7" y1="855.2" x2="1477.7" y2="865.7"/>
			<line class="st4" x1="1386.6" y1="836.7" x2="1410.4" y2="805.5"/>
			<line class="st4" x1="1357.6" y1="879.5" x2="1376.3" y2="854.9"/>
			<line class="st2" x1="1368.4" y1="862.9" x2="1374.5" y2="855"/>
			<line class="st4" x1="1416" y1="845.3" x2="1440.2" y2="813.5"/>
			<polyline class="st2" points="1374.5,855 1411.5,864.2 1413.3,864.6 1415.3,864.9 1417.4,865.1 1419.7,865.1 1422.1,864.9 
				1424.7,864.6 1426.4,864.3 1427.9,863.9 1430.6,862.9 1432.9,862 1434.8,861 1436.1,859.9 1437.2,859 1438,858.4 1438.1,858.1 
				1438.3,857.9 1439.2,856.9 1410.9,849.7 1414.7,844.7 1387.6,837.8 1383.7,842.8 			"/>
			<line class="st2" x1="609.5" y1="688" x2="613.6" y2="671.1"/>
			<line class="st2" x1="938.4" y1="344" x2="891.8" y2="371"/>
			<line class="st2" x1="692.4" y1="255.8" x2="666.9" y2="241.1"/>
			<line class="st2" x1="720.5" y1="272" x2="706.3" y2="263.9"/>
			<line class="st2" x1="840.8" y1="341.4" x2="734.5" y2="280.1"/>
			<line class="st2" x1="870.1" y1="358.5" x2="854.8" y2="349.5"/>
			<line class="st2" x1="891.8" y1="371" x2="884.2" y2="366.5"/>
			<line class="st2" x1="714.7" y1="268.6" x2="761.3" y2="241.7"/>
			<line class="st2" x1="909" y1="327.1" x2="862.4" y2="353.9"/>
			<line class="st2" x1="749.7" y1="277.8" x2="740.1" y2="283.4"/>
			<line class="st2" x1="786.7" y1="256.5" x2="760.5" y2="271.5"/>
			<line class="st4" x1="639.5" y1="313.4" x2="604.1" y2="333.8"/>
			<line class="st2" x1="692.4" y1="255.8" x2="706.3" y2="263.9"/>
			<line class="st2" x1="1133.4" y1="456.7" x2="1211.8" y2="469.9"/>
			<line class="st2" x1="1221.6" y1="471.6" x2="1230.6" y2="473"/>
			<polyline class="st2" points="1652.2,542.9 1578.3,530.5 1652.2,542.9 			"/>
			<path class="st2" d="M1574.8,535.5c1-1.7,2-3.5,2.9-5.2"/>
			<polyline class="st4" points="940.8,404 972.5,422.3 972.5,422.4 904.6,461.6 872.9,443.3 			"/>
		</g>
		<g>
			<polygon class="st7" points="804.9,605 809.3,605.6 808.2,608.1 803.8,607.5 			"/>
			<polygon class="st7" points="1096.3,668.2 1100.6,668.9 1099.6,671.3 1095.2,670.7 			"/>
			<polygon class="st7" points="1055,616.7 1059.3,617.3 1058.2,619.8 1053.9,619.2 			"/>
			<polygon class="st7" points="913.3,641.2 917.7,641.8 916.6,644.3 912.3,643.7 			"/>
			<polygon class="st7" points="1156.4,677 1160.7,677.7 1159.6,680.1 1155.3,679.5 			"/>
			<polygon class="st7" points="974,650.3 978.4,650.9 977.3,653.4 973,652.8 			"/>
			<polygon class="st7" points="1223.1,686.7 1227.4,687.3 1226.3,689.8 1222,689.2 			"/>
			<polygon class="st7" points="993.7,607.8 998.1,608.4 997,610.9 992.7,610.3 			"/>
			<polygon class="st7" points="1018.2,558.8 1022.6,559.4 1021.5,561.9 1017.2,561.2 			"/>
			<polygon class="st7" points="933,598.7 937.3,599.3 936.2,601.8 931.9,601.2 			"/>
			<polygon class="st7" points="1079.6,567.7 1083.9,568.3 1082.8,570.8 1078.5,570.2 			"/>
			<polygon class="st7" points="872.6,590.1 877,590.8 875.9,593.3 871.6,592.6 			"/>
			<polygon class="st7" points="945.6,574.6 949.9,575.2 948.8,577.7 944.5,577 			"/>
			<polygon class="st7" points="1035.3,659.2 1039.7,659.8 1038.6,662.3 1034.2,661.7 			"/>
			<polygon class="st7" points="1116.7,625.9 1121,626.5 1119.9,629 1115.6,628.4 			"/>
		</g>
		<g>
			<polyline class="st8" points="955.4,359.8 934.5,359.8 955.5,371.8 			"/>
			<line class="st9" x1="955.5" y1="371.8" x2="955.4" y2="359.8"/>
			<polygon class="st10" points="955.4,359.8 955.5,371.8 934.5,359.8 			"/>
			<path class="st10" d="M934.5,359.8l21,12L934.5,359.8z"/>
			<polygon class="st11" points="955.4,359.8 934.5,359.8 955.5,371.8 			"/>
		</g>
		<polygon class="st12" points="742.2,214.5 980.4,352.2 994.8,342.7 1003.9,347.9 1185.3,245.4 937.5,102.2 		"/>
	</g>
	<g>
		<g>
			<circle class="st13" cx="864" cy="656.2" r="19.8"/>
		</g>
		<path class="st1" d="M853.5,648.6v5.4c0,0.2,0.1,0.4,0.3,0.6l13.8,9.8c0.1,0.1,0.2,0.1,0.3,0.1h6c0.3,0,0.6-0.3,0.6-0.6V659
			c0-0.3-0.3-0.6-0.6-0.6h-4.1v-2.8c0-0.3-0.3-0.6-0.6-0.6h-4.1v-2.8c0-0.3-0.3-0.6-0.6-0.6h-4.1v-2.8c0-0.3-0.3-0.6-0.6-0.6H854
			C853.8,648,853.5,648.3,853.5,648.6z M859.3,649.3v2.8c0,0.3,0.3,0.6,0.6,0.6h4.1v2.8c0,0.3,0.3,0.6,0.6,0.6h4.1v2.8
			c0,0.3,0.3,0.6,0.6,0.6h4.1v3.7h-5.3l-13.4-9.5v-4.4L859.3,649.3z"/>
		<g>
			<path class="st13" d="M864,673.9c0,0,0.2,0.2,0.5,0.6c0.2,0.2,0.4,0.5,0.5,0.7c0.1,0.1,0.2,0.3,0.3,0.5c0.1,0.1,0.1,0.2,0,0.2
				c0,0.1,0,0.2,0,0.3c0,1.4,0,3.3,0,5.2s0,3.8,0,5.2c0,0.1,0,0.2,0,0.3s0,0.2,0,0.2c-0.1,0.2-0.2,0.3-0.3,0.5
				c-0.2,0.3-0.4,0.5-0.5,0.7c-0.3,0.4-0.5,0.6-0.5,0.6s-0.2-0.2-0.5-0.6c-0.2-0.2-0.4-0.5-0.5-0.7c-0.1-0.1-0.2-0.3-0.3-0.5
				c-0.1-0.1-0.1-0.2,0-0.2c0-0.1,0-0.2,0-0.3c0-1.4,0-3.3,0-5.2s0-3.8,0-5.2c0-0.1,0-0.2,0-0.3s0-0.2,0-0.2
				c0.1-0.2,0.2-0.3,0.3-0.5c0.2-0.3,0.4-0.5,0.5-0.7C863.8,674.1,864,673.9,864,673.9z"/>
		</g>
	</g>
	<g>
		<g>
			<circle class="st13" cx="1265.9" cy="805.1" r="19.8"/>
		</g>
		<path class="st1" d="M1275.8,796.9h-5.8c-0.3,0-0.6,0.3-0.6,0.6v2.8h-4.1c-0.3,0-0.6,0.3-0.6,0.6v2.8h-4.1c-0.3,0-0.6,0.3-0.6,0.6
			v2.8h-4.1c-0.3,0-0.6,0.3-0.6,0.6v4.9c0,0.3,0.3,0.6,0.6,0.6h6c0.1,0,0.2,0,0.3-0.1l13.8-9.8c0.2-0.1,0.3-0.3,0.3-0.6v-5.4
			C1276.4,797.2,1276.1,796.9,1275.8,796.9z M1275.2,798.1v4.4l-13.4,9.5h-5.3v-3.7h4.1c0.3,0,0.6-0.3,0.6-0.6v-2.8h4.1
			c0.3,0,0.6-0.3,0.6-0.6v-2.8h4.1c0.3,0,0.6-0.3,0.6-0.6v-2.8L1275.2,798.1z"/>
		<g>
			<path class="st13" d="M1265.9,822.8c0,0,0.2,0.2,0.5,0.6c0.2,0.2,0.4,0.5,0.5,0.7c0.1,0.1,0.2,0.3,0.3,0.5c0.1,0.1,0,0.2,0,0.2
				c0,0.1,0,0.2,0,0.3c0,1.4,0,3.3,0,5.2s0,3.8,0,5.2c0,0.1,0,0.2,0,0.3s0,0.2,0,0.2c-0.1,0.2-0.2,0.3-0.3,0.5
				c-0.2,0.3-0.4,0.5-0.5,0.7c-0.3,0.4-0.5,0.6-0.5,0.6s-0.2-0.2-0.5-0.6c-0.2-0.2-0.4-0.5-0.5-0.7c-0.1-0.1-0.2-0.3-0.3-0.5
				c-0.1-0.1-0.1-0.2,0-0.2c0-0.1,0-0.2,0-0.3c0-1.4,0-3.3,0-5.2s0-3.8,0-5.2c0-0.1,0-0.2,0-0.3s0-0.2,0-0.2
				c0.1-0.2,0.2-0.3,0.3-0.5c0.2-0.3,0.4-0.5,0.5-0.7C1265.7,823,1265.9,822.8,1265.9,822.8z"/>
		</g>
	</g>
	<g>
		<g>
			<circle class="st13" cx="784.6" cy="621.6" r="19.8"/>
		</g>
		<g>
			<path class="st13" d="M784.6,639.3c0,0,0.2,0.2,0.5,0.6c0.2,0.2,0.4,0.5,0.5,0.7c0.1,0.1,0.2,0.3,0.3,0.5c0.1,0.1,0.1,0.2,0,0.2
				c0,0.1,0,0.2,0,0.3c0,1.4,0,3.3,0,5.2s0,3.8,0,5.2c0,0.1,0,0.2,0,0.3s0,0.2,0,0.2c-0.1,0.2-0.2,0.3-0.3,0.5
				c-0.2,0.3-0.4,0.5-0.5,0.7c-0.3,0.4-0.5,0.6-0.5,0.6s-0.2-0.2-0.5-0.6c-0.2-0.2-0.4-0.5-0.5-0.7c-0.1-0.1-0.2-0.3-0.3-0.5
				c-0.1-0.1-0.1-0.2,0-0.2c0-0.1,0-0.2,0-0.3c0-1.4,0-3.3,0-5.2s0-3.8,0-5.2c0-0.1,0-0.2,0-0.3s0-0.2,0-0.2
				c0.1-0.2,0.2-0.3,0.3-0.5c0.2-0.3,0.4-0.5,0.5-0.7C784.4,639.5,784.6,639.3,784.6,639.3z"/>
		</g>
		<path class="st1" d="M796,624.4l-10.8-6.1c0-0.5,0.1-0.9,0.3-1.2c0.1-0.1,0.1-0.1,0.3-0.2c0.1-0.1,0.3-0.2,0.5-0.4
			c1.3-1.1,1.5-2.1,1.5-2.9c0-1.1-0.7-2.2-1.7-2.7c-0.2-0.1-1.5-0.8-2.9-0.1c-1.5,0.8-1.7,2.5-1.7,2.5c0,0.4,0.2,0.7,0.6,0.7
			c0.4,0,0.7-0.2,0.7-0.6c0,0,0.1-1,1-1.4c0.8-0.4,1.5,0,1.6,0.1c0.6,0.3,1,0.9,1,1.5s-0.3,1.2-1,1.8c-0.1,0.1-0.2,0.2-0.3,0.2
			c-0.2,0.1-0.4,0.2-0.6,0.5c-0.4,0.5-0.6,1.2-0.6,2.1l-10.7,6.2c-1,0.6-1.4,1.6-1.1,2.7c0.3,1.1,1.2,1.8,2.4,1.8h20.4
			c1.2,0,2.1-0.7,2.4-1.9C797.5,626.1,797,625,796,624.4 M795.9,626.8c-0.1,0.4-0.5,0.9-1.1,0.9h-20.4c-0.6,0-0.9-0.4-1-0.8
			c-0.1-0.4,0-0.9,0.5-1.2l10.7-6.2l10.7,6.1C795.9,625.9,796,626.5,795.9,626.8"/>
	</g>
	<g>
		<g>
			<circle class="st13" cx="1048.3" cy="327.2" r="19.8"/>
		</g>
		<path class="st1" d="M1058.2,319h-5.8c-0.3,0-0.6,0.3-0.6,0.6v2.8h-4.1c-0.3,0-0.6,0.3-0.6,0.6v2.8h-4.1c-0.3,0-0.6,0.3-0.6,0.6
			v2.8h-4.1c-0.3,0-0.6,0.3-0.6,0.6v4.9c0,0.3,0.3,0.6,0.6,0.6h6c0.1,0,0.2,0,0.3-0.1l13.8-9.8c0.2-0.1,0.3-0.3,0.3-0.6v-5.4
			C1058.8,319.2,1058.6,319,1058.2,319z M1057.7,320.2v4.4l-13.4,9.5h-5.3v-3.7h4.1c0.3,0,0.6-0.3,0.6-0.6V327h4.1
			c0.3,0,0.6-0.3,0.6-0.6v-2.8h4.1c0.3,0,0.6-0.3,0.6-0.6v-2.8H1057.7z"/>
		<g>
			<path class="st13" d="M1048.3,344.8c0,0,0.2,0.2,0.5,0.6c0.2,0.2,0.4,0.5,0.5,0.7c0.1,0.1,0.2,0.3,0.3,0.5c0.1,0.1,0.1,0.2,0,0.2
				c0,0.1,0,0.2,0,0.3c0,1.4,0,3.3,0,5.2s0,3.8,0,5.2c0,0.1,0,0.2,0,0.3c0,0.1,0,0.2,0,0.2c-0.1,0.2-0.2,0.3-0.3,0.5
				c-0.2,0.3-0.4,0.5-0.5,0.7c-0.3,0.4-0.5,0.6-0.5,0.6s-0.2-0.2-0.5-0.6c-0.2-0.2-0.4-0.5-0.5-0.7c-0.1-0.1-0.2-0.3-0.3-0.5
				c-0.1-0.1-0.1-0.2,0-0.2c0-0.1,0-0.2,0-0.3c0-1.4,0-3.3,0-5.2s0-3.8,0-5.2c0-0.1,0-0.2,0-0.3c0-0.1,0-0.2,0-0.2
				c0.1-0.2,0.2-0.3,0.3-0.5c0.2-0.3,0.4-0.5,0.5-0.7C1048.1,345.1,1048.3,344.8,1048.3,344.8z"/>
		</g>
	</g>
	<g>
		<g>
			<circle class="st13" cx="1148.9" cy="566.6" r="19.8"/>
		</g>
		<path class="st1" d="M1158.8,558.4h-5.8c-0.3,0-0.6,0.3-0.6,0.6v2.8h-4.1c-0.3,0-0.6,0.3-0.6,0.6v2.8h-4.1c-0.3,0-0.6,0.3-0.6,0.6
			v2.8h-4.1c-0.3,0-0.6,0.3-0.6,0.6v4.9c0,0.3,0.3,0.6,0.6,0.6h6c0.1,0,0.2,0,0.3-0.1l13.8-9.8c0.2-0.1,0.3-0.3,0.3-0.6v-5.4
			C1159.4,558.7,1159.2,558.4,1158.8,558.4z M1158.3,559.6v4.4l-13.4,9.5h-5.3v-3.7h4.1c0.3,0,0.6-0.3,0.6-0.6v-2.8h4.1
			c0.3,0,0.6-0.3,0.6-0.6V563h4.1c0.3,0,0.6-0.3,0.6-0.6v-2.8L1158.3,559.6z"/>
		<g>
			<path class="st13" d="M1148.9,584.2c0,0,0.2,0.2,0.5,0.6c0.2,0.2,0.4,0.5,0.5,0.7c0.1,0.1,0.2,0.3,0.3,0.5c0.1,0.1,0.1,0.2,0,0.2
				c0,0.1,0,0.2,0,0.3c0,1.4,0,3.3,0,5.2s0,3.8,0,5.2c0,0.1,0,0.2,0,0.3s0,0.2,0,0.2c-0.1,0.2-0.2,0.3-0.3,0.5
				c-0.2,0.3-0.4,0.5-0.5,0.7c-0.3,0.4-0.5,0.6-0.5,0.6s-0.2-0.2-0.5-0.6c-0.2-0.2-0.4-0.5-0.5-0.7c-0.1-0.1-0.2-0.3-0.3-0.5
				c-0.1-0.1-0.1-0.2,0-0.2c0-0.1,0-0.2,0-0.3c0-1.4,0-3.3,0-5.2s0-3.8,0-5.2c0-0.1,0-0.2,0-0.3s0-0.2,0-0.2
				c0.1-0.2,0.2-0.3,0.3-0.5c0.2-0.3,0.4-0.5,0.5-0.7C1148.7,584.5,1148.9,584.2,1148.9,584.2z"/>
		</g>
	</g>
	<g>
		<g>
			<circle class="st13" cx="1606.3" cy="523.8" r="19.8"/>
		</g>
		<path class="st1" d="M1616.2,515.6h-5.8c-0.3,0-0.6,0.3-0.6,0.6v2.8h-4.1c-0.3,0-0.6,0.3-0.6,0.6v2.8h-4.1c-0.3,0-0.6,0.3-0.6,0.6
			v2.8h-4.1c-0.3,0-0.6,0.3-0.6,0.6v4.9c0,0.3,0.3,0.6,0.6,0.6h6c0.1,0,0.2,0,0.3-0.1l13.8-9.8c0.2-0.1,0.3-0.3,0.3-0.6V516
			C1616.8,515.9,1616.5,515.6,1616.2,515.6z M1615.6,516.8v4.4l-13.4,9.5h-5.3V527h4.1c0.3,0,0.6-0.3,0.6-0.6v-2.8h4.1
			c0.3,0,0.6-0.3,0.6-0.6v-2.8h4.1c0.3,0,0.6-0.3,0.6-0.6v-2.8L1615.6,516.8z"/>
		<g>
			<path class="st13" d="M1606.3,541.5c0,0,0.2,0.2,0.5,0.6c0.2,0.2,0.4,0.5,0.5,0.7c0.1,0.1,0.2,0.3,0.3,0.5c0.1,0.1,0,0.2,0,0.2
				c0,0.1,0,0.2,0,0.3c0,1.4,0,3.3,0,5.2s0,3.8,0,5.2c0,0.1,0,0.2,0,0.3s0,0.2,0,0.2c-0.1,0.2-0.2,0.3-0.3,0.5
				c-0.2,0.3-0.4,0.5-0.5,0.7c-0.3,0.4-0.5,0.6-0.5,0.6s-0.2-0.2-0.5-0.6c-0.2-0.2-0.4-0.5-0.5-0.7c-0.1-0.1-0.2-0.3-0.3-0.5
				c-0.1-0.1-0.1-0.2,0-0.2c0-0.1,0-0.2,0-0.3c0-1.4,0-3.3,0-5.2s0-3.8,0-5.2c0-0.1,0-0.2,0-0.3s0-0.2,0-0.2
				c0.1-0.2,0.2-0.3,0.3-0.5c0.2-0.3,0.4-0.5,0.5-0.7C1606.1,541.7,1606.3,541.5,1606.3,541.5z"/>
		</g>
	</g>
	<g>
		<g>
			<circle class="st13" cx="1282.2" cy="650.5" r="19.8"/>
		</g>
		<g>
			<path class="st13" d="M1282.2,668.2c0,0,0.2,0.2,0.5,0.6c0.1,0.2,0.3,0.5,0.5,0.7c0.1,0.1,0.2,0.3,0.3,0.5c0.1,0.2,0,0.3,0,0.5
				c0,1.4,0,3.3,0,5.2s0,3.8,0,5.2c0,0.1,0,0.2,0,0.3s0,0.2,0,0.2c-0.1,0.2-0.2,0.3-0.3,0.5c-0.2,0.3-0.3,0.5-0.5,0.7
				c-0.3,0.4-0.5,0.6-0.5,0.6s-0.2-0.2-0.5-0.6c-0.1-0.2-0.3-0.5-0.5-0.7c-0.1-0.1-0.2-0.3-0.3-0.5c-0.1-0.1-0.1-0.2,0-0.2
				c0-0.1,0-0.2,0-0.3c0-1.4,0-3.3,0-5.2s0-3.8,0-5.2c0-0.2-0.1-0.3,0-0.5s0.2-0.3,0.3-0.5c0.2-0.3,0.3-0.5,0.5-0.7
				C1282,668.4,1282.2,668.2,1282.2,668.2z"/>
		</g>
		<g>
			<path class="st9" d="M1290.8,648.7h-1.1v5.5c0.4,0.1,0.7,0.2,1.1,0.2c1.7,0,3.2-1.3,3.2-2.8
				C1294,649.9,1292.6,648.7,1290.8,648.7z"/>
			<path class="st1" d="M1282.7,641.3c0.7,0.6,1.3,1,1.3,2.2c0,0.8-0.8,1.6-1.2,1.8c-0.2,0.1-0.3,0.4-0.3,0.6
				c0.1,0.2,0.2,0.3,0.4,0.3c0.1,0,0.1,0,0.2,0c0.7-0.3,1.8-1.4,1.8-2.6c0-1.6-0.9-2.4-1.7-2.9c-0.6-0.5-1.2-0.9-1.2-1.8
				c0-1.3,1.3-2,1.6-2c0.3,0,0.5-0.2,0.5-0.5s-0.2-0.5-0.5-0.5c-0.7,0-2.5,1-2.5,2.9C1281.2,640.1,1282,640.8,1282.7,641.3z"/>
			<path class="st1" d="M1278.9,641.8c0.6,0.5,1.1,0.8,1.1,1.8c0,0.6-0.6,1.3-1,1.4c-0.2,0.1-0.3,0.4-0.3,0.6
				c0.1,0.2,0.2,0.3,0.4,0.3c0.1,0,0.1,0,0.2,0c0.6-0.3,1.5-1.2,1.5-2.3c0-1.4-0.8-2-1.4-2.5c-0.5-0.4-0.9-0.7-0.9-1.5
				c0-1,1-1.6,1.2-1.6c0.3,0,0.5-0.2,0.5-0.5s-0.2-0.5-0.5-0.5c-0.8,0-2.1,0.9-2.1,2.5C1277.7,640.8,1278.3,641.4,1278.9,641.8z"/>
			<path class="st1" d="M1290.8,648.1h-2.5l0,0H1275c-0.3,0-0.6,0.3-0.6,0.6v8.4c0,0.3,0.3,0.6,0.6,0.6h14c0.3,0,0.6-0.3,0.6-0.6
				v-2.3c0.4,0.1,0.8,0.2,1.1,0.2c2.1,0,3.8-1.5,3.8-3.5S1292.9,648.1,1290.8,648.1z M1290.8,654.3c-0.4,0-0.8-0.1-1.1-0.2v-5.5h1.1
				c1.7,0,3.2,1.3,3.2,2.8C1294,653.1,1292.6,654.3,1290.8,654.3z"/>
			<path class="st1" d="M1292,659.1h-19.2c-0.3,0-0.6,0.3-0.6,0.6s0.3,0.6,0.6,0.6h19.2c0.3,0,0.6-0.3,0.6-0.6
				C1292.6,659.4,1292.3,659.1,1292,659.1z"/>
		</g>
	</g>
	<g>
		<g>
			<circle class="st13" cx="923.6" cy="399.7" r="19.8"/>
		</g>
		<g>
			<path class="st13" d="M923.6,417.3c0,0,0.2,0.2,0.5,0.6c0.1,0.2,0.3,0.5,0.5,0.7c0.1,0.1,0.2,0.3,0.3,0.5s0,0.3,0,0.5
				c0,1.4,0,3.3,0,5.2c0,1.9,0,3.8,0,5.2c0,0.1,0,0.2,0,0.3c0,0.1,0,0.2,0,0.2c-0.1,0.2-0.2,0.3-0.3,0.5c-0.2,0.3-0.3,0.5-0.5,0.7
				c-0.3,0.4-0.5,0.6-0.5,0.6s-0.2-0.2-0.5-0.6c-0.1-0.2-0.3-0.5-0.5-0.7c-0.1-0.1-0.2-0.3-0.3-0.5c-0.1-0.1-0.1-0.2,0-0.2
				c0-0.1,0-0.2,0-0.3c0-1.4,0-3.3,0-5.2c0-1.9,0-3.8,0-5.2c0-0.2-0.1-0.3,0-0.5s0.2-0.3,0.3-0.5c0.2-0.3,0.3-0.5,0.5-0.7
				C923.4,417.6,923.6,417.3,923.6,417.3z"/>
		</g>
		<g>
			<path class="st1" d="M911.4,397.5c0.1,0.5,0.4,1.7,1.6,2.4c0.3,0.1,0.6,0.3,0.9,0.3c0.1,0,0.2,0,0.3,0h3.3c0.1,0,0.1,0,0.2,0.1
				L928,408c0.2,0.2,0.6,0.3,0.9,0.3h6c0.2,0,0.4,0,0.5-0.1c0.5-0.2,1.4-0.7,1.9-1.8c0.2-0.4,0.7-1.6,0-3c-0.6-1.3-1.7-1.7-2.2-1.9
				c-0.1,0-0.3-0.1-0.4-0.1h-3.6c-0.1,0-0.1,0-0.2-0.1l-1.3-1v-3.4c0-0.2-0.1-1-0.7-1.5c-0.1-0.1-0.8-0.7-1.8-0.4
				c-0.6,0.2-1.1,0.6-1.4,1.3c-0.1,0.1-0.1,0.3-0.1,0.4v0.1v0.6l-5-3.7c-0.2-0.2-0.6-0.3-0.9-0.3h-5.3c-0.2,0-0.3,0-0.4,0.1
				c-0.4,0.1-1.1,0.4-1.6,1C912.2,394.6,911.1,395.8,911.4,397.5z M913.1,395.2c0.4-0.4,0.8-0.6,1.1-0.7h0.1h5.3
				c0.1,0,0.1,0,0.2,0.1l10.4,7.8c0.2,0.2,0.6,0.3,0.9,0.3h3.6h0.1c0.3,0.1,1.1,0.4,1.5,1.3c0.4,1,0.1,1.9,0,2
				c-0.4,0.7-1,1.1-1.3,1.2h-0.1h-6c-0.1,0-0.1,0-0.2-0.1l-10.4-7.8c-0.2-0.2-0.6-0.3-0.9-0.3h-3.3l0,0c-0.2,0-0.4-0.1-0.5-0.2
				c-0.7-0.4-0.9-1.2-1-1.6C912.3,396.1,913.1,395.2,913.1,395.2z"/>
			<path class="st1" d="M927.6,394.9c-1.1,0-1.9-0.9-1.9-1.9c0-1.1,0.9-1.9,1.9-1.9c1.1,0,1.9,0.9,1.9,1.9S928.6,394.9,927.6,394.9z
				"/>
		</g>
	</g>
	<g>
		<g>
			<polyline class="st14" points="842.4,158.8 842.4,109.4 702.8,109.4 			"/>
			<g>
				<circle class="st13" cx="842.4" cy="158.8" r="5"/>
			</g>
		</g>
	</g>
	<g>
		<g>
			<circle class="st13" cx="1165.5" cy="441.5" r="19.8"/>
		</g>
		<g>
			<path class="st13" d="M1165.5,459.1c0,0,0.2,0.2,0.5,0.6c0.1,0.2,0.3,0.5,0.5,0.7c0.1,0.1,0.2,0.3,0.3,0.5c0.1,0.2,0,0.3,0,0.5
				c0,1.4,0,3.3,0,5.2s0,3.8,0,5.2c0,0.1,0,0.2,0,0.3c0,0.1,0,0.2,0,0.2c-0.1,0.2-0.2,0.3-0.3,0.5c-0.2,0.3-0.3,0.5-0.5,0.7
				c-0.3,0.4-0.5,0.6-0.5,0.6s-0.2-0.2-0.5-0.6c-0.1-0.2-0.3-0.5-0.5-0.7c-0.1-0.1-0.2-0.3-0.3-0.5c-0.1-0.1-0.1-0.2,0-0.2
				c0-0.1,0-0.2,0-0.3c0-1.4,0-3.3,0-5.2s0-3.8,0-5.2c0-0.2-0.1-0.3,0-0.5s0.2-0.3,0.3-0.5c0.2-0.3,0.3-0.5,0.5-0.7
				C1165.3,459.3,1165.5,459.1,1165.5,459.1z"/>
		</g>
		<g>
			<path class="st1" d="M1174.1,437.4l-17.2-0.2c-0.7,0-1.2,0.5-1.2,1.2l-0.1,13c0,0.7,0.5,1.2,1.2,1.2l17.2,0.2
				c0.7,0,1.2-0.5,1.2-1.2l0.1-13C1175.4,438,1174.8,437.5,1174.1,437.4z M1156.9,438.5L1156.9,438.5l17.3,0.1l0,0l-0.1,13l0,0
				l-17.2-0.2l0,0L1156.9,438.5z"/>
			<path class="st1" d="M1160.8,436C1160.9,436.1,1160.9,436.1,1160.8,436L1160.8,436c0.1,0.1,0.2,0.2,0.2,0.2l0,0l0,0
				c0.1,0,0.1,0,0.2,0l0,0l0,0l0,0l0,0c0.1,0,0.1,0,0.2,0l0,0c0.1,0,0.1-0.1,0.2-0.1l0,0c0,0,0,0,0.1-0.1l0,0l2.9-3.6
				c0.1-0.1,0.2-0.3,0.1-0.5c0-0.2-0.1-0.3-0.2-0.4c-0.3-0.2-0.7-0.2-0.9,0.1l-1.8,2.2l0.1-5.4c0-0.3-0.3-0.6-0.6-0.6
				c-0.3,0-0.6,0.3-0.6,0.6l-0.1,5.5l-1.6-1.9c-0.1-0.1-0.3-0.2-0.4-0.2c-0.2,0-0.3,0-0.5,0.1c-0.1,0.1-0.2,0.3-0.2,0.4
				c0,0.2,0,0.3,0.1,0.5L1160.8,436z"/>
			<path class="st1" d="M1167.2,432.3c0.2,0,0.4-0.1,0.5-0.2l1.7-1.9l-0.1,5.5c0,0.3,0.3,0.6,0.6,0.6c0.3,0,0.6-0.3,0.6-0.6l0.1-5.4
				l1.7,2.2c0.2,0.3,0.6,0.3,0.9,0.1c0.3-0.2,0.3-0.6,0.1-0.9l-2.8-3.6l0,0c0,0,0-0.1-0.1-0.1l0,0l0,0c0,0-0.1-0.1-0.2-0.1l0,0
				c-0.1,0-0.1,0-0.2,0l0,0c-0.1,0-0.1,0-0.2,0l0,0l0,0c-0.1,0-0.1,0-0.1,0.1l0,0l-0.1,0.1l-2.8,3.2c-0.2,0.3-0.2,0.7,0.1,0.9
				C1166.9,432.2,1167,432.3,1167.2,432.3z"/>
			<path class="st1" d="M1160.5,441.5c0.5,0,0.9-0.4,0.9-0.9s-0.4-0.9-0.9-0.9s-0.9,0.4-0.9,0.9S1160,441.5,1160.5,441.5z"/>
			<path class="st1" d="M1170.4,441.6c0.5,0,0.9-0.4,0.9-0.9s-0.4-0.9-0.9-0.9s-0.9,0.4-0.9,0.9S1169.9,441.6,1170.4,441.6z"/>
			<path class="st1" d="M1165.5,441.5c0.5,0,0.9-0.4,0.9-0.9s-0.4-0.9-0.9-0.9s-0.9,0.4-0.9,0.9S1165,441.5,1165.5,441.5z"/>
			<path class="st1" d="M1159.1,446.6L1159.1,446.6l0.1,3.6c0,0.3,0.3,0.6,0.6,0.6c0.2,0,0.3,0,0.4-0.2c0.1-0.1,0.2-0.3,0.2-0.5
				v-3.5h0.2v3.6c0,0.3,0.2,0.6,0.5,0.6l0,0c0.2,0,0.3,0,0.4-0.2c0.1-0.1,0.2-0.3,0.2-0.5v-3.5l0,0c0.4,0,0.6-0.3,0.7-0.6v-2.6
				c0-0.9-0.7-1.7-1.6-1.7h-0.7c-0.9,0-1.7,0.7-1.7,1.6v2.6C1158.5,446.3,1158.7,446.6,1159.1,446.6z"/>
			<path class="st1" d="M1164.1,446.7L1164.1,446.7l0.1,3.5c0,0.3,0.3,0.6,0.6,0.6c0.2,0,0.3,0,0.4-0.2c0.1-0.1,0.2-0.3,0.2-0.5
				v-3.5h0.2v3.5c0,0.3,0.3,0.6,0.6,0.6c0.2,0,0.3,0,0.4-0.2c0.1-0.1,0.2-0.3,0.2-0.5v-3.5l0,0c0.4,0,0.6-0.3,0.7-0.6v-2.6
				c0-0.9-0.7-1.7-1.6-1.7h-0.7c-0.9,0-1.7,0.7-1.7,1.6v2.6C1163.4,446.4,1163.7,446.7,1164.1,446.7z"/>
			<path class="st1" d="M1169,446.7L1169,446.7v3.6c0,0.3,0.3,0.6,0.6,0.6c0.2,0,0.3,0,0.4-0.2c0.1-0.1,0.2-0.3,0.2-0.5v-3.5h0.2
				v3.6c0,0.3,0.3,0.6,0.6,0.6c0.2,0,0.3,0,0.4-0.2c0.1-0.1,0.2-0.3,0.2-0.5v-3.5l0,0c0.4,0,0.6-0.3,0.7-0.6v-2.6
				c0-0.9-0.7-1.7-1.6-1.7h-0.7c-0.9,0-1.7,0.7-1.7,1.6v2.6C1168.3,446.4,1168.6,446.7,1169,446.7z"/>
		</g>
	</g>
	<g>
		<g>
			<circle class="st13" cx="1218" cy="793.9" r="19.8"/>
		</g>
		<g>
			<path class="st13" d="M1218,811.6c0,0,0.2,0.2,0.5,0.6c0.1,0.2,0.3,0.5,0.5,0.7c0.1,0.1,0.2,0.3,0.3,0.5c0.1,0.2,0,0.3,0,0.5
				c0,1.4,0,3.3,0,5.2s0,3.8,0,5.2c0,0.1,0,0.2,0,0.3s0,0.2,0,0.2c-0.1,0.2-0.2,0.3-0.3,0.5c-0.2,0.3-0.3,0.5-0.5,0.7
				c-0.3,0.4-0.5,0.6-0.5,0.6s-0.2-0.2-0.5-0.6c-0.1-0.2-0.3-0.5-0.5-0.7c-0.1-0.1-0.2-0.3-0.3-0.5c-0.1-0.1-0.1-0.2,0-0.2
				c0-0.1,0-0.2,0-0.3c0-1.4,0-3.3,0-5.2s0-3.8,0-5.2c0-0.2-0.1-0.3,0-0.5s0.2-0.3,0.3-0.5c0.2-0.3,0.3-0.5,0.5-0.7
				C1217.8,811.8,1218,811.6,1218,811.6z"/>
		</g>
		<g>
			<path class="st1" d="M1226.7,789.9l-17.2-0.2c-0.7,0-1.2,0.5-1.2,1.2l-0.1,13c0,0.7,0.5,1.2,1.2,1.2l17.2,0.2
				c0.7,0,1.2-0.5,1.2-1.2l0.1-13C1227.9,790.5,1227.4,789.9,1226.7,789.9z M1209.4,791C1209.4,791,1209.5,791,1209.4,791l17.3,0.1
				l0,0l-0.1,13l0,0l-17.2-0.2l0,0L1209.4,791z"/>
			<path class="st1" d="M1213.4,788.5C1213.5,788.6,1213.5,788.6,1213.4,788.5L1213.4,788.5c0.1,0.1,0.2,0.2,0.2,0.2l0,0l0,0
				c0.1,0,0.1,0,0.2,0l0,0l0,0l0,0l0,0c0.1,0,0.1,0,0.2,0l0,0c0.1,0,0.1-0.1,0.2-0.1l0,0c0,0,0,0,0.1-0.1l0,0l2.9-3.6
				c0.1-0.1,0.2-0.3,0.1-0.5c0-0.2-0.1-0.3-0.2-0.4c-0.3-0.2-0.7-0.2-0.9,0.1l-1.8,2.2l0.1-5.4c0-0.3-0.3-0.6-0.6-0.6
				c-0.3,0-0.6,0.3-0.6,0.6l-0.1,5.5l-1.6-1.9c-0.1-0.1-0.3-0.2-0.4-0.2c-0.2,0-0.3,0-0.5,0.1c-0.1,0.1-0.2,0.3-0.2,0.4
				c0,0.2,0,0.3,0.1,0.5L1213.4,788.5z"/>
			<path class="st1" d="M1219.8,784.8c0.2,0,0.4-0.1,0.5-0.2l1.7-1.9l-0.1,5.5c0,0.3,0.3,0.6,0.6,0.6s0.6-0.3,0.6-0.6l0.1-5.4
				l1.7,2.2c0.2,0.3,0.6,0.3,0.9,0.1s0.3-0.6,0.1-0.9l-2.8-3.6l0,0c0,0,0-0.1-0.1-0.1l0,0l0,0c0,0-0.1-0.1-0.2-0.1l0,0
				c-0.1,0-0.1,0-0.2,0l0,0c-0.1,0-0.1,0-0.2,0l0,0l0,0c-0.1,0-0.1,0-0.1,0.1l0,0l-0.1,0.1l-2.8,3.2c-0.2,0.3-0.2,0.7,0.1,0.9
				C1219.5,784.7,1219.6,784.8,1219.8,784.8z"/>
			<path class="st1" d="M1213,794c0.5,0,0.9-0.4,0.9-0.9s-0.4-0.9-0.9-0.9s-0.9,0.4-0.9,0.9C1212.2,793.6,1212.6,794,1213,794z"/>
			<path class="st1" d="M1223,794.1c0.5,0,0.9-0.4,0.9-0.9s-0.4-0.9-0.9-0.9s-0.9,0.4-0.9,0.9C1222.1,793.7,1222.5,794.1,1223,794.1
				z"/>
			<path class="st1" d="M1218.1,794c0.5,0,0.9-0.4,0.9-0.9s-0.4-0.9-0.9-0.9s-0.9,0.4-0.9,0.9S1217.6,794,1218.1,794z"/>
			<path class="st1" d="M1211.7,799.1L1211.7,799.1l0.1,3.6c0,0.3,0.3,0.6,0.6,0.6c0.2,0,0.3,0,0.4-0.2c0.1-0.1,0.2-0.3,0.2-0.5
				v-3.5h0.2v3.6c0,0.3,0.2,0.6,0.5,0.6l0,0c0.2,0,0.3,0,0.4-0.2c0.1-0.1,0.2-0.3,0.2-0.5v-3.5l0,0c0.4,0,0.6-0.3,0.7-0.6v-2.6
				c0-0.9-0.7-1.7-1.6-1.7h-0.7c-0.9,0-1.7,0.7-1.7,1.6v2.6C1211,798.8,1211.3,799.1,1211.7,799.1z"/>
			<path class="st1" d="M1216.7,799.2L1216.7,799.2l0.1,3.5c0,0.3,0.3,0.6,0.6,0.6c0.2,0,0.3,0,0.4-0.2c0.1-0.1,0.2-0.3,0.2-0.5
				v-3.5h0.2v3.5c0,0.3,0.3,0.6,0.6,0.6c0.2,0,0.3,0,0.4-0.2c0.1-0.1,0.2-0.3,0.2-0.5V799l0,0c0.4,0,0.6-0.3,0.7-0.6v-2.6
				c0-0.9-0.7-1.7-1.6-1.7h-0.7c-0.9,0-1.7,0.7-1.7,1.6v2.6C1216,798.9,1216.3,799.2,1216.7,799.2z"/>
			<path class="st1" d="M1221.6,799.2L1221.6,799.2v3.6c0,0.3,0.3,0.6,0.6,0.6c0.2,0,0.3,0,0.4-0.2c0.1-0.1,0.2-0.3,0.2-0.5v-3.5
				h0.2v3.6c0,0.3,0.3,0.6,0.6,0.6c0.2,0,0.3,0,0.4-0.2c0.1-0.1,0.2-0.3,0.2-0.5v-3.5l0,0c0.4,0,0.6-0.3,0.7-0.6V796
				c0-0.9-0.7-1.7-1.6-1.7h-0.7c-0.9,0-1.7,0.7-1.7,1.6v2.6C1220.9,798.9,1221.2,799.2,1221.6,799.2z"/>
		</g>
	</g>
	<g>
		<g>
			<circle class="st13" cx="1324.4" cy="608.9" r="19.8"/>
		</g>
		<g>
			<path class="st13" d="M1324.4,626.6c0,0,0.2,0.2,0.5,0.6c0.1,0.2,0.3,0.5,0.5,0.7c0.1,0.1,0.2,0.3,0.3,0.5c0.1,0.2,0,0.3,0,0.5
				c0,1.4,0,3.3,0,5.2s0,3.8,0,5.2c0,0.1,0,0.2,0,0.3s0,0.2,0,0.2c-0.1,0.2-0.2,0.3-0.3,0.5c-0.2,0.3-0.3,0.5-0.5,0.7
				c-0.3,0.4-0.5,0.6-0.5,0.6s-0.2-0.2-0.5-0.6c-0.1-0.2-0.3-0.5-0.5-0.7c-0.1-0.1-0.2-0.3-0.3-0.5c-0.1-0.1-0.1-0.2,0-0.2
				c0-0.1,0-0.2,0-0.3c0-1.4,0-3.3,0-5.2s0-3.8,0-5.2c0-0.2-0.1-0.3,0-0.5s0.2-0.3,0.3-0.5c0.2-0.3,0.3-0.5,0.5-0.7
				C1324.3,626.8,1324.4,626.6,1324.4,626.6z"/>
		</g>
		<g>
			<g>
				<circle class="st1" cx="1318.1" cy="600.6" r="1.7"/>
				<path class="st1" d="M1320.3,602.9h-4.4c-0.8,0-1.4,0.6-1.4,1.4v7c0,0.3,0.2,0.5,0.5,0.5h0.8v5.6c0,0.5,0.4,0.8,0.8,0.8
					c0,0,0,0,0.1,0c0.3,0,0.5-0.1,0.7-0.2c0.2-0.2,0.3-0.4,0.3-0.8v-5.4h0.9v5.6c0,0.5,0.4,0.8,0.8,0.8c0,0,0,0,0.1,0
					c0.3,0,0.5-0.1,0.7-0.2c0.2-0.2,0.3-0.4,0.3-0.8v-5.4h0.7c0.3,0,0.5-0.2,0.5-0.5v-7C1321.7,603.6,1321.1,602.9,1320.3,602.9z"/>
				<path class="st1" d="M1330.7,602c0.9,0,1.7-0.8,1.7-1.7s-0.8-1.7-1.7-1.7c-0.9,0-1.7,0.8-1.7,1.7S1329.8,602,1330.7,602z"/>
				<path class="st1" d="M1335.3,610.9l-1.7-7.4c-0.2-0.9-0.8-1-1.4-1h-3.1c-0.7,0-1.4,0.6-1.4,1.3l-1.4,7.1c0,0.3,0.2,0.5,0.5,0.5
					h1.6v5.6c0,0.5,0.4,0.8,0.8,0.8c0,0,0,0,0.1,0c0.3,0,0.5-0.1,0.7-0.2c0.2-0.2,0.3-0.4,0.3-0.8v-5.4h0.9v5.6
					c0,0.5,0.4,0.8,0.8,0.8c0,0,0,0,0.1,0c0.3,0,0.5-0.1,0.7-0.2c0.2-0.2,0.3-0.4,0.3-0.8v-5.4h1.7
					C1335.1,611.5,1335.3,611.3,1335.3,610.9C1335.3,611,1335.3,611,1335.3,610.9z"/>
				<path class="st1" d="M1324.4,597c-0.3,0-0.5,0.2-0.5,0.5v21.8c0,0.3,0.2,0.5,0.5,0.5s0.5-0.2,0.5-0.5v-21.8
					C1325,597.2,1324.7,597,1324.4,597z"/>
			</g>
		</g>
	</g>
	<g>
		<g>
			<circle class="st13" cx="828.6" cy="273.6" r="19.8"/>
		</g>
		<g>
			<path class="st13" d="M828.6,291.2c0,0,0.2,0.2,0.5,0.6c0.1,0.2,0.3,0.5,0.5,0.7c0.1,0.1,0.2,0.3,0.3,0.5s0,0.3,0,0.5
				c0,1.4,0,3.3,0,5.2s0,3.8,0,5.2c0,0.1,0,0.2,0,0.3c0,0.1,0,0.2,0,0.2c-0.1,0.2-0.2,0.3-0.3,0.5c-0.2,0.3-0.3,0.5-0.5,0.7
				c-0.3,0.4-0.5,0.6-0.5,0.6s-0.2-0.2-0.5-0.6c-0.1-0.2-0.3-0.5-0.5-0.7c-0.1-0.1-0.2-0.3-0.3-0.5c-0.1-0.1-0.1-0.2,0-0.2
				c0-0.1,0-0.2,0-0.3c0-1.4,0-3.3,0-5.2s0-3.8,0-5.2c0-0.2-0.1-0.3,0-0.5s0.2-0.3,0.3-0.5c0.2-0.3,0.3-0.5,0.5-0.7
				C828.4,291.5,828.6,291.2,828.6,291.2z"/>
		</g>
		<g>
			<g>
				<circle class="st1" cx="822.3" cy="265.3" r="1.7"/>
				<path class="st1" d="M824.5,267.6h-4.4c-0.8,0-1.4,0.6-1.4,1.4v7c0,0.3,0.2,0.5,0.5,0.5h0.8v5.6c0,0.5,0.4,0.8,0.8,0.8
					c0,0,0,0,0.1,0c0.3,0,0.5-0.1,0.7-0.2c0.2-0.2,0.3-0.4,0.3-0.8v-5.4h0.9v5.6c0,0.5,0.4,0.8,0.8,0.8c0,0,0,0,0.1,0
					c0.3,0,0.5-0.1,0.7-0.2c0.2-0.2,0.3-0.4,0.3-0.8v-5.4h0.7c0.3,0,0.5-0.2,0.5-0.5v-7C825.9,268.2,825.3,267.6,824.5,267.6z"/>
				<path class="st1" d="M834.9,266.7c0.9,0,1.7-0.8,1.7-1.7c0-0.9-0.8-1.7-1.7-1.7s-1.7,0.8-1.7,1.7
					C833.2,265.9,833.9,266.7,834.9,266.7z"/>
				<path class="st1" d="M839.4,275.6l-1.7-7.4c-0.2-0.9-0.8-1-1.4-1h-3.1c-0.7,0-1.4,0.6-1.4,1.3l-1.4,7.1c0,0.3,0.2,0.5,0.5,0.5
					h1.6v5.6c0,0.5,0.4,0.8,0.8,0.8c0,0,0,0,0.1,0c0.3,0,0.5-0.1,0.7-0.2c0.2-0.2,0.3-0.4,0.3-0.8v-5.4h0.9v5.6
					c0,0.5,0.4,0.8,0.8,0.8c0,0,0,0,0.1,0c0.3,0,0.5-0.1,0.7-0.2c0.2-0.2,0.3-0.4,0.3-0.8v-5.4h1.7
					C839.2,276.2,839.5,275.9,839.4,275.6C839.5,275.6,839.5,275.6,839.4,275.6z"/>
				<path class="st1" d="M828.6,261.7c-0.3,0-0.5,0.2-0.5,0.5V284c0,0.3,0.2,0.5,0.5,0.5s0.5-0.2,0.5-0.5v-21.8
					C829.1,261.9,828.9,261.7,828.6,261.7z"/>
			</g>
		</g>
	</g>
	<g>
		<g>
			<circle class="st13" cx="712.5" cy="380.2" r="19.7"/>
		</g>
		<g>
			<path class="st13" d="M712.5,397.8c1.1,1.3,1.4,2.1,1.2,3.8v3.8c0,1.2,0,4.4,0,5.6c-0.4,0.6-0.7,1.3-1.2,1.9
				c-0.5-0.6-0.9-1.3-1.2-1.9c0-1.2,0-4.4,0-5.6v-3.8C711.1,400,711.4,399.1,712.5,397.8L712.5,397.8z"/>
		</g>
		<g>
			<path class="st9" d="M721.1,378.4H720v5.5c0.4,0.1,0.7,0.2,1.1,0.2c1.7,0,3.2-1.3,3.2-2.8C724.2,379.6,722.8,378.4,721.1,378.4z"
				/>
			<path class="st1" d="M713,371.1c0.7,0.6,1.3,1,1.3,2.2c0,0.8-0.8,1.6-1.2,1.8c-0.2,0.1-0.3,0.4-0.3,0.6c0.1,0.2,0.2,0.3,0.4,0.3
				c0.1,0,0.1,0,0.2,0c0.7-0.3,1.8-1.4,1.8-2.6c0-1.6-0.9-2.3-1.7-2.9c-0.6-0.5-1.2-0.9-1.2-1.8c0-1.3,1.3-2,1.5-2
				c0.3,0,0.5-0.2,0.5-0.5s-0.2-0.5-0.5-0.5c-0.7,0-2.5,1-2.5,2.9C711.5,369.9,712.3,370.5,713,371.1z"/>
			<path class="st1" d="M709.2,371.6c0.6,0.5,1.1,0.8,1.1,1.8c0,0.6-0.6,1.3-1,1.4c-0.2,0.1-0.3,0.4-0.3,0.6
				c0.1,0.2,0.2,0.3,0.4,0.3c0.1,0,0.1,0,0.2,0c0.6-0.3,1.5-1.2,1.5-2.3c0-1.4-0.8-2-1.4-2.5c-0.5-0.4-0.9-0.7-0.9-1.5
				c0-1,1-1.6,1.2-1.6s0.5-0.2,0.5-0.5c0-0.2-0.2-0.5-0.5-0.5c-0.7,0-2.1,0.9-2.1,2.5C708,370.6,708.6,371.1,709.2,371.6z"/>
			<path class="st1" d="M721.1,377.8h-2.5l0,0h-13.2c-0.3,0-0.6,0.3-0.6,0.6v8.4c0,0.3,0.3,0.6,0.6,0.6h14c0.3,0,0.6-0.3,0.6-0.6
				v-2.2c0.4,0.1,0.8,0.2,1.1,0.2c2.1,0,3.8-1.5,3.8-3.4S723.1,377.8,721.1,377.8z M721.1,384c-0.4,0-0.8-0.1-1.1-0.2v-5.5h1.1
				c1.7,0,3.2,1.3,3.2,2.8C724.2,382.8,722.8,384,721.1,384z"/>
			<path class="st1" d="M722.2,388.8h-19.1c-0.3,0-0.6,0.3-0.6,0.6s0.3,0.6,0.6,0.6h19.1c0.3,0,0.6-0.3,0.6-0.6
				S722.5,388.8,722.2,388.8z"/>
		</g>
	</g>
</g>
<rect x="435" y="82.4" class="st12" width="275.4" height="52"/>
<rect x="447.4" y="97.8" class="st9" width="256.9" height="28.4"/>
<g class="st15">
	<path class="st1" d="M463.8,116.7c-1.9,0-3.6-0.3-5-0.8s-2.5-1.3-3.3-2.3s-1.2-2.1-1.3-3.4h5c0.1,0.9,0.6,1.5,1.3,2
		c0.8,0.5,1.9,0.7,3.3,0.7c1.3,0,2.4-0.2,3.1-0.5c0.7-0.4,1.1-0.9,1.1-1.6c0-0.6-0.3-1.1-0.9-1.4s-1.6-0.4-3-0.4h-3.3v-3.3h3.2
		c0.8,0,1.5-0.1,2-0.2c0.5-0.2,0.9-0.4,1.2-0.7s0.4-0.6,0.4-1s-0.1-0.8-0.4-1.1c-0.3-0.3-0.7-0.5-1.3-0.7c-0.6-0.2-1.2-0.2-2-0.2
		c-1.3,0-2.3,0.2-3,0.7c-0.7,0.4-1.2,1.1-1.3,1.9h-4.9c0.1-1.2,0.5-2.3,1.3-3.2s1.8-1.7,3.2-2.3c1.4-0.6,3.1-0.9,5.1-0.9
		c1.7,0,3.2,0.2,4.5,0.6s2.3,1,3,1.8s1.1,1.6,1.1,2.7c0,0.8-0.2,1.6-0.7,2.2c-0.5,0.7-1.3,1.2-2.3,1.6s-2.4,0.6-4.1,0.6V107
		c1.6-0.1,2.9,0,4,0.3s2,0.8,2.6,1.4s0.9,1.5,0.9,2.5c0,1.1-0.4,2.1-1.1,2.9s-1.8,1.5-3.1,2C467.5,116.5,465.8,116.7,463.8,116.7z"
		/>
	<path class="st1" d="M488.8,109.5c-0.2,1.4-0.7,2.7-1.3,3.8s-1.5,1.9-2.5,2.5s-2.2,0.9-3.5,0.9s-2.5-0.3-3.5-0.9s-1.8-1.4-2.4-2.5
		s-0.9-2.4-0.9-3.8c0-1.5,0.3-2.7,0.9-3.8c0.6-1.1,1.4-1.9,2.4-2.5s2.2-0.9,3.5-0.9s2.5,0.3,3.5,0.9s1.9,1.4,2.5,2.5
		S488.6,108,488.8,109.5z M479.6,109.5c0,0.7,0.1,1.3,0.4,1.8s0.7,0.9,1.2,1.2s1.1,0.4,1.7,0.4c0.7,0,1.3-0.1,1.9-0.4
		s1.1-0.7,1.6-1.2c0.4-0.5,0.8-1.1,1-1.8c-0.2-0.7-0.6-1.3-1-1.8s-1-0.9-1.6-1.2c-0.6-0.3-1.2-0.5-1.9-0.5c-0.6,0-1.2,0.2-1.7,0.5
		s-0.9,0.7-1.2,1.2S479.6,108.8,479.6,109.5z M487.6,116.3l-0.6-4.9l0.6-1.9l-0.6-1.9l0.6-5h5.1l-0.9,6.8l0.9,6.9H487.6z"/>
	<path class="st1" d="M497.4,102.6h14.9v13.7h-4.9V104l2.3,2.3h-9.8l2.1-1.9c0.1,0.9,0.2,1.8,0.2,2.6c0,0.8,0.1,1.5,0.1,2.1
		c0,2.7-0.4,4.6-1.2,5.8c-0.8,1.2-2.2,1.8-4,1.8c-0.5,0-1.1-0.1-1.5-0.2c-0.5-0.1-1-0.3-1.4-0.6v-3.5c0.3,0.1,0.6,0.2,0.9,0.3
		c0.3,0.1,0.5,0.1,0.8,0.1c0.8,0,1.3-0.3,1.7-1c0.3-0.7,0.5-1.8,0.5-3.4c0-0.8,0-1.6-0.1-2.6C497.6,104.8,497.5,103.8,497.4,102.6z"
		/>
	<path class="st1" d="M524.1,103.2h5l-4,6.3v-1.1l4,6.3h-5l-3.5-5.7L524.1,103.2z M531.2,103.2h5l-4,6.3v-1.1l4,6.3h-5l-3.5-5.7
		L531.2,103.2z"/>
	<path class="st1" d="M565.1,98.3v18h-4.7v-16.2l1.1,0.1l-7,16.1h-5l-7-16.1l1.1-0.1v16.2h-4.7v-18h7.7l6.5,15.5h-1.9l6.4-15.5
		H565.1z"/>
	<path class="st1" d="M576.1,116.7c-1.8,0-3.3-0.3-4.6-0.9s-2.3-1.4-3.1-2.5c-0.7-1.1-1.1-2.4-1.1-3.8c0-1.5,0.4-2.7,1.1-3.8
		c0.7-1.1,1.8-1.9,3.1-2.5s2.8-0.9,4.6-0.9c1.7,0,3.3,0.3,4.6,0.9s2.3,1.5,3.1,2.5c0.7,1.1,1.1,2.4,1.1,3.8s-0.4,2.7-1.1,3.8
		c-0.7,1.1-1.8,1.9-3.1,2.5C579.4,116.4,577.8,116.7,576.1,116.7z M576.1,113.1c0.8,0,1.5-0.1,2.1-0.4s1-0.7,1.3-1.2
		s0.5-1.2,0.5-1.9c0-0.8-0.2-1.4-0.5-2c-0.3-0.5-0.7-0.9-1.3-1.2c-0.6-0.3-1.3-0.4-2.1-0.4s-1.5,0.1-2.1,0.4s-1,0.7-1.3,1.2
		s-0.5,1.2-0.5,1.9c0,0.8,0.2,1.4,0.5,1.9s0.7,1,1.3,1.2S575.3,113.1,576.1,113.1z"/>
	<path class="st1" d="M586.9,102.6h4.9v3.9l-0.2,0.6v3.8l0.2,1.1v8.2h-4.9V102.6z M590.3,109.5c0.2-1.5,0.6-2.8,1.3-3.9
		s1.5-1.9,2.5-2.5s2.2-0.9,3.5-0.9s2.5,0.3,3.5,0.9s1.8,1.5,2.4,2.5c0.6,1.1,0.9,2.4,0.9,3.8s-0.3,2.7-0.9,3.8s-1.4,1.9-2.4,2.5
		s-2.2,0.9-3.5,0.9s-2.5-0.3-3.5-0.9s-1.9-1.4-2.5-2.5C591,112.2,590.5,110.9,590.3,109.5z M599.4,109.5c0-0.7-0.1-1.3-0.4-1.8
		c-0.3-0.5-0.7-0.9-1.2-1.2c-0.5-0.3-1.1-0.5-1.7-0.5c-0.7,0-1.3,0.2-1.9,0.5c-0.6,0.3-1.1,0.7-1.6,1.2c-0.4,0.5-0.8,1.1-1,1.8
		c0.2,0.7,0.6,1.3,1,1.8s1,0.9,1.6,1.2c0.6,0.3,1.2,0.4,1.9,0.4c0.6,0,1.2-0.1,1.7-0.4s0.9-0.7,1.2-1.2S599.4,110.2,599.4,109.5z"/>
	<path class="st1" d="M622.8,110.5c-0.1,1.2-0.6,2.3-1.3,3.2c-0.8,0.9-1.8,1.6-3,2.2s-2.6,0.8-4.1,0.8c-1.7,0-3.2-0.3-4.4-0.9
		c-1.3-0.6-2.3-1.5-3-2.5c-0.7-1.1-1.1-2.3-1.1-3.8c0-1.4,0.4-2.7,1.1-3.8c0.7-1.1,1.7-1.9,3-2.6c1.3-0.6,2.8-0.9,4.4-0.9
		c1.5,0,2.9,0.3,4.1,0.8c1.2,0.5,2.2,1.2,3,2.2c0.8,0.9,1.2,2,1.3,3.3H618c-0.2-0.8-0.6-1.4-1.2-1.9s-1.4-0.7-2.4-0.7
		c-0.7,0-1.3,0.1-1.9,0.4s-1,0.7-1.2,1.2c-0.3,0.5-0.4,1.2-0.4,2s0.1,1.4,0.4,2c0.3,0.5,0.7,0.9,1.2,1.2c0.5,0.3,1.2,0.4,1.9,0.4
		c0.9,0,1.7-0.2,2.4-0.7s1.1-1.1,1.2-1.8L622.8,110.5L622.8,110.5z"/>
	<path class="st1" d="M624.8,116.3v-13.7h4.9v9.9l-1.4-0.5l7.6-9.4h5.2l-11.9,13.7H624.8z M635.9,116.3l-3.9-6.7l3.7-2.6l5.7,9.3
		C641.4,116.3,635.9,116.3,635.9,116.3z"/>
	<path class="st1" d="M649.9,116.7c-1.8,0-3.3-0.3-4.6-0.9s-2.3-1.4-3.1-2.5c-0.7-1.1-1.1-2.4-1.1-3.8c0-1.5,0.4-2.7,1.1-3.8
		c0.7-1.1,1.8-1.9,3.1-2.5s2.8-0.9,4.6-0.9c1.7,0,3.3,0.3,4.6,0.9s2.3,1.5,3.1,2.5c0.7,1.1,1.1,2.4,1.1,3.8s-0.4,2.7-1.1,3.8
		c-0.7,1.1-1.8,1.9-3.1,2.5C653.2,116.4,651.6,116.7,649.9,116.7z M649.9,113.1c0.8,0,1.5-0.1,2.1-0.4s1-0.7,1.3-1.2
		s0.5-1.2,0.5-1.9c0-0.8-0.2-1.4-0.5-2c-0.3-0.5-0.7-0.9-1.3-1.2c-0.6-0.3-1.3-0.4-2.1-0.4s-1.5,0.1-2.1,0.4s-1,0.7-1.3,1.2
		s-0.5,1.2-0.5,1.9c0,0.8,0.2,1.4,0.5,1.9s0.7,1,1.3,1.2S649.1,113.1,649.9,113.1z"/>
	<path class="st1" d="M660.7,116.3v-13.7h4.8v11l-1.1-0.3l7.2-10.7h6.3v13.7h-4.8V105l1.1,0.4l-7.4,11L660.7,116.3L660.7,116.3z
		 M669.2,101.5c-1.7,0-3-0.4-4-1.2c-1-0.8-1.6-2-1.9-3.5h3.7c0.1,0.6,0.4,1.1,0.7,1.4s0.8,0.5,1.4,0.5c0.6,0,1-0.2,1.4-0.5
		s0.6-0.8,0.7-1.4h3.8c-0.2,1.5-0.9,2.7-1.9,3.5C672.2,101.1,670.9,101.5,669.2,101.5z"/>
	<path class="st1" d="M685.3,103.2l3.6,5.8l-3.6,5.7h-5l4-6.3v1.1l-4-6.3C680.3,103.2,685.3,103.2,685.3,103.2z M692.4,103.2
		l3.5,5.8l-3.5,5.7h-5l4-6.3v1.1l-4-6.3C687.4,103.2,692.4,103.2,692.4,103.2z"/>
</g>
<g>
	<g>
		<circle class="st13" cx="591.8" cy="251.8" r="20.1"/>
	</g>
</g>
<polygon class="st16" points="629.5,282.5 606.3,281.8 605.7,296.5 616.3,290.2 "/>
<g>
	<g>
		<path class="st1" d="M592.8,242.2c2.3,0,4.3,0.4,6,1.2s3.1,1.9,4,3.4c1,1.4,1.4,3.1,1.4,5.1c0,1.9-0.5,3.6-1.4,5.1
			c-0.9,1.4-2.3,2.6-4,3.4s-3.7,1.2-6,1.2h-9.6v-19.2h9.6V242.2z M588.5,259.2l-2.5-2.5h7.3c1.1,0,2.1-0.2,3-0.6
			c0.8-0.4,1.5-1,2-1.7s0.7-1.6,0.7-2.6s-0.2-1.9-0.7-2.6c-0.5-0.7-1.1-1.3-2-1.7c-0.8-0.4-1.8-0.6-3-0.6H586l2.5-2.5V259.2z"/>
	</g>
</g>
</svg>
