<?xml version="1.0" encoding="utf-8"?>
<!-- Generator: Adobe Illustrator 26.0.3, SVG Export Plug-In . SVG Version: 6.00 Build 0)  -->
<svg version="1.1" id="Слой_1" xmlns="http://www.w3.org/2000/svg" xmlns:xlink="http://www.w3.org/1999/xlink" x="0px" y="0px"
	 viewBox="0 0 1920 1080" style="enable-background:new 0 0 1920 1080;" xml:space="preserve">
<style type="text/css">
	.st0{fill:#66B9FF;}
	.st1{fill:#FFFFFF;}
	.st2{fill:#1D0EB1;}
	.st3{fill:none;stroke:#0085CC;stroke-width:4.5296;stroke-linecap:round;stroke-linejoin:round;stroke-miterlimit:10;}
	.st4{fill:none;stroke:#0085CC;stroke-width:1.5099;stroke-linecap:round;stroke-linejoin:round;stroke-miterlimit:10;}
	.st5{fill:none;stroke:#0085CC;stroke-width:6.92;stroke-linecap:round;stroke-linejoin:round;stroke-miterlimit:10;}
	.st6{fill:none;stroke:#0085CC;stroke-width:4.3892;stroke-linecap:round;stroke-linejoin:round;stroke-miterlimit:10;}
	.st7{fill:none;stroke:#0085CC;stroke-width:7.046;stroke-linecap:round;stroke-linejoin:round;stroke-miterlimit:10;}
	.st8{fill:#0085CC;stroke:#0085CC;stroke-width:1.5099;stroke-linecap:round;stroke-linejoin:round;stroke-miterlimit:10;}
	.st9{fill:#0085CC;stroke:#0085CC;stroke-width:1.4108;stroke-linecap:round;stroke-linejoin:round;stroke-miterlimit:10;}
	.st10{fill:#FB493B;stroke:#FB493B;stroke-width:3.2436;stroke-linecap:round;stroke-linejoin:round;stroke-miterlimit:10;}
	.st11{fill:#FB493B;stroke:#FB493B;stroke-width:3.358;stroke-linecap:round;stroke-linejoin:round;stroke-miterlimit:10;}
	.st12{fill:#FB493B;stroke:#FB493B;stroke-width:2.3043;stroke-linecap:round;stroke-linejoin:round;stroke-miterlimit:10;}
	.st13{fill:none;stroke:#1D0EB1;stroke-width:1.3678;stroke-linecap:round;stroke-linejoin:round;}
	.st14{fill:none;}
	.st15{enable-background:new    ;}
	.st16{fill:#FB493B;stroke:#FB493B;stroke-width:2.4028;stroke-linecap:round;stroke-linejoin:round;stroke-miterlimit:10;}
	.st17{fill:none;stroke:#FB493B;stroke-width:2.4028;stroke-linecap:round;stroke-linejoin:round;stroke-miterlimit:10;}
	
		.st18{fill-rule:evenodd;clip-rule:evenodd;fill:#FB493B;stroke:#FB493B;stroke-width:2.4028;stroke-linecap:round;stroke-linejoin:round;stroke-miterlimit:10;}
</style>
<g>
	<g>
		<path class="st0" d="M1514.3,853.8l4-4.9l-39.3-10.8l-39.5-10.4l-39.6-10.1l-39.9-9.9l-40.1-9.6L1280,789v-0.3l53.7-119.1l0,0
			c101.5,15.8,211.8-3.8,280.2-52.1c78.9-55.8,81.5-135.6,6.3-193.1v-0.1c-14.6-10.7-30-20.3-45.6-29.4L1405,297
			c-5.5,3.2-11,6.4-16.5,9.5l-40.2,23.3c-6.1,1.5-160.8,94.2-160.9,99.3c-66.6,55.1-51.2,105.5-45.3,123l-391.5,86.6l-79.2-46.1
			l291.1-168l-26.1-21.1l36.1-25.7L724.2,233.3L257.7,500.1L529.2,657l48.2-27.7l75.2,43.3l-5,17.1l-67.8-5.5l-20.6,79.1l34.2,2.6
			l34.2,3l34,3l34,3.5l33.8,3.7l33.7,4l33.7,4.3l33.7,4.4l33.5,4.7l33.4,4.9l33.2,5.2l33.1,5.5l21.7-45.5l40.1,7.8l34.6,6.6
			l38.4,7.2l-0.2,0.5c-1,4.9,4,9.5,12,11.1l0,0c7.9,1.6,16.7-0.6,20.4-4.9l0.7-0.8l5.2,1l15.6,3.1l-2.7,22.5l-14.1,23.3l33.2,6.6
			l32.9,6.7l32.9,7.2l32.8,7.3l32.5,7.6l32.3,7.9l32.2,8.1l32,8.4l31.7,8.5l31.6,8.8l43-52.9L1514.3,853.8z"/>
		<path class="st1" d="M1514.5,832.1l4-4.9l-39.3-10.8l-39.5-10.4l-39.7-10l-39.9-9.9l-40.1-9.6l-39.8-9.1v-0.3l53.7-119.1l0,0
			c101.5,15.8,211.8-3.8,280.2-52.1c78.9-55.8,81.5-135.6,6.3-193.1v-0.1c-14.6-10.7-30-20.3-45.6-29.4l-169.5-97.9
			c-5.5,3.2-11,6.4-16.5,9.5l-40.2,23.3c-6.1,1.5-160.8,94.2-160.9,99.3c-66.6,55.1-51.2,105.5-45.3,123l-396.1,87.2l-53.8-31.1
			L986,417.7l-29.2-18l46.1-26.1l-278.6-162L257.8,478.4l271.5,156.9l48.2-27.7l75.2,43.3l-5,17.1l-67.8-5.5l-20.6,79.1l34.2,2.6
			l34.2,3l34,3l34,3.5l33.8,3.7l33.7,4l33.7,4.3l33.7,4.4l33.5,4.7l33.4,4.9l33.2,5.2l33.1,5.5l11.9-24.3l40.1,7.8l34.6,6.6
			l38.4,7.2l-0.2,0.5c-1,4.9,4,9.5,12,11.1l0,0c7.9,1.6,16.7-0.6,20.4-4.9l0.7-0.8l5.2,1l15.6,3.1l7,1.4l-14.1,23.3l33.2,6.6
			l32.9,6.7l32.9,7.2l32.8,7.3l32.5,7.6l32.3,7.9l32.2,8.1l32,8.4l31.7,8.5l31.6,8.8l43-52.9L1514.5,832.1z"/>
		<path class="st2" d="M1551.5,375.6l-35.8,32.4l-68.4,1.4c-116.7-11.9-193.2,30.1-192,88.2c2,96.7,252.2,125.3,307,20.1l36.4-32.8
			l57.6-0.6C1650.8,443.2,1614.7,408.4,1551.5,375.6z"/>
		<g>
			<polyline class="st3" points="1280,768 1248,761.3 1216.4,754.7 			"/>
			<path class="st3" d="M1158,760.6c-8.9,3.3-19.1,5-29.7,5.4l0,0c-8.7,0.3-17.5-0.6-25.6-2.5l-0.3-0.1l-0.1,0.2l-13.5,25.1"/>
			<line class="st4" x1="1119.4" y1="795.1" x2="1136.7" y2="765.4"/>
			<polyline class="st3" points="1129.8,780.4 1157.6,786 1157.7,786.3 1149.4,800 			"/>
			<line class="st3" x1="1424.4" y1="833.1" x2="1497.9" y2="853.2"/>
			<polyline class="st4" points="1391.1,849.4 1404.2,877.9 1399.5,884.2 			"/>
			<path class="st4" d="M1425,833.1c-0.6,0.6-1,1.2-1.6,1.7s-1.1,1-1.7,1.5c-1.3,1.1-2.7,2.2-4.1,3.2c-1.3,0.9-2.7,1.6-4,2.3
				c-1.5,0.9-3,1.6-4.5,2.3c-6.1,2.6-12.5,4.4-19,5.3c-3.2,0.5-6.4,1-9.7,1.1c-3.3,0.1-6.5,0.1-9.8-0.3c-1.7-0.2-3.5-0.3-5.2-0.6
				c-1.6-0.3-3.2-0.8-4.8-1.2c-3.1-0.9-6.2-1.9-9-3.4c-1.5-0.8-3-1.7-4.3-2.8c-0.6-0.4-1-1-1.5-1.6s-1-1.2-1.4-1.9
				c-0.7-1.5-1-3.1-1-4.7c0-1.7,0.7-3.2,1.6-4.6c0.4-0.6,0.8-1.2,1.3-1.8c-0.9-0.3-1.7-0.5-2.6-0.8"/>
			<line class="st3" x1="1345.5" y1="826.4" x2="1298.7" y2="815.2"/>
			<line class="st3" x1="1280.4" y1="811.1" x2="1256.7" y2="805.8"/>
			<line class="st3" x1="1238.4" y1="801.7" x2="1227.1" y2="799.2"/>
			<polyline class="st4" points="1226.2,798.9 1192.3,791.9 1158.2,785.2 			"/>
			<line class="st3" x1="1310.9" y1="818.6" x2="1285.2" y2="855.3"/>
			<line class="st3" x1="1227.1" y1="799.2" x2="1202.5" y2="836.7"/>
			<line class="st3" x1="1268.7" y1="808.5" x2="1244.2" y2="845.9"/>
			<polyline class="st5" points="1142.4,798.6 1149.4,800 1135.3,823.3 1168.5,829.9 1201.5,836.6 1234.4,843.8 1267.2,851.1 
				1299.7,858.7 1332,866.6 1364.1,874.7 1396.2,883.1 1427.9,891.6 1459.4,900.5 1502.4,847.6 			"/>
			<path class="st5" d="M1126.7,795.5l-5.2-1l-0.7,0.8c-3.7,4.3-12.5,6.5-20.4,4.9l0,0c-8-1.6-13-6.2-12-11.1v-0.5l-38.3-7.2"/>
			<path class="st3" d="M1183.2,408.7c-3.9,3.3-7.7,6.8-11.4,10.4c-8.8,8.5-16.8,18.4-23.1,29c-6.7,11.3-11.5,23.2-13.9,36.1
				c-2.3,12.1-1.6,25.1,1.5,37c0.8,3.2,1.9,6.3,2.9,9.4"/>
			<polyline class="st3" points="504.2,540.6 553.5,569 719.2,473.3 			"/>
			<polyline class="st3" points="490.2,532.7 408.9,485.8 536.3,412.3 			"/>
			<line class="st3" x1="428.2" y1="471.3" x2="431" y2="473"/>
			<line class="st3" x1="574.8" y1="389.9" x2="550" y2="404.2"/>
			<path class="st3" d="M1322.9,581.7c59.6,19.6,133.7,16.9,188.4-7"/>
			<path class="st3" d="M1511.3,574.8c30.6-13.3,52.6-32.2,62.3-53.6"/>
			<polyline class="st3" points="1573.6,521.4 1605,492.6 1674.7,491.4 			"/>
			<path class="st3" d="M1238.1,508.5c3.8,17.1,15.2,33.3,33.2,47"/>
			<path class="st3" d="M1271.3,555.5c9.1,7,19.8,13.2,31.8,18.6"/>
			<polyline class="st3" points="1554.6,362.9 1512.8,399.6 1449.1,399.9 1447.1,399.8 			"/>
			<path class="st3" d="M1447.1,399.6c-49.6-6.7-101.7-0.3-142.3,17.4"/>
			<path class="st3" d="M1304.7,417.1c-42,18.3-67.1,46.7-68,77"/>
			<polyline class="st4" points="1139.3,530.6 747.7,617.2 693.9,586.1 915.6,458 917,457.2 985,418.1 953.2,399.6 			"/>
			<path class="st3" d="M1165.5,571.7c6.8,7.3,14.5,14.3,23.2,20.9"/>
			<path class="st3" d="M1188.7,592.7c8.6,6.6,18.1,12.8,28.4,18.6"/>
			<path class="st4" d="M1167.6,572.2l-1.5-1.8l-37.4,13.3l0,0c7.3,7.9,15.3,15.4,24.7,22.6"/>
			<path class="st4" d="M1153.6,606.3c10.4,7.9,21.9,15.3,34.6,22l29-15.6"/>
			<polygon class="st4" points="760.8,636.1 684,591.7 661.4,604.7 738.4,649.2 			"/>
			<path class="st6" d="M971.4,739.7c5.1,1.4,10.5,2.3,16,2.8"/>
			<polyline class="st3" points="623.6,747.7 633.4,715.7 640.2,716.3 			"/>
			<line class="st3" x1="735.1" y1="727.1" x2="650.3" y2="717.5"/>
			<line class="st4" x1="758.2" y1="762" x2="780.8" y2="700.7"/>
			<path class="st4" d="M744.8,696.5c5,0.3,9.9,0.9,14.8,1.5c5.1,0.6,10.1,1.3,15.1,1.9c4.7,0.5,9.3,1.3,13.9,1.9
				c4.9,0.6,9.8,1.3,14.7,1.9c5.4,0.7,10.7,1.4,16.1,2.1c5.1,0.7,10.2,1.4,15.3,2.1c4.4,0.6,8.8,1.2,13.2,1.9
				c5.3,0.8,10.6,1.6,15.9,2.3c4.9,0.7,9.7,1.3,14.6,2c2.5,0.3,4.9,0.7,7.4,1c1.2,0.1,2.4,0.4,3.5,0.6c1.1,0.2,2.2,0.2,3.2,0.4
				c1.3,0.2,2.5,0.4,3.7,0.6"/>
			<line class="st3" x1="870.2" y1="776.7" x2="896.7" y2="716.3"/>
			<line class="st4" x1="635" y1="715.5" x2="649.8" y2="666.3"/>
			<line class="st3" x1="735.1" y1="727.1" x2="745.3" y2="697.2"/>
			<polyline class="st4" points="774.1,682 889.7,697.4 898.2,677 780.8,661.2 776.3,675 			"/>
			<line class="st3" x1="852.6" y1="457.7" x2="755" y2="514.1"/>
			<line class="st3" x1="741.2" y1="522.2" x2="662.2" y2="567.8"/>
			<line class="st3" x1="724.7" y1="531.7" x2="704.3" y2="519.9"/>
			<line class="st3" x1="690.2" y1="511.8" x2="671.3" y2="500.9"/>
			<line class="st3" x1="620.7" y1="583.5" x2="604.9" y2="574.3"/>
			<line class="st3" x1="591" y1="566.3" x2="574.7" y2="556.8"/>
			<line class="st4" x1="1540.4" y1="633" x2="1500.8" y2="592.9"/>
			<polyline class="st3" points="1415.1,654.2 1412.2,608.3 1412.2,607.9 			"/>
			<polyline class="st3" points="1665.6,538.7 1591,526.1 1665.6,538.7 			"/>
			<polyline class="st4" points="1593.4,525.5 1573.3,522.2 1666.6,537.8 			"/>
			<path class="st3" d="M1587.3,532.5c1.3-2.1,2.5-4.3,3.6-6.5"/>
			<path class="st4" d="M1541,575c12.2-7,22.7-15,31.3-23.6"/>
			<path class="st4" d="M1412.1,607.8c48.6-1.2,94.6-12.9,129-32.8"/>
			<path class="st3" d="M1383.4,607.1c9.6,0.6,19.3,0.8,29,0.6"/>
			<line class="st3" x1="1164.4" y1="485.1" x2="1134.7" y2="485.1"/>
			<line class="st3" x1="1643.3" y1="570.7" x2="1572.9" y2="550.9"/>
			<polyline class="st3" points="1573.5,551 1573.6,550.9 1573.9,550.4 1574.6,549.8 1575.2,549 1576.7,547.2 1578.1,545.2 			"/>
			<line class="st3" x1="721.3" y1="211.8" x2="999.9" y2="372.8"/>
			<line class="st3" x1="396.6" y1="559.7" x2="455.3" y2="525.9"/>
			<line class="st3" x1="350.4" y1="426.4" x2="418.5" y2="465.8"/>
			<line class="st4" x1="408.5" y1="499.3" x2="454.8" y2="526"/>
			<polyline class="st4" points="440.2,373.8 507.1,412.4 373.9,489.3 			"/>
			<line class="st4" x1="307.7" y1="451.1" x2="399.8" y2="504.2"/>
			<line class="st4" x1="396.1" y1="400.1" x2="462.3" y2="438.2"/>
			<line class="st4" x1="408.5" y1="499.3" x2="350.2" y2="532.9"/>
			<line class="st3" x1="999.9" y1="372.8" x2="875.3" y2="444.6"/>
			<path class="st3" d="M962.5,736.7c7.4,2.9,15.9,4.9,24.7,5.8"/>
			<path class="st3" d="M940.8,722c4.8,5.9,12.3,11,21.6,14.7"/>
			<polyline class="st3" points="929.5,740.4 951.3,743.7 931.1,785.2 			"/>
			<polyline class="st3" points="888.8,734.4 890.1,734.6 892.1,734.9 894.5,735.2 897.1,735.5 900.2,736 903.4,736.4 906.9,737 
				910.6,737.5 			"/>
			<line class="st3" x1="951.3" y1="743.7" x2="963.5" y2="737"/>
			<line class="st3" x1="686.3" y1="752.7" x2="696.5" y2="723"/>
			<line class="st3" x1="520.9" y1="358.8" x2="493.6" y2="342.9"/>
			<line class="st3" x1="772.6" y1="504.1" x2="543.1" y2="371.6"/>
			<line class="st3" x1="975.4" y1="767.2" x2="987.6" y2="742.5"/>
			<path class="st7" d="M1514.3,833.1l4-4.9l-39.3-10.8l-39.5-10.4l-39.6-10.1L1360,787l-40.1-9.6l-39.8-9.1V768l53.7-119.1l0,0
				c101.5,15.8,211.8-3.8,280.2-52.1c78.9-55.8,81.5-135.6,6.3-193.1v-0.1c-14.6-10.7-30-20.3-45.6-29.4L1405,276.3
				c-5.5,3.2-11,6.4-16.5,9.5c-13.4,7.8-26.8,15.5-40.2,23.3c-16.7,9.7-33.4,19.3-50.1,29c-15.4,8.9-30.8,17.8-46.3,26.8
				c-9.5,5.5-19.1,11-28.6,16.5c-7.4,4.3-14.8,8.6-21.8,13.4c-6.3,4.3-13.4,8.4-19.3,13.4l-89.5-51.8l18.9-10.8l-32.3-18.6
				l149.4-86.3l-278.9-161L257.7,479.4l271.5,156.9l48.2-27.7l75.2,43.3l-5,17.1l-67.8-5.5l-20.6,79.1l34.2,2.6l34.2,3l34,3l34,3.5
				l33.8,3.7l33.7,4l33.7,4.3l33.7,4.4l33.5,4.7l33.4,4.9l33.2,5.2l33.1,5.5l11.9-24.3l40.1,7.8"/>
			<line class="st3" x1="745.6" y1="696.3" x2="668.3" y2="687.6"/>
			<line class="st4" x1="1618.2" y1="593.7" x2="1555.8" y2="566.3"/>
			<line class="st3" x1="655" y1="563.7" x2="606.7" y2="591.6"/>
			<line class="st3" x1="592.5" y1="599.8" x2="577.4" y2="608.5"/>
			<line class="st3" x1="655" y1="563.7" x2="662.2" y2="567.8"/>
			<line class="st3" x1="580.8" y1="448.6" x2="462.8" y2="516.9"/>
			<line class="st3" x1="673.9" y1="447.1" x2="626.1" y2="474.8"/>
			<line class="st3" x1="671.3" y1="500.9" x2="527.6" y2="417.9"/>
			<line class="st4" x1="1501.2" y1="643.9" x2="1473.8" y2="600.4"/>
			<path class="st3" d="M1351.6,603.3c-4.9-1.1-9.8-2.1-14.7-3.3c-5.2-1.2-10.6-1.8-15.7,0.1c-3.8,1.4-5.9,4.8-8.4,7.8
				c-4.9,6-9.8,12.1-14.7,18.1c-3.5,4.4-7.1,8.7-10.6,13.1l-0.1-0.1c15.1,4.2,30.6,7.4,46.3,9.9"/>
			<line class="st3" x1="661.6" y1="708.8" x2="658.5" y2="718.4"/>
			<line class="st3" x1="668.3" y1="687.6" x2="665.4" y2="697.1"/>
			<path class="st3" d="M1215.6,464.2c-2.8,6.5-5,13-6.4,19.6l-0.1,1.4h-22"/>
			<line class="st3" x1="1146.3" y1="452.4" x2="1221.7" y2="465.1"/>
			<line class="st3" x1="1236.7" y1="467.5" x2="1242.5" y2="468.3"/>
			<g>
				<polygon class="st8" points="967.3,703.1 976.5,704.6 971.7,714.5 962.5,713 				"/>
				<polygon class="st8" points="1033.5,713.8 1039.9,714.9 1034.8,724.7 1028.3,723.6 				"/>
				<polygon class="st8" points="1095.2,724.6 1101.7,725.8 1096.5,735.5 1090.1,734.4 				"/>
				<polygon class="st8" points="1156.3,735.5 1165.4,737.3 1159.5,746.9 1150.3,745.1 				"/>
			</g>
			<g>
				<polygon class="st9" points="835.5,683.3 831.8,693.1 897.7,701.9 902.1,692.2 				"/>
				<polygon class="st9" points="773.7,675.5 769.9,685.3 779,686.5 782.8,676.7 				"/>
				<polygon class="st9" points="715.8,656 708.4,677.5 719.4,678.8 726.8,657.2 				"/>
			</g>
			<line class="st4" x1="886.2" y1="439.2" x2="916.2" y2="457.2"/>
		</g>
		<g>
			<polygon class="st10" points="1296.7,584.4 1312.6,590.9 1310.3,583.1 			"/>
		</g>
		<g>
			<polygon class="st11" points="1232.2,501.9 1223.7,506.8 1223.7,497.1 			"/>
		</g>
		<g>
			<polygon class="st12" points="1001.4,801.7 1041,808.3 1026.4,793.7 			"/>
		</g>
	</g>
	<g>
		<path class="st2" d="M982.4,833.1l0.8-6.4l-0.8-6.4h10.4c1.2,0,2.2,0.3,3,0.9c0.7,0.6,1.1,1.4,1.1,2.3c0,0.9-0.4,1.7-1.1,2.3
			c-0.7,0.6-1.8,0.9-3.1,1.1l0.3-0.7c1.5,0.1,2.7,0.4,3.5,1s1.2,1.4,1.2,2.4c0,1.1-0.4,2-1.2,2.6c-0.8,0.7-1.9,1-3.3,1L982.4,833.1
			L982.4,833.1z M986.9,832.1l-1.8-1.9h6.5c0.5,0,0.9-0.1,1.1-0.3c0.2-0.2,0.4-0.5,0.4-0.9s-0.1-0.7-0.4-0.9
			c-0.3-0.2-0.7-0.3-1.2-0.3H986v-2.4h5c0.5,0,0.8-0.1,1.1-0.3c0.2-0.2,0.4-0.5,0.4-0.8s-0.1-0.6-0.3-0.8s-0.5-0.3-1-0.3h-5.9
			l1.7-1.9l0.7,5.4L986.9,832.1z"/>
		<path class="st2" d="M997.8,833.1l5.9-7.2v1.3l-5.6-7h5.1l3.6,4.4h-1.3l3.6-4.4h5l-5.8,7l-0.2-1.8l6.4,7.6h-5.2l-3.9-4.7h1.4
			l-3.9,4.7h-5.1V833.1z"/>
		<path class="st2" d="M1022.9,833.4c-1.6,0-3.1-0.3-4.3-0.8c-1.2-0.6-2.2-1.4-2.9-2.4s-1-2.2-1-3.5c0-1.4,0.3-2.5,1-3.6
			c0.7-1,1.6-1.8,2.9-2.4c1.2-0.6,2.7-0.9,4.3-0.9s3.1,0.3,4.3,0.9c1.2,0.6,2.2,1.4,2.9,2.4c0.7,1,1,2.2,1,3.6c0,1.3-0.3,2.5-1,3.5
			s-1.6,1.8-2.9,2.4C1025.9,833.2,1024.5,833.4,1022.9,833.4z M1022.9,830c0.7,0,1.4-0.1,1.9-0.4c0.5-0.3,0.9-0.7,1.2-1.2
			c0.3-0.5,0.4-1.1,0.4-1.8s-0.1-1.3-0.4-1.8s-0.7-0.9-1.2-1.2s-1.2-0.4-1.9-0.4s-1.4,0.1-1.9,0.4c-0.5,0.3-1,0.7-1.2,1.2
			c-0.3,0.5-0.4,1.1-0.4,1.8s0.1,1.3,0.4,1.8c0.3,0.5,0.7,0.9,1.2,1.2C1021.5,829.9,1022.1,830,1022.9,830z"/>
		<path class="st2" d="M1051,829.7v6.5h-3.9v-3.1h-11.2v3.1h-3.9v-6.5h3.9l0.9,0.1h9.3l0.8-0.1H1051z M1034.6,820.3h14.1v11.9h-4.6
			v-10.7l2.1,2.1h-9.4l1.7-1.7c0.2,0.6,0.3,1.2,0.4,1.7c0,0.5,0.1,1,0.1,1.5c0,2.1-0.4,3.7-1.1,4.8s-1.7,1.7-3,1.7l-1.9-1.6
			c1.2-0.8,1.7-2.8,1.7-5.9c0-0.6,0-1.2-0.1-1.9C1034.7,821.7,1034.7,821,1034.6,820.3z"/>
	</g>
	<g>
		<g>
			<circle class="st2" cx="810.1" cy="640.9" r="19.9"/>
		</g>
		<path class="st1" d="M799.5,633.3v5.4c0,0.2,0.1,0.4,0.3,0.6l13.9,9.8c0.1,0.1,0.2,0.1,0.3,0.1h6c0.3,0,0.6-0.3,0.6-0.6v-4.9
			c0-0.3-0.3-0.6-0.6-0.6h-4.1v-2.8c0-0.3-0.3-0.6-0.6-0.6h-4.1v-2.8c0-0.3-0.3-0.6-0.6-0.6h-4.1v-2.8c0-0.3-0.3-0.6-0.6-0.6H800
			C799.8,632.6,799.5,632.9,799.5,633.3z M805.4,633.9v2.8c0,0.3,0.3,0.6,0.6,0.6h4.1v2.8c0,0.3,0.3,0.6,0.6,0.6h4.1v2.8
			c0,0.3,0.3,0.6,0.6,0.6h4.1v3.7h-5.3l-13.5-9.6v-4.4L805.4,633.9z"/>
		<g>
			<path class="st2" d="M810.1,658.6c0,0,0.2,0.2,0.6,0.7c0.2,0.2,0.4,0.5,0.5,0.7c0.1,0.1,0.2,0.3,0.3,0.5c0.1,0.1,0.1,0.2,0,0.2
				c0,0.1,0,0.2,0,0.3c0,1.4,0,3.3,0,5.2s0,3.8,0,5.2c0,0.1,0,0.2,0,0.3s0,0.2,0,0.2c-0.1,0.2-0.2,0.3-0.3,0.5
				c-0.2,0.3-0.4,0.5-0.5,0.7c-0.3,0.4-0.5,0.7-0.5,0.7s-0.2-0.2-0.5-0.7c-0.2-0.2-0.4-0.5-0.5-0.7c-0.1-0.1-0.2-0.3-0.3-0.5
				c-0.1-0.1-0.1-0.2,0-0.2c0-0.1,0-0.2,0-0.3c0-1.4,0-3.3,0-5.2s0-3.8,0-5.2c0-0.1,0-0.2,0-0.3s0-0.2,0-0.2
				c0.1-0.2,0.2-0.3,0.3-0.5c0.2-0.3,0.4-0.5,0.5-0.7C809.9,658.8,810.1,658.6,810.1,658.6z"/>
		</g>
	</g>
	<g>
		<g>
			<circle class="st2" cx="646" cy="697.1" r="19.9"/>
		</g>
		<path class="st1" d="M655.9,688.9H650c-0.3,0-0.6,0.3-0.6,0.6v2.8h-4.1c-0.3,0-0.6,0.3-0.6,0.6v2.8h-4.1c-0.3,0-0.6,0.3-0.6,0.6
			v2.8h-4.1c-0.3,0-0.6,0.3-0.6,0.6v4.9c0,0.3,0.3,0.6,0.6,0.6h6c0.1,0,0.2,0,0.3-0.1l13.9-9.8c0.2-0.1,0.3-0.3,0.3-0.6v-5.4
			C656.5,689.2,656.3,688.9,655.9,688.9z M655.4,690.1v4.4l-13.5,9.6h-5.3v-3.7h4.1c0.3,0,0.6-0.3,0.6-0.6V697h4.1
			c0.3,0,0.6-0.3,0.6-0.6v-2.8h4.1c0.3,0,0.6-0.3,0.6-0.6v-2.8L655.4,690.1z"/>
		<g>
			<path class="st2" d="M646,714.8c0,0,0.2,0.2,0.6,0.7c0.2,0.2,0.4,0.5,0.5,0.7c0.1,0.1,0.2,0.3,0.3,0.5c0.1,0.1,0.1,0.2,0,0.2
				c0,0.1,0,0.2,0,0.3c0,1.4,0,3.3,0,5.2s0,3.8,0,5.2c0,0.1,0,0.2,0,0.3s0,0.2,0,0.2c-0.1,0.2-0.2,0.3-0.3,0.5
				c-0.2,0.3-0.4,0.5-0.5,0.7c-0.3,0.4-0.5,0.7-0.5,0.7s-0.2-0.2-0.5-0.7c-0.2-0.2-0.4-0.5-0.5-0.7c-0.1-0.1-0.2-0.3-0.3-0.5
				c-0.1-0.1-0.1-0.2,0-0.2c0-0.1,0-0.2,0-0.3c0-1.4,0-3.3,0-5.2s0-3.8,0-5.2c0-0.1,0-0.2,0-0.3s0-0.2,0-0.2
				c0.1-0.2,0.2-0.3,0.3-0.5c0.2-0.3,0.4-0.5,0.5-0.7C645.8,715.1,646,714.8,646,714.8z"/>
		</g>
	</g>
	<g>
		<g>
			<circle class="st2" cx="1176.2" cy="565.3" r="19.9"/>
		</g>
		<path class="st1" d="M1186.1,557h-5.9c-0.3,0-0.6,0.3-0.6,0.6v2.8h-4.1c-0.3,0-0.6,0.3-0.6,0.6v2.8h-4.1c-0.3,0-0.6,0.3-0.6,0.6
			v2.8h-4.1c-0.3,0-0.6,0.3-0.6,0.6v4.9c0,0.3,0.3,0.6,0.6,0.6h6c0.1,0,0.2,0,0.3-0.1l13.9-9.8c0.2-0.1,0.3-0.3,0.3-0.6v-5.4
			C1186.7,557.3,1186.5,557,1186.1,557z M1185.6,558.3v4.4l-13.5,9.6h-5.3v-3.7h4.1c0.3,0,0.6-0.3,0.6-0.6v-2.8h4.1
			c0.3,0,0.6-0.3,0.6-0.6v-2.8h4.1c0.3,0,0.6-0.3,0.6-0.6v-2.8L1185.6,558.3z"/>
		<g>
			<path class="st2" d="M1176.2,583c0,0,0.2,0.2,0.6,0.7c0.2,0.2,0.4,0.5,0.5,0.7c0.1,0.1,0.2,0.3,0.3,0.5c0.1,0.1,0.1,0.2,0,0.2
				c0,0.1,0,0.2,0,0.3c0,1.4,0,3.3,0,5.2s0,3.8,0,5.2c0,0.1,0,0.2,0,0.3s0,0.2,0,0.2c-0.1,0.2-0.2,0.3-0.3,0.5
				c-0.2,0.3-0.4,0.5-0.5,0.7c-0.3,0.4-0.5,0.7-0.5,0.7s-0.2-0.2-0.5-0.7c-0.2-0.2-0.4-0.5-0.5-0.7c-0.1-0.1-0.2-0.3-0.3-0.5
				c-0.1-0.1-0.1-0.2,0-0.2c0-0.1,0-0.2,0-0.3c0-1.4,0-3.3,0-5.2s0-3.8,0-5.2c0-0.1,0-0.2,0-0.3s0-0.2,0-0.2
				c0.1-0.2,0.2-0.3,0.3-0.5c0.2-0.3,0.4-0.5,0.5-0.7C1176,583.2,1176.2,583,1176.2,583z"/>
		</g>
	</g>
	<g>
		<g>
			<circle class="st2" cx="1616.3" cy="520.4" r="19.9"/>
		</g>
		<path class="st1" d="M1626.3,512.2h-5.9c-0.3,0-0.6,0.3-0.6,0.6v2.8h-4.1c-0.3,0-0.6,0.3-0.6,0.6v2.8h-4.1c-0.3,0-0.6,0.3-0.6,0.6
			v2.8h-4.1c-0.3,0-0.6,0.3-0.6,0.6v4.9c0,0.3,0.3,0.6,0.6,0.6h6c0.1,0,0.2,0,0.3-0.1l13.9-9.8c0.2-0.1,0.3-0.3,0.3-0.6v-5.4
			C1626.9,512.4,1626.6,512.2,1626.3,512.2z M1625.7,513.4v4.4l-13.5,9.6h-5.3v-3.7h4.1c0.3,0,0.6-0.3,0.6-0.6v-2.8h4.1
			c0.3,0,0.6-0.3,0.6-0.6v-2.8h4.1c0.3,0,0.6-0.3,0.6-0.6v-2.8L1625.7,513.4z"/>
		<g>
			<path class="st2" d="M1616.3,538.1c0,0,0.2,0.2,0.6,0.7c0.2,0.2,0.4,0.5,0.5,0.7c0.1,0.1,0.2,0.3,0.3,0.5c0.1,0.1,0.1,0.2,0,0.2
				c0,0.1,0,0.2,0,0.3c0,1.4,0,3.3,0,5.2s0,3.8,0,5.2c0,0.1,0,0.2,0,0.3s0,0.2,0,0.2c-0.1,0.2-0.2,0.3-0.3,0.5
				c-0.2,0.3-0.4,0.5-0.5,0.7c-0.3,0.4-0.5,0.7-0.5,0.7s-0.2-0.2-0.5-0.7c-0.2-0.2-0.4-0.5-0.5-0.7c-0.1-0.1-0.2-0.3-0.3-0.5
				c-0.1-0.1-0.1-0.2,0-0.2c0-0.1,0-0.2,0-0.3c0-1.4,0-3.3,0-5.2s0-3.8,0-5.2c0-0.1,0-0.2,0-0.3s0-0.2,0-0.2
				c0.1-0.2,0.2-0.3,0.3-0.5c0.2-0.3,0.4-0.5,0.5-0.7C1616.1,538.4,1616.3,538.1,1616.3,538.1z"/>
		</g>
	</g>
	<g>
		<g>
			<circle class="st2" cx="711.1" cy="587.8" r="19.9"/>
		</g>
		<g>
			<path class="st2" d="M711.1,605.5c0,0,0.2,0.2,0.5,0.7c0.1,0.2,0.3,0.5,0.5,0.7c0.1,0.1,0.2,0.3,0.3,0.5s0,0.3,0,0.5
				c0,1.4,0,3.3,0,5.2s0,3.8,0,5.2c0,0.1,0,0.2,0,0.3s0,0.2,0,0.2c-0.1,0.2-0.2,0.3-0.3,0.5c-0.2,0.3-0.3,0.5-0.5,0.7
				c-0.3,0.4-0.5,0.7-0.5,0.7s-0.2-0.2-0.5-0.7c-0.1-0.2-0.3-0.5-0.5-0.7c-0.1-0.1-0.2-0.3-0.3-0.5c-0.1-0.1-0.1-0.2,0-0.2
				c0-0.1,0-0.2,0-0.3c0-1.4,0-3.3,0-5.2s0-3.8,0-5.2c0-0.2-0.1-0.3,0-0.5s0.2-0.3,0.3-0.5c0.2-0.3,0.3-0.5,0.5-0.7
				C710.9,605.7,711.1,605.5,711.1,605.5z"/>
		</g>
		<g>
			<path class="st1" d="M698.9,585.6c0.1,0.5,0.4,1.7,1.6,2.4c0.3,0.2,0.6,0.3,0.9,0.3c0.1,0,0.2,0,0.3,0h3.3c0.1,0,0.1,0,0.2,0.1
				l10.4,7.8c0.3,0.2,0.6,0.3,0.9,0.3h6c0.2,0,0.4,0,0.5-0.1c0.5-0.2,1.4-0.7,2-1.8c0.2-0.4,0.7-1.6,0-3c-0.6-1.3-1.7-1.8-2.2-1.9
				c-0.1,0-0.3-0.1-0.4-0.1h-3.6c-0.1,0-0.1,0-0.2-0.1l-1.3-1V585c0-0.2-0.1-1-0.7-1.5c-0.1-0.1-0.8-0.7-1.8-0.4
				c-0.6,0.2-1.1,0.6-1.4,1.3c-0.1,0.1-0.1,0.3-0.1,0.4v0.1v0.6l-5-3.8c-0.3-0.2-0.6-0.3-0.9-0.3h-5.3c-0.2,0-0.3,0-0.4,0.1
				c-0.4,0.1-1.1,0.4-1.6,1C699.6,582.7,698.6,583.9,698.9,585.6z M700.6,583.3c0.4-0.4,0.8-0.6,1.1-0.7h0.1h5.3
				c0.1,0,0.1,0,0.2,0.1l10.5,7.8c0.3,0.2,0.6,0.3,0.9,0.3h3.6h0.1c0.3,0.1,1.1,0.4,1.5,1.3c0.4,1,0.1,1.9,0,2
				c-0.4,0.8-1,1.1-1.3,1.2h-0.1h-6c-0.1,0-0.1,0-0.2-0.1l-10.4-7.8c-0.3-0.2-0.6-0.3-0.9-0.3h-3.3l0,0c-0.2,0-0.4-0.1-0.5-0.2
				c-0.7-0.4-0.9-1.2-1-1.6C699.8,584.2,700.6,583.3,700.6,583.3z"/>
			<path class="st1" d="M715.1,582.9c-1.1,0-1.9-0.9-1.9-1.9c0-1.1,0.9-1.9,1.9-1.9c1.1,0,1.9,0.9,1.9,1.9
				C717,582.1,716.2,582.9,715.1,582.9z"/>
		</g>
	</g>
	<g>
		<g>
			<circle class="st2" cx="931.8" cy="394.9" r="19.9"/>
		</g>
		<g>
			<path class="st2" d="M931.8,412.6c0,0,0.2,0.2,0.5,0.7c0.1,0.2,0.3,0.5,0.5,0.7c0.1,0.1,0.2,0.3,0.3,0.5s0,0.3,0,0.5
				c0,1.4,0,3.3,0,5.2c0,1.9,0,3.8,0,5.2c0,0.1,0,0.2,0,0.3c0,0.1,0,0.2,0,0.2c-0.1,0.2-0.2,0.3-0.3,0.5c-0.2,0.3-0.3,0.5-0.5,0.7
				c-0.3,0.4-0.5,0.7-0.5,0.7s-0.2-0.2-0.5-0.7c-0.1-0.2-0.3-0.5-0.5-0.7c-0.1-0.1-0.2-0.3-0.3-0.5c-0.1-0.1-0.1-0.2,0-0.2
				c0-0.1,0-0.2,0-0.3c0-1.4,0-3.3,0-5.2c0-1.9,0-3.8,0-5.2c0-0.2-0.1-0.3,0-0.5s0.2-0.3,0.3-0.5c0.2-0.3,0.3-0.5,0.5-0.7
				C931.6,412.9,931.8,412.6,931.8,412.6z"/>
		</g>
		<g>
			<path class="st1" d="M919.5,392.8c0.1,0.5,0.4,1.7,1.6,2.4c0.3,0.2,0.6,0.3,0.9,0.3c0.1,0,0.2,0,0.3,0h3.3c0.1,0,0.1,0,0.2,0.1
				l10.4,7.8c0.3,0.2,0.6,0.3,0.9,0.3h6c0.2,0,0.4,0,0.5-0.1c0.5-0.2,1.4-0.7,2-1.8c0.2-0.4,0.7-1.6,0-3c-0.6-1.3-1.7-1.8-2.2-1.9
				c-0.1,0-0.3-0.1-0.4-0.1h-3.6c-0.1,0-0.1,0-0.2-0.1l-1.3-1v-3.5c0-0.2-0.1-1-0.7-1.5c-0.1-0.1-0.8-0.7-1.8-0.4
				c-0.6,0.2-1.1,0.6-1.4,1.3c-0.1,0.1-0.1,0.3-0.1,0.4v0.1v0.6l-5-3.8c-0.3-0.2-0.6-0.3-0.9-0.3h-5.3c-0.2,0-0.3,0-0.4,0.1
				c-0.4,0.1-1.1,0.4-1.6,1C920.3,389.8,919.2,391.1,919.5,392.8z M921.3,390.4c0.4-0.4,0.8-0.6,1.1-0.7h0.1h5.3
				c0.1,0,0.1,0,0.2,0.1l10.5,7.8c0.3,0.2,0.6,0.3,0.9,0.3h3.6h0.1c0.3,0.1,1.1,0.4,1.5,1.3c0.4,1,0.1,1.9,0,2
				c-0.4,0.8-1,1.1-1.3,1.2h-0.1h-6c-0.1,0-0.1,0-0.2-0.1l-10.4-7.8c-0.3-0.2-0.6-0.3-0.9-0.3h-3.3l0,0c-0.2,0-0.4-0.1-0.5-0.2
				c-0.7-0.4-0.9-1.2-1-1.6C920.5,391.4,921.2,390.5,921.3,390.4z"/>
			<path class="st1" d="M935.8,390.1c-1.1,0-1.9-0.9-1.9-1.9c0-1.1,0.9-1.9,1.9-1.9c1.1,0,1.9,0.9,1.9,1.9S936.8,390.1,935.8,390.1z
				"/>
		</g>
	</g>
	<g>
		<g>
			<line class="st13" x1="1372.9" y1="399.7" x2="1372.9" y2="160.3"/>
			<g>
				<path class="st2" d="M1378.1,399.7c0,2.8-2.3,5.1-5.1,5.1c-2.8,0-5.1-2.3-5.1-5.1c0-2.8,2.3-5.1,5.1-5.1
					C1375.8,394.5,1378.1,396.8,1378.1,399.7z"/>
			</g>
		</g>
	</g>
	<g>
		<g>
			<circle class="st2" cx="718.4" cy="663.4" r="19.9"/>
		</g>
		<g>
			<path class="st2" d="M718.4,681.1c0,0,0.2,0.2,0.5,0.7c0.1,0.2,0.3,0.5,0.5,0.7c0.1,0.1,0.2,0.3,0.3,0.5s0,0.3,0,0.5
				c0,1.4,0,3.3,0,5.2s0,3.8,0,5.2c0,0.1,0,0.2,0,0.3s0,0.2,0,0.2c-0.1,0.2-0.2,0.3-0.3,0.5c-0.2,0.3-0.3,0.5-0.5,0.7
				c-0.3,0.4-0.5,0.7-0.5,0.7s-0.2-0.2-0.5-0.7c-0.1-0.2-0.3-0.5-0.5-0.7c-0.1-0.1-0.2-0.3-0.3-0.5c-0.1-0.1-0.1-0.2,0-0.2
				c0-0.1,0-0.2,0-0.3c0-1.4,0-3.3,0-5.2s0-3.8,0-5.2c0-0.2-0.1-0.3,0-0.5s0.2-0.3,0.3-0.5c0.2-0.3,0.3-0.5,0.5-0.7
				C718.2,681.4,718.4,681.1,718.4,681.1z"/>
		</g>
		<g>
			<path class="st1" d="M727.1,659.4l-17.3-0.2c-0.7,0-1.2,0.5-1.2,1.2l-0.1,13.1c0,0.7,0.5,1.2,1.2,1.2l17.3,0.2
				c0.7,0,1.2-0.5,1.2-1.2l0.1-13.1C728.3,660,727.8,659.4,727.1,659.4z M709.8,660.5C709.8,660.4,709.8,660.4,709.8,660.5l17.3,0.1
				l0,0l-0.1,13.1l0,0l-17.3-0.2l0,0L709.8,660.5z"/>
			<path class="st1" d="M713.8,658L713.8,658C713.9,658.1,713.9,658.1,713.8,658c0.1,0.1,0.2,0.2,0.2,0.2l0,0l0,0c0.1,0,0.1,0,0.2,0
				l0,0l0,0l0,0l0,0c0.1,0,0.1,0,0.2,0l0,0c0.1,0,0.1-0.1,0.2-0.1l0,0c0,0,0,0,0.1-0.1l0,0l2.9-3.6c0.1-0.1,0.2-0.3,0.1-0.5
				c0-0.2-0.1-0.3-0.2-0.4c-0.3-0.2-0.7-0.2-0.9,0.1l-1.8,2.2l0.1-5.4c0-0.3-0.3-0.6-0.6-0.6s-0.6,0.3-0.6,0.6l-0.1,5.5L712,654
				c-0.1-0.1-0.3-0.2-0.4-0.2c-0.2,0-0.3,0-0.5,0.1c-0.1,0.1-0.2,0.3-0.2,0.4c0,0.2,0,0.3,0.1,0.5L713.8,658z"/>
			<path class="st1" d="M720.1,654.2c0.2,0,0.4-0.1,0.5-0.2l1.7-1.9l-0.1,5.5c0,0.3,0.3,0.6,0.6,0.6s0.6-0.3,0.6-0.6l0.1-5.4
				l1.7,2.2c0.2,0.3,0.6,0.3,0.9,0.1c0.3-0.2,0.3-0.6,0.1-0.9l-2.8-3.6l0,0c0,0,0-0.1-0.1-0.1l0,0l0,0c0,0-0.1-0.1-0.2-0.1l0,0
				c-0.1,0-0.1,0-0.2,0l0,0c-0.1,0-0.1,0-0.2,0l0,0l0,0c-0.1,0-0.1,0-0.1,0.1l0,0l-0.1,0.1l-2.8,3.2c-0.2,0.3-0.2,0.7,0.1,0.9
				C719.8,654.2,720,654.2,720.1,654.2z"/>
			<path class="st1" d="M713.4,663.5c0.5,0,0.9-0.4,0.9-0.9s-0.4-0.9-0.9-0.9s-0.9,0.4-0.9,0.9S712.9,663.5,713.4,663.5z"/>
			<path class="st1" d="M723.3,663.6c0.5,0,0.9-0.4,0.9-0.9s-0.4-0.9-0.9-0.9s-0.9,0.4-0.9,0.9C722.5,663.2,722.8,663.6,723.3,663.6
				z"/>
			<path class="st1" d="M718.4,663.5c0.5,0,0.9-0.4,0.9-0.9s-0.4-0.9-0.9-0.9s-0.9,0.4-0.9,0.9S717.9,663.5,718.4,663.5z"/>
			<path class="st1" d="M712,668.6L712,668.6l0.1,3.6c0,0.3,0.3,0.6,0.6,0.6c0.2,0,0.3,0,0.4-0.2c0.1-0.1,0.2-0.3,0.2-0.5v-3.5h0.2
				v3.6c0,0.3,0.2,0.6,0.5,0.6l0,0c0.2,0,0.3,0,0.4-0.2c0.1-0.1,0.2-0.3,0.2-0.5v-3.5l0,0c0.4,0,0.6-0.3,0.7-0.6v-2.6
				c0-0.9-0.7-1.7-1.7-1.7h-0.7c-0.9,0-1.7,0.7-1.7,1.6v2.6C711.4,668.3,711.7,668.6,712,668.6z"/>
			<path class="st1" d="M717,668.7L717,668.7l0.1,3.6c0,0.3,0.3,0.6,0.6,0.6c0.2,0,0.3,0,0.4-0.2c0.1-0.1,0.2-0.3,0.2-0.5v-3.5h0.2
				v3.6c0,0.3,0.3,0.6,0.6,0.6c0.2,0,0.3,0,0.4-0.2c0.1-0.1,0.2-0.3,0.2-0.5v-3.5l0,0c0.4,0,0.6-0.3,0.7-0.6v-2.6
				c0-0.9-0.7-1.7-1.7-1.7H718c-0.9,0-1.7,0.7-1.7,1.6v2.6C716.4,668.4,716.7,668.6,717,668.7z"/>
			<path class="st1" d="M721.9,668.7L721.9,668.7v3.6c0,0.3,0.3,0.6,0.6,0.6c0.2,0,0.3,0,0.4-0.2c0.1-0.1,0.2-0.3,0.2-0.5v-3.5h0.2
				v3.6c0,0.3,0.3,0.6,0.6,0.6c0.2,0,0.3,0,0.4-0.2c0.1-0.1,0.2-0.3,0.2-0.5v-3.5l0,0c0.4,0,0.6-0.3,0.7-0.6v-2.6
				c0-0.9-0.7-1.7-1.7-1.7h-0.7c-0.9,0-1.7,0.7-1.7,1.6v2.6C721.3,668.4,721.6,668.7,721.9,668.7z"/>
		</g>
	</g>
	<g>
		<g>
			<circle class="st2" cx="1174.2" cy="438.5" r="19.9"/>
		</g>
		<g>
			<path class="st2" d="M1174.2,456.2c0,0,0.2,0.2,0.5,0.7c0.1,0.2,0.3,0.5,0.5,0.7c0.1,0.1,0.2,0.3,0.3,0.5c0.1,0.2,0,0.3,0,0.5
				c0,1.4,0,3.3,0,5.2c0,1.9,0,3.8,0,5.2c0,0.1,0,0.2,0,0.3c0,0.1,0,0.2,0,0.2c-0.1,0.2-0.2,0.3-0.3,0.5c-0.2,0.3-0.3,0.5-0.5,0.7
				c-0.3,0.4-0.5,0.7-0.5,0.7s-0.2-0.2-0.5-0.7c-0.1-0.2-0.3-0.5-0.5-0.7c-0.1-0.1-0.2-0.3-0.3-0.5c-0.1-0.1-0.1-0.2,0-0.2
				c0-0.1,0-0.2,0-0.3c0-1.4,0-3.3,0-5.2c0-1.9,0-3.8,0-5.2c0-0.2-0.1-0.3,0-0.5s0.2-0.3,0.3-0.5c0.2-0.3,0.3-0.5,0.5-0.7
				C1174,456.4,1174.2,456.2,1174.2,456.2z"/>
		</g>
		<g>
			<path class="st1" d="M1182.9,434.5l-17.3-0.2c-0.7,0-1.2,0.5-1.2,1.2l-0.1,13.1c0,0.7,0.5,1.2,1.2,1.2l17.3,0.2
				c0.7,0,1.2-0.5,1.2-1.2l0.1-13.1C1184.1,435,1183.6,434.5,1182.9,434.5z M1165.6,435.5L1165.6,435.5l17.3,0.1l0,0l-0.1,13.1l0,0
				l-17.3-0.2l0,0L1165.6,435.5z"/>
			<path class="st1" d="M1169.5,433C1169.6,433.1,1169.6,433.1,1169.5,433L1169.5,433c0.1,0.1,0.2,0.2,0.2,0.2l0,0l0,0
				c0.1,0,0.1,0,0.2,0l0,0l0,0l0,0l0,0c0.1,0,0.1,0,0.2,0l0,0c0.1,0,0.1-0.1,0.2-0.1l0,0c0,0,0,0,0.1-0.1l0,0l2.9-3.6
				c0.1-0.1,0.2-0.3,0.1-0.5c0-0.2-0.1-0.3-0.2-0.4c-0.3-0.2-0.7-0.2-0.9,0.1l-1.8,2.2l0.1-5.4c0-0.3-0.3-0.6-0.6-0.6
				c-0.3,0-0.6,0.3-0.6,0.6l-0.1,5.5l-1.7-1.9c-0.1-0.1-0.3-0.2-0.4-0.2c-0.2,0-0.3,0-0.5,0.1c-0.1,0.1-0.2,0.3-0.2,0.4
				c0,0.2,0,0.3,0.1,0.5L1169.5,433z"/>
			<path class="st1" d="M1175.9,429.3c0.2,0,0.4-0.1,0.5-0.2l1.7-1.9l-0.1,5.5c0,0.3,0.3,0.6,0.6,0.6c0.3,0,0.6-0.3,0.6-0.6l0.1-5.4
				l1.7,2.2c0.2,0.3,0.6,0.3,0.9,0.1c0.3-0.2,0.3-0.6,0.1-0.9l-2.8-3.6l0,0c0,0,0-0.1-0.1-0.1l0,0l0,0c0,0-0.1-0.1-0.2-0.1l0,0
				c-0.1,0-0.1,0-0.2,0l0,0c-0.1,0-0.1,0-0.2,0l0,0l0,0c-0.1,0-0.1,0-0.1,0.1l0,0l-0.1,0.1l-2.8,3.2c-0.2,0.3-0.2,0.7,0.1,0.9
				C1175.6,429.2,1175.7,429.3,1175.9,429.3z"/>
			<path class="st1" d="M1169.2,438.5c0.5,0,0.9-0.4,0.9-0.9s-0.4-0.9-0.9-0.9s-0.9,0.4-0.9,0.9
				C1168.3,438.1,1168.7,438.5,1169.2,438.5z"/>
			<path class="st1" d="M1179.1,438.6c0.5,0,0.9-0.4,0.9-0.9s-0.4-0.9-0.9-0.9s-0.9,0.4-0.9,0.9S1178.6,438.6,1179.1,438.6z"/>
			<path class="st1" d="M1174.2,438.6c0.5,0,0.9-0.4,0.9-0.9s-0.4-0.9-0.9-0.9s-0.9,0.4-0.9,0.9
				C1173.3,438.2,1173.7,438.6,1174.2,438.6z"/>
			<path class="st1" d="M1167.8,443.7L1167.8,443.7l0.1,3.6c0,0.3,0.3,0.6,0.6,0.6c0.2,0,0.3,0,0.4-0.2c0.1-0.1,0.2-0.3,0.2-0.5
				v-3.5h0.2v3.6c0,0.3,0.2,0.6,0.5,0.6l0,0c0.2,0,0.3,0,0.4-0.2c0.1-0.1,0.2-0.3,0.2-0.5v-3.5l0,0c0.4,0,0.6-0.3,0.7-0.6v-2.6
				c0-0.9-0.7-1.7-1.7-1.7h-0.7c-0.9,0-1.7,0.7-1.7,1.6v2.6C1167.1,443.4,1167.4,443.7,1167.8,443.7z"/>
			<path class="st1" d="M1172.8,443.7L1172.8,443.7l0.1,3.6c0,0.3,0.3,0.6,0.6,0.6c0.2,0,0.3,0,0.4-0.2c0.1-0.1,0.2-0.3,0.2-0.5
				v-3.5h0.2v3.6c0,0.3,0.3,0.6,0.6,0.6c0.2,0,0.3,0,0.4-0.2c0.1-0.1,0.2-0.3,0.2-0.5v-3.5l0,0c0.4,0,0.6-0.3,0.7-0.6v-2.6
				c0-0.9-0.7-1.7-1.7-1.7h-0.7c-0.9,0-1.7,0.7-1.7,1.6v2.6C1172.1,443.4,1172.4,443.7,1172.8,443.7z"/>
			<path class="st1" d="M1177.7,443.8L1177.7,443.8v3.6c0,0.3,0.3,0.6,0.6,0.6c0.2,0,0.3,0,0.4-0.2c0.1-0.1,0.2-0.3,0.2-0.5v-3.5
				h0.2v3.6c0,0.3,0.3,0.6,0.6,0.6c0.2,0,0.3,0,0.4-0.2c0.1-0.1,0.2-0.3,0.2-0.5v-3.5l0,0c0.4,0,0.6-0.3,0.7-0.6v-2.6
				c0-0.9-0.7-1.7-1.7-1.7h-0.7c-0.9,0-1.7,0.7-1.7,1.6v2.6C1177.1,443.5,1177.3,443.8,1177.7,443.8z"/>
		</g>
	</g>
	<g>
		<g>
			<circle class="st2" cx="1276.9" cy="799.4" r="19.9"/>
		</g>
		<path class="st1" d="M1286.8,791.2h-5.9c-0.3,0-0.6,0.3-0.6,0.6v2.8h-4.1c-0.3,0-0.6,0.3-0.6,0.6v2.8h-4.1c-0.3,0-0.6,0.3-0.6,0.6
			v2.8h-4.1c-0.3,0-0.6,0.3-0.6,0.6v4.9c0,0.3,0.3,0.6,0.6,0.6h6c0.1,0,0.2,0,0.3-0.1l13.9-9.8c0.2-0.1,0.3-0.3,0.3-0.6v-5.4
			C1287.4,791.5,1287.1,791.2,1286.8,791.2z M1286.2,792.5v4.4l-13.5,9.6h-5.3v-3.7h4.1c0.3,0,0.6-0.3,0.6-0.6v-2.8h4.1
			c0.3,0,0.6-0.3,0.6-0.6V796h4.1c0.3,0,0.6-0.3,0.6-0.6v-2.8L1286.2,792.5z"/>
		<g>
			<path class="st2" d="M1276.9,817.1c0,0,0.2,0.2,0.6,0.7c0.2,0.2,0.4,0.5,0.5,0.7c0.1,0.1,0.2,0.3,0.3,0.5c0.1,0.1,0.1,0.2,0,0.2
				c0,0.1,0,0.2,0,0.3c0,1.4,0,3.3,0,5.2s0,3.8,0,5.2c0,0.1,0,0.2,0,0.3s0,0.2,0,0.2c-0.1,0.2-0.2,0.3-0.3,0.5
				c-0.2,0.3-0.4,0.5-0.5,0.7c-0.3,0.4-0.5,0.7-0.5,0.7s-0.2-0.2-0.5-0.7c-0.2-0.2-0.4-0.5-0.5-0.7c-0.1-0.1-0.2-0.3-0.3-0.5
				c-0.1-0.1-0.1-0.2,0-0.2c0-0.1,0-0.2,0-0.3c0-1.4,0-3.3,0-5.2s0-3.8,0-5.2c0-0.1,0-0.2,0-0.3s0-0.2,0-0.2
				c0.1-0.2,0.2-0.3,0.3-0.5c0.2-0.3,0.4-0.5,0.5-0.7C1276.7,817.4,1276.9,817.1,1276.9,817.1z"/>
		</g>
	</g>
	<g>
		<g>
			<circle class="st2" cx="1233.4" cy="788.2" r="19.9"/>
		</g>
		<g>
			<path class="st2" d="M1233.4,805.9c0,0,0.2,0.2,0.5,0.7c0.1,0.2,0.3,0.5,0.5,0.7c0.1,0.1,0.2,0.3,0.3,0.5c0.1,0.2,0,0.3,0,0.5
				c0,1.4,0,3.3,0,5.2s0,3.8,0,5.2c0,0.1,0,0.2,0,0.3s0,0.2,0,0.2c-0.1,0.2-0.2,0.3-0.3,0.5c-0.2,0.3-0.3,0.5-0.5,0.7
				c-0.3,0.4-0.5,0.7-0.5,0.7s-0.2-0.2-0.5-0.7c-0.1-0.2-0.3-0.5-0.5-0.7c-0.1-0.1-0.2-0.3-0.3-0.5c-0.1-0.1-0.1-0.2,0-0.2
				c0-0.1,0-0.2,0-0.3c0-1.4,0-3.3,0-5.2s0-3.8,0-5.2c0-0.2-0.1-0.3,0-0.5s0.2-0.3,0.3-0.5c0.2-0.3,0.3-0.5,0.5-0.7
				C1233.2,806.2,1233.4,805.9,1233.4,805.9z"/>
		</g>
		<g>
			<path class="st1" d="M1242.2,784.2l-17.3-0.2c-0.7,0-1.2,0.5-1.2,1.2l-0.1,13.1c0,0.7,0.5,1.2,1.2,1.2l17.3,0.2
				c0.7,0,1.2-0.5,1.2-1.2l0.1-13.1C1243.4,784.8,1242.8,784.2,1242.2,784.2z M1224.8,785.3C1224.8,785.3,1224.9,785.2,1224.8,785.3
				l17.3,0.1l0,0l-0.1,13.1l0,0l-17.3-0.2l0,0L1224.8,785.3z"/>
			<path class="st1" d="M1228.8,782.8C1228.8,782.8,1228.9,782.9,1228.8,782.8C1228.9,782.9,1228.9,782.9,1228.8,782.8
				c0.1,0.1,0.2,0.2,0.2,0.2l0,0l0,0c0.1,0,0.1,0,0.2,0l0,0l0,0l0,0l0,0c0.1,0,0.1,0,0.2,0l0,0c0.1,0,0.1-0.1,0.2-0.1l0,0
				c0,0,0,0,0.1-0.1l0,0l2.9-3.6c0.1-0.1,0.2-0.3,0.1-0.5c0-0.2-0.1-0.3-0.2-0.4c-0.3-0.2-0.7-0.2-0.9,0.1l-1.8,2.2l0.1-5.4
				c0-0.3-0.3-0.6-0.6-0.6s-0.6,0.3-0.6,0.6l-0.1,5.5l-1.7-1.9c-0.1-0.1-0.3-0.2-0.4-0.2c-0.2,0-0.3,0-0.5,0.1
				c-0.1,0.1-0.2,0.3-0.2,0.4c0,0.2,0,0.3,0.1,0.5L1228.8,782.8z"/>
			<path class="st1" d="M1235.2,779.1c0.2,0,0.4-0.1,0.5-0.2l1.7-1.9l-0.1,5.5c0,0.3,0.3,0.6,0.6,0.6s0.6-0.3,0.6-0.6l0.1-5.4
				l1.7,2.2c0.2,0.3,0.6,0.3,0.9,0.1s0.3-0.6,0.1-0.9l-2.8-3.6l0,0c0,0,0-0.1-0.1-0.1l0,0l0,0c0,0-0.1-0.1-0.2-0.1l0,0
				c-0.1,0-0.1,0-0.2,0l0,0c-0.1,0-0.1,0-0.2,0l0,0l0,0c-0.1,0-0.1,0-0.1,0.1l0,0l-0.1,0.1l-2.8,3.2c-0.2,0.3-0.2,0.7,0.1,0.9
				C1234.9,779,1235,779.1,1235.2,779.1z"/>
			<path class="st1" d="M1228.4,788.3c0.5,0,0.9-0.4,0.9-0.9s-0.4-0.9-0.9-0.9s-0.9,0.4-0.9,0.9
				C1227.6,787.9,1228,788.3,1228.4,788.3z"/>
			<path class="st1" d="M1238.4,788.4c0.5,0,0.9-0.4,0.9-0.9s-0.4-0.9-0.9-0.9s-0.9,0.4-0.9,0.9S1237.9,788.4,1238.4,788.4z"/>
			<path class="st1" d="M1233.5,788.3c0.5,0,0.9-0.4,0.9-0.9s-0.4-0.9-0.9-0.9s-0.9,0.4-0.9,0.9
				C1232.6,787.9,1233,788.3,1233.5,788.3z"/>
			<path class="st1" d="M1227.1,793.4L1227.1,793.4l0.1,3.6c0,0.3,0.3,0.6,0.6,0.6c0.2,0,0.3,0,0.4-0.2c0.1-0.1,0.2-0.3,0.2-0.5
				v-3.5h0.2v3.6c0,0.3,0.2,0.6,0.5,0.6l0,0c0.2,0,0.3,0,0.4-0.2c0.1-0.1,0.2-0.3,0.2-0.5v-3.5l0,0c0.4,0,0.6-0.3,0.7-0.6v-2.6
				c0-0.9-0.7-1.7-1.7-1.7h-0.7c-0.9,0-1.7,0.7-1.7,1.6v2.6C1226.4,793.1,1226.7,793.4,1227.1,793.4z"/>
			<path class="st1" d="M1232.1,793.5L1232.1,793.5l0.1,3.6c0,0.3,0.3,0.6,0.6,0.6c0.2,0,0.3,0,0.4-0.2c0.1-0.1,0.2-0.3,0.2-0.5
				v-3.5h0.2v3.6c0,0.3,0.3,0.6,0.6,0.6c0.2,0,0.3,0,0.4-0.2c0.1-0.1,0.2-0.3,0.2-0.5v-3.5l0,0c0.4,0,0.6-0.3,0.7-0.6v-2.6
				c0-0.9-0.7-1.7-1.7-1.7h-0.7c-0.9,0-1.7,0.7-1.7,1.6v2.6C1231.4,793.2,1231.7,793.5,1232.1,793.5z"/>
			<path class="st1" d="M1237,793.5L1237,793.5v3.6c0,0.3,0.3,0.6,0.6,0.6c0.2,0,0.3,0,0.4-0.2c0.1-0.1,0.2-0.3,0.2-0.5v-3.5h0.2
				v3.6c0,0.3,0.3,0.6,0.6,0.6c0.2,0,0.3,0,0.4-0.2c0.1-0.1,0.2-0.3,0.2-0.5v-3.5l0,0c0.4,0,0.6-0.3,0.7-0.6v-2.6
				c0-0.9-0.7-1.7-1.7-1.7h-0.7c-0.9,0-1.7,0.7-1.7,1.6v2.6C1236.3,793.2,1236.6,793.5,1237,793.5z"/>
		</g>
	</g>
	<g>
		<g>
			<circle class="st2" cx="1363.9" cy="604.7" r="19.9"/>
		</g>
		<g>
			<path class="st2" d="M1363.9,622.4c0,0,0.2,0.2,0.5,0.7c0.1,0.2,0.3,0.5,0.5,0.7c0.1,0.1,0.2,0.3,0.3,0.5c0.1,0.2,0,0.3,0,0.5
				c0,1.4,0,3.3,0,5.2s0,3.8,0,5.2c0,0.1,0,0.2,0,0.3s0,0.2,0,0.2c-0.1,0.2-0.2,0.3-0.3,0.5c-0.2,0.3-0.3,0.5-0.5,0.7
				c-0.3,0.4-0.5,0.7-0.5,0.7s-0.2-0.2-0.5-0.7c-0.1-0.2-0.3-0.5-0.5-0.7c-0.1-0.1-0.2-0.3-0.3-0.5c-0.1-0.1-0.1-0.2,0-0.2
				c0-0.1,0-0.2,0-0.3c0-1.4,0-3.3,0-5.2s0-3.8,0-5.2c0-0.2-0.1-0.3,0-0.5s0.2-0.3,0.3-0.5c0.2-0.3,0.3-0.5,0.5-0.7
				C1363.7,622.6,1363.9,622.4,1363.9,622.4z"/>
		</g>
		<g>
			<g>
				<circle class="st1" cx="1357.5" cy="596.4" r="1.7"/>
				<path class="st1" d="M1359.7,598.7h-4.4c-0.8,0-1.4,0.6-1.4,1.4v7c0,0.3,0.2,0.5,0.5,0.5h0.8v5.6c0,0.5,0.4,0.8,0.8,0.8
					c0,0,0,0,0.1,0c0.3,0,0.5-0.1,0.7-0.2c0.2-0.2,0.3-0.4,0.3-0.8v-5.4h0.9v5.6c0,0.5,0.4,0.8,0.8,0.8c0,0,0,0,0.1,0
					c0.3,0,0.5-0.1,0.7-0.2c0.2-0.2,0.3-0.4,0.3-0.8v-5.4h0.7c0.3,0,0.5-0.2,0.5-0.5v-7C1361.1,599.3,1360.5,598.7,1359.7,598.7z"/>
				<path class="st1" d="M1370.1,597.7c0.9,0,1.7-0.8,1.7-1.7s-0.8-1.7-1.7-1.7c-0.9,0-1.7,0.8-1.7,1.7S1369.2,597.7,1370.1,597.7z"
					/>
				<path class="st1" d="M1374.7,606.7l-1.7-7.4c-0.2-0.9-0.8-1-1.4-1h-3.1c-0.8,0-1.4,0.6-1.4,1.3l-1.4,7.1c0,0.3,0.2,0.5,0.5,0.5
					h1.6v5.6c0,0.5,0.4,0.8,0.8,0.8c0,0,0,0,0.1,0c0.3,0,0.5-0.1,0.7-0.2c0.2-0.2,0.3-0.4,0.3-0.8v-5.4h0.9v5.6
					c0,0.5,0.4,0.8,0.8,0.8c0,0,0,0,0.1,0c0.3,0,0.5-0.1,0.7-0.2c0.2-0.2,0.3-0.4,0.3-0.8v-5.4h1.7
					C1374.5,607.3,1374.7,607,1374.7,606.7L1374.7,606.7z"/>
				<path class="st1" d="M1363.8,592.7c-0.3,0-0.5,0.2-0.5,0.5v21.9c0,0.3,0.2,0.5,0.5,0.5s0.5-0.2,0.5-0.5v-21.9
					C1364.4,593,1364.1,592.7,1363.8,592.7z"/>
			</g>
		</g>
	</g>
	<g>
		<g>
			<circle class="st2" cx="895.8" cy="718.9" r="19.9"/>
		</g>
		<g>
			<path class="st2" d="M895.8,736.6c0,0,0.2,0.2,0.5,0.7c0.1,0.2,0.3,0.5,0.5,0.7c0.1,0.1,0.2,0.3,0.3,0.5s0,0.3,0,0.5
				c0,1.4,0,3.3,0,5.2s0,3.8,0,5.2c0,0.1,0,0.2,0,0.3s0,0.2,0,0.2c-0.1,0.2-0.2,0.3-0.3,0.5c-0.2,0.3-0.3,0.5-0.5,0.7
				c-0.3,0.4-0.5,0.7-0.5,0.7s-0.2-0.2-0.5-0.7c-0.1-0.2-0.3-0.5-0.5-0.7c-0.1-0.1-0.2-0.3-0.3-0.5c-0.1-0.1-0.1-0.2,0-0.2
				c0-0.1,0-0.2,0-0.3c0-1.4,0-3.3,0-5.2s0-3.8,0-5.2c0-0.2-0.1-0.3,0-0.5s0.2-0.3,0.3-0.5c0.2-0.3,0.3-0.5,0.5-0.7
				C895.6,736.9,895.8,736.6,895.8,736.6z"/>
		</g>
		<g>
			<g>
				<circle class="st1" cx="889.4" cy="710.6" r="1.7"/>
				<path class="st1" d="M891.6,712.9h-4.4c-0.8,0-1.4,0.6-1.4,1.4v7c0,0.3,0.2,0.5,0.5,0.5h0.8v5.6c0,0.5,0.4,0.8,0.8,0.8
					c0,0,0,0,0.1,0c0.3,0,0.5-0.1,0.7-0.2c0.2-0.2,0.3-0.4,0.3-0.8v-5.4h0.9v5.6c0,0.5,0.4,0.8,0.8,0.8c0,0,0,0,0.1,0
					c0.3,0,0.5-0.1,0.7-0.2c0.2-0.2,0.3-0.4,0.3-0.8v-5.4h0.7c0.3,0,0.5-0.2,0.5-0.5v-7C893,713.5,892.4,712.9,891.6,712.9z"/>
				<path class="st1" d="M902,712c0.9,0,1.7-0.8,1.7-1.7s-0.8-1.7-1.7-1.7s-1.7,0.8-1.7,1.7S901.1,712,902,712z"/>
				<path class="st1" d="M906.6,720.9l-1.7-7.4c-0.2-0.9-0.8-1-1.4-1h-3.1c-0.8,0-1.4,0.6-1.4,1.3l-1.4,7.1c0,0.3,0.2,0.5,0.5,0.5
					h1.6v5.6c0,0.5,0.4,0.8,0.8,0.8c0,0,0,0,0.1,0c0.3,0,0.5-0.1,0.7-0.2c0.2-0.2,0.3-0.4,0.3-0.8v-5.4h0.9v5.6
					c0,0.5,0.4,0.8,0.8,0.8c0,0,0,0,0.1,0c0.3,0,0.5-0.1,0.7-0.2c0.2-0.2,0.3-0.4,0.3-0.8v-5.4h1.7
					C906.4,721.5,906.6,721.3,906.6,720.9C906.6,721,906.6,721,906.6,720.9z"/>
				<path class="st1" d="M895.7,707c-0.3,0-0.5,0.2-0.5,0.5v21.9c0,0.3,0.2,0.5,0.5,0.5s0.5-0.2,0.5-0.5v-21.9
					C896.3,707.2,896,707,895.7,707z"/>
			</g>
		</g>
	</g>
	<g>
		<g>
			<circle class="st2" cx="655" cy="505.3" r="19.9"/>
		</g>
		<g>
			<path class="st2" d="M655,523c0,0,0.2,0.2,0.5,0.7c0.1,0.2,0.3,0.5,0.5,0.7c0.1,0.1,0.2,0.3,0.3,0.5s0,0.3,0,0.5
				c0,1.4,0,3.3,0,5.2s0,3.8,0,5.2c0,0.1,0,0.2,0,0.3s0,0.2,0,0.2c-0.1,0.2-0.2,0.3-0.3,0.5c-0.2,0.3-0.3,0.5-0.5,0.7
				c-0.3,0.4-0.5,0.7-0.5,0.7s-0.2-0.2-0.5-0.7c-0.1-0.2-0.3-0.5-0.5-0.7c-0.1-0.1-0.2-0.3-0.3-0.5c-0.1-0.1-0.1-0.2,0-0.2
				c0-0.1,0-0.2,0-0.3c0-1.4,0-3.3,0-5.2s0-3.8,0-5.2c0-0.2-0.1-0.3,0-0.5s0.2-0.3,0.3-0.5c0.2-0.3,0.3-0.5,0.5-0.7
				C654.8,523.3,655,523,655,523z"/>
		</g>
		<g>
			<g>
				<circle class="st1" cx="648.7" cy="497" r="1.7"/>
				<path class="st1" d="M650.9,499.3h-4.4c-0.8,0-1.4,0.6-1.4,1.4v7c0,0.3,0.2,0.5,0.5,0.5h0.8v5.6c0,0.5,0.4,0.8,0.8,0.8
					c0,0,0,0,0.1,0c0.3,0,0.5-0.1,0.7-0.2c0.2-0.2,0.3-0.4,0.3-0.8v-5.4h0.9v5.6c0,0.5,0.4,0.8,0.8,0.8c0,0,0,0,0.1,0
					c0.3,0,0.5-0.1,0.7-0.2c0.2-0.2,0.3-0.4,0.3-0.8v-5.4h0.7c0.3,0,0.5-0.2,0.5-0.5v-7C652.3,500,651.7,499.3,650.9,499.3z"/>
				<path class="st1" d="M661.3,498.4c0.9,0,1.7-0.8,1.7-1.7c0-0.9-0.8-1.7-1.7-1.7s-1.7,0.8-1.7,1.7S660.4,498.4,661.3,498.4z"/>
				<path class="st1" d="M665.9,507.3l-1.7-7.4c-0.2-0.9-0.8-1-1.4-1h-3.1c-0.8,0-1.4,0.6-1.4,1.3l-1.4,7.1c0,0.3,0.2,0.5,0.5,0.5
					h1.6v5.6c0,0.5,0.4,0.8,0.8,0.8c0,0,0,0,0.1,0c0.3,0,0.5-0.1,0.7-0.2c0.2-0.2,0.3-0.4,0.3-0.8v-5.4h0.9v5.6
					c0,0.5,0.4,0.8,0.8,0.8c0,0,0,0,0.1,0c0.3,0,0.5-0.1,0.7-0.2c0.2-0.2,0.3-0.4,0.3-0.8v-5.4h1.7
					C665.7,507.9,665.9,507.7,665.9,507.3L665.9,507.3z"/>
				<path class="st1" d="M655,493.4c-0.3,0-0.5,0.2-0.5,0.5v21.9c0,0.3,0.2,0.5,0.5,0.5s0.5-0.2,0.5-0.5v-21.9
					C655.5,493.6,655.3,493.4,655,493.4z"/>
			</g>
		</g>
	</g>
</g>
<rect x="1290.8" y="112.1" class="st2" width="164.3" height="68.9"/>
<rect x="1300.1" y="120.4" class="st14" width="148.6" height="49.1"/>
<g class="st15">
	<path class="st1" d="M1354.5,139.3c-1.9,0-3.6-0.3-5-0.8c-1.4-0.5-2.5-1.3-3.3-2.3c-0.8-1-1.2-2.1-1.3-3.4h5c0.1,0.9,0.6,1.5,1.3,2
		c0.8,0.5,1.9,0.7,3.3,0.7c1.3,0,2.4-0.2,3.1-0.5c0.7-0.4,1.1-0.9,1.1-1.6c0-0.6-0.3-1.1-0.9-1.4s-1.6-0.4-3-0.4h-3.3v-3.3h3.2
		c0.8,0,1.5-0.1,2-0.2c0.5-0.2,0.9-0.4,1.2-0.7s0.4-0.6,0.4-1c0-0.4-0.1-0.8-0.4-1.1s-0.7-0.5-1.3-0.7c-0.6-0.2-1.2-0.2-2-0.2
		c-1.3,0-2.3,0.2-3,0.7c-0.7,0.4-1.2,1.1-1.3,1.9h-4.9c0.1-1.2,0.5-2.3,1.3-3.2s1.8-1.7,3.2-2.3c1.4-0.6,3.1-0.9,5.1-0.9
		c1.7,0,3.2,0.2,4.5,0.6c1.3,0.4,2.3,1,3,1.8c0.7,0.8,1.1,1.6,1.1,2.7c0,0.8-0.2,1.6-0.7,2.2c-0.5,0.7-1.3,1.2-2.3,1.6
		c-1,0.4-2.4,0.6-4.1,0.6v-0.5c1.6-0.1,2.9,0,4,0.3c1.1,0.3,2,0.8,2.6,1.4c0.6,0.6,0.9,1.5,0.9,2.5c0,1.1-0.4,2.1-1.1,2.9
		c-0.7,0.8-1.8,1.5-3.1,2C1358.2,139,1356.5,139.3,1354.5,139.3z"/>
	<path class="st1" d="M1379.5,132c-0.2,1.4-0.7,2.7-1.3,3.8s-1.5,1.9-2.5,2.5c-1,0.6-2.2,0.9-3.5,0.9c-1.3,0-2.5-0.3-3.5-0.9
		c-1-0.6-1.8-1.4-2.4-2.5c-0.6-1.1-0.9-2.4-0.9-3.8c0-1.5,0.3-2.7,0.9-3.8c0.6-1.1,1.4-1.9,2.4-2.5c1-0.6,2.2-0.9,3.5-0.9
		c1.3,0,2.5,0.3,3.5,0.9s1.9,1.4,2.5,2.5S1379.3,130.5,1379.5,132z M1370.3,132c0,0.7,0.1,1.3,0.4,1.8s0.7,0.9,1.2,1.2
		s1.1,0.4,1.7,0.4c0.7,0,1.3-0.1,1.9-0.4c0.6-0.3,1.1-0.7,1.6-1.2s0.8-1.1,1-1.8c-0.2-0.7-0.6-1.3-1-1.8s-1-0.9-1.6-1.2
		c-0.6-0.3-1.2-0.5-1.9-0.5c-0.6,0-1.2,0.2-1.7,0.5c-0.5,0.3-0.9,0.7-1.2,1.2S1370.3,131.3,1370.3,132z M1378.3,138.9l-0.6-4.9
		l0.6-1.9l-0.6-1.9l0.6-5h5.1l-0.9,6.8l0.9,6.9H1378.3z"/>
	<path class="st1" d="M1388.1,125.2h14.9v13.7h-4.9v-12.3l2.3,2.3h-9.8l2.1-1.9c0.1,0.9,0.2,1.8,0.2,2.6c0,0.8,0.1,1.5,0.1,2.1
		c0,2.7-0.4,4.6-1.2,5.8c-0.8,1.2-2.2,1.8-4,1.8c-0.5,0-1.1-0.1-1.5-0.2c-0.5-0.1-1-0.3-1.4-0.6V135c0.3,0.1,0.6,0.2,0.9,0.3
		c0.3,0.1,0.5,0.1,0.8,0.1c0.8,0,1.3-0.3,1.7-1c0.3-0.7,0.5-1.8,0.5-3.4c0-0.8,0-1.6-0.1-2.6S1388.2,126.3,1388.1,125.2z"/>
</g>
<g class="st15">
	<path class="st1" d="M1310.7,154.5h5l-4,6.3v-1.1l4,6.3h-5l-3.5-5.7L1310.7,154.5z M1317.8,154.5h5l-4,6.3v-1.1l4,6.3h-5l-3.5-5.7
		L1317.8,154.5z"/>
	<path class="st1" d="M1345.4,160.1c-0.2,1.6-0.7,3-1.6,4.2c-0.9,1.2-2.1,2.1-3.6,2.8c-1.5,0.7-3.2,1-5.1,1c-2.1,0-3.9-0.4-5.5-1.2
		s-2.8-1.9-3.7-3.3c-0.9-1.4-1.3-3-1.3-4.9s0.4-3.5,1.3-4.9s2.1-2.5,3.7-3.3s3.4-1.2,5.5-1.2c1.9,0,3.6,0.3,5.1,1
		c1.5,0.7,2.7,1.6,3.6,2.8c0.9,1.2,1.5,2.6,1.6,4.2h-5c-0.2-0.8-0.5-1.4-0.9-2c-0.5-0.5-1.1-0.9-1.8-1.2s-1.6-0.4-2.6-0.4
		c-1.1,0-2.1,0.2-2.9,0.6c-0.8,0.4-1.4,1-1.9,1.8c-0.4,0.8-0.6,1.7-0.6,2.7s0.2,2,0.6,2.7c0.4,0.8,1.1,1.3,1.9,1.8
		c0.8,0.4,1.8,0.6,2.9,0.6c1,0,1.8-0.1,2.6-0.4c0.7-0.3,1.3-0.7,1.8-1.2c0.5-0.5,0.8-1.2,0.9-2H1345.4z"/>
	<path class="st1" d="M1347.4,167.7V154h4.8v11l-1.1-0.3l7.2-10.7h6.3v13.7h-4.8v-11.4l1.1,0.4l-7.4,11H1347.4z"/>
	<path class="st1" d="M1367.4,154h4.9v13.7h-4.9V154z M1370.2,158.8h10.4v3.6h-10.4V158.8z M1378.8,154h4.9v13.7h-4.9V154z"/>
	<path class="st1" d="M1386.3,167.7V154h4.8v11l-1.1-0.3l7.2-10.7h6.3v13.7h-4.8v-11.4l1.1,0.4l-7.4,11H1386.3z"/>
	<path class="st1" d="M1406.3,167.7V154h4.8v11l-1.1-0.3l7.2-10.7h6.3v13.7h-4.8v-11.4l1.1,0.4l-7.4,11H1406.3z M1414.8,152.8
		c-1.7,0-3-0.4-4-1.2c-1-0.8-1.6-2-1.9-3.5h3.7c0.1,0.6,0.4,1.1,0.7,1.4s0.8,0.5,1.4,0.5s1-0.2,1.4-0.5s0.6-0.8,0.7-1.4h3.8
		c-0.2,1.5-0.9,2.7-1.9,3.5C1417.8,152.4,1416.5,152.8,1414.8,152.8z"/>
	<path class="st1" d="M1430.9,154.5l3.6,5.8l-3.6,5.7h-5l4-6.3v1.1l-4-6.3H1430.9z M1438,154.5l3.5,5.8l-3.5,5.7h-5l4-6.3v1.1
		l-4-6.3H1438z"/>
</g>
<g>
	<polyline class="st16" points="1502.6,839 1498.6,830.9 1488.4,841.3 	"/>
	<line class="st17" x1="1488.4" y1="841.3" x2="1502.6" y2="839"/>
	<polygon class="st18" points="1498.6,830.9 1502.6,839 1494.9,834.6 	"/>
	<polygon class="st18" points="1494.9,834.6 1502.6,839 1488.4,841.3 	"/>
</g>
<g>
	<g>
		<circle class="st2" cx="1532.4" cy="853.2" r="19.5"/>
	</g>
</g>
<g>
	<path class="st1" d="M1536.4,842.4l8.4,18.5h-5.4l-7-16.3h1.5l-7.1,16.3h-5.4l8.4-18.5H1536.4z M1526.2,857.1v-4.3h13.4v4.3H1526.2
		z"/>
</g>
</svg>
