<?xml version="1.0" encoding="utf-8"?>
<!-- Generator: Adobe Illustrator 26.0.3, SVG Export Plug-In . SVG Version: 6.00 Build 0)  -->
<svg version="1.1" id="Слой_1" xmlns="http://www.w3.org/2000/svg" xmlns:xlink="http://www.w3.org/1999/xlink" x="0px" y="0px"
	 viewBox="0 0 1920 1080" style="enable-background:new 0 0 1920 1080;" xml:space="preserve">
<style type="text/css">
	.st0{fill:#66B9FF;}
	.st1{fill:#FFFFFF;}
	.st2{fill:none;stroke:#0085CC;stroke-width:4.5296;stroke-linecap:round;stroke-linejoin:round;stroke-miterlimit:10;}
	.st3{fill:none;stroke:#0085CC;stroke-width:1.5099;stroke-linecap:round;stroke-linejoin:round;stroke-miterlimit:10;}
	.st4{fill:none;stroke:#0085CC;stroke-width:6.92;stroke-linecap:round;stroke-linejoin:round;stroke-miterlimit:10;}
	.st5{fill:none;stroke:#0085CC;stroke-width:4.3892;stroke-linecap:round;stroke-linejoin:round;stroke-miterlimit:10;}
	.st6{fill:none;stroke:#0085CC;stroke-width:7.046;stroke-linecap:round;stroke-linejoin:round;stroke-miterlimit:10;}
	.st7{fill:#0085CC;stroke:#0085CC;stroke-width:1.5099;stroke-linecap:round;stroke-linejoin:round;stroke-miterlimit:10;}
	.st8{fill:#0085CC;stroke:#0085CC;stroke-width:1.4108;stroke-linecap:round;stroke-linejoin:round;stroke-miterlimit:10;}
	.st9{fill:#FB493B;stroke:#FB493B;stroke-width:2.3043;stroke-linecap:round;stroke-linejoin:round;stroke-miterlimit:10;}
	.st10{fill:#FB493B;stroke:#FB493B;stroke-width:2.5717;stroke-linecap:round;stroke-linejoin:round;stroke-miterlimit:10;}
	.st11{fill:#FB493B;stroke:#FB493B;stroke-width:2.5453;stroke-linecap:round;stroke-linejoin:round;stroke-miterlimit:10;}
	.st12{fill:none;stroke:#FB493B;stroke-width:2.5453;stroke-linecap:round;stroke-linejoin:round;stroke-miterlimit:10;}
	
		.st13{fill-rule:evenodd;clip-rule:evenodd;fill:#FB493B;stroke:#FB493B;stroke-width:2.5453;stroke-linecap:round;stroke-linejoin:round;stroke-miterlimit:10;}
	.st14{fill:#1D0EB1;}
	.st15{fill:none;stroke:#1D0EB1;stroke-width:1.3246;stroke-linecap:round;stroke-linejoin:round;}
	.st16{fill:none;}
	.st17{enable-background:new    ;}
	.st18{fill:#FB493B;stroke:#FB493B;stroke-width:2.4028;stroke-linecap:round;stroke-linejoin:round;stroke-miterlimit:10;}
	.st19{fill:none;stroke:#FB493B;stroke-width:2.4028;stroke-linecap:round;stroke-linejoin:round;stroke-miterlimit:10;}
	
		.st20{fill-rule:evenodd;clip-rule:evenodd;fill:#FB493B;stroke:#FB493B;stroke-width:2.4028;stroke-linecap:round;stroke-linejoin:round;stroke-miterlimit:10;}
</style>
<g>
	<g>
		<path class="st0" d="M1507.9,854.4l4-4.9l-39.3-10.8l-39.5-10.4l-39.6-10.1l-39.9-9.9l-40.1-9.6l-39.8-9.1v-0.3l53.7-119.1l0,0
			c101.5,15.8,211.8-3.8,280.2-52.1c78.9-55.8,81.5-135.6,6.3-193.1v-0.1c-14.6-10.7-30-20.3-45.6-29.4l-169.5-97.9
			c-5.5,3.2-11,6.4-16.5,9.5l-40.2,23.3c-6.1,1.5-160.8,94.2-160.9,99.3c-66.6,55.1-51.2,105.5-45.3,123l-391.5,86.6l-79.2-46.1
			l291.1-168L929.9,404l36.1-25.7L717.8,233.9L251.3,500.7l271.5,156.9l48.2-27.7l75.2,43.3l-5,17.1l-67.8-5.5l-20.6,79.1l34.2,2.6
			l34.2,3l34,3l34,3.5l33.8,3.7l33.7,4l33.7,4.3l33.7,4.4l33.5,4.7L891,802l33.2,5.2l33.1,5.5l21.7-45.5l40.1,7.8l34.6,6.6l38.4,7.2
			l-0.2,0.5c-1,4.9,4,9.5,12,11.1l0,0c7.9,1.6,16.7-0.6,20.4-4.9l0.7-0.8l5.2,1l15.6,3.1l-2.7,22.5l-14.1,23.3l33.2,6.6l32.9,6.7
			l32.9,7.2l32.8,7.3l32.5,7.6l32.3,7.9l32.2,8.1l32,8.4l31.7,8.5l31.6,8.8l43-52.9L1507.9,854.4z"/>
		<path class="st1" d="M1508.1,832.7l4-4.9l-39.3-10.8l-39.5-10.4l-39.6-10.1l-39.9-9.9l-40.1-9.6l-39.8-9.1v-0.3l53.7-119.1l0,0
			c101.5,15.8,211.8-3.8,280.2-52.1c78.9-55.8,81.5-135.6,6.3-193.1v-0.1c-14.6-10.7-30-20.3-45.6-29.4L1399,275.9
			c-5.5,3.2-11,6.4-16.5,9.5l-40.2,23.3c-6.1,1.5-160.8,94.2-160.9,99.3c-66.6,55.1-51.2,105.5-45.3,123L740,618.2l-53.8-31.1
			l293.7-168.8l-29.2-18l46.1-26.1l-278.9-162L251.4,479L523,635.9l48.2-27.7l75.2,43.3l-5,17.1l-67.8-5.5L553,742.2l34.2,2.6
			l34.2,3l34,3l34,3.5L723,758l33.7,4l33.7,4.3l33.7,4.4l33.5,4.7l33.4,4.9l33.2,5.2l33.1,5.5l11.9-24.3l40.1,7.8l34.6,6.6l38.4,7.2
			l-0.2,0.5c-1,4.9,4,9.5,12,11.1l0,0c7.9,1.6,16.7-0.6,20.4-4.9l0.7-0.8l5.2,1l15.6,3.1l7,1.4l-14,23.3l33.2,6.6l32.9,6.7l32.9,7.2
			l32.8,7.3l32.5,7.6l32.3,7.9l32.2,8.1l32,8.4l31.7,8.5l31.6,8.8l43-52.9L1508.1,832.7z"/>
		<polygon class="st0" points="479.6,516.9 574.9,462.1 642.9,502 547.8,555.8 		"/>
		<g>
			<polyline class="st2" points="1273.6,768.6 1241.6,761.9 1210,755.3 			"/>
			<path class="st2" d="M1151.6,761.2c-8.9,3.3-19.1,5-29.7,5.4l0,0c-8.7,0.3-17.5-0.6-25.6-2.5l-0.3-0.1l-0.1,0.2l-13.5,25.1"/>
			<line class="st3" x1="1113" y1="795.7" x2="1130.3" y2="766"/>
			<polyline class="st2" points="1123.3,781 1151.1,786.6 1151.3,786.9 1143,800.6 			"/>
			<line class="st2" x1="1418" y1="833.7" x2="1491.4" y2="853.8"/>
			<polyline class="st3" points="1384.7,850 1397.8,878.5 1393.1,884.8 			"/>
			<path class="st3" d="M1418.6,833.7c-0.6,0.6-1,1.2-1.6,1.7s-1.1,1-1.7,1.5c-1.3,1.1-2.7,2.2-4.1,3.2c-1.3,0.9-2.7,1.6-4,2.3
				c-1.5,0.9-3,1.6-4.5,2.3c-6.1,2.6-12.5,4.4-19,5.3c-3.2,0.5-6.4,1-9.7,1.1c-3.3,0.1-6.5,0.1-9.8-0.3c-1.7-0.2-3.5-0.3-5.2-0.6
				c-1.6-0.3-3.2-0.8-4.8-1.2c-3.1-0.9-6.2-1.9-9-3.4c-1.5-0.8-3-1.7-4.3-2.8c-0.6-0.4-1-1-1.5-1.6s-1-1.2-1.4-1.9
				c-0.7-1.5-1-3.1-1-4.7c0-1.7,0.7-3.2,1.6-4.6c0.4-0.6,0.8-1.2,1.3-1.8c-0.9-0.3-1.7-0.5-2.6-0.8"/>
			<line class="st2" x1="1339.1" y1="827" x2="1292.3" y2="815.9"/>
			<line class="st2" x1="1274" y1="811.8" x2="1250.2" y2="806.4"/>
			<line class="st2" x1="1231.9" y1="802.3" x2="1220.7" y2="799.9"/>
			<polyline class="st3" points="1219.8,799.6 1185.9,792.5 1151.8,785.8 			"/>
			<line class="st2" x1="1304.5" y1="819.2" x2="1278.8" y2="856"/>
			<line class="st2" x1="1220.7" y1="799.9" x2="1196.1" y2="837.4"/>
			<line class="st2" x1="1262.3" y1="809.2" x2="1237.7" y2="846.5"/>
			<polyline class="st4" points="1136,799.3 1143,800.6 1128.9,824 1162.1,830.5 1195.1,837.2 1228,844.4 1260.8,851.7 
				1293.2,859.3 1325.6,867.3 1357.7,875.3 1389.8,883.7 1421.5,892.3 1453,901.1 1496,848.2 			"/>
			<path class="st4" d="M1120.3,796.1l-5.2-1l-0.7,0.8c-3.7,4.3-12.5,6.5-20.4,4.9l0,0c-8-1.6-13-6.2-12-11.1v-0.5l-38.3-7.2"/>
			<path class="st2" d="M1176.8,409.3c-3.9,3.3-7.7,6.8-11.4,10.4c-8.8,8.5-16.8,18.4-23.1,29c-6.7,11.3-11.5,23.2-13.9,36.1
				c-2.3,12.1-1.6,25.1,1.5,37c0.8,3.2,1.9,6.3,2.9,9.4"/>
			<polyline class="st2" points="497.8,541.3 547.1,569.6 712.8,473.9 			"/>
			<polyline class="st2" points="483.8,533.4 402.5,486.4 529.8,412.9 			"/>
			<line class="st2" x1="421.7" y1="471.9" x2="424.6" y2="473.6"/>
			<line class="st2" x1="568.4" y1="390.5" x2="543.6" y2="404.8"/>
			<path class="st2" d="M1316.5,582.4c59.6,19.6,133.7,16.9,188.4-7"/>
			<path class="st2" d="M1504.9,575.5c30.6-13.3,52.6-32.2,62.3-53.6"/>
			<polyline class="st2" points="1567.2,522.1 1598.6,493.3 1668.3,492 			"/>
			<path class="st2" d="M1231.6,509.1c3.8,17.1,15.2,33.3,33.2,47"/>
			<path class="st2" d="M1264.9,556.2c9.1,7,19.8,13.2,31.8,18.6"/>
			<polyline class="st2" points="1548.2,363.5 1506.4,400.2 1442.7,400.6 1440.7,400.4 			"/>
			<path class="st2" d="M1440.6,400.3c-49.6-6.7-101.7-0.3-142.3,17.4"/>
			<path class="st2" d="M1298.3,417.7c-42,18.3-67.1,46.7-68,77"/>
			<polyline class="st3" points="1132.8,531.2 741.3,617.8 687.5,586.7 909.2,458.6 910.5,457.9 978.5,418.7 946.8,400.2 			"/>
			<path class="st2" d="M1159.1,572.4c6.8,7.3,14.5,14.3,23.2,20.9"/>
			<path class="st2" d="M1182.3,593.3c8.6,6.6,18.1,12.8,28.4,18.6"/>
			<path class="st3" d="M1161.2,572.8l-1.5-1.8l-37.4,13.3l0,0c7.3,7.9,15.3,15.4,24.7,22.6"/>
			<path class="st3" d="M1147.2,606.9c10.4,7.9,21.9,15.3,34.6,22l29-15.6"/>
			<polygon class="st3" points="754.4,636.7 677.6,592.4 655,605.3 732,649.8 			"/>
			<path class="st5" d="M965,740.4c5.1,1.4,10.5,2.3,16,2.8"/>
			<polyline class="st2" points="617.2,748.3 627,716.3 633.8,716.9 			"/>
			<line class="st2" x1="728.7" y1="727.7" x2="643.9" y2="718.1"/>
			<line class="st3" x1="751.8" y1="762.7" x2="774.4" y2="701.4"/>
			<path class="st3" d="M738.4,697.1c5,0.3,9.9,0.9,14.8,1.5c5.1,0.6,10.1,1.3,15.1,1.9c4.7,0.5,9.3,1.3,13.9,1.9
				c4.9,0.6,9.8,1.3,14.7,1.9c5.4,0.7,10.7,1.4,16.1,2.1c5.1,0.7,10.2,1.4,15.3,2.1c4.4,0.6,8.8,1.2,13.2,1.9
				c5.3,0.8,10.6,1.6,15.9,2.3c4.9,0.7,9.7,1.3,14.6,2c2.5,0.3,4.9,0.7,7.4,1c1.2,0.1,2.4,0.4,3.5,0.6c1.1,0.2,2.2,0.2,3.2,0.4
				c1.3,0.2,2.5,0.4,3.7,0.6"/>
			<line class="st2" x1="863.7" y1="777.3" x2="890.3" y2="716.9"/>
			<line class="st3" x1="628.6" y1="716.2" x2="643.4" y2="666.9"/>
			<line class="st2" x1="728.7" y1="727.7" x2="738.9" y2="697.9"/>
			<polyline class="st3" points="767.7,682.6 883.3,698 891.8,677.6 774.4,661.9 769.9,675.7 			"/>
			<line class="st2" x1="846.2" y1="458.3" x2="748.6" y2="514.8"/>
			<line class="st2" x1="734.8" y1="522.8" x2="655.8" y2="568.4"/>
			<line class="st2" x1="718.3" y1="532.3" x2="697.9" y2="520.5"/>
			<line class="st2" x1="683.8" y1="512.5" x2="664.9" y2="501.5"/>
			<line class="st2" x1="614.3" y1="584.1" x2="598.4" y2="575"/>
			<line class="st2" x1="584.6" y1="566.9" x2="568.3" y2="557.4"/>
			<line class="st3" x1="1534" y1="633.7" x2="1494.3" y2="593.6"/>
			<polyline class="st2" points="1408.7,654.9 1405.8,609 1405.8,608.5 			"/>
			<polyline class="st2" points="1659.2,539.3 1584.6,526.7 1659.2,539.3 			"/>
			<polyline class="st3" points="1587,526.2 1566.9,522.8 1660.2,538.4 			"/>
			<path class="st2" d="M1580.8,533.2c1.3-2.1,2.5-4.3,3.6-6.5"/>
			<path class="st3" d="M1534.6,575.6c12.2-7,22.7-15,31.3-23.6"/>
			<path class="st3" d="M1405.7,608.4c48.6-1.2,94.6-12.9,129-32.8"/>
			<path class="st2" d="M1377,607.7c9.6,0.6,19.3,0.8,29,0.6"/>
			<line class="st2" x1="1158" y1="485.8" x2="1128.3" y2="485.8"/>
			<line class="st2" x1="1636.9" y1="571.3" x2="1566.5" y2="551.5"/>
			<polyline class="st2" points="1567.1,551.6 1567.2,551.5 1567.5,551 1568.1,550.4 1568.7,549.7 1570.3,547.8 1571.6,545.9 			"/>
			<line class="st2" x1="714.9" y1="212.4" x2="993.5" y2="373.4"/>
			<line class="st2" x1="390.2" y1="560.3" x2="448.9" y2="526.5"/>
			<line class="st2" x1="344" y1="427.1" x2="412.1" y2="466.4"/>
			<line class="st3" x1="402.1" y1="500" x2="448.4" y2="526.6"/>
			<polyline class="st3" points="433.8,374.5 500.7,413.1 367.5,489.9 			"/>
			<line class="st3" x1="301.3" y1="451.8" x2="393.4" y2="504.8"/>
			<line class="st3" x1="389.7" y1="400.7" x2="455.9" y2="438.8"/>
			<line class="st3" x1="402.1" y1="500" x2="343.8" y2="533.5"/>
			<line class="st2" x1="993.5" y1="373.4" x2="868.9" y2="445.2"/>
			<path class="st2" d="M956.1,737.3c7.4,2.9,15.9,4.9,24.7,5.8"/>
			<path class="st2" d="M934.4,722.7c4.8,5.9,12.3,11,21.6,14.7"/>
			<polyline class="st2" points="923.1,741 944.9,744.4 924.7,785.8 			"/>
			<polyline class="st2" points="882.3,735.1 883.7,735.2 885.7,735.5 888.1,735.8 890.7,736.1 893.8,736.6 897,737 900.5,737.7 
				904.1,738.1 			"/>
			<line class="st2" x1="944.9" y1="744.4" x2="957.1" y2="737.7"/>
			<line class="st2" x1="679.9" y1="753.4" x2="690.1" y2="723.6"/>
			<line class="st2" x1="514.4" y1="359.4" x2="487.1" y2="343.5"/>
			<line class="st2" x1="766.2" y1="504.7" x2="536.7" y2="372.2"/>
			<line class="st2" x1="969" y1="767.8" x2="981.1" y2="743.1"/>
			<path class="st6" d="M1507.9,833.7l4-4.9l-39.3-10.8l-39.5-10.4l-39.6-10.1l-39.9-9.9l-40.1-9.6l-39.8-9.1v-0.3l53.7-119.1l0,0
				c101.5,15.8,211.8-3.8,280.2-52.1c78.9-55.8,81.5-135.6,6.3-193.1v-0.1c-14.6-10.7-30-20.3-45.6-29.4l-169.5-97.9
				c-5.5,3.2-11,6.4-16.5,9.5c-13.4,7.8-26.8,15.5-40.2,23.3c-16.7,9.7-33.4,19.3-50.1,29c-15.4,8.9-30.8,17.8-46.3,26.8
				c-9.5,5.5-19.1,11-28.6,16.5c-7.4,4.3-14.8,8.6-21.8,13.4c-6.3,4.3-13.4,8.4-19.3,13.4l-89.5-51.8l18.9-10.8l-32.3-18.6
				l149.4-86.3l-278.9-161L251.3,480l271.5,156.9l48.2-27.7l75.2,43.3l-5,17.1l-67.8-5.5l-20.6,79.1l34.2,2.6l34.2,3l34,3l34,3.5
				L723,759l33.7,4l33.7,4.3l33.7,4.4l33.5,4.7l33.4,4.9l33.2,5.2l33.1,5.5l11.9-24.3l40.1,7.8"/>
			<line class="st2" x1="739.2" y1="696.9" x2="661.9" y2="688.3"/>
			<line class="st3" x1="1611.7" y1="594.3" x2="1549.4" y2="566.9"/>
			<line class="st2" x1="648.6" y1="564.3" x2="600.3" y2="592.2"/>
			<line class="st2" x1="586.1" y1="600.4" x2="571" y2="609.1"/>
			<line class="st2" x1="648.6" y1="564.3" x2="655.8" y2="568.4"/>
			<line class="st2" x1="574.4" y1="449.2" x2="456.3" y2="517.5"/>
			<line class="st2" x1="667.5" y1="447.7" x2="619.6" y2="475.4"/>
			<line class="st2" x1="664.9" y1="501.5" x2="521.2" y2="418.5"/>
			<line class="st3" x1="1494.8" y1="644.5" x2="1467.4" y2="601"/>
			<path class="st2" d="M1345.2,603.9c-4.9-1.1-9.8-2.1-14.7-3.3c-5.2-1.2-10.6-1.8-15.7,0.1c-3.8,1.4-5.9,4.8-8.4,7.8
				c-4.9,6-9.8,12.1-14.7,18.1c-3.5,4.4-7.1,8.7-10.6,13.1l-0.1-0.1c15.1,4.2,30.6,7.4,46.3,9.9"/>
			<line class="st2" x1="655.2" y1="709.5" x2="652.1" y2="719.1"/>
			<line class="st2" x1="661.9" y1="688.3" x2="659" y2="697.7"/>
			<path class="st2" d="M1209.2,464.8c-2.8,6.5-5,13-6.4,19.6l-0.1,1.4h-22"/>
			<line class="st2" x1="1139.9" y1="453" x2="1215.3" y2="465.8"/>
			<line class="st2" x1="1230.3" y1="468.1" x2="1236.1" y2="468.9"/>
			<g>
				<polygon class="st7" points="960.9,703.8 970.1,705.3 965.3,715.1 956.1,713.6 				"/>
				<polygon class="st7" points="1027.1,714.4 1033.5,715.6 1028.3,725.4 1021.9,724.2 				"/>
				<polygon class="st7" points="1088.8,725.3 1095.3,726.4 1090.1,736.2 1083.6,735 				"/>
				<polygon class="st7" points="1149.9,736.1 1159,738 1153,747.6 1143.9,745.7 				"/>
			</g>
			<g>
				<polygon class="st8" points="829.1,684 825.3,693.7 891.3,702.6 895.7,692.9 				"/>
				<polygon class="st8" points="767.3,676.1 763.4,685.9 772.6,687.1 776.4,677.3 				"/>
				<polygon class="st8" points="709.3,656.6 702,678.2 713,679.4 720.4,657.9 				"/>
			</g>
			<line class="st3" x1="879.7" y1="439.8" x2="909.8" y2="457.9"/>
		</g>
		<g>
			<polygon class="st9" points="995,802.3 1034.6,808.9 1020,794.3 			"/>
		</g>
		<g>
			<polygon class="st10" points="614.3,600.4 598.4,600.4 598.4,609.5 			"/>
		</g>
		<g>
			<polyline class="st11" points="484.5,544.1 468.6,544.1 484.5,553.2 			"/>
			<line class="st12" x1="484.5" y1="553.2" x2="484.5" y2="544.1"/>
			<polygon class="st13" points="484.5,544.1 484.5,553.2 468.6,544.1 			"/>
			<path class="st13" d="M468.6,544.1l15.9,9.1L468.6,544.1z"/>
			<polygon class="st11" points="484.5,544.1 468.6,544.1 484.5,553.2 			"/>
		</g>
	</g>
	<g>
		<path class="st14" d="M976,833.7l0.8-6.4l-0.8-6.4h10.4c1.2,0,2.2,0.3,3,0.9c0.7,0.6,1.1,1.4,1.1,2.3c0,0.9-0.4,1.7-1.1,2.3
			c-0.7,0.6-1.8,0.9-3.1,1.1l0.3-0.7c1.5,0.1,2.7,0.4,3.5,1s1.2,1.4,1.2,2.4c0,1.1-0.4,2-1.2,2.6c-0.8,0.7-1.9,1-3.3,1L976,833.7
			L976,833.7z M980.4,832.7l-1.8-1.9h6.5c0.5,0,0.9-0.1,1.1-0.3c0.2-0.2,0.4-0.5,0.4-0.9s-0.1-0.7-0.4-0.9c-0.3-0.2-0.7-0.3-1.2-0.3
			h-5.5V826h5c0.5,0,0.8-0.1,1.1-0.3c0.2-0.2,0.4-0.5,0.4-0.8s-0.1-0.6-0.3-0.8s-0.5-0.3-1-0.3h-5.9l1.7-1.9l0.7,5.4L980.4,832.7z"
			/>
		<path class="st14" d="M991.4,833.7l5.9-7.2v1.3l-5.6-7h5.1l3.6,4.4h-1.3l3.6-4.4h5l-5.8,7l-0.2-1.8l6.4,7.6h-5.2L999,829h1.4
			l-3.9,4.7H991.4z"/>
		<path class="st14" d="M1016.5,834.1c-1.6,0-3.1-0.3-4.3-0.8c-1.2-0.6-2.2-1.4-2.9-2.4s-1-2.2-1-3.5c0-1.4,0.3-2.5,1-3.6
			c0.7-1,1.6-1.8,2.9-2.4c1.2-0.6,2.7-0.9,4.3-0.9s3.1,0.3,4.3,0.9c1.2,0.6,2.2,1.4,2.9,2.4s1,2.2,1,3.6c0,1.3-0.3,2.5-1,3.5
			c-0.7,1-1.6,1.8-2.9,2.4C1019.5,833.8,1018.1,834.1,1016.5,834.1z M1016.5,830.7c0.7,0,1.4-0.1,1.9-0.4c0.5-0.3,0.9-0.7,1.2-1.2
			s0.4-1.1,0.4-1.8s-0.1-1.3-0.4-1.8c-0.3-0.5-0.7-0.9-1.2-1.2s-1.2-0.4-1.9-0.4s-1.4,0.1-1.9,0.4c-0.5,0.3-1,0.7-1.2,1.2
			c-0.3,0.5-0.4,1.1-0.4,1.8s0.1,1.3,0.4,1.8c0.3,0.5,0.7,0.9,1.2,1.2C1015.1,830.5,1015.7,830.7,1016.5,830.7z"/>
		<path class="st14" d="M1044.6,830.3v6.5h-3.9v-3.1h-11.2v3.1h-3.9v-6.5h3.9l0.9,0.1h9.3l0.8-0.1H1044.6z M1028.2,820.9h14.1v11.9
			h-4.6v-10.7l2.1,2.1h-9.4l1.7-1.7c0.2,0.6,0.3,1.2,0.4,1.7c0,0.5,0.1,1,0.1,1.5c0,2.1-0.4,3.7-1.1,4.8s-1.7,1.7-3,1.7l-1.9-1.6
			c1.2-0.8,1.7-2.8,1.7-5.9c0-0.6,0-1.2-0.1-1.9C1028.3,822.3,1028.3,821.6,1028.2,820.9z"/>
	</g>
	<g>
		<g>
			<circle class="st14" cx="803.7" cy="641.5" r="19.9"/>
		</g>
		<path class="st1" d="M793.1,633.9v5.4c0,0.2,0.1,0.4,0.3,0.6l13.9,9.8c0.1,0.1,0.2,0.1,0.3,0.1h6c0.3,0,0.6-0.3,0.6-0.6v-4.9
			c0-0.3-0.3-0.6-0.6-0.6h-4.1v-2.8c0-0.3-0.3-0.6-0.6-0.6h-4.1v-2.8c0-0.3-0.3-0.6-0.6-0.6h-4.1v-2.8c0-0.3-0.3-0.6-0.6-0.6h-5.9
			C793.4,633.3,793.1,633.6,793.1,633.9z M799,634.6v2.8c0,0.3,0.3,0.6,0.6,0.6h4.1v2.8c0,0.3,0.3,0.6,0.6,0.6h4.1v2.8
			c0,0.3,0.3,0.6,0.6,0.6h4.1v3.7h-5.3l-13.5-9.6v-4.4L799,634.6z"/>
		<g>
			<path class="st14" d="M803.7,659.2c0,0,0.2,0.2,0.6,0.7c0.2,0.2,0.4,0.5,0.5,0.7c0.1,0.1,0.2,0.3,0.3,0.5c0.1,0.1,0.1,0.2,0,0.2
				c0,0.1,0,0.2,0,0.3c0,1.4,0,3.3,0,5.2s0,3.8,0,5.2c0,0.1,0,0.2,0,0.3s0,0.2,0,0.2c-0.1,0.2-0.2,0.3-0.3,0.5
				c-0.2,0.3-0.4,0.5-0.5,0.7c-0.3,0.4-0.5,0.7-0.5,0.7s-0.2-0.2-0.5-0.7c-0.2-0.2-0.4-0.5-0.5-0.7c-0.1-0.1-0.2-0.3-0.3-0.5
				c-0.1-0.1-0.1-0.2,0-0.2c0-0.1,0-0.2,0-0.3c0-1.4,0-3.3,0-5.2s0-3.8,0-5.2c0-0.1,0-0.2,0-0.3s0-0.2,0-0.2
				c0.1-0.2,0.2-0.3,0.3-0.5c0.2-0.3,0.4-0.5,0.5-0.7C803.4,659.5,803.7,659.2,803.7,659.2z"/>
		</g>
	</g>
	<g>
		<g>
			<circle class="st14" cx="639.6" cy="697.8" r="19.9"/>
		</g>
		<path class="st1" d="M649.5,689.5h-5.9c-0.3,0-0.6,0.3-0.6,0.6v2.8h-4.1c-0.3,0-0.6,0.3-0.6,0.6v2.8h-4.1c-0.3,0-0.6,0.3-0.6,0.6
			v2.8h-4.1c-0.3,0-0.6,0.3-0.6,0.6v4.9c0,0.3,0.3,0.6,0.6,0.6h6c0.1,0,0.2,0,0.3-0.1l13.9-9.8c0.2-0.1,0.3-0.3,0.3-0.6v-5.4
			C650.1,689.8,649.8,689.5,649.5,689.5z M648.9,690.8v4.4l-13.5,9.6h-5.3v-3.7h4.1c0.3,0,0.6-0.3,0.6-0.6v-2.8h4.1
			c0.3,0,0.6-0.3,0.6-0.6v-2.8h4.1c0.3,0,0.6-0.3,0.6-0.6v-2.8L648.9,690.8z"/>
		<g>
			<path class="st14" d="M639.6,715.5c0,0,0.2,0.2,0.6,0.7c0.2,0.2,0.4,0.5,0.5,0.7c0.1,0.1,0.2,0.3,0.3,0.5c0.1,0.1,0.1,0.2,0,0.2
				c0,0.1,0,0.2,0,0.3c0,1.4,0,3.3,0,5.2s0,3.8,0,5.2c0,0.1,0,0.2,0,0.3s0,0.2,0,0.2c-0.1,0.2-0.2,0.3-0.3,0.5
				c-0.2,0.3-0.4,0.5-0.5,0.7c-0.3,0.4-0.5,0.7-0.5,0.7s-0.2-0.2-0.5-0.7c-0.2-0.2-0.4-0.5-0.5-0.7c-0.1-0.1-0.2-0.3-0.3-0.5
				c-0.1-0.1-0.1-0.2,0-0.2c0-0.1,0-0.2,0-0.3c0-1.4,0-3.3,0-5.2s0-3.8,0-5.2c0-0.1,0-0.2,0-0.3s0-0.2,0-0.2
				c0.1-0.2,0.2-0.3,0.3-0.5c0.2-0.3,0.4-0.5,0.5-0.7C639.4,715.7,639.6,715.5,639.6,715.5z"/>
		</g>
	</g>
	<g>
		<g>
			<circle class="st14" cx="1169.8" cy="565.9" r="19.9"/>
		</g>
		<path class="st1" d="M1179.7,557.6h-5.9c-0.3,0-0.6,0.3-0.6,0.6v2.8h-4.1c-0.3,0-0.6,0.3-0.6,0.6v2.8h-4.1c-0.3,0-0.6,0.3-0.6,0.6
			v2.8h-4.1c-0.3,0-0.6,0.3-0.6,0.6v4.9c0,0.3,0.3,0.6,0.6,0.6h6c0.1,0,0.2,0,0.3-0.1l13.9-9.8c0.2-0.1,0.3-0.3,0.3-0.6V558
			C1180.3,557.9,1180,557.6,1179.7,557.6z M1179.1,558.9v4.4l-13.5,9.6h-5.3v-3.7h4.1c0.3,0,0.6-0.3,0.6-0.6v-2.8h4.1
			c0.3,0,0.6-0.3,0.6-0.6v-2.8h4.1c0.3,0,0.6-0.3,0.6-0.6V559L1179.1,558.9z"/>
		<g>
			<path class="st14" d="M1169.8,583.6c0,0,0.2,0.2,0.6,0.7c0.2,0.2,0.4,0.5,0.5,0.7c0.1,0.1,0.2,0.3,0.3,0.5c0.1,0.1,0,0.2,0,0.2
				c0,0.1,0,0.2,0,0.3c0,1.4,0,3.3,0,5.2s0,3.8,0,5.2c0,0.1,0,0.2,0,0.3s0,0.2,0,0.2c-0.1,0.2-0.2,0.3-0.3,0.5
				c-0.2,0.3-0.4,0.5-0.5,0.7c-0.3,0.4-0.5,0.7-0.5,0.7s-0.2-0.2-0.5-0.7c-0.2-0.2-0.4-0.5-0.5-0.7c-0.1-0.1-0.2-0.3-0.3-0.5
				c-0.1-0.1-0.1-0.2,0-0.2c0-0.1,0-0.2,0-0.3c0-1.4,0-3.3,0-5.2s0-3.8,0-5.2c0-0.1,0-0.2,0-0.3s0-0.2,0-0.2
				c0.1-0.2,0.2-0.3,0.3-0.5c0.2-0.3,0.4-0.5,0.5-0.7C1169.6,583.8,1169.8,583.6,1169.8,583.6z"/>
		</g>
	</g>
	<g>
		<g>
			<circle class="st14" cx="1609.9" cy="521" r="19.9"/>
		</g>
		<path class="st1" d="M1619.9,512.8h-5.9c-0.3,0-0.6,0.3-0.6,0.6v2.8h-4.1c-0.3,0-0.6,0.3-0.6,0.6v2.8h-4.1c-0.3,0-0.6,0.3-0.6,0.6
			v2.8h-4.1c-0.3,0-0.6,0.3-0.6,0.6v4.9c0,0.3,0.3,0.6,0.6,0.6h6c0.1,0,0.2,0,0.3-0.1l13.9-9.8c0.2-0.1,0.3-0.3,0.3-0.6v-5.4
			C1620.5,513.1,1620.2,512.8,1619.9,512.8z M1619.3,514.1v4.4l-13.5,9.6h-5.3v-3.7h4.1c0.3,0,0.6-0.3,0.6-0.6V521h4.1
			c0.3,0,0.6-0.3,0.6-0.6v-2.8h4.1c0.3,0,0.6-0.3,0.6-0.6v-2.8L1619.3,514.1z"/>
		<g>
			<path class="st14" d="M1609.9,538.7c0,0,0.2,0.2,0.6,0.7c0.2,0.2,0.4,0.5,0.5,0.7c0.1,0.1,0.2,0.3,0.3,0.5c0.1,0.1,0,0.2,0,0.2
				c0,0.1,0,0.2,0,0.3c0,1.4,0,3.3,0,5.2s0,3.8,0,5.2c0,0.1,0,0.2,0,0.3s0,0.2,0,0.2c-0.1,0.2-0.2,0.3-0.3,0.5
				c-0.2,0.3-0.4,0.5-0.5,0.7c-0.3,0.4-0.5,0.7-0.5,0.7s-0.2-0.2-0.5-0.7c-0.2-0.2-0.4-0.5-0.5-0.7c-0.1-0.1-0.2-0.3-0.3-0.5
				c-0.1-0.1-0.1-0.2,0-0.2c0-0.1,0-0.2,0-0.3c0-1.4,0-3.3,0-5.2s0-3.8,0-5.2c0-0.1,0-0.2,0-0.3s0-0.2,0-0.2
				c0.1-0.2,0.2-0.3,0.3-0.5c0.2-0.3,0.4-0.5,0.5-0.7C1609.7,539,1609.9,538.7,1609.9,538.7z"/>
		</g>
	</g>
	<g>
		<g>
			<circle class="st14" cx="704.7" cy="588.4" r="19.9"/>
		</g>
		<g>
			<path class="st14" d="M704.7,606.1c0,0,0.2,0.2,0.5,0.7c0.1,0.2,0.3,0.5,0.5,0.7c0.1,0.1,0.2,0.3,0.3,0.5s0,0.3,0,0.5
				c0,1.4,0,3.3,0,5.2s0,3.8,0,5.2c0,0.1,0,0.2,0,0.3s0,0.2,0,0.2c-0.1,0.2-0.2,0.3-0.3,0.5c-0.2,0.3-0.3,0.5-0.5,0.7
				c-0.3,0.4-0.5,0.7-0.5,0.7s-0.2-0.2-0.5-0.7c-0.1-0.2-0.3-0.5-0.5-0.7c-0.1-0.1-0.2-0.3-0.3-0.5c-0.1-0.1-0.1-0.2,0-0.2
				c0-0.1,0-0.2,0-0.3c0-1.4,0-3.3,0-5.2s0-3.8,0-5.2c0-0.2-0.1-0.3,0-0.5s0.2-0.3,0.3-0.5c0.2-0.3,0.3-0.5,0.5-0.7
				C704.5,606.3,704.7,606.1,704.7,606.1z"/>
		</g>
		<g>
			<path class="st1" d="M692.5,586.2c0.1,0.5,0.4,1.7,1.6,2.4c0.3,0.2,0.6,0.3,0.9,0.3c0.1,0,0.2,0,0.3,0h3.3c0.1,0,0.1,0,0.2,0.1
				l10.4,7.8c0.3,0.2,0.6,0.3,0.9,0.3h6c0.2,0,0.4,0,0.5-0.1c0.5-0.2,1.4-0.7,2-1.8c0.2-0.4,0.7-1.6,0-3c-0.6-1.3-1.7-1.8-2.2-1.9
				c-0.1,0-0.3-0.1-0.4-0.1h-3.6c-0.1,0-0.1,0-0.2-0.1l-1.3-1v-3.5c0-0.2-0.1-1-0.7-1.5c-0.1-0.1-0.8-0.7-1.8-0.4
				c-0.6,0.2-1.1,0.6-1.4,1.3c-0.1,0.1-0.1,0.3-0.1,0.4v0.1v0.6l-5-3.8c-0.3-0.2-0.6-0.3-0.9-0.3h-5.3c-0.2,0-0.3,0-0.4,0.1
				c-0.4,0.1-1.1,0.4-1.6,1C693.2,583.3,692.2,584.5,692.5,586.2z M694.2,583.9c0.4-0.4,0.8-0.6,1.1-0.7h0.1h5.3
				c0.1,0,0.1,0,0.2,0.1l10.5,7.8c0.3,0.2,0.6,0.3,0.9,0.3h3.6h0.1c0.3,0.1,1.1,0.4,1.5,1.3c0.4,1,0.1,1.9,0,2
				c-0.4,0.8-1,1.1-1.3,1.2h-0.1h-6c-0.1,0-0.1,0-0.2-0.1l-10.4-7.8c-0.3-0.2-0.6-0.3-0.9-0.3h-3.3l0,0c-0.2,0-0.4-0.1-0.5-0.2
				c-0.7-0.4-0.9-1.2-1-1.6C693.4,584.8,694.2,583.9,694.2,583.9z"/>
			<path class="st1" d="M708.7,583.6c-1.1,0-1.9-0.9-1.9-1.9c0-1.1,0.9-1.9,1.9-1.9c1.1,0,1.9,0.9,1.9,1.9
				C710.6,582.7,709.8,583.6,708.7,583.6z"/>
		</g>
	</g>
	<g>
		<g>
			<circle class="st14" cx="925.4" cy="395.6" r="19.9"/>
		</g>
		<g>
			<path class="st14" d="M925.4,413.3c0,0,0.2,0.2,0.5,0.7c0.1,0.2,0.3,0.5,0.5,0.7c0.1,0.1,0.2,0.3,0.3,0.5s0,0.3,0,0.5
				c0,1.4,0,3.3,0,5.2c0,1.9,0,3.8,0,5.2c0,0.1,0,0.2,0,0.3c0,0.1,0,0.2,0,0.2c-0.1,0.2-0.2,0.3-0.3,0.5c-0.2,0.3-0.3,0.5-0.5,0.7
				c-0.3,0.4-0.5,0.7-0.5,0.7s-0.2-0.2-0.5-0.7c-0.1-0.2-0.3-0.5-0.5-0.7c-0.1-0.1-0.2-0.3-0.3-0.5c-0.1-0.1-0.1-0.2,0-0.2
				c0-0.1,0-0.2,0-0.3c0-1.4,0-3.3,0-5.2c0-1.9,0-3.8,0-5.2c0-0.2-0.1-0.3,0-0.5s0.2-0.3,0.3-0.5c0.2-0.3,0.3-0.5,0.5-0.7
				C925.2,413.5,925.4,413.3,925.4,413.3z"/>
		</g>
		<g>
			<path class="st1" d="M913.1,393.4c0.1,0.5,0.4,1.7,1.6,2.4c0.3,0.2,0.6,0.3,0.9,0.3c0.1,0,0.2,0,0.3,0h3.3c0.1,0,0.1,0,0.2,0.1
				l10.4,7.8c0.3,0.2,0.6,0.3,0.9,0.3h6c0.2,0,0.4,0,0.5-0.1c0.5-0.2,1.4-0.7,2-1.8c0.2-0.4,0.7-1.6,0-3c-0.6-1.3-1.7-1.8-2.2-1.9
				c-0.1,0-0.3-0.1-0.4-0.1H933c-0.1,0-0.1,0-0.2-0.1l-1.3-1v-3.5c0-0.2-0.1-1-0.7-1.5c-0.1-0.1-0.8-0.7-1.8-0.4
				c-0.6,0.2-1.1,0.6-1.4,1.3c-0.1,0.1-0.1,0.3-0.1,0.4v0.1v0.6l-5-3.8c-0.3-0.2-0.6-0.3-0.9-0.3h-5.3c-0.2,0-0.3,0-0.4,0.1
				c-0.4,0.1-1.1,0.4-1.6,1C913.9,390.4,912.8,391.7,913.1,393.4z M914.9,391.1c0.4-0.4,0.8-0.6,1.1-0.7h0.1h5.3
				c0.1,0,0.1,0,0.2,0.1l10.5,7.8c0.3,0.2,0.6,0.3,0.9,0.3h3.6h0.1c0.3,0.1,1.1,0.4,1.5,1.3c0.4,1,0.1,1.9,0,2
				c-0.4,0.8-1,1.1-1.3,1.2h-0.1h-6c-0.1,0-0.1,0-0.2-0.1l-10.4-7.8c-0.3-0.2-0.6-0.3-0.9-0.3H916l0,0c-0.2,0-0.4-0.1-0.5-0.2
				c-0.7-0.4-0.9-1.2-1-1.6C914,392,914.8,391.1,914.9,391.1z"/>
			<path class="st1" d="M929.4,390.7c-1.1,0-1.9-0.9-1.9-1.9c0-1.1,0.9-1.9,1.9-1.9c1.1,0,1.9,0.9,1.9,1.9
				C931.3,389.9,930.4,390.7,929.4,390.7z"/>
		</g>
	</g>
	<g>
		<g>
			<polyline class="st15" points="530.7,489.9 530.7,277.9 402.5,278.2 			"/>
			<g>
				<path class="st14" d="M535.7,489.9c0,2.8-2.2,5-5,5s-5-2.2-5-5s2.2-5,5-5S535.7,487.1,535.7,489.9z"/>
			</g>
		</g>
	</g>
	<g>
		<g>
			<circle class="st14" cx="712" cy="664.1" r="19.9"/>
		</g>
		<g>
			<path class="st14" d="M712,681.8c0,0,0.2,0.2,0.5,0.7c0.1,0.2,0.3,0.5,0.5,0.7c0.1,0.1,0.2,0.3,0.3,0.5s0,0.3,0,0.5
				c0,1.4,0,3.3,0,5.2s0,3.8,0,5.2c0,0.1,0,0.2,0,0.3s0,0.2,0,0.2c-0.1,0.2-0.2,0.3-0.3,0.5c-0.2,0.3-0.3,0.5-0.5,0.7
				c-0.3,0.4-0.5,0.7-0.5,0.7s-0.2-0.2-0.5-0.7c-0.1-0.2-0.3-0.5-0.5-0.7c-0.1-0.1-0.2-0.3-0.3-0.5c-0.1-0.1-0.1-0.2,0-0.2
				c0-0.1,0-0.2,0-0.3c0-1.4,0-3.3,0-5.2s0-3.8,0-5.2c0-0.2-0.1-0.3,0-0.5s0.2-0.3,0.3-0.5c0.2-0.3,0.3-0.5,0.5-0.7
				C711.8,682,712,681.8,712,681.8z"/>
		</g>
		<g>
			<path class="st1" d="M720.7,660l-17.3-0.2c-0.7,0-1.2,0.5-1.2,1.2l-0.1,13.1c0,0.7,0.5,1.2,1.2,1.2l17.3,0.2
				c0.7,0,1.2-0.5,1.2-1.2l0.1-13.1C721.9,660.6,721.4,660,720.7,660z M703.4,661.1L703.4,661.1l17.3,0.1l0,0l-0.1,13.1l0,0
				l-17.3-0.2l0,0L703.4,661.1z"/>
			<path class="st1" d="M707.4,658.6C707.4,658.7,707.4,658.7,707.4,658.6C707.5,658.7,707.5,658.7,707.4,658.6
				c0.1,0.1,0.2,0.2,0.2,0.2l0,0l0,0c0.1,0,0.1,0,0.2,0l0,0l0,0l0,0l0,0c0.1,0,0.1,0,0.2,0l0,0c0.1,0,0.1-0.1,0.2-0.1l0,0
				c0,0,0,0,0.1-0.1l0,0l2.9-3.6c0.1-0.1,0.2-0.3,0.1-0.5c0-0.2-0.1-0.3-0.2-0.4c-0.3-0.2-0.7-0.2-0.9,0.1l-1.8,2.2l0.1-5.4
				c0-0.3-0.3-0.6-0.6-0.6s-0.6,0.3-0.6,0.6l-0.1,5.5l-1.7-1.9c-0.1-0.1-0.3-0.2-0.4-0.2c-0.2,0-0.3,0-0.5,0.1
				c-0.1,0.1-0.2,0.3-0.2,0.4c0,0.2,0,0.3,0.1,0.5L707.4,658.6z"/>
			<path class="st1" d="M713.7,654.9c0.2,0,0.4-0.1,0.5-0.2l1.7-1.9l-0.1,5.5c0,0.3,0.3,0.6,0.6,0.6s0.6-0.3,0.6-0.6l0.1-5.4
				l1.7,2.2c0.2,0.3,0.6,0.3,0.9,0.1c0.3-0.2,0.3-0.6,0.1-0.9l-2.8-3.6l0,0c0,0,0-0.1-0.1-0.1l0,0l0,0c0,0-0.1-0.1-0.2-0.1l0,0
				c-0.1,0-0.1,0-0.2,0l0,0c-0.1,0-0.1,0-0.2,0l0,0l0,0c-0.1,0-0.1,0-0.1,0.1l0,0l-0.1,0.1l-2.8,3.2c-0.2,0.3-0.2,0.7,0.1,0.9
				C713.4,654.8,713.6,654.9,713.7,654.9z"/>
			<path class="st1" d="M707,664.1c0.5,0,0.9-0.4,0.9-0.9s-0.4-0.9-0.9-0.9s-0.9,0.4-0.9,0.9C706.1,663.7,706.5,664.1,707,664.1z"/>
			<path class="st1" d="M716.9,664.2c0.5,0,0.9-0.4,0.9-0.9s-0.4-0.9-0.9-0.9s-0.9,0.4-0.9,0.9S716.4,664.2,716.9,664.2z"/>
			<path class="st1" d="M712,664.1c0.5,0,0.9-0.4,0.9-0.9s-0.4-0.9-0.9-0.9s-0.9,0.4-0.9,0.9C711.1,663.7,711.5,664.1,712,664.1z"/>
			<path class="st1" d="M705.6,669.2L705.6,669.2l0.1,3.6c0,0.3,0.3,0.6,0.6,0.6c0.2,0,0.3,0,0.4-0.2c0.1-0.1,0.2-0.3,0.2-0.5v-3.5
				h0.2v3.6c0,0.3,0.2,0.6,0.5,0.6l0,0c0.2,0,0.3,0,0.4-0.2c0.1-0.1,0.2-0.3,0.2-0.5v-3.5l0,0c0.4,0,0.6-0.3,0.7-0.6V666
				c0-0.9-0.7-1.7-1.7-1.7h-0.7c-0.9,0-1.7,0.7-1.7,1.6v2.6C705,668.9,705.2,669.2,705.6,669.2z"/>
			<path class="st1" d="M710.6,669.3L710.6,669.3l0.1,3.6c0,0.3,0.3,0.6,0.6,0.6c0.2,0,0.3,0,0.4-0.2c0.1-0.1,0.2-0.3,0.2-0.5v-3.5
				h0.2v3.6c0,0.3,0.3,0.6,0.6,0.6c0.2,0,0.3,0,0.4-0.2c0.1-0.1,0.2-0.3,0.2-0.5v-3.5l0,0c0.4,0,0.6-0.3,0.7-0.6v-2.6
				c0-0.9-0.7-1.7-1.7-1.7h-0.7c-0.9,0-1.7,0.7-1.7,1.6v2.6C710,669,710.3,669.3,710.6,669.3z"/>
			<path class="st1" d="M715.5,669.3L715.5,669.3v3.6c0,0.3,0.3,0.6,0.6,0.6c0.2,0,0.3,0,0.4-0.2c0.1-0.1,0.2-0.3,0.2-0.5v-3.5h0.2
				v3.6c0,0.3,0.3,0.6,0.6,0.6c0.2,0,0.3,0,0.4-0.2c0.1-0.1,0.2-0.3,0.2-0.5v-3.5l0,0c0.4,0,0.6-0.3,0.7-0.6v-2.6
				c0-0.9-0.7-1.7-1.7-1.7h-0.7c-0.9,0-1.7,0.7-1.7,1.6v2.6C714.9,669,715.2,669.3,715.5,669.3z"/>
		</g>
	</g>
	<g>
		<g>
			<circle class="st14" cx="1167.8" cy="439.1" r="19.9"/>
		</g>
		<g>
			<path class="st14" d="M1167.8,456.8c0,0,0.2,0.2,0.5,0.7c0.1,0.2,0.3,0.5,0.5,0.7c0.1,0.1,0.2,0.3,0.3,0.5c0.1,0.2,0,0.3,0,0.5
				c0,1.4,0,3.3,0,5.2c0,1.9,0,3.8,0,5.2c0,0.1,0,0.2,0,0.3c0,0.1,0,0.2,0,0.2c-0.1,0.2-0.2,0.3-0.3,0.5c-0.2,0.3-0.3,0.5-0.5,0.7
				c-0.3,0.4-0.5,0.7-0.5,0.7s-0.2-0.2-0.5-0.7c-0.1-0.2-0.3-0.5-0.5-0.7c-0.1-0.1-0.2-0.3-0.3-0.5c-0.1-0.1-0.1-0.2,0-0.2
				c0-0.1,0-0.2,0-0.3c0-1.4,0-3.3,0-5.2c0-1.9,0-3.8,0-5.2c0-0.2-0.1-0.3,0-0.5s0.2-0.3,0.3-0.5c0.2-0.3,0.3-0.5,0.5-0.7
				C1167.6,457,1167.8,456.8,1167.8,456.8z"/>
		</g>
		<g>
			<path class="st1" d="M1176.5,435.1l-17.3-0.2c-0.7,0-1.2,0.5-1.2,1.2l-0.1,13.1c0,0.7,0.5,1.2,1.2,1.2l17.3,0.2
				c0.7,0,1.2-0.5,1.2-1.2l0.1-13.1C1177.7,435.7,1177.1,435.1,1176.5,435.1z M1159.1,436.2C1159.1,436.2,1159.2,436.1,1159.1,436.2
				l17.3,0.1l0,0l-0.1,13.1l0,0l-17.3-0.2l0,0L1159.1,436.2z"/>
			<path class="st1" d="M1163.1,433.7C1163.2,433.7,1163.2,433.7,1163.1,433.7L1163.1,433.7c0.1,0.1,0.2,0.2,0.2,0.2l0,0l0,0
				c0.1,0,0.1,0,0.2,0l0,0l0,0l0,0l0,0c0.1,0,0.1,0,0.2,0l0,0c0.1,0,0.1-0.1,0.2-0.1l0,0c0,0,0,0,0.1-0.1l0,0l2.9-3.6
				c0.1-0.1,0.2-0.3,0.1-0.5c0-0.2-0.1-0.3-0.2-0.4c-0.3-0.2-0.7-0.2-0.9,0.1l-1.8,2.2l0.1-5.4c0-0.3-0.3-0.6-0.6-0.6
				c-0.3,0-0.6,0.3-0.6,0.6l-0.1,5.5l-1.7-1.9c-0.1-0.1-0.3-0.2-0.4-0.2c-0.2,0-0.3,0-0.5,0.1c-0.1,0.1-0.2,0.3-0.2,0.4
				c0,0.2,0,0.3,0.1,0.5L1163.1,433.7z"/>
			<path class="st1" d="M1169.5,429.9c0.2,0,0.4-0.1,0.5-0.2l1.7-1.9l-0.1,5.5c0,0.3,0.3,0.6,0.6,0.6s0.6-0.3,0.6-0.6l0.1-5.4
				l1.7,2.2c0.2,0.3,0.6,0.3,0.9,0.1c0.3-0.2,0.3-0.6,0.1-0.9l-2.8-3.6l0,0c0,0,0-0.1-0.1-0.1l0,0l0,0c0,0-0.1-0.1-0.2-0.1l0,0
				c-0.1,0-0.1,0-0.2,0l0,0c-0.1,0-0.1,0-0.2,0l0,0l0,0c-0.1,0-0.1,0-0.1,0.1l0,0l-0.1,0.1l-2.8,3.2c-0.2,0.3-0.2,0.7,0.1,0.9
				C1169.2,429.9,1169.3,429.9,1169.5,429.9z"/>
			<path class="st1" d="M1162.8,439.2c0.5,0,0.9-0.4,0.9-0.9s-0.4-0.9-0.9-0.9s-0.9,0.4-0.9,0.9
				C1161.9,438.7,1162.3,439.1,1162.8,439.2z"/>
			<path class="st1" d="M1172.7,439.3c0.5,0,0.9-0.4,0.9-0.9s-0.4-0.9-0.9-0.9s-0.9,0.4-0.9,0.9
				C1171.8,438.8,1172.2,439.2,1172.7,439.3z"/>
			<path class="st1" d="M1167.8,439.2c0.5,0,0.9-0.4,0.9-0.9s-0.4-0.9-0.9-0.9s-0.9,0.4-0.9,0.9
				C1166.9,438.8,1167.3,439.2,1167.8,439.2z"/>
			<path class="st1" d="M1161.4,444.3L1161.4,444.3l0.1,3.6c0,0.3,0.3,0.6,0.6,0.6c0.2,0,0.3,0,0.4-0.2c0.1-0.1,0.2-0.3,0.2-0.5
				v-3.5h0.2v3.6c0,0.3,0.2,0.6,0.5,0.6l0,0c0.2,0,0.3,0,0.4-0.2c0.1-0.1,0.2-0.3,0.2-0.5v-3.5l0,0c0.4,0,0.6-0.3,0.7-0.6v-2.6
				c0-0.9-0.7-1.7-1.7-1.7h-0.7c-0.9,0-1.7,0.7-1.7,1.6v2.6C1160.7,444,1161,444.3,1161.4,444.3z"/>
			<path class="st1" d="M1166.4,444.3L1166.4,444.3l0.1,3.6c0,0.3,0.3,0.6,0.6,0.6c0.2,0,0.3,0,0.4-0.2c0.1-0.1,0.2-0.3,0.2-0.5
				v-3.5h0.2v3.6c0,0.3,0.3,0.6,0.6,0.6c0.2,0,0.3,0,0.4-0.2c0.1-0.1,0.2-0.3,0.2-0.5v-3.5l0,0c0.4,0,0.6-0.3,0.7-0.6v-2.6
				c0-0.9-0.7-1.7-1.7-1.7h-0.7c-0.9,0-1.7,0.7-1.7,1.6v2.6C1165.7,444,1166,444.3,1166.4,444.3z"/>
			<path class="st1" d="M1171.3,444.4L1171.3,444.4v3.6c0,0.3,0.3,0.6,0.6,0.6c0.2,0,0.3,0,0.4-0.2c0.1-0.1,0.2-0.3,0.2-0.5v-3.5
				h0.2v3.6c0,0.3,0.3,0.6,0.6,0.6c0.2,0,0.3,0,0.4-0.2c0.1-0.1,0.2-0.3,0.2-0.5v-3.5l0,0c0.4,0,0.6-0.3,0.7-0.6v-2.6
				c0-0.9-0.7-1.7-1.7-1.7h-0.7c-0.9,0-1.7,0.7-1.7,1.6v2.6C1170.6,444.1,1170.9,444.4,1171.3,444.4z"/>
		</g>
	</g>
	<g>
		<g>
			<circle class="st14" cx="1270.5" cy="800.1" r="19.9"/>
		</g>
		<path class="st1" d="M1280.4,791.8h-5.9c-0.3,0-0.6,0.3-0.6,0.6v2.8h-4.1c-0.3,0-0.6,0.3-0.6,0.6v2.8h-4.1c-0.3,0-0.6,0.3-0.6,0.6
			v2.8h-4.1c-0.3,0-0.6,0.3-0.6,0.6v4.9c0,0.3,0.3,0.6,0.6,0.6h6c0.1,0,0.2,0,0.3-0.1l13.9-9.8c0.2-0.1,0.3-0.3,0.3-0.6v-5.4
			C1281,792.1,1280.7,791.8,1280.4,791.8z M1279.8,793.1v4.4l-13.5,9.6h-5.3v-3.7h4.1c0.3,0,0.6-0.3,0.6-0.6V800h4.1
			c0.3,0,0.6-0.3,0.6-0.6v-2.8h4.1c0.3,0,0.6-0.3,0.6-0.6v-2.8L1279.8,793.1z"/>
		<g>
			<path class="st14" d="M1270.5,817.8c0,0,0.2,0.2,0.6,0.7c0.2,0.2,0.4,0.5,0.5,0.7c0.1,0.1,0.2,0.3,0.3,0.5c0.1,0.1,0.1,0.2,0,0.2
				c0,0.1,0,0.2,0,0.3c0,1.4,0,3.3,0,5.2s0,3.8,0,5.2c0,0.1,0,0.2,0,0.3s0,0.2,0,0.2c-0.1,0.2-0.2,0.3-0.3,0.5
				c-0.2,0.3-0.4,0.5-0.5,0.7c-0.3,0.4-0.5,0.7-0.5,0.7s-0.2-0.2-0.5-0.7c-0.2-0.2-0.4-0.5-0.5-0.7c-0.1-0.1-0.2-0.3-0.3-0.5
				c-0.1-0.1-0.1-0.2,0-0.2c0-0.1,0-0.2,0-0.3c0-1.4,0-3.3,0-5.2s0-3.8,0-5.2c0-0.1,0-0.2,0-0.3s0-0.2,0-0.2
				c0.1-0.2,0.2-0.3,0.3-0.5c0.2-0.3,0.4-0.5,0.5-0.7C1270.2,818,1270.5,817.8,1270.5,817.8z"/>
		</g>
	</g>
	<g>
		<g>
			<circle class="st14" cx="1227" cy="788.9" r="19.9"/>
		</g>
		<g>
			<path class="st14" d="M1227,806.6c0,0,0.2,0.2,0.5,0.7c0.1,0.2,0.3,0.5,0.5,0.7c0.1,0.1,0.2,0.3,0.3,0.5c0.1,0.2,0,0.3,0,0.5
				c0,1.4,0,3.3,0,5.2s0,3.8,0,5.2c0,0.1,0,0.2,0,0.3s0,0.2,0,0.2c-0.1,0.2-0.2,0.3-0.3,0.5c-0.2,0.3-0.3,0.5-0.5,0.7
				c-0.3,0.4-0.5,0.7-0.5,0.7s-0.2-0.2-0.5-0.7c-0.1-0.2-0.3-0.5-0.5-0.7c-0.1-0.1-0.2-0.3-0.3-0.5c-0.1-0.1-0.1-0.2,0-0.2
				c0-0.1,0-0.2,0-0.3c0-1.4,0-3.3,0-5.2s0-3.8,0-5.2c0-0.2-0.1-0.3,0-0.5s0.2-0.3,0.3-0.5c0.2-0.3,0.3-0.5,0.5-0.7
				C1226.8,806.8,1227,806.6,1227,806.6z"/>
		</g>
		<g>
			<path class="st1" d="M1235.7,784.9l-17.3-0.2c-0.7,0-1.2,0.5-1.2,1.2l-0.1,13.1c0,0.7,0.5,1.2,1.2,1.2l17.3,0.2
				c0.7,0,1.2-0.5,1.2-1.2l0.1-13.1C1237,785.4,1236.4,784.9,1235.7,784.9z M1218.4,785.9L1218.4,785.9l17.3,0.1l0,0l-0.1,13.1l0,0
				l-17.3-0.2l0,0L1218.4,785.9z"/>
			<path class="st1" d="M1222.4,783.4C1222.4,783.5,1222.5,783.5,1222.4,783.4C1222.5,783.5,1222.5,783.5,1222.4,783.4
				c0.1,0.1,0.2,0.2,0.2,0.2l0,0l0,0c0.1,0,0.1,0,0.2,0l0,0l0,0l0,0l0,0c0.1,0,0.1,0,0.2,0l0,0c0.1,0,0.1-0.1,0.2-0.1l0,0
				c0,0,0,0,0.1-0.1l0,0l2.9-3.6c0.1-0.1,0.2-0.3,0.1-0.5c0-0.2-0.1-0.3-0.2-0.4c-0.3-0.2-0.7-0.2-0.9,0.1l-1.8,2.2l0.1-5.4
				c0-0.3-0.3-0.6-0.6-0.6s-0.6,0.3-0.6,0.6l-0.1,5.5l-1.7-1.9c-0.1-0.1-0.3-0.2-0.4-0.2c-0.2,0-0.3,0-0.5,0.1
				c-0.1,0.1-0.2,0.3-0.2,0.4c0,0.2,0,0.3,0.1,0.5L1222.4,783.4z"/>
			<path class="st1" d="M1228.8,779.7c0.2,0,0.4-0.1,0.5-0.2l1.7-1.9l-0.1,5.5c0,0.3,0.3,0.6,0.6,0.6c0.3,0,0.6-0.3,0.6-0.6l0.1-5.4
				l1.7,2.2c0.2,0.3,0.6,0.3,0.9,0.1s0.3-0.6,0.1-0.9l-2.8-3.6l0,0c0,0,0-0.1-0.1-0.1l0,0l0,0c0,0-0.1-0.1-0.2-0.1l0,0
				c-0.1,0-0.1,0-0.2,0l0,0c-0.1,0-0.1,0-0.2,0l0,0l0,0c-0.1,0-0.1,0-0.1,0.1l0,0l-0.1,0.1l-2.8,3.2c-0.2,0.3-0.2,0.7,0.1,0.9
				C1228.5,779.6,1228.6,779.7,1228.8,779.7z"/>
			<path class="st1" d="M1222,788.9c0.5,0,0.9-0.4,0.9-0.9s-0.4-0.9-0.9-0.9s-0.9,0.4-0.9,0.9S1221.5,788.9,1222,788.9z"/>
			<path class="st1" d="M1232,789c0.5,0,0.9-0.4,0.9-0.9s-0.4-0.9-0.9-0.9s-0.9,0.4-0.9,0.9S1231.5,789,1232,789z"/>
			<path class="st1" d="M1227.1,789c0.5,0,0.9-0.4,0.9-0.9s-0.4-0.9-0.9-0.9s-0.9,0.4-0.9,0.9S1226.6,789,1227.1,789z"/>
			<path class="st1" d="M1220.7,794.1L1220.7,794.1l0.1,3.6c0,0.3,0.3,0.6,0.6,0.6c0.2,0,0.3,0,0.4-0.2c0.1-0.1,0.2-0.3,0.2-0.5
				v-3.5h0.2v3.6c0,0.3,0.2,0.6,0.5,0.6l0,0c0.2,0,0.3,0,0.4-0.2c0.1-0.1,0.2-0.3,0.2-0.5v-3.5l0,0c0.4,0,0.6-0.3,0.7-0.6v-2.6
				c0-0.9-0.7-1.7-1.7-1.7h-0.7c-0.9,0-1.7,0.7-1.7,1.6v2.6C1220,793.8,1220.3,794.1,1220.7,794.1z"/>
			<path class="st1" d="M1225.7,794.1L1225.7,794.1l0.1,3.6c0,0.3,0.3,0.6,0.6,0.6c0.2,0,0.3,0,0.4-0.2c0.1-0.1,0.2-0.3,0.2-0.5
				v-3.5h0.2v3.6c0,0.3,0.3,0.6,0.6,0.6c0.2,0,0.3,0,0.4-0.2c0.1-0.1,0.2-0.3,0.2-0.5v-3.5l0,0c0.4,0,0.6-0.3,0.7-0.6v-2.6
				c0-0.9-0.7-1.7-1.7-1.7h-0.7c-0.9,0-1.7,0.7-1.7,1.6v2.6C1225,793.8,1225.3,794.1,1225.7,794.1z"/>
			<path class="st1" d="M1230.6,794.2L1230.6,794.2v3.6c0,0.3,0.3,0.6,0.6,0.6c0.2,0,0.3,0,0.4-0.2c0.1-0.1,0.2-0.3,0.2-0.5v-3.5
				h0.2v3.6c0,0.3,0.3,0.6,0.6,0.6c0.2,0,0.3,0,0.4-0.2c0.1-0.1,0.2-0.3,0.2-0.5v-3.5l0,0c0.4,0,0.6-0.3,0.7-0.6V791
				c0-0.9-0.7-1.7-1.7-1.7h-0.7c-0.9,0-1.7,0.7-1.7,1.6v2.6C1229.9,793.9,1230.2,794.1,1230.6,794.2z"/>
		</g>
	</g>
	<g>
		<g>
			<circle class="st14" cx="1357.4" cy="605.3" r="19.9"/>
		</g>
		<g>
			<path class="st14" d="M1357.4,623c0,0,0.2,0.2,0.5,0.7c0.1,0.2,0.3,0.5,0.5,0.7c0.1,0.1,0.2,0.3,0.3,0.5c0.1,0.2,0,0.3,0,0.5
				c0,1.4,0,3.3,0,5.2s0,3.8,0,5.2c0,0.1,0,0.2,0,0.3s0,0.2,0,0.2c-0.1,0.2-0.2,0.3-0.3,0.5c-0.2,0.3-0.3,0.5-0.5,0.7
				c-0.3,0.4-0.5,0.7-0.5,0.7s-0.2-0.2-0.5-0.7c-0.1-0.2-0.3-0.5-0.5-0.7c-0.1-0.1-0.2-0.3-0.3-0.5c-0.1-0.1-0.1-0.2,0-0.2
				c0-0.1,0-0.2,0-0.3c0-1.4,0-3.3,0-5.2s0-3.8,0-5.2c0-0.2-0.1-0.3,0-0.5s0.2-0.3,0.3-0.5c0.2-0.3,0.3-0.5,0.5-0.7
				C1357.2,623.2,1357.4,623,1357.4,623z"/>
		</g>
		<g>
			<g>
				<circle class="st1" cx="1351.1" cy="597" r="1.7"/>
				<path class="st1" d="M1353.3,599.3h-4.4c-0.8,0-1.4,0.6-1.4,1.4v7c0,0.3,0.2,0.5,0.5,0.5h0.8v5.6c0,0.5,0.4,0.8,0.8,0.8
					c0,0,0,0,0.1,0c0.3,0,0.5-0.1,0.7-0.2c0.2-0.2,0.3-0.4,0.3-0.8v-5.4h0.9v5.6c0,0.5,0.4,0.8,0.8,0.8c0,0,0,0,0.1,0
					c0.3,0,0.5-0.1,0.7-0.2c0.2-0.2,0.3-0.4,0.3-0.8v-5.4h0.7c0.3,0,0.5-0.2,0.5-0.5v-7C1354.7,599.9,1354.1,599.3,1353.3,599.3z"/>
				<path class="st1" d="M1363.7,598.4c0.9,0,1.7-0.8,1.7-1.7s-0.8-1.7-1.7-1.7c-0.9,0-1.7,0.8-1.7,1.7
					C1362,597.6,1362.8,598.4,1363.7,598.4z"/>
				<path class="st1" d="M1368.3,607.3l-1.7-7.4c-0.2-0.9-0.8-1-1.4-1h-3.1c-0.8,0-1.4,0.6-1.4,1.3l-1.4,7.1c0,0.3,0.2,0.5,0.5,0.5
					h1.6v5.6c0,0.5,0.4,0.8,0.8,0.8c0,0,0,0,0.1,0c0.3,0,0.5-0.1,0.7-0.2c0.2-0.2,0.3-0.4,0.3-0.8v-5.4h0.9v5.6
					c0,0.5,0.4,0.8,0.8,0.8c0,0,0,0,0.1,0c0.3,0,0.5-0.1,0.7-0.2c0.2-0.2,0.3-0.4,0.3-0.8v-5.4h1.7
					C1368.1,607.9,1368.3,607.7,1368.3,607.3C1368.3,607.4,1368.3,607.4,1368.3,607.3z"/>
				<path class="st1" d="M1357.4,593.4c-0.3,0-0.5,0.2-0.5,0.5v21.9c0,0.3,0.2,0.5,0.5,0.5s0.5-0.2,0.5-0.5v-21.9
					C1358,593.6,1357.7,593.4,1357.4,593.4z"/>
			</g>
		</g>
	</g>
	<g>
		<g>
			<circle class="st14" cx="889.3" cy="719.5" r="19.9"/>
		</g>
		<g>
			<path class="st14" d="M889.3,737.2c0,0,0.2,0.2,0.5,0.7c0.1,0.2,0.3,0.5,0.5,0.7c0.1,0.1,0.2,0.3,0.3,0.5s0,0.3,0,0.5
				c0,1.4,0,3.3,0,5.2s0,3.8,0,5.2c0,0.1,0,0.2,0,0.3s0,0.2,0,0.2c-0.1,0.2-0.2,0.3-0.3,0.5c-0.2,0.3-0.3,0.5-0.5,0.7
				c-0.3,0.4-0.5,0.7-0.5,0.7s-0.2-0.2-0.5-0.7c-0.1-0.2-0.3-0.5-0.5-0.7c-0.1-0.1-0.2-0.3-0.3-0.5c-0.1-0.1-0.1-0.2,0-0.2
				c0-0.1,0-0.2,0-0.3c0-1.4,0-3.3,0-5.2s0-3.8,0-5.2c0-0.2-0.1-0.3,0-0.5s0.2-0.3,0.3-0.5c0.2-0.3,0.3-0.5,0.5-0.7
				C889.1,737.5,889.3,737.2,889.3,737.2z"/>
		</g>
		<g>
			<g>
				<circle class="st1" cx="883" cy="711.2" r="1.7"/>
				<path class="st1" d="M885.2,713.6h-4.4c-0.8,0-1.4,0.6-1.4,1.4v7c0,0.3,0.2,0.5,0.5,0.5h0.8v5.6c0,0.5,0.4,0.8,0.8,0.8
					c0,0,0,0,0.1,0c0.3,0,0.5-0.1,0.7-0.2c0.2-0.2,0.3-0.4,0.3-0.8v-5.4h0.9v5.6c0,0.5,0.4,0.8,0.8,0.8c0,0,0,0,0.1,0
					c0.3,0,0.5-0.1,0.7-0.2c0.2-0.2,0.3-0.4,0.3-0.8v-5.4h0.7c0.3,0,0.5-0.2,0.5-0.5v-7C886.6,714.2,886,713.6,885.2,713.6z"/>
				<path class="st1" d="M895.6,712.6c0.9,0,1.7-0.8,1.7-1.7s-0.8-1.7-1.7-1.7s-1.7,0.8-1.7,1.7
					C893.9,711.8,894.7,712.6,895.6,712.6z"/>
				<path class="st1" d="M900.2,721.6l-1.7-7.4c-0.2-0.9-0.8-1-1.4-1H894c-0.8,0-1.4,0.6-1.4,1.3l-1.4,7.1c0,0.3,0.2,0.5,0.5,0.5
					h1.6v5.6c0,0.5,0.4,0.8,0.8,0.8c0,0,0,0,0.1,0c0.3,0,0.5-0.1,0.7-0.2c0.2-0.2,0.3-0.4,0.3-0.8v-5.4h0.9v5.6
					c0,0.5,0.4,0.8,0.8,0.8c0,0,0,0,0.1,0c0.3,0,0.5-0.1,0.7-0.2c0.2-0.2,0.3-0.4,0.3-0.8v-5.4h1.7
					C900,722.1,900.2,721.9,900.2,721.6L900.2,721.6z"/>
				<path class="st1" d="M889.3,707.6c-0.3,0-0.5,0.2-0.5,0.5V730c0,0.3,0.2,0.5,0.5,0.5s0.5-0.2,0.5-0.5v-21.9
					C889.8,707.8,889.6,707.6,889.3,707.6z"/>
			</g>
		</g>
	</g>
	<g>
		<g>
			<circle class="st14" cx="648.6" cy="506" r="19.9"/>
		</g>
		<g>
			<path class="st14" d="M648.6,523.7c0,0,0.2,0.2,0.5,0.7c0.1,0.2,0.3,0.5,0.5,0.7c0.1,0.1,0.2,0.3,0.3,0.5s0,0.3,0,0.5
				c0,1.4,0,3.3,0,5.2s0,3.8,0,5.2c0,0.1,0,0.2,0,0.3s0,0.2,0,0.2c-0.1,0.2-0.2,0.3-0.3,0.5c-0.2,0.3-0.3,0.5-0.5,0.7
				c-0.3,0.4-0.5,0.7-0.5,0.7s-0.2-0.2-0.5-0.7c-0.1-0.2-0.3-0.5-0.5-0.7c-0.1-0.1-0.2-0.3-0.3-0.5c-0.1-0.1-0.1-0.2,0-0.2
				c0-0.1,0-0.2,0-0.3c0-1.4,0-3.3,0-5.2s0-3.8,0-5.2c0-0.2-0.1-0.3,0-0.5s0.2-0.3,0.3-0.5c0.2-0.3,0.3-0.5,0.5-0.7
				C648.4,523.9,648.6,523.7,648.6,523.7z"/>
		</g>
		<g>
			<g>
				<circle class="st1" cx="642.3" cy="497.6" r="1.7"/>
				<path class="st1" d="M644.5,500h-4.4c-0.8,0-1.4,0.6-1.4,1.4v7c0,0.3,0.2,0.5,0.5,0.5h0.8v5.6c0,0.5,0.4,0.8,0.8,0.8
					c0,0,0,0,0.1,0c0.3,0,0.5-0.1,0.7-0.2c0.2-0.2,0.3-0.4,0.3-0.8v-5.4h0.9v5.6c0,0.5,0.4,0.8,0.8,0.8c0,0,0,0,0.1,0
					c0.3,0,0.5-0.1,0.7-0.2c0.2-0.2,0.3-0.4,0.3-0.8v-5.4h0.7c0.3,0,0.5-0.2,0.5-0.5v-7C645.9,500.6,645.3,500,644.5,500z"/>
				<path class="st1" d="M654.9,499c0.9,0,1.7-0.8,1.7-1.7c0-0.9-0.8-1.7-1.7-1.7s-1.7,0.8-1.7,1.7S653.9,499,654.9,499z"/>
				<path class="st1" d="M659.5,508l-1.7-7.4c-0.2-0.9-0.8-1-1.4-1h-3.1c-0.8,0-1.4,0.6-1.4,1.3l-1.4,7.1c0,0.3,0.2,0.5,0.5,0.5h1.6
					v5.6c0,0.5,0.4,0.8,0.8,0.8c0,0,0,0,0.1,0c0.3,0,0.5-0.1,0.7-0.2c0.2-0.2,0.3-0.4,0.3-0.8v-5.4h0.9v5.6c0,0.5,0.4,0.8,0.8,0.8
					c0,0,0,0,0.1,0c0.3,0,0.5-0.1,0.7-0.2c0.2-0.2,0.3-0.4,0.3-0.8v-5.4h1.7C659.3,508.6,659.5,508.3,659.5,508L659.5,508z"/>
				<path class="st1" d="M648.6,494c-0.3,0-0.5,0.2-0.5,0.5v21.9c0,0.3,0.2,0.5,0.5,0.5s0.5-0.2,0.5-0.5v-21.9
					C649.1,494.2,648.9,494,648.6,494z"/>
			</g>
		</g>
	</g>
</g>
<rect x="254.5" y="241.1" class="st0" width="211.7" height="73.9"/>
<rect x="261.8" y="252.3" class="st16" width="197.3" height="56.7"/>
<g class="st17">
	<path class="st1" d="M340.6,271.2c-1.9,0-3.6-0.3-5-0.8c-1.4-0.5-2.5-1.3-3.3-2.3c-0.8-1-1.2-2.1-1.3-3.4h5c0.1,0.9,0.6,1.5,1.3,2
		c0.8,0.5,1.9,0.7,3.3,0.7c1.3,0,2.4-0.2,3.1-0.5c0.7-0.4,1.1-0.9,1.1-1.6c0-0.6-0.3-1.1-0.9-1.4c-0.6-0.3-1.6-0.4-3-0.4h-3.3v-3.3
		h3.2c0.8,0,1.5-0.1,2-0.2c0.5-0.2,0.9-0.4,1.2-0.7s0.4-0.6,0.4-1c0-0.4-0.1-0.8-0.4-1.1c-0.3-0.3-0.7-0.5-1.3-0.7
		c-0.6-0.2-1.2-0.2-2-0.2c-1.3,0-2.3,0.2-3,0.7c-0.7,0.4-1.2,1.1-1.3,1.9h-4.9c0.1-1.2,0.5-2.3,1.3-3.2c0.7-1,1.8-1.7,3.2-2.3
		c1.4-0.6,3.1-0.9,5.1-0.9c1.7,0,3.2,0.2,4.5,0.6s2.3,1,3,1.8c0.7,0.8,1.1,1.6,1.1,2.7c0,0.8-0.2,1.6-0.7,2.2
		c-0.5,0.7-1.3,1.2-2.3,1.6c-1,0.4-2.4,0.6-4.1,0.6v-0.5c1.6-0.1,2.9,0,4,0.3s2,0.8,2.6,1.4c0.6,0.6,0.9,1.5,0.9,2.5
		c0,1.1-0.4,2.1-1.1,2.9c-0.7,0.8-1.8,1.5-3.1,2C344.2,270.9,342.6,271.2,340.6,271.2z"/>
	<path class="st1" d="M365.5,263.9c-0.2,1.4-0.7,2.7-1.3,3.8s-1.5,1.9-2.5,2.5c-1,0.6-2.2,0.9-3.5,0.9c-1.3,0-2.5-0.3-3.5-0.9
		c-1-0.6-1.8-1.4-2.4-2.5c-0.6-1.1-0.9-2.4-0.9-3.8c0-1.5,0.3-2.7,0.9-3.8c0.6-1.1,1.4-1.9,2.4-2.5c1-0.6,2.2-0.9,3.5-0.9
		c1.3,0,2.5,0.3,3.5,0.9s1.9,1.4,2.5,2.5S365.3,262.5,365.5,263.9z M356.4,263.9c0,0.7,0.1,1.3,0.4,1.8s0.7,0.9,1.2,1.2
		s1.1,0.4,1.7,0.4c0.7,0,1.3-0.1,1.9-0.4c0.6-0.3,1.1-0.7,1.6-1.2c0.4-0.5,0.8-1.1,1-1.8c-0.2-0.7-0.6-1.3-1-1.8
		c-0.4-0.5-1-0.9-1.6-1.2c-0.6-0.3-1.2-0.5-1.9-0.5c-0.6,0-1.2,0.2-1.7,0.5c-0.5,0.3-0.9,0.7-1.2,1.2S356.4,263.3,356.4,263.9z
		 M364.4,270.8l-0.6-4.9l0.6-1.9l-0.6-1.9l0.6-5h5.1l-0.9,6.8l0.9,6.9H364.4z"/>
	<path class="st1" d="M374.2,257.1h14.9v13.7h-4.9v-12.3l2.3,2.3h-9.8l2.1-1.9c0.1,0.9,0.2,1.8,0.2,2.6c0,0.8,0.1,1.5,0.1,2.1
		c0,2.7-0.4,4.6-1.2,5.8c-0.8,1.2-2.2,1.8-4,1.8c-0.5,0-1.1-0.1-1.5-0.2c-0.5-0.1-1-0.3-1.4-0.6v-3.5c0.3,0.1,0.6,0.2,0.9,0.3
		c0.3,0.1,0.5,0.1,0.8,0.1c0.8,0,1.3-0.3,1.7-1c0.3-0.7,0.5-1.8,0.5-3.4c0-0.8,0-1.6-0.1-2.6C374.4,259.3,374.3,258.2,374.2,257.1z"
		/>
</g>
<g class="st17">
	<path class="st1" d="M267.1,286.4h5l-4,6.3v-1.1l4,6.3h-5l-3.5-5.7L267.1,286.4z M274.2,286.4h5l-4,6.3v-1.1l4,6.3h-5l-3.5-5.7
		L274.2,286.4z"/>
	<path class="st1" d="M281.9,299.6v-18h4.9v14l-1.3-1l10.2-13h5.3l-14.6,18H281.9z M290.5,291l3.6-3l7.1,11.6h-5.6L290.5,291z"/>
	<path class="st1" d="M309.4,300c-1.8,0-3.3-0.3-4.6-0.9c-1.3-0.6-2.3-1.4-3.1-2.5c-0.7-1.1-1.1-2.4-1.1-3.8c0-1.5,0.4-2.7,1.1-3.8
		c0.7-1.1,1.8-1.9,3.1-2.5c1.3-0.6,2.8-0.9,4.6-0.9c1.7,0,3.3,0.3,4.6,0.9c1.3,0.6,2.3,1.5,3.1,2.5c0.7,1.1,1.1,2.4,1.1,3.8
		c0,1.4-0.4,2.7-1.1,3.8c-0.7,1.1-1.8,1.9-3.1,2.5C312.7,299.7,311.1,300,309.4,300z M309.4,296.3c0.8,0,1.5-0.1,2.1-0.4
		c0.6-0.3,1-0.7,1.3-1.2c0.3-0.5,0.5-1.2,0.5-1.9c0-0.8-0.2-1.4-0.5-2c-0.3-0.5-0.7-0.9-1.3-1.2c-0.6-0.3-1.3-0.4-2.1-0.4
		c-0.8,0-1.5,0.1-2.1,0.4s-1,0.7-1.3,1.2c-0.3,0.5-0.5,1.2-0.5,1.9c0,0.8,0.2,1.4,0.5,1.9c0.3,0.5,0.7,1,1.3,1.2
		S308.6,296.3,309.4,296.3z"/>
	<path class="st1" d="M322.2,285.9h14.9v13.7h-4.9v-12.3l2.3,2.3h-9.8l2.1-1.9c0.1,0.9,0.2,1.8,0.2,2.6c0,0.8,0.1,1.5,0.1,2.1
		c0,2.7-0.4,4.6-1.2,5.8c-0.8,1.2-2.2,1.8-4,1.8c-0.5,0-1.1-0.1-1.5-0.2c-0.5-0.1-1-0.3-1.4-0.6v-3.5c0.3,0.1,0.6,0.2,0.9,0.3
		c0.3,0.1,0.5,0.1,0.8,0.1c0.8,0,1.3-0.3,1.7-1c0.3-0.7,0.5-1.8,0.5-3.4c0-0.8,0-1.6-0.1-2.6C322.5,288.1,322.4,287,322.2,285.9z"/>
	<path class="st1" d="M348,300c-1.8,0-3.3-0.3-4.6-0.9c-1.3-0.6-2.3-1.4-3.1-2.5c-0.7-1.1-1.1-2.4-1.1-3.8c0-1.5,0.4-2.7,1.1-3.8
		c0.7-1.1,1.8-1.9,3.1-2.5c1.3-0.6,2.8-0.9,4.6-0.9c1.7,0,3.3,0.3,4.6,0.9c1.3,0.6,2.3,1.5,3.1,2.5c0.7,1.1,1.1,2.4,1.1,3.8
		c0,1.4-0.4,2.7-1.1,3.8c-0.7,1.1-1.8,1.9-3.1,2.5C351.2,299.7,349.7,300,348,300z M348,296.3c0.8,0,1.5-0.1,2.1-0.4
		c0.6-0.3,1-0.7,1.3-1.2c0.3-0.5,0.5-1.2,0.5-1.9c0-0.8-0.2-1.4-0.5-2c-0.3-0.5-0.7-0.9-1.3-1.2c-0.6-0.3-1.3-0.4-2.1-0.4
		c-0.8,0-1.5,0.1-2.1,0.4s-1,0.7-1.3,1.2c-0.3,0.5-0.5,1.2-0.5,1.9c0,0.8,0.2,1.4,0.5,1.9c0.3,0.5,0.7,1,1.3,1.2
		S347.2,296.3,348,296.3z"/>
	<path class="st1" d="M358.8,285.9h4.9v13.7h-4.9V285.9z M361.6,290.7H372v3.6h-10.4V290.7z M370.2,285.9h4.9v13.7h-4.9V285.9z"/>
	<path class="st1" d="M377.8,285.9h4.9v13.7h-4.9V285.9z M380.6,290.7H391v3.6h-10.4V290.7z M389.2,285.9h4.9v13.7h-4.9V285.9z"/>
	<path class="st1" d="M396.7,299.6v-13.7h4.9v12.5l-1.5-2.2h4.8c0.6,0,1.1-0.1,1.4-0.4c0.3-0.3,0.5-0.7,0.5-1.2c0-0.5-0.2-1-0.5-1.3
		c-0.3-0.3-0.8-0.4-1.4-0.4h-4.9v-3.3h5.7c1.2,0,2.3,0.2,3.2,0.6c0.9,0.4,1.6,1,2.1,1.8c0.5,0.8,0.8,1.6,0.8,2.7
		c0,1-0.2,1.9-0.7,2.7s-1.2,1.3-2.1,1.8s-1.9,0.6-3.1,0.6H396.7z M413,285.9h4.9v13.7H413V285.9z"/>
	<path class="st1" d="M420.6,299.6v-13.7h4.8v11l-1.1-0.3l7.2-10.7h6.3v13.7H433v-11.4l1.1,0.4l-7.4,11H420.6z M429.1,284.7
		c-1.7,0-3-0.4-4-1.2c-1-0.8-1.6-2-1.9-3.5h3.7c0.1,0.6,0.4,1.1,0.7,1.4s0.8,0.5,1.4,0.5c0.6,0,1-0.2,1.4-0.5s0.6-0.8,0.7-1.4h3.8
		c-0.2,1.5-0.9,2.7-1.9,3.5C432.1,284.3,430.8,284.7,429.1,284.7z"/>
	<path class="st1" d="M445.2,286.4l3.6,5.8l-3.6,5.7h-5l4-6.3v1.1l-4-6.3H445.2z M452.3,286.4l3.5,5.8l-3.5,5.7h-5l4-6.3v1.1l-4-6.3
		H452.3z"/>
</g>
<g>
	<polyline class="st18" points="1496.2,839.6 1492.1,831.5 1482,842 	"/>
	<line class="st19" x1="1482" y1="842" x2="1496.2" y2="839.6"/>
	<polygon class="st20" points="1492.1,831.5 1496.2,839.6 1488.5,835.2 	"/>
	<polygon class="st20" points="1488.5,835.2 1496.2,839.6 1482,842 	"/>
</g>
<g>
	<g>
		<circle class="st14" cx="1526" cy="853.8" r="19.5"/>
	</g>
</g>
<g>
	<path class="st1" d="M1529.4,843l8.4,18.5h-5.4l-7-16.3h1.5l-7.1,16.3h-5.4l8.4-18.5H1529.4z M1519.3,857.8v-4.3h13.4v4.3H1519.3z"
		/>
</g>
</svg>
