<?xml version="1.0" encoding="utf-8"?>
<!-- Generator: Adobe Illustrator 26.0.3, SVG Export Plug-In . SVG Version: 6.00 Build 0)  -->
<svg version="1.1" id="Слой_1" xmlns="http://www.w3.org/2000/svg" xmlns:xlink="http://www.w3.org/1999/xlink" x="0px" y="0px"
	 viewBox="0 0 1920 1080" style="enable-background:new 0 0 1920 1080;" xml:space="preserve">
<style type="text/css">
	.st0{fill:none;stroke:#FB493B;stroke-width:5.2283;stroke-miterlimit:10;}
	.st1{fill:#66B9FF;}
	.st2{fill:#FFFFFF;}
	.st3{fill:#FB493B;}
	.st4{fill:none;stroke:#0085CC;stroke-width:4.5296;stroke-linecap:round;stroke-linejoin:round;stroke-miterlimit:10;}
	.st5{fill:none;stroke:#0085CC;stroke-width:1.5099;stroke-linecap:round;stroke-linejoin:round;stroke-miterlimit:10;}
	.st6{fill:none;stroke:#0085CC;stroke-width:6.92;stroke-linecap:round;stroke-linejoin:round;stroke-miterlimit:10;}
	.st7{fill:none;stroke:#0085CC;stroke-width:4.3892;stroke-linecap:round;stroke-linejoin:round;stroke-miterlimit:10;}
	.st8{fill:none;stroke:#0085CC;stroke-width:7.046;stroke-linecap:round;stroke-linejoin:round;stroke-miterlimit:10;}
	.st9{fill:#0085CC;stroke:#0085CC;stroke-width:1.5099;stroke-linecap:round;stroke-linejoin:round;stroke-miterlimit:10;}
	.st10{fill:#0085CC;stroke:#0085CC;stroke-width:1.4108;stroke-linecap:round;stroke-linejoin:round;stroke-miterlimit:10;}
	.st11{fill:#FB493B;stroke:#FB493B;stroke-width:2.3043;stroke-linecap:round;stroke-linejoin:round;stroke-miterlimit:10;}
	.st12{fill:#1D0EB1;}
	.st13{fill:none;stroke:#1D0EB1;stroke-width:1.3446;stroke-linecap:round;stroke-linejoin:round;}
	.st14{fill:none;}
	.st15{enable-background:new    ;}
	.st16{fill:#FB493B;stroke:#FB493B;stroke-width:2.4028;stroke-linecap:round;stroke-linejoin:round;stroke-miterlimit:10;}
	.st17{fill:none;stroke:#FB493B;stroke-width:2.4028;stroke-linecap:round;stroke-linejoin:round;stroke-miterlimit:10;}
	
		.st18{fill-rule:evenodd;clip-rule:evenodd;fill:#FB493B;stroke:#FB493B;stroke-width:2.4028;stroke-linecap:round;stroke-linejoin:round;stroke-miterlimit:10;}
</style>
<g>
	<g>
		<path class="st0" d="M743.9,606.1l-33.5-18.4l312-179.2l90.5,51.6c-9.6,20.5-12.2,41.5-6.3,65.3L743.9,606.1z"/>
	</g>
	<g>
		<path class="st1" d="M1500.5,857.6l4-4.9l-39.3-10.8l-39.5-10.4l-39.6-10.1l-39.9-9.9l-40.1-9.6l-39.8-9.1v-0.3l53.7-119.1l0,0
			c101.5,15.8,211.8-3.8,280.2-52.1c78.9-55.8,81.5-135.6,6.3-193.1v-0.1c-14.6-10.7-30-20.3-45.6-29.4l-169.5-97.9
			c-5.5,3.2-11,6.4-16.5,9.5l-40.2,23.3c-6.1,1.5-160.8,94.2-160.9,99.3c-66.6,55.1-51.2,105.5-45.3,123L737,642.5l-79.2-46.1
			l291.1-168l-26.1-21.1l36.1-25.7L710.3,237.1L243.8,503.9l271.5,156.9l48.2-27.7l75.2,43.3l-5,17.1l-67.8-5.5l-20.6,79l34.2,2.6
			l34.2,3l34,3l34,3.5l33.8,3.7l33.7,4l33.7,4.3l33.7,4.4l33.5,4.7l33.4,4.9l33.2,5.2l33.1,5.5l21.7-45.5l40.1,7.8l34.6,6.6
			l38.4,7.2l-0.2,0.5c-1,4.9,4,9.5,12,11.1l0,0c7.9,1.6,16.7-0.6,20.4-4.9l0.7-0.8l5.2,1l15.6,3.1l-2.7,22.5l-14.1,23.3l33.2,6.6
			l32.9,6.7l32.9,7.2l32.8,7.3l32.5,7.6l32.3,7.9l32.2,8.1l32,8.4l31.7,8.5l31.6,8.8l43-52.9L1500.5,857.6z"/>
		<path class="st2" d="M1500.6,835.9l4-4.9l-39.3-10.8l-39.5-10.4l-39.6-10.1l-39.9-9.9l-40.1-9.6l-39.8-9.1v-0.3l53.7-119.1l0,0
			c101.5,15.8,211.8-3.8,280.2-52.1c78.9-55.8,81.5-135.6,6.3-193.1v-0.1c-14.6-10.7-30-20.3-45.6-29.4l-169.5-97.9
			c-5.5,3.2-11,6.4-16.5,9.5l-40.2,23.3c-6.1,1.5-160.8,94.2-160.9,99.3c-66.6,55.1-53.6,105.3-47.7,122.9l-393.7,87.4l-53.8-31.1
			l293.7-168.8l-29.2-18l46.1-26.1L710.4,215.4L244,482.2l271.5,156.9l48.2-27.7l75.2,43.3l-5,17.1l-67.8-5.5l-20.6,79.1l34.2,2.6
			l34.2,3l34,3l34,3.5l33.8,3.7l33.7,4l33.7,4.3l33.7,4.4l33.5,4.7l33.4,4.9l33.2,5.2l33.1,5.5l11.9-24.3l40.1,7.8l34.6,6.6
			l38.4,7.2l-0.2,0.5c-1,4.9,4,9.5,12,11.1l0,0c7.9,1.6,16.7-0.6,20.4-4.9l0.7-0.8l5.2,1l15.6,3.1l7,1.4l-14.1,23.3l33.2,6.6
			l32.9,6.7l32.9,7.2l32.8,7.3l32.5,7.6l32.3,7.9l32.2,8.1l32,8.4l31.7,8.5l31.6,8.8l43-52.9L1500.6,835.9z"/>
		<path class="st3" d="M1107.5,555l-6.7,33.9c12.8,21.1,35.3,38.3,63.4,53.2c0,0,96.3,12.6,134.1,19.6l-43.2,90.6
			c-110.4-24.4-344.9-77.9-344.9-77.9L755.7,653l-5-24.6L1107.5,555z"/>
		<g>
			<polyline class="st4" points="1266.1,771.8 1234.1,765.1 1202.5,758.5 			"/>
			<path class="st4" d="M1144.2,764.4c-8.9,3.3-19.1,5-29.7,5.4l0,0c-8.7,0.3-17.5-0.6-25.6-2.5l-0.3-0.1l-0.1,0.2l-13.5,25.1"/>
			<line class="st5" x1="1105.6" y1="798.9" x2="1122.8" y2="769.2"/>
			<polyline class="st4" points="1115.9,784.2 1143.7,789.8 1143.8,790.1 1135.5,803.8 			"/>
			<line class="st4" x1="1410.5" y1="836.9" x2="1484" y2="857"/>
			<polyline class="st5" points="1377.3,853.2 1390.4,881.7 1385.6,888 			"/>
			<path class="st5" d="M1411.1,836.9c-0.6,0.6-1,1.2-1.6,1.7s-1.1,1-1.7,1.5c-1.3,1.1-2.7,2.2-4.1,3.2c-1.3,0.9-2.7,1.6-4,2.3
				c-1.5,0.9-3,1.6-4.5,2.3c-6.1,2.6-12.5,4.4-19,5.3c-3.2,0.5-6.4,1-9.7,1.1c-3.3,0.1-6.5,0.1-9.8-0.3c-1.7-0.2-3.5-0.3-5.2-0.6
				c-1.6-0.3-3.2-0.8-4.8-1.2c-3.1-0.9-6.2-1.9-9-3.4c-1.5-0.8-3-1.7-4.3-2.8c-0.6-0.4-1-1-1.5-1.6s-1-1.2-1.4-1.9
				c-0.7-1.5-1-3.1-1-4.7c0-1.7,0.7-3.2,1.6-4.6c0.4-0.6,0.8-1.2,1.3-1.8c-0.9-0.3-1.7-0.5-2.6-0.8"/>
			<line class="st4" x1="1331.7" y1="830.2" x2="1284.9" y2="819"/>
			<line class="st4" x1="1266.6" y1="814.9" x2="1242.8" y2="809.6"/>
			<line class="st4" x1="1224.5" y1="805.5" x2="1213.2" y2="803"/>
			<polyline class="st5" points="1212.3,802.7 1178.4,795.7 1144.3,789 			"/>
			<line class="st4" x1="1297.1" y1="822.4" x2="1271.3" y2="859.1"/>
			<line class="st4" x1="1213.2" y1="803" x2="1188.7" y2="840.5"/>
			<line class="st4" x1="1254.8" y1="812.3" x2="1230.3" y2="849.7"/>
			<polyline class="st6" points="1128.5,802.4 1135.5,803.8 1121.4,827.1 1154.7,833.7 1187.6,840.4 1220.5,847.6 1253.3,854.9 
				1285.8,862.5 1318.1,870.4 1350.3,878.5 1382.3,886.9 1414,895.4 1445.6,904.3 1488.6,851.4 			"/>
			<path class="st6" d="M1112.9,799.3l-5.2-1l-0.7,0.8c-3.7,4.3-12.5,6.5-20.4,4.9l0,0c-8-1.6-13-6.2-12-11.1v-0.5l-38.3-7.2"/>
			<path class="st4" d="M1169.3,412.5c-3.9,3.3-7.7,6.8-11.4,10.4c-8.8,8.5-16.8,18.4-23.1,29c-6.7,11.3-11.5,23.2-13.9,36.1
				c-2.3,12.1-1.6,25.1,1.5,37c0.8,3.2,1.9,6.3,2.9,9.4"/>
			<polyline class="st4" points="490.4,544.5 539.6,572.8 705.3,477.1 			"/>
			<polyline class="st4" points="476.3,536.5 395.1,489.6 522.4,416.1 			"/>
			<line class="st4" x1="414.3" y1="475.1" x2="417.2" y2="476.8"/>
			<line class="st4" x1="561" y1="393.7" x2="536.1" y2="408"/>
			<path class="st4" d="M1309,585.5c59.6,19.6,133.7,16.9,188.4-7"/>
			<path class="st4" d="M1497.5,578.6c30.6-13.3,52.6-32.2,62.3-53.6"/>
			<polyline class="st4" points="1559.8,525.2 1591.2,496.4 1660.9,495.2 			"/>
			<path class="st4" d="M1224.2,512.3c3.8,17.1,15.2,33.3,33.2,47"/>
			<path class="st4" d="M1257.4,559.3c9.1,7,19.8,13.2,31.8,18.6"/>
			<polyline class="st4" points="1540.7,366.7 1498.9,403.4 1435.2,403.7 1433.2,403.6 			"/>
			<path class="st4" d="M1433.2,403.4c-49.6-6.7-101.7-0.3-142.3,17.4"/>
			<path class="st4" d="M1290.9,420.9c-42,18.3-67.1,46.7-68,77"/>
			<polyline class="st5" points="1125.4,534.4 733.9,621 680,589.9 901.7,461.8 903.1,461.1 971.1,421.9 939.4,403.4 			"/>
			<path class="st4" d="M1151.6,575.5c6.8,7.3,14.5,14.3,23.2,20.9"/>
			<path class="st4" d="M1174.8,596.5c8.6,6.6,18.1,12.8,28.4,18.6"/>
			<path class="st5" d="M1153.7,576l-1.5-1.8l-37.4,13.3l0,0c7.3,7.9,15.3,15.4,24.7,22.6"/>
			<path class="st5" d="M1139.7,610.1c10.4,7.9,21.9,15.3,34.6,22l29-15.6"/>
			<polygon class="st5" points="747,639.9 670.1,595.5 647.6,608.5 724.6,653 			"/>
			<path class="st7" d="M957.5,743.5c5.1,1.4,10.5,2.3,16,2.8"/>
			<polyline class="st4" points="609.7,751.5 619.5,719.5 626.4,720.1 			"/>
			<line class="st4" x1="721.2" y1="730.9" x2="636.4" y2="721.3"/>
			<line class="st5" x1="744.4" y1="765.8" x2="766.9" y2="704.5"/>
			<path class="st5" d="M731,700.3c5,0.3,9.9,0.9,14.8,1.5c5.1,0.6,10.1,1.3,15.1,1.9c4.7,0.5,9.3,1.3,13.9,1.9
				c4.9,0.6,9.8,1.3,14.7,1.9c5.4,0.7,10.7,1.4,16.1,2.1c5.1,0.7,10.2,1.4,15.3,2.1c4.4,0.6,8.8,1.2,13.2,1.9
				c5.3,0.8,10.6,1.6,15.9,2.3c4.9,0.7,9.7,1.3,14.6,2c2.5,0.3,4.9,0.7,7.4,1c1.2,0.1,2.4,0.4,3.5,0.6c1.1,0.2,2.2,0.2,3.2,0.4
				c1.3,0.2,2.5,0.4,3.7,0.6"/>
			<line class="st4" x1="856.3" y1="780.5" x2="882.8" y2="720.1"/>
			<line class="st5" x1="621.2" y1="719.3" x2="636" y2="670.1"/>
			<line class="st4" x1="721.2" y1="730.9" x2="731.4" y2="701"/>
			<polyline class="st5" points="760.2,685.8 875.8,701.2 884.3,680.8 766.9,665.1 762.5,678.8 			"/>
			<line class="st4" x1="838.8" y1="461.5" x2="741.2" y2="517.9"/>
			<line class="st4" x1="727.3" y1="526" x2="648.3" y2="571.6"/>
			<line class="st4" x1="710.8" y1="535.5" x2="690.4" y2="523.7"/>
			<line class="st4" x1="676.4" y1="515.6" x2="657.5" y2="504.7"/>
			<line class="st4" x1="606.8" y1="587.3" x2="591" y2="578.1"/>
			<line class="st4" x1="577.1" y1="570.1" x2="560.8" y2="560.6"/>
			<line class="st5" x1="1526.5" y1="636.8" x2="1486.9" y2="596.7"/>
			<polyline class="st4" points="1401.2,658 1398.3,612.1 1398.3,611.7 			"/>
			<polyline class="st4" points="1651.7,542.5 1577.1,529.9 1651.7,542.5 			"/>
			<polyline class="st5" points="1579.5,529.3 1559.5,526 1652.8,541.6 			"/>
			<path class="st4" d="M1573.4,536.3c1.3-2.1,2.5-4.3,3.6-6.5"/>
			<path class="st5" d="M1527.1,578.8c12.2-7,22.7-15,31.3-23.6"/>
			<path class="st5" d="M1398.2,611.6c48.6-1.2,94.6-12.9,129-32.8"/>
			<path class="st4" d="M1369.6,610.9c9.6,0.6,19.3,0.8,29,0.6"/>
			<line class="st4" x1="1150.5" y1="489" x2="1120.8" y2="489"/>
			<line class="st4" x1="1629.4" y1="574.5" x2="1559" y2="554.7"/>
			<polyline class="st4" points="1559.6,554.8 1559.8,554.7 1560.1,554.2 1560.7,553.6 1561.3,552.8 1562.8,551 1564.2,549 			"/>
			<line class="st4" x1="707.5" y1="215.6" x2="986" y2="376.6"/>
			<line class="st4" x1="382.7" y1="563.5" x2="441.4" y2="529.7"/>
			<line class="st4" x1="336.5" y1="430.3" x2="404.7" y2="469.6"/>
			<line class="st5" x1="394.6" y1="503.1" x2="441" y2="529.8"/>
			<polyline class="st5" points="426.3,377.7 493.3,416.2 360,493.1 			"/>
			<line class="st5" x1="293.8" y1="455" x2="385.9" y2="508"/>
			<line class="st5" x1="382.3" y1="403.9" x2="448.4" y2="442"/>
			<line class="st5" x1="394.6" y1="503.1" x2="336.4" y2="536.7"/>
			<line class="st4" x1="986" y1="376.6" x2="861.5" y2="448.4"/>
			<path class="st4" d="M948.6,740.5c7.4,2.9,15.9,4.9,24.7,5.8"/>
			<path class="st4" d="M927,725.8c4.8,5.9,12.3,11,21.6,14.7"/>
			<polyline class="st4" points="915.6,744.2 937.4,747.5 917.3,789 			"/>
			<polyline class="st4" points="874.9,738.2 876.3,738.4 878.2,738.7 880.7,739 883.3,739.3 886.3,739.8 889.5,740.2 893,740.8 
				896.7,741.3 			"/>
			<line class="st4" x1="937.4" y1="747.5" x2="949.6" y2="740.8"/>
			<line class="st4" x1="672.4" y1="756.5" x2="682.6" y2="726.8"/>
			<line class="st4" x1="507" y1="362.6" x2="479.7" y2="346.7"/>
			<line class="st4" x1="758.7" y1="507.9" x2="529.2" y2="375.4"/>
			<line class="st4" x1="961.6" y1="771" x2="973.7" y2="746.3"/>
			<path class="st8" d="M1500.5,836.9l4-4.9l-39.3-10.8l-39.5-10.4l-39.6-10.1l-39.9-9.9l-40.1-9.6l-39.8-9.1v-0.3l53.7-119.1l0,0
				c101.5,15.8,211.8-3.8,280.2-52.1c78.9-55.8,81.5-135.6,6.3-193.1v-0.1c-14.6-10.7-30-20.3-45.6-29.4l-169.5-97.9
				c-5.5,3.2-11,6.4-16.5,9.5c-13.4,7.8-26.8,15.5-40.2,23.3c-16.7,9.7-33.4,19.3-50.1,29c-15.4,8.9-30.8,17.8-46.3,26.8
				c-9.5,5.5-19.1,11-28.6,16.5c-7.4,4.3-14.8,8.6-21.8,13.4c-6.3,4.3-13.4,8.4-19.3,13.4l-89.5-51.8l18.9-10.8l-32.3-18.6
				l149.4-86.3L936,83.4L243.8,483.2L515.4,640l48.2-27.7l75.2,43.3l-5,17.1l-67.8-5.5l-20.6,79.1l34.2,2.6l34.2,3l34,3l34,3.5
				l33.8,3.7l33.7,4l33.7,4.3l33.7,4.4l33.5,4.7l33.4,4.9l33.2,5.2l33.1,5.5l11.9-24.3l40.1,7.8"/>
			<line class="st4" x1="731.7" y1="700.1" x2="654.4" y2="691.4"/>
			<line class="st5" x1="1604.3" y1="597.5" x2="1541.9" y2="570.1"/>
			<line class="st4" x1="641.2" y1="567.5" x2="592.8" y2="595.4"/>
			<line class="st4" x1="578.6" y1="603.6" x2="563.5" y2="612.3"/>
			<line class="st4" x1="641.2" y1="567.5" x2="648.3" y2="571.6"/>
			<line class="st4" x1="566.9" y1="452.4" x2="448.9" y2="520.7"/>
			<line class="st4" x1="660" y1="450.9" x2="612.2" y2="478.6"/>
			<line class="st4" x1="657.5" y1="504.7" x2="513.7" y2="421.7"/>
			<line class="st5" x1="1487.3" y1="647.7" x2="1459.9" y2="604.2"/>
			<path class="st4" d="M1337.8,607.1c-4.9-1.1-9.8-2.1-14.7-3.3c-5.2-1.2-10.6-1.8-15.7,0.1c-3.8,1.4-5.9,4.8-8.4,7.8
				c-4.9,6-9.8,12.1-14.7,18.1c-3.5,4.4-7.1,8.7-10.6,13.1l-0.1-0.1c15.1,4.2,30.6,7.4,46.3,9.9"/>
			<line class="st4" x1="647.7" y1="712.6" x2="644.7" y2="722.2"/>
			<line class="st4" x1="654.4" y1="691.4" x2="651.5" y2="700.9"/>
			<path class="st4" d="M1201.8,468c-2.8,6.5-5,13-6.4,19.6l-0.1,1.4h-22"/>
			<line class="st4" x1="1132.4" y1="456.2" x2="1207.9" y2="468.9"/>
			<line class="st4" x1="1222.8" y1="471.3" x2="1228.7" y2="472.1"/>
			<g>
				<polygon class="st9" points="953.4,706.9 962.6,708.4 957.8,718.3 948.6,716.8 				"/>
				<polygon class="st9" points="1019.6,717.6 1026,718.7 1020.9,728.5 1014.4,727.4 				"/>
				<polygon class="st9" points="1081.4,728.4 1087.8,729.6 1082.7,739.3 1076.2,738.2 				"/>
				<polygon class="st9" points="1142.4,739.3 1151.6,741.1 1145.6,750.8 1136.4,748.9 				"/>
			</g>
			<g>
				<polygon class="st10" points="821.6,687.1 817.9,696.9 883.9,705.7 888.2,696 				"/>
				<polygon class="st10" points="759.8,679.3 756,689.1 765.2,690.3 769,680.5 				"/>
				<polygon class="st10" points="701.9,659.8 694.5,681.3 705.6,682.6 712.9,661 				"/>
			</g>
			<line class="st5" x1="872.3" y1="443" x2="902.4" y2="461.1"/>
		</g>
		<g>
			<polygon class="st11" points="987.5,805.5 1027.1,812.1 1012.6,797.5 			"/>
		</g>
	</g>
	<g>
		<path class="st12" d="M968.6,836.9l0.8-6.4l-0.8-6.4H979c1.2,0,2.2,0.3,3,0.9c0.7,0.6,1.1,1.4,1.1,2.3c0,0.9-0.4,1.7-1.1,2.3
			c-0.7,0.6-1.8,0.9-3.1,1.1l0.3-0.7c1.5,0.1,2.7,0.4,3.5,1s1.2,1.4,1.2,2.4c0,1.1-0.4,2-1.2,2.6s-1.9,1-3.3,1L968.6,836.9
			L968.6,836.9z M973,835.9l-1.8-1.9h6.5c0.5,0,0.9-0.1,1.1-0.3c0.2-0.2,0.4-0.5,0.4-0.9s-0.1-0.7-0.4-0.9c-0.3-0.2-0.7-0.3-1.2-0.3
			h-5.5v-2.4h5c0.5,0,0.8-0.1,1.1-0.3c0.2-0.2,0.4-0.5,0.4-0.8s-0.1-0.6-0.3-0.8s-0.5-0.3-1-0.3h-5.9l1.7-1.9l0.7,5.4L973,835.9z"/>
		<path class="st12" d="M984,836.9l5.9-7.2v1.3l-5.6-7h5.1l3.6,4.4h-1.3l3.6-4.4h5l-5.8,7l-0.2-1.8l6.4,7.6h-5.2l-3.9-4.7h1.4
			l-3.9,4.7H984V836.9z"/>
		<path class="st12" d="M1009,837.2c-1.6,0-3.1-0.3-4.3-0.8c-1.2-0.6-2.2-1.4-2.9-2.4s-1-2.2-1-3.5c0-1.4,0.3-2.5,1-3.6
			c0.7-1,1.6-1.8,2.9-2.4c1.2-0.6,2.7-0.9,4.3-0.9s3.1,0.3,4.3,0.9c1.2,0.6,2.2,1.4,2.9,2.4s1,2.2,1,3.6c0,1.3-0.3,2.5-1,3.5
			s-1.6,1.8-2.9,2.4C1012.1,837,1010.6,837.2,1009,837.2z M1009,833.9c0.7,0,1.4-0.1,1.9-0.4c0.5-0.3,0.9-0.7,1.2-1.2
			s0.4-1.1,0.4-1.8s-0.1-1.3-0.4-1.8c-0.3-0.5-0.7-0.9-1.2-1.2s-1.2-0.4-1.9-0.4s-1.4,0.1-1.9,0.4c-0.5,0.3-1,0.7-1.2,1.2
			c-0.3,0.5-0.4,1.1-0.4,1.8s0.1,1.3,0.4,1.8c0.3,0.5,0.7,0.9,1.2,1.2C1007.6,833.7,1008.3,833.9,1009,833.9z"/>
		<path class="st12" d="M1037.1,833.5v6.5h-3.9v-3.1H1022v3.1h-3.9v-6.5h3.9l0.9,0.1h9.3l0.8-0.1H1037.1z M1020.7,824.1h14.1V836
			h-4.6v-10.7l2.1,2.1h-9.4l1.7-1.7c0.2,0.6,0.3,1.2,0.4,1.7c0,0.5,0.1,1,0.1,1.5c0,2.1-0.4,3.7-1.1,4.8c-0.7,1.1-1.7,1.7-3,1.7
			l-1.9-1.6c1.2-0.8,1.7-2.8,1.7-5.9c0-0.6,0-1.2-0.1-1.9C1020.9,825.5,1020.8,824.8,1020.7,824.1z"/>
	</g>
	<g>
		<g>
			<circle class="st12" cx="796.2" cy="644.7" r="19.9"/>
		</g>
		<path class="st2" d="M785.7,637.1v5.4c0,0.2,0.1,0.4,0.3,0.6l13.9,9.8c0.1,0.1,0.2,0.1,0.3,0.1h6c0.3,0,0.6-0.3,0.6-0.6v-4.9
			c0-0.3-0.3-0.6-0.6-0.6h-4.1v-2.8c0-0.3-0.3-0.6-0.6-0.6h-4.1v-2.8c0-0.3-0.3-0.6-0.6-0.6h-4.1v-2.8c0-0.3-0.3-0.6-0.6-0.6h-5.9
			C785.9,636.4,785.7,636.7,785.7,637.1z M791.5,637.7v2.8c0,0.3,0.3,0.6,0.6,0.6h4.1v2.8c0,0.3,0.3,0.6,0.6,0.6h4.1v2.8
			c0,0.3,0.3,0.6,0.6,0.6h4.1v3.7h-5.3l-13.5-9.6v-4.4L791.5,637.7z"/>
		<g>
			<path class="st12" d="M796.2,662.4c0.6,0.6,1,1.3,1.4,1.9c0,0.6,0,1.3,0,1.9v3.8c0,1.2,0,4.5,0,5.7c-0.4,0.6-0.9,1.3-1.4,1.9
				c-0.6-0.6-1-1.3-1.4-1.9c0-1.2,0-4.5,0-5.7v-3.8c0-0.6,0-1.3,0-1.9C795.2,663.7,795.6,663,796.2,662.4L796.2,662.4z"/>
		</g>
	</g>
	<g>
		<g>
			<circle class="st12" cx="632.1" cy="700.9" r="19.9"/>
		</g>
		<path class="st2" d="M642.1,692.7h-5.9c-0.3,0-0.6,0.3-0.6,0.6v2.8h-4.1c-0.3,0-0.6,0.3-0.6,0.6v2.8h-4.1c-0.3,0-0.6,0.3-0.6,0.6
			v2.8h-4.1c-0.3,0-0.6,0.3-0.6,0.6v4.9c0,0.3,0.3,0.6,0.6,0.6h6c0.1,0,0.2,0,0.3-0.1l13.9-9.8c0.2-0.1,0.3-0.3,0.3-0.6v-5.4
			C642.6,693,642.4,692.7,642.1,692.7z M641.5,693.9v4.4l-13.5,9.6h-5.3v-3.7h4.1c0.3,0,0.6-0.3,0.6-0.6v-2.8h4.1
			c0.3,0,0.6-0.3,0.6-0.6v-2.8h4.1c0.3,0,0.6-0.3,0.6-0.6V694L641.5,693.9z"/>
		<g>
			<path class="st12" d="M632.1,718.6c0.6,0.6,1,1.3,1.4,1.9c0,0.6,0,1.3,0,1.9v3.8c0,1.2,0,4.5,0,5.7c-0.4,0.6-0.9,1.3-1.4,1.9
				c-0.6-0.6-1-1.3-1.4-1.9c0-1.2,0-4.5,0-5.7v-3.8c0-0.6,0-1.3,0-1.9C631.1,719.9,631.5,719.3,632.1,718.6L632.1,718.6z"/>
		</g>
	</g>
	<g>
		<g>
			<circle class="st12" cx="1162.3" cy="569.1" r="19.9"/>
		</g>
		<path class="st2" d="M1172.3,560.8h-5.9c-0.3,0-0.6,0.3-0.6,0.6v2.8h-4.1c-0.3,0-0.6,0.3-0.6,0.6v2.8h-4.1c-0.3,0-0.6,0.3-0.6,0.6
			v2.8h-4.1c-0.3,0-0.6,0.3-0.6,0.6v4.9c0,0.3,0.3,0.6,0.6,0.6h6c0.1,0,0.2,0,0.3-0.1l13.9-9.8c0.2-0.1,0.3-0.3,0.3-0.6v-5.4
			C1172.9,561.1,1172.6,560.8,1172.3,560.8z M1171.7,562.1v4.4l-13.5,9.6h-5.3v-3.7h4.1c0.3,0,0.6-0.3,0.6-0.6V569h4.1
			c0.3,0,0.6-0.3,0.6-0.6v-2.8h4.1c0.3,0,0.6-0.3,0.6-0.6v-2.8L1171.7,562.1z"/>
		<g>
			<path class="st12" d="M1162.3,586.8c0.6,0.6,1,1.3,1.4,1.9c0,0.6,0,1.3,0,1.9v3.8c0,1.2,0,4.5,0,5.7c-0.4,0.6-0.9,1.3-1.4,1.9
				c-0.6-0.6-1-1.3-1.4-1.9c0-1.2,0-4.5,0-5.7v-3.8c0-0.6,0-1.3,0-1.9C1161.3,588,1161.7,587.4,1162.3,586.8L1162.3,586.8z"/>
		</g>
	</g>
	<g>
		<g>
			<circle class="st12" cx="1602.5" cy="524.2" r="19.9"/>
		</g>
		<path class="st2" d="M1612.4,516h-5.9c-0.3,0-0.6,0.3-0.6,0.6v2.8h-4.1c-0.3,0-0.6,0.3-0.6,0.6v2.8h-4.1c-0.3,0-0.6,0.3-0.6,0.6
			v2.8h-4.1c-0.3,0-0.6,0.3-0.6,0.6v4.9c0,0.3,0.3,0.6,0.6,0.6h6c0.1,0,0.2,0,0.3-0.1l13.9-9.8c0.2-0.1,0.3-0.3,0.3-0.6v-5.4
			C1613,516.3,1612.7,516,1612.4,516z M1611.8,517.2v4.4l-13.5,9.6h-5.3v-3.7h4.1c0.3,0,0.6-0.3,0.6-0.6v-2.8h4.1
			c0.3,0,0.6-0.3,0.6-0.6v-2.8h4.1c0.3,0,0.6-0.3,0.6-0.6v-2.8L1611.8,517.2z"/>
		<g>
			<path class="st12" d="M1602.5,541.9c0.6,0.6,1,1.3,1.4,1.9c0,0.6,0,1.3,0,1.9v3.8c0,1.2,0,4.5,0,5.7c-0.4,0.6-0.9,1.3-1.4,1.9
				c-0.6-0.6-1-1.3-1.4-1.9c0-1.2,0-4.5,0-5.7v-3.8c0-0.6,0-1.3,0-1.9C1601.5,543.2,1601.9,542.6,1602.5,541.9L1602.5,541.9z"/>
		</g>
	</g>
	<g>
		<g>
			<circle class="st12" cx="697.3" cy="591.6" r="19.9"/>
		</g>
		<g>
			<path class="st12" d="M697.3,609.3c1.1,1.3,1.4,2.1,1.2,3.8v3.8c0,1.2,0,4.5,0,5.7c-0.4,0.6-0.7,1.3-1.2,1.9
				c-0.5-0.6-0.9-1.3-1.2-1.9c0-1.2,0-4.5,0-5.7v-3.8C695.9,611.4,696.1,610.6,697.3,609.3L697.3,609.3z"/>
		</g>
		<g>
			<path class="st2" d="M685,589.4c0.1,0.5,0.4,1.7,1.6,2.4c0.3,0.2,0.6,0.3,0.9,0.3c0.1,0,0.2,0,0.3,0h3.3c0.1,0,0.1,0,0.2,0.1
				l10.4,7.8c0.3,0.2,0.6,0.3,0.9,0.3h6c0.2,0,0.4,0,0.5-0.1c0.5-0.2,1.4-0.7,2-1.8c0.2-0.4,0.7-1.6,0-3c-0.6-1.3-1.7-1.8-2.2-1.9
				c-0.1,0-0.3-0.1-0.4-0.1h-3.6c-0.1,0-0.1,0-0.2-0.1l-1.3-1v-3.5c0-0.2-0.1-1-0.7-1.5c-0.1-0.1-0.8-0.7-1.8-0.4
				c-0.6,0.2-1.1,0.6-1.4,1.3c-0.1,0.1-0.1,0.3-0.1,0.4v0.1v0.6l-5-3.8c-0.3-0.2-0.6-0.3-0.9-0.3h-5.3c-0.2,0-0.3,0-0.4,0.1
				c-0.4,0.1-1.1,0.4-1.6,1C685.8,586.5,684.7,587.7,685,589.4z M686.7,587.1c0.4-0.4,0.8-0.6,1.1-0.7h0.1h5.3c0.1,0,0.1,0,0.2,0.1
				l10.5,7.8c0.3,0.2,0.6,0.3,0.9,0.3h3.6h0.1c0.3,0.1,1.1,0.4,1.5,1.3c0.4,1,0.1,1.9,0,2c-0.4,0.8-1,1.1-1.3,1.2h-0.1h-6
				c-0.1,0-0.1,0-0.2-0.1l-10.4-7.8c-0.3-0.2-0.6-0.3-0.9-0.3h-3.3l0,0c-0.2,0-0.4-0.1-0.5-0.2c-0.7-0.4-0.9-1.2-1-1.6
				C685.9,588,686.7,587.1,686.7,587.1z"/>
			<path class="st2" d="M701.3,586.7c-1.1,0-1.9-0.9-1.9-1.9c0-1.1,0.9-1.9,1.9-1.9c1.1,0,1.9,0.9,1.9,1.9
				C703.2,585.9,702.3,586.7,701.3,586.7z"/>
		</g>
	</g>
	<g>
		<g>
			<circle class="st12" cx="917.9" cy="398.7" r="19.9"/>
		</g>
		<g>
			<path class="st12" d="M917.9,416.4c1.1,1.3,1.4,2.1,1.2,3.8v3.8c0,1.2,0,4.5,0,5.7c-0.4,0.6-0.7,1.3-1.2,1.9
				c-0.5-0.6-0.9-1.3-1.2-1.9c0-1.2,0-4.5,0-5.7v-3.8C916.5,418.6,916.8,417.7,917.9,416.4L917.9,416.4z"/>
		</g>
		<g>
			<path class="st2" d="M905.7,396.6c0.1,0.5,0.4,1.7,1.6,2.4c0.3,0.2,0.6,0.3,0.9,0.3c0.1,0,0.2,0,0.3,0h3.3c0.1,0,0.1,0,0.2,0.1
				l10.4,7.8c0.3,0.2,0.6,0.3,0.9,0.3h6c0.2,0,0.4,0,0.5-0.1c0.5-0.2,1.4-0.7,2-1.8c0.2-0.4,0.7-1.6,0-3c-0.6-1.3-1.7-1.8-2.2-1.9
				c-0.1,0-0.3-0.1-0.4-0.1h-3.6c-0.1,0-0.1,0-0.2-0.1l-1.3-1V396c0-0.2-0.1-1-0.7-1.5c-0.1-0.1-0.8-0.7-1.8-0.4
				c-0.6,0.2-1.1,0.6-1.4,1.3c-0.1,0.1-0.1,0.3-0.1,0.4v0.1v0.6l-5-3.8c-0.3-0.2-0.6-0.3-0.9-0.3h-5.3c-0.2,0-0.3,0-0.4,0.1
				c-0.4,0.1-1.1,0.4-1.6,1C906.4,393.6,905.4,394.9,905.7,396.6z M907.4,394.2c0.4-0.4,0.8-0.6,1.1-0.7h0.1h5.3
				c0.1,0,0.1,0,0.2,0.1l10.5,7.8c0.3,0.2,0.6,0.3,0.9,0.3h3.6h0.1c0.3,0.1,1.1,0.4,1.5,1.3c0.4,1,0.1,1.9,0,2
				c-0.4,0.8-1,1.1-1.3,1.2h-0.1h-6c-0.1,0-0.1,0-0.2-0.1l-10.4-7.8c-0.3-0.2-0.6-0.3-0.9-0.3h-3.3l0,0c-0.2,0-0.4-0.1-0.5-0.2
				c-0.7-0.4-0.9-1.2-1-1.6C906.6,395.2,907.4,394.3,907.4,394.2z"/>
			<path class="st2" d="M921.9,393.9c-1.1,0-1.9-0.9-1.9-1.9c0-1.1,0.9-1.9,1.9-1.9c1.1,0,1.9,0.9,1.9,1.9
				C923.8,393,923,393.9,921.9,393.9z"/>
		</g>
	</g>
	<g>
		<g>
			<polyline class="st13" points="913.3,673.8 913.3,832 568,832 			"/>
			<g>
				<path class="st12" d="M908.3,673.8c0-2.8,2.3-5.1,5.1-5.1s5.1,2.3,5.1,5.1s-2.3,5.1-5.1,5.1
					C910.5,678.9,908.3,676.6,908.3,673.8z"/>
			</g>
		</g>
	</g>
	<g>
		<g>
			<polyline class="st13" points="949,562 949,904.5 858,904.5 			"/>
			<g>
				<path class="st12" d="M943.9,562c0-2.8,2.3-5.1,5-5.1s5.1,2.3,5.1,5c0,2.8-2.3,5.1-5,5.1S943.9,564.8,943.9,562z"/>
			</g>
		</g>
	</g>
	<g>
		<g>
			<circle class="st12" cx="704.5" cy="667.2" r="19.9"/>
		</g>
		<g>
			<path class="st12" d="M704.5,684.9c1.1,1.3,1.4,2.1,1.2,3.8v3.8c0,1.2,0,4.5,0,5.7c-0.4,0.6-0.7,1.3-1.2,1.9
				c-0.5-0.6-0.9-1.3-1.2-1.9c0-1.2,0-4.5,0-5.7v-3.8C703.1,687.1,703.4,686.2,704.5,684.9L704.5,684.9z"/>
		</g>
		<g>
			<path class="st2" d="M713.2,663.2L696,663c-0.7,0-1.2,0.5-1.2,1.2l-0.1,13.1c0,0.7,0.5,1.2,1.2,1.2l17.3,0.2
				c0.7,0,1.2-0.5,1.2-1.2l0.1-13.1C714.5,663.8,713.9,663.2,713.2,663.2z M695.9,664.3C695.9,664.3,695.9,664.2,695.9,664.3
				l17.3,0.1l0,0l-0.1,13.1l0,0l-17.3-0.2l0,0L695.9,664.3z"/>
			<path class="st2" d="M699.9,661.8C699.9,661.8,700,661.9,699.9,661.8C700,661.9,700,661.9,699.9,661.8c0.1,0.1,0.2,0.2,0.2,0.2
				l0,0l0,0c0.1,0,0.1,0,0.2,0l0,0l0,0l0,0l0,0c0.1,0,0.1,0,0.2,0l0,0c0.1,0,0.1-0.1,0.2-0.1l0,0c0,0,0,0,0.1-0.1l0,0l2.9-3.6
				c0.1-0.1,0.2-0.3,0.1-0.5c0-0.2-0.1-0.3-0.2-0.4c-0.3-0.2-0.7-0.2-0.9,0.1l-1.8,2.2l0.1-5.4c0-0.3-0.3-0.6-0.6-0.6
				s-0.6,0.3-0.6,0.6l-0.1,5.5l-1.7-1.9c-0.1-0.1-0.3-0.2-0.4-0.2c-0.2,0-0.3,0-0.5,0.1c-0.1,0.1-0.2,0.3-0.2,0.4s0,0.3,0.1,0.5
				L699.9,661.8z"/>
			<path class="st2" d="M706.3,658.1c0.2,0,0.4-0.1,0.5-0.2l1.7-1.9l-0.1,5.5c0,0.3,0.3,0.6,0.6,0.6s0.6-0.3,0.6-0.6l0.1-5.4
				l1.7,2.2c0.2,0.3,0.6,0.3,0.9,0.1c0.3-0.2,0.3-0.6,0.1-0.9l-2.8-3.6l0,0c0,0,0-0.1-0.1-0.1l0,0l0,0c0,0-0.1-0.1-0.2-0.1l0,0
				c-0.1,0-0.1,0-0.2,0l0,0c-0.1,0-0.1,0-0.2,0l0,0l0,0c-0.1,0-0.1,0-0.1,0.1l0,0l-0.1,0.1l-2.8,3.2c-0.2,0.3-0.2,0.7,0.1,0.9
				C706,658,706.1,658,706.3,658.1z"/>
			<path class="st2" d="M699.5,667.3c0.5,0,0.9-0.4,0.9-0.9s-0.4-0.9-0.9-0.9s-0.9,0.4-0.9,0.9C698.6,666.9,699,667.3,699.5,667.3z"
				/>
			<path class="st2" d="M709.5,667.4c0.5,0,0.9-0.4,0.9-0.9s-0.4-0.9-0.9-0.9s-0.9,0.4-0.9,0.9S709,667.4,709.5,667.4z"/>
			<path class="st2" d="M704.6,667.3c0.5,0,0.9-0.4,0.9-0.9s-0.4-0.9-0.9-0.9s-0.9,0.4-0.9,0.9C703.7,666.9,704.1,667.3,704.6,667.3
				z"/>
			<path class="st2" d="M698.1,672.4L698.1,672.4l0.1,3.6c0,0.3,0.3,0.6,0.6,0.6c0.2,0,0.3,0,0.4-0.2c0.1-0.1,0.2-0.3,0.2-0.5v-3.5
				h0.2v3.6c0,0.3,0.2,0.6,0.5,0.6l0,0c0.2,0,0.3,0,0.4-0.2c0.1-0.1,0.2-0.3,0.2-0.5v-3.5l0,0c0.4,0,0.6-0.3,0.7-0.6v-2.6
				c0-0.9-0.7-1.7-1.7-1.7H699c-0.9,0-1.7,0.7-1.7,1.7v2.6C697.5,672.1,697.8,672.4,698.1,672.4z"/>
			<path class="st2" d="M703.2,672.5L703.2,672.5l0.1,3.6c0,0.3,0.3,0.6,0.6,0.6c0.2,0,0.3,0,0.4-0.2c0.1-0.1,0.2-0.3,0.2-0.5v-3.5
				h0.2v3.6c0,0.3,0.3,0.6,0.6,0.6c0.2,0,0.3,0,0.4-0.2c0.1-0.1,0.2-0.3,0.2-0.5v-3.5l0,0c0.4,0,0.6-0.3,0.7-0.6v-2.6
				c0-0.9-0.7-1.7-1.7-1.7h-0.7c-0.9,0-1.7,0.7-1.7,1.6v2.6C702.5,672.2,702.8,672.5,703.2,672.5z"/>
			<path class="st2" d="M708.1,672.5L708.1,672.5v3.6c0,0.3,0.3,0.6,0.6,0.6c0.2,0,0.3,0,0.4-0.2c0.1-0.1,0.2-0.3,0.2-0.5v-3.5h0.2
				v3.6c0,0.3,0.3,0.6,0.6,0.6c0.2,0,0.3,0,0.4-0.2c0.1-0.1,0.2-0.3,0.2-0.5v-3.5l0,0c0.4,0,0.6-0.3,0.7-0.6v-2.6
				c0-0.9-0.7-1.7-1.7-1.7H709c-0.9,0-1.7,0.7-1.7,1.7v2.6C707.4,672.2,707.7,672.5,708.1,672.5z"/>
		</g>
	</g>
	<g>
		<g>
			<circle class="st12" cx="1160.3" cy="442.3" r="19.9"/>
		</g>
		<g>
			<path class="st12" d="M1160.3,460c1.1,1.3,1.4,2.1,1.2,3.8v3.8c0,1.2,0,4.5,0,5.7c-0.4,0.6-0.7,1.3-1.2,1.9
				c-0.5-0.6-0.9-1.3-1.2-1.9c0-1.2,0-4.5,0-5.7v-3.8C1158.9,462.1,1159.2,461.3,1160.3,460L1160.3,460z"/>
		</g>
		<g>
			<path class="st2" d="M1169,438.3l-17.3-0.2c-0.7,0-1.2,0.5-1.2,1.2l-0.1,13.1c0,0.7,0.5,1.2,1.2,1.2l17.3,0.2
				c0.7,0,1.2-0.5,1.2-1.2l0.1-13.1C1170.2,438.8,1169.7,438.3,1169,438.3z M1151.7,439.3L1151.7,439.3l17.3,0.1l0,0l-0.1,13.1l0,0
				l-17.3-0.2l0,0L1151.7,439.3z"/>
			<path class="st2" d="M1155.7,436.8C1155.7,436.9,1155.7,436.9,1155.7,436.8L1155.7,436.8c0.1,0.1,0.2,0.2,0.2,0.2l0,0l0,0
				c0.1,0,0.1,0,0.2,0l0,0l0,0l0,0l0,0c0.1,0,0.1,0,0.2,0l0,0c0.1,0,0.1-0.1,0.2-0.1l0,0c0,0,0,0,0.1-0.1l0,0l2.9-3.6
				c0.1-0.1,0.2-0.3,0.1-0.5c0-0.2-0.1-0.3-0.2-0.4c-0.3-0.2-0.7-0.2-0.9,0.1l-1.8,2.2l0.1-5.4c0-0.3-0.3-0.6-0.6-0.6
				c-0.3,0-0.6,0.3-0.6,0.6l-0.1,5.5l-1.7-1.9c-0.1-0.1-0.3-0.2-0.4-0.2c-0.2,0-0.3,0-0.5,0.1c-0.1,0.1-0.2,0.3-0.2,0.4
				c0,0.2,0,0.3,0.1,0.5L1155.7,436.8z"/>
			<path class="st2" d="M1162,433.1c0.2,0,0.4-0.1,0.5-0.2l1.7-1.9l-0.1,5.5c0,0.3,0.3,0.6,0.6,0.6c0.3,0,0.6-0.3,0.6-0.6l0.1-5.4
				l1.7,2.2c0.2,0.3,0.6,0.3,0.9,0.1c0.3-0.2,0.3-0.6,0.1-0.9l-2.8-3.6l0,0c0,0,0-0.1-0.1-0.1l0,0l0,0c0,0-0.1-0.1-0.2-0.1l0,0
				c-0.1,0-0.1,0-0.2,0l0,0c-0.1,0-0.1,0-0.2,0l0,0l0,0c-0.1,0-0.1,0-0.1,0.1l0,0l-0.1,0.1l-2.8,3.2c-0.2,0.3-0.2,0.7,0.1,0.9
				C1161.7,433,1161.9,433.1,1162,433.1z"/>
			<path class="st2" d="M1155.3,442.3c0.5,0,0.9-0.4,0.9-0.9s-0.4-0.9-0.9-0.9s-0.9,0.4-0.9,0.9S1154.8,442.3,1155.3,442.3z"/>
			<path class="st2" d="M1165.2,442.4c0.5,0,0.9-0.4,0.9-0.9s-0.4-0.9-0.9-0.9s-0.9,0.4-0.9,0.9
				C1164.4,442,1164.7,442.4,1165.2,442.4z"/>
			<path class="st2" d="M1160.3,442.4c0.5,0,0.9-0.4,0.9-0.9s-0.4-0.9-0.9-0.9s-0.9,0.4-0.9,0.9S1159.8,442.4,1160.3,442.4z"/>
			<path class="st2" d="M1153.9,447.5L1153.9,447.5l0.1,3.6c0,0.3,0.3,0.6,0.6,0.6c0.2,0,0.3,0,0.4-0.2c0.1-0.1,0.2-0.3,0.2-0.5
				v-3.5h0.2v3.6c0,0.3,0.2,0.6,0.5,0.6l0,0c0.2,0,0.3,0,0.4-0.2c0.1-0.1,0.2-0.3,0.2-0.5v-3.5l0,0c0.4,0,0.6-0.3,0.7-0.6v-2.6
				c0-0.9-0.7-1.7-1.7-1.7h-0.7c-0.9,0-1.7,0.7-1.7,1.6v2.6C1153.3,447.2,1153.6,447.5,1153.9,447.5z"/>
			<path class="st2" d="M1158.9,447.5L1158.9,447.5l0.1,3.6c0,0.3,0.3,0.6,0.6,0.6c0.2,0,0.3,0,0.4-0.2c0.1-0.1,0.2-0.3,0.2-0.5
				v-3.5h0.2v3.6c0,0.3,0.3,0.6,0.6,0.6c0.2,0,0.3,0,0.4-0.2c0.1-0.1,0.2-0.3,0.2-0.5v-3.5l0,0c0.4,0,0.6-0.3,0.7-0.6v-2.6
				c0-0.9-0.7-1.7-1.7-1.7h-0.7c-0.9,0-1.7,0.7-1.7,1.6v2.6C1158.3,447.2,1158.6,447.5,1158.9,447.5z"/>
			<path class="st2" d="M1163.8,447.6L1163.8,447.6v3.6c0,0.3,0.3,0.6,0.6,0.6c0.2,0,0.3,0,0.4-0.2c0.1-0.1,0.2-0.3,0.2-0.5v-3.5
				h0.2v3.6c0,0.3,0.3,0.6,0.6,0.6c0.2,0,0.3,0,0.4-0.2c0.1-0.1,0.2-0.3,0.2-0.5v-3.5l0,0c0.4,0,0.6-0.3,0.7-0.6v-2.6
				c0-0.9-0.7-1.7-1.7-1.7h-0.7c-0.9,0-1.7,0.7-1.7,1.6v2.6C1163.2,447.3,1163.5,447.6,1163.8,447.6z"/>
		</g>
	</g>
	<g>
		<g>
			<circle class="st12" cx="1263" cy="803.3" r="19.9"/>
		</g>
		<path class="st2" d="M1272.9,795h-5.9c-0.3,0-0.6,0.3-0.6,0.6v2.8h-4.1c-0.3,0-0.6,0.3-0.6,0.6v2.8h-4.1c-0.3,0-0.6,0.3-0.6,0.6
			v2.8h-4.1c-0.3,0-0.6,0.3-0.6,0.6v4.9c0,0.3,0.3,0.6,0.6,0.6h6c0.1,0,0.2,0,0.3-0.1l13.9-9.8c0.2-0.1,0.3-0.3,0.3-0.6v-5.4
			C1273.5,795.3,1273.3,795,1272.9,795z M1272.4,796.3v4.4l-13.5,9.6h-5.3v-3.7h4.1c0.3,0,0.6-0.3,0.6-0.6v-2.8h4.1
			c0.3,0,0.6-0.3,0.6-0.6v-2.8h4.1c0.3,0,0.6-0.3,0.6-0.6v-2.8L1272.4,796.3z"/>
		<g>
			<path class="st12" d="M1263,820.9c0.6,0.6,1,1.3,1.4,1.9c0,0.6,0,1.3,0,1.9v3.8c0,1.2,0,4.5,0,5.7c-0.4,0.6-0.9,1.3-1.4,1.9
				c-0.6-0.6-1-1.3-1.4-1.9c0-1.2,0-4.5,0-5.7v-3.8c0-0.6,0-1.3,0-1.9C1262,822.2,1262.4,821.6,1263,820.9L1263,820.9z"/>
		</g>
	</g>
	<g>
		<g>
			<circle class="st12" cx="1219.6" cy="792.1" r="19.9"/>
		</g>
		<g>
			<path class="st12" d="M1219.6,809.7c1.1,1.3,1.4,2.1,1.2,3.8v3.8c0,1.2,0,4.5,0,5.7c-0.4,0.6-0.7,1.3-1.2,1.9
				c-0.5-0.6-0.9-1.3-1.2-1.9c0-1.2,0-4.5,0-5.7v-3.8C1218.2,811.9,1218.5,811,1219.6,809.7L1219.6,809.7z"/>
		</g>
		<g>
			<path class="st2" d="M1228.3,788l-17.3-0.2c-0.7,0-1.2,0.5-1.2,1.2l-0.1,13.1c0,0.7,0.5,1.2,1.2,1.2l17.3,0.2
				c0.7,0,1.2-0.5,1.2-1.2l0.1-13.1C1229.5,788.6,1229,788,1228.3,788z M1211,789.1L1211,789.1l17.3,0.1l0,0l-0.1,13.1l0,0
				l-17.3-0.2l0,0L1211,789.1z"/>
			<path class="st2" d="M1215,786.6C1215,786.6,1215,786.7,1215,786.6C1215,786.7,1215,786.7,1215,786.6c0.1,0.1,0.2,0.2,0.2,0.2
				l0,0l0,0c0.1,0,0.1,0,0.2,0l0,0l0,0l0,0l0,0c0.1,0,0.1,0,0.2,0l0,0c0.1,0,0.1-0.1,0.2-0.1l0,0c0,0,0,0,0.1-0.1l0,0l2.9-3.6
				c0.1-0.1,0.2-0.3,0.1-0.5c0-0.2-0.1-0.3-0.2-0.4c-0.3-0.2-0.7-0.2-0.9,0.1l-1.8,2.2l0.1-5.4c0-0.3-0.3-0.6-0.6-0.6
				s-0.6,0.3-0.6,0.6l-0.1,5.5l-1.7-1.9c-0.1-0.1-0.3-0.2-0.4-0.2c-0.2,0-0.3,0-0.5,0.1c-0.1,0.1-0.2,0.3-0.2,0.4
				c0,0.2,0,0.3,0.1,0.5L1215,786.6z"/>
			<path class="st2" d="M1221.3,782.9c0.2,0,0.4-0.1,0.5-0.2l1.7-1.9l-0.1,5.5c0,0.3,0.3,0.6,0.6,0.6c0.3,0,0.6-0.3,0.6-0.6l0.1-5.4
				l1.7,2.2c0.2,0.3,0.6,0.3,0.9,0.1s0.3-0.6,0.1-0.9l-2.8-3.6l0,0c0,0,0-0.1-0.1-0.1l0,0l0,0c0,0-0.1-0.1-0.2-0.1l0,0
				c-0.1,0-0.1,0-0.2,0l0,0c-0.1,0-0.1,0-0.2,0l0,0l0,0c-0.1,0-0.1,0-0.1,0.1l0,0l-0.1,0.1l-2.8,3.2c-0.2,0.3-0.2,0.7,0.1,0.9
				C1221,782.8,1221.1,782.9,1221.3,782.9z"/>
			<path class="st2" d="M1214.6,792.1c0.5,0,0.9-0.4,0.9-0.9s-0.4-0.9-0.9-0.9s-0.9,0.4-0.9,0.9
				C1213.7,791.7,1214.1,792.1,1214.6,792.1z"/>
			<path class="st2" d="M1224.5,792.2c0.5,0,0.9-0.4,0.9-0.9s-0.4-0.9-0.9-0.9s-0.9,0.4-0.9,0.9S1224,792.2,1224.5,792.2z"/>
			<path class="st2" d="M1219.6,792.1c0.5,0,0.9-0.4,0.9-0.9s-0.4-0.9-0.9-0.9s-0.9,0.4-0.9,0.9S1219.1,792.1,1219.6,792.1z"/>
			<path class="st2" d="M1213.2,797.2L1213.2,797.2l0.1,3.6c0,0.3,0.3,0.6,0.6,0.6c0.2,0,0.3,0,0.4-0.2c0.1-0.1,0.2-0.3,0.2-0.5
				v-3.5h0.2v3.6c0,0.3,0.2,0.6,0.5,0.6l0,0c0.2,0,0.3,0,0.4-0.2c0.1-0.1,0.2-0.3,0.2-0.5v-3.5l0,0c0.4,0,0.6-0.3,0.7-0.6V794
				c0-0.9-0.7-1.7-1.7-1.7h-0.7c-0.9,0-1.7,0.7-1.7,1.6v2.6C1212.5,796.9,1212.8,797.2,1213.2,797.2z"/>
			<path class="st2" d="M1218.2,797.3L1218.2,797.3l0.1,3.6c0,0.3,0.3,0.6,0.6,0.6c0.2,0,0.3,0,0.4-0.2c0.1-0.1,0.2-0.3,0.2-0.5
				v-3.5h0.2v3.6c0,0.3,0.3,0.6,0.6,0.6c0.2,0,0.3,0,0.4-0.2c0.1-0.1,0.2-0.3,0.2-0.5v-3.5l0,0c0.4,0,0.6-0.3,0.7-0.6v-2.6
				c0-0.9-0.7-1.7-1.7-1.7h-0.7c-0.9,0-1.7,0.7-1.7,1.6v2.6C1217.6,797,1217.8,797.3,1218.2,797.3z"/>
			<path class="st2" d="M1223.1,797.3L1223.1,797.3v3.6c0,0.3,0.3,0.6,0.6,0.6c0.2,0,0.3,0,0.4-0.2c0.1-0.1,0.2-0.3,0.2-0.5v-3.5
				h0.2v3.6c0,0.3,0.3,0.6,0.6,0.6c0.2,0,0.3,0,0.4-0.2c0.1-0.1,0.2-0.3,0.2-0.5v-3.5l0,0c0.4,0,0.6-0.3,0.7-0.6v-2.6
				c0-0.9-0.7-1.7-1.7-1.7h-0.7c-0.9,0-1.7,0.7-1.7,1.6v2.6C1222.5,797,1222.7,797.3,1223.1,797.3z"/>
		</g>
	</g>
	<g>
		<g>
			<circle class="st12" cx="1350" cy="608.5" r="19.9"/>
		</g>
		<g>
			<path class="st12" d="M1350,626.2c1.1,1.3,1.4,2.1,1.2,3.8v3.8c0,1.2,0,4.5,0,5.7c-0.4,0.6-0.7,1.3-1.2,1.9
				c-0.5-0.6-0.9-1.3-1.2-1.9c0-1.2,0-4.5,0-5.7V630C1348.6,628.3,1348.9,627.5,1350,626.2L1350,626.2z"/>
		</g>
		<g>
			<g>
				<circle class="st2" cx="1343.6" cy="600.2" r="1.7"/>
				<path class="st2" d="M1345.9,602.5h-4.4c-0.8,0-1.4,0.6-1.4,1.4v7c0,0.3,0.2,0.5,0.5,0.5h0.8v5.6c0,0.5,0.4,0.8,0.8,0.8
					c0,0,0,0,0.1,0c0.3,0,0.5-0.1,0.7-0.2c0.2-0.2,0.3-0.4,0.3-0.8v-5.4h0.9v5.6c0,0.5,0.4,0.8,0.8,0.8c0,0,0,0,0.1,0
					c0.3,0,0.5-0.1,0.7-0.2c0.2-0.2,0.3-0.4,0.3-0.8v-5.4h0.7c0.3,0,0.5-0.2,0.5-0.5v-7C1347.3,603.1,1346.6,602.5,1345.9,602.5z"/>
				<path class="st2" d="M1356.3,601.5c0.9,0,1.7-0.8,1.7-1.7s-0.8-1.7-1.7-1.7c-0.9,0-1.7,0.8-1.7,1.7
					C1354.6,600.8,1355.3,601.5,1356.3,601.5z"/>
				<path class="st2" d="M1360.9,610.5l-1.7-7.4c-0.2-0.9-0.8-1-1.4-1h-3.1c-0.8,0-1.4,0.6-1.4,1.3l-1.4,7.1c0,0.3,0.2,0.5,0.5,0.5
					h1.6v5.6c0,0.5,0.4,0.8,0.8,0.8c0,0,0,0,0.1,0c0.3,0,0.5-0.1,0.7-0.2c0.2-0.2,0.3-0.4,0.3-0.8V611h0.9v5.6
					c0,0.5,0.4,0.8,0.8,0.8c0,0,0,0,0.1,0c0.3,0,0.5-0.1,0.7-0.2c0.2-0.2,0.3-0.4,0.3-0.8V611h1.7
					C1360.6,611.1,1360.9,610.8,1360.9,610.5C1360.9,610.6,1360.9,610.5,1360.9,610.5z"/>
				<path class="st2" d="M1350,596.5c-0.3,0-0.5,0.2-0.5,0.5v21.9c0,0.3,0.2,0.5,0.5,0.5s0.5-0.2,0.5-0.5V597
					C1350.5,596.8,1350.3,596.5,1350,596.5z"/>
			</g>
		</g>
	</g>
	<g>
		<g>
			<circle class="st12" cx="881.9" cy="722.7" r="19.9"/>
		</g>
		<g>
			<path class="st12" d="M881.9,740.4c1.1,1.3,1.4,2.1,1.2,3.8v3.8c0,1.2,0,4.5,0,5.7c-0.4,0.6-0.7,1.3-1.2,1.9
				c-0.5-0.6-0.9-1.3-1.2-1.9c0-1.2,0-4.5,0-5.7v-3.8C880.5,742.6,880.8,741.7,881.9,740.4L881.9,740.4z"/>
		</g>
		<g>
			<g>
				<circle class="st2" cx="875.5" cy="714.4" r="1.7"/>
				<path class="st2" d="M877.8,716.7h-4.4c-0.8,0-1.4,0.6-1.4,1.4v7c0,0.3,0.2,0.5,0.5,0.5h0.8v5.6c0,0.5,0.4,0.8,0.8,0.8
					c0,0,0,0,0.1,0c0.3,0,0.5-0.1,0.7-0.2c0.2-0.2,0.3-0.4,0.3-0.8v-5.4h0.9v5.6c0,0.5,0.4,0.8,0.8,0.8c0,0,0,0,0.1,0
					c0.3,0,0.5-0.1,0.7-0.2c0.2-0.2,0.3-0.4,0.3-0.8v-5.4h0.7c0.3,0,0.5-0.2,0.5-0.5v-7C879.2,717.4,878.5,716.7,877.8,716.7z"/>
				<path class="st2" d="M888.2,715.8c0.9,0,1.7-0.8,1.7-1.7s-0.8-1.7-1.7-1.7s-1.7,0.8-1.7,1.7S887.2,715.8,888.2,715.8z"/>
				<path class="st2" d="M892.8,724.7l-1.7-7.4c-0.2-0.9-0.8-1-1.4-1h-3.1c-0.8,0-1.4,0.6-1.4,1.3l-1.4,7.1c0,0.3,0.2,0.5,0.5,0.5
					h1.6v5.6c0,0.5,0.4,0.8,0.8,0.8c0,0,0,0,0.1,0c0.3,0,0.5-0.1,0.7-0.2c0.2-0.2,0.3-0.4,0.3-0.8v-5.4h0.9v5.6
					c0,0.5,0.4,0.8,0.8,0.8c0,0,0,0,0.1,0c0.3,0,0.5-0.1,0.7-0.2c0.2-0.2,0.3-0.4,0.3-0.8v-5.4h1.7
					C892.5,725.3,892.8,725.1,892.8,724.7C892.8,724.8,892.8,724.8,892.8,724.7z"/>
				<path class="st2" d="M881.9,710.8c-0.3,0-0.5,0.2-0.5,0.5v21.9c0,0.3,0.2,0.5,0.5,0.5s0.5-0.2,0.5-0.5v-21.9
					C882.4,711,882.2,710.8,881.9,710.8z"/>
			</g>
		</g>
	</g>
	<g>
		<g>
			<circle class="st12" cx="641.2" cy="509.1" r="19.9"/>
		</g>
		<g>
			<path class="st12" d="M641.2,526.8c1.1,1.3,1.4,2.1,1.2,3.8v3.8c0,1.2,0,4.5,0,5.7c-0.4,0.6-0.7,1.3-1.2,1.9
				c-0.5-0.6-0.9-1.3-1.2-1.9c0-1.2,0-4.5,0-5.7v-3.8C639.8,529,640,528.1,641.2,526.8L641.2,526.8z"/>
		</g>
		<g>
			<g>
				<circle class="st2" cx="634.8" cy="500.8" r="1.7"/>
				<path class="st2" d="M637,503.1h-4.4c-0.8,0-1.4,0.6-1.4,1.4v7c0,0.3,0.2,0.5,0.5,0.5h0.8v5.6c0,0.5,0.4,0.8,0.8,0.8
					c0,0,0,0,0.1,0c0.3,0,0.5-0.1,0.7-0.2c0.2-0.2,0.3-0.4,0.3-0.8V512h0.9v5.6c0,0.5,0.4,0.8,0.8,0.8c0,0,0,0,0.1,0
					c0.3,0,0.5-0.1,0.7-0.2c0.2-0.2,0.3-0.4,0.3-0.8V512h0.7c0.3,0,0.5-0.2,0.5-0.5v-7C638.4,503.8,637.8,503.1,637,503.1z"/>
				<path class="st2" d="M647.4,502.2c0.9,0,1.7-0.8,1.7-1.7c0-0.9-0.8-1.7-1.7-1.7s-1.7,0.8-1.7,1.7
					C645.7,501.4,646.5,502.2,647.4,502.2z"/>
				<path class="st2" d="M652,511.2l-1.7-7.4c-0.2-0.9-0.8-1-1.4-1h-3.1c-0.8,0-1.4,0.6-1.4,1.3l-1.4,7.1c0,0.3,0.2,0.5,0.5,0.5h1.6
					v5.6c0,0.5,0.4,0.8,0.8,0.8c0,0,0,0,0.1,0c0.3,0,0.5-0.1,0.7-0.2c0.2-0.2,0.3-0.4,0.3-0.8v-5.4h0.9v5.6c0,0.5,0.4,0.8,0.8,0.8
					c0,0,0,0,0.1,0c0.3,0,0.5-0.1,0.7-0.2c0.2-0.2,0.3-0.4,0.3-0.8v-5.4h1.7C651.8,511.7,652,511.5,652,511.2L652,511.2z"/>
				<path class="st2" d="M641.1,497.2c-0.3,0-0.5,0.2-0.5,0.5v21.9c0,0.3,0.2,0.5,0.5,0.5s0.5-0.2,0.5-0.5v-21.9
					C641.7,497.4,641.4,497.2,641.1,497.2z"/>
			</g>
		</g>
	</g>
	<g>
		<g>
			<path class="st12" d="M1063,684.4c0.6,0.6,1,1.2,1.4,1.9c0,0.6,0,1.2,0,1.9v3.7c0,1.2,0,4.4,0,5.6c-0.4,0.6-0.9,1.2-1.4,1.9
				c-0.6-0.6-1-1.2-1.4-1.9c0-1.2,0-4.4,0-5.6v-3.7c0-0.6,0-1.2,0-1.9C1062,685.7,1062.4,685.1,1063,684.4L1063,684.4z"/>
		</g>
		<g>
			<g>
				<circle class="st1" cx="1063" cy="667" r="20.3"/>
			</g>
		</g>
		<g>
			<path class="st12" d="M1062.7,647.3c10.8,0,19.6,8.8,19.6,19.6s-8.8,19.6-19.6,19.6c-10.8,0-19.6-8.8-19.6-19.6
				S1051.9,647.3,1062.7,647.3 M1062.7,645.9c-11.6,0-21,9.4-21,21s9.4,21,21,21s21-9.4,21-21S1074.3,645.9,1062.7,645.9
				L1062.7,645.9z"/>
		</g>
		<g>
			<g>
				<path class="st2" d="M1067.1,658.7v16.6h-4.5v-15l2.1,2l-7.2,1.3v-3.5l6.2-1.3L1067.1,658.7L1067.1,658.7z"/>
			</g>
		</g>
	</g>
	<g>
		<g>
			<path class="st12" d="M1246.8,695.9c0.6,0.6,1,1.2,1.4,1.9c0,0.6,0,1.2,0,1.9v3.7c0,1.2,0,4.4,0,5.6c-0.4,0.6-0.9,1.2-1.4,1.9
				c-0.6-0.6-1-1.2-1.4-1.9c0-1.2,0-4.4,0-5.6v-3.7c0-0.6,0-1.2,0-1.9C1245.8,697.1,1246.2,696.5,1246.8,695.9L1246.8,695.9z"/>
		</g>
		<g>
			<g>
				<circle class="st1" cx="1246.8" cy="678.4" r="20.3"/>
			</g>
		</g>
		<g>
			<path class="st12" d="M1246.5,658.8c10.8,0,19.6,8.8,19.6,19.6s-8.8,19.6-19.6,19.6s-19.6-8.8-19.6-19.6
				S1235.7,658.8,1246.5,658.8 M1246.5,657.4c-11.6,0-21,9.4-21,21s9.4,21,21,21s21-9.4,21-21S1258.1,657.4,1246.5,657.4
				L1246.5,657.4z"/>
		</g>
		<g>
			<g>
				<path class="st2" d="M1238.8,675.4c0.1-1,0.5-2,1.1-2.9s1.6-1.6,2.9-2.1s2.8-0.8,4.6-0.8c1.5,0,2.9,0.2,4,0.6
					c1.1,0.4,2,0.9,2.7,1.6c0.6,0.7,0.9,1.5,0.9,2.5c0,0.7-0.2,1.4-0.7,2s-1.2,1.1-2.1,1.5s-2.2,0.5-3.8,0.5v-0.5
					c1.4-0.1,2.7,0,3.7,0.3s1.8,0.7,2.4,1.3s0.8,1.4,0.8,2.3c0,1-0.3,1.9-1,2.7s-1.6,1.4-2.8,1.8c-1.2,0.4-2.7,0.7-4.5,0.7
					c-1.7,0-3.2-0.2-4.5-0.7s-2.3-1.1-3-2s-1.1-1.9-1.1-3.1h4.6c0.1,0.7,0.5,1.3,1.2,1.7s1.6,0.6,2.9,0.6c1.2,0,2.1-0.2,2.7-0.5
					c0.6-0.4,0.9-0.8,0.9-1.5c0-0.4-0.1-0.7-0.3-0.9s-0.5-0.4-1.1-0.6c-0.5-0.1-1.2-0.2-2.1-0.2h-2.9v-3.1h2.9c1.2,0,2-0.2,2.4-0.5
					s0.7-0.7,0.7-1.2c0-0.6-0.3-1-0.8-1.3s-1.3-0.5-2.4-0.5c-1.2,0-2,0.2-2.7,0.6s-1,0.9-1.1,1.6h-4.5V675.4z"/>
			</g>
		</g>
	</g>
	<g>
		<g>
			<path class="st12" d="M1027.3,576.8c0.6,0.6,1,1.2,1.4,1.9c0,0.6,0,1.2,0,1.9v3.7c0,1.2,0,4.4,0,5.6c-0.4,0.6-0.9,1.2-1.4,1.9
				c-0.6-0.6-1-1.2-1.4-1.9c0-1.2,0-4.4,0-5.6v-3.7c0-0.6,0-1.2,0-1.9C1026.2,578.1,1026.7,577.5,1027.3,576.8L1027.3,576.8z"/>
		</g>
		<g>
			<g>
				
					<ellipse transform="matrix(0.1602 -0.9871 0.9871 0.1602 310.5684 1483.829)" class="st1" cx="1027.3" cy="559.4" rx="20.3" ry="20.3"/>
			</g>
		</g>
		<g>
			<path class="st12" d="M1026.9,539.7c10.8,0,19.6,8.8,19.6,19.6s-8.8,19.6-19.6,19.6s-19.6-8.8-19.6-19.6
				C1007.3,548.5,1016.1,539.7,1026.9,539.7 M1026.9,538.3c-11.6,0-21,9.4-21,21s9.4,21,21,21s21-9.4,21-21
				S1038.5,538.3,1026.9,538.3L1026.9,538.3z"/>
		</g>
		<g>
			<g>
				<path class="st2" d="M1018.8,557c0.1-1.3,0.5-2.4,1.3-3.4s1.8-1.7,3.1-2.2c1.3-0.5,2.7-0.8,4.3-0.8c1.5,0,2.9,0.2,4,0.7
					s2,1.1,2.7,1.9c0.6,0.8,1,1.8,1,2.9c0,0.8-0.2,1.6-0.7,2.4c-0.5,0.7-1.2,1.4-2.2,2.1c-1,0.7-2.3,1.4-3.8,2.2l-4.6,2.3l-0.2-1.2
					h11.9v3.6h-16.4v-3.2l7.1-4c1.1-0.6,2-1.2,2.6-1.6c0.6-0.4,1-0.8,1.3-1.2s0.4-0.8,0.4-1.2c0-0.5-0.1-0.9-0.4-1.2
					c-0.2-0.3-0.6-0.6-1.1-0.8s-1.1-0.3-1.8-0.3c-0.9,0-1.6,0.1-2.2,0.4s-1,0.6-1.3,1s-0.4,0.9-0.5,1.4h-4.5V557z"/>
			</g>
		</g>
	</g>
	<g>
		<g>
			<path class="st12" d="M1218.6,565c0.6,0.6,1,1.2,1.4,1.9c0,0.6,0,1.2,0,1.9v3.7c0,1.2,0,4.4,0,5.6c-0.4,0.6-0.9,1.2-1.4,1.9
				c-0.6-0.6-1-1.2-1.4-1.9c0-1.2,0-4.4,0-5.6v-3.7c0-0.6,0-1.2,0-1.9C1217.6,566.2,1218,565.6,1218.6,565L1218.6,565z"/>
		</g>
		<g>
			<g>
				<circle class="st1" cx="1218.6" cy="547.5" r="20.3"/>
			</g>
		</g>
		<g>
			<path class="st12" d="M1218.3,527.9c10.8,0,19.6,8.8,19.6,19.6s-8.8,19.6-19.6,19.6c-10.8,0-19.6-8.8-19.6-19.6
				S1207.4,527.9,1218.3,527.9 M1218.3,526.5c-11.6,0-21,9.4-21,21s9.4,21,21,21s21-9.4,21-21S1229.9,526.5,1218.3,526.5
				L1218.3,526.5z"/>
		</g>
		<g>
			<g>
				<path class="st2" d="M1210.1,545.2c0.1-1.3,0.5-2.4,1.3-3.4s1.8-1.7,3.1-2.2c1.3-0.5,2.7-0.8,4.3-0.8c1.5,0,2.9,0.2,4,0.7
					s2,1.1,2.7,1.9c0.6,0.8,1,1.8,1,2.9c0,0.8-0.2,1.6-0.7,2.4c-0.5,0.7-1.2,1.4-2.2,2.1c-1,0.7-2.3,1.4-3.8,2.2l-4.6,2.3l-0.2-1.2
					h11.9v3.6h-16.4v-3.2l7.1-4c1.1-0.6,2-1.2,2.6-1.6c0.6-0.4,1-0.8,1.3-1.2s0.4-0.8,0.4-1.2c0-0.5-0.1-0.9-0.4-1.2
					c-0.2-0.3-0.6-0.6-1.1-0.8s-1.1-0.3-1.8-0.3c-0.9,0-1.6,0.1-2.2,0.4s-1,0.6-1.3,1s-0.4,0.9-0.5,1.4h-4.5V545.2z"/>
			</g>
		</g>
	</g>
	<g>
		<g>
			<path class="st12" d="M1022.5,486.6c0.6,0.6,1,1.2,1.4,1.9c0,0.6,0,1.2,0,1.9v3.7c0,1.2,0,4.4,0,5.6c-0.4,0.6-0.9,1.2-1.4,1.9
				c-0.6-0.6-1-1.2-1.4-1.9c0-1.2,0-4.4,0-5.6v-3.7c0-0.6,0-1.2,0-1.9C1021.5,487.9,1021.9,487.3,1022.5,486.6L1022.5,486.6z"/>
		</g>
		<g>
			<g>
				
					<ellipse transform="matrix(0.1602 -0.9871 0.9871 0.1602 395.5725 1403.3394)" class="st1" cx="1022.5" cy="469.2" rx="20.3" ry="20.3"/>
			</g>
		</g>
		<g>
			<path class="st12" d="M1022.2,449.5c10.8,0,19.6,8.8,19.6,19.6s-8.8,19.6-19.6,19.6c-10.8,0-19.6-8.8-19.6-19.6
				S1011.3,449.5,1022.2,449.5 M1022.2,448.5c-11.4,0-20.6,9.2-20.6,20.6s9.2,20.6,20.6,20.6s20.6-9.2,20.6-20.6
				S1033.5,448.5,1022.2,448.5L1022.2,448.5z"/>
		</g>
		<g>
			<g>
				<path class="st2" d="M1014,466.8c0.1-1.3,0.5-2.4,1.3-3.4s1.8-1.7,3.1-2.2s2.7-0.8,4.3-0.8c1.5,0,2.9,0.2,4,0.7s2,1.1,2.7,1.9
					c0.6,0.8,1,1.8,1,2.9c0,0.8-0.2,1.6-0.7,2.4c-0.5,0.7-1.2,1.4-2.2,2.1s-2.3,1.4-3.8,2.2l-4.6,2.3l-0.2-1.2h11.9v3.6h-16.4v-3.2
					l7.1-4c1.1-0.6,2-1.2,2.6-1.6s1-0.8,1.3-1.2c0.3-0.4,0.4-0.8,0.4-1.2c0-0.5-0.1-0.9-0.4-1.2c-0.2-0.3-0.6-0.6-1.1-0.8
					c-0.5-0.2-1.1-0.3-1.8-0.3c-0.9,0-1.6,0.1-2.2,0.4c-0.6,0.3-1,0.6-1.3,1s-0.4,0.9-0.5,1.4h-4.5V466.8z"/>
			</g>
		</g>
	</g>
	<g>
		<g>
			<path class="st12" d="M886.3,607c0.6,0.6,1,1.2,1.4,1.9c0,0.6,0,1.2,0,1.9v3.7c0,1.2,0,4.4,0,5.6c-0.4,0.6-0.9,1.2-1.4,1.9
				c-0.6-0.6-1-1.2-1.4-1.9c0-1.2,0-4.4,0-5.6v-3.7c0-0.6,0-1.2,0-1.9C885.3,608.3,885.7,607.7,886.3,607L886.3,607z"/>
		</g>
		<g>
			<g>
				<circle class="st1" cx="886.3" cy="589.6" r="20.3"/>
			</g>
		</g>
		<g>
			<path class="st12" d="M886,569.9c10.8,0,19.6,8.8,19.6,19.6s-8.8,19.6-19.6,19.6s-19.6-8.8-19.6-19.6S875.2,569.9,886,569.9
				 M886,568.5c-11.6,0-21,9.4-21,21s9.4,21,21,21s21-9.4,21-21S897.6,568.5,886,568.5L886,568.5z"/>
		</g>
		<g>
			<g>
				<path class="st2" d="M877.8,587.2c0.1-1.3,0.5-2.4,1.3-3.4s1.8-1.7,3.1-2.2s2.7-0.8,4.3-0.8c1.5,0,2.9,0.2,4,0.7s2,1.1,2.7,1.9
					c0.6,0.8,1,1.8,1,2.9c0,0.8-0.2,1.6-0.7,2.4c-0.5,0.7-1.2,1.4-2.2,2.1c-1,0.7-2.3,1.4-3.8,2.2l-4.6,2.3l-0.2-1.2h11.9v3.6h-16.4
					v-3.2l7.1-4c1.1-0.6,2-1.2,2.6-1.6c0.6-0.4,1-0.8,1.3-1.2s0.4-0.8,0.4-1.2c0-0.5-0.1-0.9-0.4-1.2c-0.2-0.3-0.6-0.6-1.1-0.8
					s-1.1-0.3-1.8-0.3c-0.9,0-1.6,0.1-2.2,0.4s-1,0.6-1.3,1s-0.4,0.9-0.5,1.4h-4.5V587.2z"/>
			</g>
		</g>
	</g>
</g>
<rect x="399.6" y="806.4" class="st3" width="184" height="49.5"/>
<rect x="410.3" y="820.6" class="st14" width="163.3" height="37"/>
<g class="st15">
	<path class="st2" d="M422,836.6l-9-15.6h5.5l7,12.2L422,836.6z M418.8,839l3.2-5.6h0.1l7-12.4h5.4l-10.3,18H418.8z"/>
	<path class="st2" d="M434,825.3h4.9v3.9l-0.2,0.6v3.8l0.2,1.1v8.2H434V825.3z M437.3,832.2c0.2-1.5,0.6-2.8,1.3-3.9
		c0.7-1.1,1.5-1.9,2.5-2.5s2.2-0.9,3.5-0.9c1.3,0,2.5,0.3,3.5,0.9c1,0.6,1.8,1.5,2.4,2.5s0.9,2.4,0.9,3.8c0,1.4-0.3,2.7-0.9,3.8
		s-1.4,1.9-2.4,2.5c-1,0.6-2.2,0.9-3.5,0.9c-1.3,0-2.5-0.3-3.5-0.9c-1-0.6-1.9-1.4-2.5-2.5C438,834.9,437.6,833.6,437.3,832.2z
		 M446.5,832.2c0-0.7-0.1-1.3-0.4-1.8c-0.3-0.5-0.7-0.9-1.2-1.2s-1.1-0.5-1.7-0.5c-0.7,0-1.3,0.2-1.9,0.5c-0.6,0.3-1.1,0.7-1.6,1.2
		c-0.4,0.5-0.8,1.1-1,1.8c0.2,0.7,0.6,1.3,1,1.8c0.4,0.5,1,0.9,1.6,1.2c0.6,0.3,1.2,0.4,1.9,0.4c0.6,0,1.2-0.1,1.7-0.4
		c0.5-0.3,0.9-0.7,1.2-1.2C446.3,833.5,446.5,832.9,446.5,832.2z"/>
	<path class="st2" d="M461.7,839.4c-1.8,0-3.3-0.3-4.6-0.9c-1.3-0.6-2.3-1.4-3.1-2.5c-0.7-1.1-1.1-2.4-1.1-3.8
		c0-1.5,0.4-2.7,1.1-3.8c0.7-1.1,1.8-1.9,3.1-2.5c1.3-0.6,2.8-0.9,4.6-0.9c1.7,0,3.3,0.3,4.6,0.9c1.3,0.6,2.3,1.5,3.1,2.5
		c0.7,1.1,1.1,2.4,1.1,3.8c0,1.4-0.4,2.7-1.1,3.8c-0.7,1.1-1.8,1.9-3.1,2.5C465,839.1,463.4,839.4,461.7,839.4z M461.7,835.8
		c0.8,0,1.5-0.1,2.1-0.4c0.6-0.3,1-0.7,1.3-1.2c0.3-0.5,0.5-1.2,0.5-1.9c0-0.8-0.2-1.4-0.5-2c-0.3-0.5-0.7-0.9-1.3-1.2
		c-0.6-0.3-1.3-0.4-2.1-0.4c-0.8,0-1.5,0.1-2.1,0.4c-0.6,0.3-1,0.7-1.3,1.2c-0.3,0.5-0.5,1.2-0.5,1.9c0,0.8,0.2,1.4,0.5,1.9
		c0.3,0.5,0.7,1,1.3,1.2C460.2,835.7,460.9,835.8,461.7,835.8z"/>
	<path class="st2" d="M472.1,839l0.9-6.9l-0.9-6.8h11.2c1.3,0,2.4,0.3,3.2,0.9c0.8,0.6,1.2,1.5,1.2,2.5c0,1-0.4,1.8-1.2,2.4
		c-0.8,0.6-1.9,1-3.3,1.1l0.3-0.8c1.6,0.1,2.9,0.4,3.7,1s1.3,1.5,1.3,2.6c0,1.2-0.4,2.1-1.3,2.8c-0.9,0.7-2.1,1.1-3.6,1.1H472.1z
		 M476.8,838l-1.9-2h7c0.5,0,0.9-0.1,1.2-0.3c0.3-0.2,0.4-0.6,0.4-1c0-0.4-0.1-0.7-0.4-0.9c-0.3-0.2-0.7-0.4-1.3-0.4h-5.9v-2.5h5.3
		c0.5,0,0.9-0.1,1.1-0.3s0.4-0.5,0.4-0.9c0-0.4-0.1-0.7-0.3-0.9c-0.2-0.2-0.6-0.3-1.1-0.3H475l1.9-2l0.8,5.8L476.8,838z"/>
	<path class="st2" d="M498.5,839.4c-1.7,0-3.1-0.3-4.5-0.9c-1.3-0.6-2.3-1.5-3.1-2.6c-0.8-1.1-1.1-2.4-1.1-3.8
		c0-1.4,0.4-2.7,1.1-3.8c0.7-1.1,1.7-1.9,3-2.5c1.3-0.6,2.7-0.9,4.3-0.9c1.6,0,3.1,0.4,4.2,1.1c1.2,0.7,2.1,1.7,2.7,3
		c0.6,1.3,0.9,2.8,0.9,4.6h-12.2v-3h9.4l-1.6,1c-0.1-0.7-0.2-1.3-0.5-1.8s-0.7-0.9-1.1-1.1c-0.5-0.3-1-0.4-1.7-0.4
		c-0.7,0-1.3,0.1-1.8,0.4c-0.5,0.3-0.9,0.7-1.2,1.2c-0.3,0.5-0.4,1.1-0.4,1.8c0,0.9,0.2,1.6,0.6,2.2s1,1.1,1.7,1.4
		c0.8,0.3,1.7,0.5,2.8,0.5c1,0,2-0.1,3-0.4c1-0.3,1.9-0.6,2.7-1.1v3.1c-0.9,0.6-2,1.1-3.2,1.5C501.2,839.3,499.9,839.4,498.5,839.4z
		"/>
	<path class="st2" d="M508.1,825.3h4.9V839h-4.9V825.3z M510.9,830.2h10.4v3.6h-10.4V830.2z M519.4,825.3h4.9V839h-4.9V825.3z"/>
	<path class="st2" d="M527,839v-13.7h4.9v12.5l-1.5-2.2h4.8c0.6,0,1.1-0.1,1.4-0.4c0.3-0.3,0.5-0.7,0.5-1.3c0-0.5-0.2-0.9-0.5-1.2
		c-0.3-0.3-0.8-0.4-1.4-0.4h-4.9v-3.3h5.7c1.2,0,2.3,0.2,3.2,0.6c0.9,0.4,1.6,1,2.1,1.8c0.5,0.8,0.8,1.6,0.8,2.7
		c0,1-0.3,1.9-0.8,2.7c-0.5,0.8-1.2,1.3-2.1,1.8c-0.9,0.4-1.9,0.6-3.1,0.6H527z"/>
	<path class="st2" d="M558.6,820.7c1.6,0,2.9,0.2,4.1,0.7c1.2,0.5,2.2,1.1,2.9,1.9c0.7,0.8,1.2,1.7,1.4,2.7h-4.6
		c-0.2-0.5-0.6-0.9-1.2-1.2c-0.6-0.3-1.4-0.5-2.5-0.5c-1.2,0-2.1,0.2-2.9,0.7c-0.8,0.4-1.4,1.1-1.7,1.9s-0.6,1.8-0.6,3
		c0,1.3,0.2,2.4,0.6,3.3c0.4,0.9,1,1.5,1.8,2c0.8,0.4,1.7,0.7,2.9,0.7c0.8,0,1.4-0.1,2-0.3c0.5-0.2,0.9-0.5,1.2-0.9
		c0.3-0.4,0.4-0.8,0.4-1.2c0-0.5-0.1-0.9-0.4-1.3c-0.3-0.4-0.6-0.6-1.2-0.8c-0.5-0.2-1.2-0.3-1.9-0.3c-1,0-2,0.2-2.9,0.7
		c-0.9,0.4-1.8,1.1-2.5,2l-1.7-1.2c0.5-1,1.1-1.9,1.9-2.7c0.8-0.8,1.7-1.4,2.8-1.8c1.1-0.4,2.3-0.7,3.7-0.7c1.5,0,2.8,0.2,3.9,0.7
		c1.1,0.5,1.9,1.2,2.5,2.1c0.6,0.9,0.9,1.9,0.9,3.1c0,1.2-0.3,2.3-1,3.2c-0.7,0.9-1.7,1.7-2.9,2.2c-1.3,0.5-2.8,0.8-4.7,0.8
		c-2.2,0-4-0.4-5.5-1.2s-2.6-1.9-3.3-3.3c-0.7-1.4-1.1-3-1.1-4.8s0.4-3.4,1.1-4.9c0.7-1.4,1.8-2.5,3.3-3.3
		C554.7,821.1,556.5,820.7,558.6,820.7z"/>
</g>
<g>
	<polyline class="st16" points="1488.7,842.8 1484.7,834.7 1474.5,845.1 	"/>
	<line class="st17" x1="1474.5" y1="845.1" x2="1488.7" y2="842.8"/>
	<polygon class="st18" points="1484.7,834.7 1488.7,842.8 1481,838.4 	"/>
	<polygon class="st18" points="1481,838.4 1488.7,842.8 1474.5,845.1 	"/>
</g>
<g>
	<g>
		<circle class="st12" cx="1518.5" cy="857" r="19.5"/>
	</g>
</g>
<g>
	<path class="st2" d="M1522.8,846.2l8.4,18.5h-5.4l-7-16.3h1.5l-7.1,16.3h-5.4l8.4-18.5H1522.8z M1512.7,860.9v-4.3h13.4v4.3H1512.7
		z"/>
</g>
<rect x="681.9" y="878.7" class="st3" width="184" height="49.5"/>
<rect x="692.7" y="892.8" class="st14" width="163.3" height="37"/>
<g class="st15">
	<path class="st2" d="M704.9,908.9l-9-15.6h5.5l7,12.2L704.9,908.9z M701.7,911.3l3.2-5.6h0.1l7-12.4h5.4l-10.3,18H701.7z"/>
	<path class="st2" d="M716.9,897.6h4.9v3.9l-0.2,0.6v3.8l0.2,1.1v8.2h-4.9V897.6z M720.3,904.5c0.2-1.5,0.6-2.8,1.3-3.9
		c0.7-1.1,1.5-1.9,2.5-2.5s2.2-0.9,3.5-0.9c1.3,0,2.5,0.3,3.5,0.9s1.8,1.5,2.4,2.5c0.6,1.1,0.9,2.4,0.9,3.8c0,1.4-0.3,2.7-0.9,3.8
		s-1.4,1.9-2.4,2.5s-2.2,0.9-3.5,0.9c-1.3,0-2.5-0.3-3.5-0.9s-1.9-1.4-2.5-2.5C720.9,907.2,720.5,905.9,720.3,904.5z M729.4,904.5
		c0-0.7-0.1-1.3-0.4-1.8c-0.3-0.5-0.7-0.9-1.2-1.2c-0.5-0.3-1.1-0.5-1.7-0.5c-0.7,0-1.3,0.2-1.9,0.5c-0.6,0.3-1.1,0.7-1.6,1.2
		c-0.4,0.5-0.8,1.1-1,1.8c0.2,0.7,0.6,1.3,1,1.8c0.4,0.5,1,0.9,1.6,1.2c0.6,0.3,1.2,0.4,1.9,0.4c0.6,0,1.2-0.1,1.7-0.4
		c0.5-0.3,0.9-0.7,1.2-1.2C729.3,905.7,729.4,905.1,729.4,904.5z"/>
	<path class="st2" d="M744.6,911.7c-1.8,0-3.3-0.3-4.6-0.9c-1.3-0.6-2.3-1.4-3.1-2.5c-0.7-1.1-1.1-2.4-1.1-3.8
		c0-1.5,0.4-2.7,1.1-3.8c0.7-1.1,1.8-1.9,3.1-2.5c1.3-0.6,2.8-0.9,4.6-0.9c1.7,0,3.3,0.3,4.6,0.9c1.3,0.6,2.3,1.5,3.1,2.5
		c0.7,1.1,1.1,2.4,1.1,3.8c0,1.4-0.4,2.7-1.1,3.8c-0.7,1.1-1.8,1.9-3.1,2.5C747.9,911.4,746.4,911.7,744.6,911.7z M744.6,908.1
		c0.8,0,1.5-0.1,2.1-0.4c0.6-0.3,1-0.7,1.3-1.2c0.3-0.5,0.5-1.2,0.5-1.9c0-0.8-0.2-1.4-0.5-2c-0.3-0.5-0.7-0.9-1.3-1.2
		c-0.6-0.3-1.3-0.4-2.1-0.4c-0.8,0-1.5,0.1-2.1,0.4c-0.6,0.3-1,0.7-1.3,1.2c-0.3,0.5-0.5,1.2-0.5,1.9s0.2,1.4,0.5,1.9
		c0.3,0.5,0.7,1,1.3,1.2C743.1,907.9,743.8,908.1,744.6,908.1z"/>
	<path class="st2" d="M755,911.3l0.9-6.9l-0.9-6.8h11.2c1.3,0,2.4,0.3,3.2,0.9c0.8,0.6,1.2,1.5,1.2,2.5c0,1-0.4,1.8-1.2,2.4
		s-1.9,1-3.3,1.1l0.3-0.8c1.6,0.1,2.9,0.4,3.7,1c0.9,0.6,1.3,1.5,1.3,2.6c0,1.2-0.4,2.1-1.3,2.8c-0.9,0.7-2.1,1.1-3.6,1.1H755z
		 M759.8,910.3l-1.9-2h7c0.5,0,0.9-0.1,1.2-0.3c0.3-0.2,0.4-0.6,0.4-1c0-0.4-0.1-0.7-0.4-0.9c-0.3-0.2-0.7-0.4-1.3-0.4h-5.9v-2.5
		h5.3c0.5,0,0.9-0.1,1.1-0.3c0.3-0.2,0.4-0.5,0.4-0.9c0-0.4-0.1-0.7-0.3-0.9c-0.2-0.2-0.6-0.3-1.1-0.3h-6.3l1.9-2l0.8,5.8
		L759.8,910.3z"/>
	<path class="st2" d="M781.4,911.7c-1.7,0-3.1-0.3-4.5-0.9c-1.3-0.6-2.3-1.5-3.1-2.6c-0.8-1.1-1.1-2.4-1.1-3.8
		c0-1.4,0.4-2.7,1.1-3.8c0.7-1.1,1.7-1.9,3-2.5c1.3-0.6,2.7-0.9,4.3-0.9c1.6,0,3.1,0.4,4.2,1.1c1.2,0.7,2.1,1.7,2.7,3
		c0.6,1.3,0.9,2.8,0.9,4.6h-12.2v-3h9.4l-1.6,1c-0.1-0.7-0.2-1.3-0.5-1.8c-0.3-0.5-0.7-0.9-1.1-1.1c-0.5-0.3-1-0.4-1.7-0.4
		c-0.7,0-1.3,0.1-1.8,0.4c-0.5,0.3-0.9,0.7-1.2,1.2c-0.3,0.5-0.4,1.1-0.4,1.8c0,0.9,0.2,1.6,0.6,2.2c0.4,0.6,1,1.1,1.7,1.4
		c0.8,0.3,1.7,0.5,2.8,0.5c1,0,2-0.1,3-0.4c1-0.3,1.9-0.6,2.7-1.1v3.1c-0.9,0.6-2,1.1-3.2,1.5C784.1,911.5,782.8,911.7,781.4,911.7z
		"/>
	<path class="st2" d="M791,897.6h4.9v13.7H791V897.6z M793.8,902.5h10.4v3.6h-10.4V902.5z M802.4,897.6h4.9v13.7h-4.9V897.6z"/>
	<path class="st2" d="M809.9,911.3v-13.7h4.9v12.5l-1.5-2.2h4.8c0.6,0,1.1-0.1,1.4-0.4c0.3-0.3,0.5-0.7,0.5-1.3
		c0-0.5-0.2-0.9-0.5-1.2c-0.3-0.3-0.8-0.4-1.4-0.4h-4.9v-3.3h5.7c1.2,0,2.3,0.2,3.2,0.6c0.9,0.4,1.6,1,2.1,1.8
		c0.5,0.8,0.8,1.6,0.8,2.7c0,1-0.3,1.9-0.8,2.7c-0.5,0.8-1.2,1.3-2.1,1.8c-0.9,0.4-1.9,0.6-3.1,0.6H809.9z"/>
	<path class="st2" d="M833.7,893.3h14.1v3.7h-12.6l2-0.9l-1,6.5l-1.2,0c0.4-0.6,0.8-1.2,1.4-1.7c0.6-0.5,1.4-0.9,2.3-1.2
		c0.9-0.3,1.9-0.4,3.1-0.4c1.5,0,2.9,0.3,4,0.8c1.1,0.5,2,1.2,2.6,2.1c0.6,0.9,0.9,1.9,0.9,3.1c0,1.2-0.3,2.4-1,3.3
		c-0.7,1-1.7,1.7-3,2.3c-1.3,0.6-2.9,0.8-4.7,0.8c-1.8,0-3.3-0.3-4.6-0.8c-1.3-0.5-2.4-1.2-3.1-2.1s-1.2-1.9-1.3-3h4.9
		c0.2,0.6,0.6,1.1,1.3,1.5c0.7,0.4,1.6,0.6,2.8,0.6c0.8,0,1.5-0.1,2-0.3c0.6-0.2,1-0.5,1.3-0.9c0.3-0.4,0.5-0.9,0.5-1.4
		c0-0.5-0.1-1-0.4-1.4c-0.3-0.4-0.7-0.7-1.2-0.9c-0.5-0.2-1.2-0.3-2-0.3c-0.7,0-1.3,0.1-1.8,0.2c-0.5,0.1-1,0.3-1.4,0.6
		c-0.4,0.2-0.7,0.5-1,0.7h-4.3L833.7,893.3z"/>
</g>
</svg>
