<?xml version="1.0" encoding="utf-8"?>
<!-- Generator: Adobe Illustrator 26.0.3, SVG Export Plug-In . SVG Version: 6.00 Build 0)  -->
<svg version="1.1" id="Слой_1" xmlns="http://www.w3.org/2000/svg" xmlns:xlink="http://www.w3.org/1999/xlink" x="0px" y="0px"
	 viewBox="0 0 1920 1080" style="enable-background:new 0 0 1920 1080;" xml:space="preserve">
<style type="text/css">
	.st0{fill:#66B9FF;}
	.st1{fill:#FFFFFF;}
	.st2{fill:#66B9FF;stroke:#66B9FF;stroke-miterlimit:10;}
	.st3{fill:none;stroke:#0085CC;stroke-width:4.5296;stroke-linecap:round;stroke-linejoin:round;stroke-miterlimit:10;}
	.st4{fill:none;stroke:#0085CC;stroke-width:1.5099;stroke-linecap:round;stroke-linejoin:round;stroke-miterlimit:10;}
	.st5{fill:none;stroke:#0085CC;stroke-width:6.92;stroke-linecap:round;stroke-linejoin:round;stroke-miterlimit:10;}
	.st6{fill:none;stroke:#0085CC;stroke-width:4.3892;stroke-linecap:round;stroke-linejoin:round;stroke-miterlimit:10;}
	.st7{fill:none;stroke:#0085CC;stroke-width:7.046;stroke-linecap:round;stroke-linejoin:round;stroke-miterlimit:10;}
	.st8{fill:#0085CC;stroke:#0085CC;stroke-width:1.5099;stroke-linecap:round;stroke-linejoin:round;stroke-miterlimit:10;}
	.st9{fill:#0085CC;stroke:#0085CC;stroke-width:1.4108;stroke-linecap:round;stroke-linejoin:round;stroke-miterlimit:10;}
	.st10{fill:#FB493B;stroke:#FB493B;stroke-width:2.3043;stroke-linecap:round;stroke-linejoin:round;stroke-miterlimit:10;}
	.st11{fill:#FB493B;stroke:#FB493B;stroke-width:2.5717;stroke-linecap:round;stroke-linejoin:round;stroke-miterlimit:10;}
	.st12{fill:#1D0EB1;}
	.st13{fill:none;stroke:#1D0EB1;stroke-width:1.3246;stroke-linecap:round;stroke-linejoin:round;}
	.st14{fill:none;}
	.st15{enable-background:new    ;}
	.st16{fill:#FB493B;stroke:#FB493B;stroke-width:2.4028;stroke-linecap:round;stroke-linejoin:round;stroke-miterlimit:10;}
	.st17{fill:none;stroke:#FB493B;stroke-width:2.4028;stroke-linecap:round;stroke-linejoin:round;stroke-miterlimit:10;}
	
		.st18{fill-rule:evenodd;clip-rule:evenodd;fill:#FB493B;stroke:#FB493B;stroke-width:2.4028;stroke-linecap:round;stroke-linejoin:round;stroke-miterlimit:10;}
</style>
<g>
	<g>
		<path class="st0" d="M1511.8,857.9l4-4.9l-39.3-10.8l-39.5-10.4l-39.6-10.1l-39.9-9.9l-40.1-9.6l-39.8-9.1v-0.3l53.7-119.1l0,0
			c101.5,15.8,211.8-3.8,280.2-52.1c78.9-55.8,81.5-135.6,6.3-193.1v-0.1c-14.6-10.7-30-20.3-45.6-29.4l-169.5-97.9
			c-5.5,3.2-11,6.4-16.5,9.5l-40.2,23.3c-6.1,1.5-160.8,94.2-160.9,99.3c-66.6,55.1-51.2,105.5-45.3,123l-391.5,86.6l-79.2-46.1
			l291.1-168l-26.1-21.1l36.1-25.7L721.7,237.4L255.2,504.2l271.5,156.9l48.2-27.7l75.2,43.3l-5,17.1l-67.8-5.5l-20.6,79.1l34.2,2.6
			l34.2,3l34,3l34,3.5l33.8,3.7l33.7,4l33.7,4.3l33.7,4.4l33.5,4.7l33.4,4.9l33.2,5.2l33.1,5.5l21.7-45.5l40.1,7.8l34.6,6.6
			l38.4,7.2l-0.2,0.5c-1,4.9,4,9.5,12,11.1l0,0c7.9,1.6,16.7-0.6,20.4-4.9l0.7-0.8l5.2,1l15.6,3.1l-2.7,22.5l-14.1,23.3l33.2,6.6
			l32.9,6.7l32.9,7.2l32.8,7.3l32.5,7.6l32.3,7.9l32.2,8.1l32,8.4l31.7,8.5l31.6,8.8l43-52.9L1511.8,857.9z"/>
		<path class="st1" d="M1512,836.2l4-4.9l-39.3-10.8l-39.5-10.4l-39.6-10.1l-39.9-9.9l-40.1-9.6l-39.8-9.1v-0.3l53.7-119.1l0,0
			c101.5,15.8,211.8-3.8,280.2-52.1c78.9-55.8,81.5-135.6,6.3-193.1v-0.1c-14.6-10.7-30-20.3-45.6-29.4l-169.5-97.9
			c-5.5,3.2-11,6.4-16.5,9.5l-40.2,23.3c-6.1,1.5-160.8,94.2-160.9,99.3c-66.6,55.1-51.2,105.5-45.3,123l-396.1,87.2l-53.8-31.1
			l293.7-168.8l-29.2-18l46.1-26.1l-278.9-162L255.3,482.5l271.5,156.9l48.2-27.7l75.2,43.3l-5,17.1l-67.8-5.5l-20.6,79.1l34.2,2.6
			l34.2,3l34,3l34,3.5l33.8,3.7l33.7,4l33.7,4.3l33.7,4.4l33.5,4.7l33.4,4.9l33.2,5.2l33.1,5.5l11.9-24.3l40.1,7.8l34.6,6.6
			l38.4,7.2l-0.2,0.5c-1,4.9,4,9.5,12,11.1l0,0c7.9,1.6,16.7-0.6,20.4-4.9l0.7-0.8l5.2,1l15.6,3.1l7,1.4l-14.1,23.3l33.2,6.6
			l32.9,6.7l32.9,7.2l32.8,7.3l32.5,7.6l32.3,7.9l32.2,8.1l32,8.4l31.7,8.5l31.6,8.8l43-52.9L1512,836.2z"/>
		<polygon class="st2" points="722.2,235.2 524.5,349 766.7,488.9 963.9,375 		"/>
		<g>
			<polyline class="st3" points="1277.5,772.1 1245.5,765.4 1213.9,758.8 			"/>
			<path class="st3" d="M1155.5,764.7c-8.9,3.3-19.1,5-29.7,5.4l0,0c-8.7,0.3-17.5-0.6-25.6-2.5l-0.3-0.1l-0.1,0.2l-13.5,25.1"/>
			<line class="st4" x1="1116.9" y1="799.3" x2="1134.2" y2="769.5"/>
			<polyline class="st3" points="1127.3,784.5 1155.1,790.1 1155.2,790.4 1146.9,804.1 			"/>
			<line class="st3" x1="1421.9" y1="837.2" x2="1495.4" y2="857.3"/>
			<polyline class="st4" points="1388.6,853.5 1401.8,882 1397,888.3 			"/>
			<path class="st4" d="M1422.5,837.2c-0.6,0.6-1,1.2-1.6,1.7s-1.1,1-1.7,1.5c-1.3,1.1-2.7,2.2-4.1,3.2c-1.3,0.9-2.7,1.6-4,2.3
				c-1.5,0.9-3,1.6-4.5,2.3c-6.1,2.6-12.5,4.4-19,5.3c-3.2,0.5-6.4,1-9.7,1.1c-3.3,0.1-6.5,0.1-9.8-0.3c-1.7-0.2-3.5-0.3-5.2-0.6
				c-1.6-0.3-3.2-0.8-4.8-1.2c-3.1-0.9-6.2-1.9-9-3.4c-1.5-0.8-3-1.7-4.3-2.8c-0.6-0.4-1-1-1.5-1.6s-1-1.2-1.4-1.9
				c-0.7-1.5-1-3.1-1-4.7c0-1.7,0.7-3.2,1.6-4.6c0.4-0.6,0.8-1.2,1.3-1.8c-0.9-0.3-1.7-0.5-2.6-0.8"/>
			<line class="st3" x1="1343.1" y1="830.5" x2="1296.2" y2="819.4"/>
			<line class="st3" x1="1278" y1="815.3" x2="1254.2" y2="809.9"/>
			<line class="st3" x1="1235.9" y1="805.8" x2="1224.6" y2="803.4"/>
			<polyline class="st4" points="1223.7,803.1 1189.8,796 1155.7,789.3 			"/>
			<line class="st3" x1="1308.4" y1="822.7" x2="1282.7" y2="859.5"/>
			<line class="st3" x1="1224.6" y1="803.4" x2="1200" y2="840.9"/>
			<line class="st3" x1="1266.2" y1="812.7" x2="1241.7" y2="850"/>
			<polyline class="st5" points="1139.9,802.8 1146.9,804.1 1132.8,827.5 1166,834 1199,840.7 1231.9,847.9 1264.7,855.2 
				1297.2,862.8 1329.5,870.8 1361.7,878.8 1393.7,887.2 1425.4,895.8 1456.9,904.6 1499.9,851.7 			"/>
			<path class="st5" d="M1124.2,799.6l-5.2-1l-0.7,0.8c-3.7,4.3-12.5,6.5-20.4,4.9l0,0c-8-1.6-13-6.2-12-11.1v-0.5l-38.3-7.2"/>
			<path class="st3" d="M1180.7,412.8c-3.9,3.3-7.7,6.8-11.4,10.4c-8.8,8.5-16.8,18.4-23.1,29c-6.7,11.3-11.5,23.2-13.9,36.1
				c-2.3,12.1-1.6,25.1,1.5,37c0.8,3.2,1.9,6.3,2.9,9.4"/>
			<polyline class="st3" points="501.7,544.8 551,573.1 716.7,477.4 			"/>
			<polyline class="st3" points="487.7,536.9 406.5,489.9 533.8,416.4 			"/>
			<line class="st3" x1="425.7" y1="475.4" x2="428.6" y2="477.1"/>
			<line class="st3" x1="572.3" y1="394" x2="547.5" y2="408.3"/>
			<path class="st3" d="M1320.4,585.9c59.6,19.6,133.7,16.9,188.4-7"/>
			<path class="st3" d="M1508.8,579c30.6-13.3,52.6-32.2,62.3-53.6"/>
			<polyline class="st3" points="1571.1,525.6 1602.6,496.8 1672.2,495.5 			"/>
			<path class="st3" d="M1235.6,512.6c3.8,17.1,15.2,33.3,33.2,47"/>
			<path class="st3" d="M1268.8,559.7c9.1,7,19.8,13.2,31.8,18.6"/>
			<polyline class="st3" points="1552.1,367 1510.3,403.8 1446.6,404.1 1444.6,403.9 			"/>
			<path class="st3" d="M1444.6,403.8c-49.6-6.7-101.7-0.3-142.3,17.4"/>
			<path class="st3" d="M1302.2,421.2c-42,18.3-67.1,46.7-68,77"/>
			<polyline class="st4" points="1136.8,534.7 745.2,621.3 691.4,590.2 913.1,462.1 914.5,461.4 982.5,422.2 950.8,403.8 			"/>
			<path class="st3" d="M1163,575.9c6.8,7.3,14.5,14.3,23.2,20.9"/>
			<path class="st3" d="M1186.2,596.8c8.6,6.6,18.1,12.8,28.4,18.6"/>
			<path class="st4" d="M1165.1,576.3l-1.5-1.8l-37.4,13.3l0,0c7.3,7.9,15.3,15.4,24.7,22.6"/>
			<path class="st4" d="M1151.1,610.4c10.4,7.9,21.9,15.3,34.6,22l29-15.6"/>
			<polygon class="st4" points="758.3,640.2 681.5,595.9 658.9,608.8 735.9,653.3 			"/>
			<path class="st6" d="M968.9,743.9c5.1,1.4,10.5,2.3,16,2.8"/>
			<polyline class="st3" points="621.1,751.8 630.9,719.8 637.7,720.4 			"/>
			<line class="st3" x1="732.6" y1="731.2" x2="647.8" y2="721.6"/>
			<line class="st4" x1="755.8" y1="766.2" x2="778.3" y2="704.9"/>
			<path class="st4" d="M742.3,700.6c5,0.3,9.9,0.9,14.8,1.5c5.1,0.6,10.1,1.3,15.1,1.9c4.7,0.5,9.3,1.3,13.9,1.9
				c4.9,0.6,9.8,1.3,14.7,1.9c5.4,0.7,10.7,1.4,16.1,2.1c5.1,0.7,10.2,1.4,15.3,2.1c4.4,0.6,8.8,1.2,13.2,1.9
				c5.3,0.8,10.6,1.6,15.9,2.3c4.9,0.7,9.7,1.3,14.6,2c2.5,0.3,4.9,0.7,7.4,1c1.2,0.1,2.4,0.4,3.5,0.6c1.1,0.2,2.2,0.2,3.2,0.4
				c1.3,0.2,2.5,0.4,3.7,0.6"/>
			<line class="st3" x1="867.7" y1="780.8" x2="894.2" y2="720.4"/>
			<line class="st4" x1="632.6" y1="719.7" x2="647.3" y2="670.4"/>
			<line class="st3" x1="732.6" y1="731.2" x2="742.8" y2="701.4"/>
			<polyline class="st4" points="771.6,686.1 887.2,701.5 895.7,681.1 778.3,665.4 773.9,679.2 			"/>
			<line class="st3" x1="850.1" y1="461.8" x2="752.6" y2="518.3"/>
			<line class="st3" x1="738.7" y1="526.3" x2="659.7" y2="571.9"/>
			<line class="st3" x1="722.2" y1="535.8" x2="701.8" y2="524"/>
			<line class="st3" x1="687.8" y1="516" x2="668.8" y2="505"/>
			<line class="st3" x1="618.2" y1="587.6" x2="602.4" y2="578.5"/>
			<line class="st3" x1="588.5" y1="570.4" x2="572.2" y2="560.9"/>
			<line class="st4" x1="1537.9" y1="637.2" x2="1498.3" y2="597.1"/>
			<polyline class="st3" points="1412.6,658.4 1409.7,612.5 1409.7,612 			"/>
			<polyline class="st3" points="1663.1,542.8 1588.5,530.2 1663.1,542.8 			"/>
			<polyline class="st4" points="1590.9,529.7 1570.8,526.3 1664.2,541.9 			"/>
			<path class="st3" d="M1584.8,536.7c1.3-2.1,2.5-4.3,3.6-6.5"/>
			<path class="st4" d="M1538.5,579.1c12.2-7,22.7-15,31.3-23.6"/>
			<path class="st4" d="M1409.6,611.9c48.6-1.2,94.6-12.9,129-32.8"/>
			<path class="st3" d="M1381,611.2c9.6,0.6,19.3,0.8,29,0.6"/>
			<line class="st3" x1="1161.9" y1="489.3" x2="1132.2" y2="489.3"/>
			<line class="st3" x1="1640.8" y1="574.8" x2="1570.4" y2="555"/>
			<polyline class="st3" points="1571,555.2 1571.1,555 1571.5,554.5 1572.1,553.9 1572.7,553.2 1574.2,551.3 1575.6,549.4 			"/>
			<line class="st3" x1="718.9" y1="215.9" x2="997.4" y2="376.9"/>
			<line class="st3" x1="394.1" y1="563.8" x2="452.8" y2="530"/>
			<line class="st3" x1="347.9" y1="430.6" x2="416.1" y2="469.9"/>
			<line class="st4" x1="406" y1="503.5" x2="452.3" y2="530.1"/>
			<polyline class="st4" points="437.7,378 504.6,416.6 371.4,493.4 			"/>
			<line class="st4" x1="305.2" y1="455.3" x2="397.3" y2="508.3"/>
			<line class="st4" x1="393.6" y1="404.2" x2="459.8" y2="442.3"/>
			<line class="st4" x1="406" y1="503.5" x2="347.8" y2="537"/>
			<line class="st3" x1="997.4" y1="376.9" x2="872.8" y2="448.7"/>
			<path class="st3" d="M960,740.9c7.4,2.9,15.9,4.9,24.7,5.8"/>
			<path class="st3" d="M938.3,726.2c4.8,5.9,12.3,11,21.6,14.7"/>
			<polyline class="st3" points="927,744.5 948.8,747.9 928.7,789.3 			"/>
			<polyline class="st3" points="886.3,738.6 887.6,738.7 889.6,739 892.1,739.3 894.7,739.6 897.7,740.1 900.9,740.6 904.4,741.2 
				908.1,741.6 			"/>
			<line class="st3" x1="948.8" y1="747.9" x2="961" y2="741.2"/>
			<line class="st3" x1="683.8" y1="756.9" x2="694" y2="727.1"/>
			<line class="st3" x1="518.4" y1="362.9" x2="491.1" y2="347"/>
			<line class="st3" x1="770.1" y1="508.2" x2="540.6" y2="375.7"/>
			<line class="st3" x1="972.9" y1="771.3" x2="985.1" y2="746.6"/>
			<path class="st7" d="M1511.8,837.2l4-4.9l-39.3-10.8l-39.5-10.4l-39.6-10.1l-39.9-9.9l-40.1-9.6l-39.8-9.1v-0.3l53.7-119.1l0,0
				c101.5,15.8,211.8-3.8,280.2-52.1c78.9-55.8,81.5-135.6,6.3-193.1v-0.1c-14.6-10.7-30-20.3-45.6-29.4l-169.5-97.9
				c-5.5,3.2-11,6.4-16.5,9.5c-13.4,7.8-26.8,15.5-40.2,23.3c-16.7,9.7-33.4,19.3-50.1,29c-15.4,8.9-30.8,17.8-46.3,26.8
				c-9.5,5.5-19.1,11-28.6,16.5c-7.4,4.3-14.8,8.6-21.8,13.4c-6.3,4.3-13.4,8.4-19.3,13.4l-89.5-51.8l18.9-10.8l-32.3-18.6
				l149.4-86.3l-278.9-161L255.2,483.5l271.5,156.9l48.2-27.7l75.2,43.3l-5,17.1l-67.8-5.5l-20.6,79.1l34.2,2.6l34.2,3l34,3l34,3.5
				l33.8,3.7l33.7,4l33.7,4.3l33.7,4.4l33.5,4.7l33.4,4.9l33.2,5.2l33.1,5.5l11.9-24.3l40.1,7.8"/>
			<line class="st3" x1="743.1" y1="700.5" x2="665.8" y2="691.8"/>
			<line class="st4" x1="1615.7" y1="597.8" x2="1553.3" y2="570.4"/>
			<line class="st3" x1="652.5" y1="567.8" x2="604.2" y2="595.7"/>
			<line class="st3" x1="590" y1="603.9" x2="574.9" y2="612.6"/>
			<line class="st3" x1="652.5" y1="567.8" x2="659.7" y2="571.9"/>
			<line class="st3" x1="578.3" y1="452.7" x2="460.3" y2="521"/>
			<line class="st3" x1="671.4" y1="451.2" x2="623.6" y2="478.9"/>
			<line class="st3" x1="668.8" y1="505" x2="525.1" y2="422"/>
			<line class="st4" x1="1498.7" y1="648" x2="1471.3" y2="604.5"/>
			<path class="st3" d="M1349.2,607.4c-4.9-1.1-9.8-2.1-14.7-3.3c-5.2-1.2-10.6-1.8-15.7,0.1c-3.8,1.4-5.9,4.8-8.4,7.8
				c-4.9,6-9.8,12.1-14.7,18.1c-3.5,4.4-7.1,8.7-10.6,13.1l-0.1-0.1c15.1,4.2,30.6,7.4,46.3,9.9"/>
			<line class="st3" x1="659.1" y1="713" x2="656" y2="722.6"/>
			<line class="st3" x1="665.8" y1="691.8" x2="662.9" y2="701.2"/>
			<path class="st3" d="M1213.2,468.3c-2.8,6.5-5,13-6.4,19.6l-0.1,1.4h-22"/>
			<line class="st3" x1="1143.8" y1="456.5" x2="1219.3" y2="469.3"/>
			<line class="st3" x1="1234.2" y1="471.6" x2="1240" y2="472.4"/>
			<g>
				<polygon class="st8" points="964.8,707.3 974,708.8 969.2,718.6 960,717.1 				"/>
				<polygon class="st8" points="1031,717.9 1037.4,719.1 1032.3,728.9 1025.8,727.7 				"/>
				<polygon class="st8" points="1092.8,728.8 1099.2,729.9 1094,739.7 1087.6,738.6 				"/>
				<polygon class="st8" points="1153.8,739.6 1163,741.5 1157,751.1 1147.8,749.2 				"/>
			</g>
			<g>
				<polygon class="st9" points="833,687.5 829.3,697.2 895.2,706.1 899.6,696.4 				"/>
				<polygon class="st9" points="771.2,679.6 767.4,689.4 776.6,690.6 780.3,680.8 				"/>
				<polygon class="st9" points="713.3,660.1 705.9,681.7 716.9,682.9 724.3,661.4 				"/>
			</g>
			<line class="st4" x1="883.7" y1="443.3" x2="913.7" y2="461.4"/>
		</g>
		<g>
			<polygon class="st10" points="998.9,805.8 1038.5,812.4 1024,797.8 			"/>
		</g>
		<g>
			<polygon class="st11" points="881.5,458.7 865.6,458.7 865.6,467.8 			"/>
		</g>
	</g>
	<g>
		<path class="st12" d="M979.9,837.2l0.8-6.4l-0.8-6.4h10.4c1.2,0,2.2,0.3,3,0.9c0.7,0.6,1.1,1.4,1.1,2.3c0,0.9-0.4,1.7-1.1,2.3
			c-0.7,0.6-1.8,0.9-3.1,1.1l0.3-0.7c1.5,0.1,2.7,0.4,3.5,1s1.2,1.4,1.2,2.4c0,1.1-0.4,2-1.2,2.6s-1.9,1-3.3,1L979.9,837.2
			L979.9,837.2z M984.4,836.2l-1.8-1.9h6.5c0.5,0,0.9-0.1,1.1-0.3c0.2-0.2,0.4-0.5,0.4-0.9s-0.1-0.7-0.4-0.9
			c-0.3-0.2-0.7-0.3-1.2-0.3h-5.5v-2.4h5c0.5,0,0.8-0.1,1.1-0.3c0.2-0.2,0.4-0.5,0.4-0.8s-0.1-0.6-0.3-0.8s-0.5-0.3-1-0.3h-5.9
			l1.7-1.9l0.7,5.4L984.4,836.2z"/>
		<path class="st12" d="M995.4,837.2l5.9-7.2v1.3l-5.6-7h5.1l3.6,4.4h-1.3l3.6-4.4h5l-5.8,7l-0.2-1.8l6.4,7.6h-5.2l-3.9-4.7h1.4
			l-3.9,4.7h-5.1V837.2z"/>
		<path class="st12" d="M1020.4,837.6c-1.6,0-3.1-0.3-4.3-0.8c-1.2-0.6-2.2-1.4-2.9-2.4s-1-2.2-1-3.5c0-1.4,0.3-2.5,1-3.6
			c0.7-1,1.6-1.8,2.9-2.4c1.2-0.6,2.7-0.9,4.3-0.9s3.1,0.3,4.3,0.9c1.2,0.6,2.2,1.4,2.9,2.4c0.7,1,1,2.2,1,3.6c0,1.3-0.3,2.5-1,3.5
			s-1.6,1.8-2.9,2.4C1023.4,837.3,1022,837.6,1020.4,837.6z M1020.4,834.2c0.7,0,1.4-0.1,1.9-0.4c0.5-0.3,0.9-0.7,1.2-1.2
			s0.4-1.1,0.4-1.8s-0.1-1.3-0.4-1.8c-0.3-0.5-0.7-0.9-1.2-1.2s-1.2-0.4-1.9-0.4s-1.4,0.1-1.9,0.4c-0.5,0.3-1,0.7-1.2,1.2
			c-0.3,0.5-0.4,1.1-0.4,1.8s0.1,1.3,0.4,1.8c0.3,0.5,0.7,0.9,1.2,1.2C1019,834,1019.6,834.2,1020.4,834.2z"/>
		<path class="st12" d="M1048.5,833.8v6.5h-3.9v-3.1h-11.2v3.1h-3.9v-6.5h3.9l0.9,0.1h9.3l0.8-0.1H1048.5z M1032.1,824.4h14.1v11.9
			h-4.6v-10.7l2.1,2.1h-9.4l1.7-1.7c0.2,0.6,0.3,1.2,0.4,1.7c0,0.5,0.1,1,0.1,1.5c0,2.1-0.4,3.7-1.1,4.8s-1.7,1.7-3,1.7l-1.9-1.6
			c1.2-0.8,1.7-2.8,1.7-5.9c0-0.6,0-1.2-0.1-1.9C1032.2,825.8,1032.2,825.1,1032.1,824.4z"/>
	</g>
	<g>
		<g>
			<circle class="st12" cx="807.6" cy="645" r="19.9"/>
		</g>
		<path class="st1" d="M797.1,637.4v5.4c0,0.2,0.1,0.4,0.3,0.6l13.9,9.8c0.1,0.1,0.2,0.1,0.3,0.1h6c0.3,0,0.6-0.3,0.6-0.6v-4.9
			c0-0.3-0.3-0.6-0.6-0.6h-4.1v-2.8c0-0.3-0.3-0.6-0.6-0.6h-4.1V641c0-0.3-0.3-0.6-0.6-0.6h-4.1v-2.8c0-0.3-0.3-0.6-0.6-0.6h-5.9
			C797.3,636.8,797.1,637.1,797.1,637.4z M802.9,638.1v2.8c0,0.3,0.3,0.6,0.6,0.6h4.1v2.8c0,0.3,0.3,0.6,0.6,0.6h4.1v2.8
			c0,0.3,0.3,0.6,0.6,0.6h4.1v3.7h-5.3l-13.5-9.6V638L802.9,638.1z"/>
		<g>
			<path class="st12" d="M807.6,662.7c0,0,0.2,0.2,0.6,0.7c0.2,0.2,0.4,0.5,0.5,0.7c0.1,0.1,0.2,0.3,0.3,0.5c0.1,0.1,0.1,0.2,0,0.2
				c0,0.1,0,0.2,0,0.3c0,1.4,0,3.3,0,5.2s0,3.8,0,5.2c0,0.1,0,0.2,0,0.3s0,0.2,0,0.2c-0.1,0.2-0.2,0.3-0.3,0.5
				c-0.2,0.3-0.4,0.5-0.5,0.7c-0.3,0.4-0.5,0.7-0.5,0.7s-0.2-0.2-0.5-0.7c-0.2-0.2-0.4-0.5-0.5-0.7c-0.1-0.1-0.2-0.3-0.3-0.5
				c-0.1-0.1-0.1-0.2,0-0.2c0-0.1,0-0.2,0-0.3c0-1.4,0-3.3,0-5.2s0-3.8,0-5.2c0-0.1,0-0.2,0-0.3s0-0.2,0-0.2
				c0.1-0.2,0.2-0.3,0.3-0.5c0.2-0.3,0.4-0.5,0.5-0.7C807.4,663,807.6,662.7,807.6,662.7z"/>
		</g>
	</g>
	<g>
		<g>
			<circle class="st12" cx="643.5" cy="701.3" r="19.9"/>
		</g>
		<path class="st1" d="M653.4,693h-5.9c-0.3,0-0.6,0.3-0.6,0.6v2.8h-4.1c-0.3,0-0.6,0.3-0.6,0.6v2.8h-4.1c-0.3,0-0.6,0.3-0.6,0.6
			v2.8h-4.1c-0.3,0-0.6,0.3-0.6,0.6v4.9c0,0.3,0.3,0.6,0.6,0.6h6c0.1,0,0.2,0,0.3-0.1l13.9-9.8c0.2-0.1,0.3-0.3,0.3-0.6v-5.4
			C654,693.3,653.8,693,653.4,693z M652.9,694.3v4.4l-13.5,9.6h-5.3v-3.7h4.1c0.3,0,0.6-0.3,0.6-0.6v-2.8h4.1c0.3,0,0.6-0.3,0.6-0.6
			v-2.8h4.1c0.3,0,0.6-0.3,0.6-0.6v-2.8L652.9,694.3z"/>
		<g>
			<path class="st12" d="M643.5,719c0,0,0.2,0.2,0.6,0.7c0.2,0.2,0.4,0.5,0.5,0.7c0.1,0.1,0.2,0.3,0.3,0.5c0.1,0.1,0.1,0.2,0,0.2
				c0,0.1,0,0.2,0,0.3c0,1.4,0,3.3,0,5.2s0,3.8,0,5.2c0,0.1,0,0.2,0,0.3s0,0.2,0,0.2c-0.1,0.2-0.2,0.3-0.3,0.5
				c-0.2,0.3-0.4,0.5-0.5,0.7c-0.3,0.4-0.5,0.7-0.5,0.7s-0.2-0.2-0.5-0.7c-0.2-0.2-0.4-0.5-0.5-0.7c-0.1-0.1-0.2-0.3-0.3-0.5
				c-0.1-0.1-0.1-0.2,0-0.2c0-0.1,0-0.2,0-0.3c0-1.4,0-3.3,0-5.2s0-3.8,0-5.2c0-0.1,0-0.2,0-0.3s0-0.2,0-0.2
				c0.1-0.2,0.2-0.3,0.3-0.5c0.2-0.3,0.4-0.5,0.5-0.7C643.3,719.2,643.5,719,643.5,719z"/>
		</g>
	</g>
	<g>
		<g>
			<circle class="st12" cx="1173.7" cy="569.4" r="19.9"/>
		</g>
		<path class="st1" d="M1183.6,561.2h-5.9c-0.3,0-0.6,0.3-0.6,0.6v2.8h-4.1c-0.3,0-0.6,0.3-0.6,0.6v2.8h-4.1c-0.3,0-0.6,0.3-0.6,0.6
			v2.8h-4.1c-0.3,0-0.6,0.3-0.6,0.6v4.9c0,0.3,0.3,0.6,0.6,0.6h6c0.1,0,0.2,0,0.3-0.1l13.9-9.8c0.2-0.1,0.3-0.3,0.3-0.6v-5.4
			C1184.2,561.4,1184,561.1,1183.6,561.2z M1183.1,562.4v4.4l-13.5,9.6h-5.3v-3.7h4.1c0.3,0,0.6-0.3,0.6-0.6v-2.8h4.1
			c0.3,0,0.6-0.3,0.6-0.6v-2.8h4.1c0.3,0,0.6-0.3,0.6-0.6v-2.8L1183.1,562.4z"/>
		<g>
			<path class="st12" d="M1173.7,587.1c0,0,0.2,0.2,0.6,0.7c0.2,0.2,0.4,0.5,0.5,0.7c0.1,0.1,0.2,0.3,0.3,0.5c0.1,0.1,0.1,0.2,0,0.2
				c0,0.1,0,0.2,0,0.3c0,1.4,0,3.3,0,5.2s0,3.8,0,5.2c0,0.1,0,0.2,0,0.3s0,0.2,0,0.2c-0.1,0.2-0.2,0.3-0.3,0.5
				c-0.2,0.3-0.4,0.5-0.5,0.7c-0.3,0.4-0.5,0.7-0.5,0.7s-0.2-0.2-0.5-0.7c-0.2-0.2-0.4-0.5-0.5-0.7c-0.1-0.1-0.2-0.3-0.3-0.5
				c-0.1-0.1-0.1-0.2,0-0.2c0-0.1,0-0.2,0-0.3c0-1.4,0-3.3,0-5.2s0-3.8,0-5.2c0-0.1,0-0.2,0-0.3s0-0.2,0-0.2
				c0.1-0.2,0.2-0.3,0.3-0.5c0.2-0.3,0.4-0.5,0.5-0.7C1173.5,587.3,1173.7,587.1,1173.7,587.1z"/>
		</g>
	</g>
	<g>
		<g>
			<circle class="st12" cx="1613.9" cy="524.6" r="19.9"/>
		</g>
		<path class="st1" d="M1623.8,516.3h-5.9c-0.3,0-0.6,0.3-0.6,0.6v2.8h-4.1c-0.3,0-0.6,0.3-0.6,0.6v2.8h-4.1c-0.3,0-0.6,0.3-0.6,0.6
			v2.8h-4.1c-0.3,0-0.6,0.3-0.6,0.6v4.9c0,0.3,0.3,0.6,0.6,0.6h6c0.1,0,0.2,0,0.3-0.1l13.9-9.8c0.2-0.1,0.3-0.3,0.3-0.6v-5.4
			C1624.4,516.6,1624.1,516.3,1623.8,516.3z M1623.2,517.6v4.4l-13.5,9.6h-5.3v-3.7h4.1c0.3,0,0.6-0.3,0.6-0.6v-2.8h4.1
			c0.3,0,0.6-0.3,0.6-0.6v-2.8h4.1c0.3,0,0.6-0.3,0.6-0.6v-2.8L1623.2,517.6z"/>
		<g>
			<path class="st12" d="M1613.9,542.2c0,0,0.2,0.2,0.6,0.7c0.2,0.2,0.4,0.5,0.5,0.7c0.1,0.1,0.2,0.3,0.3,0.5c0.1,0.1,0.1,0.2,0,0.2
				c0,0.1,0,0.2,0,0.3c0,1.4,0,3.3,0,5.2s0,3.8,0,5.2c0,0.1,0,0.2,0,0.3s0,0.2,0,0.2c-0.1,0.2-0.2,0.3-0.3,0.5
				c-0.2,0.3-0.4,0.5-0.5,0.7c-0.3,0.4-0.5,0.7-0.5,0.7s-0.2-0.2-0.5-0.7c-0.2-0.2-0.4-0.5-0.5-0.7c-0.1-0.1-0.2-0.3-0.3-0.5
				c-0.1-0.1-0.1-0.2,0-0.2c0-0.1,0-0.2,0-0.3c0-1.4,0-3.3,0-5.2s0-3.8,0-5.2c0-0.1,0-0.2,0-0.3s0-0.2,0-0.2
				c0.1-0.2,0.2-0.3,0.3-0.5c0.2-0.3,0.4-0.5,0.5-0.7C1613.6,542.5,1613.9,542.2,1613.9,542.2z"/>
		</g>
	</g>
	<g>
		<g>
			<circle class="st12" cx="708.6" cy="591.9" r="19.9"/>
		</g>
		<g>
			<path class="st12" d="M708.6,609.6c0,0,0.2,0.2,0.5,0.7c0.1,0.2,0.3,0.5,0.5,0.7c0.1,0.1,0.2,0.3,0.3,0.5s0,0.3,0,0.5
				c0,1.4,0,3.3,0,5.2s0,3.8,0,5.2c0,0.1,0,0.2,0,0.3s0,0.2,0,0.2c-0.1,0.2-0.2,0.3-0.3,0.5c-0.2,0.3-0.3,0.5-0.5,0.7
				c-0.3,0.4-0.5,0.7-0.5,0.7s-0.2-0.2-0.5-0.7c-0.1-0.2-0.3-0.5-0.5-0.7c-0.1-0.1-0.2-0.3-0.3-0.5c-0.1-0.1-0.1-0.2,0-0.2
				c0-0.1,0-0.2,0-0.3c0-1.4,0-3.3,0-5.2s0-3.8,0-5.2c0-0.2-0.1-0.3,0-0.5s0.2-0.3,0.3-0.5c0.2-0.3,0.3-0.5,0.5-0.7
				C708.4,609.9,708.6,609.6,708.6,609.6z"/>
		</g>
		<g>
			<path class="st1" d="M696.4,589.8c0.1,0.5,0.4,1.7,1.6,2.4c0.3,0.2,0.6,0.3,0.9,0.3c0.1,0,0.2,0,0.3,0h3.3c0.1,0,0.1,0,0.2,0.1
				l10.4,7.8c0.3,0.2,0.6,0.3,0.9,0.3h6c0.2,0,0.4,0,0.5-0.1c0.5-0.2,1.4-0.7,2-1.8c0.2-0.4,0.7-1.6,0-3c-0.6-1.3-1.7-1.8-2.2-1.9
				c-0.1,0-0.3-0.1-0.4-0.1h-3.6c-0.1,0-0.1,0-0.2-0.1l-1.3-1v-3.5c0-0.2-0.1-1-0.7-1.5c-0.1-0.1-0.8-0.7-1.8-0.4
				c-0.6,0.2-1.1,0.6-1.4,1.3c-0.1,0.1-0.1,0.3-0.1,0.4v0.1v0.6l-5-3.8c-0.3-0.2-0.6-0.3-0.9-0.3h-5.3c-0.2,0-0.3,0-0.4,0.1
				c-0.4,0.1-1.1,0.4-1.6,1C697.2,586.8,696.1,588,696.4,589.8z M698.1,587.4c0.4-0.4,0.8-0.6,1.1-0.7h0.1h5.3c0.1,0,0.1,0,0.2,0.1
				l10.5,7.8c0.3,0.2,0.6,0.3,0.9,0.3h3.6h0.1c0.3,0.1,1.1,0.4,1.5,1.3c0.4,1,0.1,1.9,0,2c-0.4,0.8-1,1.1-1.3,1.2H720h-6
				c-0.1,0-0.1,0-0.2-0.1l-10.4-7.8c-0.3-0.2-0.6-0.3-0.9-0.3h-3.3l0,0c-0.2,0-0.4-0.1-0.5-0.2c-0.7-0.4-0.9-1.2-1-1.6
				C697.3,588.3,698.1,587.4,698.1,587.4z"/>
			<path class="st1" d="M712.6,587.1c-1.1,0-1.9-0.9-1.9-1.9c0-1.1,0.9-1.9,1.9-1.9c1.1,0,1.9,0.9,1.9,1.9
				C714.6,586.2,713.7,587.1,712.6,587.1z"/>
		</g>
	</g>
	<g>
		<g>
			<circle class="st12" cx="929.3" cy="399.1" r="19.9"/>
		</g>
		<g>
			<path class="st12" d="M929.3,416.8c0,0,0.2,0.2,0.5,0.7c0.1,0.2,0.3,0.5,0.5,0.7c0.1,0.1,0.2,0.3,0.3,0.5s0,0.3,0,0.5
				c0,1.4,0,3.3,0,5.2c0,1.9,0,3.8,0,5.2c0,0.1,0,0.2,0,0.3c0,0.1,0,0.2,0,0.2c-0.1,0.2-0.2,0.3-0.3,0.5c-0.2,0.3-0.3,0.5-0.5,0.7
				c-0.3,0.4-0.5,0.7-0.5,0.7s-0.2-0.2-0.5-0.7c-0.1-0.2-0.3-0.5-0.5-0.7c-0.1-0.1-0.2-0.3-0.3-0.5c-0.1-0.1-0.1-0.2,0-0.2
				c0-0.1,0-0.2,0-0.3c0-1.4,0-3.3,0-5.2c0-1.9,0-3.8,0-5.2c0-0.2-0.1-0.3,0-0.5s0.2-0.3,0.3-0.5c0.2-0.3,0.3-0.5,0.5-0.7
				C929.1,417,929.3,416.8,929.3,416.8z"/>
		</g>
		<g>
			<path class="st1" d="M917.1,396.9c0.1,0.5,0.4,1.7,1.6,2.4c0.3,0.2,0.6,0.3,0.9,0.3c0.1,0,0.2,0,0.3,0h3.3c0.1,0,0.1,0,0.2,0.1
				l10.4,7.8c0.3,0.2,0.6,0.3,0.9,0.3h6c0.2,0,0.4,0,0.5-0.1c0.5-0.2,1.4-0.7,2-1.8c0.2-0.4,0.7-1.6,0-3c-0.6-1.3-1.7-1.8-2.2-1.9
				c-0.1,0-0.3-0.1-0.4-0.1H937c-0.1,0-0.1,0-0.2-0.1l-1.3-1v-3.5c0-0.2-0.1-1-0.7-1.5c-0.1-0.1-0.8-0.7-1.8-0.4
				c-0.6,0.2-1.1,0.6-1.4,1.3c-0.1,0.1-0.1,0.3-0.1,0.4v0.1v0.6l-5-3.8c-0.3-0.2-0.6-0.3-0.9-0.3h-5.3c-0.2,0-0.3,0-0.4,0.1
				c-0.4,0.1-1.1,0.4-1.6,1C917.8,393.9,916.7,395.2,917.1,396.9z M918.8,394.6c0.4-0.4,0.8-0.6,1.1-0.7h0.1h5.3
				c0.1,0,0.1,0,0.2,0.1l10.5,7.8c0.3,0.2,0.6,0.3,0.9,0.3h3.6h0.1c0.3,0.1,1.1,0.4,1.5,1.3c0.4,1,0.1,1.9,0,2
				c-0.4,0.8-1,1.1-1.3,1.2h-0.1h-6c-0.1,0-0.1,0-0.2-0.1l-10.4-7.8c-0.3-0.2-0.6-0.3-0.9-0.3h-3.3l0,0c-0.2,0-0.4-0.1-0.5-0.2
				c-0.7-0.4-0.9-1.2-1-1.6C918,395.5,918.8,394.6,918.8,394.6z"/>
			<path class="st1" d="M933.3,394.2c-1.1,0-1.9-0.9-1.9-1.9c0-1.1,0.9-1.9,1.9-1.9c1.1,0,1.9,0.9,1.9,1.9
				C935.2,393.4,934.3,394.2,933.3,394.2z"/>
		</g>
	</g>
	<g>
		<g>
			<circle class="st12" cx="715.9" cy="667.6" r="19.9"/>
		</g>
		<g>
			<path class="st12" d="M715.9,685.3c0,0,0.2,0.2,0.5,0.7c0.1,0.2,0.3,0.5,0.5,0.7c0.1,0.1,0.2,0.3,0.3,0.5s0,0.3,0,0.5
				c0,1.4,0,3.3,0,5.2s0,3.8,0,5.2c0,0.1,0,0.2,0,0.3s0,0.2,0,0.2c-0.1,0.2-0.2,0.3-0.3,0.5c-0.2,0.3-0.3,0.5-0.5,0.7
				c-0.3,0.4-0.5,0.7-0.5,0.7s-0.2-0.2-0.5-0.7c-0.1-0.2-0.3-0.5-0.5-0.7c-0.1-0.1-0.2-0.3-0.3-0.5c-0.1-0.1-0.1-0.2,0-0.2
				c0-0.1,0-0.2,0-0.3c0-1.4,0-3.3,0-5.2s0-3.8,0-5.2c0-0.2-0.1-0.3,0-0.5s0.2-0.3,0.3-0.5c0.2-0.3,0.3-0.5,0.5-0.7
				C715.7,685.5,715.9,685.3,715.9,685.3z"/>
		</g>
		<g>
			<path class="st1" d="M724.6,663.5l-17.3-0.2c-0.7,0-1.2,0.5-1.2,1.2l-0.1,13.1c0,0.7,0.5,1.2,1.2,1.2l17.3,0.2
				c0.7,0,1.2-0.5,1.2-1.2l0.1-13.1C725.9,664.1,725.3,663.5,724.6,663.5z M707.3,664.6L707.3,664.6l17.3,0.1l0,0l-0.1,13.1l0,0
				l-17.3-0.2l0,0L707.3,664.6z"/>
			<path class="st1" d="M711.3,662.1C711.3,662.2,711.3,662.2,711.3,662.1C711.4,662.2,711.4,662.2,711.3,662.1
				c0.1,0.1,0.2,0.2,0.2,0.2l0,0l0,0c0.1,0,0.1,0,0.2,0l0,0l0,0l0,0l0,0c0.1,0,0.1,0,0.2,0l0,0c0.1,0,0.1-0.1,0.2-0.1l0,0
				c0,0,0,0,0.1-0.1l0,0l2.9-3.6c0.1-0.1,0.2-0.3,0.1-0.5c0-0.2-0.1-0.3-0.2-0.4c-0.3-0.2-0.7-0.2-0.9,0.1l-1.8,2.2l0.1-5.4
				c0-0.3-0.3-0.6-0.6-0.6s-0.6,0.3-0.6,0.6l-0.1,5.5l-1.7-1.9c-0.1-0.1-0.3-0.2-0.4-0.2c-0.2,0-0.3,0-0.5,0.1
				c-0.1,0.1-0.2,0.3-0.2,0.4c0,0.2,0,0.3,0.1,0.5L711.3,662.1z"/>
			<path class="st1" d="M717.6,658.4c0.2,0,0.4-0.1,0.5-0.2l1.7-1.9l-0.1,5.5c0,0.3,0.3,0.6,0.6,0.6s0.6-0.3,0.6-0.6l0.1-5.4
				l1.7,2.2c0.2,0.3,0.6,0.3,0.9,0.1s0.3-0.6,0.1-0.9l-2.8-3.6l0,0c0,0,0-0.1-0.1-0.1l0,0l0,0c0,0-0.1-0.1-0.2-0.1l0,0
				c-0.1,0-0.1,0-0.2,0l0,0c-0.1,0-0.1,0-0.2,0l0,0l0,0c-0.1,0-0.1,0-0.1,0.1l0,0l-0.1,0.1l-2.8,3.2c-0.2,0.3-0.2,0.7,0.1,0.9
				C717.3,658.3,717.5,658.4,717.6,658.4z"/>
			<path class="st1" d="M710.9,667.6c0.5,0,0.9-0.4,0.9-0.9s-0.4-0.9-0.9-0.9s-0.9,0.4-0.9,0.9C710,667.2,710.4,667.6,710.9,667.6z"
				/>
			<path class="st1" d="M720.9,667.7c0.5,0,0.9-0.4,0.9-0.9s-0.4-0.9-0.9-0.9s-0.9,0.4-0.9,0.9S720.4,667.7,720.9,667.7z"/>
			<path class="st1" d="M715.9,667.7c0.5,0,0.9-0.4,0.9-0.9s-0.4-0.9-0.9-0.9s-0.9,0.4-0.9,0.9C715,667.2,715.4,667.6,715.9,667.7z"
				/>
			<path class="st1" d="M709.5,672.7L709.5,672.7l0.1,3.6c0,0.3,0.3,0.6,0.6,0.6c0.2,0,0.3,0,0.4-0.2c0.1-0.1,0.2-0.3,0.2-0.5v-3.5
				h0.2v3.6c0,0.3,0.2,0.6,0.5,0.6l0,0c0.2,0,0.3,0,0.4-0.2c0.1-0.1,0.2-0.3,0.2-0.5v-3.5l0,0c0.4,0,0.6-0.3,0.7-0.6v-2.6
				c0-0.9-0.7-1.7-1.7-1.7h-0.7c-0.9,0-1.7,0.7-1.7,1.7v2.6C708.9,672.4,709.2,672.7,709.5,672.7z"/>
			<path class="st1" d="M714.5,672.8L714.5,672.8l0.1,3.6c0,0.3,0.3,0.6,0.6,0.6c0.2,0,0.3,0,0.4-0.2c0.1-0.1,0.2-0.3,0.2-0.5v-3.5
				h0.2v3.6c0,0.3,0.3,0.6,0.6,0.6c0.2,0,0.3,0,0.4-0.2c0.1-0.1,0.2-0.3,0.2-0.5v-3.5l0,0c0.4,0,0.6-0.3,0.7-0.6v-2.6
				c0-0.9-0.7-1.7-1.7-1.7h-0.7c-0.9,0-1.7,0.7-1.7,1.6v2.6C713.9,672.5,714.2,672.8,714.5,672.8z"/>
			<path class="st1" d="M719.4,672.8L719.4,672.8v3.6c0,0.3,0.3,0.6,0.6,0.6c0.2,0,0.3,0,0.4-0.2c0.1-0.1,0.2-0.3,0.2-0.5v-3.5h0.2
				v3.6c0,0.3,0.3,0.6,0.6,0.6c0.2,0,0.3,0,0.4-0.2c0.1-0.1,0.2-0.3,0.2-0.5v-3.5l0,0c0.4,0,0.6-0.3,0.7-0.6v-2.6
				c0-0.9-0.7-1.7-1.7-1.7h-0.7c-0.9,0-1.7,0.7-1.7,1.7v2.6C718.8,672.5,719.1,672.8,719.4,672.8z"/>
		</g>
	</g>
	<g>
		<g>
			<circle class="st12" cx="1171.7" cy="442.6" r="19.9"/>
		</g>
		<g>
			<path class="st12" d="M1171.7,460.3c0,0,0.2,0.2,0.5,0.7c0.1,0.2,0.3,0.5,0.5,0.7c0.1,0.1,0.2,0.3,0.3,0.5c0.1,0.2,0,0.3,0,0.5
				c0,1.4,0,3.3,0,5.2c0,1.9,0,3.8,0,5.2c0,0.1,0,0.2,0,0.3c0,0.1,0,0.2,0,0.2c-0.1,0.2-0.2,0.3-0.3,0.5c-0.2,0.3-0.3,0.5-0.5,0.7
				c-0.3,0.4-0.5,0.7-0.5,0.7s-0.2-0.2-0.5-0.7c-0.1-0.2-0.3-0.5-0.5-0.7c-0.1-0.1-0.2-0.3-0.3-0.5c-0.1-0.1-0.1-0.2,0-0.2
				c0-0.1,0-0.2,0-0.3c0-1.4,0-3.3,0-5.2c0-1.9,0-3.8,0-5.2c0-0.2-0.1-0.3,0-0.5s0.2-0.3,0.3-0.5c0.2-0.3,0.3-0.5,0.5-0.7
				C1171.5,460.5,1171.7,460.3,1171.7,460.3z"/>
		</g>
		<g>
			<path class="st1" d="M1180.4,438.6l-17.3-0.2c-0.7,0-1.2,0.5-1.2,1.2l-0.1,13.1c0,0.7,0.5,1.2,1.2,1.2l17.3,0.2
				c0.7,0,1.2-0.5,1.2-1.2l0.1-13.1C1181.6,439.2,1181.1,438.6,1180.4,438.6z M1163.1,439.7C1163.1,439.7,1163.1,439.6,1163.1,439.7
				l17.3,0.1l0,0l-0.1,13.1l0,0l-17.3-0.2l0,0L1163.1,439.7z"/>
			<path class="st1" d="M1167.1,437.2L1167.1,437.2L1167.1,437.2c0.1,0.1,0.2,0.2,0.2,0.2l0,0l0,0c0.1,0,0.1,0,0.2,0l0,0l0,0l0,0
				l0,0c0.1,0,0.1,0,0.2,0l0,0c0.1,0,0.1-0.1,0.2-0.1l0,0c0,0,0,0,0.1-0.1l0,0l2.9-3.6c0.1-0.1,0.2-0.3,0.1-0.5
				c0-0.2-0.1-0.3-0.2-0.4c-0.3-0.2-0.7-0.2-0.9,0.1l-1.8,2.2l0.1-5.4c0-0.3-0.3-0.6-0.6-0.6c-0.3,0-0.6,0.3-0.6,0.6l-0.1,5.5
				l-1.7-1.9c-0.1-0.1-0.3-0.2-0.4-0.2c-0.2,0-0.3,0-0.5,0.1c-0.1,0.1-0.2,0.3-0.2,0.4c0,0.2,0,0.3,0.1,0.5L1167.1,437.2z"/>
			<path class="st1" d="M1173.4,433.4c0.2,0,0.4-0.1,0.5-0.2l1.7-1.9l-0.1,5.5c0,0.3,0.3,0.6,0.6,0.6c0.3,0,0.6-0.3,0.6-0.6l0.1-5.4
				l1.7,2.2c0.2,0.3,0.6,0.3,0.9,0.1c0.3-0.2,0.3-0.6,0.1-0.9l-2.8-3.6l0,0c0,0,0-0.1-0.1-0.1l0,0l0,0c0,0-0.1-0.1-0.2-0.1l0,0
				c-0.1,0-0.1,0-0.2,0l0,0c-0.1,0-0.1,0-0.2,0l0,0l0,0c-0.1,0-0.1,0-0.1,0.1l0,0l-0.1,0.1l-2.8,3.2c-0.2,0.3-0.2,0.7,0.1,0.9
				C1173.1,433.4,1173.2,433.4,1173.4,433.4z"/>
			<path class="st1" d="M1166.7,442.7c0.5,0,0.9-0.4,0.9-0.9s-0.4-0.9-0.9-0.9s-0.9,0.4-0.9,0.9
				C1165.8,442.2,1166.2,442.7,1166.7,442.7z"/>
			<path class="st1" d="M1176.6,442.8c0.5,0,0.9-0.4,0.9-0.9s-0.4-0.9-0.9-0.9s-0.9,0.4-0.9,0.9
				C1175.7,442.3,1176.1,442.7,1176.6,442.8z"/>
			<path class="st1" d="M1171.7,442.7c0.5,0,0.9-0.4,0.9-0.9s-0.4-0.9-0.9-0.9s-0.9,0.4-0.9,0.9
				C1170.8,442.3,1171.2,442.7,1171.7,442.7z"/>
			<path class="st1" d="M1165.3,447.8L1165.3,447.8l0.1,3.6c0,0.3,0.3,0.6,0.6,0.6c0.2,0,0.3,0,0.4-0.2c0.1-0.1,0.2-0.3,0.2-0.5
				v-3.5h0.2v3.6c0,0.3,0.2,0.6,0.5,0.6l0,0c0.2,0,0.3,0,0.4-0.2c0.1-0.1,0.2-0.3,0.2-0.5v-3.5l0,0c0.4,0,0.6-0.3,0.7-0.6v-2.6
				c0-0.9-0.7-1.7-1.7-1.7h-0.7c-0.9,0-1.7,0.7-1.7,1.6v2.6C1164.7,447.5,1164.9,447.8,1165.3,447.8z"/>
			<path class="st1" d="M1170.3,447.8L1170.3,447.8l0.1,3.6c0,0.3,0.3,0.6,0.6,0.6c0.2,0,0.3,0,0.4-0.2c0.1-0.1,0.2-0.3,0.2-0.5
				v-3.5h0.2v3.6c0,0.3,0.3,0.6,0.6,0.6c0.2,0,0.3,0,0.4-0.2c0.1-0.1,0.2-0.3,0.2-0.5v-3.5l0,0c0.4,0,0.6-0.3,0.7-0.6v-2.6
				c0-0.9-0.7-1.7-1.7-1.7h-0.7c-0.9,0-1.7,0.7-1.7,1.6v2.6C1169.7,447.5,1169.9,447.8,1170.3,447.8z"/>
			<path class="st1" d="M1175.2,447.9L1175.2,447.9v3.6c0,0.3,0.3,0.6,0.6,0.6c0.2,0,0.3,0,0.4-0.2c0.1-0.1,0.2-0.3,0.2-0.5v-3.5
				h0.2v3.6c0,0.3,0.3,0.6,0.6,0.6c0.2,0,0.3,0,0.4-0.2c0.1-0.1,0.2-0.3,0.2-0.5v-3.5l0,0c0.4,0,0.6-0.3,0.7-0.6v-2.6
				c0-0.9-0.7-1.7-1.7-1.7h-0.7c-0.9,0-1.7,0.7-1.7,1.6v2.6C1174.6,447.6,1174.9,447.9,1175.2,447.9z"/>
		</g>
	</g>
	<g>
		<g>
			<circle class="st12" cx="1274.4" cy="803.6" r="19.9"/>
		</g>
		<path class="st1" d="M1284.3,795.3h-5.9c-0.3,0-0.6,0.3-0.6,0.6v2.8h-4.1c-0.3,0-0.6,0.3-0.6,0.6v2.8h-4.1c-0.3,0-0.6,0.3-0.6,0.6
			v2.8h-4.1c-0.3,0-0.6,0.3-0.6,0.6v4.9c0,0.3,0.3,0.6,0.6,0.6h6c0.1,0,0.2,0,0.3-0.1l13.9-9.8c0.2-0.1,0.3-0.3,0.3-0.6v-5.4
			C1284.9,795.6,1284.7,795.3,1284.3,795.3z M1283.7,796.6v4.4l-13.5,9.6h-5.3v-3.7h4.1c0.3,0,0.6-0.3,0.6-0.6v-2.8h4.1
			c0.3,0,0.6-0.3,0.6-0.6v-2.8h4.1c0.3,0,0.6-0.3,0.6-0.6v-2.8L1283.7,796.6z"/>
		<g>
			<path class="st12" d="M1274.4,821.3c0,0,0.2,0.2,0.6,0.7c0.2,0.2,0.4,0.5,0.5,0.7c0.1,0.1,0.2,0.3,0.3,0.5c0.1,0.1,0.1,0.2,0,0.2
				c0,0.1,0,0.2,0,0.3c0,1.4,0,3.3,0,5.2s0,3.8,0,5.2c0,0.1,0,0.2,0,0.3s0,0.2,0,0.2c-0.1,0.2-0.2,0.3-0.3,0.5
				c-0.2,0.3-0.4,0.5-0.5,0.7c-0.3,0.4-0.5,0.7-0.5,0.7s-0.2-0.2-0.5-0.7c-0.2-0.2-0.4-0.5-0.5-0.7c-0.1-0.1-0.2-0.3-0.3-0.5
				c-0.1-0.1-0.1-0.2,0-0.2c0-0.1,0-0.2,0-0.3c0-1.4,0-3.3,0-5.2s0-3.8,0-5.2c0-0.1,0-0.2,0-0.3s0-0.2,0-0.2
				c0.1-0.2,0.2-0.3,0.3-0.5c0.2-0.3,0.4-0.5,0.5-0.7C1274.2,821.5,1274.4,821.3,1274.4,821.3z"/>
		</g>
	</g>
	<g>
		<g>
			<circle class="st12" cx="1231" cy="792.4" r="19.9"/>
		</g>
		<g>
			<path class="st12" d="M1231,810.1c0,0,0.2,0.2,0.5,0.7c0.1,0.2,0.3,0.5,0.5,0.7c0.1,0.1,0.2,0.3,0.3,0.5c0.1,0.2,0,0.3,0,0.5
				c0,1.4,0,3.3,0,5.2s0,3.8,0,5.2c0,0.1,0,0.2,0,0.3s0,0.2,0,0.2c-0.1,0.2-0.2,0.3-0.3,0.5c-0.2,0.3-0.3,0.5-0.5,0.7
				c-0.3,0.4-0.5,0.7-0.5,0.7s-0.2-0.2-0.5-0.7c-0.1-0.2-0.3-0.5-0.5-0.7c-0.1-0.1-0.2-0.3-0.3-0.5c-0.1-0.1-0.1-0.2,0-0.2
				c0-0.1,0-0.2,0-0.3c0-1.4,0-3.3,0-5.2s0-3.8,0-5.2c0-0.2-0.1-0.3,0-0.5s0.2-0.3,0.3-0.5c0.2-0.3,0.3-0.5,0.5-0.7
				C1230.8,810.3,1231,810.1,1231,810.1z"/>
		</g>
		<g>
			<path class="st1" d="M1239.7,788.4l-17.3-0.2c-0.7,0-1.2,0.5-1.2,1.2l-0.1,13.1c0,0.7,0.5,1.2,1.2,1.2l17.3,0.2
				c0.7,0,1.2-0.5,1.2-1.2l0.1-13.1C1240.9,788.9,1240.3,788.4,1239.7,788.4z M1222.3,789.4C1222.3,789.4,1222.4,789.4,1222.3,789.4
				l17.3,0.1l0,0l-0.1,13.1l0,0l-17.3-0.2l0,0L1222.3,789.4z"/>
			<path class="st1" d="M1226.3,786.9C1226.4,787,1226.4,787,1226.3,786.9C1226.4,787,1226.4,787,1226.3,786.9
				c0.1,0.1,0.2,0.2,0.2,0.2l0,0l0,0c0.1,0,0.1,0,0.2,0l0,0l0,0l0,0l0,0c0.1,0,0.1,0,0.2,0l0,0c0.1,0,0.1-0.1,0.2-0.1l0,0
				c0,0,0,0,0.1-0.1l0,0l2.9-3.6c0.1-0.1,0.2-0.3,0.1-0.5c0-0.2-0.1-0.3-0.2-0.4c-0.3-0.2-0.7-0.2-0.9,0.1l-1.8,2.2l0.1-5.4
				c0-0.3-0.3-0.6-0.6-0.6c-0.3,0-0.6,0.3-0.6,0.6l-0.1,5.5l-1.7-1.9c-0.1-0.1-0.3-0.2-0.4-0.2c-0.2,0-0.3,0-0.5,0.1
				c-0.1,0.1-0.2,0.3-0.2,0.4c0,0.2,0,0.3,0.1,0.5L1226.3,786.9z"/>
			<path class="st1" d="M1232.7,783.2c0.2,0,0.4-0.1,0.5-0.2l1.7-1.9l-0.1,5.5c0,0.3,0.3,0.6,0.6,0.6c0.3,0,0.6-0.3,0.6-0.6l0.1-5.4
				l1.7,2.2c0.2,0.3,0.6,0.3,0.9,0.1s0.3-0.6,0.1-0.9l-2.8-3.6l0,0c0,0,0-0.1-0.1-0.1l0,0l0,0c0,0-0.1-0.1-0.2-0.1l0,0
				c-0.1,0-0.1,0-0.2,0l0,0c-0.1,0-0.1,0-0.2,0l0,0l0,0c-0.1,0-0.1,0-0.1,0.1l0,0l-0.1,0.1l-2.8,3.2c-0.2,0.3-0.2,0.7,0.1,0.9
				C1232.4,783.1,1232.5,783.2,1232.7,783.2z"/>
			<path class="st1" d="M1226,792.4c0.5,0,0.9-0.4,0.9-0.9s-0.4-0.9-0.9-0.9s-0.9,0.4-0.9,0.9S1225.5,792.4,1226,792.4z"/>
			<path class="st1" d="M1235.9,792.5c0.5,0,0.9-0.4,0.9-0.9s-0.4-0.9-0.9-0.9s-0.9,0.4-0.9,0.9S1235.4,792.5,1235.9,792.5z"/>
			<path class="st1" d="M1231,792.5c0.5,0,0.9-0.4,0.9-0.9s-0.4-0.9-0.9-0.9s-0.9,0.4-0.9,0.9S1230.5,792.5,1231,792.5z"/>
			<path class="st1" d="M1224.6,797.6L1224.6,797.6l0.1,3.6c0,0.3,0.3,0.6,0.6,0.6c0.2,0,0.3,0,0.4-0.2c0.1-0.1,0.2-0.3,0.2-0.5
				v-3.5h0.2v3.6c0,0.3,0.2,0.6,0.5,0.6l0,0c0.2,0,0.3,0,0.4-0.2c0.1-0.1,0.2-0.3,0.2-0.5v-3.5l0,0c0.4,0,0.6-0.3,0.7-0.6v-2.6
				c0-0.9-0.7-1.7-1.7-1.7h-0.7c-0.9,0-1.7,0.7-1.7,1.6v2.6C1223.9,797.3,1224.2,797.6,1224.6,797.6z"/>
			<path class="st1" d="M1229.6,797.6L1229.6,797.6l0.1,3.6c0,0.3,0.3,0.6,0.6,0.6c0.2,0,0.3,0,0.4-0.2c0.1-0.1,0.2-0.3,0.2-0.5
				v-3.5h0.2v3.6c0,0.3,0.3,0.6,0.6,0.6c0.2,0,0.3,0,0.4-0.2c0.1-0.1,0.2-0.3,0.2-0.5v-3.5l0,0c0.4,0,0.6-0.3,0.7-0.6v-2.6
				c0-0.9-0.7-1.7-1.7-1.7h-0.7c-0.9,0-1.7,0.7-1.7,1.6v2.6C1228.9,797.3,1229.2,797.6,1229.6,797.6z"/>
			<path class="st1" d="M1234.5,797.7L1234.5,797.7v3.6c0,0.3,0.3,0.6,0.6,0.6c0.2,0,0.3,0,0.4-0.2c0.1-0.1,0.2-0.3,0.2-0.5v-3.5
				h0.2v3.6c0,0.3,0.3,0.6,0.6,0.6c0.2,0,0.3,0,0.4-0.2c0.1-0.1,0.2-0.3,0.2-0.5v-3.5l0,0c0.4,0,0.6-0.3,0.7-0.6v-2.6
				c0-0.9-0.7-1.7-1.7-1.7h-0.7c-0.9,0-1.7,0.7-1.7,1.6v2.6C1233.8,797.4,1234.1,797.6,1234.5,797.7z"/>
		</g>
	</g>
	<g>
		<g>
			<circle class="st12" cx="1361.4" cy="608.8" r="19.9"/>
		</g>
		<g>
			<path class="st12" d="M1361.4,626.5c0,0,0.2,0.2,0.5,0.7c0.1,0.2,0.3,0.5,0.5,0.7c0.1,0.1,0.2,0.3,0.3,0.5c0.1,0.2,0,0.3,0,0.5
				c0,1.4,0,3.3,0,5.2s0,3.8,0,5.2c0,0.1,0,0.2,0,0.3s0,0.2,0,0.2c-0.1,0.2-0.2,0.3-0.3,0.5c-0.2,0.3-0.3,0.5-0.5,0.7
				c-0.3,0.4-0.5,0.7-0.5,0.7s-0.2-0.2-0.5-0.7c-0.1-0.2-0.3-0.5-0.5-0.7c-0.1-0.1-0.2-0.3-0.3-0.5c-0.1-0.1-0.1-0.2,0-0.2
				c0-0.1,0-0.2,0-0.3c0-1.4,0-3.3,0-5.2s0-3.8,0-5.2c0-0.2-0.1-0.3,0-0.5s0.2-0.3,0.3-0.5c0.2-0.3,0.3-0.5,0.5-0.7
				C1361.2,626.8,1361.4,626.5,1361.4,626.5z"/>
		</g>
		<g>
			<g>
				<circle class="st1" cx="1355" cy="600.5" r="1.7"/>
				<path class="st1" d="M1357.2,602.8h-4.4c-0.8,0-1.4,0.6-1.4,1.4v7c0,0.3,0.2,0.5,0.5,0.5h0.8v5.6c0,0.5,0.4,0.8,0.8,0.8
					c0,0,0,0,0.1,0c0.3,0,0.5-0.1,0.7-0.2c0.2-0.2,0.3-0.4,0.3-0.8v-5.4h0.9v5.6c0,0.5,0.4,0.8,0.8,0.8c0,0,0,0,0.1,0
					c0.3,0,0.5-0.1,0.7-0.2c0.2-0.2,0.3-0.4,0.3-0.8v-5.4h0.7c0.3,0,0.5-0.2,0.5-0.5v-7C1358.6,603.4,1358,602.8,1357.2,602.8z"/>
				<path class="st1" d="M1367.6,601.9c0.9,0,1.7-0.8,1.7-1.7s-0.8-1.7-1.7-1.7c-0.9,0-1.7,0.8-1.7,1.7
					C1365.9,601.1,1366.7,601.9,1367.6,601.9z"/>
				<path class="st1" d="M1372.2,610.8l-1.7-7.4c-0.2-0.9-0.8-1-1.4-1h-3.1c-0.8,0-1.4,0.6-1.4,1.3l-1.4,7.1c0,0.3,0.2,0.5,0.5,0.5
					h1.6v5.6c0,0.5,0.4,0.8,0.8,0.8c0,0,0,0,0.1,0c0.3,0,0.5-0.1,0.7-0.2c0.2-0.2,0.3-0.4,0.3-0.8v-5.4h0.9v5.6
					c0,0.5,0.4,0.8,0.8,0.8c0,0,0,0,0.1,0c0.3,0,0.5-0.1,0.7-0.2c0.2-0.2,0.3-0.4,0.3-0.8v-5.4h1.7
					C1372,611.4,1372.3,611.2,1372.2,610.8C1372.2,610.9,1372.2,610.9,1372.2,610.8z"/>
				<path class="st1" d="M1361.3,596.9c-0.3,0-0.5,0.2-0.5,0.5v21.9c0,0.3,0.2,0.5,0.5,0.5s0.5-0.2,0.5-0.5v-21.9
					C1361.9,597.1,1361.6,596.9,1361.3,596.9z"/>
			</g>
		</g>
	</g>
	<g>
		<g>
			<circle class="st12" cx="893.3" cy="723.1" r="19.9"/>
		</g>
		<g>
			<path class="st12" d="M893.3,740.7c0,0,0.2,0.2,0.5,0.7c0.1,0.2,0.3,0.5,0.5,0.7c0.1,0.1,0.2,0.3,0.3,0.5s0,0.3,0,0.5
				c0,1.4,0,3.3,0,5.2s0,3.8,0,5.2c0,0.1,0,0.2,0,0.3s0,0.2,0,0.2c-0.1,0.2-0.2,0.3-0.3,0.5c-0.2,0.3-0.3,0.5-0.5,0.7
				c-0.3,0.4-0.5,0.7-0.5,0.7s-0.2-0.2-0.5-0.7c-0.1-0.2-0.3-0.5-0.5-0.7c-0.1-0.1-0.2-0.3-0.3-0.5c-0.1-0.1-0.1-0.2,0-0.2
				c0-0.1,0-0.2,0-0.3c0-1.4,0-3.3,0-5.2s0-3.8,0-5.2c0-0.2-0.1-0.3,0-0.5s0.2-0.3,0.3-0.5c0.2-0.3,0.3-0.5,0.5-0.7
				C893.1,741,893.3,740.7,893.3,740.7z"/>
		</g>
		<g>
			<g>
				<circle class="st1" cx="886.9" cy="714.7" r="1.7"/>
				<path class="st1" d="M889.1,717.1h-4.4c-0.8,0-1.4,0.6-1.4,1.4v7c0,0.3,0.2,0.5,0.5,0.5h0.8v5.6c0,0.5,0.4,0.8,0.8,0.8
					c0,0,0,0,0.1,0c0.3,0,0.5-0.1,0.7-0.2c0.2-0.2,0.3-0.4,0.3-0.8V726h0.9v5.6c0,0.5,0.4,0.8,0.8,0.8c0,0,0,0,0.1,0
					c0.3,0,0.5-0.1,0.7-0.2c0.2-0.2,0.3-0.4,0.3-0.8V726h0.7c0.3,0,0.5-0.2,0.5-0.5v-7C890.5,717.7,889.9,717.1,889.1,717.1z"/>
				<path class="st1" d="M899.5,716.1c0.9,0,1.7-0.8,1.7-1.7s-0.8-1.7-1.7-1.7s-1.7,0.8-1.7,1.7S898.6,716.1,899.5,716.1z"/>
				<path class="st1" d="M904.1,725.1l-1.7-7.4c-0.2-0.9-0.8-1-1.4-1h-3.1c-0.8,0-1.4,0.6-1.4,1.3l-1.4,7.1c0,0.3,0.2,0.5,0.5,0.5
					h1.6v5.6c0,0.5,0.4,0.8,0.8,0.8c0,0,0,0,0.1,0c0.3,0,0.5-0.1,0.7-0.2c0.2-0.2,0.3-0.4,0.3-0.8v-5.4h0.9v5.6
					c0,0.5,0.4,0.8,0.8,0.8c0,0,0,0,0.1,0c0.3,0,0.5-0.1,0.7-0.2c0.2-0.2,0.3-0.4,0.3-0.8v-5.4h1.7
					C903.9,725.7,904.1,725.4,904.1,725.1L904.1,725.1z"/>
				<path class="st1" d="M893.2,711.1c-0.3,0-0.5,0.2-0.5,0.5v21.9c0,0.3,0.2,0.5,0.5,0.5s0.5-0.2,0.5-0.5v-21.9
					C893.8,711.3,893.5,711.1,893.2,711.1z"/>
			</g>
		</g>
	</g>
	<g>
		<g>
			<circle class="st12" cx="652.5" cy="509.5" r="19.9"/>
		</g>
		<g>
			<path class="st12" d="M652.5,527.2c0,0,0.2,0.2,0.5,0.7c0.1,0.2,0.3,0.5,0.5,0.7c0.1,0.1,0.2,0.3,0.3,0.5s0,0.3,0,0.5
				c0,1.4,0,3.3,0,5.2s0,3.8,0,5.2c0,0.1,0,0.2,0,0.3s0,0.2,0,0.2c-0.1,0.2-0.2,0.3-0.3,0.5c-0.2,0.3-0.3,0.5-0.5,0.7
				c-0.3,0.4-0.5,0.7-0.5,0.7s-0.2-0.2-0.5-0.7c-0.1-0.2-0.3-0.5-0.5-0.7c-0.1-0.1-0.2-0.3-0.3-0.5c-0.1-0.1-0.1-0.2,0-0.2
				c0-0.1,0-0.2,0-0.3c0-1.4,0-3.3,0-5.2s0-3.8,0-5.2c0-0.2-0.1-0.3,0-0.5s0.2-0.3,0.3-0.5c0.2-0.3,0.3-0.5,0.5-0.7
				C652.3,527.4,652.5,527.2,652.5,527.2z"/>
		</g>
		<g>
			<g>
				<circle class="st1" cx="646.2" cy="501.1" r="1.7"/>
				<path class="st1" d="M648.4,503.5H644c-0.8,0-1.4,0.6-1.4,1.4v7c0,0.3,0.2,0.5,0.5,0.5h0.8v5.6c0,0.5,0.4,0.8,0.8,0.8
					c0,0,0,0,0.1,0c0.3,0,0.5-0.1,0.7-0.2c0.2-0.2,0.3-0.4,0.3-0.8v-5.4h0.9v5.6c0,0.5,0.4,0.8,0.8,0.8c0,0,0,0,0.1,0
					c0.3,0,0.5-0.1,0.7-0.2c0.2-0.2,0.3-0.4,0.3-0.8v-5.4h0.7c0.3,0,0.5-0.2,0.5-0.5v-7C649.8,504.1,649.2,503.5,648.4,503.5z"/>
				<path class="st1" d="M658.8,502.5c0.9,0,1.7-0.8,1.7-1.7c0-0.9-0.8-1.7-1.7-1.7s-1.7,0.8-1.7,1.7S657.9,502.5,658.8,502.5z"/>
				<path class="st1" d="M663.4,511.5l-1.7-7.4c-0.2-0.9-0.8-1-1.4-1h-3.1c-0.8,0-1.4,0.6-1.4,1.3l-1.4,7.1c0,0.3,0.2,0.5,0.5,0.5
					h1.6v5.6c0,0.5,0.4,0.8,0.8,0.8c0,0,0,0,0.1,0c0.3,0,0.5-0.1,0.7-0.2c0.2-0.2,0.3-0.4,0.3-0.8V512h0.9v5.6
					c0,0.5,0.4,0.8,0.8,0.8c0,0,0,0,0.1,0c0.3,0,0.5-0.1,0.7-0.2c0.2-0.2,0.3-0.4,0.3-0.8V512h1.7
					C663.2,512.1,663.4,511.8,663.4,511.5L663.4,511.5z"/>
				<path class="st1" d="M652.5,497.5c-0.3,0-0.5,0.2-0.5,0.5v21.9c0,0.3,0.2,0.5,0.5,0.5s0.5-0.2,0.5-0.5V498
					C653,497.7,652.8,497.5,652.5,497.5z"/>
			</g>
		</g>
	</g>
	<g>
		<g>
			<polyline class="st13" points="720.8,237.3 720.8,137.6 611.4,137.6 			"/>
			<g>
				<path class="st12" d="M725.8,237.3c0,2.8-2.2,5-5,5s-5-2.2-5-5s2.2-5,5-5S725.8,234.5,725.8,237.3z"/>
			</g>
		</g>
	</g>
</g>
<rect x="378.4" y="112" class="st0" width="275.4" height="52"/>
<rect x="391.8" y="131.2" class="st14" width="256.9" height="28.4"/>
<g class="st15">
	<path class="st1" d="M407.7,146.2c-1.9,0-3.6-0.3-5-0.8c-1.4-0.5-2.5-1.3-3.3-2.3c-0.8-1-1.2-2.1-1.3-3.4h5c0.1,0.9,0.6,1.5,1.3,2
		c0.8,0.5,1.9,0.7,3.3,0.7c1.3,0,2.4-0.2,3.1-0.5c0.7-0.4,1.1-0.9,1.1-1.6c0-0.6-0.3-1.1-0.9-1.4c-0.6-0.3-1.6-0.4-3-0.4h-3.3v-3.3
		h3.2c0.8,0,1.5-0.1,2-0.2c0.5-0.2,0.9-0.4,1.2-0.7s0.4-0.6,0.4-1c0-0.4-0.1-0.8-0.4-1.1c-0.3-0.3-0.7-0.5-1.3-0.7
		c-0.6-0.2-1.2-0.2-2-0.2c-1.3,0-2.3,0.2-3,0.7c-0.7,0.4-1.2,1.1-1.3,1.9h-4.9c0.1-1.2,0.5-2.3,1.3-3.2s1.8-1.7,3.2-2.3
		c1.4-0.6,3.1-0.9,5.1-0.9c1.7,0,3.2,0.2,4.5,0.6s2.3,1,3,1.8c0.7,0.8,1.1,1.6,1.1,2.7c0,0.8-0.2,1.6-0.7,2.2
		c-0.5,0.7-1.3,1.2-2.3,1.6c-1,0.4-2.4,0.6-4.1,0.6v-0.5c1.6-0.1,2.9,0,4,0.3s2,0.8,2.6,1.4c0.6,0.6,0.9,1.5,0.9,2.5
		c0,1.1-0.4,2.1-1.1,2.9c-0.7,0.8-1.8,1.5-3.1,2C411.4,146,409.7,146.2,407.7,146.2z"/>
	<path class="st1" d="M432.7,139c-0.2,1.4-0.7,2.7-1.3,3.8s-1.5,1.9-2.5,2.5c-1,0.6-2.2,0.9-3.5,0.9c-1.3,0-2.5-0.3-3.5-0.9
		c-1-0.6-1.8-1.4-2.4-2.5c-0.6-1.1-0.9-2.4-0.9-3.8c0-1.5,0.3-2.7,0.9-3.8c0.6-1.1,1.4-1.9,2.4-2.5c1-0.6,2.2-0.9,3.5-0.9
		c1.3,0,2.5,0.3,3.5,0.9s1.9,1.4,2.5,2.5S432.5,137.5,432.7,139z M423.5,139c0,0.7,0.1,1.3,0.4,1.8s0.7,0.9,1.2,1.2s1.1,0.4,1.7,0.4
		c0.7,0,1.3-0.1,1.9-0.4c0.6-0.3,1.1-0.7,1.6-1.2c0.4-0.5,0.8-1.1,1-1.8c-0.2-0.7-0.6-1.3-1-1.8c-0.4-0.5-1-0.9-1.6-1.2
		c-0.6-0.3-1.2-0.5-1.9-0.5c-0.6,0-1.2,0.2-1.7,0.5c-0.5,0.3-0.9,0.7-1.2,1.2S423.5,138.3,423.5,139z M431.5,145.9l-0.6-4.9l0.6-1.9
		l-0.6-1.9l0.6-5h5.1l-0.9,6.8l0.9,6.9H431.5z"/>
	<path class="st1" d="M441.3,132.1h14.9v13.7h-4.9v-12.3l2.3,2.3h-9.8l2.1-1.9c0.1,0.9,0.2,1.8,0.2,2.6c0,0.8,0.1,1.5,0.1,2.1
		c0,2.7-0.4,4.6-1.2,5.8c-0.8,1.2-2.2,1.8-4,1.8c-0.5,0-1.1-0.1-1.5-0.2c-0.5-0.1-1-0.3-1.4-0.6v-3.5c0.3,0.1,0.6,0.2,0.9,0.3
		c0.3,0.1,0.5,0.1,0.8,0.1c0.8,0,1.3-0.3,1.7-1c0.3-0.7,0.5-1.8,0.5-3.4c0-0.8,0-1.6-0.1-2.6C441.5,134.4,441.4,133.3,441.3,132.1z"
		/>
	<path class="st1" d="M468,132.7h5l-4,6.3v-1.1l4,6.3h-5l-3.5-5.7L468,132.7z M475.1,132.7h5l-4,6.3v-1.1l4,6.3h-5l-3.5-5.7
		L475.1,132.7z"/>
	<path class="st1" d="M502.7,138.3c-0.2,1.6-0.7,3-1.6,4.2c-0.9,1.2-2.1,2.1-3.6,2.8c-1.5,0.7-3.2,1-5.1,1c-2.1,0-3.9-0.4-5.5-1.2
		c-1.6-0.8-2.8-1.9-3.7-3.3c-0.9-1.4-1.3-3-1.3-4.9s0.4-3.5,1.3-4.9s2.1-2.5,3.7-3.3c1.6-0.8,3.4-1.2,5.5-1.2c1.9,0,3.6,0.3,5.1,1
		c1.5,0.7,2.7,1.6,3.6,2.8c0.9,1.2,1.5,2.6,1.6,4.2h-5c-0.2-0.8-0.5-1.4-0.9-2c-0.5-0.5-1.1-0.9-1.8-1.2c-0.7-0.3-1.6-0.4-2.6-0.4
		c-1.1,0-2.1,0.2-2.9,0.6c-0.8,0.4-1.4,1-1.9,1.8c-0.4,0.8-0.6,1.7-0.6,2.7s0.2,2,0.6,2.7c0.4,0.8,1.1,1.3,1.9,1.8
		c0.8,0.4,1.8,0.6,2.9,0.6c1,0,1.8-0.1,2.6-0.4c0.7-0.3,1.3-0.7,1.8-1.2c0.5-0.5,0.8-1.2,0.9-2H502.7z"/>
	<path class="st1" d="M504.7,132.1h4.9v3.9l-0.2,0.6v3.8l0.2,1.1v8.2h-4.9V132.1z M508.1,139c0.2-1.5,0.6-2.8,1.3-3.9
		c0.7-1.1,1.5-1.9,2.5-2.5c1-0.6,2.2-0.9,3.5-0.9c1.3,0,2.5,0.3,3.5,0.9c1,0.6,1.8,1.5,2.4,2.5c0.6,1.1,0.9,2.4,0.9,3.8
		c0,1.4-0.3,2.7-0.9,3.8s-1.4,1.9-2.4,2.5c-1,0.6-2.2,0.9-3.5,0.9c-1.3,0-2.5-0.3-3.5-0.9c-1-0.6-1.9-1.4-2.5-2.5
		C508.8,141.7,508.3,140.5,508.1,139z M517.2,139c0-0.7-0.1-1.3-0.4-1.8c-0.3-0.5-0.7-0.9-1.2-1.2c-0.5-0.3-1.1-0.5-1.7-0.5
		c-0.7,0-1.3,0.2-1.9,0.5c-0.6,0.3-1.1,0.7-1.6,1.2c-0.4,0.5-0.8,1.1-1,1.8c0.2,0.7,0.6,1.3,1,1.8c0.4,0.5,1,0.9,1.6,1.2
		c0.6,0.3,1.2,0.4,1.9,0.4c0.6,0,1.2-0.1,1.7-0.4s0.9-0.7,1.2-1.2C517.1,140.3,517.2,139.7,517.2,139z"/>
	<path class="st1" d="M532.3,146.2c-1.7,0-3.1-0.3-4.5-0.9c-1.3-0.6-2.3-1.5-3.1-2.6c-0.8-1.1-1.1-2.4-1.1-3.8
		c0-1.4,0.4-2.7,1.1-3.8c0.7-1.1,1.7-1.9,3-2.5c1.3-0.6,2.7-0.9,4.3-0.9c1.6,0,3.1,0.4,4.2,1.1s2.1,1.7,2.7,3s0.9,2.8,0.9,4.6h-12.2
		v-3h9.4l-1.6,1c-0.1-0.7-0.2-1.3-0.5-1.8c-0.3-0.5-0.7-0.9-1.1-1.1c-0.5-0.3-1-0.4-1.7-0.4c-0.7,0-1.3,0.1-1.8,0.4
		s-0.9,0.7-1.2,1.2c-0.3,0.5-0.4,1.1-0.4,1.8c0,0.9,0.2,1.6,0.6,2.2c0.4,0.6,1,1.1,1.7,1.4c0.8,0.3,1.7,0.5,2.8,0.5c1,0,2-0.1,3-0.4
		c1-0.3,1.9-0.6,2.7-1.1v3.1c-0.9,0.6-2,1.1-3.2,1.5C535,146.1,533.7,146.2,532.3,146.2z"/>
	<path class="st1" d="M561.4,142.2v6.9h-4.2v-3.3h-12v3.3H541v-6.9h4.1l0.9,0.1h9.9l0.8-0.1H561.4z M543.8,132.1h15.1v12.8H554
		v-11.4l2.2,2.2h-10l1.8-1.8c0.2,0.7,0.4,1.3,0.4,1.9c0,0.6,0.1,1.1,0.1,1.6c0,2.2-0.4,3.9-1.1,5.1c-0.8,1.2-1.8,1.8-3.2,1.8l-2-1.7
		c1.2-0.9,1.9-3,1.9-6.3c0-0.6,0-1.3-0.1-2S543.9,132.9,543.8,132.1z"/>
	<path class="st1" d="M563.3,132.1h4.9v13.7h-4.9V132.1z M566.2,137h10.4v3.6h-10.4V137z M574.7,132.1h4.9v13.7h-4.9V132.1z"/>
	<path class="st1" d="M582.3,145.9v-13.7h4.8v11l-1.1-0.3l7.2-10.7h6.3v13.7h-4.8v-11.4l1.1,0.4l-7.4,11H582.3z"/>
	<path class="st1" d="M602.3,145.9v-13.7h4.8v11l-1.1-0.3l7.2-10.7h6.3v13.7h-4.8v-11.4l1.1,0.4l-7.4,11H602.3z M610.8,131
		c-1.7,0-3-0.4-4-1.2c-1-0.8-1.6-2-1.9-3.5h3.7c0.1,0.6,0.4,1.1,0.7,1.4s0.8,0.5,1.4,0.5c0.6,0,1-0.2,1.4-0.5s0.6-0.8,0.7-1.4h3.8
		c-0.2,1.5-0.9,2.7-1.9,3.5C613.8,130.6,612.4,131,610.8,131z"/>
	<path class="st1" d="M626.8,132.7l3.6,5.8l-3.6,5.7h-5l4-6.3v1.1l-4-6.3H626.8z M634,132.7l3.5,5.8l-3.5,5.7h-5l4-6.3v1.1l-4-6.3
		H634z"/>
</g>
<g>
	<polyline class="st16" points="1500.1,843.2 1496.1,835 1485.9,845.5 	"/>
	<line class="st17" x1="1485.9" y1="845.5" x2="1500.1" y2="843.2"/>
	<polygon class="st18" points="1496.1,835 1500.1,843.2 1492.4,838.7 	"/>
	<polygon class="st18" points="1492.4,838.7 1500.1,843.2 1485.9,845.5 	"/>
</g>
<g>
	<g>
		<circle class="st12" cx="1529.9" cy="857.3" r="19.5"/>
	</g>
</g>
<g>
	<path class="st1" d="M1533.4,846.5l8.4,18.5h-5.4l-7-16.3h1.5l-7.1,16.3h-5.4l8.4-18.5H1533.4z M1523.2,861.3V857h13.4v4.3H1523.2z
		"/>
</g>
</svg>
