<?xml version="1.0" encoding="utf-8"?>
<!-- Generator: Adobe Illustrator 26.0.3, SVG Export Plug-In . SVG Version: 6.00 Build 0)  -->
<svg version="1.1" id="Слой_1" xmlns="http://www.w3.org/2000/svg" xmlns:xlink="http://www.w3.org/1999/xlink" x="0px" y="0px"
	 viewBox="0 0 1920 1080" style="enable-background:new 0 0 1920 1080;" xml:space="preserve">
<style type="text/css">
	.st0{fill:#66B9FF;}
	.st1{fill:#FFFFFF;}
	.st2{fill:none;stroke:#000000;stroke-width:2.6641;stroke-linecap:round;stroke-linejoin:round;stroke-miterlimit:10;}
	.st3{fill:none;stroke:#0085CC;stroke-width:4.5268;stroke-linecap:round;stroke-linejoin:round;stroke-miterlimit:10;}
	.st4{fill:none;stroke:#0085CC;stroke-width:1.5089;stroke-linecap:round;stroke-linejoin:round;stroke-miterlimit:10;}
	.st5{fill:none;stroke:#0085CC;stroke-width:7.0417;stroke-linecap:round;stroke-linejoin:round;stroke-miterlimit:10;}
	.st6{fill:#FB493B;stroke:#FB493B;stroke-width:1.9705;stroke-linecap:round;stroke-linejoin:round;stroke-miterlimit:10;}
	.st7{fill:#1D0EB1;}
	.st8{fill:none;stroke:#1D0EB1;stroke-width:1.3246;stroke-linecap:round;stroke-linejoin:round;}
	.st9{fill:none;}
	.st10{enable-background:new    ;}
</style>
<g>
	<g>
		<path class="st0" d="M934.1,100.5l278,160.5l-149.4,86.3l33.8,19.5l-18.9,10.8l89,51.4c0,0,20.5-15.3,37.8-24.5l185.1-107
			l168.9,97.6c3.6,2.1,7.1,4.2,10.6,6.4c5.8,3.6,11.8,7.1,17.5,10.9c3,2,6,3.9,9,6c1.5,1,2.9,2.2,4.4,3.1c0.8,0.5,1.6,1,2.3,1.6
			l1.9,1.5c75.2,57.5,72.7,137.2-6.3,193.1c-68.4,48.4-178.6,67.9-280.2,52.1l0,0l-53.7,119.1l-0.6,0.3l40.4,9.3l40.1,9.5l39.9,9.9
			l39.6,10.1l39.5,10.5l39.3,10.7l-58.8,72.3l-31.6-8.8l-31.9-8.5l-31.9-8.4l-32.2-8.1l-32.3-7.9l-32.6-7.6l-32.6-7.3l-32.9-7
			l-32.9-6.9l-33.2-6.6l-27.9-5.8l-28-5.6l-28-5.3l-29.3-5.3l-29.3-5l-29.4-4.9h0.3l-33.1-5.5l-33.4-5.2l-33.4-4.9l-33.4-4.7
			l-33.7-4.4l-33.7-4.3l-33.7-4l-34-3.7l-33.8-3.4l-34.1-3.2l-34-3l-34.1-2.6l20.4-79.1l67.8,5.5l5.2-17.1l-75.3-43.3l-48,27.7
			L242.6,500.5L934.1,100.5z"/>
		<g>
			<path class="st1" d="M935.1,77.5l278,160.5l-149.4,86.3l33.8,19.5l-18.9,10.8l89,51.4c0,0,20.5-15.3,37.8-24.5l185.1-107
				l168.9,97.6c3.6,2.1,7.1,4.2,10.6,6.4c5.8,3.6,11.8,7.1,17.5,10.9c3,2,6,3.9,9,6c1.5,1,2.9,2.2,4.4,3.1c0.8,0.5,1.6,1,2.3,1.6
				l1.9,1.5c75.2,57.5,72.7,137.2-6.3,193.1c-68.4,48.4-178.6,67.9-280.2,52.1l0,0l-53.7,119.1l-0.6,0.3l40.4,9.3l40.1,9.5l39.9,9.9
				l39.6,10.1l39.5,10.5l39.3,10.7l-58.8,72.3l-31.6-8.8l-31.9-8.5l-31.9-8.4l-32.2-8.1l-32.3-7.9l-32.6-7.6l-32.6-7.3l-32.9-7
				l-32.9-6.9l-33.2-6.6l-27.9-5.8l-28-5.6l-28-5.3l-29.3-5.3l-29.3-5l-29.4-4.9h0.3l-33.1-5.5l-33.4-5.2l-33.4-4.9l-33.4-4.7
				l-33.7-4.4l-33.7-4.3l-33.7-4l-34-3.7l-33.8-3.4l-34.1-3.2l-34-3l-34.1-2.6l20.4-79.1l67.8,5.5l5.2-17.1l-75.3-43.3l-48,27.7
				L243.7,477.5L935.1,77.5z"/>
			<polyline class="st2" points="1658.6,489.1 1658.8,489.2 1658.6,489.1 			"/>
			<polyline class="st3" points="1337,599.3 1338.4,599.6 1340,599.9 1343.5,600.5 1347.5,601.1 1351.6,601.7 1355.9,602.2 
				1360,602.6 1363.8,602.9 1367.2,603.2 			"/>
			<polyline class="st3" points="1563.8,541 1564.1,540.6 1564.4,540.1 1565.3,539 1566.2,537.7 1567.3,536.2 1568.4,534.8 
				1569.3,533.4 1570.2,532.2 1570.5,531.7 1570.7,531.4 			"/>
			<polyline class="st4" points="1225.7,777.5 1189,769.8 1145.8,761 1102.4,752.6 1058.9,744.4 1003.9,734.6 943.7,724.4 			"/>
			<polyline class="st3" points="901.9,699.3 889.1,697.4 853.1,692.2 817,687.4 780.7,682.6 744.3,678.2 708,674 			"/>
			<polyline class="st3" points="1265,766.2 1226.6,757.9 1188.1,749.9 1149.3,742.1 1110.5,734.6 1071.4,727.3 1032.3,720.4 
				996.7,714.4 960.9,708.4 925.1,702.8 901.9,699.3 			"/>
			<path class="st4" d="M1331.2,824.4c-2,2.7-4.3,5.3-3.7,9c0.6,3.5,2.9,6,5.8,7.9c5.7,3.7,12.8,5.6,19.4,6.3
				c14.1,1.7,28.6-0.7,41.6-6.4c6.9-3,12.8-7.9,17.5-13.6"/>
			<polyline class="st3" points="1354.8,830.1 1317.9,821.2 1280.7,812.7 			"/>
			<line class="st4" x1="1392" y1="822.3" x2="1407.7" y2="800.9"/>
			<line class="st4" x1="1356.3" y1="848.3" x2="1353.4" y2="874"/>
			<line class="st4" x1="1391.6" y1="842.6" x2="1452.4" y2="887.4"/>
			<polyline class="st3" points="1222.3,799.4 1211.1,797.1 1170.2,788.3 			"/>
			<line class="st3" x1="1294.9" y1="816.3" x2="1269.3" y2="853.1"/>
			<line class="st3" x1="1320.8" y1="779.3" x2="1305.4" y2="801.5"/>
			<line class="st3" x1="1252.8" y1="806.3" x2="1228.3" y2="843.6"/>
			<polyline class="st3" points="1536.8,366.2 1498.4,397.4 1433,397.9 1431.2,397.6 			"/>
			<path class="st3" d="M1431,397.5c-49.5-6.7-101.7-0.3-142.3,17.4"/>
			<path class="st3" d="M1288.8,415c-75.5,32.9-90.4,94.9-33.4,138.5s164.4,52.2,239.9,19.3"/>
			<path class="st3" d="M1495.3,572.6c30.6-13.3,52.6-32.2,62.3-53.6"/>
			<polyline class="st3" points="1557.7,519.2 1589.1,490.6 1658.8,489.2 			"/>
			<path class="st3" d="M1216.7,375.2c11.2-5.6,22.8-10.3,34.6-14.4c12.2-4.2,24.6-7.5,37.1-10.8c12-3.2,24.6-5.4,36.9-7.1
				c12.9-1.7,25.8-3,38.8-3.8s26.1-0.8,39.2-0.3c12.8,0.5,25.5,1.4,38.2,3.1c12.7,1.6,25.2,3.9,37.7,6.5c12.6,2.6,25.3,6,37.5,10.2
				c12,4.1,24.1,8.3,35.7,13.6c11.3,5.2,22.8,10.4,33.4,17c2.8,1.7,5.5,3.4,8.3,5.2"/>
			<polygon class="st4" points="669.2,590.2 745.1,633.9 722.5,647 647.9,602.9 			"/>
			<polyline class="st3" points="607.9,745.4 617.6,713.4 624.5,714 			"/>
			<line class="st3" x1="719.3" y1="724.9" x2="634.6" y2="715.3"/>
			<path class="st4" d="M729.1,694.2l2.4,0.2c48.5,5.1,147.4,19.8,147.4,19.8l1.7,0.2"/>
			<polyline class="st3" points="894.9,716.8 909.2,718.9 882.3,778.5 			"/>
			<polyline class="st3" points="880.6,714.5 882.9,715 894.9,716.8 			"/>
			<line class="st3" x1="854.4" y1="774.4" x2="880.7" y2="714"/>
			<line class="st3" x1="886.3" y1="701.4" x2="887.9" y2="697.9"/>
			<line class="st3" x1="879.5" y1="717.1" x2="881.8" y2="711.7"/>
			<line class="st4" x1="619.3" y1="713.3" x2="634.1" y2="664"/>
			<line class="st3" x1="719.3" y1="724.9" x2="729.5" y2="695"/>
			<line class="st3" x1="749.6" y1="497.7" x2="594.6" y2="587.2"/>
			<line class="st3" x1="572.4" y1="600" x2="561.5" y2="606.3"/>
			<line class="st3" x1="943.8" y1="724.1" x2="915.2" y2="782.9"/>
			<line class="st3" x1="670.5" y1="750.5" x2="680.7" y2="720.8"/>
			<line class="st3" x1="749.6" y1="497.7" x2="478.6" y2="341.3"/>
			<polyline class="st3" points="647.1,603.4 634.9,610.5 713.4,655.8 708,674 			"/>
			<line class="st3" x1="669.6" y1="590.4" x2="629.4" y2="567.1"/>
			<line class="st3" x1="935.5" y1="741.3" x2="923.9" y2="739.5"/>
			<line class="st3" x1="901.9" y1="736.3" x2="911.2" y2="737.7"/>
			<polyline class="st3" points="1186.7,834.5 1224.2,777.2 1186.7,834.5 			"/>
			<line class="st4" x1="1168.7" y1="787.8" x2="1145.1" y2="825.8"/>
			<line class="st4" x1="1060.9" y1="744.8" x2="1029.8" y2="802"/>
			<polyline class="st4" points="1485,847.3 1449.5,837.5 1413.8,828.1 1378,818.9 1341.9,809.9 1305.7,801.2 			"/>
			<line class="st3" x1="1357.9" y1="825.8" x2="1354.1" y2="831.3"/>
			<line class="st3" x1="1364.9" y1="815.6" x2="1361.7" y2="820.3"/>
			<path class="st3" d="M1167.8,406c-12.5,10.4-23.9,22.7-32.3,36.5c-9.3,15.4-16.5,33.3-16.5,51.5c0,18.6,4.3,36.3,13.7,52.4
				c9.1,15.5,21.4,28.7,35.1,40.1c1.6,1.3,3.2,2.5,4.8,3.8l-0.2-0.2c37.7,28.8,89.3,47.9,145.3,56.5"/>
			<path class="st5" d="M934.1,77.5l278,160.5l-149.4,86.3l33.8,19.5l-18.9,10.8l89,51.4c0,0,20.5-15.3,37.8-24.5l185.1-107
				l168.9,97.6c3.6,2.1,7.1,4.2,10.6,6.4c5.8,3.6,11.8,7.1,17.5,10.9c3,2,6,3.9,9,6c1.5,1,2.9,2.2,4.4,3.1c0.8,0.5,1.6,1,2.3,1.6
				l1.9,1.5c75.2,57.5,72.7,137.2-6.3,193.1c-68.4,48.4-178.6,67.9-280.2,52.1l0,0l-53.7,119.1l-0.6,0.3l40.4,9.3l40.1,9.5l39.9,9.9
				l39.6,10.1l39.5,10.5l39.3,10.7l-58.8,72.3l-31.6-8.8l-31.9-8.5l-31.9-8.4l-32.2-8.1l-32.3-7.9l-32.6-7.6l-32.6-7.3l-32.9-7
				l-32.9-6.9l-33.2-6.6l-27.9-5.8l-28-5.6l-28-5.3l-29.3-5.3l-29.3-5l-29.4-4.9h0.3l-33.1-5.5l-33.4-5.2l-33.4-4.9l-33.4-4.7
				l-33.7-4.4l-33.7-4.3l-33.7-4l-34-3.7l-33.8-3.4l-34.1-3.2l-34-3l-34.1-2.6l20.4-79.1l67.8,5.5l5.2-17.1l-75.3-43.3l-48,27.7
				L242.6,477.5L934.1,77.5z"/>
			<line class="st3" x1="1182.3" y1="768.6" x2="1170.2" y2="788.3"/>
			<line class="st3" x1="729.8" y1="694.1" x2="652.5" y2="685.4"/>
			<line class="st3" x1="645.8" y1="706.6" x2="642.8" y2="716.2"/>
			<line class="st3" x1="652.5" y1="685.4" x2="649.5" y2="694.8"/>
			<line class="st4" x1="1000.1" y1="733.9" x2="971" y2="791.8"/>
			<g>
				<polygon class="st6" points="602.6,597.5 586.7,597.5 586.7,606.6 				"/>
			</g>
		</g>
		<polygon class="st0" points="280.8,477.4 481.3,361.8 714.4,496.3 511.3,613.6 		"/>
	</g>
	<g>
		<g>
			<circle class="st7" cx="698" cy="588.8" r="19.9"/>
		</g>
		<g>
			<path class="st7" d="M698,606.5c0,0,0.2,0.2,0.5,0.7c0.1,0.2,0.3,0.5,0.5,0.7c0.1,0.1,0.2,0.3,0.3,0.5s0,0.3,0,0.5
				c0,1.4,0,3.3,0,5.2s0,3.8,0,5.2c0,0.1,0,0.2,0,0.3s0,0.2,0,0.2c-0.1,0.2-0.2,0.3-0.3,0.5c-0.2,0.3-0.3,0.5-0.5,0.7
				c-0.3,0.4-0.5,0.7-0.5,0.7s-0.2-0.2-0.5-0.7c-0.1-0.2-0.3-0.5-0.5-0.7c-0.1-0.1-0.2-0.3-0.3-0.5c-0.1-0.1-0.1-0.2,0-0.2
				c0-0.1,0-0.2,0-0.3c0-1.4,0-3.3,0-5.2s0-3.8,0-5.2c0-0.2-0.1-0.3,0-0.5s0.2-0.3,0.3-0.5c0.2-0.3,0.3-0.5,0.5-0.7
				C697.8,606.8,698,606.5,698,606.5z"/>
		</g>
		<g>
			<path class="st1" d="M685.7,586.7c0.1,0.5,0.4,1.7,1.6,2.4c0.3,0.2,0.6,0.3,0.9,0.3c0.1,0,0.2,0,0.3,0h3.3c0.1,0,0.1,0,0.2,0.1
				l10.4,7.8c0.3,0.2,0.6,0.3,0.9,0.3h6c0.2,0,0.4,0,0.5-0.1c0.5-0.2,1.4-0.7,2-1.8c0.2-0.4,0.7-1.6,0-3c-0.6-1.3-1.7-1.8-2.2-1.9
				c-0.1,0-0.3-0.1-0.4-0.1h-3.6c-0.1,0-0.1,0-0.2-0.1l-1.3-1v-3.5c0-0.2-0.1-1-0.7-1.5c-0.1-0.1-0.8-0.7-1.8-0.4
				c-0.6,0.2-1.1,0.6-1.4,1.3c-0.1,0.1-0.1,0.3-0.1,0.4v0.1v0.6l-5-3.8c-0.3-0.2-0.6-0.3-0.9-0.3h-5.3c-0.2,0-0.3,0-0.4,0.1
				c-0.4,0.1-1.1,0.4-1.6,1C686.5,583.7,685.4,585,685.7,586.7z M687.4,584.3c0.4-0.4,0.8-0.6,1.1-0.7h0.1h5.3c0.1,0,0.1,0,0.2,0.1
				l10.5,7.8c0.3,0.2,0.6,0.3,0.9,0.3h3.6h0.1c0.3,0.1,1.1,0.4,1.5,1.3c0.4,1,0.1,1.9,0,2c-0.4,0.8-1,1.1-1.3,1.2h-0.1h-6
				c-0.1,0-0.1,0-0.2-0.1l-10.4-7.8c-0.3-0.2-0.6-0.3-0.9-0.3h-3.3l0,0c-0.2,0-0.4-0.1-0.5-0.2c-0.7-0.4-0.9-1.2-1-1.6
				C686.6,585.3,687.4,584.4,687.4,584.3z"/>
			<path class="st1" d="M702,584c-1.1,0-1.9-0.9-1.9-1.9c0-1.1,0.9-1.9,1.9-1.9c1.1,0,1.9,0.9,1.9,1.9S703,584,702,584z"/>
		</g>
	</g>
	<g>
		<g>
			<line class="st8" x1="388.5" y1="415.5" x2="388.5" y2="213.1"/>
			<g>
				<path class="st7" d="M393.5,415.5c0,2.8-2.2,5-5,5s-5-2.2-5-5s2.2-5,5-5C391.2,410.5,393.5,412.8,393.5,415.5z"/>
			</g>
		</g>
	</g>
	<g>
		<g>
			<circle class="st7" cx="629.9" cy="703" r="19.9"/>
		</g>
		<path class="st1" d="M639.9,694.7H634c-0.3,0-0.6,0.3-0.6,0.6v2.8h-4.1c-0.3,0-0.6,0.3-0.6,0.6v2.8h-4.1c-0.3,0-0.6,0.3-0.6,0.6
			v2.8h-4.1c-0.3,0-0.6,0.3-0.6,0.6v4.9c0,0.3,0.3,0.6,0.6,0.6h6c0.1,0,0.2,0,0.3-0.1l13.9-9.8c0.2-0.1,0.3-0.3,0.3-0.6v-5.4
			C640.4,695,640.2,694.7,639.9,694.7z M639.3,696v4.4l-13.5,9.6h-5.3v-3.7h4.1c0.3,0,0.6-0.3,0.6-0.6v-2.8h4.1
			c0.3,0,0.6-0.3,0.6-0.6v-2.8h4.1c0.3,0,0.6-0.3,0.6-0.6v-2.8L639.3,696z"/>
		<g>
			<path class="st7" d="M629.9,720.7c0,0,0.2,0.2,0.6,0.7c0.2,0.2,0.4,0.5,0.5,0.7c0.1,0.1,0.2,0.3,0.3,0.5c0.1,0.1,0.1,0.2,0,0.2
				c0,0.1,0,0.2,0,0.3c0,1.4,0,3.3,0,5.2s0,3.8,0,5.2c0,0.1,0,0.2,0,0.3s0,0.2,0,0.2c-0.1,0.2-0.2,0.3-0.3,0.5
				c-0.2,0.3-0.4,0.5-0.5,0.7c-0.3,0.4-0.5,0.7-0.5,0.7s-0.2-0.2-0.5-0.7c-0.2-0.2-0.4-0.5-0.5-0.7c-0.1-0.1-0.2-0.3-0.3-0.5
				c-0.1-0.1-0.1-0.2,0-0.2c0-0.1,0-0.2,0-0.3c0-1.4,0-3.3,0-5.2s0-3.8,0-5.2c0-0.1,0-0.2,0-0.3s0-0.2,0-0.2
				c0.1-0.2,0.2-0.3,0.3-0.5c0.2-0.3,0.4-0.5,0.5-0.7C629.7,720.9,629.9,720.7,629.9,720.7z"/>
		</g>
	</g>
	<g>
		<g>
			<circle class="st7" cx="702.3" cy="667.5" r="19.9"/>
		</g>
		<g>
			<path class="st7" d="M702.3,685.2c0,0,0.2,0.2,0.5,0.7c0.1,0.2,0.3,0.5,0.5,0.7c0.1,0.1,0.2,0.3,0.3,0.5s0,0.3,0,0.5
				c0,1.4,0,3.3,0,5.2s0,3.8,0,5.2c0,0.1,0,0.2,0,0.3s0,0.2,0,0.2c-0.1,0.2-0.2,0.3-0.3,0.5c-0.2,0.3-0.3,0.5-0.5,0.7
				c-0.3,0.4-0.5,0.7-0.5,0.7s-0.2-0.2-0.5-0.7c-0.1-0.2-0.3-0.5-0.5-0.7c-0.1-0.1-0.2-0.3-0.3-0.5c-0.1-0.1-0.1-0.2,0-0.2
				c0-0.1,0-0.2,0-0.3c0-1.4,0-3.3,0-5.2s0-3.8,0-5.2c0-0.2-0.1-0.3,0-0.5s0.2-0.3,0.3-0.5c0.2-0.3,0.3-0.5,0.5-0.7
				C702.1,685.5,702.3,685.2,702.3,685.2z"/>
		</g>
		<g>
			<path class="st1" d="M711,663.5l-17.3-0.2c-0.7,0-1.2,0.5-1.2,1.2l-0.1,13.1c0,0.7,0.5,1.2,1.2,1.2l17.3,0.2
				c0.7,0,1.2-0.5,1.2-1.2l0.1-13.1C712.3,664.1,711.7,663.5,711,663.5z M693.7,664.6C693.7,664.6,693.7,664.5,693.7,664.6l17.3,0.1
				l0,0l-0.1,13.1l0,0l-17.3-0.2l0,0L693.7,664.6z"/>
			<path class="st1" d="M697.7,662.1C697.7,662.1,697.8,662.1,697.7,662.1L697.7,662.1c0.1,0.1,0.2,0.2,0.2,0.2l0,0l0,0
				c0.1,0,0.1,0,0.2,0l0,0l0,0l0,0l0,0c0.1,0,0.1,0,0.2,0l0,0c0.1,0,0.1-0.1,0.2-0.1l0,0c0,0,0,0,0.1-0.1l0,0l2.9-3.6
				c0.1-0.1,0.2-0.3,0.1-0.5c0-0.2-0.1-0.3-0.2-0.4c-0.3-0.2-0.7-0.2-0.9,0.1l-1.8,2.2l0.1-5.4c0-0.3-0.3-0.6-0.6-0.6
				s-0.6,0.3-0.6,0.6l-0.1,5.5l-1.7-1.9c-0.1-0.1-0.3-0.2-0.4-0.2c-0.2,0-0.3,0-0.5,0.1c-0.1,0.1-0.2,0.3-0.2,0.4s0,0.3,0.1,0.5
				L697.7,662.1z"/>
			<path class="st1" d="M704,658.3c0.2,0,0.4-0.1,0.5-0.2l1.7-1.9l-0.1,5.5c0,0.3,0.3,0.6,0.6,0.6s0.6-0.3,0.6-0.6l0.1-5.4l1.7,2.2
				c0.2,0.3,0.6,0.3,0.9,0.1c0.3-0.2,0.3-0.6,0.1-0.9l-2.8-3.6l0,0c0,0,0-0.1-0.1-0.1l0,0l0,0c0,0-0.1-0.1-0.2-0.1l0,0
				c-0.1,0-0.1,0-0.2,0l0,0c-0.1,0-0.1,0-0.2,0l0,0l0,0c-0.1,0-0.1,0-0.1,0.1l0,0l-0.1,0.1l-2.8,3.2c-0.2,0.3-0.2,0.7,0.1,0.9
				C703.7,658.3,703.9,658.3,704,658.3z"/>
			<path class="st1" d="M697.3,667.6c0.5,0,0.9-0.4,0.9-0.9s-0.4-0.9-0.9-0.9s-0.9,0.4-0.9,0.9C696.4,667.2,696.8,667.6,697.3,667.6
				z"/>
			<path class="st1" d="M707.3,667.7c0.5,0,0.9-0.4,0.9-0.9s-0.4-0.9-0.9-0.9s-0.9,0.4-0.9,0.9C706.4,667.3,706.8,667.7,707.3,667.7
				z"/>
			<path class="st1" d="M702.3,667.6c0.5,0,0.9-0.4,0.9-0.9s-0.4-0.9-0.9-0.9s-0.9,0.4-0.9,0.9C701.5,667.2,701.9,667.6,702.3,667.6
				z"/>
			<path class="st1" d="M695.9,672.7L695.9,672.7l0.1,3.6c0,0.3,0.3,0.6,0.6,0.6c0.2,0,0.3,0,0.4-0.2c0.1-0.1,0.2-0.3,0.2-0.5v-3.5
				h0.2v3.6c0,0.3,0.2,0.6,0.5,0.6l0,0c0.2,0,0.3,0,0.4-0.2c0.1-0.1,0.2-0.3,0.2-0.5v-3.5l0,0c0.4,0,0.6-0.3,0.7-0.6v-2.6
				c0-0.9-0.7-1.7-1.7-1.7h-0.7c-0.9,0-1.7,0.7-1.7,1.7v2.6C695.3,672.4,695.6,672.7,695.9,672.7z"/>
			<path class="st1" d="M700.9,672.8L700.9,672.8l0.1,3.6c0,0.3,0.3,0.6,0.6,0.6c0.2,0,0.3,0,0.4-0.2c0.1-0.1,0.2-0.3,0.2-0.5v-3.5
				h0.2v3.6c0,0.3,0.3,0.6,0.6,0.6c0.2,0,0.3,0,0.4-0.2c0.1-0.1,0.2-0.3,0.2-0.5v-3.5l0,0c0.4,0,0.6-0.3,0.7-0.6v-2.6
				c0-0.9-0.7-1.7-1.7-1.7h-0.7c-0.9,0-1.7,0.7-1.7,1.7v2.6C700.3,672.5,700.6,672.8,700.9,672.8z"/>
			<path class="st1" d="M705.8,672.8L705.8,672.8v3.6c0,0.3,0.3,0.6,0.6,0.6c0.2,0,0.3,0,0.4-0.2c0.1-0.1,0.2-0.3,0.2-0.5v-3.5h0.2
				v3.6c0,0.3,0.3,0.6,0.6,0.6c0.2,0,0.3,0,0.4-0.2c0.1-0.1,0.2-0.3,0.2-0.5v-3.5l0,0c0.4,0,0.6-0.3,0.7-0.6v-2.6
				c0-0.9-0.7-1.7-1.7-1.7h-0.7c-0.9,0-1.7,0.7-1.7,1.7v2.6C705.2,672.5,705.5,672.8,705.8,672.8z"/>
		</g>
	</g>
	<g>
		<g>
			<circle class="st7" cx="1260.8" cy="801.1" r="19.9"/>
		</g>
		<path class="st1" d="M1270.7,792.9h-5.9c-0.3,0-0.6,0.3-0.6,0.6v2.8h-4.1c-0.3,0-0.6,0.3-0.6,0.6v2.8h-4.1c-0.3,0-0.6,0.3-0.6,0.6
			v2.8h-4.1c-0.3,0-0.6,0.3-0.6,0.6v4.9c0,0.3,0.3,0.6,0.6,0.6h6c0.1,0,0.2,0,0.3-0.1l13.9-9.8c0.2-0.1,0.3-0.3,0.3-0.6v-5.4
			C1271.3,793.1,1271.1,792.9,1270.7,792.9z M1270.2,794.1v4.4l-13.5,9.6h-5.3v-3.7h4.1c0.3,0,0.6-0.3,0.6-0.6V801h4.1
			c0.3,0,0.6-0.3,0.6-0.6v-2.8h4.1c0.3,0,0.6-0.3,0.6-0.6v-2.8L1270.2,794.1z"/>
		<g>
			<path class="st7" d="M1260.8,818.8c0,0,0.2,0.2,0.6,0.7c0.2,0.2,0.4,0.5,0.5,0.7c0.1,0.1,0.2,0.3,0.3,0.5c0.1,0.1,0.1,0.2,0,0.2
				c0,0.1,0,0.2,0,0.3c0,1.4,0,3.3,0,5.2s0,3.8,0,5.2c0,0.1,0,0.2,0,0.3s0,0.2,0,0.2c-0.1,0.2-0.2,0.3-0.3,0.5
				c-0.2,0.3-0.4,0.5-0.5,0.7c-0.3,0.4-0.5,0.7-0.5,0.7s-0.2-0.2-0.5-0.7c-0.2-0.2-0.4-0.5-0.5-0.7c-0.1-0.1-0.2-0.3-0.3-0.5
				c-0.1-0.1-0.1-0.2,0-0.2c0-0.1,0-0.2,0-0.3c0-1.4,0-3.3,0-5.2s0-3.8,0-5.2c0-0.1,0-0.2,0-0.3s0-0.2,0-0.2
				c0.1-0.2,0.2-0.3,0.3-0.5c0.2-0.3,0.4-0.5,0.5-0.7C1260.6,819,1260.8,818.8,1260.8,818.8z"/>
		</g>
	</g>
	<g>
		<g>
			<circle class="st7" cx="1217.4" cy="789.9" r="19.9"/>
		</g>
		<g>
			<path class="st7" d="M1217.4,807.6c0,0,0.2,0.2,0.5,0.7c0.1,0.2,0.3,0.5,0.5,0.7c0.1,0.1,0.2,0.3,0.3,0.5c0.1,0.2,0,0.3,0,0.5
				c0,1.4,0,3.3,0,5.2s0,3.8,0,5.2c0,0.1,0,0.2,0,0.3s0,0.2,0,0.2c-0.1,0.2-0.2,0.3-0.3,0.5c-0.2,0.3-0.3,0.5-0.5,0.7
				c-0.3,0.4-0.5,0.7-0.5,0.7s-0.2-0.2-0.5-0.7c-0.1-0.2-0.3-0.5-0.5-0.7c-0.1-0.1-0.2-0.3-0.3-0.5c-0.1-0.1-0.1-0.2,0-0.2
				c0-0.1,0-0.2,0-0.3c0-1.4,0-3.3,0-5.2s0-3.8,0-5.2c0-0.2-0.1-0.3,0-0.5s0.2-0.3,0.3-0.5c0.2-0.3,0.3-0.5,0.5-0.7
				C1217.2,807.8,1217.4,807.6,1217.4,807.6z"/>
		</g>
		<g>
			<path class="st1" d="M1226.1,785.9l-17.3-0.2c-0.7,0-1.2,0.5-1.2,1.2l-0.1,13.1c0,0.7,0.5,1.2,1.2,1.2l17.3,0.2
				c0.7,0,1.2-0.5,1.2-1.2l0.1-13.1C1227.3,786.4,1226.8,785.9,1226.1,785.9z M1208.8,786.9L1208.8,786.9l17.3,0.1l0,0l-0.1,13.1
				l0,0l-17.3-0.2l0,0L1208.8,786.9z"/>
			<path class="st1" d="M1212.7,784.5C1212.8,784.5,1212.8,784.5,1212.7,784.5L1212.7,784.5c0.1,0.1,0.2,0.2,0.2,0.2l0,0l0,0
				c0.1,0,0.1,0,0.2,0l0,0l0,0l0,0l0,0c0.1,0,0.1,0,0.2,0l0,0c0.1,0,0.1-0.1,0.2-0.1l0,0c0,0,0,0,0.1-0.1l0,0l2.9-3.6
				c0.1-0.1,0.2-0.3,0.1-0.5c0-0.2-0.1-0.3-0.2-0.4c-0.3-0.2-0.7-0.2-0.9,0.1l-1.8,2.2l0.1-5.4c0-0.3-0.3-0.6-0.6-0.6
				s-0.6,0.3-0.6,0.6l-0.1,5.5l-1.7-1.9c-0.1-0.1-0.3-0.2-0.4-0.2c-0.2,0-0.3,0-0.5,0.1c-0.1,0.1-0.2,0.3-0.2,0.4s0,0.3,0.1,0.5
				L1212.7,784.5z"/>
			<path class="st1" d="M1219.1,780.7c0.2,0,0.4-0.1,0.5-0.2l1.7-1.9l-0.1,5.5c0,0.3,0.3,0.6,0.6,0.6c0.3,0,0.6-0.3,0.6-0.6l0.1-5.4
				l1.7,2.2c0.2,0.3,0.6,0.3,0.9,0.1s0.3-0.6,0.1-0.9l-2.8-3.6l0,0c0,0,0-0.1-0.1-0.1l0,0l0,0c0,0-0.1-0.1-0.2-0.1l0,0
				c-0.1,0-0.1,0-0.2,0l0,0c-0.1,0-0.1,0-0.2,0l0,0l0,0c-0.1,0-0.1,0-0.1,0.1l0,0l-0.1,0.1l-2.8,3.2c-0.2,0.3-0.2,0.7,0.1,0.9
				C1218.8,780.7,1218.9,780.7,1219.1,780.7z"/>
			<path class="st1" d="M1212.4,789.9c0.5,0,0.9-0.4,0.9-0.9s-0.4-0.9-0.9-0.9s-0.9,0.4-0.9,0.9S1211.9,789.9,1212.4,789.9z"/>
			<path class="st1" d="M1222.3,790c0.5,0,0.9-0.4,0.9-0.9s-0.4-0.9-0.9-0.9s-0.9,0.4-0.9,0.9S1221.8,790,1222.3,790z"/>
			<path class="st1" d="M1217.4,790c0.5,0,0.9-0.4,0.9-0.9s-0.4-0.9-0.9-0.9s-0.9,0.4-0.9,0.9S1216.9,790,1217.4,790z"/>
			<path class="st1" d="M1211,795.1L1211,795.1l0.1,3.6c0,0.3,0.3,0.6,0.6,0.6c0.2,0,0.3,0,0.4-0.2c0.1-0.1,0.2-0.3,0.2-0.5v-3.5
				h0.2v3.6c0,0.3,0.2,0.6,0.5,0.6l0,0c0.2,0,0.3,0,0.4-0.2c0.1-0.1,0.2-0.3,0.2-0.5v-3.5l0,0c0.4,0,0.6-0.3,0.7-0.6v-2.6
				c0-0.9-0.7-1.7-1.7-1.7h-0.7c-0.9,0-1.7,0.7-1.7,1.6v2.6C1210.3,794.8,1210.6,795.1,1211,795.1z"/>
			<path class="st1" d="M1216,795.1L1216,795.1l0.1,3.6c0,0.3,0.3,0.6,0.6,0.6c0.2,0,0.3,0,0.4-0.2c0.1-0.1,0.2-0.3,0.2-0.5v-3.5
				h0.2v3.6c0,0.3,0.3,0.6,0.6,0.6c0.2,0,0.3,0,0.4-0.2c0.1-0.1,0.2-0.3,0.2-0.5v-3.5l0,0c0.4,0,0.6-0.3,0.7-0.6v-2.6
				c0-0.9-0.7-1.7-1.7-1.7h-0.7c-0.9,0-1.7,0.7-1.7,1.6v2.6C1215.3,794.8,1215.6,795.1,1216,795.1z"/>
			<path class="st1" d="M1220.9,795.2L1220.9,795.2v3.6c0,0.3,0.3,0.6,0.6,0.6c0.2,0,0.3,0,0.4-0.2c0.1-0.1,0.2-0.3,0.2-0.5v-3.5
				h0.2v3.6c0,0.3,0.3,0.6,0.6,0.6c0.2,0,0.3,0,0.4-0.2c0.1-0.1,0.2-0.3,0.2-0.5v-3.5l0,0c0.4,0,0.6-0.3,0.7-0.6V792
				c0-0.9-0.7-1.7-1.7-1.7h-0.7c-0.9,0-1.7,0.7-1.7,1.6v2.6C1220.3,794.9,1220.5,795.2,1220.9,795.2z"/>
		</g>
	</g>
	<g>
		<g>
			<circle class="st7" cx="911.1" cy="727.2" r="19.9"/>
		</g>
		<g>
			<path class="st7" d="M911.1,744.1c0,0,0.2,0.3,0.5,0.7c0.2,0.2,0.3,0.5,0.5,0.8c0.1,0.2,0.2,0.3,0.3,0.5s0,0.4,0,0.5
				c0,1.5,0,3.6,0,5.6s0,4.1,0,5.6c0,0.1,0,0.2,0,0.3s0,0.2,0,0.3c-0.1,0.2-0.2,0.3-0.3,0.5c-0.2,0.3-0.4,0.6-0.5,0.8
				c-0.3,0.4-0.5,0.7-0.5,0.7s-0.2-0.3-0.5-0.7c-0.1-0.2-0.3-0.5-0.5-0.8c-0.1-0.2-0.2-0.3-0.3-0.5c-0.1-0.1-0.1-0.2,0-0.3
				c0-0.1,0-0.2,0-0.3c0-1.5,0-3.6,0-5.6s0-4.1,0-5.6c0-0.2-0.1-0.4,0-0.5c0.1-0.2,0.2-0.3,0.3-0.5c0.2-0.3,0.4-0.6,0.5-0.8
				C910.9,744.3,911.1,744.1,911.1,744.1z"/>
		</g>
		<g>
			<g>
				<path class="st1" d="M910.9,720.3c0.9,0,1.7-0.8,1.7-1.7s-0.8-1.7-1.7-1.7s-1.7,0.8-1.7,1.7S910,720.3,910.9,720.3z"/>
				<path class="st1" d="M915.5,729.3l-1.7-7.4c-0.2-0.9-0.8-1-1.4-1h-3.1c-0.8,0-1.4,0.6-1.4,1.3l-1.4,7.1c0,0.3,0.2,0.5,0.5,0.5
					h1.6v5.6c0,0.5,0.4,0.8,0.8,0.8c0,0,0,0,0.1,0c0.3,0,0.5-0.1,0.7-0.2c0.2-0.2,0.3-0.4,0.3-0.8v-5.4h0.9v5.6
					c0,0.5,0.4,0.8,0.8,0.8c0,0,0,0,0.1,0c0.3,0,0.5-0.1,0.7-0.2c0.2-0.2,0.3-0.4,0.3-0.8v-5.4h1.7
					C915.3,729.8,915.5,729.6,915.5,729.3L915.5,729.3z"/>
			</g>
		</g>
	</g>
	<rect x="263" y="167.8" class="st0" width="249.9" height="52"/>
	<rect x="274.5" y="183.2" class="st9" width="223.2" height="28.4"/>
	<g class="st10">
		<path class="st1" d="M296.7,202.1c-1.9,0-3.6-0.3-5-0.8c-1.4-0.5-2.5-1.3-3.3-2.3c-0.8-1-1.2-2.1-1.3-3.4h5c0.1,0.9,0.6,1.5,1.3,2
			c0.8,0.5,1.9,0.7,3.3,0.7c1.3,0,2.4-0.2,3.1-0.5c0.7-0.4,1.1-0.9,1.1-1.6c0-0.6-0.3-1.1-0.9-1.4c-0.6-0.3-1.6-0.4-3-0.4h-3.3V191
			h3.2c0.8,0,1.5-0.1,2-0.2c0.5-0.2,0.9-0.4,1.2-0.7c0.3-0.3,0.4-0.6,0.4-1c0-0.4-0.1-0.8-0.4-1.1c-0.3-0.3-0.7-0.5-1.3-0.7
			s-1.2-0.2-2-0.2c-1.3,0-2.3,0.2-3,0.7c-0.7,0.4-1.2,1.1-1.3,1.9h-4.9c0.1-1.2,0.5-2.3,1.3-3.2s1.8-1.7,3.2-2.3
			c1.4-0.6,3.1-0.9,5.1-0.9c1.7,0,3.2,0.2,4.5,0.6s2.3,1,3,1.8s1.1,1.6,1.1,2.7c0,0.8-0.2,1.6-0.7,2.2s-1.3,1.2-2.3,1.6
			c-1,0.4-2.4,0.6-4.1,0.6v-0.5c1.6-0.1,2.9,0,4,0.3s2,0.8,2.6,1.4c0.6,0.6,0.9,1.5,0.9,2.5c0,1.1-0.4,2.1-1.1,2.9
			c-0.7,0.8-1.8,1.5-3.1,2C300.4,201.9,298.7,202.1,296.7,202.1z"/>
		<path class="st1" d="M321.7,194.9c-0.2,1.4-0.7,2.7-1.3,3.8s-1.5,1.9-2.5,2.5c-1,0.6-2.2,0.9-3.5,0.9c-1.3,0-2.5-0.3-3.5-0.9
			c-1-0.6-1.8-1.4-2.4-2.5c-0.6-1.1-0.9-2.4-0.9-3.8c0-1.5,0.3-2.7,0.9-3.8c0.6-1.1,1.4-1.9,2.4-2.5c1-0.6,2.2-0.9,3.5-0.9
			c1.3,0,2.5,0.3,3.5,0.9c1,0.6,1.9,1.4,2.5,2.5S321.4,193.4,321.7,194.9z M312.5,194.9c0,0.7,0.1,1.3,0.4,1.8
			c0.3,0.5,0.7,0.9,1.2,1.2s1.1,0.4,1.7,0.4c0.7,0,1.3-0.1,1.9-0.4s1.1-0.7,1.6-1.2c0.4-0.5,0.8-1.1,1-1.8c-0.2-0.7-0.6-1.3-1-1.8
			c-0.4-0.5-1-0.9-1.6-1.2c-0.6-0.3-1.2-0.5-1.9-0.5c-0.6,0-1.2,0.2-1.7,0.5c-0.5,0.3-0.9,0.7-1.2,1.2
			C312.7,193.6,312.5,194.2,312.5,194.9z M320.5,201.7l-0.6-4.9l0.6-1.9l-0.6-1.9l0.6-5h5.1l-0.9,6.8l0.9,6.9H320.5z"/>
		<path class="st1" d="M330.3,188h14.9v13.7h-4.9v-12.3l2.3,2.3h-9.8l2.1-1.9c0.1,0.9,0.2,1.8,0.2,2.6c0,0.8,0.1,1.5,0.1,2.1
			c0,2.7-0.4,4.6-1.2,5.8c-0.8,1.2-2.2,1.8-4,1.8c-0.5,0-1.1-0.1-1.5-0.2c-0.5-0.1-1-0.3-1.4-0.6v-3.5c0.3,0.1,0.6,0.2,0.9,0.3
			c0.3,0.1,0.5,0.1,0.8,0.1c0.8,0,1.3-0.3,1.7-1c0.3-0.7,0.5-1.8,0.5-3.4c0-0.8,0-1.6-0.1-2.6C330.5,190.2,330.4,189.2,330.3,188z"
			/>
		<path class="st1" d="M357,188.5h5l-4,6.3v-1.1l4,6.3h-5l-3.5-5.7L357,188.5z M364.1,188.5h5l-4,6.3v-1.1l4,6.3h-5l-3.5-5.7
			L364.1,188.5z"/>
		<path class="st1" d="M391.7,194.2c-0.2,1.6-0.7,3-1.6,4.2c-0.9,1.2-2.1,2.1-3.6,2.8c-1.5,0.7-3.2,1-5.1,1c-2.1,0-3.9-0.4-5.5-1.2
			s-2.8-1.9-3.7-3.3c-0.9-1.4-1.3-3-1.3-4.9s0.4-3.5,1.3-4.9s2.1-2.5,3.7-3.3s3.4-1.2,5.5-1.2c1.9,0,3.6,0.3,5.1,1
			c1.5,0.7,2.7,1.6,3.6,2.8c0.9,1.2,1.5,2.6,1.6,4.2h-5c-0.2-0.8-0.5-1.4-0.9-2c-0.5-0.5-1.1-0.9-1.8-1.2s-1.6-0.4-2.6-0.4
			c-1.1,0-2.1,0.2-2.9,0.6c-0.8,0.4-1.4,1-1.9,1.8c-0.4,0.8-0.6,1.7-0.6,2.7s0.2,2,0.6,2.7c0.4,0.8,1.1,1.3,1.9,1.8
			c0.8,0.4,1.8,0.6,2.9,0.6c1,0,1.8-0.1,2.6-0.4c0.7-0.3,1.3-0.7,1.8-1.2c0.5-0.5,0.8-1.2,0.9-2H391.7z"/>
		<path class="st1" d="M401.9,202.1c-1.8,0-3.3-0.3-4.6-0.9c-1.3-0.6-2.3-1.4-3.1-2.5c-0.7-1.1-1.1-2.4-1.1-3.8
			c0-1.5,0.4-2.7,1.1-3.8c0.7-1.1,1.8-1.9,3.1-2.5c1.3-0.6,2.8-0.9,4.6-0.9c1.7,0,3.3,0.3,4.6,0.9c1.3,0.6,2.3,1.5,3.1,2.5
			c0.7,1.1,1.1,2.4,1.1,3.8c0,1.4-0.4,2.7-1.1,3.8s-1.8,1.9-3.1,2.5C405.2,201.8,403.6,202.1,401.9,202.1z M401.9,198.5
			c0.8,0,1.5-0.1,2.1-0.4c0.6-0.3,1-0.7,1.3-1.2c0.3-0.5,0.5-1.2,0.5-1.9c0-0.8-0.2-1.4-0.5-2c-0.3-0.5-0.7-0.9-1.3-1.2
			c-0.6-0.3-1.3-0.4-2.1-0.4c-0.8,0-1.5,0.1-2.1,0.4s-1,0.7-1.3,1.2c-0.3,0.5-0.5,1.2-0.5,1.9c0,0.8,0.2,1.4,0.5,1.9
			c0.3,0.5,0.7,1,1.3,1.2S401.1,198.5,401.9,198.5z"/>
		<path class="st1" d="M428.9,188v13.7H424v-12.3l2.3,2.2h-10.8l2.3-2.2v12.3h-4.9V188H428.9z"/>
		<path class="st1" d="M431.6,201.7V188h4.9v9.9l-1.4-0.5l7.6-9.4h5.2L436,201.7H431.6z M442.8,201.7l-3.9-6.7l3.7-2.6l5.7,9.3
			H442.8z"/>
		<path class="st1" d="M462.2,194.9c-0.2,1.4-0.7,2.7-1.3,3.8s-1.5,1.9-2.5,2.5c-1,0.6-2.2,0.9-3.5,0.9c-1.3,0-2.5-0.3-3.5-0.9
			c-1-0.6-1.8-1.4-2.4-2.5c-0.6-1.1-0.9-2.4-0.9-3.8c0-1.5,0.3-2.7,0.9-3.8c0.6-1.1,1.4-1.9,2.4-2.5c1-0.6,2.2-0.9,3.5-0.9
			c1.3,0,2.5,0.3,3.5,0.9c1,0.6,1.9,1.4,2.5,2.5S462,193.4,462.2,194.9z M453.1,194.9c0,0.7,0.1,1.3,0.4,1.8
			c0.3,0.5,0.7,0.9,1.2,1.2s1.1,0.4,1.7,0.4c0.7,0,1.3-0.1,1.9-0.4s1.1-0.7,1.6-1.2c0.4-0.5,0.8-1.1,1-1.8c-0.2-0.7-0.6-1.3-1-1.8
			c-0.4-0.5-1-0.9-1.6-1.2c-0.6-0.3-1.2-0.5-1.9-0.5c-0.6,0-1.2,0.2-1.7,0.5c-0.5,0.3-0.9,0.7-1.2,1.2
			C453.2,193.6,453.1,194.2,453.1,194.9z M461.1,201.7l-0.6-4.9l0.6-1.9l-0.6-1.9l0.6-5h5.1l-0.9,6.8l0.9,6.9H461.1z"/>
		<path class="st1" d="M473.1,188.5l3.6,5.8l-3.6,5.7h-5l4-6.3v1.1l-4-6.3H473.1z M480.2,188.5l3.5,5.8l-3.5,5.7h-5l4-6.3v1.1
			l-4-6.3H480.2z"/>
	</g>
</g>
</svg>
