<svg width="1920" height="1080" viewBox="0 0 1920 1080" fill="none" xmlns="http://www.w3.org/2000/svg">
<path d="M1333.4 602.5L1480.1 554.6L1581.4 521L1630.5 570.1L1587 584.5L1738.1 673.6L747.5 1003L670.6 926.1L574.6 980.8L438.9 903.5L346.5 856.7L203.6 785.3L302.7 715.5L180.7 657.3L363.8 474.8L518.9 320L761.4 77.5L1029.5 166.7L994.5 200.3L1107.9 239.2L1071.4 275.7L1050.9 267.5L942.4 376.2L959.4 386.7L1057.5 443.3L1226.9 527.5L1252.7 555.9L1333.4 602.5Z" fill="#ADCFFF"/>
<path d="M1334.1 573.1L1480.9 525.1L1582.2 491.5L1631.2 540.7L1587.7 555L1738.9 644.1L748.2 973.6L671.4 896.6L575.4 951.3L439.7 874.1L347.3 827.2L204.3 755.8L303.4 686L181.5 627.8L364.6 445.4L519.7 290.5L762.1 48L1030.3 137.3L995.3 170.8L1108.6 209.7L1049.7 268.6L960.2 357.2L1058.2 413.8L1283.8 498.7L1253.5 526.4L1334.1 573.1Z" fill="white"/>
<path d="M917.5 320.3L610.1 217.9L766.8 61.1L1007.9 142.6L971.9 178.8L1078.2 215.4L1025.7 268.1L985.7 254.2L917.5 320.3Z" fill="#66B9FF"/>
<path d="M1482.4 729.9L1429.5 677" stroke="#0086CD" stroke-width="4.8204" stroke-miterlimit="10" stroke-linecap="round" stroke-linejoin="round"/>
<path d="M470.2 465L399.1 536.3L396.4 538.8" stroke="#0086CD" stroke-width="4.8204" stroke-miterlimit="10" stroke-linecap="round" stroke-linejoin="round"/>
<path d="M579.4 500L522.7 556.8L504.6 574.9" stroke="#0086CD" stroke-width="4.8204" stroke-miterlimit="10" stroke-linecap="round" stroke-linejoin="round"/>
<path d="M1049.9 268.6L1031.2 287.3L1027.7 290.6" stroke="#0086CD" stroke-width="2.1602" stroke-miterlimit="10" stroke-linecap="round" stroke-linejoin="round"/>
<path d="M1167.6 764.3L1207.3 751.1L1240 740.3L1309 717.1" stroke="#0086CD" stroke-width="1.6068" stroke-miterlimit="10" stroke-linecap="round" stroke-linejoin="round"/>
<path d="M1481.4 525.2C1374.8 421.2 1226.9 333.2 1049.9 268.6" stroke="#0086CD" stroke-width="4.8204" stroke-miterlimit="10" stroke-linecap="round" stroke-linejoin="round"/>
<path d="M1443.1 538C1340.4 437.8 1198 353.1 1027.8 290.8" stroke="#0086CD" stroke-width="1.6068" stroke-miterlimit="10" stroke-linecap="round" stroke-linejoin="round"/>
<path d="M584.8 578L522.3 557.1" stroke="#0086CD" stroke-width="4.8204" stroke-miterlimit="10" stroke-linecap="round" stroke-linejoin="round"/>
<path d="M414.8 446.5L341 520.4" stroke="#0086CD" stroke-width="4.8204" stroke-miterlimit="10" stroke-linecap="round" stroke-linejoin="round"/>
<path d="M378.4 434.3L470.2 465" stroke="#0086CD" stroke-width="4.8204" stroke-miterlimit="10" stroke-linecap="round" stroke-linejoin="round"/>
<path d="M579.4 500L470.2 465" stroke="#0086CD" stroke-width="1.6068" stroke-miterlimit="10" stroke-linecap="round" stroke-linejoin="round"/>
<path d="M1100.8 829.5L1046 847.8L980.6 869.6" stroke="#0086CD" stroke-width="4.8204" stroke-miterlimit="10" stroke-linecap="round" stroke-linejoin="round"/>
<path d="M1105.1 701.4L1167.6 764.3L1220.4 817.3" stroke="#0086CD" stroke-width="4.8204" stroke-miterlimit="10" stroke-linecap="round" stroke-linejoin="round"/>
<path d="M1131.1 772.2L1053.5 694.4L1020.9 705.3L1098.5 783L1131.1 772.2Z" stroke="#0086CD" stroke-width="1.6068" stroke-miterlimit="10" stroke-linecap="round" stroke-linejoin="round"/>
<path d="M1207.3 751.1L1229.2 773L1260.2 804" stroke="#0086CD" stroke-width="1.6068" stroke-miterlimit="10" stroke-linecap="round" stroke-linejoin="round"/>
<path d="M827.4 430.4L740.1 401.3L639.2 367.6L537.3 333.7" stroke="#0086CD" stroke-width="4.8204" stroke-miterlimit="10" stroke-linecap="round" stroke-linejoin="round"/>
<path d="M557.2 620.5L471.7 592" stroke="#0086CD" stroke-width="4.8204" stroke-miterlimit="10" stroke-linecap="round" stroke-linejoin="round"/>
<path d="M446.1 583.5L429.2 578L413.4 572.6" stroke="#0086CD" stroke-width="4.8204" stroke-miterlimit="10" stroke-linecap="round" stroke-linejoin="round"/>
<path d="M387.8 564.1L281.3 528.7H281.2" stroke="#0086CD" stroke-width="4.8204" stroke-miterlimit="10" stroke-linecap="round" stroke-linejoin="round"/>
<path d="M557.2 620.5L548.1 629.6L509.4 668.4L381.3 625.8L233.5 576.6" stroke="#0086CD" stroke-width="4.8204" stroke-miterlimit="10" stroke-linecap="round" stroke-linejoin="round"/>
<path d="M429.2 578L381.3 625.8" stroke="#0086CD" stroke-width="4.8204" stroke-miterlimit="10" stroke-linecap="round" stroke-linejoin="round"/>
<path d="M396.4 538.8L504.6 574.9L567.1 595.7L584.8 578" stroke="#0086CD" stroke-width="4.8204" stroke-miterlimit="10" stroke-linecap="round" stroke-linejoin="round"/>
<path d="M1068.1 796.8L947.8 836.9" stroke="#0086CD" stroke-width="4.8204" stroke-miterlimit="10" stroke-linecap="round" stroke-linejoin="round"/>
<path d="M1240.9 739.8L1262.8 761.7L1229.2 773" stroke="#0086CD" stroke-width="1.6068" stroke-miterlimit="10" stroke-linecap="round" stroke-linejoin="round"/>
<path d="M1281.4 686.9L1251.7 697.4" stroke="#0086CD" stroke-width="2.1602" stroke-miterlimit="10" stroke-linecap="round" stroke-linejoin="round"/>
<path d="M537.3 333.7L511.4 359.6L481.6 389.2" stroke="#0086CD" stroke-width="4.7389" stroke-miterlimit="10" stroke-linecap="round" stroke-linejoin="round"/>
<path d="M827.4 430.4L773.3 484.6" stroke="#0086CD" stroke-width="4.7389" stroke-miterlimit="10" stroke-linecap="round" stroke-linejoin="round"/>
<path d="M923.4 243.7L918.4 248.7L959.3 262.4L988.3 272" stroke="#0086CD" stroke-width="1.6068" stroke-miterlimit="10" stroke-linecap="round" stroke-linejoin="round"/>
<path d="M1251.7 697.4L1217.3 663.3" stroke="#0086CD" stroke-width="4.8204" stroke-miterlimit="10" stroke-linecap="round" stroke-linejoin="round"/>
<path d="M1046 847.8L1066.7 868.5" stroke="#0086CD" stroke-width="4.7389" stroke-miterlimit="10" stroke-linecap="round" stroke-linejoin="round"/>
<path d="M1467.4 511.9L1429.8 525.3" stroke="#0086CD" stroke-width="1.6068" stroke-miterlimit="10" stroke-linecap="round" stroke-linejoin="round"/>
<path d="M1452.9 498.6L1415.8 512.5" stroke="#0086CD" stroke-width="1.6068" stroke-miterlimit="10" stroke-linecap="round" stroke-linejoin="round"/>
<path d="M1438 485.5L1401.2 500" stroke="#0086CD" stroke-width="1.6068" stroke-miterlimit="10" stroke-linecap="round" stroke-linejoin="round"/>
<path d="M1422.5 472.7L1386.3 487.5" stroke="#0086CD" stroke-width="1.6068" stroke-miterlimit="10" stroke-linecap="round" stroke-linejoin="round"/>
<path d="M1406.6 460.1L1371 475.2" stroke="#0086CD" stroke-width="1.6068" stroke-miterlimit="10" stroke-linecap="round" stroke-linejoin="round"/>
<path d="M1390.3 447.6L1355.1 463.2" stroke="#0086CD" stroke-width="1.6068" stroke-miterlimit="10" stroke-linecap="round" stroke-linejoin="round"/>
<path d="M1373.5 435.2L1338.9 451.3" stroke="#0086CD" stroke-width="1.6068" stroke-miterlimit="10" stroke-linecap="round" stroke-linejoin="round"/>
<path d="M1356.2 423.2L1322.2 439.5" stroke="#0086CD" stroke-width="1.6068" stroke-miterlimit="10" stroke-linecap="round" stroke-linejoin="round"/>
<path d="M1338.6 411.3L1305.3 428.1" stroke="#0086CD" stroke-width="1.6068" stroke-miterlimit="10" stroke-linecap="round" stroke-linejoin="round"/>
<path d="M1320.5 399.6L1287.8 416.9" stroke="#0086CD" stroke-width="1.6068" stroke-miterlimit="10" stroke-linecap="round" stroke-linejoin="round"/>
<path d="M1302 388.2L1269.9 405.8" stroke="#0086CD" stroke-width="1.6068" stroke-miterlimit="10" stroke-linecap="round" stroke-linejoin="round"/>
<path d="M1283.2 376.9L1251.7 395" stroke="#0086CD" stroke-width="1.6068" stroke-miterlimit="10" stroke-linecap="round" stroke-linejoin="round"/>
<path d="M1263.9 365.9L1233.1 384.3" stroke="#0086CD" stroke-width="1.6068" stroke-miterlimit="10" stroke-linecap="round" stroke-linejoin="round"/>
<path d="M1244.3 355.1L1214.1 373.8" stroke="#0086CD" stroke-width="1.6068" stroke-miterlimit="10" stroke-linecap="round" stroke-linejoin="round"/>
<path d="M1224.3 344.5L1194.8 363.6" stroke="#0086CD" stroke-width="1.6068" stroke-miterlimit="10" stroke-linecap="round" stroke-linejoin="round"/>
<path d="M1203.9 334.2L1175 353.6" stroke="#0086CD" stroke-width="1.6068" stroke-miterlimit="10" stroke-linecap="round" stroke-linejoin="round"/>
<path d="M1183.1 324.1L1155 343.9" stroke="#0086CD" stroke-width="1.6068" stroke-miterlimit="10" stroke-linecap="round" stroke-linejoin="round"/>
<path d="M1162.1 314.4L1134.6 334.5" stroke="#0086CD" stroke-width="1.6068" stroke-miterlimit="10" stroke-linecap="round" stroke-linejoin="round"/>
<path d="M1140.5 304.8L1113.8 325.2" stroke="#0086CD" stroke-width="1.6068" stroke-miterlimit="10" stroke-linecap="round" stroke-linejoin="round"/>
<path d="M1118.7 295.4L1092.8 316.3" stroke="#0086CD" stroke-width="1.6068" stroke-miterlimit="10" stroke-linecap="round" stroke-linejoin="round"/>
<path d="M1096.7 286.3L1071.4 307.5" stroke="#0086CD" stroke-width="1.6068" stroke-miterlimit="10" stroke-linecap="round" stroke-linejoin="round"/>
<path d="M1074.1 277.7L1049.7 299" stroke="#0086CD" stroke-width="1.6068" stroke-miterlimit="10" stroke-linecap="round" stroke-linejoin="round"/>
<path d="M1451.9 534.9L1458.6 515L1424.4 509.3L1429.3 488.9L1394.8 484.1L1398.3 463.6L1363.3 459.6L1365.4 438.9L1330.3 435.8L1330.9 415.2L1295.4 412.9L1294.6 392.2L1259.1 390.6L1256.8 370.1L1221.2 369.5L1217.3 349L1181.7 349.1L1176.6 328.8L1140.9 329.7L1134.3 309.5L1098.8 311.3L1090.8 291.3L1055.5 294L1044.8 273.7" stroke="#0086CD" stroke-width="1.6068" stroke-miterlimit="10" stroke-linecap="round" stroke-linejoin="round"/>
<path d="M1049.9 268.6L1027.2 291.3" stroke="#0086CD" stroke-width="4.7389" stroke-miterlimit="10" stroke-linecap="round" stroke-linejoin="round"/>
<path d="M985.7 272L1014.7 281.7L1031.2 287.3" stroke="#0086CD" stroke-width="4.7389" stroke-miterlimit="10" stroke-linecap="round" stroke-linejoin="round"/>
<path d="M1470.1 528.9L1334.6 574.1L1253.9 527.6L1255.3 526.3" stroke="#0086CD" stroke-width="1.524" stroke-miterlimit="10" stroke-linecap="round" stroke-linejoin="round"/>
<path d="M1274.3 508.8L1284.3 499.7L1058.7 414.9L960.4 358.1L1027.7 290.6" stroke="#0086CD" stroke-width="1.6068" stroke-miterlimit="10" stroke-linecap="round" stroke-linejoin="round"/>
<path d="M1316.8 466.1L1420.4 545.4" stroke="#0086CD" stroke-width="1.6068" stroke-miterlimit="10" stroke-linecap="round" stroke-linejoin="round"/>
<path d="M1255.3 526.3L1360 565.6" stroke="#0086CD" stroke-width="1.6068" stroke-miterlimit="10" stroke-linecap="round" stroke-linejoin="round"/>
<path d="M1288.5 478.4L1360.8 534L1356.3 539.7L1274.3 508.8" stroke="#0086CD" stroke-width="1.6068" stroke-miterlimit="10" stroke-linecap="round" stroke-linejoin="round"/>
<path d="M649.6 664.1L708.1 619" stroke="#0086CD" stroke-width="4.8204" stroke-miterlimit="10" stroke-linecap="round" stroke-linejoin="round"/>
<path d="M548.1 629.6L650.1 663.6" stroke="#0086CD" stroke-width="1.6068" stroke-miterlimit="10" stroke-linecap="round" stroke-linejoin="round"/>
<path d="M864.6 700.6L819.2 726.9" stroke="#0086CD" stroke-width="4.8204" stroke-miterlimit="10" stroke-linecap="round" stroke-linejoin="round"/>
<path d="M708.1 619L776.5 566.8" stroke="#0086CD" stroke-width="4.8204" stroke-miterlimit="10" stroke-linecap="round" stroke-linejoin="round"/>
<path d="M708.1 619L864.6 700.6L978.3 634.6" stroke="#0086CD" stroke-width="4.8204" stroke-miterlimit="10" stroke-linecap="round" stroke-linejoin="round"/>
<path d="M772 485.8L481.6 389.2" stroke="#0086CD" stroke-width="1.6068" stroke-miterlimit="10" stroke-linecap="round" stroke-linejoin="round"/>
<path d="M634.5 365.3L579 420.9" stroke="#0086CD" stroke-width="1.6068" stroke-miterlimit="10" stroke-linecap="round" stroke-linejoin="round"/>
<path d="M749.5 404.5L693.9 460.1" stroke="#0086CD" stroke-width="1.6068" stroke-miterlimit="10" stroke-linecap="round" stroke-linejoin="round"/>
<path d="M638.1 441.2L693.6 385.7" stroke="#0086CD" stroke-width="1.6068" stroke-miterlimit="10" stroke-linecap="round" stroke-linejoin="round"/>
<path d="M541.8 801.4L785.3 660.2" stroke="#0086CD" stroke-width="1.6068" stroke-miterlimit="10" stroke-linecap="round" stroke-linejoin="round"/>
<path d="M1468.1 649.1L1644.1 590.3" stroke="#0086CD" stroke-width="1.6068" stroke-miterlimit="10" stroke-linecap="round" stroke-linejoin="round"/>
<path d="M1517.6 632.6L1574.5 690L1581 696.5" stroke="#0086CD" stroke-width="1.6068" stroke-miterlimit="10" stroke-linecap="round" stroke-linejoin="round"/>
<path d="M540.9 330L537.3 333.7" stroke="#0086CD" stroke-width="4.7389" stroke-miterlimit="10" stroke-linecap="round" stroke-linejoin="round"/>
<path d="M550.3 321L553.2 318.3" stroke="#0086CD" stroke-width="4.7389" stroke-miterlimit="10" stroke-linecap="round" stroke-linejoin="round"/>
<path d="M1588.3 555.3L1739.5 644.1L747.3 975L602.9 830.4L180.4 629.5L429.3 380.8L762.1 47.6L1030.5 137.1L995.7 171.8L1108.8 209.5L1050.9 267.5" stroke="#0086CD" stroke-width="7.4983" stroke-miterlimit="10" stroke-linecap="round" stroke-linejoin="round"/>
<path d="M302 688L203.7 756L251.6 779.2L298.8 802.9L346.8 827.5L439.3 874.4L451.1 880.8L462.3 887L473.6 893.3L484.7 899.7L496 906L507.1 912.3L551.4 937.8L562.3 944.3L574.3 951.2L670.6 898.1" stroke="#0086CD" stroke-width="4.8204" stroke-miterlimit="10" stroke-linecap="round" stroke-linejoin="round"/>
<path d="M481.6 389.2L474.1 397" stroke="#0086CD" stroke-width="4.7389" stroke-miterlimit="10" stroke-linecap="round" stroke-linejoin="round"/>
<path d="M463.3 407.8L457.4 413.6" stroke="#0086CD" stroke-width="4.8204" stroke-miterlimit="10" stroke-linecap="round" stroke-linejoin="round"/>
<path d="M779.1 156.1L766.8 168.3" stroke="#0086CD" stroke-width="1.6068" stroke-miterlimit="10" stroke-linecap="round" stroke-linejoin="round"/>
<path d="M985.7 272L964.4 293.3" stroke="#0086CD" stroke-width="4.7389" stroke-miterlimit="10" stroke-linecap="round" stroke-linejoin="round"/>
<path d="M948.7 309L922.3 335.4" stroke="#0086CD" stroke-width="4.7389" stroke-miterlimit="10" stroke-linecap="round" stroke-linejoin="round"/>
<path d="M457.4 413.6L422.1 449" stroke="#0086CD" stroke-width="4.8204" stroke-miterlimit="10" stroke-linecap="round" stroke-linejoin="round"/>
<path d="M856.1 78.9L779.1 156.1" stroke="#0086CD" stroke-width="1.6068" stroke-miterlimit="10" stroke-linecap="round" stroke-linejoin="round"/>
<path d="M743.8 191.3L704.3 230.9" stroke="#0086CD" stroke-width="1.6068" stroke-miterlimit="10" stroke-linecap="round" stroke-linejoin="round"/>
<path d="M690.1 245.1L677.9 257.5" stroke="#0086CD" stroke-width="1.6068" stroke-miterlimit="10" stroke-linecap="round" stroke-linejoin="round"/>
<path d="M999.3 167.8L936.3 230.8" stroke="#0086CD" stroke-width="1.6068" stroke-miterlimit="10" stroke-linecap="round" stroke-linejoin="round"/>
<path d="M649.8 160L743.8 191.3" stroke="#0086CD" stroke-width="1.6068" stroke-miterlimit="10" stroke-linecap="round" stroke-linejoin="round"/>
<path d="M819.2 728.5L857.7 747L886.1 776.5" stroke="#0086CD" stroke-width="1.6068" stroke-miterlimit="10" stroke-linecap="round" stroke-linejoin="round"/>
<path d="M396.6 538.9L382.6 534.3L381.2 533.7" stroke="#0086CD" stroke-width="4.8204" stroke-miterlimit="10" stroke-linecap="round" stroke-linejoin="round"/>
<path d="M356.9 525.6L341.2 520.4" stroke="#0086CD" stroke-width="4.7389" stroke-miterlimit="10" stroke-linecap="round" stroke-linejoin="round"/>
<path d="M396.6 538.9L381.2 533.7" stroke="#0086CD" stroke-width="4.8204" stroke-miterlimit="10" stroke-linecap="round" stroke-linejoin="round"/>
<path d="M356.9 525.6L302.6 507.4" stroke="#0086CD" stroke-width="4.7389" stroke-miterlimit="10" stroke-linecap="round" stroke-linejoin="round"/>
<path d="M1067.6 796.3L1077.4 806" stroke="#0086CD" stroke-width="4.8204" stroke-miterlimit="10" stroke-linecap="round" stroke-linejoin="round"/>
<path d="M1091.4 819.9L1092.2 820.8L1101 829.5" stroke="#0086CD" stroke-width="4.8204" stroke-miterlimit="10" stroke-linecap="round" stroke-linejoin="round"/>
<path d="M1400.6 648L1281.2 687.7" stroke="#0086CD" stroke-width="4.8204" stroke-miterlimit="10" stroke-linecap="round" stroke-linejoin="round"/>
<path d="M1366.8 614.2L1246.5 654.3" stroke="#0086CD" stroke-width="4.8204" stroke-miterlimit="10" stroke-linecap="round" stroke-linejoin="round"/>
<path d="M1400 647.4L1409.3 656.6" stroke="#0086CD" stroke-width="4.7389" stroke-miterlimit="10" stroke-linecap="round" stroke-linejoin="round"/>
<path d="M1400.6 648L1390.9 638.3" stroke="#0086CD" stroke-width="4.7389" stroke-miterlimit="10" stroke-linecap="round" stroke-linejoin="round"/>
<path d="M1376.9 624.2L1366.8 614.2" stroke="#0086CD" stroke-width="4.8204" stroke-miterlimit="10" stroke-linecap="round" stroke-linejoin="round"/>
<path d="M1279.8 688L1283.7 691.8L1307.9 716.2L1428.6 675.9L1420.1 667.4" stroke="#0086CD" stroke-width="4.8204" stroke-miterlimit="10" stroke-linecap="round" stroke-linejoin="round"/>
<path d="M1246.3 654.3L1255.9 663.9L1256.5 664.7" stroke="#0086CD" stroke-width="4.7389" stroke-miterlimit="10" stroke-linecap="round" stroke-linejoin="round"/>
<path d="M1270.6 678.7L1272.1 680.3L1279.8 688" stroke="#0086CD" stroke-width="4.7389" stroke-miterlimit="10" stroke-linecap="round" stroke-linejoin="round"/>
<path d="M980.6 869.6L947.8 836.9L885.6 774.5L1005.8 734.4L1068.1 796.8" stroke="#0086CD" stroke-width="4.8204" stroke-miterlimit="10" stroke-linecap="round" stroke-linejoin="round"/>
<path d="M1514.3 719L1464.8 669.6L1417.4 622.2L1399.2 603.9" stroke="#0086CD" stroke-width="4.8204" stroke-miterlimit="10" stroke-linecap="round" stroke-linejoin="round"/>
<path d="M1460.7 665.3L1478.6 659.3L1417.1 598L1399.2 603.9" stroke="#0086CD" stroke-width="4.8204" stroke-miterlimit="10" stroke-linecap="round" stroke-linejoin="round"/>
<path d="M1423 627.2L1531.3 590.6L1560.1 618.3" stroke="#0086CD" stroke-width="1.6068" stroke-miterlimit="10" stroke-linecap="round" stroke-linejoin="round"/>
<path d="M1217.3 663.3L1105.1 701.4" stroke="#0086CD" stroke-width="4.8204" stroke-miterlimit="10" stroke-linecap="round" stroke-linejoin="round"/>
<path d="M586.2 349.1L565.2 370L553.8 381.5L532.4 402.8L530.3 404.9" stroke="#0086CD" stroke-width="1.6068" stroke-miterlimit="10" stroke-linecap="round" stroke-linejoin="round"/>
<path d="M1316.8 466.1L1288.5 478.4" stroke="#0086CD" stroke-width="1.6068" stroke-miterlimit="10" stroke-linecap="round" stroke-linejoin="round"/>
<path d="M805.3 401.1L883.9 322.6" stroke="#0086CD" stroke-width="4.8204" stroke-miterlimit="10" stroke-linecap="round" stroke-linejoin="round"/>
<path d="M599.8 271.8L647.6 287.7" stroke="#0086CD" stroke-width="4.8204" stroke-miterlimit="10" stroke-linecap="round" stroke-linejoin="round"/>
<path d="M550.3 321L585.1 286.5L632.8 302.4" stroke="#0086CD" stroke-width="4.8204" stroke-miterlimit="10" stroke-linecap="round" stroke-linejoin="round"/>
<path d="M599.8 271.8L632.8 239" stroke="#0086CD" stroke-width="4.8204" stroke-miterlimit="10" stroke-linecap="round" stroke-linejoin="round"/>
<path d="M805.3 401.1L756.3 384.8L753 383.7" stroke="#0086CD" stroke-width="4.7389" stroke-miterlimit="10" stroke-linecap="round" stroke-linejoin="round"/>
<path d="M602.1 333.2L666.5 354.7" stroke="#0086CD" stroke-width="4.8204" stroke-miterlimit="10" stroke-linecap="round" stroke-linejoin="round"/>
<path d="M686.1 361.2L727.6 375.2" stroke="#0086CD" stroke-width="4.7389" stroke-miterlimit="10" stroke-linecap="round" stroke-linejoin="round"/>
<path d="M714 266L728.8 270.9" stroke="#0086CD" stroke-width="4.7389" stroke-miterlimit="10" stroke-linecap="round" stroke-linejoin="round"/>
<path d="M695.3 259.8L586.4 223.5" stroke="#0086CD" stroke-width="4.7389" stroke-miterlimit="10" stroke-linecap="round" stroke-linejoin="round"/>
<path d="M805.3 401.1L883.9 322.6" stroke="#0086CD" stroke-width="4.8204" stroke-miterlimit="10" stroke-linecap="round" stroke-linejoin="round"/>
<path d="M780.6 288.2L705.5 363.2L702.1 366.7" stroke="#0086CD" stroke-width="4.8204" stroke-miterlimit="10" stroke-linecap="round" stroke-linejoin="round"/>
<path d="M856.7 313.5L778 392" stroke="#0086CD" stroke-width="4.8204" stroke-miterlimit="10" stroke-linecap="round" stroke-linejoin="round"/>
<path d="M599.8 271.8L647.6 287.7" stroke="#0086CD" stroke-width="4.8204" stroke-miterlimit="10" stroke-linecap="round" stroke-linejoin="round"/>
<path d="M585.1 286.5L632.8 302.4" stroke="#0086CD" stroke-width="4.8204" stroke-miterlimit="10" stroke-linecap="round" stroke-linejoin="round"/>
<path d="M883.9 322.6L728.8 270.9L722.5 277.2L650.1 349.1" stroke="#0086CD" stroke-width="4.8204" stroke-miterlimit="10" stroke-linecap="round" stroke-linejoin="round"/>
<path d="M680.2 255.2L651.2 284.2L635.3 300.1L605.7 329.5L602 333.2" stroke="#0086CD" stroke-width="4.8204" stroke-miterlimit="10" stroke-linecap="round" stroke-linejoin="round"/>
<path d="M728.8 270.9L896.5 326.8" stroke="#0086CD" stroke-width="4.7389" stroke-miterlimit="10" stroke-linecap="round" stroke-linejoin="round"/>
<path d="M599.8 271.8L632.8 239" stroke="#0086CD" stroke-width="4.8204" stroke-miterlimit="10" stroke-linecap="round" stroke-linejoin="round"/>
<path d="M805.3 401.1L756.3 384.8L753 383.7" stroke="#0086CD" stroke-width="4.7389" stroke-miterlimit="10" stroke-linecap="round" stroke-linejoin="round"/>
<path d="M556.4 318.3L602 333.2" stroke="#0086CD" stroke-width="4.8204" stroke-miterlimit="10" stroke-linecap="round" stroke-linejoin="round"/>
<path d="M602.1 333.2L666.5 354.7" stroke="#0086CD" stroke-width="4.8204" stroke-miterlimit="10" stroke-linecap="round" stroke-linejoin="round"/>
<path d="M686.1 361.2L727.6 375.2" stroke="#0086CD" stroke-width="4.7389" stroke-miterlimit="10" stroke-linecap="round" stroke-linejoin="round"/>
<path d="M1588.3 555.3L1577.9 558.7L1571.4 554.8L1561.6 549.4L1508.6 567" stroke="#0086CD" stroke-width="4.8204" stroke-miterlimit="10" stroke-linecap="round" stroke-linejoin="round"/>
<path d="M1481.3 525.2L1582.7 491.4L1631.8 540.6H1631.9L1588.3 555.3" stroke="#0086CD" stroke-width="7.4983" stroke-miterlimit="10" stroke-linecap="round" stroke-linejoin="round"/>
<path d="M1471.7 529.9L1479.5 537.8" stroke="#0086CD" stroke-width="4.8204" stroke-miterlimit="10" stroke-linecap="round" stroke-linejoin="round"/>
<path d="M1443.9 538.8L1482.1 526.4" stroke="#0086CD" stroke-width="4.8204" stroke-miterlimit="10" stroke-linecap="round" stroke-linejoin="round"/>
<path d="M1495.8 554.2L1522.1 580.6L1530.7 589.4L1604.4 564.7" stroke="#0086CD" stroke-width="4.8204" stroke-miterlimit="10" stroke-linecap="round" stroke-linejoin="round"/>
<path d="M1274.3 508.8L1255.3 526.3" stroke="#0086CD" stroke-width="1.6068" stroke-miterlimit="10" stroke-linecap="round" stroke-linejoin="round"/>
<path d="M1570.2 515.1C1581.96 515.1 1591.5 505.564 1591.5 493.8C1591.5 482.036 1581.96 472.5 1570.2 472.5C1558.44 472.5 1548.9 482.036 1548.9 493.8C1548.9 505.564 1558.44 515.1 1570.2 515.1Z" fill="#1D3D90"/>
<path d="M1580.8 484.9H1574.5C1574.2 484.9 1573.9 485.2 1573.9 485.6V488.6H1569.5C1569.2 488.6 1568.9 488.9 1568.9 489.3V492.3H1564.5C1564.2 492.3 1563.9 492.6 1563.9 493V496H1559.5C1559.2 496 1558.9 496.3 1558.9 496.7V502C1558.9 502.4 1559.2 502.7 1559.5 502.7H1566C1566.1 502.7 1566.2 502.7 1566.3 502.6L1581.1 492.1C1581.3 492 1581.4 491.8 1581.4 491.5V485.7C1581.4 485.2 1581.1 484.9 1580.8 484.9ZM1580.2 486.3V491L1565.8 501.2H1560.1V497.3H1564.5C1564.8 497.3 1565.1 497 1565.1 496.6V493.6H1569.5C1569.8 493.6 1570.1 493.3 1570.1 492.9V489.9H1574.5C1574.8 489.9 1575.1 489.6 1575.1 489.2V486.2L1580.2 486.3Z" fill="white"/>
<path d="M1570.2 512.7C1570.2 512.7 1570.4 513 1570.7 513.4C1570.9 513.6 1571 513.9 1571.2 514.2C1571.3 514.4 1571.4 514.5 1571.5 514.7C1571.6 514.9 1571.5 515.1 1571.5 515.2C1571.5 516.7 1571.5 518.8 1571.5 520.8C1571.5 522.8 1571.5 524.9 1571.5 526.4C1571.5 526.5 1571.5 526.6 1571.5 526.7C1571.5 526.8 1571.5 526.9 1571.5 527C1571.4 527.2 1571.3 527.3 1571.2 527.5C1571 527.8 1570.8 528.1 1570.7 528.3C1570.4 528.7 1570.2 529 1570.2 529C1570.2 529 1570 528.7 1569.7 528.3C1569.6 528.1 1569.4 527.8 1569.2 527.5C1569.1 527.3 1569 527.2 1568.9 527C1568.8 526.9 1568.8 526.8 1568.9 526.7C1568.9 526.6 1568.9 526.5 1568.9 526.4C1568.9 524.9 1568.9 522.8 1568.9 520.8C1568.9 518.8 1568.9 516.7 1568.9 515.2C1568.9 515 1568.8 514.8 1568.9 514.7C1569 514.5 1569.1 514.4 1569.2 514.2C1569.4 513.9 1569.6 513.6 1569.7 513.4C1570 513 1570.2 512.7 1570.2 512.7Z" fill="#1D3D90"/>
<path d="M665.8 293.1C677.564 293.1 687.1 283.564 687.1 271.8C687.1 260.036 677.564 250.5 665.8 250.5C654.036 250.5 644.5 260.036 644.5 271.8C644.5 283.564 654.036 293.1 665.8 293.1Z" fill="#1D3D90"/>
<path d="M676.5 262.9H670.2C669.9 262.9 669.6 263.2 669.6 263.6V266.6H665.2C664.9 266.6 664.6 266.9 664.6 267.3V270.3H660.2C659.9 270.3 659.6 270.6 659.6 271V274H655.2C654.9 274 654.6 274.3 654.6 274.7V280C654.6 280.4 654.9 280.7 655.2 280.7H661.7C661.8 280.7 661.9 280.7 662 280.6L676.8 270.1C677 270 677.1 269.8 677.1 269.5V263.7C677.1 263.2 676.8 262.9 676.5 262.9ZM675.9 264.3V269L661.5 279.2H655.8V275.3H660.2C660.5 275.3 660.8 275 660.8 274.6V271.6H665.2C665.5 271.6 665.8 271.3 665.8 270.9V267.9H670.2C670.5 267.9 670.8 267.6 670.8 267.2V264.2L675.9 264.3Z" fill="white"/>
<path d="M665.8 290.7C665.8 290.7 666 291 666.3 291.4C666.5 291.6 666.6 291.9 666.8 292.2C666.9 292.4 667 292.5 667.1 292.7C667.2 292.9 667.1 293.1 667.1 293.2C667.1 294.7 667.1 296.8 667.1 298.8C667.1 300.8 667.1 302.9 667.1 304.4C667.1 304.5 667.1 304.6 667.1 304.7C667.1 304.8 667.1 304.9 667.1 305C667 305.2 666.9 305.3 666.8 305.5C666.6 305.8 666.4 306.1 666.3 306.3C666 306.7 665.8 307 665.8 307C665.8 307 665.6 306.7 665.3 306.3C665.2 306.1 665 305.8 664.8 305.5C664.7 305.3 664.6 305.2 664.5 305C664.4 304.9 664.4 304.8 664.5 304.7C664.5 304.6 664.5 304.5 664.5 304.4C664.5 302.9 664.5 300.8 664.5 298.8C664.5 296.8 664.5 294.7 664.5 293.2C664.5 293 664.4 292.8 664.5 292.7C664.6 292.5 664.7 292.4 664.8 292.2C665 291.9 665.2 291.6 665.3 291.4C665.6 291 665.8 290.7 665.8 290.7Z" fill="#1D3D90"/>
<path d="M786.3 322.9C798.064 322.9 807.6 313.364 807.6 301.6C807.6 289.836 798.064 280.3 786.3 280.3C774.536 280.3 765 289.836 765 301.6C765 313.364 774.536 322.9 786.3 322.9Z" fill="#1D3D90"/>
<path d="M786.3 319.7C786.3 319.7 786.5 320 786.8 320.4C787 320.6 787.1 320.9 787.3 321.3C787.4 321.5 787.5 321.6 787.6 321.8C787.7 322 787.6 322.2 787.6 322.4C787.6 324 787.6 326.2 787.6 328.4C787.6 330.6 787.6 332.8 787.6 334.4C787.6 334.5 787.6 334.6 787.6 334.7C787.6 334.8 787.6 334.9 787.6 335C787.5 335.2 787.4 335.4 787.3 335.5C787.1 335.8 786.9 336.1 786.8 336.4C786.5 336.9 786.3 337.1 786.3 337.1C786.3 337.1 786.1 336.8 785.8 336.4C785.7 336.2 785.5 335.9 785.3 335.5C785.2 335.3 785.1 335.2 785 335C784.9 334.9 784.9 334.8 785 334.7C785 334.6 785 334.5 785 334.4C785 332.8 785 330.6 785 328.4C785 326.2 785 324 785 322.4C785 322.2 784.9 322 785 321.8C785.1 321.6 785.2 321.4 785.3 321.3C785.5 321 785.7 320.7 785.8 320.4C786 319.9 786.3 319.7 786.3 319.7Z" fill="#1D3D90"/>
<path d="M779.5 294.5C780.494 294.5 781.3 293.694 781.3 292.7C781.3 291.706 780.494 290.9 779.5 290.9C778.506 290.9 777.7 291.706 777.7 292.7C777.7 293.694 778.506 294.5 779.5 294.5Z" fill="white"/>
<path d="M781.8 295.2H777.1C776.3 295.2 775.6 295.9 775.6 296.7V304.2C775.6 304.5 775.9 304.8 776.2 304.8H777.1V310.8C777.1 311.3 777.5 311.7 778 311.7C778 311.7 778 311.7 778.1 311.7C778.4 311.7 778.7 311.6 778.8 311.4C779 311.2 779.1 310.9 779.1 310.6V304.8H780V310.8C780 311.3 780.4 311.7 780.9 311.7C780.9 311.7 780.9 311.7 781 311.7C781.3 311.7 781.6 311.6 781.7 311.4C781.9 311.2 782 310.9 782 310.6V304.8H782.8C783.1 304.8 783.4 304.5 783.4 304.2V296.7C783.3 295.9 782.7 295.2 781.8 295.2Z" fill="white"/>
<path d="M793 294.2C793.994 294.2 794.8 293.394 794.8 292.4C794.8 291.406 793.994 290.6 793 290.6C792.006 290.6 791.2 291.406 791.2 292.4C791.2 293.394 792.006 294.2 793 294.2Z" fill="white"/>
<path d="M797.9 303.8L796.1 295.8C795.9 294.9 795.3 294.8 794.6 294.8H791.2C790.4 294.8 789.7 295.5 789.7 296.2L788.3 303.8C788.3 304.1 788.6 304.4 788.9 304.4H790.6V310.4C790.6 310.9 791 311.3 791.5 311.3C791.5 311.3 791.5 311.3 791.6 311.3C791.9 311.3 792.2 311.2 792.3 311C792.5 310.8 792.6 310.5 792.6 310.2V304.4H793.5V310.4C793.5 310.9 793.9 311.3 794.4 311.3C794.4 311.3 794.4 311.3 794.5 311.3C794.8 311.3 795.1 311.2 795.2 311C795.4 310.8 795.5 310.5 795.5 310.2V304.4H797.4C797.7 304.4 797.9 304.2 797.9 303.8Z" fill="white"/>
<path d="M786.2 288.9C785.9 288.9 785.6 289.2 785.6 289.5V312.9C785.6 313.2 785.9 313.5 786.2 313.5C786.5 313.5 786.8 313.2 786.8 312.9V289.5C786.8 289.1 786.6 288.9 786.2 288.9Z" fill="white"/>
<path d="M341 571.3C352.764 571.3 362.3 561.764 362.3 550C362.3 538.236 352.764 528.7 341 528.7C329.236 528.7 319.7 538.236 319.7 550C319.7 561.764 329.236 571.3 341 571.3Z" fill="#1D3D90"/>
<path d="M341 568.1C341 568.1 341.2 568.4 341.5 568.8C341.7 569 341.8 569.3 342 569.7C342.1 569.9 342.2 570 342.3 570.2C342.4 570.4 342.3 570.6 342.3 570.8C342.3 572.4 342.3 574.6 342.3 576.8C342.3 579 342.3 581.2 342.3 582.8C342.3 582.9 342.3 583 342.3 583.1C342.3 583.2 342.3 583.3 342.3 583.4C342.2 583.6 342.1 583.8 342 583.9C341.8 584.2 341.6 584.5 341.5 584.8C341.2 585.3 341 585.5 341 585.5C341 585.5 340.8 585.2 340.5 584.8C340.4 584.6 340.2 584.3 340 583.9C339.9 583.7 339.8 583.6 339.7 583.4C339.6 583.3 339.6 583.2 339.7 583.1C339.7 583 339.7 582.9 339.7 582.8C339.7 581.2 339.7 579 339.7 576.8C339.7 574.6 339.7 572.4 339.7 570.8C339.7 570.6 339.6 570.4 339.7 570.2C339.8 570 339.9 569.8 340 569.7C340.2 569.4 340.4 569.1 340.5 568.8C340.8 568.3 341 568.1 341 568.1Z" fill="#1D3D90"/>
<path d="M340.9 542.6C341.894 542.6 342.7 541.794 342.7 540.8C342.7 539.806 341.894 539 340.9 539C339.906 539 339.1 539.806 339.1 540.8C339.1 541.794 339.906 542.6 340.9 542.6Z" fill="white"/>
<path d="M345.8 552.2L344 544.2C343.8 543.3 343.2 543.2 342.5 543.2H339.1C338.3 543.2 337.6 543.9 337.6 544.6L336.2 552.2C336.2 552.5 336.5 552.8 336.8 552.8H338.5V558.8C338.5 559.3 338.9 559.7 339.4 559.7C339.4 559.7 339.4 559.7 339.5 559.7C339.8 559.7 340.1 559.6 340.2 559.4C340.4 559.2 340.5 558.9 340.5 558.6V552.8H341.4V558.8C341.4 559.3 341.8 559.7 342.3 559.7C342.3 559.7 342.3 559.7 342.4 559.7C342.7 559.7 343 559.6 343.1 559.4C343.3 559.2 343.4 558.9 343.4 558.6V552.8H345.3C345.6 552.8 345.8 552.6 345.8 552.2Z" fill="white"/>
<path d="M481 617.4C492.764 617.4 502.3 607.864 502.3 596.1C502.3 584.336 492.764 574.8 481 574.8C469.236 574.8 459.7 584.336 459.7 596.1C459.7 607.864 469.236 617.4 481 617.4Z" fill="#1D3D90"/>
<path d="M481 614.1C481 614.1 481.2 614.4 481.5 614.8C481.7 615 481.8 615.3 482 615.7C482.1 615.9 482.2 616 482.3 616.2C482.4 616.4 482.3 616.6 482.3 616.8C482.3 618.4 482.3 620.6 482.3 622.8C482.3 625 482.3 627.2 482.3 628.8C482.3 628.9 482.3 629 482.3 629.1C482.3 629.2 482.3 629.3 482.3 629.4C482.2 629.6 482.1 629.8 482 629.9C481.8 630.2 481.6 630.5 481.5 630.8C481.2 631.3 481 631.5 481 631.5C481 631.5 480.8 631.2 480.5 630.8C480.4 630.6 480.2 630.3 480 629.9C479.9 629.7 479.8 629.6 479.7 629.4C479.6 629.3 479.6 629.2 479.7 629.1C479.7 629 479.7 628.9 479.7 628.8C479.7 627.2 479.7 625 479.7 622.8C479.7 620.6 479.7 618.4 479.7 616.8C479.7 616.6 479.6 616.4 479.7 616.2C479.8 616 479.9 615.8 480 615.7C480.2 615.4 480.4 615.1 480.5 614.8C480.8 614.4 481 614.1 481 614.1Z" fill="#1D3D90"/>
<path d="M481 589C481.994 589 482.8 588.194 482.8 587.2C482.8 586.206 481.994 585.4 481 585.4C480.006 585.4 479.2 586.206 479.2 587.2C479.2 588.194 480.006 589 481 589Z" fill="white"/>
<path d="M483.4 589.7H478.7C477.9 589.7 477.2 590.4 477.2 591.2V598.7C477.2 599 477.5 599.3 477.8 599.3H478.7V605.3C478.7 605.8 479.1 606.2 479.6 606.2C479.6 606.2 479.6 606.2 479.7 606.2C480 606.2 480.3 606.1 480.4 605.9C480.6 605.7 480.7 605.4 480.7 605.1V599.3H481.6V605.3C481.6 605.8 482 606.2 482.5 606.2C482.5 606.2 482.5 606.2 482.6 606.2C482.9 606.2 483.2 606.1 483.3 605.9C483.5 605.7 483.6 605.4 483.6 605.1V599.3H484.4C484.7 599.3 485 599 485 598.7V591.2C484.9 590.4 484.2 589.7 483.4 589.7Z" fill="white"/>
<path d="M716.1 305.6C727.864 305.6 737.4 296.064 737.4 284.3C737.4 272.536 727.864 263 716.1 263C704.336 263 694.8 272.536 694.8 284.3C694.8 296.064 704.336 305.6 716.1 305.6Z" fill="#1D3D90"/>
<path d="M716.1 303.2C716.1 303.2 716.3 303.5 716.6 303.9C716.8 304.1 716.9 304.4 717.1 304.7C717.2 304.9 717.3 305 717.4 305.2C717.5 305.4 717.4 305.6 717.4 305.7C717.4 307.2 717.4 309.3 717.4 311.3C717.4 313.3 717.4 315.4 717.4 316.9C717.4 317 717.4 317.1 717.4 317.2C717.4 317.3 717.4 317.4 717.4 317.5C717.3 317.7 717.2 317.8 717.1 318C716.9 318.3 716.7 318.6 716.6 318.8C716.3 319.2 716.1 319.5 716.1 319.5C716.1 319.5 715.9 319.2 715.6 318.8C715.5 318.6 715.3 318.3 715.1 318C715 317.8 714.9 317.7 714.8 317.5C714.7 317.4 714.7 317.3 714.8 317.2C714.8 317.1 714.8 317 714.8 316.9C714.8 315.4 714.8 313.3 714.8 311.3C714.8 309.3 714.8 307.2 714.8 305.7C714.8 305.5 714.7 305.3 714.8 305.2C714.9 305 715 304.9 715.1 304.7C715.3 304.4 715.5 304.1 715.6 303.9C715.9 303.5 716.1 303.2 716.1 303.2Z" fill="#1D3D90"/>
<path d="M725.4 280L706.9 279.8C706.2 279.8 705.6 280.4 705.6 281.1L705.5 295.1C705.5 295.8 706.1 296.4 706.8 296.4L725.3 296.6C726 296.6 726.6 296 726.6 295.3L726.7 281.3C726.7 280.6 726.1 280 725.4 280ZM706.9 281.1L725.4 281.2L725.3 295.2L706.8 295L706.9 281.1Z" fill="white"/>
<path d="M711.1 278.5C711.2 278.6 711.2 278.5 711.1 278.5C711.2 278.6 711.2 278.6 711.2 278.6C711.2 278.6 711.3 278.7 711.4 278.7C711.5 278.7 711.5 278.7 711.6 278.7C711.7 278.7 711.7 278.7 711.8 278.7C711.9 278.7 711.9 278.6 712 278.6C712 278.6 712 278.6 712.1 278.5L715.2 274.7C715.3 274.6 715.4 274.4 715.3 274.2C715.3 274 715.2 273.9 715.1 273.7C714.8 273.5 714.4 273.5 714.2 273.8L712.3 276.1L712.4 270.3C712.4 269.9 712.1 269.6 711.7 269.6C711.3 269.6 711 269.9 711 270.3L710.9 276.2L709.1 274.1C709 274 708.8 273.9 708.6 273.9C708.4 273.9 708.2 273.9 708.1 274.1C708 274.2 707.9 274.4 707.9 274.6C707.9 274.8 707.9 275 708.1 275.1L711.1 278.5Z" fill="white"/>
<path d="M717.9 274.5C718.1 274.5 718.3 274.4 718.4 274.3L720.2 272.3L720.1 278.2C720.1 278.6 720.4 278.9 720.8 278.9C721.2 278.9 721.5 278.6 721.5 278.2L721.6 272.4L723.5 274.8C723.7 275.1 724.1 275.1 724.4 274.9C724.7 274.7 724.7 274.3 724.5 274L721.5 270.1C721.5 270.1 721.5 270 721.4 270C721.4 270 721.4 270 721.3 270C721.2 270 721.2 269.9 721.1 269.9C721 269.9 721 269.9 720.9 269.9C720.8 269.9 720.8 269.9 720.7 269.9C720.6 269.9 720.6 269.9 720.5 270L720.4 270.1L717.4 273.5C717.2 273.8 717.2 274.2 717.5 274.4C717.6 274.4 717.8 274.5 717.9 274.5Z" fill="white"/>
<path d="M710.7 284.4C711.252 284.4 711.7 283.952 711.7 283.4C711.7 282.848 711.252 282.4 710.7 282.4C710.148 282.4 709.7 282.848 709.7 283.4C709.7 283.952 710.148 284.4 710.7 284.4Z" fill="white"/>
<path d="M721.4 284.5C721.952 284.5 722.4 284.052 722.4 283.5C722.4 282.948 721.952 282.5 721.4 282.5C720.848 282.5 720.4 282.948 720.4 283.5C720.4 284.052 720.848 284.5 721.4 284.5Z" fill="white"/>
<path d="M716.1 284.5C716.652 284.5 717.1 284.052 717.1 283.5C717.1 282.948 716.652 282.5 716.1 282.5C715.548 282.5 715.1 282.948 715.1 283.5C715.1 284.052 715.548 284.5 716.1 284.5Z" fill="white"/>
<path d="M709.3 289.8H709.4V293.6C709.4 293.9 709.7 294.2 710 294.2C710.2 294.2 710.4 294.1 710.5 294C710.6 293.9 710.7 293.7 710.7 293.5V289.8H710.9V293.6C710.9 293.9 711.2 294.2 711.5 294.2C711.7 294.2 711.9 294.1 712 294C712.1 293.9 712.2 293.7 712.2 293.5V289.8C712.6 289.8 712.9 289.5 712.9 289.1V286.3C712.9 285.3 712.1 284.5 711.1 284.5H710.4C709.4 284.5 708.6 285.3 708.6 286.3V289.1C708.6 289.5 708.9 289.8 709.3 289.8Z" fill="white"/>
<path d="M714.6 289.9H714.7V293.7C714.7 294 715 294.3 715.3 294.3C715.5 294.3 715.7 294.2 715.8 294.1C715.9 294 716 293.8 716 293.6V289.9H716.2V293.7C716.2 294 716.5 294.3 716.8 294.3C717 294.3 717.2 294.2 717.3 294.1C717.4 294 717.5 293.8 717.5 293.6V289.9C717.9 289.9 718.2 289.6 718.2 289.2V286.4C718.2 285.4 717.4 284.6 716.4 284.6H715.7C714.7 284.6 713.9 285.4 713.9 286.4V289.2C713.9 289.6 714.2 289.9 714.6 289.9Z" fill="white"/>
<path d="M719.9 290V293.9C719.9 294.2 720.2 294.5 720.5 294.5C720.7 294.5 720.9 294.4 721 294.3C721.1 294.2 721.2 294 721.2 293.8V290H721.4V293.9C721.4 294.2 721.7 294.5 722 294.5C722.2 294.5 722.4 294.4 722.5 294.3C722.6 294.2 722.7 294 722.7 293.8V290C723.1 290 723.4 289.7 723.4 289.3V286.5C723.4 285.5 722.6 284.7 721.6 284.7H720.9C719.9 284.7 719.1 285.5 719.1 286.5V289.3C719.2 289.6 719.5 289.9 719.9 290Z" fill="white"/>
<path d="M1024.4 820.4C1036.16 820.4 1045.7 810.864 1045.7 799.1C1045.7 787.336 1036.16 777.8 1024.4 777.8C1012.64 777.8 1003.1 787.336 1003.1 799.1C1003.1 810.864 1012.64 820.4 1024.4 820.4Z" fill="#1D3D90"/>
<path d="M1035 790.2H1028.7C1028.4 790.2 1028.1 790.5 1028.1 790.9V793.9H1023.7C1023.4 793.9 1023.1 794.2 1023.1 794.6V797.6H1018.7C1018.4 797.6 1018.1 797.9 1018.1 798.3V801.3H1013.7C1013.4 801.3 1013.1 801.6 1013.1 802V807.3C1013.1 807.7 1013.4 808 1013.7 808H1020.2C1020.3 808 1020.4 808 1020.5 807.9L1035.3 797.4C1035.5 797.3 1035.6 797.1 1035.6 796.8V791C1035.6 790.5 1035.4 790.2 1035 790.2ZM1034.4 791.6V796.3L1020 806.5H1014.3V802.6H1018.7C1019 802.6 1019.3 802.3 1019.3 801.9V798.9H1023.7C1024 798.9 1024.3 798.6 1024.3 798.2V795.2H1028.7C1029 795.2 1029.3 794.9 1029.3 794.5V791.5L1034.4 791.6Z" fill="white"/>
<path d="M1024.4 818C1024.4 818 1024.6 818.3 1024.9 818.7C1025.1 818.9 1025.2 819.2 1025.4 819.5C1025.5 819.7 1025.6 819.8 1025.7 820C1025.8 820.2 1025.7 820.4 1025.7 820.5C1025.7 822 1025.7 824.1 1025.7 826.1C1025.7 828.1 1025.7 830.2 1025.7 831.7C1025.7 831.8 1025.7 831.9 1025.7 832C1025.7 832.1 1025.7 832.2 1025.7 832.3C1025.6 832.5 1025.5 832.6 1025.4 832.8C1025.2 833.1 1025 833.4 1024.9 833.6C1024.6 834 1024.4 834.3 1024.4 834.3C1024.4 834.3 1024.2 834 1023.9 833.6C1023.8 833.4 1023.6 833.1 1023.4 832.8C1023.3 832.6 1023.2 832.5 1023.1 832.3C1023 832.2 1023 832.1 1023.1 832C1023.1 831.9 1023.1 831.8 1023.1 831.7C1023.1 830.2 1023.1 828.1 1023.1 826.1C1023.1 824.1 1023.1 822 1023.1 820.5C1023.1 820.3 1023 820.1 1023.1 820C1023.2 819.8 1023.3 819.7 1023.4 819.5C1023.6 819.2 1023.8 818.9 1023.9 818.7C1024.2 818.2 1024.4 818 1024.4 818Z" fill="#1D3D90"/>
<path d="M829.2 631.9C840.964 631.9 850.5 622.364 850.5 610.6C850.5 598.836 840.964 589.3 829.2 589.3C817.436 589.3 807.9 598.836 807.9 610.6C807.9 622.364 817.436 631.9 829.2 631.9Z" fill="#1D3D90"/>
<path d="M839.8 601.7H833.5C833.2 601.7 832.9 602 832.9 602.4V605.4H828.5C828.2 605.4 827.9 605.7 827.9 606.1V609.1H823.5C823.2 609.1 822.9 609.4 822.9 609.8V612.8H818.5C818.2 612.8 817.9 613.1 817.9 613.5V618.8C817.9 619.2 818.2 619.5 818.5 619.5H825C825.1 619.5 825.2 619.5 825.3 619.4L840.1 608.9C840.3 608.8 840.4 608.6 840.4 608.3V602.5C840.5 602 840.2 601.7 839.8 601.7ZM839.2 603.1V607.8L824.8 618H819.1V614.1H823.5C823.8 614.1 824.1 613.8 824.1 613.4V610.4H828.5C828.8 610.4 829.1 610.1 829.1 609.7V606.7H833.5C833.8 606.7 834.1 606.4 834.1 606V603L839.2 603.1Z" fill="white"/>
<path d="M829.2 629.5C829.2 629.5 829.4 629.8 829.7 630.2C829.9 630.4 830 630.7 830.2 631C830.3 631.2 830.4 631.3 830.5 631.5C830.6 631.7 830.5 631.9 830.5 632C830.5 633.5 830.5 635.6 830.5 637.6C830.5 639.6 830.5 641.7 830.5 643.2C830.5 643.3 830.5 643.4 830.5 643.5C830.5 643.6 830.5 643.7 830.5 643.8C830.4 644 830.3 644.1 830.2 644.3C830 644.6 829.8 644.9 829.7 645.1C829.4 645.5 829.2 645.8 829.2 645.8C829.2 645.8 829 645.5 828.7 645.1C828.6 644.9 828.4 644.6 828.2 644.3C828.1 644.1 828 644 827.9 643.8C827.8 643.7 827.8 643.6 827.9 643.5C827.9 643.4 827.9 643.3 827.9 643.2C827.9 641.7 827.9 639.6 827.9 637.6C827.9 635.6 827.9 633.5 827.9 632C827.9 631.8 827.8 631.6 827.9 631.5C828 631.3 828.1 631.2 828.2 631C828.4 630.7 828.6 630.4 828.7 630.2C829 629.8 829.2 629.5 829.2 629.5Z" fill="#1D3D90"/>
<path d="M1372.7 533C1384.46 533 1394 523.464 1394 511.7C1394 499.936 1384.46 490.4 1372.7 490.4C1360.94 490.4 1351.4 499.936 1351.4 511.7C1351.4 523.464 1360.94 533 1372.7 533Z" fill="#1D3D90"/>
<path d="M1383.3 502.8H1377C1376.7 502.8 1376.4 503.1 1376.4 503.5V506.5H1372C1371.7 506.5 1371.4 506.8 1371.4 507.2V510.2H1367C1366.7 510.2 1366.4 510.5 1366.4 510.9V513.9H1362C1361.7 513.9 1361.4 514.2 1361.4 514.6V519.9C1361.4 520.3 1361.7 520.6 1362 520.6H1368.5C1368.6 520.6 1368.7 520.6 1368.8 520.5L1383.6 510C1383.8 509.9 1383.9 509.7 1383.9 509.4V503.6C1384 503.1 1383.7 502.8 1383.3 502.8ZM1382.7 504.2V508.9L1368.3 519.1H1362.6V515.2H1367C1367.3 515.2 1367.6 514.9 1367.6 514.5V511.5H1372C1372.3 511.5 1372.6 511.2 1372.6 510.8V507.8H1377C1377.3 507.8 1377.6 507.5 1377.6 507.1V504.1L1382.7 504.2Z" fill="white"/>
<path d="M1372.7 530.6C1372.7 530.6 1372.9 530.9 1373.2 531.3C1373.4 531.5 1373.5 531.8 1373.7 532.1C1373.8 532.3 1373.9 532.4 1374 532.6C1374.1 532.8 1374 533 1374 533.1C1374 534.6 1374 536.7 1374 538.7C1374 540.7 1374 542.8 1374 544.3C1374 544.4 1374 544.5 1374 544.6C1374 544.7 1374 544.8 1374 544.9C1373.9 545.1 1373.8 545.2 1373.7 545.4C1373.5 545.7 1373.3 546 1373.2 546.2C1372.9 546.6 1372.7 546.9 1372.7 546.9C1372.7 546.9 1372.5 546.6 1372.2 546.2C1372.1 546 1371.9 545.7 1371.7 545.4C1371.6 545.2 1371.5 545.1 1371.4 544.9C1371.3 544.8 1371.3 544.7 1371.4 544.6C1371.4 544.5 1371.4 544.4 1371.4 544.3C1371.4 542.8 1371.4 540.7 1371.4 538.7C1371.4 536.7 1371.4 534.6 1371.4 533.1C1371.4 532.9 1371.3 532.7 1371.4 532.6C1371.5 532.4 1371.6 532.3 1371.7 532.1C1371.9 531.8 1372.1 531.5 1372.2 531.3C1372.5 530.9 1372.7 530.6 1372.7 530.6Z" fill="#1D3D90"/>
<path d="M1321.3 637C1333.06 637 1342.6 627.464 1342.6 615.7C1342.6 603.936 1333.06 594.4 1321.3 594.4C1309.54 594.4 1300 603.936 1300 615.7C1300 627.464 1309.54 637 1321.3 637Z" fill="#1D3D90"/>
<path d="M1321.3 634.6C1321.3 634.6 1321.5 634.9 1321.8 635.3C1322 635.5 1322.1 635.8 1322.3 636.1C1322.4 636.3 1322.5 636.4 1322.6 636.6C1322.7 636.8 1322.6 637 1322.6 637.1C1322.6 638.6 1322.6 640.7 1322.6 642.7C1322.6 644.7 1322.6 646.8 1322.6 648.3C1322.6 648.4 1322.6 648.5 1322.6 648.6C1322.6 648.7 1322.6 648.8 1322.6 648.9C1322.5 649.1 1322.4 649.2 1322.3 649.4C1322.1 649.7 1321.9 650 1321.8 650.2C1321.5 650.6 1321.3 650.9 1321.3 650.9C1321.3 650.9 1321.1 650.6 1320.8 650.2C1320.7 650 1320.5 649.7 1320.3 649.4C1320.2 649.2 1320.1 649.1 1320 648.9C1319.9 648.8 1319.9 648.7 1320 648.6C1320 648.5 1320 648.4 1320 648.3C1320 646.8 1320 644.7 1320 642.7C1320 640.7 1320 638.6 1320 637.1C1320 636.9 1319.9 636.7 1320 636.6C1320.1 636.4 1320.2 636.3 1320.3 636.1C1320.5 635.8 1320.7 635.5 1320.8 635.3C1321 634.8 1321.3 634.6 1321.3 634.6Z" fill="#1D3D90"/>
<path d="M1314.5 608.6C1315.49 608.6 1316.3 607.794 1316.3 606.8C1316.3 605.806 1315.49 605 1314.5 605C1313.51 605 1312.7 605.806 1312.7 606.8C1312.7 607.794 1313.51 608.6 1314.5 608.6Z" fill="white"/>
<path d="M1316.8 609.2H1312.1C1311.3 609.2 1310.6 609.9 1310.6 610.7V618.2C1310.6 618.5 1310.9 618.8 1311.2 618.8H1312.1V624.8C1312.1 625.3 1312.5 625.7 1313 625.7C1313 625.7 1313 625.7 1313.1 625.7C1313.4 625.7 1313.7 625.6 1313.8 625.4C1314 625.2 1314.1 624.9 1314.1 624.6V618.8H1315V624.8C1315 625.3 1315.4 625.7 1315.9 625.7C1315.9 625.7 1315.9 625.7 1316 625.7C1316.3 625.7 1316.6 625.6 1316.7 625.4C1316.9 625.2 1317 624.9 1317 624.6V618.8H1317.8C1318.1 618.8 1318.4 618.5 1318.4 618.2V610.7C1318.3 609.9 1317.7 609.2 1316.8 609.2Z" fill="white"/>
<path d="M1328 608.2C1328.99 608.2 1329.8 607.394 1329.8 606.4C1329.8 605.406 1328.99 604.6 1328 604.6C1327.01 604.6 1326.2 605.406 1326.2 606.4C1326.2 607.394 1327.01 608.2 1328 608.2Z" fill="white"/>
<path d="M1332.9 617.8L1331.1 609.8C1330.9 608.9 1330.3 608.8 1329.6 608.8H1326.2C1325.4 608.8 1324.7 609.5 1324.7 610.2L1323.3 617.8C1323.3 618.1 1323.6 618.4 1323.9 618.4H1325.6V624.4C1325.6 624.9 1326 625.3 1326.5 625.3C1326.5 625.3 1326.5 625.3 1326.6 625.3C1326.9 625.3 1327.2 625.2 1327.3 625C1327.5 624.8 1327.6 624.5 1327.6 624.2V618.4H1328.5V624.4C1328.5 624.9 1328.9 625.3 1329.4 625.3C1329.4 625.3 1329.4 625.3 1329.5 625.3C1329.8 625.3 1330.1 625.2 1330.2 625C1330.4 624.8 1330.5 624.5 1330.5 624.2V618.4H1332.4C1332.7 618.4 1332.9 618.2 1332.9 617.8Z" fill="white"/>
<path d="M1321.2 602.9C1320.9 602.9 1320.6 603.2 1320.6 603.5V626.9C1320.6 627.2 1320.9 627.5 1321.2 627.5C1321.5 627.5 1321.8 627.2 1321.8 626.9V603.5C1321.8 603.1 1321.6 602.9 1321.2 602.9Z" fill="white"/>
<path d="M1356.6 670.8C1368.36 670.8 1377.9 661.264 1377.9 649.5C1377.9 637.736 1368.36 628.2 1356.6 628.2C1344.84 628.2 1335.3 637.736 1335.3 649.5C1335.3 661.264 1344.84 670.8 1356.6 670.8Z" fill="#1D3D90"/>
<path d="M1356.6 668.4C1356.6 668.4 1356.8 668.7 1357.1 669.1C1357.3 669.3 1357.4 669.6 1357.6 669.9C1357.7 670.1 1357.8 670.2 1357.9 670.4C1358 670.6 1357.9 670.8 1357.9 670.9C1357.9 672.4 1357.9 674.5 1357.9 676.5C1357.9 678.5 1357.9 680.6 1357.9 682.1C1357.9 682.2 1357.9 682.3 1357.9 682.4C1357.9 682.5 1357.9 682.6 1357.9 682.7C1357.8 682.9 1357.7 683 1357.6 683.2C1357.4 683.5 1357.2 683.8 1357.1 684C1356.8 684.4 1356.6 684.7 1356.6 684.7C1356.6 684.7 1356.4 684.4 1356.1 684C1356 683.8 1355.8 683.5 1355.6 683.2C1355.5 683 1355.4 682.9 1355.3 682.7C1355.2 682.6 1355.2 682.5 1355.3 682.4C1355.3 682.3 1355.3 682.2 1355.3 682.1C1355.3 680.6 1355.3 678.5 1355.3 676.5C1355.3 674.5 1355.3 672.4 1355.3 670.9C1355.3 670.7 1355.2 670.5 1355.3 670.4C1355.4 670.2 1355.5 670.1 1355.6 669.9C1355.8 669.6 1356 669.3 1356.1 669.1C1356.4 668.7 1356.6 668.4 1356.6 668.4Z" fill="#1D3D90"/>
<path d="M1366 645.2L1347.5 645C1346.8 645 1346.2 645.6 1346.2 646.3L1346.1 660.3C1346.1 661 1346.7 661.6 1347.4 661.6L1365.9 661.8C1366.6 661.8 1367.2 661.2 1367.2 660.5L1367.3 646.5C1367.3 645.8 1366.7 645.2 1366 645.2ZM1347.4 646.3L1365.9 646.4L1365.8 660.4L1347.3 660.2L1347.4 646.3Z" fill="white"/>
<path d="M1351.7 643.7C1351.8 643.8 1351.8 643.8 1351.8 643.8C1351.8 643.8 1351.9 643.9 1352 643.9C1352.1 643.9 1352.1 643.9 1352.2 643.9C1352.3 643.9 1352.3 643.9 1352.4 643.9C1352.5 643.9 1352.5 643.8 1352.6 643.8C1352.6 643.8 1352.6 643.8 1352.7 643.7L1355.8 639.9C1355.9 639.8 1356 639.6 1355.9 639.4C1355.9 639.2 1355.8 639.1 1355.7 638.9C1355.4 638.7 1355 638.7 1354.8 639L1352.9 641.3L1353 635.5C1353 635.1 1352.7 634.8 1352.3 634.8C1351.9 634.8 1351.6 635.1 1351.6 635.5L1351.5 641.4L1349.7 639.3C1349.6 639.2 1349.4 639.1 1349.2 639.1C1349 639.1 1348.8 639.1 1348.7 639.3C1348.6 639.4 1348.5 639.6 1348.5 639.8C1348.5 640 1348.5 640.2 1348.7 640.3L1351.7 643.7Z" fill="white"/>
<path d="M1358.5 639.7C1358.7 639.7 1358.9 639.6 1359 639.5L1360.8 637.5L1360.7 643.4C1360.7 643.8 1361 644.1 1361.4 644.1C1361.8 644.1 1362.1 643.8 1362.1 643.4L1362.2 637.6L1364.1 640C1364.3 640.3 1364.7 640.3 1365 640.1C1365.3 639.9 1365.3 639.5 1365.1 639.2L1362.1 635.3C1362.1 635.3 1362.1 635.2 1362 635.2C1362 635.2 1362 635.2 1361.9 635.2C1361.8 635.2 1361.8 635.1 1361.7 635.1C1361.6 635.1 1361.6 635.1 1361.5 635.1C1361.4 635.1 1361.4 635.1 1361.3 635.1C1361.2 635.1 1361.2 635.1 1361.1 635.2L1361 635.3L1358 638.7C1357.8 639 1357.8 639.4 1358.1 639.6C1358.2 639.6 1358.3 639.7 1358.5 639.7Z" fill="white"/>
<path d="M1351.3 649.6C1351.85 649.6 1352.3 649.152 1352.3 648.6C1352.3 648.048 1351.85 647.6 1351.3 647.6C1350.75 647.6 1350.3 648.048 1350.3 648.6C1350.3 649.152 1350.75 649.6 1351.3 649.6Z" fill="white"/>
<path d="M1361.9 649.7C1362.45 649.7 1362.9 649.252 1362.9 648.7C1362.9 648.148 1362.45 647.7 1361.9 647.7C1361.35 647.7 1360.9 648.148 1360.9 648.7C1360.9 649.252 1361.35 649.7 1361.9 649.7Z" fill="white"/>
<path d="M1356.7 649.6C1357.25 649.6 1357.7 649.152 1357.7 648.6C1357.7 648.048 1357.25 647.6 1356.7 647.6C1356.15 647.6 1355.7 648.048 1355.7 648.6C1355.7 649.152 1356.15 649.6 1356.7 649.6Z" fill="white"/>
<path d="M1349.8 655H1349.9V658.8C1349.9 659.1 1350.2 659.4 1350.5 659.4C1350.7 659.4 1350.9 659.3 1351 659.2C1351.1 659.1 1351.2 658.9 1351.2 658.7V655H1351.4V658.8C1351.4 659.1 1351.7 659.4 1352 659.4C1352.2 659.4 1352.4 659.3 1352.5 659.2C1352.6 659.1 1352.7 658.9 1352.7 658.7V655C1353.1 655 1353.4 654.7 1353.4 654.3V651.5C1353.4 650.5 1352.6 649.7 1351.6 649.7H1350.9C1349.9 649.7 1349.1 650.5 1349.1 651.5V654.3C1349.1 654.7 1349.4 655 1349.8 655Z" fill="white"/>
<path d="M1355.2 655.1H1355.3V658.9C1355.3 659.2 1355.6 659.5 1355.9 659.5C1356.1 659.5 1356.3 659.4 1356.4 659.3C1356.5 659.2 1356.6 659 1356.6 658.8V655.1H1356.8V658.9C1356.8 659.2 1357.1 659.5 1357.4 659.5C1357.6 659.5 1357.8 659.4 1357.9 659.3C1358 659.2 1358.1 659 1358.1 658.8V655.1C1358.5 655.1 1358.8 654.8 1358.8 654.4V651.6C1358.8 650.6 1358 649.8 1357 649.8H1356.3C1355.3 649.8 1354.5 650.6 1354.5 651.6V654.4C1354.5 654.8 1354.8 655.1 1355.2 655.1Z" fill="white"/>
<path d="M1360.4 655.1V659C1360.4 659.3 1360.7 659.6 1361 659.6C1361.2 659.6 1361.4 659.5 1361.5 659.4C1361.6 659.3 1361.7 659.1 1361.7 658.9V655.1H1361.9V659C1361.9 659.3 1362.2 659.6 1362.5 659.6C1362.7 659.6 1362.9 659.5 1363 659.4C1363.1 659.3 1363.2 659.1 1363.2 658.9V655.1C1363.6 655.1 1363.9 654.8 1363.9 654.4V651.6C1363.9 650.6 1363.1 649.8 1362.1 649.8H1361.4C1360.4 649.8 1359.6 650.6 1359.6 651.6V654.4C1359.7 654.8 1360 655.1 1360.4 655.1Z" fill="white"/>
<path d="M796.2 248.8C807.964 248.8 817.5 239.264 817.5 227.5C817.5 215.736 807.964 206.2 796.2 206.2C784.436 206.2 774.9 215.736 774.9 227.5C774.9 239.264 784.436 248.8 796.2 248.8Z" fill="#1D3D90"/>
<path d="M796.2 246.5C796.2 246.5 796.4 246.8 796.7 247.2C796.9 247.4 797 247.7 797.2 248C797.3 248.2 797.4 248.3 797.5 248.5C797.6 248.7 797.5 248.9 797.5 249C797.5 250.5 797.5 252.6 797.5 254.6C797.5 256.6 797.5 258.7 797.5 260.2C797.5 260.3 797.5 260.4 797.5 260.5C797.5 260.6 797.5 260.7 797.5 260.8C797.4 261 797.3 261.1 797.2 261.3C797 261.6 796.8 261.9 796.7 262.1C796.4 262.5 796.2 262.8 796.2 262.8C796.2 262.8 796 262.5 795.7 262.1C795.6 261.9 795.4 261.6 795.2 261.3C795.1 261.1 795 261 794.9 260.8C794.8 260.7 794.8 260.6 794.9 260.5C794.9 260.4 794.9 260.3 794.9 260.2C794.9 258.7 794.9 256.6 794.9 254.6C794.9 252.6 794.9 250.5 794.9 249C794.9 248.8 794.8 248.6 794.9 248.5C795 248.3 795.1 248.2 795.2 248C795.4 247.7 795.6 247.4 795.7 247.2C796 246.7 796.2 246.5 796.2 246.5Z" fill="#1D3D90"/>
<path d="M796.8 217.6C797.6 218.2 798.2 218.7 798.2 220C798.2 220.9 797.3 221.7 796.9 221.9C796.6 222 796.5 222.3 796.6 222.5C796.7 222.7 796.9 222.8 797.1 222.8C797.2 222.8 797.2 222.8 797.3 222.8C798.1 222.5 799.2 221.3 799.2 220C799.2 218.3 798.2 217.5 797.4 216.8C796.7 216.3 796.2 215.8 796.2 214.8C796.2 213.4 797.5 212.7 797.9 212.7C798.2 212.7 798.4 212.5 798.4 212.2C798.4 211.9 798.2 211.7 797.9 211.7C797.1 211.7 795.3 212.8 795.3 214.8C795.2 216.4 796.1 217 796.8 217.6Z" fill="white"/>
<path d="M792.7 218.2C793.3 218.7 793.8 219.1 793.8 220.1C793.8 220.8 793.1 221.5 792.8 221.6C792.5 221.7 792.4 222 792.5 222.2C792.6 222.4 792.8 222.5 793 222.5C793.1 222.5 793.1 222.5 793.2 222.5C793.9 222.2 794.9 221.2 794.9 220.1C794.9 218.6 794.1 217.9 793.4 217.4C792.8 216.9 792.4 216.6 792.4 215.8C792.4 214.7 793.5 214.1 793.7 214.1C794 214.1 794.2 213.9 794.2 213.6C794.2 213.3 794 213.1 793.7 213.1C792.9 213.1 791.4 214.1 791.4 215.8C791.4 217.1 792.1 217.7 792.7 218.2Z" fill="white"/>
<path d="M805.5 224.9H802.8H788.6C788.3 224.9 788 225.2 788 225.5V234.5C788 234.8 788.3 235.1 788.6 235.1H803.7C804 235.1 804.3 234.8 804.3 234.5V232.1C804.7 232.2 805.1 232.3 805.5 232.3C807.7 232.3 809.5 230.6 809.5 228.6C809.5 226.5 807.7 224.9 805.5 224.9ZM805.5 231.6C805.1 231.6 804.7 231.5 804.3 231.4V225.5H805.5C807.4 225.5 808.9 226.9 808.9 228.6C808.9 230.3 807.4 231.6 805.5 231.6Z" fill="white"/>
<path d="M806.7 236.7H786.1C785.7 236.7 785.4 237 785.4 237.4C785.4 237.8 785.7 238.1 786.1 238.1H806.7C807.1 238.1 807.4 237.8 807.4 237.4C807.4 237 807.1 236.7 806.7 236.7Z" fill="white"/>
<path d="M1075.5 724.4C1087.26 724.4 1096.8 714.864 1096.8 703.1C1096.8 691.336 1087.26 681.8 1075.5 681.8C1063.74 681.8 1054.2 691.336 1054.2 703.1C1054.2 714.864 1063.74 724.4 1075.5 724.4Z" fill="#1D3D90"/>
<path d="M1075.5 722C1075.5 722 1075.7 722.3 1076 722.7C1076.2 722.9 1076.3 723.2 1076.5 723.5C1076.6 723.7 1076.7 723.8 1076.8 724C1076.9 724.2 1076.8 724.4 1076.8 724.5C1076.8 726 1076.8 728.1 1076.8 730.1C1076.8 732.1 1076.8 734.2 1076.8 735.7C1076.8 735.8 1076.8 735.9 1076.8 736C1076.8 736.1 1076.8 736.2 1076.8 736.3C1076.7 736.5 1076.6 736.6 1076.5 736.8C1076.3 737.1 1076.1 737.4 1076 737.6C1075.7 738 1075.5 738.3 1075.5 738.3C1075.5 738.3 1075.3 738 1075 737.6C1074.9 737.4 1074.7 737.1 1074.5 736.8C1074.4 736.6 1074.3 736.5 1074.2 736.3C1074.1 736.2 1074.1 736.1 1074.2 736C1074.2 735.9 1074.2 735.8 1074.2 735.7C1074.2 734.2 1074.2 732.1 1074.2 730.1C1074.2 728.1 1074.2 726 1074.2 724.5C1074.2 724.3 1074.1 724.1 1074.2 724C1074.3 723.8 1074.4 723.7 1074.5 723.5C1074.7 723.2 1074.9 722.9 1075 722.7C1075.2 722.3 1075.5 722 1075.5 722Z" fill="#1D3D90"/>
<path d="M1089.5 697.5C1088.9 696.9 1088.2 696.5 1087.8 696.4C1087.6 696.4 1087.5 696.3 1087.3 696.3H1081.6C1081.3 696.3 1080.9 696.4 1080.7 696.6L1075.3 700.6V700V699.9C1075.3 699.7 1075.2 699.6 1075.1 699.4C1074.8 698.7 1074.2 698.2 1073.6 698.1C1072.6 697.8 1071.8 698.5 1071.7 698.6C1071 699.2 1070.9 700 1070.9 700.3V704L1069.5 705.1C1069.4 705.1 1069.4 705.2 1069.3 705.2H1065.5C1065.3 705.2 1065.2 705.2 1065 705.3C1064.5 705.5 1063.3 706 1062.6 707.3C1061.9 708.8 1062.5 710.1 1062.6 710.5C1063.2 711.7 1064.2 712.2 1064.7 712.4C1064.9 712.5 1065.1 712.5 1065.3 712.5H1071.7C1072 712.5 1072.4 712.4 1072.6 712.2L1083.8 703.9C1083.9 703.9 1083.9 703.8 1084 703.8H1087.6C1087.7 703.8 1087.8 703.8 1087.9 703.8C1088.2 703.7 1088.5 703.6 1088.8 703.5C1090 702.8 1090.4 701.5 1090.5 701C1090.8 699 1089.7 697.6 1089.5 697.5ZM1089.3 700.6C1089.2 701 1089 701.8 1088.2 702.3C1088 702.4 1087.8 702.5 1087.6 702.5C1087.6 702.5 1087.6 702.5 1087.5 702.5H1083.9C1083.6 702.5 1083.2 702.6 1083 702.8L1071.8 711.1C1071.7 711.1 1071.7 711.2 1071.6 711.2H1065.2H1065.1C1064.7 711.1 1064 710.7 1063.7 709.9C1063.6 709.7 1063.2 708.7 1063.7 707.7C1064.1 706.8 1065 706.4 1065.3 706.3H1065.4H1069.2C1069.5 706.3 1069.9 706.2 1070.1 706L1081.3 697.6C1081.4 697.6 1081.4 697.5 1081.5 697.5H1087.2H1087.3C1087.6 697.6 1088.1 697.8 1088.5 698.3C1088.7 698.3 1089.5 699.3 1089.3 700.6Z" fill="white"/>
<path d="M1073.1 698C1074.26 698 1075.2 697.06 1075.2 695.9C1075.2 694.74 1074.26 693.8 1073.1 693.8C1071.94 693.8 1071 694.74 1071 695.9C1071 697.06 1071.94 698 1073.1 698Z" fill="white"/>
<path d="M776.5 566.8L978.3 634.6" stroke="#0086CD" stroke-width="1.6068" stroke-miterlimit="10" stroke-linecap="round" stroke-linejoin="round"/>
<path d="M908.5 353.2L903.7 335.6L877.4 342L908.5 353.2Z" fill="#F8493B"/>
<path d="M852.3 199.5V120.7H549.6" stroke="#1D3D90" stroke-width="1.4173" stroke-linecap="round" stroke-linejoin="round"/>
<path d="M852.3 204.8C855.227 204.8 857.6 202.427 857.6 199.5C857.6 196.573 855.227 194.2 852.3 194.2C849.373 194.2 847 196.573 847 199.5C847 202.427 849.373 204.8 852.3 204.8Z" fill="#1D3D90"/>
<path d="M577.4 96.3H325.7V148.3H577.4V96.3Z" fill="#66B9FF"/>
<path d="M348.4 130.2V112.2H353.3V126.2L352 125.2L362.2 112.2H367.5L352.9 130.2H348.4ZM357 121.6L360.6 118.6L367.7 130.2H362.1L357 121.6Z" fill="white"/>
<path d="M381.4 123.4C381.2 124.8 380.7 126.1 380.1 127.2C379.5 128.3 378.6 129.1 377.6 129.7C376.6 130.3 375.4 130.6 374.1 130.6C372.8 130.6 371.6 130.3 370.6 129.7C369.6 129.1 368.8 128.3 368.2 127.2C367.6 126.1 367.3 124.8 367.3 123.4C367.3 121.9 367.6 120.7 368.2 119.6C368.8 118.5 369.6 117.7 370.6 117.1C371.6 116.5 372.8 116.2 374.1 116.2C375.4 116.2 376.6 116.5 377.6 117.1C378.6 117.7 379.5 118.5 380.1 119.6C380.7 120.7 381.2 121.9 381.4 123.4ZM372.3 123.4C372.3 124.1 372.4 124.7 372.7 125.2C373 125.7 373.4 126.1 373.9 126.4C374.4 126.7 375 126.8 375.6 126.8C376.3 126.8 376.9 126.7 377.5 126.4C378.1 126.1 378.6 125.7 379.1 125.2C379.6 124.7 379.9 124.1 380.1 123.4C379.9 122.7 379.5 122.1 379.1 121.6C378.7 121.1 378.1 120.7 377.5 120.4C376.9 120.1 376.3 119.9 375.6 119.9C375 119.9 374.4 120.1 373.9 120.4C373.4 120.7 373 121.1 372.7 121.6C372.4 122.1 372.3 122.7 372.3 123.4ZM380.3 130.2L379.7 125.3L380.3 123.4L379.7 121.5L380.3 116.5H385.4L384.5 123.3L385.4 130.2H380.3Z" fill="white"/>
<path d="M400.8 123.4C400.6 124.8 400.2 126.1 399.5 127.2C398.8 128.3 398 129.1 397.1 129.7C396.1 130.3 395 130.6 393.7 130.6C392.4 130.6 391.2 130.3 390.2 129.7C389.2 129.1 388.4 128.3 387.9 127.2C387.4 126.1 387.1 124.8 387.1 123.4C387.1 121.9 387.4 120.7 387.9 119.6C388.5 118.5 389.2 117.7 390.2 117.1C391.2 116.5 392.4 116.2 393.7 116.2C395 116.2 396.1 116.5 397.1 117.1C398.1 117.7 398.9 118.5 399.5 119.6C400.1 120.7 400.6 121.9 400.8 123.4ZM392 123.4C392 124.1 392.1 124.7 392.4 125.2C392.7 125.7 393 126.1 393.5 126.4C394 126.7 394.5 126.9 395.2 126.9C396.2 126.9 397 126.6 397.8 125.9C398.6 125.2 399.1 124.4 399.5 123.4C399.2 122.4 398.6 121.5 397.8 120.9C397 120.2 396.1 119.9 395.2 119.9C394.6 119.9 394 120.1 393.5 120.4C393 120.7 392.7 121.1 392.4 121.6C392.2 122.1 392 122.7 392 123.4ZM399.3 134.2V126.9L399.6 126.1V120.5L399.3 119.7V111.7H404.1V119.7L403.7 120.4V126L404.1 126.8V134.1H399.3V134.2ZM402.6 123.4C402.8 121.9 403.2 120.6 403.9 119.5C404.6 118.4 405.3 117.6 406.3 117C407.3 116.4 408.4 116.1 409.7 116.1C411 116.1 412.2 116.4 413.2 117C414.2 117.6 415 118.5 415.5 119.5C416 120.6 416.3 121.9 416.3 123.3C416.3 124.7 416 126 415.5 127.1C415 128.2 414.2 129 413.2 129.6C412.2 130.2 411 130.5 409.7 130.5C408.4 130.5 407.3 130.2 406.3 129.6C405.3 129 404.5 128.2 403.9 127.1C403.3 126 402.8 124.8 402.6 123.4ZM411.3 123.4C411.3 122.7 411.2 122.1 410.9 121.6C410.6 121.1 410.3 120.7 409.8 120.4C409.3 120.1 408.8 119.9 408.2 119.9C407.2 119.9 406.3 120.2 405.6 120.9C404.8 121.6 404.3 122.4 403.9 123.4C404.3 124.4 404.8 125.2 405.6 125.9C406.4 126.6 407.3 126.9 408.2 126.9C408.8 126.9 409.4 126.7 409.8 126.4C410.2 126.1 410.6 125.7 410.9 125.2C411.2 124.7 411.3 124.1 411.3 123.4Z" fill="white"/>
<path d="M426.5 130.6C424.8 130.6 423.4 130.3 422 129.7C420.7 129.1 419.7 128.2 418.9 127.1C418.1 126 417.8 124.7 417.8 123.3C417.8 121.9 418.2 120.6 418.9 119.5C419.6 118.4 420.6 117.6 421.9 117C423.2 116.4 424.6 116.1 426.2 116.1C427.8 116.1 429.3 116.5 430.4 117.2C431.5 117.9 432.5 118.9 433.1 120.2C433.7 121.5 434 123 434 124.8H421.8V121.8H431.2L429.6 122.8C429.5 122.1 429.4 121.5 429.1 121C428.8 120.5 428.4 120.1 428 119.9C427.5 119.6 427 119.5 426.3 119.5C425.6 119.5 425 119.6 424.5 119.9C424 120.2 423.6 120.6 423.3 121.1C423 121.6 422.9 122.2 422.9 122.9C422.9 123.8 423.1 124.5 423.5 125.1C423.9 125.7 424.5 126.2 425.2 126.5C426 126.8 426.9 127 428 127C429 127 430 126.9 431 126.6C432 126.3 432.9 126 433.7 125.5V128.6C432.8 129.2 431.7 129.7 430.5 130.1C429.2 130.4 427.9 130.6 426.5 130.6Z" fill="white"/>
<path d="M445.1 117H450.1L446.1 123.3V122.2L450.1 128.5H445.1L441.6 122.8L445.1 117ZM452.3 117H457.3L453.3 123.3V122.2L457.3 128.5H452.3L448.8 122.8L452.3 117Z" fill="white"/>
<path d="M472.5 112.2L480.7 130.2H475.4L468.5 114.3H469.9L463 130.2H457.7L465.9 112.2H472.5ZM463 126.8V122.8H475.4V126.8H463Z" fill="white"/>
<path d="M491.3 123.8L486.9 130.2H481.4L486.1 123.8H491.3ZM493.7 122.7V125.7H487.1V125.6C486 125.6 485.1 125.4 484.3 125C483.5 124.6 482.8 124.1 482.4 123.4C481.9 122.7 481.7 121.9 481.7 121C481.7 120.1 481.9 119.3 482.4 118.6C482.9 117.9 483.5 117.4 484.3 117C485.1 116.6 486.1 116.4 487.1 116.4H497.3V130.1H492.4V117.6L493.7 119.6H488.3C487.8 119.6 487.3 119.7 487 120C486.7 120.3 486.5 120.6 486.5 121.1C486.5 121.6 486.7 122 487 122.2C487.3 122.5 487.7 122.6 488.3 122.6H493.7V122.7Z" fill="white"/>
<path d="M500 130.2V116.5H504.9V126.4L503.5 125.9L511.1 116.5H516.3L504.4 130.2H500ZM511.1 130.2L507.2 123.5L510.9 120.9L516.6 130.2H511.1Z" fill="white"/>
<path d="M533.3 124.4C533.2 125.6 532.7 126.7 532 127.6C531.3 128.5 530.2 129.2 529 129.8C527.8 130.3 526.4 130.6 524.9 130.6C523.2 130.6 521.7 130.3 520.5 129.7C519.2 129.1 518.2 128.2 517.5 127.2C516.8 126.1 516.4 124.9 516.4 123.4C516.4 122 516.8 120.7 517.5 119.6C518.2 118.5 519.2 117.7 520.5 117C521.8 116.4 523.3 116.1 524.9 116.1C526.4 116.1 527.8 116.4 529 116.9C530.2 117.4 531.2 118.1 532 119.1C532.8 120.1 533.2 121.1 533.3 122.4H528.4C528.2 121.6 527.8 121 527.2 120.5C526.6 120.1 525.8 119.8 524.8 119.8C524.1 119.8 523.5 119.9 522.9 120.2C522.3 120.5 521.9 120.9 521.7 121.4C521.4 121.9 521.3 122.6 521.3 123.4C521.3 124.2 521.4 124.8 521.7 125.4C522 126 522.4 126.3 522.9 126.6C523.4 126.9 524.1 127 524.8 127C525.7 127 526.5 126.8 527.2 126.3C527.8 125.8 528.3 125.2 528.4 124.5H533.3V124.4Z" fill="white"/>
<path d="M539.5 117L543.1 122.8L539.5 128.5H534.5L538.5 122.2V123.3L534.5 117H539.5ZM546.6 117L550.1 122.8L546.6 128.5H541.6L545.6 122.2V123.3L541.6 117H546.6Z" fill="white"/>
<path d="M342.5 90.2C336.6 90.2 331.8 85.4 331.8 79.5V78.9H319.7V79.5C319.7 85.4 314.9 90.2 309 90.2H308.4V102.3H309C314.9 102.3 319.7 107.1 319.7 113V113.6H331.8V113C331.8 107.1 336.6 102.3 342.5 102.3H343.1V90.2H342.5Z" fill="#1D3D90"/>
<path d="M342.5 96.3C333.2 96.3 325.7 103.8 325.7 113.1C325.7 103.8 318.2 96.3 308.9 96.3C318.2 96.3 325.7 88.8 325.7 79.5C325.7 88.8 333.2 96.3 342.5 96.3Z" fill="white"/>
</svg>
