<svg width="1920" height="1080" viewBox="0 0 1920 1080" fill="none" xmlns="http://www.w3.org/2000/svg">
<path d="M1333.4 602.5L1480.1 554.6L1581.4 521L1630.5 570.1L1587 584.5L1738.1 673.6L747.5 1003L670.6 926.1L574.6 980.8L438.9 903.5L346.5 856.7L203.6 785.3L302.7 715.5L180.7 657.3L363.8 474.8L518.9 320L761.4 77.5L1029.5 166.7L994.5 200.3L1107.9 239.2L1071.4 275.7L1050.9 267.5L942.4 376.2L959.4 386.7L1057.5 443.3L1226.9 527.5L1252.7 555.9L1333.4 602.5Z" fill="#ADCFFF"/>
<path d="M1334.1 573.1L1480.9 525.1L1582.2 491.5L1631.2 540.7L1587.7 555L1738.9 644.1L748.2 973.6L671.4 896.6L575.4 951.3L439.7 874.1L347.3 827.2L204.3 755.8L303.4 686L181.5 627.8L364.6 445.4L519.7 290.5L762.1 48L1030.3 137.3L995.3 170.8L1108.6 209.7L1049.7 268.6L960.2 357.2L1058.2 413.8L1283.8 498.7L1253.5 526.4L1334.1 573.1Z" fill="white"/>
<path d="M984 623.7L1051.5 677.5L1303.8 569.4L1231.7 527.8L1258.7 502.7L1056.1 426.5L933.7 355.1L799.9 489.1L743.7 543.2L984 623.7Z" fill="#F8493B"/>
<path d="M1482.4 729.9L1429.5 677" stroke="#0086CD" stroke-width="4.8204" stroke-miterlimit="10" stroke-linecap="round" stroke-linejoin="round"/>
<path d="M470.2 465L399.1 536.3L396.4 538.8" stroke="#0086CD" stroke-width="4.8204" stroke-miterlimit="10" stroke-linecap="round" stroke-linejoin="round"/>
<path d="M579.4 500L522.7 556.8L504.6 574.9" stroke="#0086CD" stroke-width="4.8204" stroke-miterlimit="10" stroke-linecap="round" stroke-linejoin="round"/>
<path d="M1049.9 268.6L1031.2 287.3L1027.7 290.6" stroke="#0086CD" stroke-width="2.1602" stroke-miterlimit="10" stroke-linecap="round" stroke-linejoin="round"/>
<path d="M1167.6 764.3L1207.3 751.1L1240 740.3L1309 717.1" stroke="#0086CD" stroke-width="1.6068" stroke-miterlimit="10" stroke-linecap="round" stroke-linejoin="round"/>
<path d="M1481.4 525.2C1374.8 421.2 1226.9 333.2 1049.9 268.6" stroke="#0086CD" stroke-width="4.8204" stroke-miterlimit="10" stroke-linecap="round" stroke-linejoin="round"/>
<path d="M1443.1 538C1340.4 437.8 1198 353.1 1027.8 290.8" stroke="#0086CD" stroke-width="1.6068" stroke-miterlimit="10" stroke-linecap="round" stroke-linejoin="round"/>
<path d="M584.8 578L522.3 557.1" stroke="#0086CD" stroke-width="4.8204" stroke-miterlimit="10" stroke-linecap="round" stroke-linejoin="round"/>
<path d="M414.8 446.5L341 520.4" stroke="#0086CD" stroke-width="4.8204" stroke-miterlimit="10" stroke-linecap="round" stroke-linejoin="round"/>
<path d="M378.4 434.3L470.2 465" stroke="#0086CD" stroke-width="4.8204" stroke-miterlimit="10" stroke-linecap="round" stroke-linejoin="round"/>
<path d="M579.4 500L470.2 465" stroke="#0086CD" stroke-width="1.6068" stroke-miterlimit="10" stroke-linecap="round" stroke-linejoin="round"/>
<path d="M1100.8 829.5L1046 847.8L980.6 869.6" stroke="#0086CD" stroke-width="4.8204" stroke-miterlimit="10" stroke-linecap="round" stroke-linejoin="round"/>
<path d="M1105.1 701.4L1167.6 764.3L1220.4 817.3" stroke="#0086CD" stroke-width="4.8204" stroke-miterlimit="10" stroke-linecap="round" stroke-linejoin="round"/>
<path d="M1131.1 772.2L1053.5 694.4L1020.9 705.3L1098.5 783L1131.1 772.2Z" stroke="#0086CD" stroke-width="1.6068" stroke-miterlimit="10" stroke-linecap="round" stroke-linejoin="round"/>
<path d="M1207.3 751.1L1229.2 773L1260.2 804" stroke="#0086CD" stroke-width="1.6068" stroke-miterlimit="10" stroke-linecap="round" stroke-linejoin="round"/>
<path d="M827.4 430.4L740.1 401.3L639.2 367.6L537.3 333.7" stroke="#0086CD" stroke-width="4.8204" stroke-miterlimit="10" stroke-linecap="round" stroke-linejoin="round"/>
<path d="M557.2 620.5L471.7 592" stroke="#0086CD" stroke-width="4.8204" stroke-miterlimit="10" stroke-linecap="round" stroke-linejoin="round"/>
<path d="M446.1 583.5L429.2 578L413.4 572.6" stroke="#0086CD" stroke-width="4.8204" stroke-miterlimit="10" stroke-linecap="round" stroke-linejoin="round"/>
<path d="M387.8 564.1L281.3 528.7H281.2" stroke="#0086CD" stroke-width="4.8204" stroke-miterlimit="10" stroke-linecap="round" stroke-linejoin="round"/>
<path d="M557.2 620.5L548.1 629.6L509.4 668.4L381.3 625.8L233.5 576.6" stroke="#0086CD" stroke-width="4.8204" stroke-miterlimit="10" stroke-linecap="round" stroke-linejoin="round"/>
<path d="M429.2 578L381.3 625.8" stroke="#0086CD" stroke-width="4.8204" stroke-miterlimit="10" stroke-linecap="round" stroke-linejoin="round"/>
<path d="M396.4 538.8L504.6 574.9L567.1 595.7L584.8 578" stroke="#0086CD" stroke-width="4.8204" stroke-miterlimit="10" stroke-linecap="round" stroke-linejoin="round"/>
<path d="M1068.1 796.8L947.8 836.9" stroke="#0086CD" stroke-width="4.8204" stroke-miterlimit="10" stroke-linecap="round" stroke-linejoin="round"/>
<path d="M1240.9 739.8L1262.8 761.7L1229.2 773" stroke="#0086CD" stroke-width="1.6068" stroke-miterlimit="10" stroke-linecap="round" stroke-linejoin="round"/>
<path d="M1281.4 686.9L1251.7 697.4" stroke="#0086CD" stroke-width="2.1602" stroke-miterlimit="10" stroke-linecap="round" stroke-linejoin="round"/>
<path d="M537.3 333.7L511.4 359.6L481.6 389.2" stroke="#0086CD" stroke-width="4.7389" stroke-miterlimit="10" stroke-linecap="round" stroke-linejoin="round"/>
<path d="M827.4 430.4L773.3 484.6" stroke="#0086CD" stroke-width="4.7389" stroke-miterlimit="10" stroke-linecap="round" stroke-linejoin="round"/>
<path d="M923.4 243.7L918.4 248.7L959.3 262.4L988.3 272" stroke="#0086CD" stroke-width="1.6068" stroke-miterlimit="10" stroke-linecap="round" stroke-linejoin="round"/>
<path d="M1251.7 697.4L1217.3 663.3" stroke="#0086CD" stroke-width="4.8204" stroke-miterlimit="10" stroke-linecap="round" stroke-linejoin="round"/>
<path d="M1046 847.8L1066.7 868.5" stroke="#0086CD" stroke-width="4.7389" stroke-miterlimit="10" stroke-linecap="round" stroke-linejoin="round"/>
<path d="M1467.4 511.9L1429.8 525.3" stroke="#0086CD" stroke-width="1.6068" stroke-miterlimit="10" stroke-linecap="round" stroke-linejoin="round"/>
<path d="M1452.9 498.6L1415.8 512.5" stroke="#0086CD" stroke-width="1.6068" stroke-miterlimit="10" stroke-linecap="round" stroke-linejoin="round"/>
<path d="M1438 485.5L1401.2 500" stroke="#0086CD" stroke-width="1.6068" stroke-miterlimit="10" stroke-linecap="round" stroke-linejoin="round"/>
<path d="M1422.5 472.7L1386.3 487.5" stroke="#0086CD" stroke-width="1.6068" stroke-miterlimit="10" stroke-linecap="round" stroke-linejoin="round"/>
<path d="M1406.6 460.1L1371 475.2" stroke="#0086CD" stroke-width="1.6068" stroke-miterlimit="10" stroke-linecap="round" stroke-linejoin="round"/>
<path d="M1390.3 447.6L1355.1 463.2" stroke="#0086CD" stroke-width="1.6068" stroke-miterlimit="10" stroke-linecap="round" stroke-linejoin="round"/>
<path d="M1373.5 435.2L1338.9 451.3" stroke="#0086CD" stroke-width="1.6068" stroke-miterlimit="10" stroke-linecap="round" stroke-linejoin="round"/>
<path d="M1356.2 423.2L1322.2 439.5" stroke="#0086CD" stroke-width="1.6068" stroke-miterlimit="10" stroke-linecap="round" stroke-linejoin="round"/>
<path d="M1338.6 411.3L1305.3 428.1" stroke="#0086CD" stroke-width="1.6068" stroke-miterlimit="10" stroke-linecap="round" stroke-linejoin="round"/>
<path d="M1320.5 399.6L1287.8 416.9" stroke="#0086CD" stroke-width="1.6068" stroke-miterlimit="10" stroke-linecap="round" stroke-linejoin="round"/>
<path d="M1302 388.2L1269.9 405.8" stroke="#0086CD" stroke-width="1.6068" stroke-miterlimit="10" stroke-linecap="round" stroke-linejoin="round"/>
<path d="M1283.2 376.9L1251.7 395" stroke="#0086CD" stroke-width="1.6068" stroke-miterlimit="10" stroke-linecap="round" stroke-linejoin="round"/>
<path d="M1263.9 365.9L1233.1 384.3" stroke="#0086CD" stroke-width="1.6068" stroke-miterlimit="10" stroke-linecap="round" stroke-linejoin="round"/>
<path d="M1244.3 355.1L1214.1 373.8" stroke="#0086CD" stroke-width="1.6068" stroke-miterlimit="10" stroke-linecap="round" stroke-linejoin="round"/>
<path d="M1224.3 344.5L1194.8 363.6" stroke="#0086CD" stroke-width="1.6068" stroke-miterlimit="10" stroke-linecap="round" stroke-linejoin="round"/>
<path d="M1203.9 334.2L1175 353.6" stroke="#0086CD" stroke-width="1.6068" stroke-miterlimit="10" stroke-linecap="round" stroke-linejoin="round"/>
<path d="M1183.1 324.1L1155 343.9" stroke="#0086CD" stroke-width="1.6068" stroke-miterlimit="10" stroke-linecap="round" stroke-linejoin="round"/>
<path d="M1162.1 314.4L1134.6 334.5" stroke="#0086CD" stroke-width="1.6068" stroke-miterlimit="10" stroke-linecap="round" stroke-linejoin="round"/>
<path d="M1140.5 304.8L1113.8 325.2" stroke="#0086CD" stroke-width="1.6068" stroke-miterlimit="10" stroke-linecap="round" stroke-linejoin="round"/>
<path d="M1118.7 295.4L1092.8 316.3" stroke="#0086CD" stroke-width="1.6068" stroke-miterlimit="10" stroke-linecap="round" stroke-linejoin="round"/>
<path d="M1096.7 286.3L1071.4 307.5" stroke="#0086CD" stroke-width="1.6068" stroke-miterlimit="10" stroke-linecap="round" stroke-linejoin="round"/>
<path d="M1074.1 277.7L1049.7 299" stroke="#0086CD" stroke-width="1.6068" stroke-miterlimit="10" stroke-linecap="round" stroke-linejoin="round"/>
<path d="M1451.9 534.9L1458.6 515L1424.4 509.3L1429.3 488.9L1394.8 484.1L1398.3 463.6L1363.3 459.6L1365.4 438.9L1330.3 435.8L1330.9 415.2L1295.4 412.9L1294.6 392.2L1259.1 390.6L1256.8 370.1L1221.2 369.5L1217.3 349L1181.7 349.1L1176.6 328.8L1140.9 329.7L1134.3 309.5L1098.8 311.3L1090.8 291.3L1055.5 294L1044.8 273.7" stroke="#0086CD" stroke-width="1.6068" stroke-miterlimit="10" stroke-linecap="round" stroke-linejoin="round"/>
<path d="M1049.9 268.6L1027.2 291.3" stroke="#0086CD" stroke-width="4.7389" stroke-miterlimit="10" stroke-linecap="round" stroke-linejoin="round"/>
<path d="M985.7 272L1014.7 281.7L1031.2 287.3" stroke="#0086CD" stroke-width="4.7389" stroke-miterlimit="10" stroke-linecap="round" stroke-linejoin="round"/>
<path d="M1470.1 528.9L1334.6 574.1L1253.9 527.6L1255.3 526.3" stroke="#0086CD" stroke-width="1.524" stroke-miterlimit="10" stroke-linecap="round" stroke-linejoin="round"/>
<path d="M1274.3 508.8L1284.3 499.7L1058.7 414.9L960.4 358.1L1027.7 290.6" stroke="#0086CD" stroke-width="1.6068" stroke-miterlimit="10" stroke-linecap="round" stroke-linejoin="round"/>
<path d="M1316.8 466.1L1420.4 545.4" stroke="#0086CD" stroke-width="1.6068" stroke-miterlimit="10" stroke-linecap="round" stroke-linejoin="round"/>
<path d="M1255.3 526.3L1360 565.6" stroke="#0086CD" stroke-width="1.6068" stroke-miterlimit="10" stroke-linecap="round" stroke-linejoin="round"/>
<path d="M1288.5 478.4L1360.8 534L1356.3 539.7L1274.3 508.8" stroke="#0086CD" stroke-width="1.6068" stroke-miterlimit="10" stroke-linecap="round" stroke-linejoin="round"/>
<path d="M649.6 664.1L708.1 619" stroke="#0086CD" stroke-width="4.8204" stroke-miterlimit="10" stroke-linecap="round" stroke-linejoin="round"/>
<path d="M548.1 629.6L650.1 663.6" stroke="#0086CD" stroke-width="1.6068" stroke-miterlimit="10" stroke-linecap="round" stroke-linejoin="round"/>
<path d="M864.6 700.6L819.2 726.9" stroke="#0086CD" stroke-width="4.8204" stroke-miterlimit="10" stroke-linecap="round" stroke-linejoin="round"/>
<path d="M708.1 619L776.5 566.8" stroke="#0086CD" stroke-width="4.8204" stroke-miterlimit="10" stroke-linecap="round" stroke-linejoin="round"/>
<path d="M708.1 619L864.6 700.6L978.3 634.6" stroke="#0086CD" stroke-width="4.8204" stroke-miterlimit="10" stroke-linecap="round" stroke-linejoin="round"/>
<path d="M772 485.8L481.6 389.2" stroke="#0086CD" stroke-width="1.6068" stroke-miterlimit="10" stroke-linecap="round" stroke-linejoin="round"/>
<path d="M634.5 365.3L579 420.9" stroke="#0086CD" stroke-width="1.6068" stroke-miterlimit="10" stroke-linecap="round" stroke-linejoin="round"/>
<path d="M749.5 404.5L693.9 460.1" stroke="#0086CD" stroke-width="1.6068" stroke-miterlimit="10" stroke-linecap="round" stroke-linejoin="round"/>
<path d="M638.1 441.2L693.6 385.7" stroke="#0086CD" stroke-width="1.6068" stroke-miterlimit="10" stroke-linecap="round" stroke-linejoin="round"/>
<path d="M541.8 801.4L785.3 660.2" stroke="#0086CD" stroke-width="1.6068" stroke-miterlimit="10" stroke-linecap="round" stroke-linejoin="round"/>
<path d="M1468.1 649.1L1644.1 590.3" stroke="#0086CD" stroke-width="1.6068" stroke-miterlimit="10" stroke-linecap="round" stroke-linejoin="round"/>
<path d="M1517.6 632.6L1574.5 690L1581 696.5" stroke="#0086CD" stroke-width="1.6068" stroke-miterlimit="10" stroke-linecap="round" stroke-linejoin="round"/>
<path d="M540.9 330L537.3 333.7" stroke="#0086CD" stroke-width="4.7389" stroke-miterlimit="10" stroke-linecap="round" stroke-linejoin="round"/>
<path d="M550.3 321L553.2 318.3" stroke="#0086CD" stroke-width="4.7389" stroke-miterlimit="10" stroke-linecap="round" stroke-linejoin="round"/>
<path d="M1588.3 555.3L1739.5 644.1L747.3 975L602.9 830.4L180.4 629.5L429.3 380.8L762.1 47.6L1030.5 137.1L995.7 171.8L1108.8 209.5L1050.9 267.5" stroke="#0086CD" stroke-width="7.4983" stroke-miterlimit="10" stroke-linecap="round" stroke-linejoin="round"/>
<path d="M302 688L203.7 756L251.6 779.2L298.8 802.9L346.8 827.5L439.3 874.4L451.1 880.8L462.3 887L473.6 893.3L484.7 899.7L496 906L507.1 912.3L551.4 937.8L562.3 944.3L574.3 951.2L670.6 898.1" stroke="#0086CD" stroke-width="4.8204" stroke-miterlimit="10" stroke-linecap="round" stroke-linejoin="round"/>
<path d="M481.6 389.2L474.1 397" stroke="#0086CD" stroke-width="4.7389" stroke-miterlimit="10" stroke-linecap="round" stroke-linejoin="round"/>
<path d="M463.3 407.8L457.4 413.6" stroke="#0086CD" stroke-width="4.8204" stroke-miterlimit="10" stroke-linecap="round" stroke-linejoin="round"/>
<path d="M779.1 156.1L766.8 168.3" stroke="#0086CD" stroke-width="1.6068" stroke-miterlimit="10" stroke-linecap="round" stroke-linejoin="round"/>
<path d="M985.7 272L964.4 293.3" stroke="#0086CD" stroke-width="4.7389" stroke-miterlimit="10" stroke-linecap="round" stroke-linejoin="round"/>
<path d="M948.7 309L922.3 335.4" stroke="#0086CD" stroke-width="4.7389" stroke-miterlimit="10" stroke-linecap="round" stroke-linejoin="round"/>
<path d="M457.4 413.6L422.1 449" stroke="#0086CD" stroke-width="4.8204" stroke-miterlimit="10" stroke-linecap="round" stroke-linejoin="round"/>
<path d="M856.1 78.9L779.1 156.1" stroke="#0086CD" stroke-width="1.6068" stroke-miterlimit="10" stroke-linecap="round" stroke-linejoin="round"/>
<path d="M743.8 191.3L704.3 230.9" stroke="#0086CD" stroke-width="1.6068" stroke-miterlimit="10" stroke-linecap="round" stroke-linejoin="round"/>
<path d="M690.1 245.1L677.9 257.5" stroke="#0086CD" stroke-width="1.6068" stroke-miterlimit="10" stroke-linecap="round" stroke-linejoin="round"/>
<path d="M999.3 167.8L936.3 230.8" stroke="#0086CD" stroke-width="1.6068" stroke-miterlimit="10" stroke-linecap="round" stroke-linejoin="round"/>
<path d="M649.8 160L743.8 191.3" stroke="#0086CD" stroke-width="1.6068" stroke-miterlimit="10" stroke-linecap="round" stroke-linejoin="round"/>
<path d="M819.2 728.5L857.7 747L886.1 776.5" stroke="#0086CD" stroke-width="1.6068" stroke-miterlimit="10" stroke-linecap="round" stroke-linejoin="round"/>
<path d="M396.6 538.9L382.6 534.3L381.2 533.7" stroke="#0086CD" stroke-width="4.8204" stroke-miterlimit="10" stroke-linecap="round" stroke-linejoin="round"/>
<path d="M356.9 525.6L341.2 520.4" stroke="#0086CD" stroke-width="4.7389" stroke-miterlimit="10" stroke-linecap="round" stroke-linejoin="round"/>
<path d="M396.6 538.9L381.2 533.7" stroke="#0086CD" stroke-width="4.8204" stroke-miterlimit="10" stroke-linecap="round" stroke-linejoin="round"/>
<path d="M356.9 525.6L302.6 507.4" stroke="#0086CD" stroke-width="4.7389" stroke-miterlimit="10" stroke-linecap="round" stroke-linejoin="round"/>
<path d="M1067.6 796.3L1077.4 806" stroke="#0086CD" stroke-width="4.8204" stroke-miterlimit="10" stroke-linecap="round" stroke-linejoin="round"/>
<path d="M1091.4 819.9L1092.2 820.8L1101 829.5" stroke="#0086CD" stroke-width="4.8204" stroke-miterlimit="10" stroke-linecap="round" stroke-linejoin="round"/>
<path d="M1400.6 648L1281.2 687.7" stroke="#0086CD" stroke-width="4.8204" stroke-miterlimit="10" stroke-linecap="round" stroke-linejoin="round"/>
<path d="M1366.8 614.2L1246.5 654.3" stroke="#0086CD" stroke-width="4.8204" stroke-miterlimit="10" stroke-linecap="round" stroke-linejoin="round"/>
<path d="M1400 647.4L1409.3 656.6" stroke="#0086CD" stroke-width="4.7389" stroke-miterlimit="10" stroke-linecap="round" stroke-linejoin="round"/>
<path d="M1400.6 648L1390.9 638.3" stroke="#0086CD" stroke-width="4.7389" stroke-miterlimit="10" stroke-linecap="round" stroke-linejoin="round"/>
<path d="M1376.9 624.2L1366.8 614.2" stroke="#0086CD" stroke-width="4.8204" stroke-miterlimit="10" stroke-linecap="round" stroke-linejoin="round"/>
<path d="M1279.8 688L1283.7 691.8L1307.9 716.2L1428.6 675.9L1420.1 667.4" stroke="#0086CD" stroke-width="4.8204" stroke-miterlimit="10" stroke-linecap="round" stroke-linejoin="round"/>
<path d="M1246.3 654.3L1255.9 663.9L1256.5 664.7" stroke="#0086CD" stroke-width="4.7389" stroke-miterlimit="10" stroke-linecap="round" stroke-linejoin="round"/>
<path d="M1270.6 678.7L1272.1 680.3L1279.8 688" stroke="#0086CD" stroke-width="4.7389" stroke-miterlimit="10" stroke-linecap="round" stroke-linejoin="round"/>
<path d="M980.6 869.6L947.8 836.9L885.6 774.5L1005.8 734.4L1068.1 796.8" stroke="#0086CD" stroke-width="4.8204" stroke-miterlimit="10" stroke-linecap="round" stroke-linejoin="round"/>
<path d="M1514.3 719L1464.8 669.6L1417.4 622.2L1399.2 603.9" stroke="#0086CD" stroke-width="4.8204" stroke-miterlimit="10" stroke-linecap="round" stroke-linejoin="round"/>
<path d="M1460.7 665.3L1478.6 659.3L1417.1 598L1399.2 603.9" stroke="#0086CD" stroke-width="4.8204" stroke-miterlimit="10" stroke-linecap="round" stroke-linejoin="round"/>
<path d="M1423 627.2L1531.3 590.6L1560.1 618.3" stroke="#0086CD" stroke-width="1.6068" stroke-miterlimit="10" stroke-linecap="round" stroke-linejoin="round"/>
<path d="M1217.3 663.3L1105.1 701.4" stroke="#0086CD" stroke-width="4.8204" stroke-miterlimit="10" stroke-linecap="round" stroke-linejoin="round"/>
<path d="M586.2 349.1L565.2 370L553.8 381.5L532.4 402.8L530.3 404.9" stroke="#0086CD" stroke-width="1.6068" stroke-miterlimit="10" stroke-linecap="round" stroke-linejoin="round"/>
<path d="M1316.8 466.1L1288.5 478.4" stroke="#0086CD" stroke-width="1.6068" stroke-miterlimit="10" stroke-linecap="round" stroke-linejoin="round"/>
<path d="M805.3 401.1L883.9 322.6" stroke="#0086CD" stroke-width="4.8204" stroke-miterlimit="10" stroke-linecap="round" stroke-linejoin="round"/>
<path d="M599.8 271.8L647.6 287.7" stroke="#0086CD" stroke-width="4.8204" stroke-miterlimit="10" stroke-linecap="round" stroke-linejoin="round"/>
<path d="M550.3 321L585.1 286.5L632.8 302.4" stroke="#0086CD" stroke-width="4.8204" stroke-miterlimit="10" stroke-linecap="round" stroke-linejoin="round"/>
<path d="M599.8 271.8L632.8 239" stroke="#0086CD" stroke-width="4.8204" stroke-miterlimit="10" stroke-linecap="round" stroke-linejoin="round"/>
<path d="M805.3 401.1L756.3 384.8L753 383.7" stroke="#0086CD" stroke-width="4.7389" stroke-miterlimit="10" stroke-linecap="round" stroke-linejoin="round"/>
<path d="M602.1 333.2L666.5 354.7" stroke="#0086CD" stroke-width="4.8204" stroke-miterlimit="10" stroke-linecap="round" stroke-linejoin="round"/>
<path d="M686.1 361.2L727.6 375.2" stroke="#0086CD" stroke-width="4.7389" stroke-miterlimit="10" stroke-linecap="round" stroke-linejoin="round"/>
<path d="M714 266L728.8 270.9" stroke="#0086CD" stroke-width="4.7389" stroke-miterlimit="10" stroke-linecap="round" stroke-linejoin="round"/>
<path d="M695.3 259.8L586.4 223.5" stroke="#0086CD" stroke-width="4.7389" stroke-miterlimit="10" stroke-linecap="round" stroke-linejoin="round"/>
<path d="M805.3 401.1L883.9 322.6" stroke="#0086CD" stroke-width="4.8204" stroke-miterlimit="10" stroke-linecap="round" stroke-linejoin="round"/>
<path d="M780.6 288.2L705.5 363.2L702.1 366.7" stroke="#0086CD" stroke-width="4.8204" stroke-miterlimit="10" stroke-linecap="round" stroke-linejoin="round"/>
<path d="M856.7 313.5L778 392" stroke="#0086CD" stroke-width="4.8204" stroke-miterlimit="10" stroke-linecap="round" stroke-linejoin="round"/>
<path d="M599.8 271.8L647.6 287.7" stroke="#0086CD" stroke-width="4.8204" stroke-miterlimit="10" stroke-linecap="round" stroke-linejoin="round"/>
<path d="M585.1 286.5L632.8 302.4" stroke="#0086CD" stroke-width="4.8204" stroke-miterlimit="10" stroke-linecap="round" stroke-linejoin="round"/>
<path d="M883.9 322.6L728.8 270.9L722.5 277.2L650.1 349.1" stroke="#0086CD" stroke-width="4.8204" stroke-miterlimit="10" stroke-linecap="round" stroke-linejoin="round"/>
<path d="M680.2 255.2L651.2 284.2L635.3 300.1L605.7 329.5L602 333.2" stroke="#0086CD" stroke-width="4.8204" stroke-miterlimit="10" stroke-linecap="round" stroke-linejoin="round"/>
<path d="M728.8 270.9L896.5 326.8" stroke="#0086CD" stroke-width="4.7389" stroke-miterlimit="10" stroke-linecap="round" stroke-linejoin="round"/>
<path d="M599.8 271.8L632.8 239" stroke="#0086CD" stroke-width="4.8204" stroke-miterlimit="10" stroke-linecap="round" stroke-linejoin="round"/>
<path d="M805.3 401.1L756.3 384.8L753 383.7" stroke="#0086CD" stroke-width="4.7389" stroke-miterlimit="10" stroke-linecap="round" stroke-linejoin="round"/>
<path d="M556.4 318.3L602 333.2" stroke="#0086CD" stroke-width="4.8204" stroke-miterlimit="10" stroke-linecap="round" stroke-linejoin="round"/>
<path d="M602.1 333.2L666.5 354.7" stroke="#0086CD" stroke-width="4.8204" stroke-miterlimit="10" stroke-linecap="round" stroke-linejoin="round"/>
<path d="M686.1 361.2L727.6 375.2" stroke="#0086CD" stroke-width="4.7389" stroke-miterlimit="10" stroke-linecap="round" stroke-linejoin="round"/>
<path d="M1588.3 555.3L1577.9 558.7L1571.4 554.8L1561.6 549.4L1508.6 567" stroke="#0086CD" stroke-width="4.8204" stroke-miterlimit="10" stroke-linecap="round" stroke-linejoin="round"/>
<path d="M1481.3 525.2L1582.7 491.4L1631.8 540.6H1631.9L1588.3 555.3" stroke="#0086CD" stroke-width="7.4983" stroke-miterlimit="10" stroke-linecap="round" stroke-linejoin="round"/>
<path d="M1471.7 529.9L1479.5 537.8" stroke="#0086CD" stroke-width="4.8204" stroke-miterlimit="10" stroke-linecap="round" stroke-linejoin="round"/>
<path d="M1443.9 538.8L1482.1 526.4" stroke="#0086CD" stroke-width="4.8204" stroke-miterlimit="10" stroke-linecap="round" stroke-linejoin="round"/>
<path d="M1495.8 554.2L1522.1 580.6L1530.7 589.4L1604.4 564.7" stroke="#0086CD" stroke-width="4.8204" stroke-miterlimit="10" stroke-linecap="round" stroke-linejoin="round"/>
<path d="M1274.3 508.8L1255.3 526.3" stroke="#0086CD" stroke-width="1.6068" stroke-miterlimit="10" stroke-linecap="round" stroke-linejoin="round"/>
<path d="M1570.2 515.1C1581.96 515.1 1591.5 505.564 1591.5 493.8C1591.5 482.036 1581.96 472.5 1570.2 472.5C1558.44 472.5 1548.9 482.036 1548.9 493.8C1548.9 505.564 1558.44 515.1 1570.2 515.1Z" fill="#1D3D90"/>
<path d="M1580.8 484.9H1574.5C1574.2 484.9 1573.9 485.2 1573.9 485.6V488.6H1569.5C1569.2 488.6 1568.9 488.9 1568.9 489.3V492.3H1564.5C1564.2 492.3 1563.9 492.6 1563.9 493V496H1559.5C1559.2 496 1558.9 496.3 1558.9 496.7V502C1558.9 502.4 1559.2 502.7 1559.5 502.7H1566C1566.1 502.7 1566.2 502.7 1566.3 502.6L1581.1 492.1C1581.3 492 1581.4 491.8 1581.4 491.5V485.7C1581.4 485.2 1581.1 484.9 1580.8 484.9ZM1580.2 486.3V491L1565.8 501.2H1560.1V497.3H1564.5C1564.8 497.3 1565.1 497 1565.1 496.6V493.6H1569.5C1569.8 493.6 1570.1 493.3 1570.1 492.9V489.9H1574.5C1574.8 489.9 1575.1 489.6 1575.1 489.2V486.2L1580.2 486.3Z" fill="white"/>
<path d="M1570.2 512.7C1570.2 512.7 1570.4 513 1570.7 513.4C1570.9 513.6 1571 513.9 1571.2 514.2C1571.3 514.4 1571.4 514.5 1571.5 514.7C1571.6 514.9 1571.5 515.1 1571.5 515.2C1571.5 516.7 1571.5 518.8 1571.5 520.8C1571.5 522.8 1571.5 524.9 1571.5 526.4C1571.5 526.5 1571.5 526.6 1571.5 526.7C1571.5 526.8 1571.5 526.9 1571.5 527C1571.4 527.2 1571.3 527.3 1571.2 527.5C1571 527.8 1570.8 528.1 1570.7 528.3C1570.4 528.7 1570.2 529 1570.2 529C1570.2 529 1570 528.7 1569.7 528.3C1569.6 528.1 1569.4 527.8 1569.2 527.5C1569.1 527.3 1569 527.2 1568.9 527C1568.8 526.9 1568.8 526.8 1568.9 526.7C1568.9 526.6 1568.9 526.5 1568.9 526.4C1568.9 524.9 1568.9 522.8 1568.9 520.8C1568.9 518.8 1568.9 516.7 1568.9 515.2C1568.9 515 1568.8 514.8 1568.9 514.7C1569 514.5 1569.1 514.4 1569.2 514.2C1569.4 513.9 1569.6 513.6 1569.7 513.4C1570 513 1570.2 512.7 1570.2 512.7Z" fill="#1D3D90"/>
<path d="M665.8 293.1C677.564 293.1 687.1 283.564 687.1 271.8C687.1 260.036 677.564 250.5 665.8 250.5C654.036 250.5 644.5 260.036 644.5 271.8C644.5 283.564 654.036 293.1 665.8 293.1Z" fill="#1D3D90"/>
<path d="M676.5 262.9H670.2C669.9 262.9 669.6 263.2 669.6 263.6V266.6H665.2C664.9 266.6 664.6 266.9 664.6 267.3V270.3H660.2C659.9 270.3 659.6 270.6 659.6 271V274H655.2C654.9 274 654.6 274.3 654.6 274.7V280C654.6 280.4 654.9 280.7 655.2 280.7H661.7C661.8 280.7 661.9 280.7 662 280.6L676.8 270.1C677 270 677.1 269.8 677.1 269.5V263.7C677.1 263.2 676.8 262.9 676.5 262.9ZM675.9 264.3V269L661.5 279.2H655.8V275.3H660.2C660.5 275.3 660.8 275 660.8 274.6V271.6H665.2C665.5 271.6 665.8 271.3 665.8 270.9V267.9H670.2C670.5 267.9 670.8 267.6 670.8 267.2V264.2L675.9 264.3Z" fill="white"/>
<path d="M665.8 290.7C665.8 290.7 666 291 666.3 291.4C666.5 291.6 666.6 291.9 666.8 292.2C666.9 292.4 667 292.5 667.1 292.7C667.2 292.9 667.1 293.1 667.1 293.2C667.1 294.7 667.1 296.8 667.1 298.8C667.1 300.8 667.1 302.9 667.1 304.4C667.1 304.5 667.1 304.6 667.1 304.7C667.1 304.8 667.1 304.9 667.1 305C667 305.2 666.9 305.3 666.8 305.5C666.6 305.8 666.4 306.1 666.3 306.3C666 306.7 665.8 307 665.8 307C665.8 307 665.6 306.7 665.3 306.3C665.2 306.1 665 305.8 664.8 305.5C664.7 305.3 664.6 305.2 664.5 305C664.4 304.9 664.4 304.8 664.5 304.7C664.5 304.6 664.5 304.5 664.5 304.4C664.5 302.9 664.5 300.8 664.5 298.8C664.5 296.8 664.5 294.7 664.5 293.2C664.5 293 664.4 292.8 664.5 292.7C664.6 292.5 664.7 292.4 664.8 292.2C665 291.9 665.2 291.6 665.3 291.4C665.6 291 665.8 290.7 665.8 290.7Z" fill="#1D3D90"/>
<path d="M786.3 322.9C798.064 322.9 807.6 313.364 807.6 301.6C807.6 289.836 798.064 280.3 786.3 280.3C774.536 280.3 765 289.836 765 301.6C765 313.364 774.536 322.9 786.3 322.9Z" fill="#1D3D90"/>
<path d="M786.3 319.7C786.3 319.7 786.5 320 786.8 320.4C787 320.6 787.1 320.9 787.3 321.3C787.4 321.5 787.5 321.6 787.6 321.8C787.7 322 787.6 322.2 787.6 322.4C787.6 324 787.6 326.2 787.6 328.4C787.6 330.6 787.6 332.8 787.6 334.4C787.6 334.5 787.6 334.6 787.6 334.7C787.6 334.8 787.6 334.9 787.6 335C787.5 335.2 787.4 335.4 787.3 335.5C787.1 335.8 786.9 336.1 786.8 336.4C786.5 336.9 786.3 337.1 786.3 337.1C786.3 337.1 786.1 336.8 785.8 336.4C785.7 336.2 785.5 335.9 785.3 335.5C785.2 335.3 785.1 335.2 785 335C784.9 334.9 784.9 334.8 785 334.7C785 334.6 785 334.5 785 334.4C785 332.8 785 330.6 785 328.4C785 326.2 785 324 785 322.4C785 322.2 784.9 322 785 321.8C785.1 321.6 785.2 321.4 785.3 321.3C785.5 321 785.7 320.7 785.8 320.4C786 319.9 786.3 319.7 786.3 319.7Z" fill="#1D3D90"/>
<path d="M779.5 294.5C780.494 294.5 781.3 293.694 781.3 292.7C781.3 291.706 780.494 290.9 779.5 290.9C778.506 290.9 777.7 291.706 777.7 292.7C777.7 293.694 778.506 294.5 779.5 294.5Z" fill="white"/>
<path d="M781.8 295.2H777.1C776.3 295.2 775.6 295.9 775.6 296.7V304.2C775.6 304.5 775.9 304.8 776.2 304.8H777.1V310.8C777.1 311.3 777.5 311.7 778 311.7C778 311.7 778 311.7 778.1 311.7C778.4 311.7 778.7 311.6 778.8 311.4C779 311.2 779.1 310.9 779.1 310.6V304.8H780V310.8C780 311.3 780.4 311.7 780.9 311.7C780.9 311.7 780.9 311.7 781 311.7C781.3 311.7 781.6 311.6 781.7 311.4C781.9 311.2 782 310.9 782 310.6V304.8H782.8C783.1 304.8 783.4 304.5 783.4 304.2V296.7C783.3 295.9 782.7 295.2 781.8 295.2Z" fill="white"/>
<path d="M793 294.2C793.994 294.2 794.8 293.394 794.8 292.4C794.8 291.406 793.994 290.6 793 290.6C792.006 290.6 791.2 291.406 791.2 292.4C791.2 293.394 792.006 294.2 793 294.2Z" fill="white"/>
<path d="M797.9 303.8L796.1 295.8C795.9 294.9 795.3 294.8 794.6 294.8H791.2C790.4 294.8 789.7 295.5 789.7 296.2L788.3 303.8C788.3 304.1 788.6 304.4 788.9 304.4H790.6V310.4C790.6 310.9 791 311.3 791.5 311.3C791.5 311.3 791.5 311.3 791.6 311.3C791.9 311.3 792.2 311.2 792.3 311C792.5 310.8 792.6 310.5 792.6 310.2V304.4H793.5V310.4C793.5 310.9 793.9 311.3 794.4 311.3C794.4 311.3 794.4 311.3 794.5 311.3C794.8 311.3 795.1 311.2 795.2 311C795.4 310.8 795.5 310.5 795.5 310.2V304.4H797.4C797.7 304.4 797.9 304.2 797.9 303.8Z" fill="white"/>
<path d="M786.2 288.9C785.9 288.9 785.6 289.2 785.6 289.5V312.9C785.6 313.2 785.9 313.5 786.2 313.5C786.5 313.5 786.8 313.2 786.8 312.9V289.5C786.8 289.1 786.6 288.9 786.2 288.9Z" fill="white"/>
<path d="M341 571.3C352.764 571.3 362.3 561.764 362.3 550C362.3 538.236 352.764 528.7 341 528.7C329.236 528.7 319.7 538.236 319.7 550C319.7 561.764 329.236 571.3 341 571.3Z" fill="#1D3D90"/>
<path d="M341 568.1C341 568.1 341.2 568.4 341.5 568.8C341.7 569 341.8 569.3 342 569.7C342.1 569.9 342.2 570 342.3 570.2C342.4 570.4 342.3 570.6 342.3 570.8C342.3 572.4 342.3 574.6 342.3 576.8C342.3 579 342.3 581.2 342.3 582.8C342.3 582.9 342.3 583 342.3 583.1C342.3 583.2 342.3 583.3 342.3 583.4C342.2 583.6 342.1 583.8 342 583.9C341.8 584.2 341.6 584.5 341.5 584.8C341.2 585.3 341 585.5 341 585.5C341 585.5 340.8 585.2 340.5 584.8C340.4 584.6 340.2 584.3 340 583.9C339.9 583.7 339.8 583.6 339.7 583.4C339.6 583.3 339.6 583.2 339.7 583.1C339.7 583 339.7 582.9 339.7 582.8C339.7 581.2 339.7 579 339.7 576.8C339.7 574.6 339.7 572.4 339.7 570.8C339.7 570.6 339.6 570.4 339.7 570.2C339.8 570 339.9 569.8 340 569.7C340.2 569.4 340.4 569.1 340.5 568.8C340.8 568.3 341 568.1 341 568.1Z" fill="#1D3D90"/>
<path d="M340.9 542.6C341.894 542.6 342.7 541.794 342.7 540.8C342.7 539.806 341.894 539 340.9 539C339.906 539 339.1 539.806 339.1 540.8C339.1 541.794 339.906 542.6 340.9 542.6Z" fill="white"/>
<path d="M345.8 552.2L344 544.2C343.8 543.3 343.2 543.2 342.5 543.2H339.1C338.3 543.2 337.6 543.9 337.6 544.6L336.2 552.2C336.2 552.5 336.5 552.8 336.8 552.8H338.5V558.8C338.5 559.3 338.9 559.7 339.4 559.7C339.4 559.7 339.4 559.7 339.5 559.7C339.8 559.7 340.1 559.6 340.2 559.4C340.4 559.2 340.5 558.9 340.5 558.6V552.8H341.4V558.8C341.4 559.3 341.8 559.7 342.3 559.7C342.3 559.7 342.3 559.7 342.4 559.7C342.7 559.7 343 559.6 343.1 559.4C343.3 559.2 343.4 558.9 343.4 558.6V552.8H345.3C345.6 552.8 345.8 552.6 345.8 552.2Z" fill="white"/>
<path d="M481 617.4C492.764 617.4 502.3 607.864 502.3 596.1C502.3 584.336 492.764 574.8 481 574.8C469.236 574.8 459.7 584.336 459.7 596.1C459.7 607.864 469.236 617.4 481 617.4Z" fill="#1D3D90"/>
<path d="M481 614.1C481 614.1 481.2 614.4 481.5 614.8C481.7 615 481.8 615.3 482 615.7C482.1 615.9 482.2 616 482.3 616.2C482.4 616.4 482.3 616.6 482.3 616.8C482.3 618.4 482.3 620.6 482.3 622.8C482.3 625 482.3 627.2 482.3 628.8C482.3 628.9 482.3 629 482.3 629.1C482.3 629.2 482.3 629.3 482.3 629.4C482.2 629.6 482.1 629.8 482 629.9C481.8 630.2 481.6 630.5 481.5 630.8C481.2 631.3 481 631.5 481 631.5C481 631.5 480.8 631.2 480.5 630.8C480.4 630.6 480.2 630.3 480 629.9C479.9 629.7 479.8 629.6 479.7 629.4C479.6 629.3 479.6 629.2 479.7 629.1C479.7 629 479.7 628.9 479.7 628.8C479.7 627.2 479.7 625 479.7 622.8C479.7 620.6 479.7 618.4 479.7 616.8C479.7 616.6 479.6 616.4 479.7 616.2C479.8 616 479.9 615.8 480 615.7C480.2 615.4 480.4 615.1 480.5 614.8C480.8 614.4 481 614.1 481 614.1Z" fill="#1D3D90"/>
<path d="M481 589C481.994 589 482.8 588.194 482.8 587.2C482.8 586.206 481.994 585.4 481 585.4C480.006 585.4 479.2 586.206 479.2 587.2C479.2 588.194 480.006 589 481 589Z" fill="white"/>
<path d="M483.4 589.7H478.7C477.9 589.7 477.2 590.4 477.2 591.2V598.7C477.2 599 477.5 599.3 477.8 599.3H478.7V605.3C478.7 605.8 479.1 606.2 479.6 606.2C479.6 606.2 479.6 606.2 479.7 606.2C480 606.2 480.3 606.1 480.4 605.9C480.6 605.7 480.7 605.4 480.7 605.1V599.3H481.6V605.3C481.6 605.8 482 606.2 482.5 606.2C482.5 606.2 482.5 606.2 482.6 606.2C482.9 606.2 483.2 606.1 483.3 605.9C483.5 605.7 483.6 605.4 483.6 605.1V599.3H484.4C484.7 599.3 485 599 485 598.7V591.2C484.9 590.4 484.2 589.7 483.4 589.7Z" fill="white"/>
<path d="M716.1 305.6C727.864 305.6 737.4 296.064 737.4 284.3C737.4 272.536 727.864 263 716.1 263C704.336 263 694.8 272.536 694.8 284.3C694.8 296.064 704.336 305.6 716.1 305.6Z" fill="#1D3D90"/>
<path d="M716.1 303.2C716.1 303.2 716.3 303.5 716.6 303.9C716.8 304.1 716.9 304.4 717.1 304.7C717.2 304.9 717.3 305 717.4 305.2C717.5 305.4 717.4 305.6 717.4 305.7C717.4 307.2 717.4 309.3 717.4 311.3C717.4 313.3 717.4 315.4 717.4 316.9C717.4 317 717.4 317.1 717.4 317.2C717.4 317.3 717.4 317.4 717.4 317.5C717.3 317.7 717.2 317.8 717.1 318C716.9 318.3 716.7 318.6 716.6 318.8C716.3 319.2 716.1 319.5 716.1 319.5C716.1 319.5 715.9 319.2 715.6 318.8C715.5 318.6 715.3 318.3 715.1 318C715 317.8 714.9 317.7 714.8 317.5C714.7 317.4 714.7 317.3 714.8 317.2C714.8 317.1 714.8 317 714.8 316.9C714.8 315.4 714.8 313.3 714.8 311.3C714.8 309.3 714.8 307.2 714.8 305.7C714.8 305.5 714.7 305.3 714.8 305.2C714.9 305 715 304.9 715.1 304.7C715.3 304.4 715.5 304.1 715.6 303.9C715.9 303.5 716.1 303.2 716.1 303.2Z" fill="#1D3D90"/>
<path d="M725.4 280L706.9 279.8C706.2 279.8 705.6 280.4 705.6 281.1L705.5 295.1C705.5 295.8 706.1 296.4 706.8 296.4L725.3 296.6C726 296.6 726.6 296 726.6 295.3L726.7 281.3C726.7 280.6 726.1 280 725.4 280ZM706.9 281.1L725.4 281.2L725.3 295.2L706.8 295L706.9 281.1Z" fill="white"/>
<path d="M711.1 278.5C711.2 278.6 711.2 278.5 711.1 278.5C711.2 278.6 711.2 278.6 711.2 278.6C711.2 278.6 711.3 278.7 711.4 278.7C711.5 278.7 711.5 278.7 711.6 278.7C711.7 278.7 711.7 278.7 711.8 278.7C711.9 278.7 711.9 278.6 712 278.6C712 278.6 712 278.6 712.1 278.5L715.2 274.7C715.3 274.6 715.4 274.4 715.3 274.2C715.3 274 715.2 273.9 715.1 273.7C714.8 273.5 714.4 273.5 714.2 273.8L712.3 276.1L712.4 270.3C712.4 269.9 712.1 269.6 711.7 269.6C711.3 269.6 711 269.9 711 270.3L710.9 276.2L709.1 274.1C709 274 708.8 273.9 708.6 273.9C708.4 273.9 708.2 273.9 708.1 274.1C708 274.2 707.9 274.4 707.9 274.6C707.9 274.8 707.9 275 708.1 275.1L711.1 278.5Z" fill="white"/>
<path d="M717.9 274.5C718.1 274.5 718.3 274.4 718.4 274.3L720.2 272.3L720.1 278.2C720.1 278.6 720.4 278.9 720.8 278.9C721.2 278.9 721.5 278.6 721.5 278.2L721.6 272.4L723.5 274.8C723.7 275.1 724.1 275.1 724.4 274.9C724.7 274.7 724.7 274.3 724.5 274L721.5 270.1C721.5 270.1 721.5 270 721.4 270C721.4 270 721.4 270 721.3 270C721.2 270 721.2 269.9 721.1 269.9C721 269.9 721 269.9 720.9 269.9C720.8 269.9 720.8 269.9 720.7 269.9C720.6 269.9 720.6 269.9 720.5 270L720.4 270.1L717.4 273.5C717.2 273.8 717.2 274.2 717.5 274.4C717.6 274.4 717.8 274.5 717.9 274.5Z" fill="white"/>
<path d="M710.7 284.4C711.252 284.4 711.7 283.952 711.7 283.4C711.7 282.848 711.252 282.4 710.7 282.4C710.148 282.4 709.7 282.848 709.7 283.4C709.7 283.952 710.148 284.4 710.7 284.4Z" fill="white"/>
<path d="M721.4 284.5C721.952 284.5 722.4 284.052 722.4 283.5C722.4 282.948 721.952 282.5 721.4 282.5C720.848 282.5 720.4 282.948 720.4 283.5C720.4 284.052 720.848 284.5 721.4 284.5Z" fill="white"/>
<path d="M716.1 284.5C716.652 284.5 717.1 284.052 717.1 283.5C717.1 282.948 716.652 282.5 716.1 282.5C715.548 282.5 715.1 282.948 715.1 283.5C715.1 284.052 715.548 284.5 716.1 284.5Z" fill="white"/>
<path d="M709.3 289.8H709.4V293.6C709.4 293.9 709.7 294.2 710 294.2C710.2 294.2 710.4 294.1 710.5 294C710.6 293.9 710.7 293.7 710.7 293.5V289.8H710.9V293.6C710.9 293.9 711.2 294.2 711.5 294.2C711.7 294.2 711.9 294.1 712 294C712.1 293.9 712.2 293.7 712.2 293.5V289.8C712.6 289.8 712.9 289.5 712.9 289.1V286.3C712.9 285.3 712.1 284.5 711.1 284.5H710.4C709.4 284.5 708.6 285.3 708.6 286.3V289.1C708.6 289.5 708.9 289.8 709.3 289.8Z" fill="white"/>
<path d="M714.6 289.9H714.7V293.7C714.7 294 715 294.3 715.3 294.3C715.5 294.3 715.7 294.2 715.8 294.1C715.9 294 716 293.8 716 293.6V289.9H716.2V293.7C716.2 294 716.5 294.3 716.8 294.3C717 294.3 717.2 294.2 717.3 294.1C717.4 294 717.5 293.8 717.5 293.6V289.9C717.9 289.9 718.2 289.6 718.2 289.2V286.4C718.2 285.4 717.4 284.6 716.4 284.6H715.7C714.7 284.6 713.9 285.4 713.9 286.4V289.2C713.9 289.6 714.2 289.9 714.6 289.9Z" fill="white"/>
<path d="M719.9 290V293.9C719.9 294.2 720.2 294.5 720.5 294.5C720.7 294.5 720.9 294.4 721 294.3C721.1 294.2 721.2 294 721.2 293.8V290H721.4V293.9C721.4 294.2 721.7 294.5 722 294.5C722.2 294.5 722.4 294.4 722.5 294.3C722.6 294.2 722.7 294 722.7 293.8V290C723.1 290 723.4 289.7 723.4 289.3V286.5C723.4 285.5 722.6 284.7 721.6 284.7H720.9C719.9 284.7 719.1 285.5 719.1 286.5V289.3C719.2 289.6 719.5 289.9 719.9 290Z" fill="white"/>
<path d="M1024.4 820.4C1036.16 820.4 1045.7 810.864 1045.7 799.1C1045.7 787.336 1036.16 777.8 1024.4 777.8C1012.64 777.8 1003.1 787.336 1003.1 799.1C1003.1 810.864 1012.64 820.4 1024.4 820.4Z" fill="#1D3D90"/>
<path d="M1035 790.2H1028.7C1028.4 790.2 1028.1 790.5 1028.1 790.9V793.9H1023.7C1023.4 793.9 1023.1 794.2 1023.1 794.6V797.6H1018.7C1018.4 797.6 1018.1 797.9 1018.1 798.3V801.3H1013.7C1013.4 801.3 1013.1 801.6 1013.1 802V807.3C1013.1 807.7 1013.4 808 1013.7 808H1020.2C1020.3 808 1020.4 808 1020.5 807.9L1035.3 797.4C1035.5 797.3 1035.6 797.1 1035.6 796.8V791C1035.6 790.5 1035.4 790.2 1035 790.2ZM1034.4 791.6V796.3L1020 806.5H1014.3V802.6H1018.7C1019 802.6 1019.3 802.3 1019.3 801.9V798.9H1023.7C1024 798.9 1024.3 798.6 1024.3 798.2V795.2H1028.7C1029 795.2 1029.3 794.9 1029.3 794.5V791.5L1034.4 791.6Z" fill="white"/>
<path d="M1024.4 818C1024.4 818 1024.6 818.3 1024.9 818.7C1025.1 818.9 1025.2 819.2 1025.4 819.5C1025.5 819.7 1025.6 819.8 1025.7 820C1025.8 820.2 1025.7 820.4 1025.7 820.5C1025.7 822 1025.7 824.1 1025.7 826.1C1025.7 828.1 1025.7 830.2 1025.7 831.7C1025.7 831.8 1025.7 831.9 1025.7 832C1025.7 832.1 1025.7 832.2 1025.7 832.3C1025.6 832.5 1025.5 832.6 1025.4 832.8C1025.2 833.1 1025 833.4 1024.9 833.6C1024.6 834 1024.4 834.3 1024.4 834.3C1024.4 834.3 1024.2 834 1023.9 833.6C1023.8 833.4 1023.6 833.1 1023.4 832.8C1023.3 832.6 1023.2 832.5 1023.1 832.3C1023 832.2 1023 832.1 1023.1 832C1023.1 831.9 1023.1 831.8 1023.1 831.7C1023.1 830.2 1023.1 828.1 1023.1 826.1C1023.1 824.1 1023.1 822 1023.1 820.5C1023.1 820.3 1023 820.1 1023.1 820C1023.2 819.8 1023.3 819.7 1023.4 819.5C1023.6 819.2 1023.8 818.9 1023.9 818.7C1024.2 818.2 1024.4 818 1024.4 818Z" fill="#1D3D90"/>
<path d="M829.2 631.9C840.964 631.9 850.5 622.364 850.5 610.6C850.5 598.836 840.964 589.3 829.2 589.3C817.436 589.3 807.9 598.836 807.9 610.6C807.9 622.364 817.436 631.9 829.2 631.9Z" fill="#1D3D90"/>
<path d="M839.8 601.7H833.5C833.2 601.7 832.9 602 832.9 602.4V605.4H828.5C828.2 605.4 827.9 605.7 827.9 606.1V609.1H823.5C823.2 609.1 822.9 609.4 822.9 609.8V612.8H818.5C818.2 612.8 817.9 613.1 817.9 613.5V618.8C817.9 619.2 818.2 619.5 818.5 619.5H825C825.1 619.5 825.2 619.5 825.3 619.4L840.1 608.9C840.3 608.8 840.4 608.6 840.4 608.3V602.5C840.5 602 840.2 601.7 839.8 601.7ZM839.2 603.1V607.8L824.8 618H819.1V614.1H823.5C823.8 614.1 824.1 613.8 824.1 613.4V610.4H828.5C828.8 610.4 829.1 610.1 829.1 609.7V606.7H833.5C833.8 606.7 834.1 606.4 834.1 606V603L839.2 603.1Z" fill="white"/>
<path d="M829.2 629.5C829.2 629.5 829.4 629.8 829.7 630.2C829.9 630.4 830 630.7 830.2 631C830.3 631.2 830.4 631.3 830.5 631.5C830.6 631.7 830.5 631.9 830.5 632C830.5 633.5 830.5 635.6 830.5 637.6C830.5 639.6 830.5 641.7 830.5 643.2C830.5 643.3 830.5 643.4 830.5 643.5C830.5 643.6 830.5 643.7 830.5 643.8C830.4 644 830.3 644.1 830.2 644.3C830 644.6 829.8 644.9 829.7 645.1C829.4 645.5 829.2 645.8 829.2 645.8C829.2 645.8 829 645.5 828.7 645.1C828.6 644.9 828.4 644.6 828.2 644.3C828.1 644.1 828 644 827.9 643.8C827.8 643.7 827.8 643.6 827.9 643.5C827.9 643.4 827.9 643.3 827.9 643.2C827.9 641.7 827.9 639.6 827.9 637.6C827.9 635.6 827.9 633.5 827.9 632C827.9 631.8 827.8 631.6 827.9 631.5C828 631.3 828.1 631.2 828.2 631C828.4 630.7 828.6 630.4 828.7 630.2C829 629.8 829.2 629.5 829.2 629.5Z" fill="#1D3D90"/>
<path d="M1372.7 533C1384.46 533 1394 523.464 1394 511.7C1394 499.936 1384.46 490.4 1372.7 490.4C1360.94 490.4 1351.4 499.936 1351.4 511.7C1351.4 523.464 1360.94 533 1372.7 533Z" fill="#1D3D90"/>
<path d="M1383.3 502.8H1377C1376.7 502.8 1376.4 503.1 1376.4 503.5V506.5H1372C1371.7 506.5 1371.4 506.8 1371.4 507.2V510.2H1367C1366.7 510.2 1366.4 510.5 1366.4 510.9V513.9H1362C1361.7 513.9 1361.4 514.2 1361.4 514.6V519.9C1361.4 520.3 1361.7 520.6 1362 520.6H1368.5C1368.6 520.6 1368.7 520.6 1368.8 520.5L1383.6 510C1383.8 509.9 1383.9 509.7 1383.9 509.4V503.6C1384 503.1 1383.7 502.8 1383.3 502.8ZM1382.7 504.2V508.9L1368.3 519.1H1362.6V515.2H1367C1367.3 515.2 1367.6 514.9 1367.6 514.5V511.5H1372C1372.3 511.5 1372.6 511.2 1372.6 510.8V507.8H1377C1377.3 507.8 1377.6 507.5 1377.6 507.1V504.1L1382.7 504.2Z" fill="white"/>
<path d="M1372.7 530.6C1372.7 530.6 1372.9 530.9 1373.2 531.3C1373.4 531.5 1373.5 531.8 1373.7 532.1C1373.8 532.3 1373.9 532.4 1374 532.6C1374.1 532.8 1374 533 1374 533.1C1374 534.6 1374 536.7 1374 538.7C1374 540.7 1374 542.8 1374 544.3C1374 544.4 1374 544.5 1374 544.6C1374 544.7 1374 544.8 1374 544.9C1373.9 545.1 1373.8 545.2 1373.7 545.4C1373.5 545.7 1373.3 546 1373.2 546.2C1372.9 546.6 1372.7 546.9 1372.7 546.9C1372.7 546.9 1372.5 546.6 1372.2 546.2C1372.1 546 1371.9 545.7 1371.7 545.4C1371.6 545.2 1371.5 545.1 1371.4 544.9C1371.3 544.8 1371.3 544.7 1371.4 544.6C1371.4 544.5 1371.4 544.4 1371.4 544.3C1371.4 542.8 1371.4 540.7 1371.4 538.7C1371.4 536.7 1371.4 534.6 1371.4 533.1C1371.4 532.9 1371.3 532.7 1371.4 532.6C1371.5 532.4 1371.6 532.3 1371.7 532.1C1371.9 531.8 1372.1 531.5 1372.2 531.3C1372.5 530.9 1372.7 530.6 1372.7 530.6Z" fill="#1D3D90"/>
<path d="M1321.3 637C1333.06 637 1342.6 627.464 1342.6 615.7C1342.6 603.936 1333.06 594.4 1321.3 594.4C1309.54 594.4 1300 603.936 1300 615.7C1300 627.464 1309.54 637 1321.3 637Z" fill="#1D3D90"/>
<path d="M1321.3 634.6C1321.3 634.6 1321.5 634.9 1321.8 635.3C1322 635.5 1322.1 635.8 1322.3 636.1C1322.4 636.3 1322.5 636.4 1322.6 636.6C1322.7 636.8 1322.6 637 1322.6 637.1C1322.6 638.6 1322.6 640.7 1322.6 642.7C1322.6 644.7 1322.6 646.8 1322.6 648.3C1322.6 648.4 1322.6 648.5 1322.6 648.6C1322.6 648.7 1322.6 648.8 1322.6 648.9C1322.5 649.1 1322.4 649.2 1322.3 649.4C1322.1 649.7 1321.9 650 1321.8 650.2C1321.5 650.6 1321.3 650.9 1321.3 650.9C1321.3 650.9 1321.1 650.6 1320.8 650.2C1320.7 650 1320.5 649.7 1320.3 649.4C1320.2 649.2 1320.1 649.1 1320 648.9C1319.9 648.8 1319.9 648.7 1320 648.6C1320 648.5 1320 648.4 1320 648.3C1320 646.8 1320 644.7 1320 642.7C1320 640.7 1320 638.6 1320 637.1C1320 636.9 1319.9 636.7 1320 636.6C1320.1 636.4 1320.2 636.3 1320.3 636.1C1320.5 635.8 1320.7 635.5 1320.8 635.3C1321 634.8 1321.3 634.6 1321.3 634.6Z" fill="#1D3D90"/>
<path d="M1314.5 608.6C1315.49 608.6 1316.3 607.794 1316.3 606.8C1316.3 605.806 1315.49 605 1314.5 605C1313.51 605 1312.7 605.806 1312.7 606.8C1312.7 607.794 1313.51 608.6 1314.5 608.6Z" fill="white"/>
<path d="M1316.8 609.2H1312.1C1311.3 609.2 1310.6 609.9 1310.6 610.7V618.2C1310.6 618.5 1310.9 618.8 1311.2 618.8H1312.1V624.8C1312.1 625.3 1312.5 625.7 1313 625.7C1313 625.7 1313 625.7 1313.1 625.7C1313.4 625.7 1313.7 625.6 1313.8 625.4C1314 625.2 1314.1 624.9 1314.1 624.6V618.8H1315V624.8C1315 625.3 1315.4 625.7 1315.9 625.7C1315.9 625.7 1315.9 625.7 1316 625.7C1316.3 625.7 1316.6 625.6 1316.7 625.4C1316.9 625.2 1317 624.9 1317 624.6V618.8H1317.8C1318.1 618.8 1318.4 618.5 1318.4 618.2V610.7C1318.3 609.9 1317.7 609.2 1316.8 609.2Z" fill="white"/>
<path d="M1328 608.2C1328.99 608.2 1329.8 607.394 1329.8 606.4C1329.8 605.406 1328.99 604.6 1328 604.6C1327.01 604.6 1326.2 605.406 1326.2 606.4C1326.2 607.394 1327.01 608.2 1328 608.2Z" fill="white"/>
<path d="M1332.9 617.8L1331.1 609.8C1330.9 608.9 1330.3 608.8 1329.6 608.8H1326.2C1325.4 608.8 1324.7 609.5 1324.7 610.2L1323.3 617.8C1323.3 618.1 1323.6 618.4 1323.9 618.4H1325.6V624.4C1325.6 624.9 1326 625.3 1326.5 625.3C1326.5 625.3 1326.5 625.3 1326.6 625.3C1326.9 625.3 1327.2 625.2 1327.3 625C1327.5 624.8 1327.6 624.5 1327.6 624.2V618.4H1328.5V624.4C1328.5 624.9 1328.9 625.3 1329.4 625.3C1329.4 625.3 1329.4 625.3 1329.5 625.3C1329.8 625.3 1330.1 625.2 1330.2 625C1330.4 624.8 1330.5 624.5 1330.5 624.2V618.4H1332.4C1332.7 618.4 1332.9 618.2 1332.9 617.8Z" fill="white"/>
<path d="M1321.2 602.9C1320.9 602.9 1320.6 603.2 1320.6 603.5V626.9C1320.6 627.2 1320.9 627.5 1321.2 627.5C1321.5 627.5 1321.8 627.2 1321.8 626.9V603.5C1321.8 603.1 1321.6 602.9 1321.2 602.9Z" fill="white"/>
<path d="M1356.6 670.8C1368.36 670.8 1377.9 661.264 1377.9 649.5C1377.9 637.736 1368.36 628.2 1356.6 628.2C1344.84 628.2 1335.3 637.736 1335.3 649.5C1335.3 661.264 1344.84 670.8 1356.6 670.8Z" fill="#1D3D90"/>
<path d="M1356.6 668.4C1356.6 668.4 1356.8 668.7 1357.1 669.1C1357.3 669.3 1357.4 669.6 1357.6 669.9C1357.7 670.1 1357.8 670.2 1357.9 670.4C1358 670.6 1357.9 670.8 1357.9 670.9C1357.9 672.4 1357.9 674.5 1357.9 676.5C1357.9 678.5 1357.9 680.6 1357.9 682.1C1357.9 682.2 1357.9 682.3 1357.9 682.4C1357.9 682.5 1357.9 682.6 1357.9 682.7C1357.8 682.9 1357.7 683 1357.6 683.2C1357.4 683.5 1357.2 683.8 1357.1 684C1356.8 684.4 1356.6 684.7 1356.6 684.7C1356.6 684.7 1356.4 684.4 1356.1 684C1356 683.8 1355.8 683.5 1355.6 683.2C1355.5 683 1355.4 682.9 1355.3 682.7C1355.2 682.6 1355.2 682.5 1355.3 682.4C1355.3 682.3 1355.3 682.2 1355.3 682.1C1355.3 680.6 1355.3 678.5 1355.3 676.5C1355.3 674.5 1355.3 672.4 1355.3 670.9C1355.3 670.7 1355.2 670.5 1355.3 670.4C1355.4 670.2 1355.5 670.1 1355.6 669.9C1355.8 669.6 1356 669.3 1356.1 669.1C1356.4 668.7 1356.6 668.4 1356.6 668.4Z" fill="#1D3D90"/>
<path d="M1366 645.2L1347.5 645C1346.8 645 1346.2 645.6 1346.2 646.3L1346.1 660.3C1346.1 661 1346.7 661.6 1347.4 661.6L1365.9 661.8C1366.6 661.8 1367.2 661.2 1367.2 660.5L1367.3 646.5C1367.3 645.8 1366.7 645.2 1366 645.2ZM1347.4 646.3L1365.9 646.4L1365.8 660.4L1347.3 660.2L1347.4 646.3Z" fill="white"/>
<path d="M1351.7 643.7C1351.8 643.8 1351.8 643.8 1351.8 643.8C1351.8 643.8 1351.9 643.9 1352 643.9C1352.1 643.9 1352.1 643.9 1352.2 643.9C1352.3 643.9 1352.3 643.9 1352.4 643.9C1352.5 643.9 1352.5 643.8 1352.6 643.8C1352.6 643.8 1352.6 643.8 1352.7 643.7L1355.8 639.9C1355.9 639.8 1356 639.6 1355.9 639.4C1355.9 639.2 1355.8 639.1 1355.7 638.9C1355.4 638.7 1355 638.7 1354.8 639L1352.9 641.3L1353 635.5C1353 635.1 1352.7 634.8 1352.3 634.8C1351.9 634.8 1351.6 635.1 1351.6 635.5L1351.5 641.4L1349.7 639.3C1349.6 639.2 1349.4 639.1 1349.2 639.1C1349 639.1 1348.8 639.1 1348.7 639.3C1348.6 639.4 1348.5 639.6 1348.5 639.8C1348.5 640 1348.5 640.2 1348.7 640.3L1351.7 643.7Z" fill="white"/>
<path d="M1358.5 639.7C1358.7 639.7 1358.9 639.6 1359 639.5L1360.8 637.5L1360.7 643.4C1360.7 643.8 1361 644.1 1361.4 644.1C1361.8 644.1 1362.1 643.8 1362.1 643.4L1362.2 637.6L1364.1 640C1364.3 640.3 1364.7 640.3 1365 640.1C1365.3 639.9 1365.3 639.5 1365.1 639.2L1362.1 635.3C1362.1 635.3 1362.1 635.2 1362 635.2C1362 635.2 1362 635.2 1361.9 635.2C1361.8 635.2 1361.8 635.1 1361.7 635.1C1361.6 635.1 1361.6 635.1 1361.5 635.1C1361.4 635.1 1361.4 635.1 1361.3 635.1C1361.2 635.1 1361.2 635.1 1361.1 635.2L1361 635.3L1358 638.7C1357.8 639 1357.8 639.4 1358.1 639.6C1358.2 639.6 1358.3 639.7 1358.5 639.7Z" fill="white"/>
<path d="M1351.3 649.6C1351.85 649.6 1352.3 649.152 1352.3 648.6C1352.3 648.048 1351.85 647.6 1351.3 647.6C1350.75 647.6 1350.3 648.048 1350.3 648.6C1350.3 649.152 1350.75 649.6 1351.3 649.6Z" fill="white"/>
<path d="M1361.9 649.7C1362.45 649.7 1362.9 649.252 1362.9 648.7C1362.9 648.148 1362.45 647.7 1361.9 647.7C1361.35 647.7 1360.9 648.148 1360.9 648.7C1360.9 649.252 1361.35 649.7 1361.9 649.7Z" fill="white"/>
<path d="M1356.7 649.6C1357.25 649.6 1357.7 649.152 1357.7 648.6C1357.7 648.048 1357.25 647.6 1356.7 647.6C1356.15 647.6 1355.7 648.048 1355.7 648.6C1355.7 649.152 1356.15 649.6 1356.7 649.6Z" fill="white"/>
<path d="M1349.8 655H1349.9V658.8C1349.9 659.1 1350.2 659.4 1350.5 659.4C1350.7 659.4 1350.9 659.3 1351 659.2C1351.1 659.1 1351.2 658.9 1351.2 658.7V655H1351.4V658.8C1351.4 659.1 1351.7 659.4 1352 659.4C1352.2 659.4 1352.4 659.3 1352.5 659.2C1352.6 659.1 1352.7 658.9 1352.7 658.7V655C1353.1 655 1353.4 654.7 1353.4 654.3V651.5C1353.4 650.5 1352.6 649.7 1351.6 649.7H1350.9C1349.9 649.7 1349.1 650.5 1349.1 651.5V654.3C1349.1 654.7 1349.4 655 1349.8 655Z" fill="white"/>
<path d="M1355.2 655.1H1355.3V658.9C1355.3 659.2 1355.6 659.5 1355.9 659.5C1356.1 659.5 1356.3 659.4 1356.4 659.3C1356.5 659.2 1356.6 659 1356.6 658.8V655.1H1356.8V658.9C1356.8 659.2 1357.1 659.5 1357.4 659.5C1357.6 659.5 1357.8 659.4 1357.9 659.3C1358 659.2 1358.1 659 1358.1 658.8V655.1C1358.5 655.1 1358.8 654.8 1358.8 654.4V651.6C1358.8 650.6 1358 649.8 1357 649.8H1356.3C1355.3 649.8 1354.5 650.6 1354.5 651.6V654.4C1354.5 654.8 1354.8 655.1 1355.2 655.1Z" fill="white"/>
<path d="M1360.4 655.1V659C1360.4 659.3 1360.7 659.6 1361 659.6C1361.2 659.6 1361.4 659.5 1361.5 659.4C1361.6 659.3 1361.7 659.1 1361.7 658.9V655.1H1361.9V659C1361.9 659.3 1362.2 659.6 1362.5 659.6C1362.7 659.6 1362.9 659.5 1363 659.4C1363.1 659.3 1363.2 659.1 1363.2 658.9V655.1C1363.6 655.1 1363.9 654.8 1363.9 654.4V651.6C1363.9 650.6 1363.1 649.8 1362.1 649.8H1361.4C1360.4 649.8 1359.6 650.6 1359.6 651.6V654.4C1359.7 654.8 1360 655.1 1360.4 655.1Z" fill="white"/>
<path d="M796.2 248.8C807.964 248.8 817.5 239.264 817.5 227.5C817.5 215.736 807.964 206.2 796.2 206.2C784.436 206.2 774.9 215.736 774.9 227.5C774.9 239.264 784.436 248.8 796.2 248.8Z" fill="#1D3D90"/>
<path d="M796.2 246.5C796.2 246.5 796.4 246.8 796.7 247.2C796.9 247.4 797 247.7 797.2 248C797.3 248.2 797.4 248.3 797.5 248.5C797.6 248.7 797.5 248.9 797.5 249C797.5 250.5 797.5 252.6 797.5 254.6C797.5 256.6 797.5 258.7 797.5 260.2C797.5 260.3 797.5 260.4 797.5 260.5C797.5 260.6 797.5 260.7 797.5 260.8C797.4 261 797.3 261.1 797.2 261.3C797 261.6 796.8 261.9 796.7 262.1C796.4 262.5 796.2 262.8 796.2 262.8C796.2 262.8 796 262.5 795.7 262.1C795.6 261.9 795.4 261.6 795.2 261.3C795.1 261.1 795 261 794.9 260.8C794.8 260.7 794.8 260.6 794.9 260.5C794.9 260.4 794.9 260.3 794.9 260.2C794.9 258.7 794.9 256.6 794.9 254.6C794.9 252.6 794.9 250.5 794.9 249C794.9 248.8 794.8 248.6 794.9 248.5C795 248.3 795.1 248.2 795.2 248C795.4 247.7 795.6 247.4 795.7 247.2C796 246.7 796.2 246.5 796.2 246.5Z" fill="#1D3D90"/>
<path d="M796.8 217.6C797.6 218.2 798.2 218.7 798.2 220C798.2 220.9 797.3 221.7 796.9 221.9C796.6 222 796.5 222.3 796.6 222.5C796.7 222.7 796.9 222.8 797.1 222.8C797.2 222.8 797.2 222.8 797.3 222.8C798.1 222.5 799.2 221.3 799.2 220C799.2 218.3 798.2 217.5 797.4 216.8C796.7 216.3 796.2 215.8 796.2 214.8C796.2 213.4 797.5 212.7 797.9 212.7C798.2 212.7 798.4 212.5 798.4 212.2C798.4 211.9 798.2 211.7 797.9 211.7C797.1 211.7 795.3 212.8 795.3 214.8C795.2 216.4 796.1 217 796.8 217.6Z" fill="white"/>
<path d="M792.7 218.2C793.3 218.7 793.8 219.1 793.8 220.1C793.8 220.8 793.1 221.5 792.8 221.6C792.5 221.7 792.4 222 792.5 222.2C792.6 222.4 792.8 222.5 793 222.5C793.1 222.5 793.1 222.5 793.2 222.5C793.9 222.2 794.9 221.2 794.9 220.1C794.9 218.6 794.1 217.9 793.4 217.4C792.8 216.9 792.4 216.6 792.4 215.8C792.4 214.7 793.5 214.1 793.7 214.1C794 214.1 794.2 213.9 794.2 213.6C794.2 213.3 794 213.1 793.7 213.1C792.9 213.1 791.4 214.1 791.4 215.8C791.4 217.1 792.1 217.7 792.7 218.2Z" fill="white"/>
<path d="M805.5 224.9H802.8H788.6C788.3 224.9 788 225.2 788 225.5V234.5C788 234.8 788.3 235.1 788.6 235.1H803.7C804 235.1 804.3 234.8 804.3 234.5V232.1C804.7 232.2 805.1 232.3 805.5 232.3C807.7 232.3 809.5 230.6 809.5 228.6C809.5 226.5 807.7 224.9 805.5 224.9ZM805.5 231.6C805.1 231.6 804.7 231.5 804.3 231.4V225.5H805.5C807.4 225.5 808.9 226.9 808.9 228.6C808.9 230.3 807.4 231.6 805.5 231.6Z" fill="white"/>
<path d="M806.7 236.7H786.1C785.7 236.7 785.4 237 785.4 237.4C785.4 237.8 785.7 238.1 786.1 238.1H806.7C807.1 238.1 807.4 237.8 807.4 237.4C807.4 237 807.1 236.7 806.7 236.7Z" fill="white"/>
<path d="M1075.5 724.4C1087.26 724.4 1096.8 714.864 1096.8 703.1C1096.8 691.336 1087.26 681.8 1075.5 681.8C1063.74 681.8 1054.2 691.336 1054.2 703.1C1054.2 714.864 1063.74 724.4 1075.5 724.4Z" fill="#1D3D90"/>
<path d="M1075.5 722C1075.5 722 1075.7 722.3 1076 722.7C1076.2 722.9 1076.3 723.2 1076.5 723.5C1076.6 723.7 1076.7 723.8 1076.8 724C1076.9 724.2 1076.8 724.4 1076.8 724.5C1076.8 726 1076.8 728.1 1076.8 730.1C1076.8 732.1 1076.8 734.2 1076.8 735.7C1076.8 735.8 1076.8 735.9 1076.8 736C1076.8 736.1 1076.8 736.2 1076.8 736.3C1076.7 736.5 1076.6 736.6 1076.5 736.8C1076.3 737.1 1076.1 737.4 1076 737.6C1075.7 738 1075.5 738.3 1075.5 738.3C1075.5 738.3 1075.3 738 1075 737.6C1074.9 737.4 1074.7 737.1 1074.5 736.8C1074.4 736.6 1074.3 736.5 1074.2 736.3C1074.1 736.2 1074.1 736.1 1074.2 736C1074.2 735.9 1074.2 735.8 1074.2 735.7C1074.2 734.2 1074.2 732.1 1074.2 730.1C1074.2 728.1 1074.2 726 1074.2 724.5C1074.2 724.3 1074.1 724.1 1074.2 724C1074.3 723.8 1074.4 723.7 1074.5 723.5C1074.7 723.2 1074.9 722.9 1075 722.7C1075.2 722.3 1075.5 722 1075.5 722Z" fill="#1D3D90"/>
<path d="M1089.5 697.5C1088.9 696.9 1088.2 696.5 1087.8 696.4C1087.6 696.4 1087.5 696.3 1087.3 696.3H1081.6C1081.3 696.3 1080.9 696.4 1080.7 696.6L1075.3 700.6V700V699.9C1075.3 699.7 1075.2 699.6 1075.1 699.4C1074.8 698.7 1074.2 698.2 1073.6 698.1C1072.6 697.8 1071.8 698.5 1071.7 698.6C1071 699.2 1070.9 700 1070.9 700.3V704L1069.5 705.1C1069.4 705.1 1069.4 705.2 1069.3 705.2H1065.5C1065.3 705.2 1065.2 705.2 1065 705.3C1064.5 705.5 1063.3 706 1062.6 707.3C1061.9 708.8 1062.5 710.1 1062.6 710.5C1063.2 711.7 1064.2 712.2 1064.7 712.4C1064.9 712.5 1065.1 712.5 1065.3 712.5H1071.7C1072 712.5 1072.4 712.4 1072.6 712.2L1083.8 703.9C1083.9 703.9 1083.9 703.8 1084 703.8H1087.6C1087.7 703.8 1087.8 703.8 1087.9 703.8C1088.2 703.7 1088.5 703.6 1088.8 703.5C1090 702.8 1090.4 701.5 1090.5 701C1090.8 699 1089.7 697.6 1089.5 697.5ZM1089.3 700.6C1089.2 701 1089 701.8 1088.2 702.3C1088 702.4 1087.8 702.5 1087.6 702.5C1087.6 702.5 1087.6 702.5 1087.5 702.5H1083.9C1083.6 702.5 1083.2 702.6 1083 702.8L1071.8 711.1C1071.7 711.1 1071.7 711.2 1071.6 711.2H1065.2H1065.1C1064.7 711.1 1064 710.7 1063.7 709.9C1063.6 709.7 1063.2 708.7 1063.7 707.7C1064.1 706.8 1065 706.4 1065.3 706.3H1065.4H1069.2C1069.5 706.3 1069.9 706.2 1070.1 706L1081.3 697.6C1081.4 697.6 1081.4 697.5 1081.5 697.5H1087.2H1087.3C1087.6 697.6 1088.1 697.8 1088.5 698.3C1088.7 698.3 1089.5 699.3 1089.3 700.6Z" fill="white"/>
<path d="M1073.1 698C1074.26 698 1075.2 697.06 1075.2 695.9C1075.2 694.74 1074.26 693.8 1073.1 693.8C1071.94 693.8 1071 694.74 1071 695.9C1071 697.06 1071.94 698 1073.1 698Z" fill="white"/>
<path d="M776.5 566.8L978.3 634.6" stroke="#0086CD" stroke-width="1.6068" stroke-miterlimit="10" stroke-linecap="round" stroke-linejoin="round"/>
<path d="M891.3 420.8C891.3 420.8 891.5 421.1 891.8 421.5C892 421.7 892.1 422 892.3 422.3C892.4 422.5 892.5 422.6 892.6 422.8C892.7 423 892.6 423.2 892.6 423.3C892.6 424.8 892.6 426.9 892.6 428.9C892.6 430.9 892.6 433 892.6 434.5C892.6 434.6 892.6 434.7 892.6 434.8C892.6 434.9 892.6 435 892.6 435.1C892.5 435.3 892.4 435.4 892.3 435.6C892.1 435.9 891.9 436.2 891.8 436.4C891.5 436.8 891.3 437.1 891.3 437.1C891.3 437.1 891.1 436.8 890.8 436.4C890.7 436.2 890.5 435.9 890.3 435.6C890.2 435.4 890.1 435.3 890 435.1C889.9 435 889.9 434.9 890 434.8C890 434.7 890 434.6 890 434.5C890 433 890 430.9 890 428.9C890 426.9 890 424.8 890 423.3C890 423.1 889.9 422.9 890 422.8C890.1 422.6 890.2 422.5 890.3 422.3C890.5 422 890.7 421.7 890.8 421.5C891.1 421.1 891.3 420.8 891.3 420.8Z" fill="#1D3D90"/>
<path d="M891.8 423.9C903.95 423.9 913.8 414.05 913.8 401.9C913.8 389.75 903.95 379.9 891.8 379.9C879.65 379.9 869.8 389.75 869.8 401.9C869.8 414.05 879.65 423.9 891.8 423.9Z" fill="#FEC031"/>
<path d="M891.3 380.6C903 380.6 912.6 390.1 912.6 401.9C912.6 413.6 903.1 423.2 891.3 423.2C879.5 423.2 870 413.7 870 401.9C870 390.2 879.5 380.6 891.3 380.6ZM891.3 379C878.7 379 868.4 389.3 868.4 401.9C868.4 414.5 878.7 424.8 891.3 424.8C903.9 424.8 914.2 414.5 914.2 401.9C914.2 389.3 903.9 379 891.3 379Z" fill="#1D3D90"/>
<path d="M882.8 398.7C882.9 397.6 883.3 396.5 884 395.6C884.7 394.7 885.8 393.9 887.1 393.4C888.5 392.8 890.1 392.6 892.1 392.6C893.8 392.6 895.2 392.8 896.5 393.2C897.8 393.6 898.7 394.2 899.4 395C900.1 395.8 900.4 396.6 900.4 397.7C900.4 398.5 900.2 399.2 899.7 399.9C899.2 400.6 898.4 401.1 897.4 401.5C896.4 401.9 895 402.1 893.3 402.1V401.6C894.9 401.5 896.2 401.6 897.3 401.9C898.4 402.2 899.3 402.7 899.9 403.3C900.5 404 900.8 404.8 900.8 405.8C900.8 406.9 900.4 407.9 899.7 408.7C899 409.5 898 410.2 896.6 410.7C895.2 411.2 893.6 411.4 891.7 411.4C889.8 411.4 888.2 411.1 886.8 410.6C885.4 410.1 884.3 409.4 883.5 408.4C882.7 407.4 882.3 406.3 882.3 405.1H887.2C887.3 405.9 887.7 406.5 888.5 406.9C889.3 407.3 890.3 407.5 891.7 407.5C893 407.5 894 407.3 894.6 406.9C895.3 406.5 895.6 406 895.6 405.3C895.6 404.9 895.5 404.6 895.3 404.3C895.1 404 894.7 403.8 894.2 403.7C893.7 403.6 892.9 403.5 891.9 403.5H888.8V400.1H891.9C893.2 400.1 894 399.9 894.6 399.6C895.1 399.3 895.4 398.8 895.4 398.3C895.4 397.7 895.1 397.2 894.5 396.9C893.9 396.6 893 396.4 891.9 396.4C890.7 396.4 889.7 396.6 889 397C888.3 397.4 887.9 398 887.8 398.8H882.8V398.7Z" fill="white"/>
<path d="M1147.3 472.4C1147.3 472.4 1147.5 472.7 1147.8 473.1C1148 473.3 1148.1 473.6 1148.3 473.9C1148.4 474.1 1148.5 474.2 1148.6 474.4C1148.7 474.6 1148.6 474.8 1148.6 474.9C1148.6 476.4 1148.6 478.5 1148.6 480.5C1148.6 482.5 1148.6 484.6 1148.6 486.1C1148.6 486.2 1148.6 486.3 1148.6 486.4C1148.6 486.5 1148.6 486.6 1148.6 486.7C1148.5 486.9 1148.4 487 1148.3 487.2C1148.1 487.5 1147.9 487.8 1147.8 488C1147.5 488.4 1147.3 488.7 1147.3 488.7C1147.3 488.7 1147.1 488.4 1146.8 488C1146.7 487.8 1146.5 487.5 1146.3 487.2C1146.2 487 1146.1 486.9 1146 486.7C1145.9 486.6 1145.9 486.5 1146 486.4C1146 486.3 1146 486.2 1146 486.1C1146 484.6 1146 482.5 1146 480.5C1146 478.5 1146 476.4 1146 474.9C1146 474.7 1145.9 474.5 1146 474.4C1146.1 474.2 1146.2 474.1 1146.3 473.9C1146.5 473.6 1146.7 473.3 1146.8 473.1C1147.1 472.7 1147.3 472.4 1147.3 472.4Z" fill="#1D3D90"/>
<path d="M1148.3 475.5C1160.45 475.5 1170.3 465.65 1170.3 453.5C1170.3 441.35 1160.45 431.5 1148.3 431.5C1136.15 431.5 1126.3 441.35 1126.3 453.5C1126.3 465.65 1136.15 475.5 1148.3 475.5Z" fill="#CF496E"/>
<path d="M1148.3 432.2C1160 432.2 1169.6 441.7 1169.6 453.5C1169.6 465.3 1160.1 474.8 1148.3 474.8C1136.6 474.8 1127 465.3 1127 453.5C1127 441.7 1136.6 432.2 1148.3 432.2ZM1148.3 430.6C1135.7 430.6 1125.4 440.9 1125.4 453.5C1125.4 466.1 1135.7 476.4 1148.3 476.4C1160.9 476.4 1171.2 466.1 1171.2 453.5C1171.2 440.9 1161 430.6 1148.3 430.6Z" fill="#1D3D90"/>
<path d="M1141.6 444.5H1155.7V448.2H1143.1L1145.1 447.3L1144.1 453.8H1142.9C1143.3 453.2 1143.7 452.6 1144.3 452.1C1144.9 451.6 1145.7 451.2 1146.6 450.9C1147.5 450.6 1148.5 450.5 1149.7 450.5C1151.2 450.5 1152.6 450.8 1153.7 451.3C1154.8 451.8 1155.7 452.5 1156.3 453.4C1156.9 454.3 1157.2 455.3 1157.2 456.5C1157.2 457.7 1156.9 458.9 1156.2 459.8C1155.5 460.8 1154.5 461.5 1153.2 462.1C1151.9 462.7 1150.3 462.9 1148.5 462.9C1146.7 462.9 1145.2 462.6 1143.9 462.1C1142.6 461.6 1141.5 460.9 1140.8 460C1140.1 459.1 1139.6 458.1 1139.5 457H1144.4C1144.6 457.6 1145 458.1 1145.7 458.5C1146.4 458.9 1147.3 459.1 1148.5 459.1C1149.3 459.1 1150 459 1150.5 458.8C1151.1 458.6 1151.5 458.3 1151.8 457.9C1152.1 457.5 1152.3 457 1152.3 456.5C1152.3 456 1152.2 455.5 1151.9 455.1C1151.6 454.7 1151.2 454.4 1150.7 454.2C1150.2 454 1149.5 453.9 1148.7 453.9C1148 453.9 1147.4 454 1146.9 454.1C1146.4 454.2 1145.9 454.4 1145.5 454.7C1145.1 455 1144.8 455.2 1144.5 455.4H1140.2L1141.6 444.5Z" fill="white"/>
<path d="M1240.4 562.5C1240.4 562.5 1240.6 562.8 1240.9 563.2C1241.1 563.4 1241.2 563.7 1241.4 564C1241.5 564.2 1241.6 564.3 1241.7 564.5C1241.8 564.7 1241.7 564.9 1241.7 565C1241.7 566.5 1241.7 568.6 1241.7 570.6C1241.7 572.6 1241.7 574.7 1241.7 576.2C1241.7 576.3 1241.7 576.4 1241.7 576.5C1241.7 576.6 1241.7 576.7 1241.7 576.8C1241.6 577 1241.5 577.1 1241.4 577.3C1241.2 577.6 1241 577.9 1240.9 578.1C1240.6 578.5 1240.4 578.8 1240.4 578.8C1240.4 578.8 1240.2 578.5 1239.9 578.1C1239.8 577.9 1239.6 577.6 1239.4 577.3C1239.3 577.1 1239.2 577 1239.1 576.8C1239 576.7 1239 576.6 1239.1 576.5C1239.1 576.4 1239.1 576.3 1239.1 576.2C1239.1 574.7 1239.1 572.6 1239.1 570.6C1239.1 568.6 1239.1 566.5 1239.1 565C1239.1 564.8 1239 564.6 1239.1 564.5C1239.2 564.3 1239.3 564.2 1239.4 564C1239.6 563.7 1239.8 563.4 1239.9 563.2C1240.2 562.8 1240.4 562.5 1240.4 562.5Z" fill="#1D3D90"/>
<path d="M1240.9 565.6C1253.05 565.6 1262.9 555.75 1262.9 543.6C1262.9 531.45 1253.05 521.6 1240.9 521.6C1228.75 521.6 1218.9 531.45 1218.9 543.6C1218.9 555.75 1228.75 565.6 1240.9 565.6Z" fill="#A0DCD2"/>
<path d="M1240.4 522.3C1252.1 522.3 1261.7 531.8 1261.7 543.6C1261.7 555.3 1252.2 564.9 1240.4 564.9C1228.6 564.9 1219.1 555.4 1219.1 543.6C1219.1 531.8 1228.6 522.3 1240.4 522.3ZM1240.4 520.7C1227.8 520.7 1217.5 531 1217.5 543.6C1217.5 556.2 1227.8 566.5 1240.4 566.5C1253 566.5 1263.3 556.2 1263.3 543.6C1263.3 531 1253 520.7 1240.4 520.7Z" fill="#1D3D90"/>
<path d="M1241.4 534.2C1243 534.2 1244.3 534.4 1245.5 534.9C1246.7 535.4 1247.7 536 1248.4 536.8C1249.1 537.6 1249.6 538.5 1249.8 539.5H1245.2C1245 539 1244.6 538.6 1244 538.3C1243.4 538 1242.6 537.8 1241.5 537.8C1240.3 537.8 1239.4 538 1238.6 538.5C1237.8 538.9 1237.2 539.6 1236.9 540.4C1236.6 541.2 1236.3 542.2 1236.3 543.4C1236.3 544.7 1236.5 545.8 1236.9 546.7C1237.3 547.6 1237.9 548.2 1238.7 548.7C1239.5 549.1 1240.4 549.4 1241.6 549.4C1242.4 549.4 1243 549.3 1243.6 549.1C1244.2 548.9 1244.5 548.6 1244.8 548.2C1245.1 547.8 1245.2 547.4 1245.2 547C1245.2 546.5 1245.1 546.1 1244.8 545.7C1244.5 545.3 1244.2 545.1 1243.6 544.9C1243.1 544.7 1242.4 544.6 1241.7 544.6C1240.7 544.6 1239.7 544.8 1238.8 545.3C1237.9 545.7 1237 546.4 1236.3 547.3L1234.6 546.1C1235.1 545.1 1235.7 544.2 1236.5 543.4C1237.3 542.6 1238.2 542 1239.3 541.6C1240.4 541.2 1241.6 540.9 1243 540.9C1244.5 540.9 1245.8 541.1 1246.9 541.6C1248 542.1 1248.8 542.8 1249.4 543.7C1250 544.6 1250.3 545.6 1250.3 546.8C1250.3 548 1250 549.1 1249.3 550C1248.6 550.9 1247.6 551.7 1246.4 552.2C1245.2 552.7 1243.6 553 1241.7 553C1239.5 553 1237.7 552.6 1236.2 551.8C1234.7 551 1233.6 549.9 1232.9 548.5C1232.2 547.1 1231.8 545.5 1231.8 543.7C1231.8 541.9 1232.2 540.3 1232.9 538.8C1233.6 537.4 1234.7 536.3 1236.2 535.5C1237.7 534.7 1239.2 534.2 1241.4 534.2Z" fill="white"/>
<path d="M1180.2 586.4C1180.2 586.4 1180.4 586.7 1180.7 587.1C1180.9 587.3 1181 587.6 1181.2 587.9C1181.3 588.1 1181.4 588.2 1181.5 588.4C1181.6 588.6 1181.5 588.8 1181.5 588.9C1181.5 590.4 1181.5 592.5 1181.5 594.5C1181.5 596.5 1181.5 598.6 1181.5 600.1C1181.5 600.2 1181.5 600.3 1181.5 600.4C1181.5 600.5 1181.5 600.6 1181.5 600.7C1181.4 600.9 1181.3 601 1181.2 601.2C1181 601.5 1180.8 601.8 1180.7 602C1180.4 602.4 1180.2 602.7 1180.2 602.7C1180.2 602.7 1180 602.4 1179.7 602C1179.6 601.8 1179.4 601.5 1179.2 601.2C1179.1 601 1179 600.9 1178.9 600.7C1178.8 600.6 1178.8 600.5 1178.9 600.4C1178.9 600.3 1178.9 600.2 1178.9 600.1C1178.9 598.6 1178.9 596.5 1178.9 594.5C1178.9 592.5 1178.9 590.4 1178.9 588.9C1178.9 588.7 1178.8 588.5 1178.9 588.4C1179 588.2 1179.1 588.1 1179.2 587.9C1179.4 587.6 1179.6 587.3 1179.7 587.1C1180 586.7 1180.2 586.4 1180.2 586.4Z" fill="#1D3D90"/>
<path d="M1180.7 589.5C1192.85 589.5 1202.7 579.65 1202.7 567.5C1202.7 555.35 1192.85 545.5 1180.7 545.5C1168.55 545.5 1158.7 555.35 1158.7 567.5C1158.7 579.65 1168.55 589.5 1180.7 589.5Z" fill="#A0DCD2"/>
<path d="M1180.2 546.2C1191.9 546.2 1201.5 555.7 1201.5 567.5C1201.5 579.2 1192 588.8 1180.2 588.8C1168.5 588.8 1158.9 579.3 1158.9 567.5C1158.9 555.8 1168.4 546.2 1180.2 546.2ZM1180.2 544.6C1167.6 544.6 1157.3 554.9 1157.3 567.5C1157.3 580.1 1167.6 590.4 1180.2 590.4C1192.8 590.4 1203.1 580.1 1203.1 567.5C1203.1 554.9 1192.8 544.6 1180.2 544.6Z" fill="#1D3D90"/>
<path d="M1174.6 576.5L1184.5 561V562.4H1172V558.5H1189.1V562.5L1180.3 576.5H1174.6Z" fill="white"/>
<path d="M1118.2 613C1118.2 613 1118.4 613.3 1118.7 613.7C1118.9 613.9 1119 614.2 1119.2 614.5C1119.3 614.7 1119.4 614.8 1119.5 615C1119.6 615.2 1119.5 615.4 1119.5 615.5C1119.5 617 1119.5 619.1 1119.5 621.1C1119.5 623.1 1119.5 625.2 1119.5 626.7C1119.5 626.8 1119.5 626.9 1119.5 627C1119.5 627.1 1119.5 627.2 1119.5 627.3C1119.4 627.5 1119.3 627.6 1119.2 627.8C1119 628.1 1118.8 628.4 1118.7 628.6C1118.4 629 1118.2 629.3 1118.2 629.3C1118.2 629.3 1118 629 1117.7 628.6C1117.6 628.4 1117.4 628.1 1117.2 627.8C1117.1 627.6 1117 627.5 1116.9 627.3C1116.8 627.2 1116.8 627.1 1116.9 627C1116.9 626.9 1116.9 626.8 1116.9 626.7C1116.9 625.2 1116.9 623.1 1116.9 621.1C1116.9 619.1 1116.9 617 1116.9 615.5C1116.9 615.3 1116.8 615.1 1116.9 615C1117 614.8 1117.1 614.7 1117.2 614.5C1117.4 614.2 1117.6 613.9 1117.7 613.7C1118 613.3 1118.2 613 1118.2 613Z" fill="#1D3D90"/>
<path d="M1118.7 616.1C1130.85 616.1 1140.7 606.25 1140.7 594.1C1140.7 581.95 1130.85 572.1 1118.7 572.1C1106.55 572.1 1096.7 581.95 1096.7 594.1C1096.7 606.25 1106.55 616.1 1118.7 616.1Z" fill="#1D3D90"/>
<path d="M1118.2 572.9C1129.9 572.9 1139.5 582.4 1139.5 594.2C1139.5 605.9 1130 615.5 1118.2 615.5C1106.5 615.5 1096.9 606 1096.9 594.2C1096.9 582.4 1106.4 572.9 1118.2 572.9ZM1118.2 571.2C1105.6 571.2 1095.3 581.5 1095.3 594.1C1095.3 606.7 1105.6 617 1118.2 617C1130.8 617 1141.1 606.7 1141.1 594.1C1141.1 581.5 1130.8 571.2 1118.2 571.2Z" fill="#1D3D90"/>
<path d="M1117.7 584.7C1120.7 584.7 1122.9 585.2 1124.5 586.1C1126.1 587 1126.9 588.3 1126.9 589.9C1126.9 591.3 1126.2 592.4 1124.9 593.2C1123.5 593.9 1121.6 594.3 1119.2 594.2V593.7C1121.8 593.5 1123.8 593.8 1125.3 594.6C1126.8 595.4 1127.5 596.6 1127.5 598.2C1127.5 599.9 1126.7 601.3 1125 602.2C1123.3 603.1 1120.9 603.6 1117.8 603.6C1114.7 603.6 1112.3 603.1 1110.6 602.2C1108.9 601.3 1108.1 599.9 1108.1 598.2C1108.1 596.5 1108.8 595.3 1110.3 594.5C1111.8 593.7 1113.8 593.4 1116.4 593.6V594.1C1114 594.2 1112.1 593.9 1110.7 593.1C1109.3 592.4 1108.6 591.3 1108.6 589.8C1108.6 588.2 1109.4 586.9 1111 586C1112.5 585.2 1114.7 584.7 1117.7 584.7ZM1117.7 599.7C1119.2 599.7 1120.4 599.5 1121.2 599.2C1122 598.9 1122.4 598.4 1122.4 597.7C1122.4 597 1122 596.5 1121.2 596.2C1120.4 595.9 1119.3 595.7 1117.7 595.7C1116.2 595.7 1115 595.9 1114.2 596.2C1113.4 596.5 1113 597 1113 597.7C1113 598.4 1113.4 598.9 1114.2 599.2C1115 599.5 1116.2 599.7 1117.7 599.7ZM1117.7 592.2C1118.6 592.2 1119.4 592.1 1120 592C1120.6 591.9 1121.1 591.7 1121.4 591.4C1121.7 591.1 1121.9 590.8 1121.9 590.4C1121.9 589.8 1121.5 589.4 1120.8 589C1120.1 588.7 1119 588.5 1117.7 588.5C1116.4 588.5 1115.3 588.7 1114.6 589C1113.9 589.3 1113.5 589.8 1113.5 590.4C1113.5 590.8 1113.7 591.2 1114 591.4C1114.3 591.7 1114.8 591.9 1115.4 592C1116 592.2 1116.8 592.2 1117.7 592.2Z" fill="white"/>
<path d="M1055.7 641.8C1055.7 641.8 1055.9 642.1 1056.2 642.5C1056.4 642.7 1056.5 643 1056.7 643.3C1056.8 643.5 1056.9 643.6 1057 643.8C1057.1 644 1057 644.2 1057 644.3C1057 645.8 1057 647.9 1057 649.9C1057 651.9 1057 654 1057 655.5C1057 655.6 1057 655.7 1057 655.8C1057 655.9 1057 656 1057 656.1C1056.9 656.3 1056.8 656.4 1056.7 656.6C1056.5 656.9 1056.3 657.2 1056.2 657.4C1055.9 657.8 1055.7 658.1 1055.7 658.1C1055.7 658.1 1055.5 657.8 1055.2 657.4C1055.1 657.2 1054.9 656.9 1054.7 656.6C1054.6 656.4 1054.5 656.3 1054.4 656.1C1054.3 656 1054.3 655.9 1054.4 655.8C1054.4 655.7 1054.4 655.6 1054.4 655.5C1054.4 654 1054.4 651.9 1054.4 649.9C1054.4 647.9 1054.4 645.8 1054.4 644.3C1054.4 644.1 1054.3 643.9 1054.4 643.8C1054.5 643.6 1054.6 643.5 1054.7 643.3C1054.9 643 1055.1 642.7 1055.2 642.5C1055.5 642.1 1055.7 641.8 1055.7 641.8Z" fill="#1D3D90"/>
<path d="M1056.2 644.9C1068.35 644.9 1078.2 635.05 1078.2 622.9C1078.2 610.75 1068.35 600.9 1056.2 600.9C1044.05 600.9 1034.2 610.75 1034.2 622.9C1034.2 635.05 1044.05 644.9 1056.2 644.9Z" fill="#70C083"/>
<path d="M1055.7 601.6C1067.4 601.6 1077 611.1 1077 622.9C1077 634.6 1067.5 644.2 1055.7 644.2C1043.9 644.2 1034.4 634.7 1034.4 622.9C1034.5 611.2 1044 601.6 1055.7 601.6ZM1055.7 600C1043.1 600 1032.8 610.3 1032.8 622.9C1032.8 635.5 1043.1 645.8 1055.7 645.8C1068.3 645.8 1078.6 635.5 1078.6 622.9C1078.6 610.3 1068.3 600 1055.7 600Z" fill="#1D3D90"/>
<path d="M1055.7 632.3C1054.1 632.3 1052.8 632.1 1051.6 631.6C1050.4 631.1 1049.4 630.5 1048.7 629.7C1048 628.9 1047.5 628 1047.3 627H1051.9C1052.1 627.5 1052.6 627.9 1053.1 628.2C1053.6 628.5 1054.5 628.7 1055.6 628.7C1056.8 628.7 1057.8 628.5 1058.6 628C1059.4 627.6 1059.9 626.9 1060.3 626.1C1060.7 625.3 1060.9 624.3 1060.9 623.1C1060.9 621.8 1060.7 620.7 1060.3 619.8C1059.9 618.9 1059.3 618.3 1058.5 617.8C1057.7 617.4 1056.8 617.1 1055.6 617.1C1054.8 617.1 1054.1 617.2 1053.6 617.4C1053.1 617.6 1052.7 617.9 1052.4 618.3C1052.1 618.7 1052 619.1 1052 619.5C1052 620 1052.1 620.4 1052.4 620.7C1052.7 621.1 1053.1 621.3 1053.6 621.5C1054.1 621.7 1054.8 621.8 1055.5 621.8C1056.5 621.8 1057.5 621.6 1058.4 621.1C1059.3 620.7 1060.2 620 1060.9 619.1L1062.6 620.3C1062.1 621.3 1061.5 622.2 1060.7 623C1059.9 623.8 1059 624.4 1057.9 624.8C1056.8 625.2 1055.6 625.5 1054.2 625.5C1052.7 625.5 1051.4 625.3 1050.3 624.8C1049.2 624.3 1048.4 623.6 1047.8 622.7C1047.2 621.8 1046.9 620.8 1046.9 619.7C1046.9 618.5 1047.3 617.4 1047.9 616.5C1048.5 615.6 1049.6 614.8 1050.9 614.3C1052.2 613.8 1053.8 613.5 1055.6 613.5C1057.8 613.5 1059.6 613.9 1061.1 614.7C1062.6 615.5 1063.7 616.6 1064.4 618C1065.1 619.4 1065.5 621 1065.5 622.8C1065.5 624.6 1065.2 626.2 1064.4 627.7C1063.6 629.2 1062.6 630.2 1061.1 631C1059.7 631.9 1057.9 632.3 1055.7 632.3Z" fill="white"/>
<path d="M970.1 586.4C970.1 586.4 970.3 586.7 970.6 587.1C970.8 587.3 970.9 587.6 971.1 587.9C971.2 588.1 971.3 588.2 971.4 588.4C971.5 588.6 971.4 588.8 971.4 588.9C971.4 590.4 971.4 592.5 971.4 594.5C971.4 596.5 971.4 598.6 971.4 600.1C971.4 600.2 971.4 600.3 971.4 600.4C971.4 600.5 971.4 600.6 971.4 600.7C971.3 600.9 971.2 601 971.1 601.2C970.9 601.5 970.7 601.8 970.6 602C970.3 602.4 970.1 602.7 970.1 602.7C970.1 602.7 969.9 602.4 969.6 602C969.5 601.8 969.3 601.5 969.1 601.2C969 601 968.9 600.9 968.8 600.7C968.7 600.6 968.7 600.5 968.8 600.4C968.8 600.3 968.8 600.2 968.8 600.1C968.8 598.6 968.8 596.5 968.8 594.5C968.8 592.5 968.8 590.4 968.8 588.9C968.8 588.7 968.7 588.5 968.8 588.4C968.9 588.2 969 588.1 969.1 587.9C969.3 587.6 969.5 587.3 969.6 587.1C969.9 586.7 970.1 586.4 970.1 586.4Z" fill="#1D3D90"/>
<path d="M970.6 589.5C982.75 589.5 992.6 579.65 992.6 567.5C992.6 555.35 982.75 545.5 970.6 545.5C958.45 545.5 948.6 555.35 948.6 567.5C948.6 579.65 958.45 589.5 970.6 589.5Z" fill="#70C083"/>
<path d="M970.1 546.2C981.8 546.2 991.4 555.7 991.4 567.5C991.4 579.2 981.9 588.8 970.1 588.8C958.4 588.8 948.8 579.3 948.8 567.5C948.9 555.8 958.4 546.2 970.1 546.2ZM970.1 544.6C957.5 544.6 947.2 554.9 947.2 567.5C947.2 580.1 957.5 590.4 970.1 590.4C982.7 590.4 993 580.1 993 567.5C993 554.9 982.8 544.6 970.1 544.6Z" fill="#1D3D90"/>
<path d="M964 558.5V576.5H959.1V560.2L961.4 562.3L953.6 563.7V559.9L960.3 558.5H964Z" fill="white"/>
<path d="M976.9 576.9C974.9 576.9 973.1 576.5 971.5 575.7C970 574.9 968.8 573.8 968 572.4C967.2 571 966.8 569.3 966.8 567.5C966.8 565.6 967.2 564 968 562.6C968.8 561.2 970 560.1 971.5 559.3C973 558.5 974.8 558.1 976.9 558.1C978.9 558.1 980.7 558.5 982.2 559.3C983.7 560.1 984.9 561.2 985.7 562.6C986.5 564 986.9 565.7 986.9 567.5C986.9 569.4 986.5 571 985.7 572.4C984.9 573.8 983.7 574.9 982.2 575.7C980.7 576.5 978.9 576.9 976.9 576.9ZM976.9 572.8C978.5 572.8 979.8 572.3 980.7 571.4C981.6 570.5 982 569.1 982 567.5C982 565.8 981.6 564.5 980.7 563.5C979.8 562.6 978.5 562.1 976.9 562.1C975.3 562.1 974 562.6 973.1 563.5C972.2 564.4 971.7 565.7 971.7 567.5C971.7 569.2 972.2 570.5 973.1 571.4C974 572.3 975.3 572.8 976.9 572.8Z" fill="white"/>
<path d="M907 566.5C907 566.5 907.2 566.8 907.5 567.2C907.7 567.4 907.8 567.7 908 568C908.1 568.2 908.2 568.3 908.3 568.5C908.4 568.7 908.3 568.9 908.3 569C908.3 570.5 908.3 572.6 908.3 574.6C908.3 576.6 908.3 578.7 908.3 580.2C908.3 580.3 908.3 580.4 908.3 580.5C908.3 580.6 908.3 580.7 908.3 580.8C908.2 581 908.1 581.1 908 581.3C907.8 581.6 907.6 581.9 907.5 582.1C907.2 582.5 907 582.8 907 582.8C907 582.8 906.8 582.5 906.5 582.1C906.4 581.9 906.2 581.6 906 581.3C905.9 581.1 905.8 581 905.7 580.8C905.6 580.7 905.6 580.6 905.7 580.5C905.7 580.4 905.7 580.3 905.7 580.2C905.7 578.7 905.7 576.6 905.7 574.6C905.7 572.6 905.7 570.5 905.7 569C905.7 568.8 905.6 568.6 905.7 568.5C905.8 568.3 905.9 568.2 906 568C906.2 567.7 906.4 567.4 906.5 567.2C906.8 566.8 907 566.5 907 566.5Z" fill="#1D3D90"/>
<path d="M907.5 569.6C919.65 569.6 929.5 559.75 929.5 547.6C929.5 535.45 919.65 525.6 907.5 525.6C895.35 525.6 885.5 535.45 885.5 547.6C885.5 559.75 895.35 569.6 907.5 569.6Z" fill="#9A7DEC"/>
<path d="M907 526.3C918.7 526.3 928.3 535.8 928.3 547.6C928.3 559.3 918.8 568.9 907 568.9C895.2 568.9 885.7 559.4 885.7 547.6C885.8 535.9 895.3 526.3 907 526.3ZM907 524.7C894.4 524.7 884.1 535 884.1 547.6C884.1 560.2 894.4 570.5 907 570.5C919.6 570.5 929.9 560.2 929.9 547.6C929.9 535 919.6 524.7 907 524.7Z" fill="#1D3D90"/>
<path d="M905.8 538.6V556.6H900.9V540.3L903.2 542.4L895.4 543.8V540L902.1 538.6H905.8Z" fill="white"/>
<path d="M918.2 538.6V556.6H913.3V540.3L915.6 542.4L907.8 543.8V540L914.5 538.6H918.2Z" fill="white"/>
<path d="M1023.3 531C1023.3 531 1023.5 531.3 1023.8 531.7C1024 531.9 1024.1 532.2 1024.3 532.5C1024.4 532.7 1024.5 532.8 1024.6 533C1024.7 533.2 1024.6 533.4 1024.6 533.5C1024.6 535 1024.6 537.1 1024.6 539.1C1024.6 541.1 1024.6 543.2 1024.6 544.7C1024.6 544.8 1024.6 544.9 1024.6 545C1024.6 545.1 1024.6 545.2 1024.6 545.3C1024.5 545.5 1024.4 545.6 1024.3 545.8C1024.1 546.1 1023.9 546.4 1023.8 546.6C1023.5 547 1023.3 547.3 1023.3 547.3C1023.3 547.3 1023.1 547 1022.8 546.6C1022.7 546.4 1022.5 546.1 1022.3 545.8C1022.2 545.6 1022.1 545.5 1022 545.3C1021.9 545.2 1021.9 545.1 1022 545C1022 544.9 1022 544.8 1022 544.7C1022 543.2 1022 541.1 1022 539.1C1022 537.1 1022 535 1022 533.5C1022 533.3 1021.9 533.1 1022 533C1022.1 532.8 1022.2 532.7 1022.3 532.5C1022.5 532.2 1022.7 531.9 1022.8 531.7C1023 531.2 1023.3 531 1023.3 531Z" fill="#1D3D90"/>
<path d="M1023.8 534C1035.95 534 1045.8 524.15 1045.8 512C1045.8 499.85 1035.95 490 1023.8 490C1011.65 490 1001.8 499.85 1001.8 512C1001.8 524.15 1011.65 534 1023.8 534Z" fill="#80C2E2"/>
<path d="M1023.3 490.8C1035 490.8 1044.6 500.3 1044.6 512.1C1044.6 523.8 1035.1 533.4 1023.3 533.4C1011.5 533.4 1002 523.9 1002 512.1C1002 500.3 1011.5 490.8 1023.3 490.8ZM1023.3 489.2C1010.7 489.2 1000.4 499.5 1000.4 512.1C1000.4 524.7 1010.7 535 1023.3 535C1035.9 535 1046.2 524.7 1046.2 512.1C1046.2 499.5 1035.9 489.2 1023.3 489.2Z" fill="#1D3D90"/>
<path d="M1018.2 503V521H1013.3V504.7L1015.6 506.8L1007.8 508.2V504.4L1014.5 503H1018.2Z" fill="white"/>
<path d="M1021.1 508.8C1021.2 507.7 1021.6 506.6 1022.3 505.7C1023 504.8 1024.1 504 1025.4 503.5C1026.8 502.9 1028.4 502.7 1030.4 502.7C1032.1 502.7 1033.5 502.9 1034.8 503.3C1036.1 503.7 1037 504.3 1037.7 505.1C1038.4 505.9 1038.7 506.7 1038.7 507.8C1038.7 508.6 1038.5 509.3 1038 510C1037.5 510.7 1036.7 511.2 1035.7 511.6C1034.7 512 1033.3 512.2 1031.6 512.2V511.7C1033.2 511.6 1034.5 511.7 1035.6 512C1036.7 512.3 1037.6 512.8 1038.2 513.4C1038.8 514.1 1039.1 514.9 1039.1 515.9C1039.1 517 1038.7 518 1038 518.8C1037.3 519.6 1036.3 520.3 1034.9 520.8C1033.5 521.3 1031.9 521.5 1030 521.5C1028.1 521.5 1026.5 521.2 1025.1 520.7C1023.7 520.2 1022.6 519.5 1021.8 518.5C1021 517.5 1020.6 516.4 1020.6 515.2H1025.5C1025.6 516 1026 516.6 1026.8 517C1027.6 517.4 1028.6 517.6 1030 517.6C1031.3 517.6 1032.3 517.4 1032.9 517C1033.6 516.6 1033.9 516.1 1033.9 515.4C1033.9 515 1033.8 514.7 1033.6 514.4C1033.4 514.1 1033 513.9 1032.5 513.8C1032 513.7 1031.2 513.6 1030.2 513.6H1027.1V510.2H1030.2C1031.5 510.2 1032.3 510 1032.9 509.7C1033.4 509.4 1033.7 508.9 1033.7 508.4C1033.7 507.8 1033.4 507.3 1032.8 507C1032.2 506.7 1031.3 506.5 1030.2 506.5C1029 506.5 1028 506.7 1027.3 507.1C1026.6 507.5 1026.2 508.1 1026.1 508.9H1021.1V508.8Z" fill="white"/>
<path d="M958.9 498.6C958.9 498.6 959.1 498.9 959.4 499.3C959.6 499.5 959.7 499.8 959.9 500.1C960 500.3 960.1 500.4 960.2 500.6C960.3 500.8 960.2 501 960.2 501.1C960.2 502.6 960.2 504.7 960.2 506.7C960.2 508.7 960.2 510.8 960.2 512.3C960.2 512.4 960.2 512.5 960.2 512.6C960.2 512.7 960.2 512.8 960.2 512.9C960.1 513.1 960 513.2 959.9 513.4C959.7 513.7 959.5 514 959.4 514.2C959.1 514.6 958.9 514.9 958.9 514.9C958.9 514.9 958.7 514.6 958.4 514.2C958.3 514 958.1 513.7 957.9 513.4C957.8 513.2 957.7 513.1 957.6 512.9C957.5 512.8 957.5 512.7 957.6 512.6C957.6 512.5 957.6 512.4 957.6 512.3C957.6 510.8 957.6 508.7 957.6 506.7C957.6 504.7 957.6 502.6 957.6 501.1C957.6 500.9 957.5 500.7 957.6 500.6C957.7 500.4 957.8 500.3 957.9 500.1C958.1 499.8 958.3 499.5 958.4 499.3C958.7 498.9 958.9 498.6 958.9 498.6Z" fill="#1D3D90"/>
<path d="M959.4 501.7C971.55 501.7 981.4 491.85 981.4 479.7C981.4 467.55 971.55 457.7 959.4 457.7C947.25 457.7 937.4 467.55 937.4 479.7C937.4 491.85 947.25 501.7 959.4 501.7Z" fill="#80C2E2"/>
<path d="M958.9 458.4C970.6 458.4 980.2 467.9 980.2 479.7C980.2 491.5 970.7 501 958.9 501C947.2 501 937.6 491.5 937.6 479.7C937.6 467.9 947.2 458.4 958.9 458.4ZM958.9 456.8C946.3 456.8 936 467.1 936 479.7C936 492.3 946.3 502.6 958.9 502.6C971.5 502.6 981.8 492.3 981.8 479.7C981.8 467.1 971.5 456.8 958.9 456.8Z" fill="#1D3D90"/>
<path d="M953.9 470.7V488.7H949V472.4L951.3 474.5L943.5 475.9V472.1L950.2 470.7H953.9Z" fill="white"/>
<path d="M956.5 477.2C956.6 475.8 957.1 474.6 957.9 473.5C958.7 472.5 959.8 471.7 961.2 471.1C962.6 470.5 964.1 470.3 965.9 470.3C967.6 470.3 969 470.6 970.3 471.1C971.5 471.6 972.5 472.3 973.2 473.2C973.9 474.1 974.2 475.1 974.2 476.3C974.2 477.2 974 478.1 973.5 478.9C973 479.7 972.2 480.5 971.2 481.2C970.1 482 968.8 482.8 967 483.6L962 486L961.8 484.7H974.7V488.6H956.9V485.1L964.6 480.8C965.8 480.1 966.7 479.5 967.4 479.1C968.1 478.6 968.5 478.2 968.8 477.8C969.1 477.4 969.2 477 969.2 476.5C969.2 476 969.1 475.6 968.8 475.2C968.5 474.8 968.1 474.6 967.6 474.3C967.1 474.1 966.4 474 965.7 474C964.7 474 964 474.1 963.3 474.4C962.7 474.7 962.2 475 961.9 475.5C961.6 476 961.4 476.5 961.3 477H956.5V477.2Z" fill="white"/>
<path d="M1026.7 425.8C1026.7 425.8 1026.9 426.1 1027.2 426.5C1027.4 426.7 1027.5 427 1027.7 427.3C1027.8 427.5 1027.9 427.6 1028 427.8C1028.1 428 1028 428.2 1028 428.3C1028 429.8 1028 431.9 1028 433.9C1028 435.9 1028 438 1028 439.5C1028 439.6 1028 439.7 1028 439.8C1028 439.9 1028 440 1028 440.1C1027.9 440.3 1027.8 440.4 1027.7 440.6C1027.5 440.9 1027.3 441.2 1027.2 441.4C1026.9 441.8 1026.7 442.1 1026.7 442.1C1026.7 442.1 1026.5 441.8 1026.2 441.4C1026.1 441.2 1025.9 440.9 1025.7 440.6C1025.6 440.4 1025.5 440.3 1025.4 440.1C1025.3 440 1025.3 439.9 1025.4 439.8C1025.4 439.7 1025.4 439.6 1025.4 439.5C1025.4 438 1025.4 435.9 1025.4 433.9C1025.4 431.9 1025.4 429.8 1025.4 428.3C1025.4 428.1 1025.3 427.9 1025.4 427.8C1025.5 427.6 1025.6 427.5 1025.7 427.3C1025.9 427 1026.1 426.7 1026.2 426.5C1026.5 426.1 1026.7 425.8 1026.7 425.8Z" fill="#1D3D90"/>
<path d="M1027.2 428.9C1039.35 428.9 1049.2 419.05 1049.2 406.9C1049.2 394.75 1039.35 384.9 1027.2 384.9C1015.05 384.9 1005.2 394.75 1005.2 406.9C1005.2 419.05 1015.05 428.9 1027.2 428.9Z" fill="#FEC031"/>
<path d="M1026.7 385.6C1038.4 385.6 1048 395.1 1048 406.9C1048 418.7 1038.5 428.2 1026.7 428.2C1015 428.2 1005.4 418.7 1005.4 406.9C1005.4 395.1 1015 385.6 1026.7 385.6ZM1026.7 384C1014.1 384 1003.8 394.3 1003.8 406.9C1003.8 419.5 1014.1 429.8 1026.7 429.8C1039.3 429.8 1049.6 419.5 1049.6 406.9C1049.6 394.3 1039.3 384 1026.7 384Z" fill="#1D3D90"/>
<path d="M1033.9 397.9V415.9H1029V400H1030.5L1021.1 410.3V408.7H1036.8V412.4H1017.5V409L1027.6 397.9H1033.9Z" fill="white"/>
<path d="M844.1 472.4C844.1 472.4 844.3 472.7 844.6 473.1C844.8 473.3 844.9 473.6 845.1 473.9C845.2 474.1 845.3 474.2 845.4 474.4C845.5 474.6 845.4 474.8 845.4 474.9C845.4 476.4 845.4 478.5 845.4 480.5C845.4 482.5 845.4 484.6 845.4 486.1C845.4 486.2 845.4 486.3 845.4 486.4C845.4 486.5 845.4 486.6 845.4 486.7C845.3 486.9 845.2 487 845.1 487.2C844.9 487.5 844.7 487.8 844.6 488C844.3 488.4 844.1 488.7 844.1 488.7C844.1 488.7 843.9 488.4 843.6 488C843.5 487.8 843.3 487.5 843.1 487.2C843 487 842.9 486.9 842.8 486.7C842.7 486.6 842.7 486.5 842.8 486.4C842.8 486.3 842.8 486.2 842.8 486.1C842.8 484.6 842.8 482.5 842.8 480.5C842.8 478.5 842.8 476.4 842.8 474.9C842.8 474.7 842.7 474.5 842.8 474.4C842.9 474.2 843 474.1 843.1 473.9C843.3 473.6 843.5 473.3 843.6 473.1C843.9 472.7 844.1 472.4 844.1 472.4Z" fill="#1D3D90"/>
<path d="M844.6 475.5C856.75 475.5 866.6 465.65 866.6 453.5C866.6 441.35 856.75 431.5 844.6 431.5C832.45 431.5 822.6 441.35 822.6 453.5C822.6 465.65 832.45 475.5 844.6 475.5Z" fill="#FEC031"/>
<path d="M844.1 432.2C855.8 432.2 865.4 441.7 865.4 453.5C865.4 465.3 855.9 474.8 844.1 474.8C832.4 474.8 822.8 465.3 822.8 453.5C822.8 441.7 832.4 432.2 844.1 432.2ZM844.1 430.6C831.5 430.6 821.2 440.9 821.2 453.5C821.2 466.1 831.5 476.4 844.1 476.4C856.7 476.4 867 466.1 867 453.5C867 440.9 856.7 430.6 844.1 430.6Z" fill="#1D3D90"/>
<path d="M835.4 450.9C835.5 449.5 836 448.3 836.8 447.2C837.6 446.2 838.7 445.4 840.1 444.8C841.5 444.2 843 444 844.8 444C846.5 444 847.9 444.3 849.2 444.8C850.4 445.3 851.4 446 852.1 446.9C852.8 447.8 853.1 448.8 853.1 450C853.1 450.9 852.9 451.8 852.4 452.6C851.9 453.4 851.1 454.2 850.1 454.9C849 455.7 847.7 456.5 845.9 457.3L841 459.8L840.8 458.5H853.7V462.4H835.9V459L843.6 454.7C844.8 454 845.7 453.4 846.4 453C847.1 452.5 847.5 452.1 847.8 451.7C848.1 451.3 848.2 450.9 848.2 450.4C848.2 449.9 848.1 449.5 847.8 449.1C847.5 448.7 847.1 448.5 846.6 448.2C846.1 448 845.4 447.9 844.7 447.9C843.7 447.9 843 448 842.3 448.3C841.7 448.6 841.2 448.9 840.9 449.4C840.6 449.9 840.4 450.4 840.3 450.9H835.4Z" fill="white"/>
<path d="M785.8 524C785.8 524 786 524.3 786.3 524.7C786.5 524.9 786.6 525.2 786.8 525.5C786.9 525.7 787 525.8 787.1 526C787.2 526.2 787.1 526.4 787.1 526.5C787.1 528 787.1 530.1 787.1 532.1C787.1 534.1 787.1 536.2 787.1 537.7C787.1 537.8 787.1 537.9 787.1 538C787.1 538.1 787.1 538.2 787.1 538.3C787 538.5 786.9 538.6 786.8 538.8C786.6 539.1 786.4 539.4 786.3 539.6C786 540 785.8 540.3 785.8 540.3C785.8 540.3 785.6 540 785.3 539.6C785.2 539.4 785 539.1 784.8 538.8C784.7 538.6 784.6 538.5 784.5 538.3C784.4 538.2 784.4 538.1 784.5 538C784.5 537.9 784.5 537.8 784.5 537.7C784.5 536.2 784.5 534.1 784.5 532.1C784.5 530.1 784.5 528 784.5 526.5C784.5 526.3 784.4 526.1 784.5 526C784.6 525.8 784.7 525.7 784.8 525.5C785 525.2 785.2 524.9 785.3 524.7C785.6 524.3 785.8 524 785.8 524Z" fill="#1D3D90"/>
<path d="M785.8 527.1C797.95 527.1 807.8 517.25 807.8 505.1C807.8 492.95 797.95 483.1 785.8 483.1C773.65 483.1 763.8 492.95 763.8 505.1C763.8 517.25 773.65 527.1 785.8 527.1Z" fill="#E6789D"/>
<path d="M785.5 483.8C797.2 483.8 806.8 493.3 806.8 505.1C806.8 516.8 797.3 526.4 785.5 526.4C773.8 526.4 764.2 516.9 764.2 505.1C764.2 493.3 773.7 483.8 785.5 483.8ZM785.5 482.2C772.9 482.2 762.6 492.5 762.6 505.1C762.6 517.7 772.9 528 785.5 528C798.1 528 808.4 517.7 808.4 505.1C808.4 492.5 798.1 482.2 785.5 482.2Z" fill="#1D3D90"/>
<path d="M790.3 496.1V514.1H785.4V497.8L787.7 499.9L779.9 501.3V497.5L786.6 496.1H790.3Z" fill="white"/>
<path d="M1423.6 934.2H1062.9V990.5H1423.6V934.2Z" fill="#F8493B"/>
<path d="M1093.3 959.3L1087.2 967.7H1081.4L1087.7 959.3H1093.3ZM1096.3 957.7V961.2H1088.8V961.1C1087.4 961.1 1086.2 960.9 1085.2 960.4C1084.2 959.9 1083.4 959.3 1082.8 958.4C1082.2 957.6 1081.9 956.6 1081.9 955.4C1081.9 954.2 1082.2 953.2 1082.8 952.4C1083.4 951.5 1084.2 950.9 1085.2 950.4C1086.2 949.9 1087.4 949.7 1088.8 949.7H1099.8V967.7H1094.8V951L1097 953.2H1089.5C1088.7 953.2 1088 953.4 1087.6 953.8C1087.1 954.2 1086.9 954.7 1086.9 955.4C1086.9 956.1 1087.1 956.6 1087.6 957C1088.1 957.4 1088.7 957.6 1089.5 957.6H1096.3V957.7Z" fill="white"/>
<path d="M1102.6 954H1107.5V957.9L1107.3 958.5V962.3L1107.5 963.4V971.6H1102.6V954ZM1106 960.9C1106.2 959.4 1106.6 958.1 1107.3 957C1108 955.9 1108.8 955.1 1109.8 954.5C1110.8 953.9 1112 953.6 1113.3 953.6C1114.6 953.6 1115.8 953.9 1116.8 954.5C1117.8 955.1 1118.6 956 1119.2 957C1119.8 958.1 1120.1 959.4 1120.1 960.8C1120.1 962.2 1119.8 963.5 1119.2 964.6C1118.6 965.7 1117.8 966.5 1116.8 967.1C1115.8 967.7 1114.6 968 1113.3 968C1112 968 1110.8 967.7 1109.8 967.1C1108.8 966.5 1107.9 965.7 1107.3 964.6C1106.7 963.5 1106.2 962.3 1106 960.9ZM1115.1 960.9C1115.1 960.2 1115 959.6 1114.7 959.1C1114.4 958.6 1114 958.2 1113.5 957.9C1113 957.6 1112.4 957.4 1111.8 957.4C1111.1 957.4 1110.5 957.6 1109.9 957.9C1109.3 958.2 1108.8 958.6 1108.3 959.1C1107.8 959.6 1107.5 960.2 1107.3 960.9C1107.5 961.6 1107.9 962.2 1108.3 962.7C1108.7 963.2 1109.3 963.6 1109.9 963.9C1110.5 964.2 1111.1 964.3 1111.8 964.3C1112.4 964.3 1113 964.2 1113.5 963.9C1114 963.6 1114.4 963.2 1114.7 962.7C1115 962.1 1115.1 961.5 1115.1 960.9Z" fill="white"/>
<path d="M1122.2 967.7V954H1129.6L1133.8 965H1132.4L1136.6 954H1144V967.7H1139.4V955.8H1140.2L1135.4 967.7H1130.9L1126.1 955.9H1126.9V967.8H1122.2V967.7Z" fill="white"/>
<path d="M1160.2 960.9C1160 962.3 1159.5 963.6 1158.9 964.7C1158.3 965.8 1157.4 966.6 1156.4 967.2C1155.4 967.8 1154.2 968.1 1152.9 968.1C1151.6 968.1 1150.4 967.8 1149.4 967.2C1148.4 966.6 1147.6 965.8 1147 964.7C1146.4 963.6 1146.1 962.3 1146.1 960.9C1146.1 959.4 1146.4 958.2 1147 957.1C1147.6 956 1148.4 955.2 1149.4 954.6C1150.4 954 1151.6 953.7 1152.9 953.7C1154.2 953.7 1155.4 954 1156.4 954.6C1157.4 955.2 1158.3 956 1158.9 957.1C1159.5 958.2 1160 959.4 1160.2 960.9ZM1151.1 960.9C1151.1 961.6 1151.2 962.2 1151.5 962.7C1151.8 963.2 1152.2 963.6 1152.7 963.9C1153.2 964.2 1153.8 964.3 1154.4 964.3C1155.1 964.3 1155.7 964.2 1156.3 963.9C1156.9 963.6 1157.4 963.2 1157.9 962.7C1158.4 962.2 1158.7 961.6 1158.9 960.9C1158.7 960.2 1158.3 959.6 1157.9 959.1C1157.5 958.6 1156.9 958.2 1156.3 957.9C1155.7 957.6 1155.1 957.4 1154.4 957.4C1153.8 957.4 1153.2 957.6 1152.7 957.9C1152.2 958.2 1151.8 958.6 1151.5 959.1C1151.2 959.6 1151.1 960.2 1151.1 960.9ZM1159 967.7L1158.4 962.8L1159 960.9L1158.4 959L1159 954H1164.1L1163.2 960.8L1164.1 967.7H1159Z" fill="white"/>
<path d="M1166.5 954H1171.4V957.9L1171.2 958.5V962.3L1171.4 963.4V971.6H1166.5V954ZM1169.8 960.9C1170 959.4 1170.4 958.1 1171.1 957C1171.8 955.9 1172.6 955.1 1173.6 954.5C1174.6 953.9 1175.8 953.6 1177.1 953.6C1178.4 953.6 1179.6 953.9 1180.6 954.5C1181.6 955.1 1182.4 956 1183 957C1183.6 958.1 1183.9 959.4 1183.9 960.8C1183.9 962.2 1183.6 963.5 1183 964.6C1182.4 965.7 1181.6 966.5 1180.6 967.1C1179.6 967.7 1178.4 968 1177.1 968C1175.8 968 1174.6 967.7 1173.6 967.1C1172.6 966.5 1171.7 965.7 1171.1 964.6C1170.5 963.5 1170.1 962.3 1169.8 960.9ZM1179 960.9C1179 960.2 1178.9 959.6 1178.6 959.1C1178.3 958.6 1177.9 958.2 1177.4 957.9C1176.9 957.6 1176.3 957.4 1175.7 957.4C1175 957.4 1174.4 957.6 1173.8 957.9C1173.2 958.2 1172.7 958.6 1172.2 959.1C1171.7 959.6 1171.4 960.2 1171.2 960.9C1171.4 961.6 1171.8 962.2 1172.2 962.7C1172.6 963.2 1173.2 963.6 1173.8 963.9C1174.4 964.2 1175 964.3 1175.7 964.3C1176.3 964.3 1176.9 964.2 1177.4 963.9C1177.9 963.6 1178.3 963.2 1178.6 962.7C1178.9 962.1 1179 961.5 1179 960.9Z" fill="white"/>
<path d="M1186 967.7V954H1190.9V963.9L1189.5 963.4L1197.1 954H1202.3L1190.4 967.7H1186ZM1197.2 967.7L1193.3 961L1197 958.4L1202.7 967.7H1197.2Z" fill="white"/>
<path d="M1216.7 960.9C1216.5 962.3 1216 963.6 1215.4 964.7C1214.8 965.8 1213.9 966.6 1212.9 967.2C1211.9 967.8 1210.7 968.1 1209.4 968.1C1208.1 968.1 1206.9 967.8 1205.9 967.2C1204.9 966.6 1204.1 965.8 1203.5 964.7C1202.9 963.6 1202.6 962.3 1202.6 960.9C1202.6 959.4 1202.9 958.2 1203.5 957.1C1204.1 956 1204.9 955.2 1205.9 954.6C1206.9 954 1208.1 953.7 1209.4 953.7C1210.7 953.7 1211.9 954 1212.9 954.6C1213.9 955.2 1214.8 956 1215.4 957.1C1216 958.2 1216.5 959.4 1216.7 960.9ZM1207.5 960.9C1207.5 961.6 1207.6 962.2 1207.9 962.7C1208.2 963.2 1208.6 963.6 1209.1 963.9C1209.6 964.2 1210.2 964.3 1210.8 964.3C1211.5 964.3 1212.1 964.2 1212.7 963.9C1213.3 963.6 1213.8 963.2 1214.3 962.7C1214.7 962.2 1215.1 961.6 1215.3 960.9C1215.1 960.2 1214.7 959.6 1214.3 959.1C1213.9 958.6 1213.3 958.2 1212.7 957.9C1212.1 957.6 1211.5 957.4 1210.8 957.4C1210.2 957.4 1209.6 957.6 1209.1 957.9C1208.6 958.2 1208.2 958.6 1207.9 959.1C1207.7 959.6 1207.5 960.2 1207.5 960.9ZM1215.5 967.7L1214.9 962.8L1215.5 960.9L1214.9 959L1215.5 954H1220.6L1219.7 960.8L1220.6 967.7H1215.5Z" fill="white"/>
<path d="M1228.9 967.7V954H1233.7V965L1232.6 964.7L1239.8 954H1246.1V967.7H1241.3V956.3L1242.4 956.7L1235 967.7H1228.9Z" fill="white"/>
<path d="M1248.9 954H1253.8V967.7H1248.9V954ZM1251.7 958.9H1262.1V962.5H1251.7V958.9ZM1260.3 954H1265.2V967.7H1260.3V954Z" fill="white"/>
<path d="M1284.2 961.9C1284.1 963.1 1283.6 964.2 1282.9 965.1C1282.1 966 1281.1 966.7 1279.9 967.3C1278.7 967.8 1277.3 968.1 1275.8 968.1C1274.1 968.1 1272.6 967.8 1271.4 967.2C1270.1 966.6 1269.1 965.7 1268.4 964.7C1267.7 963.6 1267.3 962.4 1267.3 960.9C1267.3 959.5 1267.7 958.2 1268.4 957.1C1269.1 956 1270.1 955.2 1271.4 954.5C1272.7 953.9 1274.2 953.6 1275.8 953.6C1277.3 953.6 1278.7 953.9 1279.9 954.4C1281.1 954.9 1282.1 955.6 1282.9 956.6C1283.7 957.5 1284.1 958.6 1284.2 959.9H1279.3C1279.1 959.1 1278.7 958.5 1278.1 958C1277.5 957.6 1276.7 957.3 1275.7 957.3C1275 957.3 1274.4 957.4 1273.8 957.7C1273.2 958 1272.8 958.4 1272.6 958.9C1272.3 959.4 1272.2 960.1 1272.2 960.9C1272.2 961.7 1272.3 962.3 1272.6 962.9C1272.9 963.4 1273.3 963.8 1273.8 964.1C1274.3 964.4 1275 964.5 1275.7 964.5C1276.6 964.5 1277.4 964.3 1278.1 963.8C1278.7 963.3 1279.2 962.7 1279.3 962H1284.2V961.9Z" fill="white"/>
<path d="M1284.7 954H1300V957.7H1284.7V954ZM1289.9 955.7H1294.8V967.7H1289.9V955.7Z" fill="white"/>
<path d="M1301.7 967.7V954H1306.5V965L1305.4 964.7L1312.6 954H1318.9V967.7H1314.1V956.3L1315.2 956.7L1307.8 967.7H1301.7Z" fill="white"/>
<path d="M1320.7 954H1336V957.7H1320.7V954ZM1325.9 955.7H1330.8V967.7H1325.9V955.7Z" fill="white"/>
<path d="M1342.4 966.4L1336.6 954H1342L1347.2 966.4H1342.4ZM1342.2 972C1341.2 972 1340.3 971.9 1339.5 971.6C1338.7 971.4 1338 971 1337.2 970.5V967.1C1338 967.6 1338.7 967.9 1339.3 968.1C1340 968.3 1340.7 968.4 1341.5 968.4C1342.2 968.4 1342.7 968.3 1343.3 968C1343.8 967.7 1344.2 967.2 1344.5 966.4L1349.8 953.9H1355L1348.4 967.9C1347.9 968.9 1347.4 969.7 1346.7 970.3C1346 970.9 1345.3 971.3 1344.6 971.6C1343.8 971.9 1343 972 1342.2 972Z" fill="white"/>
<path d="M1355.3 954H1370.6V957.7H1355.3V954ZM1360.5 955.7H1365.4V967.7H1360.5V955.7Z" fill="white"/>
<path d="M1380.1 968.1C1378.3 968.1 1376.8 967.8 1375.5 967.2C1374.2 966.6 1373.2 965.8 1372.4 964.7C1371.7 963.6 1371.3 962.3 1371.3 960.9C1371.3 959.4 1371.7 958.2 1372.4 957.1C1373.1 956 1374.2 955.2 1375.5 954.6C1376.8 954 1378.3 953.7 1380.1 953.7C1381.8 953.7 1383.4 954 1384.7 954.6C1386 955.2 1387 956.1 1387.8 957.1C1388.5 958.2 1388.9 959.5 1388.9 960.9C1388.9 962.3 1388.5 963.6 1387.8 964.7C1387.1 965.8 1386 966.6 1384.7 967.2C1383.3 967.8 1381.8 968.1 1380.1 968.1ZM1380.1 964.5C1380.9 964.5 1381.6 964.4 1382.2 964.1C1382.8 963.8 1383.2 963.4 1383.5 962.9C1383.8 962.4 1384 961.7 1384 961C1384 960.2 1383.8 959.6 1383.5 959C1383.2 958.5 1382.8 958.1 1382.2 957.8C1381.6 957.5 1380.9 957.4 1380.1 957.4C1379.3 957.4 1378.6 957.5 1378 957.8C1377.4 958.1 1377 958.5 1376.7 959C1376.4 959.5 1376.2 960.2 1376.2 960.9C1376.2 961.7 1376.4 962.3 1376.7 962.8C1377 963.3 1377.4 963.8 1378 964C1378.6 964.2 1379.3 964.5 1380.1 964.5Z" fill="white"/>
<path d="M1390.5 967.7L1391.4 960.8L1390.5 954H1401.7C1403 954 1404.1 954.3 1404.9 954.9C1405.7 955.5 1406.1 956.4 1406.1 957.4C1406.1 958.4 1405.7 959.2 1404.9 959.8C1404.1 960.4 1403 960.8 1401.6 960.9L1401.9 960.1C1403.5 960.2 1404.8 960.5 1405.6 961.1C1406.5 961.7 1406.9 962.6 1406.9 963.7C1406.9 964.9 1406.5 965.8 1405.6 966.5C1404.7 967.2 1403.5 967.6 1402 967.6H1390.5V967.7ZM1395.2 966.7L1393.3 964.7H1400.3C1400.8 964.7 1401.2 964.6 1401.5 964.4C1401.8 964.2 1401.9 963.8 1401.9 963.4C1401.9 963 1401.8 962.7 1401.5 962.5C1401.2 962.3 1400.8 962.1 1400.2 962.1H1394.3V959.6H1399.6C1400.1 959.6 1400.5 959.5 1400.7 959.3C1401 959.1 1401.1 958.8 1401.1 958.4C1401.1 958 1401 957.7 1400.8 957.5C1400.6 957.3 1400.2 957.2 1399.7 957.2H1393.4L1395.3 955.2L1396.1 961L1395.2 966.7Z" fill="white"/>
<path d="M1158.3 631.5H1237.1V934.2" stroke="#1D3D90" stroke-width="1.4173" stroke-linecap="round" stroke-linejoin="round"/>
<path d="M1158.3 636.8C1161.23 636.8 1163.6 634.427 1163.6 631.5C1163.6 628.573 1161.23 626.2 1158.3 626.2C1155.37 626.2 1153 628.573 1153 631.5C1153 634.427 1155.37 636.8 1158.3 636.8Z" fill="#1D3D90"/>
<path d="M1440.4 984.4C1434.5 984.4 1429.7 979.6 1429.7 973.7V973.1H1417.6V973.7C1417.6 979.6 1412.8 984.4 1406.9 984.4H1406.3V996.5H1406.9C1412.8 996.5 1417.6 1001.3 1417.6 1007.2V1007.8H1429.7V1007.2C1429.7 1001.3 1434.5 996.5 1440.4 996.5H1441V984.4H1440.4Z" fill="#1D3D90"/>
<path d="M1440.4 990.4C1431.1 990.4 1423.6 997.9 1423.6 1007.2C1423.6 997.9 1416.1 990.4 1406.8 990.4C1416.1 990.4 1423.6 982.9 1423.6 973.6C1423.6 982.9 1431.1 990.4 1440.4 990.4Z" fill="white"/>
<path d="M908.5 353.2L903.7 335.6L877.4 342L908.5 353.2Z" fill="#F8493B"/>
</svg>
