<svg width="1920" height="1080" viewBox="0 0 1920 1080" fill="none" xmlns="http://www.w3.org/2000/svg">
<path d="M1477.7 555L1578.8 521.4L1627.7 570.5L1584.3 584.8L1735.1 673.7L746.8 1002.3L670.1 925.6L574.4 980.2L439 903.1L346.9 856.3L204.3 785.1L303.1 715.5L181.5 657.5L364.1 475.4L518.8 321L760.7 79L1028.2 168.1L993.6 202.8L1106.3 240.4L1067.2 276.4L1039.7 266L850.7 403.6L594 622.2L680 668.7L855.8 760.6L1068.9 689.7L1053.6 672.8L1324.4 582.6L1340.3 600.1L1477.7 555Z" fill="#ADCFFF"/>
<path d="M1477.7 526.5L1578.8 492.9L1627.7 542L1584.3 556.3L1735.1 645.2L746.8 973.8L670.1 897.1L574.4 951.7L439 874.6L346.9 827.8L204.3 756.6L303.1 687L181.5 629L364.1 446.9L518.8 292.5L760.7 50.5L1028.2 139.6L993.6 174.3L1106.3 211.9L1047.6 270.6L881.8 436.4L849.2 425.4L650 624.8L680 640.2L775.4 566.8L977.3 634.2L831 719.2L855.8 732.1L1068.9 661.1L1045.8 638L1316.6 547.8L1340.3 571.6L1477.7 526.5Z" fill="white"/>
<path d="M977.1 698.8L1004.4 727.8L828.5 787L801.3 759.9L840.1 744.5L977.1 698.8Z" fill="#3387FF"/>
<path d="M537.1 677.1L808.3 767.1L887.4 755.5L857.1 739.7L657.9 635.7L537.1 677.1Z" fill="#3387FF"/>
<path d="M1108.8 692.8L1368.3 606.9L1317.1 553.5L1056 640.9L1108.8 692.8Z" fill="#3387FF"/>
<path d="M302.4 687.9L203.5 756.4L251.3 779.5L298.4 803.3L346.5 827.8L439.1 874.9L450.9 881.2L462.1 887.6L473.4 893.7L484.5 900.1L495.8 906.4L506.9 912.7L551.2 938.3L562.1 944.7L574.2 951.6L670.3 898.4" stroke="#0086CD" stroke-width="4.7389" stroke-miterlimit="10" stroke-linecap="round" stroke-linejoin="round"/>
<path d="M1588.3 555.6L1577.9 559L1571.5 555.3L1561.6 549.7L1509 567.2" stroke="#0086CD" stroke-width="4.8204" stroke-miterlimit="10" stroke-linecap="round" stroke-linejoin="round"/>
<path d="M1604.5 565.2L1530.7 589.7L1522.1 580.9L1495.8 554.5" stroke="#0086CD" stroke-width="4.8204" stroke-miterlimit="10" stroke-linecap="round" stroke-linejoin="round"/>
<path d="M470 465.3L396.2 539.2" stroke="#0086CD" stroke-width="4.8204" stroke-miterlimit="10" stroke-linecap="round" stroke-linejoin="round"/>
<path d="M576.9 501L520.9 557.1L503.7 574.4" stroke="#0086CD" stroke-width="4.8204" stroke-miterlimit="10" stroke-linecap="round" stroke-linejoin="round"/>
<path d="M415.8 692.2L408 687.7L371.4 675.8" stroke="#0086CD" stroke-width="4.8204" stroke-miterlimit="10" stroke-linecap="round" stroke-linejoin="round"/>
<path d="M734.7 748.8L801.3 771.1" stroke="#0086CD" stroke-width="1.6068" stroke-miterlimit="10" stroke-linecap="round" stroke-linejoin="round"/>
<path d="M589.6 700.5L718.2 743.4" stroke="#0086CD" stroke-width="1.6068" stroke-miterlimit="10" stroke-linecap="round" stroke-linejoin="round"/>
<path d="M509.2 673.7L572.5 694.8" stroke="#0086CD" stroke-width="1.6068" stroke-miterlimit="10" stroke-linecap="round" stroke-linejoin="round"/>
<path d="M801.3 771.1L913.2 882.9L941 910.7" stroke="#0086CD" stroke-width="4.8204" stroke-miterlimit="10" stroke-linecap="round" stroke-linejoin="round"/>
<path d="M340.8 520.7L396.2 539.1" stroke="#0086CD" stroke-width="4.8204" stroke-miterlimit="10" stroke-linecap="round" stroke-linejoin="round"/>
<path d="M1308.9 717.7L1283.6 692.2L1279.8 688.3" stroke="#0086CD" stroke-width="4.7389" stroke-miterlimit="10" stroke-linecap="round" stroke-linejoin="round"/>
<path d="M947.7 837.3L980.5 870" stroke="#0086CD" stroke-width="4.8204" stroke-miterlimit="10" stroke-linecap="round" stroke-linejoin="round"/>
<path d="M415.8 692.2L419.7 694.3" stroke="#0086CD" stroke-width="4.8204" stroke-miterlimit="10" stroke-linecap="round" stroke-linejoin="round"/>
<path d="M436.2 703.9L446.4 709.9L403.5 734.8" stroke="#0086CD" stroke-width="4.8204" stroke-miterlimit="10" stroke-linecap="round" stroke-linejoin="round"/>
<path d="M570.8 573.7L544.5 588.6L504.4 575.2" stroke="#0086CD" stroke-width="4.8204" stroke-miterlimit="10" stroke-linecap="round" stroke-linejoin="round"/>
<path d="M400.1 664.9L265.4 620.1" stroke="#0086CD" stroke-width="1.6068" stroke-miterlimit="10" stroke-linecap="round" stroke-linejoin="round"/>
<path d="M418.8 646.2L284 601.3" stroke="#0086CD" stroke-width="1.6068" stroke-miterlimit="10" stroke-linecap="round" stroke-linejoin="round"/>
<path d="M342.8 704.5L371.4 675.8" stroke="#0086CD" stroke-width="4.8204" stroke-miterlimit="10" stroke-linecap="round" stroke-linejoin="round"/>
<path d="M1481.2 525.3L1582.7 491.7L1631.8 540.9L1632 541.1L1588.3 555.6" stroke="#0086CD" stroke-width="7.3641" stroke-miterlimit="10" stroke-linecap="round" stroke-linejoin="round"/>
<path d="M1366.8 614.6L1246.3 654.7" stroke="#0086CD" stroke-width="4.8204" stroke-miterlimit="10" stroke-linecap="round" stroke-linejoin="round"/>
<path d="M1005.7 734.8L885.5 774.9L947.7 837.3" stroke="#0086CD" stroke-width="4.8204" stroke-miterlimit="10" stroke-linecap="round" stroke-linejoin="round"/>
<path d="M1443.1 538.3C1340.3 438.1 1198 353.4 1027.7 291" stroke="#0086CD" stroke-width="1.6068" stroke-miterlimit="10" stroke-linecap="round" stroke-linejoin="round"/>
<path d="M487.7 322.3L761.8 413.6" stroke="#0086CD" stroke-width="4.8204" stroke-miterlimit="10" stroke-linecap="round" stroke-linejoin="round"/>
<path d="M1167.6 764.7L1207.2 751.5L1240 740.6" stroke="#0086CD" stroke-width="1.6068" stroke-miterlimit="10" stroke-linecap="round" stroke-linejoin="round"/>
<path d="M414.4 447.1L362.3 499.4" stroke="#0086CD" stroke-width="4.8204" stroke-miterlimit="10" stroke-linecap="round" stroke-linejoin="round"/>
<path d="M348.1 513.5L340.8 520.7" stroke="#0086CD" stroke-width="4.8204" stroke-miterlimit="10" stroke-linecap="round" stroke-linejoin="round"/>
<path d="M1100.8 829.9L1046 848.2L980.5 870" stroke="#0086CD" stroke-width="4.8204" stroke-miterlimit="10" stroke-linecap="round" stroke-linejoin="round"/>
<path d="M1207.2 751.5L1229.2 773.4L1260.2 804.4" stroke="#0086CD" stroke-width="1.6068" stroke-miterlimit="10" stroke-linecap="round" stroke-linejoin="round"/>
<path d="M1068 797.1L947.7 837.3" stroke="#0086CD" stroke-width="4.8204" stroke-miterlimit="10" stroke-linecap="round" stroke-linejoin="round"/>
<path d="M1459.6 666.3L1450 669.3L1428.3 676.6" stroke="#0086CD" stroke-width="1.6068" stroke-miterlimit="10" stroke-linecap="round" stroke-linejoin="round"/>
<path d="M1240 740.6L1261.9 762.6L1229.2 773.4" stroke="#0086CD" stroke-width="1.6068" stroke-miterlimit="10" stroke-linecap="round" stroke-linejoin="round"/>
<path d="M509.2 673.7L446.4 709.9" stroke="#0086CD" stroke-width="4.8204" stroke-miterlimit="10" stroke-linecap="round" stroke-linejoin="round"/>
<path d="M665.7 506.2L394.4 415.8" stroke="#0086CD" stroke-width="4.8204" stroke-miterlimit="10" stroke-linecap="round" stroke-linejoin="round"/>
<path d="M682.5 489.4L665.7 506.2" stroke="#0086CD" stroke-width="4.8204" stroke-miterlimit="10" stroke-linecap="round" stroke-linejoin="round"/>
<path d="M729.7 444.6L694.1 480.8" stroke="#0086CD" stroke-width="1.6068" stroke-miterlimit="10" stroke-linecap="round" stroke-linejoin="round"/>
<path d="M760.6 413.3L740.8 433.5" stroke="#0086CD" stroke-width="1.6068" stroke-miterlimit="10" stroke-linecap="round" stroke-linejoin="round"/>
<path d="M665.7 506.2L659.5 512.5" stroke="#0086CD" stroke-width="4.8204" stroke-miterlimit="10" stroke-linecap="round" stroke-linejoin="round"/>
<path d="M981.8 276.4L1027.1 291.5" stroke="#0086CD" stroke-width="4.8204" stroke-miterlimit="10" stroke-linecap="round" stroke-linejoin="round"/>
<path d="M1005.7 734.8L1068 797.1" stroke="#0086CD" stroke-width="4.8204" stroke-miterlimit="10" stroke-linecap="round" stroke-linejoin="round"/>
<path d="M1588.1 555.6L1604.5 565.2L1739.5 644.5L1260.2 804.4L1220.4 817.7L1066.6 868.9L977.7 898.5L941 910.7L747.2 975.4L602.7 830.8L302.4 687.9L180.5 629.7L394.4 415.8L487.7 322.3L600.3 209.7L762 48L1030.4 137.4L995.7 172.2L1108.8 209.9L1049.8 268.9" stroke="#0086CD" stroke-width="7.4983" stroke-miterlimit="10" stroke-linecap="round" stroke-linejoin="round"/>
<path d="M1467.4 512.2L1429.8 525.7" stroke="#0086CD" stroke-width="1.6068" stroke-miterlimit="10" stroke-linecap="round" stroke-linejoin="round"/>
<path d="M1452.9 499L1415.7 512.9" stroke="#0086CD" stroke-width="1.6068" stroke-miterlimit="10" stroke-linecap="round" stroke-linejoin="round"/>
<path d="M1438 486L1401.2 500.4" stroke="#0086CD" stroke-width="1.6068" stroke-miterlimit="10" stroke-linecap="round" stroke-linejoin="round"/>
<path d="M1422.5 473L1386.3 487.9" stroke="#0086CD" stroke-width="1.6068" stroke-miterlimit="10" stroke-linecap="round" stroke-linejoin="round"/>
<path d="M1406.6 460.4L1371 475.7" stroke="#0086CD" stroke-width="1.6068" stroke-miterlimit="10" stroke-linecap="round" stroke-linejoin="round"/>
<path d="M1390.3 447.9L1355.1 463.5" stroke="#0086CD" stroke-width="1.6068" stroke-miterlimit="10" stroke-linecap="round" stroke-linejoin="round"/>
<path d="M1373.5 435.5L1338.9 451.6" stroke="#0086CD" stroke-width="1.6068" stroke-miterlimit="10" stroke-linecap="round" stroke-linejoin="round"/>
<path d="M1356.2 423.5L1322.2 440" stroke="#0086CD" stroke-width="1.6068" stroke-miterlimit="10" stroke-linecap="round" stroke-linejoin="round"/>
<path d="M1338.6 411.6L1305.2 428.4" stroke="#0086CD" stroke-width="1.6068" stroke-miterlimit="10" stroke-linecap="round" stroke-linejoin="round"/>
<path d="M1320.5 399.9L1287.8 417.2" stroke="#0086CD" stroke-width="1.6068" stroke-miterlimit="10" stroke-linecap="round" stroke-linejoin="round"/>
<path d="M1302 388.5L1269.9 406.1" stroke="#0086CD" stroke-width="1.6068" stroke-miterlimit="10" stroke-linecap="round" stroke-linejoin="round"/>
<path d="M1283.2 377.2L1251.7 395.3" stroke="#0086CD" stroke-width="1.6068" stroke-miterlimit="10" stroke-linecap="round" stroke-linejoin="round"/>
<path d="M1263.9 366.2L1233 384.6" stroke="#0086CD" stroke-width="1.6068" stroke-miterlimit="10" stroke-linecap="round" stroke-linejoin="round"/>
<path d="M1244.3 355.4L1214 374.1" stroke="#0086CD" stroke-width="1.6068" stroke-miterlimit="10" stroke-linecap="round" stroke-linejoin="round"/>
<path d="M1224.2 344.8L1194.7 363.9" stroke="#0086CD" stroke-width="1.6068" stroke-miterlimit="10" stroke-linecap="round" stroke-linejoin="round"/>
<path d="M1203.8 334.6L1175 354" stroke="#0086CD" stroke-width="1.6068" stroke-miterlimit="10" stroke-linecap="round" stroke-linejoin="round"/>
<path d="M1183 324.4L1154.9 344.3" stroke="#0086CD" stroke-width="1.6068" stroke-miterlimit="10" stroke-linecap="round" stroke-linejoin="round"/>
<path d="M1162 314.7L1134.5 334.8" stroke="#0086CD" stroke-width="1.6068" stroke-miterlimit="10" stroke-linecap="round" stroke-linejoin="round"/>
<path d="M1140.4 305.1L1113.7 325.5" stroke="#0086CD" stroke-width="1.6068" stroke-miterlimit="10" stroke-linecap="round" stroke-linejoin="round"/>
<path d="M1118.7 295.7L1092.7 316.5" stroke="#0086CD" stroke-width="1.6068" stroke-miterlimit="10" stroke-linecap="round" stroke-linejoin="round"/>
<path d="M1096.6 286.8L1071.3 307.7" stroke="#0086CD" stroke-width="1.6068" stroke-miterlimit="10" stroke-linecap="round" stroke-linejoin="round"/>
<path d="M1074.1 278L1049.7 299.3" stroke="#0086CD" stroke-width="1.6068" stroke-miterlimit="10" stroke-linecap="round" stroke-linejoin="round"/>
<path d="M1451.9 535.2L1458.6 515.3L1424.4 509.6L1429.3 489.2L1394.8 484.5L1398.3 463.9L1363.3 459.9L1365.4 439.4L1330.2 436.2L1330.9 415.5L1295.4 413.2L1294.6 392.6L1259.1 391.1L1256.8 370.4L1221.1 369.8L1217.3 349.3L1181.8 349.4L1176.5 329L1140.9 330.1L1134.2 309.9L1098.7 311.6L1090.7 291.5L1055.4 294.3L1044.7 274" stroke="#0086CD" stroke-width="1.6068" stroke-miterlimit="10" stroke-linecap="round" stroke-linejoin="round"/>
<path d="M1049.8 268.9L1027.1 291.5" stroke="#0086CD" stroke-width="4.8204" stroke-miterlimit="10" stroke-linecap="round" stroke-linejoin="round"/>
<path d="M1481.2 525.3L1442.9 538.3" stroke="#0086CD" stroke-width="4.8204" stroke-miterlimit="10" stroke-linecap="round" stroke-linejoin="round"/>
<path d="M1030.2 288.6L882.5 436.6L849.8 425.7L650.1 625.5L679.9 641" stroke="#0086CD" stroke-width="1.6068" stroke-miterlimit="10" stroke-linecap="round" stroke-linejoin="round"/>
<path d="M831.6 720.1L856.4 733.1L1070 661.9L1046.9 638.8L1318.4 548.4L1342 572L1442.9 538.3" stroke="#0086CD" stroke-width="1.6068" stroke-miterlimit="10" stroke-linecap="round" stroke-linejoin="round"/>
<path d="M679.9 641L775.9 567.3L978.2 634.9L831.6 720.1" stroke="#0086CD" stroke-width="1.6068" stroke-miterlimit="10" stroke-linecap="round" stroke-linejoin="round"/>
<path d="M396.2 539.1L504.4 575.2" stroke="#0086CD" stroke-width="4.8204" stroke-miterlimit="10" stroke-linecap="round" stroke-linejoin="round"/>
<path d="M487.6 322.3H487.7" stroke="#0086CD" stroke-width="2.1606" stroke-miterlimit="10" stroke-linecap="round" stroke-linejoin="round"/>
<path d="M340.8 520.7L330.9 517.3" stroke="#0086CD" stroke-width="4.8204" stroke-miterlimit="10" stroke-linecap="round" stroke-linejoin="round"/>
<path d="M312.3 511.2L302.4 507.8" stroke="#0086CD" stroke-width="4.8204" stroke-miterlimit="10" stroke-linecap="round" stroke-linejoin="round"/>
<path d="M805.2 401.4L883.8 322.9" stroke="#0086CD" stroke-width="4.8204" stroke-miterlimit="10" stroke-linecap="round" stroke-linejoin="round"/>
<path d="M599.6 272.1L647.5 288" stroke="#0086CD" stroke-width="4.8204" stroke-miterlimit="10" stroke-linecap="round" stroke-linejoin="round"/>
<path d="M585 286.8L632.7 302.8" stroke="#0086CD" stroke-width="4.8204" stroke-miterlimit="10" stroke-linecap="round" stroke-linejoin="round"/>
<path d="M687.6 362.1L727.4 375.5" stroke="#0086CD" stroke-width="4.8204" stroke-miterlimit="10" stroke-linecap="round" stroke-linejoin="round"/>
<path d="M805.2 401.4L756.1 385.1L752.9 384" stroke="#0086CD" stroke-width="4.8204" stroke-miterlimit="10" stroke-linecap="round" stroke-linejoin="round"/>
<path d="M599.6 272.1L632.7 239.4" stroke="#0086CD" stroke-width="4.8204" stroke-miterlimit="10" stroke-linecap="round" stroke-linejoin="round"/>
<path d="M554 317.6L585 286.8" stroke="#0086CD" stroke-width="4.8204" stroke-miterlimit="10" stroke-linecap="round" stroke-linejoin="round"/>
<path d="M554 317.6L601.8 333.5" stroke="#0086CD" stroke-width="4.8204" stroke-miterlimit="10" stroke-linecap="round" stroke-linejoin="round"/>
<path d="M602 333.5L666.3 355" stroke="#0086CD" stroke-width="4.8204" stroke-miterlimit="10" stroke-linecap="round" stroke-linejoin="round"/>
<path d="M685.9 361.5L727.4 375.5" stroke="#0086CD" stroke-width="4.8204" stroke-miterlimit="10" stroke-linecap="round" stroke-linejoin="round"/>
<path d="M713.8 266.2L728.5 271.2" stroke="#0086CD" stroke-width="4.8204" stroke-miterlimit="10" stroke-linecap="round" stroke-linejoin="round"/>
<path d="M631 238.8L678.5 254.5L695 260.1L666.8 250.6L618.5 234.6L617.7 234.3" stroke="#0086CD" stroke-width="4.8204" stroke-miterlimit="10" stroke-linecap="round" stroke-linejoin="round"/>
<path d="M586.2 223.8L600.3 228.4L601.8 229" stroke="#0086CD" stroke-width="4.8204" stroke-miterlimit="10" stroke-linecap="round" stroke-linejoin="round"/>
<path d="M805.2 401.4L883.8 322.9" stroke="#0086CD" stroke-width="4.8204" stroke-miterlimit="10" stroke-linecap="round" stroke-linejoin="round"/>
<path d="M780.5 288.5L705.4 363.5L702 367" stroke="#0086CD" stroke-width="4.8204" stroke-miterlimit="10" stroke-linecap="round" stroke-linejoin="round"/>
<path d="M856.6 313.8L777.9 392.3" stroke="#0086CD" stroke-width="4.8204" stroke-miterlimit="10" stroke-linecap="round" stroke-linejoin="round"/>
<path d="M599.6 272.1L647.5 288" stroke="#0086CD" stroke-width="4.8204" stroke-miterlimit="10" stroke-linecap="round" stroke-linejoin="round"/>
<path d="M585 286.8L632.7 302.8" stroke="#0086CD" stroke-width="4.8204" stroke-miterlimit="10" stroke-linecap="round" stroke-linejoin="round"/>
<path d="M883.8 322.9L728.7 271.2L722.3 277.5L649.9 349.4" stroke="#0086CD" stroke-width="4.8204" stroke-miterlimit="10" stroke-linecap="round" stroke-linejoin="round"/>
<path d="M680 255.4L651 284.4L635.1 300.3L605.5 329.8L601.8 333.5" stroke="#0086CD" stroke-width="4.8204" stroke-miterlimit="10" stroke-linecap="round" stroke-linejoin="round"/>
<path d="M687.6 362.1L727.4 375.5" stroke="#0086CD" stroke-width="4.8204" stroke-miterlimit="10" stroke-linecap="round" stroke-linejoin="round"/>
<path d="M805.2 401.4L756.1 385.1L752.9 384" stroke="#0086CD" stroke-width="4.8204" stroke-miterlimit="10" stroke-linecap="round" stroke-linejoin="round"/>
<path d="M599.6 272.1L632.7 239.4" stroke="#0086CD" stroke-width="4.8204" stroke-miterlimit="10" stroke-linecap="round" stroke-linejoin="round"/>
<path d="M601.8 333.5L554 317.6L585 286.8" stroke="#0086CD" stroke-width="4.8204" stroke-miterlimit="10" stroke-linecap="round" stroke-linejoin="round"/>
<path d="M602 333.5L666.3 355" stroke="#0086CD" stroke-width="4.8204" stroke-miterlimit="10" stroke-linecap="round" stroke-linejoin="round"/>
<path d="M685.9 361.5L727.4 375.5" stroke="#0086CD" stroke-width="4.8204" stroke-miterlimit="10" stroke-linecap="round" stroke-linejoin="round"/>
<path d="M995.7 172.2L913.7 253.6" stroke="#0086CD" stroke-width="1.6068" stroke-miterlimit="10" stroke-linecap="round" stroke-linejoin="round"/>
<path d="M604.1 205.9L872.5 295.4L913.7 254.4" stroke="#0086CD" stroke-width="4.8204" stroke-miterlimit="10" stroke-linecap="round" stroke-linejoin="round"/>
<path d="M408 687.7L362.3 714.1" stroke="#0086CD" stroke-width="4.8204" stroke-miterlimit="10" stroke-linecap="round" stroke-linejoin="round"/>
<path d="M418.8 646.2L400.1 664.9" stroke="#0086CD" stroke-width="1.6068" stroke-miterlimit="10" stroke-linecap="round" stroke-linejoin="round"/>
<path d="M284 601.3L265.4 620" stroke="#0086CD" stroke-width="1.5656" stroke-miterlimit="10" stroke-linecap="round" stroke-linejoin="round"/>
<path d="M1067.6 796.7L1077.3 806.4" stroke="#0086CD" stroke-width="4.8204" stroke-miterlimit="10" stroke-linecap="round" stroke-linejoin="round"/>
<path d="M1091.3 820.4L1092.1 821.2L1100.9 829.9" stroke="#0086CD" stroke-width="4.8204" stroke-miterlimit="10" stroke-linecap="round" stroke-linejoin="round"/>
<path d="M1246.3 654.7L1255.9 664.4L1256.5 665" stroke="#0086CD" stroke-width="4.8204" stroke-miterlimit="10" stroke-linecap="round" stroke-linejoin="round"/>
<path d="M1270.5 679.1L1272.1 680.6L1279.8 688.3" stroke="#0086CD" stroke-width="4.8204" stroke-miterlimit="10" stroke-linecap="round" stroke-linejoin="round"/>
<path d="M1400.5 648.4L1390.9 638.6" stroke="#0086CD" stroke-width="4.8204" stroke-miterlimit="10" stroke-linecap="round" stroke-linejoin="round"/>
<path d="M1376.8 624.6L1366.8 614.6" stroke="#0086CD" stroke-width="4.8204" stroke-miterlimit="10" stroke-linecap="round" stroke-linejoin="round"/>
<path d="M578.3 501.4L599.2 508.4" stroke="#0086CD" stroke-width="4.8204" stroke-miterlimit="10" stroke-linecap="round" stroke-linejoin="round"/>
<path d="M627.6 517.9L646.6 524.2" stroke="#0086CD" stroke-width="4.8204" stroke-miterlimit="10" stroke-linecap="round" stroke-linejoin="round"/>
<path d="M1361.6 770.6L1308.9 717.7" stroke="#0086CD" stroke-width="4.8204" stroke-miterlimit="10" stroke-linecap="round" stroke-linejoin="round"/>
<path d="M1104.1 701.3L1167.6 764.7L1220.4 817.7" stroke="#0086CD" stroke-width="4.8204" stroke-miterlimit="10" stroke-linecap="round" stroke-linejoin="round"/>
<path d="M1104.1 701.3L1217.3 663.6" stroke="#0086CD" stroke-width="4.8204" stroke-miterlimit="10" stroke-linecap="round" stroke-linejoin="round"/>
<path d="M1098.4 783.4L1020.8 705.6" stroke="#0086CD" stroke-width="1.6068" stroke-miterlimit="10" stroke-linecap="round" stroke-linejoin="round"/>
<path d="M1131 772.6L1053.4 695L1020.8 705.6" stroke="#0086CD" stroke-width="1.6068" stroke-miterlimit="10" stroke-linecap="round" stroke-linejoin="round"/>
<path d="M1307.9 716.6L1428.6 676.3L1420.1 667.8" stroke="#0086CD" stroke-width="4.8204" stroke-miterlimit="10" stroke-linecap="round" stroke-linejoin="round"/>
<path d="M1400 647.7L1409.3 657" stroke="#0086CD" stroke-width="4.8204" stroke-miterlimit="10" stroke-linecap="round" stroke-linejoin="round"/>
<path d="M1308.9 717.7L1283.6 692.2L1279.8 688.3" stroke="#0086CD" stroke-width="4.8204" stroke-miterlimit="10" stroke-linecap="round" stroke-linejoin="round"/>
<path d="M1470.5 529.2L1479.5 538.2" stroke="#0086CD" stroke-width="4.8204" stroke-miterlimit="10" stroke-linecap="round" stroke-linejoin="round"/>
<path d="M377.1 434.4L599 508.4" stroke="#0086CD" stroke-width="4.8204" stroke-miterlimit="10" stroke-linecap="round" stroke-linejoin="round"/>
<path d="M1400.6 648.4L1251.7 697.9L1217.3 663.6" stroke="#0086CD" stroke-width="4.8204" stroke-miterlimit="10" stroke-linecap="round" stroke-linejoin="round"/>
<path d="M1478.6 659.6L1460.7 665.6L1417.4 622.6L1399.2 604.2L1417.1 598.4L1478.6 659.6Z" stroke="#0086CD" stroke-width="4.8204" stroke-miterlimit="10" stroke-linecap="round" stroke-linejoin="round"/>
<path d="M1531 589.9L1423 627.7" stroke="#0086CD" stroke-width="1.6068" stroke-miterlimit="10" stroke-linecap="round" stroke-linejoin="round"/>
<path d="M651.2 520.7L635.1 536.8L570.8 573.7L522.2 557.5" stroke="#0086CD" stroke-width="4.8204" stroke-miterlimit="10" stroke-linecap="round" stroke-linejoin="round"/>
<path d="M1098.4 783.4L1131 772.6" stroke="#0086CD" stroke-width="1.5656" stroke-miterlimit="10" stroke-linecap="round" stroke-linejoin="round"/>
<path d="M1481.2 525.3C1374.5 421.2 1226.9 333.5 1049.9 268.9" stroke="#0086CD" stroke-width="4.8204" stroke-miterlimit="10" stroke-linecap="round" stroke-linejoin="round"/>
<path d="M1570.8 515.8C1582.56 515.8 1592.1 506.264 1592.1 494.5C1592.1 482.736 1582.56 473.2 1570.8 473.2C1559.04 473.2 1549.5 482.736 1549.5 494.5C1549.5 506.264 1559.04 515.8 1570.8 515.8Z" fill="#1D3D90"/>
<path d="M1581.5 485.7H1575.2C1574.9 485.7 1574.6 486 1574.6 486.4V489.4H1570.2C1569.9 489.4 1569.6 489.7 1569.6 490.1V493.1H1565.2C1564.9 493.1 1564.6 493.4 1564.6 493.8V496.8H1560.2C1559.9 496.8 1559.6 497.1 1559.6 497.5V502.8C1559.6 503.2 1559.9 503.5 1560.2 503.5H1566.7C1566.8 503.5 1566.9 503.5 1567 503.4L1581.8 492.9C1582 492.8 1582.1 492.6 1582.1 492.3V486.5C1582.1 486 1581.8 485.7 1581.5 485.7ZM1580.8 487V491.7L1566.4 501.9H1560.7V498H1565.1C1565.4 498 1565.7 497.7 1565.7 497.3V494.3H1570.1C1570.4 494.3 1570.7 494 1570.7 493.6V490.6H1575.1C1575.4 490.6 1575.7 490.3 1575.7 489.9V486.9L1580.8 487Z" fill="white"/>
<path d="M1570.8 513.4C1570.8 513.4 1571 513.7 1571.4 514.1C1571.6 514.3 1571.8 514.6 1572 514.9C1572.1 515.1 1572.2 515.2 1572.3 515.4C1572.4 515.5 1572.4 515.6 1572.3 515.7C1572.3 515.8 1572.3 515.9 1572.3 516C1572.3 517.5 1572.3 519.6 1572.3 521.6C1572.3 523.6 1572.3 525.7 1572.3 527.2C1572.3 527.3 1572.3 527.4 1572.3 527.5C1572.3 527.6 1572.3 527.7 1572.3 527.8C1572.2 528 1572.1 528.1 1572 528.3C1571.8 528.6 1571.6 528.9 1571.4 529.1C1571.1 529.5 1570.8 529.8 1570.8 529.8C1570.8 529.8 1570.6 529.5 1570.2 529.1C1570 528.9 1569.8 528.6 1569.6 528.3C1569.5 528.1 1569.4 528 1569.3 527.8C1569.2 527.7 1569.2 527.6 1569.3 527.5C1569.3 527.4 1569.3 527.3 1569.3 527.2C1569.3 525.7 1569.3 523.6 1569.3 521.6C1569.3 519.6 1569.3 517.5 1569.3 516C1569.3 515.9 1569.3 515.8 1569.3 515.7C1569.3 515.6 1569.3 515.5 1569.3 515.4C1569.4 515.2 1569.5 515.1 1569.6 514.9C1569.8 514.6 1570 514.3 1570.2 514.1C1570.6 513.7 1570.8 513.4 1570.8 513.4Z" fill="#1D3D90"/>
<path d="M658.3 290.2C670.064 290.2 679.6 280.664 679.6 268.9C679.6 257.136 670.064 247.6 658.3 247.6C646.536 247.6 637 257.136 637 268.9C637 280.664 646.536 290.2 658.3 290.2Z" fill="#1D3D90"/>
<path d="M669 260.1H662.7C662.4 260.1 662.1 260.4 662.1 260.8V263.8H657.7C657.4 263.8 657.1 264.1 657.1 264.5V267.5H652.7C652.4 267.5 652.1 267.8 652.1 268.2V271.2H647.7C647.4 271.2 647.1 271.5 647.1 271.9V277.2C647.1 277.6 647.4 277.9 647.7 277.9H654.2C654.3 277.9 654.4 277.9 654.5 277.8L669.3 267.3C669.5 267.2 669.6 267 669.6 266.7V260.9C669.6 260.4 669.3 260.1 669 260.1ZM668.4 261.4V266.1L654 276.3H648.3V272.4H652.7C653 272.4 653.3 272.1 653.3 271.7V268.7H657.7C658 268.7 658.3 268.4 658.3 268V265H662.7C663 265 663.3 264.7 663.3 264.3V261.3L668.4 261.4Z" fill="white"/>
<path d="M658.3 287.8C658.3 287.8 658.5 288.1 658.9 288.5C659.1 288.7 659.3 289 659.5 289.3C659.6 289.5 659.7 289.6 659.8 289.8C659.9 289.9 659.9 290 659.8 290.1C659.8 290.2 659.8 290.3 659.8 290.4C659.8 291.9 659.8 294 659.8 296C659.8 298 659.8 300.1 659.8 301.6C659.8 301.7 659.8 301.8 659.8 301.9C659.8 302 659.8 302.1 659.8 302.2C659.7 302.4 659.6 302.5 659.5 302.7C659.3 303 659.1 303.3 658.9 303.5C658.6 303.9 658.3 304.2 658.3 304.2C658.3 304.2 658.1 303.9 657.7 303.5C657.5 303.3 657.3 303 657.1 302.7C657 302.5 656.9 302.4 656.8 302.2C656.7 302.1 656.7 302 656.8 301.9C656.8 301.8 656.8 301.7 656.8 301.6C656.8 300.1 656.8 298 656.8 296C656.8 294 656.8 291.9 656.8 290.4C656.8 290.3 656.8 290.2 656.8 290.1C656.8 290 656.8 289.9 656.8 289.8C656.9 289.6 657 289.5 657.1 289.3C657.3 289 657.5 288.7 657.7 288.5C658.1 288.1 658.3 287.8 658.3 287.8Z" fill="#1D3D90"/>
<path d="M781.6 333C793.363 333 802.9 323.464 802.9 311.7C802.9 299.936 793.363 290.4 781.6 290.4C769.836 290.4 760.3 299.936 760.3 311.7C760.3 323.464 769.836 333 781.6 333Z" fill="#1D3D90"/>
<path d="M781.6 330.7C781.6 330.7 781.8 331 782.1 331.4C782.3 331.6 782.4 331.9 782.6 332.2C782.7 332.4 782.8 332.5 782.9 332.7C783 332.9 782.9 333.1 782.9 333.2C782.9 334.7 782.9 336.8 782.9 338.8C782.9 340.8 782.9 342.9 782.9 344.4C782.9 344.5 782.9 344.6 782.9 344.7C782.9 344.8 782.9 344.9 782.9 345C782.8 345.2 782.7 345.3 782.6 345.5C782.4 345.8 782.2 346.1 782.1 346.3C781.8 346.7 781.6 347 781.6 347C781.6 347 781.4 346.7 781.1 346.3C781 346.1 780.8 345.8 780.6 345.5C780.5 345.3 780.4 345.2 780.3 345C780.2 344.9 780.2 344.8 780.3 344.7C780.3 344.6 780.3 344.5 780.3 344.4C780.3 342.9 780.3 340.8 780.3 338.8C780.3 336.8 780.3 334.7 780.3 333.2C780.3 333 780.2 332.8 780.3 332.7C780.4 332.5 780.5 332.4 780.6 332.2C780.8 331.9 781 331.6 781.1 331.4C781.4 330.9 781.6 330.7 781.6 330.7Z" fill="#1D3D90"/>
<path d="M774.8 304.6C775.794 304.6 776.6 303.794 776.6 302.8C776.6 301.806 775.794 301 774.8 301C773.806 301 773 301.806 773 302.8C773 303.794 773.806 304.6 774.8 304.6Z" fill="white"/>
<path d="M777.2 305.3H772.5C771.7 305.3 771 306 771 306.8V314.3C771 314.6 771.3 314.9 771.6 314.9H772.5V320.9C772.5 321.4 772.9 321.8 773.4 321.8C773.4 321.8 773.4 321.8 773.5 321.8C773.8 321.8 774.1 321.7 774.2 321.5C774.4 321.3 774.5 321 774.5 320.7V314.9H775.4V320.9C775.4 321.4 775.8 321.8 776.3 321.8C776.3 321.8 776.3 321.8 776.4 321.8C776.7 321.8 777 321.7 777.1 321.5C777.3 321.3 777.4 321 777.4 320.7V314.9H778.2C778.5 314.9 778.8 314.6 778.8 314.3V306.8C778.7 306 778 305.3 777.2 305.3Z" fill="white"/>
<path d="M788.3 304.3C789.294 304.3 790.1 303.494 790.1 302.5C790.1 301.506 789.294 300.7 788.3 300.7C787.306 300.7 786.5 301.506 786.5 302.5C786.5 303.494 787.306 304.3 788.3 304.3Z" fill="white"/>
<path d="M793.2 313.9L791.4 305.9C791.2 305 790.6 304.9 789.9 304.9H786.5C785.7 304.9 785 305.6 785 306.3L783.6 313.9C783.6 314.2 783.9 314.5 784.2 314.5H785.9V320.5C785.9 321 786.3 321.4 786.8 321.4C786.8 321.4 786.8 321.4 786.9 321.4C787.2 321.4 787.5 321.3 787.6 321.1C787.8 320.9 787.9 320.6 787.9 320.3V314.5H788.8V320.5C788.8 321 789.2 321.4 789.7 321.4C789.7 321.4 789.7 321.4 789.8 321.4C790.1 321.4 790.4 321.3 790.5 321.1C790.7 320.9 790.8 320.6 790.8 320.3V314.5H792.7C793 314.5 793.2 314.2 793.2 313.9Z" fill="white"/>
<path d="M781.6 298.9C781.3 298.9 781 299.2 781 299.5V322.9C781 323.2 781.3 323.5 781.6 323.5C781.9 323.5 782.2 323.2 782.2 322.9V299.5C782.1 299.2 781.9 298.9 781.6 298.9Z" fill="white"/>
<path d="M1321.9 642C1333.66 642 1343.2 632.464 1343.2 620.7C1343.2 608.936 1333.66 599.4 1321.9 599.4C1310.14 599.4 1300.6 608.936 1300.6 620.7C1300.6 632.464 1310.14 642 1321.9 642Z" fill="#1D3D90"/>
<path d="M1321.9 639.7C1321.9 639.7 1322.1 640 1322.4 640.4C1322.6 640.6 1322.7 640.9 1322.9 641.2C1323 641.4 1323.1 641.5 1323.2 641.7C1323.3 641.9 1323.2 642.1 1323.2 642.2C1323.2 643.7 1323.2 645.8 1323.2 647.8C1323.2 649.8 1323.2 651.9 1323.2 653.4C1323.2 653.5 1323.2 653.6 1323.2 653.7C1323.2 653.8 1323.2 653.9 1323.2 654C1323.1 654.2 1323 654.3 1322.9 654.5C1322.7 654.8 1322.5 655.1 1322.4 655.3C1322.1 655.7 1321.9 656 1321.9 656C1321.9 656 1321.7 655.7 1321.4 655.3C1321.3 655.1 1321.1 654.8 1320.9 654.5C1320.8 654.3 1320.7 654.2 1320.6 654C1320.5 653.9 1320.5 653.8 1320.6 653.7C1320.6 653.6 1320.6 653.5 1320.6 653.4C1320.6 651.9 1320.6 649.8 1320.6 647.8C1320.6 645.8 1320.6 643.7 1320.6 642.2C1320.6 642 1320.5 641.8 1320.6 641.7C1320.7 641.5 1320.8 641.4 1320.9 641.2C1321.1 640.9 1321.3 640.6 1321.4 640.4C1321.7 639.9 1321.9 639.7 1321.9 639.7Z" fill="#1D3D90"/>
<path d="M1315.1 613.6C1316.09 613.6 1316.9 612.794 1316.9 611.8C1316.9 610.806 1316.09 610 1315.1 610C1314.11 610 1313.3 610.806 1313.3 611.8C1313.3 612.794 1314.11 613.6 1315.1 613.6Z" fill="white"/>
<path d="M1317.5 614.3H1312.8C1312 614.3 1311.3 615 1311.3 615.8V623.3C1311.3 623.6 1311.6 623.9 1311.9 623.9H1312.8V629.9C1312.8 630.4 1313.2 630.8 1313.7 630.8C1313.7 630.8 1313.7 630.8 1313.8 630.8C1314.1 630.8 1314.4 630.7 1314.5 630.5C1314.7 630.3 1314.8 630 1314.8 629.7V623.9H1315.7V629.9C1315.7 630.4 1316.1 630.8 1316.6 630.8C1316.6 630.8 1316.6 630.8 1316.7 630.8C1317 630.8 1317.3 630.7 1317.4 630.5C1317.6 630.3 1317.7 630 1317.7 629.7V623.9H1318.5C1318.8 623.9 1319.1 623.6 1319.1 623.3V615.8C1319 615 1318.3 614.3 1317.5 614.3Z" fill="white"/>
<path d="M1328.6 613.3C1329.59 613.3 1330.4 612.494 1330.4 611.5C1330.4 610.506 1329.59 609.7 1328.6 609.7C1327.61 609.7 1326.8 610.506 1326.8 611.5C1326.8 612.494 1327.61 613.3 1328.6 613.3Z" fill="white"/>
<path d="M1333.6 622.9L1331.8 614.9C1331.6 614 1331 613.9 1330.3 613.9H1326.9C1326.1 613.9 1325.4 614.6 1325.4 615.3L1324 622.9C1324 623.2 1324.3 623.5 1324.6 623.5H1326.3V629.5C1326.3 630 1326.7 630.4 1327.2 630.4C1327.2 630.4 1327.2 630.4 1327.3 630.4C1327.6 630.4 1327.9 630.3 1328 630.1C1328.2 629.9 1328.3 629.6 1328.3 629.3V623.5H1329.2V629.5C1329.2 630 1329.6 630.4 1330.1 630.4C1330.1 630.4 1330.1 630.4 1330.2 630.4C1330.5 630.4 1330.8 630.3 1330.9 630.1C1331.1 629.9 1331.2 629.6 1331.2 629.3V623.5H1333.1C1333.3 623.5 1333.6 623.2 1333.6 622.9Z" fill="white"/>
<path d="M1321.9 607.9C1321.6 607.9 1321.3 608.2 1321.3 608.5V631.9C1321.3 632.2 1321.6 632.5 1321.9 632.5C1322.2 632.5 1322.5 632.2 1322.5 631.9V608.5C1322.5 608.2 1322.2 607.9 1321.9 607.9Z" fill="white"/>
<path d="M713.6 309.2C725.363 309.2 734.9 299.664 734.9 287.9C734.9 276.136 725.363 266.6 713.6 266.6C701.836 266.6 692.3 276.136 692.3 287.9C692.3 299.664 701.836 309.2 713.6 309.2Z" fill="#1D3D90"/>
<path d="M713.6 306.9C713.6 306.9 713.8 307.2 714.1 307.6C714.3 307.8 714.4 308.1 714.6 308.4C714.7 308.6 714.8 308.7 714.9 308.9C715 309.1 714.9 309.3 714.9 309.4C714.9 310.9 714.9 313 714.9 315C714.9 317 714.9 319.1 714.9 320.6C714.9 320.7 714.9 320.8 714.9 320.9C714.9 321 714.9 321.1 714.9 321.2C714.8 321.4 714.7 321.5 714.6 321.7C714.4 322 714.2 322.3 714.1 322.5C713.8 322.9 713.6 323.2 713.6 323.2C713.6 323.2 713.4 322.9 713.1 322.5C713 322.3 712.8 322 712.6 321.7C712.5 321.5 712.4 321.4 712.3 321.2C712.2 321.1 712.2 321 712.3 320.9C712.3 320.8 712.3 320.7 712.3 320.6C712.3 319.1 712.3 317 712.3 315C712.3 313 712.3 310.9 712.3 309.4C712.3 309.2 712.2 309 712.3 308.9C712.4 308.7 712.5 308.6 712.6 308.4C712.8 308.1 713 307.8 713.1 307.6C713.4 307.1 713.6 306.9 713.6 306.9Z" fill="#1D3D90"/>
<path d="M722.9 283.6L704.4 283.4C703.7 283.4 703.1 284 703.1 284.7L703 298.7C703 299.4 703.6 300 704.3 300L722.8 300.2C723.5 300.2 724.1 299.6 724.1 298.9L724.2 284.9C724.2 284.2 723.6 283.6 722.9 283.6ZM704.4 284.8L722.9 284.9L722.8 298.9L704.3 298.7L704.4 284.8Z" fill="white"/>
<path d="M708.6 282.1C708.7 282.2 708.7 282.2 708.6 282.1C708.7 282.2 708.7 282.2 708.7 282.2C708.7 282.2 708.8 282.3 708.9 282.3C709 282.3 709 282.3 709.1 282.3C709.2 282.3 709.2 282.3 709.3 282.3C709.4 282.3 709.4 282.2 709.5 282.2C709.5 282.2 709.5 282.2 709.6 282.1L712.7 278.3C712.8 278.2 712.9 278 712.8 277.8C712.8 277.6 712.7 277.5 712.6 277.3C712.3 277.1 711.9 277.1 711.7 277.4L709.8 279.7L709.9 273.9C709.9 273.5 709.6 273.2 709.2 273.2C708.8 273.2 708.5 273.5 708.5 273.9L708.4 279.8L706.6 277.7C706.5 277.6 706.3 277.5 706.1 277.5C705.9 277.5 705.7 277.5 705.6 277.7C705.5 277.8 705.4 278 705.4 278.2C705.4 278.4 705.4 278.6 705.6 278.7L708.6 282.1Z" fill="white"/>
<path d="M715.4 278.1C715.6 278.1 715.8 278 715.9 277.9L717.7 275.9L717.6 281.8C717.6 282.2 717.9 282.5 718.3 282.5C718.7 282.5 719 282.2 719 281.8L719.1 276L721 278.4C721.2 278.7 721.6 278.7 721.9 278.5C722.2 278.3 722.2 277.9 722 277.6L719 273.7C719 273.7 719 273.6 718.9 273.6C718.9 273.6 718.9 273.6 718.8 273.6C718.7 273.6 718.7 273.5 718.6 273.5C718.5 273.5 718.5 273.5 718.4 273.5C718.3 273.5 718.3 273.5 718.2 273.5C718.1 273.5 718.1 273.5 718 273.6L717.9 273.7L714.9 277.1C714.7 277.4 714.7 277.8 715 278C715.1 278.1 715.3 278.1 715.4 278.1Z" fill="white"/>
<path d="M708.2 288C708.752 288 709.2 287.552 709.2 287C709.2 286.448 708.752 286 708.2 286C707.648 286 707.2 286.448 707.2 287C707.2 287.552 707.648 288 708.2 288Z" fill="white"/>
<path d="M718.9 288.1C719.452 288.1 719.9 287.652 719.9 287.1C719.9 286.548 719.452 286.1 718.9 286.1C718.348 286.1 717.9 286.548 717.9 287.1C717.9 287.652 718.348 288.1 718.9 288.1Z" fill="white"/>
<path d="M713.6 288.1C714.152 288.1 714.6 287.652 714.6 287.1C714.6 286.548 714.152 286.1 713.6 286.1C713.048 286.1 712.6 286.548 712.6 287.1C712.6 287.652 713.048 288.1 713.6 288.1Z" fill="white"/>
<path d="M706.8 293.5H706.9V297.3C706.9 297.6 707.2 297.9 707.5 297.9C707.7 297.9 707.9 297.8 708 297.7C708.1 297.6 708.2 297.4 708.2 297.2V293.5H708.4V297.3C708.4 297.6 708.7 297.9 709 297.9C709.2 297.9 709.4 297.8 709.5 297.7C709.6 297.6 709.7 297.4 709.7 297.2V293.5C710.1 293.5 710.4 293.2 710.4 292.8V290C710.4 289 709.6 288.2 708.6 288.2H707.9C706.9 288.2 706.1 289 706.1 290V292.8C706.1 293.2 706.4 293.5 706.8 293.5Z" fill="white"/>
<path d="M712.1 293.5H712.2V297.3C712.2 297.6 712.5 297.9 712.8 297.9C713 297.9 713.2 297.8 713.3 297.7C713.4 297.6 713.5 297.4 713.5 297.2V293.5H713.7V297.3C713.7 297.6 714 297.9 714.3 297.9C714.5 297.9 714.7 297.8 714.8 297.7C714.9 297.6 715 297.4 715 297.2V293.5C715.4 293.5 715.7 293.2 715.7 292.8V290C715.7 289 714.9 288.2 713.9 288.2H713.2C712.2 288.2 711.4 289 711.4 290V292.8C711.4 293.2 711.7 293.5 712.1 293.5Z" fill="white"/>
<path d="M717.4 293.6V297.5C717.4 297.8 717.7 298.1 718 298.1C718.2 298.1 718.4 298 718.5 297.9C718.6 297.8 718.7 297.6 718.7 297.4V293.6H718.9V297.5C718.9 297.8 719.2 298.1 719.5 298.1C719.7 298.1 719.9 298 720 297.9C720.1 297.8 720.2 297.6 720.2 297.4V293.6C720.6 293.6 720.9 293.3 720.9 292.9V290.1C720.9 289.1 720.1 288.3 719.1 288.3H718.4C717.4 288.3 716.6 289.1 716.6 290.1V292.9C716.7 293.3 717 293.6 717.4 293.6Z" fill="white"/>
<path d="M581.1 527.8C592.863 527.8 602.4 518.264 602.4 506.5C602.4 494.736 592.863 485.2 581.1 485.2C569.336 485.2 559.8 494.736 559.8 506.5C559.8 518.264 569.336 527.8 581.1 527.8Z" fill="#1D3D90"/>
<path d="M591.7 497.7H585.4C585.1 497.7 584.8 498 584.8 498.4V501.4H580.4C580.1 501.4 579.8 501.7 579.8 502.1V505.1H575.4C575.1 505.1 574.8 505.4 574.8 505.8V508.8H570.4C570.1 508.8 569.8 509.1 569.8 509.5V514.8C569.8 515.2 570.1 515.5 570.4 515.5H576.9C577 515.5 577.1 515.5 577.2 515.4L592 504.9C592.2 504.8 592.3 504.6 592.3 504.3V498.5C592.3 498 592 497.7 591.7 497.7ZM591.1 499V503.7L576.7 514H571V510.1H575.4C575.7 510.1 576 509.8 576 509.4V506.4H580.4C580.7 506.4 581 506.1 581 505.7V502.7H585.4C585.7 502.7 586 502.4 586 502V499H591.1Z" fill="white"/>
<path d="M581.1 525.5C581.1 525.5 581.3 525.8 581.7 526.2C581.9 526.4 582.1 526.7 582.3 527C582.4 527.2 582.5 527.3 582.6 527.5C582.7 527.6 582.7 527.7 582.6 527.8C582.6 527.9 582.6 528 582.6 528.1C582.6 529.6 582.6 531.7 582.6 533.7C582.6 535.7 582.6 537.8 582.6 539.3C582.6 539.4 582.6 539.5 582.6 539.6C582.6 539.7 582.6 539.8 582.6 539.9C582.5 540.1 582.4 540.2 582.3 540.4C582.1 540.7 581.9 541 581.7 541.2C581.4 541.6 581.1 541.9 581.1 541.9C581.1 541.9 580.9 541.6 580.5 541.2C580.3 541 580.1 540.7 579.9 540.4C579.8 540.2 579.7 540.1 579.6 539.9C579.5 539.8 579.5 539.7 579.6 539.6C579.6 539.5 579.6 539.4 579.6 539.3C579.6 537.8 579.6 535.7 579.6 533.7C579.6 531.7 579.6 529.6 579.6 528.1C579.6 528 579.6 527.9 579.6 527.8C579.6 527.7 579.6 527.6 579.6 527.5C579.7 527.3 579.8 527.2 579.9 527C580.1 526.7 580.3 526.4 580.5 526.2C580.8 525.7 581.1 525.5 581.1 525.5Z" fill="#1D3D90"/>
<path d="M1020.8 823.4C1032.56 823.4 1042.1 813.864 1042.1 802.1C1042.1 790.336 1032.56 780.8 1020.8 780.8C1009.04 780.8 999.5 790.336 999.5 802.1C999.5 813.864 1009.04 823.4 1020.8 823.4Z" fill="#1D3D90"/>
<path d="M1031.4 793.3H1025.1C1024.8 793.3 1024.5 793.6 1024.5 794V797H1020.1C1019.8 797 1019.5 797.3 1019.5 797.7V800.7H1015.1C1014.8 800.7 1014.5 801 1014.5 801.4V804.4H1010.1C1009.8 804.4 1009.5 804.7 1009.5 805.1V810.4C1009.5 810.8 1009.8 811.1 1010.1 811.1H1016.6C1016.7 811.1 1016.8 811.1 1016.9 811L1031.7 800.5C1031.9 800.4 1032 800.2 1032 799.9V794.1C1032.1 793.6 1031.8 793.3 1031.4 793.3ZM1030.8 794.6V799.3L1016.4 809.5H1010.7V805.6H1015.1C1015.4 805.6 1015.7 805.3 1015.7 804.9V801.9H1020.1C1020.4 801.9 1020.7 801.6 1020.7 801.2V798.2H1025.1C1025.4 798.2 1025.7 797.9 1025.7 797.5V794.5L1030.8 794.6Z" fill="white"/>
<path d="M1020.8 821C1020.8 821 1021 821.3 1021.4 821.7C1021.6 821.9 1021.8 822.2 1022 822.5C1022.1 822.7 1022.2 822.8 1022.3 823C1022.4 823.1 1022.4 823.2 1022.3 823.3C1022.3 823.4 1022.3 823.5 1022.3 823.6C1022.3 825.1 1022.3 827.2 1022.3 829.2C1022.3 831.2 1022.3 833.3 1022.3 834.8C1022.3 834.9 1022.3 835 1022.3 835.1C1022.3 835.2 1022.3 835.3 1022.3 835.4C1022.2 835.6 1022.1 835.7 1022 835.9C1021.8 836.2 1021.6 836.5 1021.4 836.7C1021.1 837.1 1020.8 837.4 1020.8 837.4C1020.8 837.4 1020.6 837.1 1020.2 836.7C1020 836.5 1019.8 836.2 1019.6 835.9C1019.5 835.7 1019.4 835.6 1019.3 835.4C1019.2 835.3 1019.2 835.2 1019.3 835.1C1019.3 835 1019.3 834.9 1019.3 834.8C1019.3 833.3 1019.3 831.2 1019.3 829.2C1019.3 827.2 1019.3 825.1 1019.3 823.6C1019.3 823.5 1019.3 823.4 1019.3 823.3C1019.3 823.2 1019.3 823.1 1019.3 823C1019.4 822.8 1019.5 822.7 1019.6 822.5C1019.8 822.2 1020 821.9 1020.2 821.7C1020.6 821.3 1020.8 821 1020.8 821Z" fill="#1D3D90"/>
<path d="M815.5 644.8C827.264 644.8 836.8 635.264 836.8 623.5C836.8 611.736 827.264 602.2 815.5 602.2C803.737 602.2 794.2 611.736 794.2 623.5C794.2 635.264 803.737 644.8 815.5 644.8Z" fill="#1D3D90"/>
<path d="M826.2 614.6H819.9C819.6 614.6 819.3 614.9 819.3 615.3V618.3H814.9C814.6 618.3 814.3 618.6 814.3 619V622H809.9C809.6 622 809.3 622.3 809.3 622.7V625.7H804.9C804.6 625.7 804.3 626 804.3 626.4V631.7C804.3 632.1 804.6 632.4 804.9 632.4H811.4C811.5 632.4 811.6 632.4 811.7 632.3L826.6 621.8C826.8 621.7 826.9 621.5 826.9 621.2V615.4C826.8 614.9 826.5 614.6 826.2 614.6ZM825.5 616V620.7L811.1 631H805.4V627H809.8C810.1 627 810.4 626.7 810.4 626.3V623.3H814.8C815.1 623.3 815.4 623 815.4 622.6V619.6H819.8C820.1 619.6 820.4 619.3 820.4 618.9V615.9L825.5 616Z" fill="white"/>
<path d="M815.5 642.4C815.5 642.4 815.7 642.7 816.1 643.1C816.3 643.3 816.5 643.6 816.7 643.9C816.8 644.1 816.9 644.2 817 644.4C817.1 644.5 817.1 644.6 817 644.7C817 644.8 817 644.9 817 645C817 646.5 817 648.6 817 650.6C817 652.6 817 654.7 817 656.2C817 656.3 817 656.4 817 656.5C817 656.6 817 656.7 817 656.8C816.9 657 816.8 657.1 816.7 657.3C816.5 657.6 816.3 657.9 816.1 658.1C815.8 658.5 815.5 658.8 815.5 658.8C815.5 658.8 815.3 658.5 814.9 658.1C814.7 657.9 814.5 657.6 814.3 657.3C814.2 657.1 814.1 657 814 656.8C813.9 656.7 813.9 656.6 814 656.5C814 656.4 814 656.3 814 656.2C814 654.7 814 652.6 814 650.6C814 648.6 814 646.5 814 645C814 644.9 814 644.8 814 644.7C814 644.6 814 644.5 814 644.4C814.1 644.2 814.2 644.1 814.3 643.9C814.5 643.6 814.7 643.3 814.9 643.1C815.2 642.7 815.5 642.4 815.5 642.4Z" fill="#1D3D90"/>
<path d="M1357.3 675.9C1369.06 675.9 1378.6 666.364 1378.6 654.6C1378.6 642.836 1369.06 633.3 1357.3 633.3C1345.54 633.3 1336 642.836 1336 654.6C1336 666.364 1345.54 675.9 1357.3 675.9Z" fill="#1D3D90"/>
<path d="M1357.3 673.5C1357.3 673.5 1357.5 673.8 1357.8 674.2C1358 674.4 1358.1 674.7 1358.3 675C1358.4 675.2 1358.5 675.3 1358.6 675.5C1358.7 675.7 1358.6 675.9 1358.6 676C1358.6 677.5 1358.6 679.6 1358.6 681.6C1358.6 683.6 1358.6 685.7 1358.6 687.2C1358.6 687.3 1358.6 687.4 1358.6 687.5C1358.6 687.6 1358.6 687.7 1358.6 687.8C1358.5 688 1358.4 688.1 1358.3 688.3C1358.1 688.6 1357.9 688.9 1357.8 689.1C1357.5 689.5 1357.3 689.8 1357.3 689.8C1357.3 689.8 1357.1 689.5 1356.8 689.1C1356.7 688.9 1356.5 688.6 1356.3 688.3C1356.2 688.1 1356.1 688 1356 687.8C1355.9 687.7 1355.9 687.6 1356 687.5C1356 687.4 1356 687.3 1356 687.2C1356 685.7 1356 683.6 1356 681.6C1356 679.6 1356 677.5 1356 676C1356 675.8 1355.9 675.6 1356 675.5C1356.1 675.3 1356.2 675.2 1356.3 675C1356.5 674.7 1356.7 674.4 1356.8 674.2C1357.1 673.7 1357.3 673.5 1357.3 673.5Z" fill="#1D3D90"/>
<path d="M1366.6 650.3L1348.1 650.1C1347.4 650.1 1346.8 650.7 1346.8 651.4L1346.7 665.4C1346.7 666.1 1347.3 666.7 1348 666.7L1366.5 666.9C1367.2 666.9 1367.8 666.3 1367.8 665.6L1367.9 651.6C1367.9 650.9 1367.3 650.3 1366.6 650.3ZM1348.1 651.4L1366.6 651.5L1366.5 665.5L1348 665.3L1348.1 651.4Z" fill="white"/>
<path d="M1352.4 648.7C1352.4 648.8 1352.4 648.8 1352.4 648.7C1352.5 648.8 1352.5 648.8 1352.5 648.8C1352.5 648.8 1352.6 648.9 1352.7 648.9C1352.8 648.9 1352.8 648.9 1352.9 648.9C1353 648.9 1353 648.9 1353.1 648.9C1353.2 648.9 1353.2 648.8 1353.3 648.8C1353.3 648.8 1353.3 648.8 1353.4 648.7L1356.5 644.9C1356.6 644.8 1356.7 644.6 1356.6 644.4C1356.6 644.2 1356.5 644.1 1356.4 643.9C1356.1 643.7 1355.7 643.7 1355.5 644L1353.6 646.3L1353.7 640.5C1353.7 640.1 1353.4 639.8 1353 639.8C1352.6 639.8 1352.3 640.1 1352.3 640.5L1352.2 646.4L1350.4 644.3C1350.3 644.2 1350.1 644.1 1349.9 644.1C1349.7 644.1 1349.5 644.1 1349.4 644.3C1349.3 644.4 1349.2 644.6 1349.2 644.8C1349.2 645 1349.2 645.2 1349.4 645.3L1352.4 648.7Z" fill="white"/>
<path d="M1359.1 644.7C1359.3 644.7 1359.5 644.6 1359.6 644.5L1361.4 642.5L1361.3 648.4C1361.3 648.8 1361.6 649.1 1362 649.1C1362.4 649.1 1362.7 648.8 1362.7 648.4L1362.8 642.6L1364.7 645C1364.9 645.3 1365.3 645.3 1365.6 645.1C1365.9 644.9 1365.9 644.5 1365.7 644.2L1362.7 640.3C1362.7 640.3 1362.7 640.2 1362.6 640.2C1362.6 640.2 1362.6 640.2 1362.5 640.2C1362.4 640.2 1362.4 640.1 1362.3 640.1C1362.2 640.1 1362.2 640.1 1362.1 640.1C1362 640.1 1362 640.1 1361.9 640.1C1361.8 640.1 1361.8 640.1 1361.7 640.2L1361.6 640.3L1358.6 643.7C1358.4 644 1358.4 644.4 1358.7 644.6C1358.8 644.7 1359 644.7 1359.1 644.7Z" fill="white"/>
<path d="M1352 654.6C1352.55 654.6 1353 654.152 1353 653.6C1353 653.048 1352.55 652.6 1352 652.6C1351.45 652.6 1351 653.048 1351 653.6C1351 654.152 1351.45 654.6 1352 654.6Z" fill="white"/>
<path d="M1362.6 654.7C1363.15 654.7 1363.6 654.252 1363.6 653.7C1363.6 653.148 1363.15 652.7 1362.6 652.7C1362.05 652.7 1361.6 653.148 1361.6 653.7C1361.6 654.252 1362.05 654.7 1362.6 654.7Z" fill="white"/>
<path d="M1357.3 654.7C1357.85 654.7 1358.3 654.252 1358.3 653.7C1358.3 653.148 1357.85 652.7 1357.3 652.7C1356.75 652.7 1356.3 653.148 1356.3 653.7C1356.3 654.252 1356.75 654.7 1357.3 654.7Z" fill="white"/>
<path d="M1350.5 660.1H1350.6V663.9C1350.6 664.2 1350.9 664.5 1351.2 664.5C1351.4 664.5 1351.6 664.4 1351.7 664.3C1351.8 664.2 1351.9 664 1351.9 663.8V660.1H1352.1V663.9C1352.1 664.2 1352.4 664.5 1352.7 664.5C1352.9 664.5 1353.1 664.4 1353.2 664.3C1353.3 664.2 1353.4 664 1353.4 663.8V660.1C1353.8 660.1 1354.1 659.8 1354.1 659.4V656.6C1354.1 655.6 1353.3 654.8 1352.3 654.8H1351.6C1350.6 654.8 1349.8 655.6 1349.8 656.6V659.4C1349.8 659.8 1350.1 660.1 1350.5 660.1Z" fill="white"/>
<path d="M1355.8 660.1H1355.9V663.9C1355.9 664.2 1356.2 664.5 1356.5 664.5C1356.7 664.5 1356.9 664.4 1357 664.3C1357.1 664.2 1357.2 664 1357.2 663.8V660.1H1357.4V663.9C1357.4 664.2 1357.7 664.5 1358 664.5C1358.2 664.5 1358.4 664.4 1358.5 664.3C1358.6 664.2 1358.7 664 1358.7 663.8V660.1C1359.1 660.1 1359.4 659.8 1359.4 659.4V656.6C1359.4 655.6 1358.6 654.8 1357.6 654.8H1356.9C1355.9 654.8 1355.1 655.6 1355.1 656.6V659.4C1355.1 659.8 1355.4 660.1 1355.8 660.1Z" fill="white"/>
<path d="M1361.1 660.2V664.1C1361.1 664.4 1361.4 664.7 1361.7 664.7C1361.9 664.7 1362.1 664.6 1362.2 664.5C1362.3 664.4 1362.4 664.2 1362.4 664V660.2H1362.6V664.1C1362.6 664.4 1362.9 664.7 1363.2 664.7C1363.4 664.7 1363.6 664.6 1363.7 664.5C1363.8 664.4 1363.9 664.2 1363.9 664V660.2C1364.3 660.2 1364.6 659.9 1364.6 659.5V656.7C1364.6 655.7 1363.8 654.9 1362.8 654.9H1362.1C1361.1 654.9 1360.3 655.7 1360.3 656.7V659.5C1360.4 659.9 1360.7 660.2 1361.1 660.2Z" fill="white"/>
<path d="M410.3 704.5C422.064 704.5 431.6 694.964 431.6 683.2C431.6 671.436 422.064 661.9 410.3 661.9C398.536 661.9 389 671.436 389 683.2C389 694.964 398.536 704.5 410.3 704.5Z" fill="#1D3D90"/>
<path d="M410.3 702.2C410.3 702.2 410.5 702.5 410.8 702.9C411 703.1 411.1 703.4 411.3 703.7C411.4 703.9 411.5 704 411.6 704.2C411.7 704.4 411.6 704.6 411.6 704.7C411.6 706.2 411.6 708.3 411.6 710.3C411.6 712.3 411.6 714.4 411.6 715.9C411.6 716 411.6 716.1 411.6 716.2C411.6 716.3 411.6 716.4 411.6 716.5C411.5 716.7 411.4 716.8 411.3 717C411.1 717.3 410.9 717.6 410.8 717.8C410.5 718.2 410.3 718.5 410.3 718.5C410.3 718.5 410.1 718.2 409.8 717.8C409.7 717.6 409.5 717.3 409.3 717C409.2 716.8 409.1 716.7 409 716.5C408.9 716.4 408.9 716.3 409 716.2C409 716.1 409 716 409 715.9C409 714.4 409 712.3 409 710.3C409 708.3 409 706.2 409 704.7C409 704.5 408.9 704.3 409 704.2C409.1 704 409.2 703.9 409.3 703.7C409.5 703.4 409.7 703.1 409.8 702.9C410.1 702.4 410.3 702.2 410.3 702.2Z" fill="#1D3D90"/>
<path d="M419.7 678.9L401.2 678.7C400.5 678.7 399.9 679.3 399.9 680L399.8 694C399.8 694.7 400.4 695.3 401.1 695.3L419.6 695.5C420.3 695.5 420.9 694.9 420.9 694.2L421 680.2C421 679.5 420.4 678.9 419.7 678.9ZM401.1 680.1C401.1 680 401.1 680 401.1 680.1L419.6 680.2L419.5 694.2L401 694L401.1 680.1Z" fill="white"/>
<path d="M405.4 677.4C405.5 677.5 405.5 677.5 405.5 677.5C405.5 677.5 405.6 677.6 405.7 677.6C405.8 677.6 405.8 677.6 405.9 677.6C406 677.6 406 677.6 406.1 677.6C406.2 677.6 406.2 677.5 406.3 677.5C406.3 677.5 406.3 677.5 406.4 677.4L409.5 673.6C409.6 673.5 409.7 673.3 409.6 673.1C409.6 672.9 409.5 672.8 409.4 672.6C409.1 672.4 408.7 672.4 408.5 672.7L406.6 675L406.7 669.2C406.7 668.8 406.4 668.5 406 668.5C405.6 668.5 405.3 668.8 405.3 669.2L405.2 675.1L403.4 673C403.3 672.9 403.1 672.8 402.9 672.8C402.7 672.8 402.5 672.8 402.4 673C402.3 673.1 402.2 673.3 402.2 673.5C402.2 673.7 402.2 673.9 402.4 674L405.4 677.4Z" fill="white"/>
<path d="M412.2 673.4C412.4 673.4 412.6 673.3 412.7 673.2L414.5 671.2L414.4 677.1C414.4 677.5 414.7 677.8 415.1 677.8C415.5 677.8 415.8 677.5 415.8 677.1L415.9 671.3L417.8 673.7C418 674 418.4 674 418.7 673.8C419 673.6 419 673.2 418.8 672.9L415.8 669C415.8 669 415.8 668.9 415.7 668.9C415.7 668.9 415.7 668.9 415.6 668.9C415.5 668.9 415.5 668.8 415.4 668.8C415.3 668.8 415.3 668.8 415.2 668.8C415.1 668.8 415.1 668.8 415 668.8C414.9 668.8 414.9 668.8 414.8 668.9L414.7 669L411.7 672.4C411.5 672.7 411.5 673.1 411.8 673.3C411.9 673.3 412 673.4 412.2 673.4Z" fill="white"/>
<path d="M405 683.3C405.552 683.3 406 682.852 406 682.3C406 681.748 405.552 681.3 405 681.3C404.448 681.3 404 681.748 404 682.3C404 682.852 404.448 683.3 405 683.3Z" fill="white"/>
<path d="M415.6 683.4C416.152 683.4 416.6 682.952 416.6 682.4C416.6 681.848 416.152 681.4 415.6 681.4C415.048 681.4 414.6 681.848 414.6 682.4C414.6 682.952 415.048 683.4 415.6 683.4Z" fill="white"/>
<path d="M410.4 683.4C410.952 683.4 411.4 682.952 411.4 682.4C411.4 681.848 410.952 681.4 410.4 681.4C409.848 681.4 409.4 681.848 409.4 682.4C409.4 682.952 409.848 683.4 410.4 683.4Z" fill="white"/>
<path d="M403.5 688.8H403.6V692.6C403.6 692.9 403.9 693.2 404.2 693.2C404.4 693.2 404.6 693.1 404.7 693C404.8 692.9 404.9 692.7 404.9 692.5V688.8H405.1V692.6C405.1 692.9 405.4 693.2 405.7 693.2C405.9 693.2 406.1 693.1 406.2 693C406.3 692.9 406.4 692.7 406.4 692.5V688.8C406.8 688.8 407.1 688.5 407.1 688.1V685.3C407.1 684.3 406.3 683.5 405.3 683.5H404.6C403.6 683.5 402.8 684.3 402.8 685.3V688.1C402.8 688.5 403.1 688.8 403.5 688.8Z" fill="white"/>
<path d="M408.9 688.8H409V692.6C409 692.9 409.3 693.2 409.6 693.2C409.8 693.2 410 693.1 410.1 693C410.2 692.9 410.3 692.7 410.3 692.5V688.8H410.5V692.6C410.5 692.9 410.8 693.2 411.1 693.2C411.3 693.2 411.5 693.1 411.6 693C411.7 692.9 411.8 692.7 411.8 692.5V688.8C412.2 688.8 412.5 688.5 412.5 688.1V685.3C412.5 684.3 411.7 683.5 410.7 683.5H410C409 683.5 408.2 684.3 408.2 685.3V688.1C408.2 688.5 408.5 688.8 408.9 688.8Z" fill="white"/>
<path d="M414.1 688.9V692.8C414.1 693.1 414.4 693.4 414.7 693.4C414.9 693.4 415.1 693.3 415.2 693.2C415.3 693.1 415.4 692.9 415.4 692.7V688.9H415.6V692.8C415.6 693.1 415.9 693.4 416.2 693.4C416.4 693.4 416.6 693.3 416.7 693.2C416.8 693.1 416.9 692.9 416.9 692.7V688.9C417.3 688.9 417.6 688.6 417.6 688.2V685.4C417.6 684.4 416.8 683.6 415.8 683.6H415.1C414.1 683.6 413.3 684.4 413.3 685.4V688.2C413.4 688.6 413.7 688.9 414.1 688.9Z" fill="white"/>
<path d="M611.6 668.8C611.6 668.8 611.8 669.1 612.1 669.5C612.3 669.7 612.4 670 612.6 670.3C612.7 670.5 612.8 670.6 612.9 670.8C613 671 612.9 671.2 612.9 671.3C612.9 672.8 612.9 674.9 612.9 676.9C612.9 678.9 612.9 681 612.9 682.5C612.9 682.6 612.9 682.7 612.9 682.8C612.9 682.9 612.9 683 612.9 683.1C612.8 683.3 612.7 683.4 612.6 683.6C612.4 683.9 612.2 684.2 612.1 684.4C611.8 684.8 611.6 685.1 611.6 685.1C611.6 685.1 611.4 684.8 611.1 684.4C611 684.2 610.8 683.9 610.6 683.6C610.5 683.4 610.4 683.3 610.3 683.1C610.2 683 610.2 682.9 610.3 682.8C610.3 682.7 610.3 682.6 610.3 682.5C610.3 681 610.3 678.9 610.3 676.9C610.3 674.9 610.3 672.8 610.3 671.3C610.3 671.1 610.2 670.9 610.3 670.8C610.4 670.6 610.5 670.5 610.6 670.3C610.8 670 611 669.7 611.1 669.5C611.4 669.1 611.6 668.8 611.6 668.8Z" fill="#1D3D90"/>
<path d="M611.6 671.9C599.4 671.9 589.5 662 589.5 649.8C589.5 637.6 599.4 627.7 611.6 627.7C623.8 627.7 633.7 637.6 633.7 649.8C633.7 662 623.8 671.9 611.6 671.9Z" fill="#F8493B"/>
<path d="M611.6 628.6C623.3 628.6 632.9 638.1 632.9 649.9C632.9 661.6 623.4 671.2 611.6 671.2C599.9 671.2 590.3 661.7 590.3 649.9C590.3 638.1 599.8 628.6 611.6 628.6ZM611.6 627C599 627 588.7 637.3 588.7 649.9C588.7 662.5 599 672.8 611.6 672.8C624.2 672.8 634.5 662.5 634.5 649.9C634.5 637.3 624.2 627 611.6 627Z" fill="#1D3D90"/>
<path d="M611.6 643.6V657.1H607.9V645.2L609.6 646.9H599.4L601.1 645.2V657.1H597.4V643.6H611.6Z" fill="white"/>
<path d="M614.101 657.1V643.6H617.801V654.1L616.801 653.3L624.501 643.5H628.401L617.501 657H614.101V657.1ZM620.501 650.6L623.201 648.3L628.501 657H624.301L620.501 650.6Z" fill="white"/>
<path d="M694.1 703.3C694.1 703.3 694.3 703.6 694.6 704C694.8 704.2 694.9 704.5 695.1 704.8C695.2 705 695.3 705.1 695.4 705.3C695.5 705.5 695.4 705.7 695.4 705.8C695.4 707.3 695.4 709.4 695.4 711.4C695.4 713.4 695.4 715.5 695.4 717C695.4 717.1 695.4 717.2 695.4 717.3C695.4 717.4 695.4 717.5 695.4 717.6C695.3 717.8 695.2 717.9 695.1 718.1C694.9 718.4 694.7 718.7 694.6 718.9C694.3 719.3 694.1 719.6 694.1 719.6C694.1 719.6 693.9 719.3 693.6 718.9C693.5 718.7 693.3 718.4 693.1 718.1C693 717.9 692.9 717.8 692.8 717.6C692.7 717.5 692.7 717.4 692.8 717.3C692.8 717.2 692.8 717.1 692.8 717C692.8 715.5 692.8 713.4 692.8 711.4C692.8 709.4 692.8 707.3 692.8 705.8C692.8 705.6 692.7 705.4 692.8 705.3C692.9 705.1 693 705 693.1 704.8C693.3 704.5 693.5 704.2 693.6 704C693.8 703.5 694.1 703.3 694.1 703.3Z" fill="#1D3D90"/>
<path d="M694.1 706.4C681.9 706.4 672 696.5 672 684.3C672 672.1 681.9 662.2 694.1 662.2C706.3 662.2 716.2 672.1 716.2 684.3C716.2 696.5 706.2 706.4 694.1 706.4Z" fill="#F8493B"/>
<path d="M694.1 663.1C705.8 663.1 715.4 672.6 715.4 684.4C715.4 696.1 705.9 705.7 694.1 705.7C682.4 705.7 672.8 696.2 672.8 684.4C672.8 672.6 682.3 663.1 694.1 663.1ZM694.1 661.4C681.5 661.4 671.2 671.7 671.2 684.3C671.2 696.9 681.5 707.2 694.1 707.2C706.7 707.2 717 696.9 717 684.3C717 671.7 706.7 661.4 694.1 661.4Z" fill="#1D3D90"/>
<path d="M678.9 690.3V686.3H680.8H681.6H687.8H688.4H691V690.3H688.7V688.5H681.1V690.3H678.9ZM680.8 679.5H689.6V687.8H687.1V680.5L688.2 681.6H682.1L683.1 680.8C683.2 681.2 683.2 681.5 683.2 681.9C683.2 682.2 683.2 682.6 683.2 682.9C683.2 683.8 683.1 684.6 683 685.3C682.8 685.9 682.6 686.4 682.3 686.8C682 687.1 681.6 687.3 681.1 687.3L680.1 686.4C680.4 686 680.7 685.5 680.8 684.9C681 684.2 681 683.4 681 682.5C681 682.1 681 681.6 681 681.1C680.9 680.5 680.9 680 680.8 679.5Z" fill="white"/>
<path d="M697.1 688.7C696 688.7 695.1 688.5 694.3 688.1C693.5 687.7 692.9 687.2 692.4 686.5C692 685.8 691.7 685 691.7 684C691.7 683.1 691.9 682.2 692.4 681.5C692.8 680.8 693.5 680.2 694.3 679.9C695.1 679.5 696 679.3 697.1 679.3C698.2 679.3 699.1 679.5 699.9 679.9C700.7 680.3 701.3 680.8 701.8 681.5C702.3 682.2 702.5 683 702.5 684C702.5 684.9 702.3 685.8 701.8 686.5C701.4 687.2 700.7 687.8 699.9 688.1C699.1 688.5 698.1 688.7 697.1 688.7ZM697.1 686.5C697.7 686.5 698.2 686.4 698.6 686.2C699 686 699.4 685.7 699.6 685.3C699.8 684.9 699.9 684.5 699.9 684C699.9 683.5 699.8 683 699.6 682.7C699.4 682.3 699 682 698.6 681.8C698.2 681.6 697.7 681.5 697.1 681.5C696.5 681.5 696 681.6 695.6 681.8C695.2 682 694.8 682.3 694.6 682.7C694.4 683.1 694.3 683.5 694.3 684C694.3 684.5 694.4 685 694.6 685.3C694.8 685.7 695.2 686 695.6 686.2C696 686.4 696.5 686.5 697.1 686.5Z" fill="white"/>
<path d="M710.501 679.5V681.7H705.001L706.101 680.6V688.5H703.601V679.5H710.501Z" fill="white"/>
<path d="M344.4 622.7C356.164 622.7 365.7 613.164 365.7 601.4C365.7 589.636 356.164 580.1 344.4 580.1C332.636 580.1 323.1 589.636 323.1 601.4C323.1 613.164 332.636 622.7 344.4 622.7Z" fill="#1D3D90"/>
<path d="M344.4 620.3C344.4 620.3 344.6 620.6 344.9 621C345.1 621.2 345.2 621.5 345.4 621.8C345.5 622 345.6 622.1 345.7 622.3C345.8 622.5 345.7 622.7 345.7 622.8C345.7 624.3 345.7 626.4 345.7 628.4C345.7 630.4 345.7 632.5 345.7 634C345.7 634.1 345.7 634.2 345.7 634.3C345.7 634.4 345.7 634.5 345.7 634.6C345.6 634.8 345.5 634.9 345.4 635.1C345.2 635.4 345 635.7 344.9 635.9C344.6 636.3 344.4 636.6 344.4 636.6C344.4 636.6 344.2 636.3 343.9 635.9C343.8 635.7 343.6 635.4 343.4 635.1C343.3 634.9 343.2 634.8 343.1 634.6C343 634.5 343 634.4 343.1 634.3C343.1 634.2 343.1 634.1 343.1 634C343.1 632.5 343.1 630.4 343.1 628.4C343.1 626.4 343.1 624.3 343.1 622.8C343.1 622.6 343 622.4 343.1 622.3C343.2 622.1 343.3 622 343.4 621.8C343.6 621.5 343.8 621.2 343.9 621C344.2 620.6 344.4 620.3 344.4 620.3Z" fill="#1D3D90"/>
<path d="M358.5 595.7C357.9 595.1 357.2 594.7 356.8 594.6C356.6 594.6 356.5 594.5 356.3 594.5H350.6C350.3 594.5 349.9 594.6 349.7 594.8L344.3 598.8V598.2V598.1C344.3 597.9 344.2 597.8 344.1 597.6C343.8 596.9 343.2 596.4 342.6 596.3C341.6 596 340.8 596.7 340.7 596.8C340 597.4 339.9 598.2 339.9 598.5V602.2L338.5 603.3C338.4 603.3 338.4 603.4 338.3 603.4H334.5C334.3 603.4 334.2 603.4 334 603.5C333.5 603.7 332.3 604.2 331.6 605.5C330.9 607 331.5 608.3 331.6 608.7C332.2 609.9 333.2 610.4 333.7 610.6C333.9 610.7 334.1 610.7 334.3 610.7H340.7C341 610.7 341.4 610.6 341.6 610.4L352.8 602.1C352.9 602.1 352.9 602 353 602H356.6C356.7 602 356.8 602 356.9 602C357.2 601.9 357.5 601.8 357.8 601.7C359 601 359.4 599.7 359.5 599.2C359.8 597.2 358.7 595.9 358.5 595.7ZM358.3 598.8C358.2 599.2 358 600 357.2 600.5C357 600.6 356.8 600.7 356.6 600.7C356.6 600.7 356.6 600.7 356.5 600.7H352.9C352.6 600.7 352.2 600.8 352 601L340.8 609.3C340.7 609.3 340.7 609.4 340.6 609.4H334.2H334.1C333.7 609.3 333 608.9 332.7 608.1C332.6 607.9 332.2 606.9 332.7 605.9C333.1 605 334 604.6 334.3 604.5H334.4H338.2C338.5 604.5 338.9 604.4 339.1 604.2L350.3 595.8C350.4 595.8 350.4 595.7 350.5 595.7H356.2H356.3C356.6 595.8 357.1 596 357.5 596.5C357.6 596.6 358.5 597.6 358.3 598.8Z" fill="white"/>
<path d="M342.1 596.3C343.26 596.3 344.2 595.36 344.2 594.2C344.2 593.04 343.26 592.1 342.1 592.1C340.94 592.1 340 593.04 340 594.2C340 595.36 340.94 596.3 342.1 596.3Z" fill="white"/>
<path d="M1076.6 725C1088.36 725 1097.9 715.464 1097.9 703.7C1097.9 691.936 1088.36 682.4 1076.6 682.4C1064.84 682.4 1055.3 691.936 1055.3 703.7C1055.3 715.464 1064.84 725 1076.6 725Z" fill="#1D3D90"/>
<path d="M1076.6 722.7C1076.6 722.7 1076.8 723 1077.1 723.4C1077.3 723.6 1077.4 723.9 1077.6 724.2C1077.7 724.4 1077.8 724.5 1077.9 724.7C1078 724.9 1077.9 725.1 1077.9 725.2C1077.9 726.7 1077.9 728.8 1077.9 730.8C1077.9 732.8 1077.9 734.9 1077.9 736.4C1077.9 736.5 1077.9 736.6 1077.9 736.7C1077.9 736.8 1077.9 736.9 1077.9 737C1077.8 737.2 1077.7 737.3 1077.6 737.5C1077.4 737.8 1077.2 738.1 1077.1 738.3C1076.8 738.7 1076.6 739 1076.6 739C1076.6 739 1076.4 738.7 1076.1 738.3C1076 738.1 1075.8 737.8 1075.6 737.5C1075.5 737.3 1075.4 737.2 1075.3 737C1075.2 736.9 1075.2 736.8 1075.3 736.7C1075.3 736.6 1075.3 736.5 1075.3 736.4C1075.3 734.9 1075.3 732.8 1075.3 730.8C1075.3 728.8 1075.3 726.7 1075.3 725.2C1075.3 725 1075.2 724.8 1075.3 724.7C1075.4 724.5 1075.5 724.4 1075.6 724.2C1075.8 723.9 1076 723.6 1076.1 723.4C1076.4 722.9 1076.6 722.7 1076.6 722.7Z" fill="#1D3D90"/>
<path d="M1090.7 698.1C1090.1 697.5 1089.4 697.1 1089 697C1088.8 697 1088.7 696.9 1088.5 696.9H1082.8C1082.5 696.9 1082.1 697 1081.9 697.2L1076.5 701.2V700.6V700.5C1076.5 700.3 1076.4 700.2 1076.3 700C1076 699.3 1075.4 698.8 1074.8 698.7C1073.8 698.4 1073 699.1 1072.9 699.2C1072.2 699.8 1072.1 700.6 1072.1 700.9V704.6L1070.7 705.7C1070.6 705.7 1070.6 705.8 1070.5 705.8H1066.7C1066.5 705.8 1066.4 705.8 1066.2 705.9C1065.7 706.1 1064.5 706.6 1063.8 707.9C1063.1 709.4 1063.7 710.7 1063.8 711.1C1064.4 712.3 1065.4 712.8 1065.9 713C1066.1 713.1 1066.3 713.1 1066.5 713.1H1072.9C1073.2 713.1 1073.6 713 1073.8 712.8L1085 704.5C1085.1 704.5 1085.1 704.4 1085.2 704.4H1088.8C1088.9 704.4 1089 704.4 1089.1 704.4C1089.4 704.3 1089.7 704.2 1090 704.1C1091.2 703.4 1091.6 702.1 1091.7 701.6C1092 699.6 1090.8 698.2 1090.7 698.1ZM1090.4 701.2C1090.3 701.6 1090.1 702.4 1089.3 702.9C1089.1 703 1088.9 703.1 1088.7 703.1C1088.7 703.1 1088.7 703.1 1088.6 703.1H1085C1084.7 703.1 1084.3 703.2 1084.1 703.4L1072.9 711.7C1072.8 711.7 1072.8 711.8 1072.7 711.8H1066.3H1066.2C1065.8 711.7 1065.1 711.3 1064.8 710.5C1064.7 710.3 1064.3 709.3 1064.8 708.3C1065.2 707.4 1066.1 707 1066.4 706.9H1066.5H1070.3C1070.6 706.9 1071 706.8 1071.2 706.6L1082.4 698.2C1082.5 698.2 1082.5 698.1 1082.6 698.1H1088.3H1088.4C1088.7 698.2 1089.2 698.4 1089.6 698.9C1089.8 698.9 1090.7 699.9 1090.4 701.2Z" fill="white"/>
<path d="M1074.3 698.6C1075.46 698.6 1076.4 697.66 1076.4 696.5C1076.4 695.34 1075.46 694.4 1074.3 694.4C1073.14 694.4 1072.2 695.34 1072.2 696.5C1072.2 697.66 1073.14 698.6 1074.3 698.6Z" fill="white"/>
<path d="M679.9 641L831.6 720.1" stroke="#3388FF" stroke-width="1.6068" stroke-miterlimit="10" stroke-linecap="round" stroke-linejoin="round"/>
<path d="M1099.5 681.6L1131 673.5" stroke="#4B7BBD" stroke-width="1.6068" stroke-miterlimit="10" stroke-linecap="round" stroke-linejoin="round"/>
<path d="M788.1 738.5C788.1 738.5 788.3 738.8 788.6 739.2C788.8 739.4 788.9 739.7 789.1 740C789.2 740.2 789.3 740.3 789.4 740.5C789.5 740.7 789.4 740.9 789.4 741C789.4 742.5 789.4 744.6 789.4 746.6C789.4 748.6 789.4 750.7 789.4 752.2C789.4 752.3 789.4 752.4 789.4 752.5C789.4 752.6 789.4 752.7 789.4 752.8C789.3 753 789.2 753.1 789.1 753.3C788.9 753.6 788.7 753.9 788.6 754.1C788.3 754.5 788.1 754.8 788.1 754.8C788.1 754.8 787.9 754.5 787.6 754.1C787.5 753.9 787.3 753.6 787.1 753.3C787 753.1 786.9 753 786.8 752.8C786.7 752.7 786.7 752.6 786.8 752.5C786.8 752.4 786.8 752.3 786.8 752.2C786.8 750.7 786.8 748.6 786.8 746.6C786.8 744.6 786.8 742.5 786.8 741C786.8 740.8 786.7 740.6 786.8 740.5C786.9 740.3 787 740.2 787.1 740C787.3 739.7 787.5 739.4 787.6 739.2C787.9 738.7 788.1 738.5 788.1 738.5Z" fill="#1D3D90"/>
<path d="M788.1 741.6C775.9 741.6 766 731.7 766 719.5C766 707.3 775.9 697.4 788.1 697.4C800.3 697.4 810.2 707.3 810.2 719.5C810.2 731.7 800.3 741.6 788.1 741.6Z" fill="#F8493B"/>
<path d="M788.1 698.3C799.8 698.3 809.4 707.8 809.4 719.6C809.4 731.3 799.9 740.9 788.1 740.9C776.4 740.9 766.8 731.4 766.8 719.6C766.9 707.8 776.4 698.3 788.1 698.3ZM788.1 696.7C775.5 696.7 765.2 707 765.2 719.6C765.2 732.2 775.5 742.5 788.1 742.5C800.7 742.5 811 732.2 811 719.6C811 707 800.7 696.7 788.1 696.7Z" fill="#1D3D90"/>
<path d="M770.1 725.6V721.6H772H772.8H779H779.6H782.2V725.6H780V723.8H772.4V725.6H770.1ZM771.9 714.8H780.7V723.1H778.2V715.8L779.3 716.9H773.2L774.2 716.1C774.3 716.5 774.3 716.8 774.3 717.2C774.3 717.5 774.3 717.9 774.3 718.2C774.3 719.1 774.2 719.9 774.1 720.6C773.9 721.2 773.7 721.7 773.4 722.1C773.1 722.4 772.7 722.6 772.2 722.6L771.2 721.7C771.5 721.3 771.8 720.8 771.9 720.2C772.1 719.5 772.1 718.7 772.1 717.8C772.1 717.4 772.1 716.9 772.1 716.4C772 715.8 772 715.3 771.9 714.8Z" fill="white"/>
<path d="M793 714.8V723.8H790.5V715.9L791.6 717H784.8L785.9 715.9V723.8H783.4V714.8H793Z" fill="white"/>
<path d="M799.6 723.9C798.5 723.9 797.6 723.7 796.8 723.3C796 722.9 795.4 722.4 794.9 721.7C794.5 721 794.2 720.2 794.2 719.2C794.2 718.3 794.4 717.4 794.9 716.7C795.3 716 796 715.4 796.8 715.1C797.6 714.7 798.5 714.5 799.6 714.5C800.7 714.5 801.6 714.7 802.4 715.1C803.2 715.5 803.8 716 804.3 716.7C804.8 717.4 805 718.2 805 719.2C805 720.1 804.8 721 804.3 721.7C803.9 722.4 803.2 723 802.4 723.3C801.6 723.7 800.7 723.9 799.6 723.9ZM799.6 721.7C800.2 721.7 800.7 721.6 801.1 721.4C801.5 721.2 801.9 720.9 802.1 720.5C802.3 720.1 802.4 719.7 802.4 719.2C802.4 718.7 802.3 718.2 802.1 717.9C801.9 717.5 801.5 717.2 801.1 717C800.7 716.8 800.2 716.7 799.6 716.7C799 716.7 798.5 716.8 798.1 717C797.7 717.2 797.3 717.5 797.1 717.9C796.9 718.3 796.8 718.7 796.8 719.2C796.8 719.7 796.9 720.2 797.1 720.5C797.3 720.9 797.7 721.2 798.1 721.4C798.5 721.6 799 721.7 799.6 721.7Z" fill="white"/>
<path d="M1193.7 597.7C1193.7 597.7 1193.9 598 1194.2 598.4C1194.4 598.6 1194.5 598.9 1194.7 599.2C1194.8 599.4 1194.9 599.5 1195 599.7C1195.1 599.9 1195 600.1 1195 600.2C1195 601.7 1195 603.8 1195 605.8C1195 607.8 1195 609.9 1195 611.4C1195 611.5 1195 611.6 1195 611.7C1195 611.8 1195 611.9 1195 612C1194.9 612.2 1194.8 612.3 1194.7 612.5C1194.5 612.8 1194.3 613.1 1194.2 613.3C1193.9 613.7 1193.7 614 1193.7 614C1193.7 614 1193.5 613.7 1193.2 613.3C1193.1 613.1 1192.9 612.8 1192.7 612.5C1192.6 612.3 1192.5 612.2 1192.4 612C1192.3 611.9 1192.3 611.8 1192.4 611.7C1192.4 611.6 1192.4 611.5 1192.4 611.4C1192.4 609.9 1192.4 607.8 1192.4 605.8C1192.4 603.8 1192.4 601.7 1192.4 600.2C1192.4 600 1192.3 599.8 1192.4 599.7C1192.5 599.5 1192.6 599.4 1192.7 599.2C1192.9 598.9 1193.1 598.6 1193.2 598.4C1193.5 598 1193.7 597.7 1193.7 597.7Z" fill="#1D3D90"/>
<path d="M1194.7 600.9C1182.5 600.9 1172.6 591 1172.6 578.8C1172.6 566.6 1182.5 556.7 1194.7 556.7C1206.9 556.7 1216.8 566.6 1216.8 578.8C1216.8 591 1206.9 600.9 1194.7 600.9Z" fill="#F8493B"/>
<path d="M1194.7 557.5C1206.4 557.5 1216 567 1216 578.8C1216 590.5 1206.5 600.1 1194.7 600.1C1183 600.1 1173.4 590.6 1173.4 578.8C1173.5 567 1183 557.5 1194.7 557.5ZM1194.7 555.9C1182.1 555.9 1171.8 566.2 1171.8 578.8C1171.8 591.4 1182.1 601.7 1194.7 601.7C1207.3 601.7 1217.6 591.4 1217.6 578.8C1217.6 566.2 1207.3 555.9 1194.7 555.9Z" fill="#1D3D90"/>
<path d="M1194.7 596.2C1204.3 596.2 1212.1 588.4 1212.1 578.8C1212.1 569.2 1204.3 561.4 1194.7 561.4C1185.1 561.4 1177.3 569.2 1177.3 578.8C1177.4 588.4 1185.1 596.2 1194.7 596.2Z" stroke="white" stroke-width="1.9625" stroke-miterlimit="10"/>
<path d="M1192 589H1189.6C1189.5 589 1189.4 588.9 1189.4 588.8V584.5H1188.4C1188.3 584.5 1188.2 584.4 1188.2 584.3V582.6C1188.2 582.5 1188.3 582.4 1188.4 582.4H1189.4V581H1188.4C1188.3 581 1188.2 580.9 1188.2 580.8V578.7C1188.2 578.6 1188.3 578.5 1188.4 578.5H1189.4V570.8C1189.4 570.7 1189.5 570.6 1189.6 570.6H1195.2C1196.8 570.6 1198.1 570.8 1198.9 571.1C1199.8 571.4 1200.5 572 1201 572.9C1201.5 573.7 1201.8 574.7 1201.8 575.7C1201.8 576.7 1201.6 577.6 1201.2 578.3C1200.8 579 1200.3 579.5 1199.7 579.9C1199.1 580.3 1198.3 580.6 1197.5 580.7C1196.7 580.9 1195.9 580.9 1195 580.9H1192.1V582.3H1199.1C1199.2 582.3 1199.3 582.4 1199.3 582.5V584.2C1199.3 584.3 1199.2 584.4 1199.1 584.4H1192.1V588.7C1192.2 588.9 1192.1 589 1192 589ZM1192.2 578.5H1195.1C1195.6 578.5 1196.2 578.5 1196.6 578.4C1197.1 578.3 1197.5 578.2 1197.8 578C1198.1 577.8 1198.4 577.5 1198.6 577.1C1198.8 576.7 1198.9 576.3 1198.9 575.7C1198.9 575.2 1198.8 574.8 1198.6 574.4C1198.4 574.1 1198.2 573.8 1197.8 573.6C1197.5 573.4 1197.1 573.2 1196.6 573.1C1196.2 573 1195.7 572.9 1195.1 572.9H1191.9V578.5H1192.2Z" fill="white"/>
</svg>
