<svg width="1920" height="1080" viewBox="0 0 1920 1080" fill="none" xmlns="http://www.w3.org/2000/svg">
<path d="M509.6 316.7L432.6 393.6L319.1 459.1L363.1 473.7L138.1 699.1L137.9 699.3L249.2 751.3L203.5 779.5C318.8 835.6 443 903.1 573.2 978.3L621.8 950.5L719 1009.5L1598.2 717L1733.5 671.9L1582.8 583L1626.2 568.7L1577.3 519.6L1476.3 553.1H1476.4L1336.1 600L1312.6 576.5L1042.1 666.6L1065.2 689.7L852.4 760.6L606.4 629.8L1047 268.6L1068 275.8L1046.3 297.5L1105 238.8L992.3 201.3L1026.9 166.5L759.5 77.5L517.7 319.4L509.6 316.7Z" fill="#ADCFFF"/>
<path d="M509.9 287.6L432.8 364.5L319.2 430.1L363.2 444.7L138.1 670.3L137.9 670.5L249.3 722.5L203.3 754.5L346 825.8L326.6 837.9L348.6 849.6L394.8 874.2L416.8 886.1L438.2 872.5L573.6 949.6L622.2 921.8L719.5 980.8L1599.3 688.2L1734.7 643.1L1583.9 554.1L1627.3 539.8L1578.4 490.7L1477.3 524.3L1337 571L1313.5 547.5L1042.8 637.7L1065.8 660.7L852.8 731.7L627.5 614.3L922.7 443.7L889.9 424.8L1047 268.3L1105.8 209.6L993 172L1027.6 137.2L760 48.1L518 290.2L509.9 287.6Z" fill="white"/>
<path d="M425.7 737.6L566.3 814.6L603 799.2L819.6 726.9L573.5 599.2L459.4 714.6L425.7 737.6Z" fill="#66B9FF"/>
<path d="M753.1 765.4L578.9 823.6L652.1 865.3L652.7 865.7" stroke="#0086CD" stroke-width="4.8104" stroke-miterlimit="10" stroke-linecap="round" stroke-linejoin="round"/>
<path d="M383.4 678.5L407 686.3L418.7 693.1" stroke="#0086CD" stroke-width="4.8104" stroke-miterlimit="10" stroke-linecap="round" stroke-linejoin="round"/>
<path d="M629.2 238.6L676.7 254.5L693.2 259.9" stroke="#0086CD" stroke-width="4.8104" stroke-miterlimit="10" stroke-linecap="round" stroke-linejoin="round"/>
<path d="M1362.9 613.4L1291.2 637.4" stroke="#0086CD" stroke-width="4.8104" stroke-miterlimit="10" stroke-linecap="round" stroke-linejoin="round"/>
<path d="M1291.2 637.4L1324.8 670.9" stroke="#0086CD" stroke-width="1.6035" stroke-miterlimit="10" stroke-linecap="round" stroke-linejoin="round"/>
<path d="M1291.2 637.4L1219.4 661.2" stroke="#0086CD" stroke-width="4.8104" stroke-miterlimit="10" stroke-linecap="round" stroke-linejoin="round"/>
<path d="M1362.9 613.4L1374.5 624.9L1396.8 647.1" stroke="#0086CD" stroke-width="4.8104" stroke-miterlimit="10" stroke-linecap="round" stroke-linejoin="round"/>
<path d="M418.7 693.1L422.4 695.2" stroke="#0086CD" stroke-width="4.8535" stroke-miterlimit="10" stroke-linecap="round" stroke-linejoin="round"/>
<path d="M441.6 706.3L447.8 709.8L449.3 710.8" stroke="#0086CD" stroke-width="4.8104" stroke-miterlimit="10" stroke-linecap="round" stroke-linejoin="round"/>
<path d="M645.8 523.6L633.5 536L569.2 572.6L519.6 556.1" stroke="#0086CD" stroke-width="4.8104" stroke-miterlimit="10" stroke-linecap="round" stroke-linejoin="round"/>
<path d="M569.2 572.6L543.2 587.5L501.9 573.8" stroke="#0086CD" stroke-width="4.8104" stroke-miterlimit="10" stroke-linecap="round" stroke-linejoin="round"/>
<path d="M395.3 538.3L424.4 548L431.6 550.4" stroke="#0086CD" stroke-width="4.8104" stroke-miterlimit="10" stroke-linecap="round" stroke-linejoin="round"/>
<path d="M465 561.5L469 562.9L501.9 573.8" stroke="#0086CD" stroke-width="4.8104" stroke-miterlimit="10" stroke-linecap="round" stroke-linejoin="round"/>
<path d="M1583.9 554.4L1573.6 557.8L1557.6 548.6L1504.4 566.4" stroke="#0086CD" stroke-width="4.8535" stroke-miterlimit="10" stroke-linecap="round" stroke-linejoin="round"/>
<path d="M622.3 922.1L719.6 981.1L744.5 972.8" stroke="#0086CD" stroke-width="7.4828" stroke-miterlimit="10" stroke-linecap="round" stroke-linejoin="round"/>
<path d="M798.9 954.7L652.7 865.7" stroke="#0086CD" stroke-width="4.8104" stroke-miterlimit="10" stroke-linecap="round" stroke-linejoin="round"/>
<path d="M652.1 865.3L760.8 829.1L802.3 815.3" stroke="#0086CD" stroke-width="4.8104" stroke-miterlimit="10" stroke-linecap="round" stroke-linejoin="round"/>
<path d="M760.8 829.1H760.9L864.9 933.3" stroke="#0086CD" stroke-width="4.8104" stroke-miterlimit="10" stroke-linecap="round" stroke-linejoin="round"/>
<path d="M776 963L864.2 933.6" stroke="#0086CD" stroke-width="7.4828" stroke-miterlimit="10" stroke-linecap="round" stroke-linejoin="round"/>
<path d="M183.2 625.4L355.7 706.3" stroke="#0086CD" stroke-width="4.8535" stroke-miterlimit="10" stroke-linecap="round" stroke-linejoin="round"/>
<path d="M471.3 659.5L285.3 597.7L229.5 579" stroke="#0086CD" stroke-width="4.8104" stroke-miterlimit="10" stroke-linecap="round" stroke-linejoin="round"/>
<path d="M278.8 604.8L405.6 646.7L379 672L252.9 629.9" stroke="#0086CD" stroke-width="1.6035" stroke-miterlimit="10" stroke-linecap="round" stroke-linejoin="round"/>
<path d="M285.3 597.7L234.5 648.3" stroke="#0086CD" stroke-width="1.6035" stroke-miterlimit="10" stroke-linecap="round" stroke-linejoin="round"/>
<path d="M355.1 524.9L301.4 507" stroke="#0086CD" stroke-width="4.8535" stroke-miterlimit="10" stroke-linecap="round" stroke-linejoin="round"/>
<path d="M468.8 464.6L395.3 538.3" stroke="#0086CD" stroke-width="4.8104" stroke-miterlimit="10" stroke-linecap="round" stroke-linejoin="round"/>
<path d="M575.5 500.1L519.6 556.1L501.9 573.8" stroke="#0086CD" stroke-width="4.8104" stroke-miterlimit="10" stroke-linecap="round" stroke-linejoin="round"/>
<path d="M802.9 400.8L881.4 322.5" stroke="#0086CD" stroke-width="4.8104" stroke-miterlimit="10" stroke-linecap="round" stroke-linejoin="round"/>
<path d="M629.2 238.6L596.4 271.4" stroke="#0086CD" stroke-width="4.8104" stroke-miterlimit="10" stroke-linecap="round" stroke-linejoin="round"/>
<path d="M581.8 286L551.2 316.8" stroke="#0086CD" stroke-width="4.8104" stroke-miterlimit="10" stroke-linecap="round" stroke-linejoin="round"/>
<path d="M778.5 288.3L703.5 363.1L700.1 366.5" stroke="#0086CD" stroke-width="4.8104" stroke-miterlimit="10" stroke-linecap="round" stroke-linejoin="round"/>
<path d="M854.2 313.6L775.8 391.8" stroke="#0086CD" stroke-width="4.8104" stroke-miterlimit="10" stroke-linecap="round" stroke-linejoin="round"/>
<path d="M678.1 255.3L650.4 283L635.3 298L607.2 326.4L600.3 333.1" stroke="#0086CD" stroke-width="4.8104" stroke-miterlimit="10" stroke-linecap="round" stroke-linejoin="round"/>
<path d="M596.4 271.4L645.7 287.7" stroke="#0086CD" stroke-width="4.8104" stroke-miterlimit="10" stroke-linecap="round" stroke-linejoin="round"/>
<path d="M581.8 286L630.9 302.5" stroke="#0086CD" stroke-width="4.8104" stroke-miterlimit="10" stroke-linecap="round" stroke-linejoin="round"/>
<path d="M864.9 232.2L976.5 120.6" stroke="#0086CD" stroke-width="4.8104" stroke-miterlimit="10" stroke-linecap="round" stroke-linejoin="round"/>
<path d="M853.7 79.7L742.1 191.2L728.9 186.8" stroke="#0086CD" stroke-width="4.8104" stroke-miterlimit="10" stroke-linecap="round" stroke-linejoin="round"/>
<path d="M648.6 160L705.2 178.9" stroke="#0086CD" stroke-width="4.8104" stroke-miterlimit="10" stroke-linecap="round" stroke-linejoin="round"/>
<path d="M1456.2 664.5L1394.6 602.9L1504.4 566.4" stroke="#0086CD" stroke-width="4.8104" stroke-miterlimit="10" stroke-linecap="round" stroke-linejoin="round"/>
<path d="M1003 733.4L883 773.4" stroke="#0086CD" stroke-width="4.8104" stroke-miterlimit="10" stroke-linecap="round" stroke-linejoin="round"/>
<path d="M907.4 847.3L884.8 824.6L830.2 842.8" stroke="#0086CD" stroke-width="4.8104" stroke-miterlimit="10" stroke-linecap="round" stroke-linejoin="round"/>
<path d="M1003 733.4L1064.5 794.9" stroke="#0086CD" stroke-width="4.8104" stroke-miterlimit="10" stroke-linecap="round" stroke-linejoin="round"/>
<path d="M944.5 835L916.2 844.3L907.4 847.3" stroke="#0086CD" stroke-width="4.8104" stroke-miterlimit="10" stroke-linecap="round" stroke-linejoin="round"/>
<path d="M1047 268.6L1105.8 209.9L993 172.3L1027.6 137.5L976.5 120.6L853.7 79.7L760 48.4L629.7 178.9L518.1 290.5L509.9 287.9L432.8 364.8L319.3 430.4L363.3 445L301.4 507L242.6 566L229.5 579L183.2 625.4L169.5 639.2" stroke="#0086CD" stroke-width="7.4828" stroke-miterlimit="10" stroke-linecap="round" stroke-linejoin="round"/>
<path d="M138.1 670.6L151.5 657.2L138 670.8L249.4 722.8L203.4 754.8L346 826L326.6 838.2L348.7 849.9" stroke="#0086CD" stroke-width="7.4828" stroke-miterlimit="10" stroke-linecap="round" stroke-linejoin="round"/>
<path d="M1439 537.3C1336.5 437.4 1194.7 353 1024.9 290.8" stroke="#0086CD" stroke-width="1.6035" stroke-miterlimit="10" stroke-linecap="round" stroke-linejoin="round"/>
<path d="M580.3 353.3L784.3 421.3" stroke="#0086CD" stroke-width="4.8104" stroke-miterlimit="10" stroke-linecap="round" stroke-linejoin="round"/>
<path d="M830.2 842.8L792.6 805.1L788.8 801.3" stroke="#0086CD" stroke-width="4.8104" stroke-miterlimit="10" stroke-linecap="round" stroke-linejoin="round"/>
<path d="M769.5 781.9L755.5 767.9" stroke="#0086CD" stroke-width="4.8104" stroke-miterlimit="10" stroke-linecap="round" stroke-linejoin="round"/>
<path d="M622.3 922.1L573.6 949.9L438.2 872.8L416.8 886.4L394.8 874.5" stroke="#0086CD" stroke-width="7.4828" stroke-miterlimit="10" stroke-linecap="round" stroke-linejoin="round"/>
<path d="M488.5 841.4L625.8 920.1L622.3 922.1" stroke="#0086CD" stroke-width="4.8535" stroke-miterlimit="10" stroke-linecap="round" stroke-linejoin="round"/>
<path d="M383.4 678.5L350.3 711.5" stroke="#0086CD" stroke-width="4.8104" stroke-miterlimit="10" stroke-linecap="round" stroke-linejoin="round"/>
<path d="M881.4 322.5L711.8 266.2" stroke="#0086CD" stroke-width="4.8104" stroke-miterlimit="10" stroke-linecap="round" stroke-linejoin="round"/>
<path d="M1064.5 794.9L973 825.4L944.5 835" stroke="#0086CD" stroke-width="4.8104" stroke-miterlimit="10" stroke-linecap="round" stroke-linejoin="round"/>
<path d="M1439 537.3C1336.5 437.4 1194.8 353 1025 290.8" stroke="#0086CD" stroke-width="1.6035" stroke-miterlimit="10" stroke-linecap="round" stroke-linejoin="round"/>
<path d="M1463.4 511.3L1425.9 524.8" stroke="#0086CD" stroke-width="1.6035" stroke-miterlimit="10" stroke-linecap="round" stroke-linejoin="round"/>
<path d="M1448.8 498.3L1411.9 512" stroke="#0086CD" stroke-width="1.6035" stroke-miterlimit="10" stroke-linecap="round" stroke-linejoin="round"/>
<path d="M1433.9 485.2L1397.4 499.5" stroke="#0086CD" stroke-width="1.6035" stroke-miterlimit="10" stroke-linecap="round" stroke-linejoin="round"/>
<path d="M1418.5 472.4L1382.5 487" stroke="#0086CD" stroke-width="1.6035" stroke-miterlimit="10" stroke-linecap="round" stroke-linejoin="round"/>
<path d="M1402.6 459.6L1367.3 474.8" stroke="#0086CD" stroke-width="1.6035" stroke-miterlimit="10" stroke-linecap="round" stroke-linejoin="round"/>
<path d="M1386.3 447.2L1351.5 462.8" stroke="#0086CD" stroke-width="1.6035" stroke-miterlimit="10" stroke-linecap="round" stroke-linejoin="round"/>
<path d="M1369.7 435L1335.4 450.9" stroke="#0086CD" stroke-width="1.6035" stroke-miterlimit="10" stroke-linecap="round" stroke-linejoin="round"/>
<path d="M1352.5 422.8L1318.8 439.2" stroke="#0086CD" stroke-width="1.6035" stroke-miterlimit="10" stroke-linecap="round" stroke-linejoin="round"/>
<path d="M1334.9 411L1301.7 427.8" stroke="#0086CD" stroke-width="1.6035" stroke-miterlimit="10" stroke-linecap="round" stroke-linejoin="round"/>
<path d="M1316.9 399.5L1284.3 416.5" stroke="#0086CD" stroke-width="1.6035" stroke-miterlimit="10" stroke-linecap="round" stroke-linejoin="round"/>
<path d="M1298.5 387.9L1266.6 405.5" stroke="#0086CD" stroke-width="1.6035" stroke-miterlimit="10" stroke-linecap="round" stroke-linejoin="round"/>
<path d="M1279.7 376.7L1248.3 394.7" stroke="#0086CD" stroke-width="1.6035" stroke-miterlimit="10" stroke-linecap="round" stroke-linejoin="round"/>
<path d="M1260.4 365.8L1229.7 384.1" stroke="#0086CD" stroke-width="1.6035" stroke-miterlimit="10" stroke-linecap="round" stroke-linejoin="round"/>
<path d="M1240.9 355L1211 373.6" stroke="#0086CD" stroke-width="1.6035" stroke-miterlimit="10" stroke-linecap="round" stroke-linejoin="round"/>
<path d="M1220.9 344.5L1191.3 363.4" stroke="#0086CD" stroke-width="1.6035" stroke-miterlimit="10" stroke-linecap="round" stroke-linejoin="round"/>
<path d="M1200.6 334.2L1172 353.5" stroke="#0086CD" stroke-width="1.6035" stroke-miterlimit="10" stroke-linecap="round" stroke-linejoin="round"/>
<path d="M1179.8 324.2L1152.1 343.7" stroke="#0086CD" stroke-width="1.6035" stroke-miterlimit="10" stroke-linecap="round" stroke-linejoin="round"/>
<path d="M1158.7 314.4L1131.3 334.4" stroke="#0086CD" stroke-width="1.6035" stroke-miterlimit="10" stroke-linecap="round" stroke-linejoin="round"/>
<path d="M1137.3 304.8L1110.7 325.1" stroke="#0086CD" stroke-width="1.6035" stroke-miterlimit="10" stroke-linecap="round" stroke-linejoin="round"/>
<path d="M1115.6 295.6L1089.8 316" stroke="#0086CD" stroke-width="1.6035" stroke-miterlimit="10" stroke-linecap="round" stroke-linejoin="round"/>
<path d="M1093.6 286.5L1068.4 307.4" stroke="#0086CD" stroke-width="1.6035" stroke-miterlimit="10" stroke-linecap="round" stroke-linejoin="round"/>
<path d="M1071.2 277.7L1046.7 299" stroke="#0086CD" stroke-width="1.6035" stroke-miterlimit="10" stroke-linecap="round" stroke-linejoin="round"/>
<path d="M1447.9 534.4L1454.7 514.6L1420.5 508.9L1425.4 488.6L1390.9 483.6L1394.3 463.2L1359.5 459.2L1361.5 438.7L1326.5 435.5L1327.1 415L1291.8 412.5L1291.1 392.1L1255.5 390.5L1253.2 370.1L1217.7 369.3L1214 349L1178.4 349.1L1173.2 328.8L1137.8 329.7L1131.2 309.6L1095.8 311.4L1087.6 291.4L1052.4 294L1041.8 273.9" stroke="#0086CD" stroke-width="1.6035" stroke-miterlimit="10" stroke-linecap="round" stroke-linejoin="round"/>
<path d="M898.2 428.7L919 440.7" stroke="#0086CD" stroke-width="1.6035" stroke-miterlimit="10" stroke-linecap="round" stroke-linejoin="round"/>
<path d="M1439 537.3L1338.3 570.9L1314.8 547.3L1044.1 637.5L1067.2 660.6L854.2 731.5L849.3 729.1L628.9 614.1L924 443.6L891.3 424.7L1024.8 290.8L1022.5 293.1" stroke="#0086CD" stroke-width="1.6035" stroke-miterlimit="10" stroke-linecap="round" stroke-linejoin="round"/>
<path d="M1046.2 267.6L1025 289" stroke="#0086CD" stroke-width="4.8535" stroke-miterlimit="10" stroke-linecap="round" stroke-linejoin="round"/>
<path d="M1477.3 524.6L1439 537.3" stroke="#0086CD" stroke-width="4.8104" stroke-miterlimit="10" stroke-linecap="round" stroke-linejoin="round"/>
<path d="M864.9 232.2L923.1 251.6" stroke="#0086CD" stroke-width="4.8104" stroke-miterlimit="10" stroke-linecap="round" stroke-linejoin="round"/>
<path d="M964.5 265.3L1027.6 286.4" stroke="#0086CD" stroke-width="4.8104" stroke-miterlimit="10" stroke-linecap="round" stroke-linejoin="round"/>
<path d="M825.2 462.9L725.7 520.4L825.2 462.9ZM825.2 462.9L850.5 477.5L750.8 535L850.5 477.5" stroke="#0086CD" stroke-width="1.6035" stroke-miterlimit="10" stroke-linecap="round" stroke-linejoin="round"/>
<path d="M725.7 520.4L750.8 535L725.7 520.4Z" stroke="#0086CD" stroke-width="1.6035" stroke-miterlimit="10" stroke-linecap="round" stroke-linejoin="round"/>
<path d="M1219.4 661.2L1138.9 688" stroke="#0086CD" stroke-width="4.8104" stroke-miterlimit="10" stroke-linecap="round" stroke-linejoin="round"/>
<path d="M1083 706.6L1003 733.4" stroke="#0086CD" stroke-width="4.8104" stroke-miterlimit="10" stroke-linecap="round" stroke-linejoin="round"/>
<path d="M438.2 872.8L455.6 862" stroke="#0086CD" stroke-width="4.8535" stroke-miterlimit="10" stroke-linecap="round" stroke-linejoin="round"/>
<path d="M474.2 850.3L488.5 841.4" stroke="#0086CD" stroke-width="4.8535" stroke-miterlimit="10" stroke-linecap="round" stroke-linejoin="round"/>
<path d="M346 826L365.6 813.9" stroke="#0086CD" stroke-width="4.8104" stroke-miterlimit="10" stroke-linecap="round" stroke-linejoin="round"/>
<path d="M384.2 802.2L398.7 793.3L254 721.1L250.7 723.4" stroke="#0086CD" stroke-width="4.8104" stroke-miterlimit="10" stroke-linecap="round" stroke-linejoin="round"/>
<path d="M449.3 710.8L412.1 732.2L350.3 711.5" stroke="#0086CD" stroke-width="4.8104" stroke-miterlimit="10" stroke-linecap="round" stroke-linejoin="round"/>
<path d="M1304.3 715.1L1243.7 654.1" stroke="#0086CD" stroke-width="4.8104" stroke-miterlimit="10" stroke-linecap="round" stroke-linejoin="round"/>
<path d="M1396.8 647.2L1276.4 687.1" stroke="#0086CD" stroke-width="4.8104" stroke-miterlimit="10" stroke-linecap="round" stroke-linejoin="round"/>
<path d="M1304.3 715.1L1424.5 674.9" stroke="#0086CD" stroke-width="4.8535" stroke-miterlimit="10" stroke-linecap="round" stroke-linejoin="round"/>
<path d="M944.5 835L923.9 814.2" stroke="#0086CD" stroke-width="4.8104" stroke-miterlimit="10" stroke-linecap="round" stroke-linejoin="round"/>
<path d="M904.5 794.8L883.1 773.4" stroke="#0086CD" stroke-width="4.8104" stroke-miterlimit="10" stroke-linecap="round" stroke-linejoin="round"/>
<path d="M1466.5 528.3L1475.4 537.2" stroke="#0086CD" stroke-width="4.8104" stroke-miterlimit="10" stroke-linecap="round" stroke-linejoin="round"/>
<path d="M353.6 526.6L318.2 562" stroke="#0086CD" stroke-width="4.8104" stroke-miterlimit="10" stroke-linecap="round" stroke-linejoin="round"/>
<path d="M538.7 487.9L576.7 500.6L597.5 507.5" stroke="#0086CD" stroke-width="4.8104" stroke-miterlimit="10" stroke-linecap="round" stroke-linejoin="round"/>
<path d="M468.8 464.6L505.9 477" stroke="#0086CD" stroke-width="4.8104" stroke-miterlimit="10" stroke-linecap="round" stroke-linejoin="round"/>
<path d="M626 517L645.8 523.6" stroke="#0086CD" stroke-width="4.8104" stroke-miterlimit="10" stroke-linecap="round" stroke-linejoin="round"/>
<path d="M303.7 576.6L283.2 596.6" stroke="#0086CD" stroke-width="4.8104" stroke-miterlimit="10" stroke-linecap="round" stroke-linejoin="round"/>
<path d="M648.3 349L720.3 277.3L726.6 271.1" stroke="#0086CD" stroke-width="4.8104" stroke-miterlimit="10" stroke-linecap="round" stroke-linejoin="round"/>
<path d="M1416 666.5L1424.3 674.8" stroke="#0086CD" stroke-width="4.8104" stroke-miterlimit="10" stroke-linecap="round" stroke-linejoin="round"/>
<path d="M1421.1 676.1L1456 664.5" stroke="#0086CD" stroke-width="4.8104" stroke-miterlimit="10" stroke-linecap="round" stroke-linejoin="round"/>
<path d="M1396 646.4L1405.4 655.7" stroke="#0086CD" stroke-width="4.8104" stroke-miterlimit="10" stroke-linecap="round" stroke-linejoin="round"/>
<path d="M1583.2 553.5L1572.4 557.1L1557.1 548.9L1504.4 566.4" stroke="#0086CD" stroke-width="4.8104" stroke-miterlimit="10" stroke-linecap="round" stroke-linejoin="round"/>
<path d="M1477.3 524.6L1578.4 491L1627.3 540.1L1583.8 554.6L1602.7 565.7L1734.7 643.4L1599.3 688.5L864.9 933.3" stroke="#0086CD" stroke-width="7.3489" stroke-miterlimit="10" stroke-linecap="round" stroke-linejoin="round"/>
<path d="M1255.9 363.2C1341.7 410.8 1416.3 465.1 1477.3 524.6" stroke="#0086CD" stroke-width="4.8104" stroke-miterlimit="10" stroke-linecap="round" stroke-linejoin="round"/>
<path d="M1047 268.6C1122.2 296.1 1192.2 327.8 1255.9 363.1" stroke="#0086CD" stroke-width="4.8104" stroke-miterlimit="10" stroke-linecap="round" stroke-linejoin="round"/>
<path d="M1491.6 553.5L1526.5 588.6L1598.1 564.7" stroke="#0086CD" stroke-width="4.8104" stroke-miterlimit="10" stroke-linecap="round" stroke-linejoin="round"/>
<path d="M802.9 400.8L754 384.5L750.8 383.5" stroke="#0086CD" stroke-width="4.8104" stroke-miterlimit="10" stroke-linecap="round" stroke-linejoin="round"/>
<path d="M552.4 317.3L600.3 333.1" stroke="#0086CD" stroke-width="4.8104" stroke-miterlimit="10" stroke-linecap="round" stroke-linejoin="round"/>
<path d="M600.3 333.1L664.4 354.5" stroke="#0086CD" stroke-width="4.8104" stroke-miterlimit="10" stroke-linecap="round" stroke-linejoin="round"/>
<path d="M684 361.1L725.5 375" stroke="#0086CD" stroke-width="4.8104" stroke-miterlimit="10" stroke-linecap="round" stroke-linejoin="round"/>
<path d="M762.6 774.9L753.1 765.4L591.3 819.3" stroke="#0086CD" stroke-width="4.8104" stroke-miterlimit="10" stroke-linecap="round" stroke-linejoin="round"/>
<path d="M1304.3 715.1L1424.5 674.9" stroke="#0086CD" stroke-width="4.8104" stroke-miterlimit="10" stroke-linecap="round" stroke-linejoin="round"/>
<path d="M1468.4 529L1480.4 524.8" stroke="#0086CD" stroke-width="4.8104" stroke-miterlimit="10" stroke-linecap="round" stroke-linejoin="round"/>
<path d="M161 626.2L131 631.9L134.3 652.2L161 626.2Z" fill="#F8493B" stroke="#F8493B" stroke-width="3.5931" stroke-miterlimit="10" stroke-linecap="round" stroke-linejoin="round"/>
<path d="M750.7 991.3L786.8 1000.6L793.7 976.4L774.4 983.1L750.7 991.3Z" fill="#F8493B" stroke="#F8493B" stroke-width="3.5931" stroke-miterlimit="10" stroke-linecap="round" stroke-linejoin="round"/>
<path d="M250.608 897.975C250.608 899.03 250.274 899.932 249.606 900.682C248.95 901.421 247.977 901.895 246.688 902.106V902.247C248.048 902.411 249.143 902.885 249.976 903.671C250.808 904.444 251.224 905.423 251.224 906.606C251.224 907.731 250.931 908.739 250.345 909.63C249.759 910.509 248.827 911.206 247.55 911.721C246.272 912.225 244.602 912.477 242.54 912.477H233.188V892.825H242.54C244.075 892.825 245.452 892.989 246.671 893.317C247.89 893.634 248.851 894.167 249.554 894.917C250.257 895.667 250.608 896.686 250.608 897.975ZM245.669 906.325C245.669 905.552 245.364 904.995 244.755 904.655C244.157 904.303 243.267 904.128 242.083 904.128H238.55V908.768H242.188C243.196 908.768 244.028 908.581 244.685 908.206C245.341 907.831 245.669 907.204 245.669 906.325ZM245.177 898.397C245.177 897.788 244.936 897.337 244.456 897.044C243.976 896.751 243.267 896.604 242.329 896.604H238.55V900.489H241.714C242.851 900.489 243.712 900.325 244.298 899.997C244.884 899.669 245.177 899.135 245.177 898.397ZM259.854 902.44L253.526 892.825H259.608L263.423 899.083L267.272 892.825H273.354L266.956 902.44L273.653 912.477H267.554L263.423 905.745L259.274 912.477H253.192L259.854 902.44ZM294.501 902.616C294.501 904.257 294.278 905.71 293.833 906.975C293.399 908.241 292.761 909.313 291.917 910.192C291.085 911.059 290.077 911.716 288.893 912.161C287.722 912.606 286.397 912.829 284.921 912.829C283.538 912.829 282.267 912.606 281.106 912.161C279.958 911.716 278.956 911.059 278.101 910.192C277.257 909.313 276.601 908.241 276.132 906.975C275.675 905.71 275.446 904.257 275.446 902.616C275.446 900.436 275.833 898.591 276.606 897.079C277.38 895.567 278.481 894.419 279.911 893.634C281.341 892.848 283.046 892.456 285.026 892.456C286.866 892.456 288.495 892.848 289.913 893.634C291.343 894.419 292.462 895.567 293.27 897.079C294.091 898.591 294.501 900.436 294.501 902.616ZM280.913 902.616C280.913 903.905 281.054 904.989 281.335 905.868C281.616 906.747 282.056 907.409 282.653 907.854C283.251 908.3 284.03 908.522 284.991 908.522C285.94 908.522 286.708 908.3 287.294 907.854C287.892 907.409 288.325 906.747 288.595 905.868C288.876 904.989 289.017 903.905 289.017 902.616C289.017 901.315 288.876 900.237 288.595 899.382C288.325 898.514 287.892 897.864 287.294 897.43C286.696 896.997 285.917 896.78 284.956 896.78C283.538 896.78 282.507 897.266 281.862 898.239C281.229 899.212 280.913 900.671 280.913 902.616ZM316.597 892.825V908.557H319.479V919.526H314.663V912.477H301.444V919.526H296.628V908.557H298.28C299.147 907.233 299.874 905.721 300.46 904.022C301.058 902.323 301.538 900.524 301.901 898.626C302.276 896.716 302.546 894.782 302.71 892.825H316.597ZM311.235 896.85H307.21C307.022 898.303 306.782 899.71 306.489 901.069C306.208 902.417 305.856 903.718 305.435 904.971C305.013 906.214 304.497 907.409 303.888 908.557H311.235V896.85Z" fill="#1D3D90"/>
<path d="M102.948 588.157H110.946C114.368 588.157 116.957 588.638 118.715 589.599C120.473 590.56 121.352 592.247 121.352 594.661C121.352 595.634 121.194 596.513 120.877 597.298C120.573 598.083 120.127 598.728 119.541 599.232C118.956 599.735 118.241 600.064 117.397 600.216V600.392C118.252 600.567 119.026 600.872 119.717 601.306C120.409 601.728 120.959 602.349 121.37 603.169C121.791 603.978 122.002 605.056 122.002 606.403C122.002 607.962 121.622 609.298 120.86 610.411C120.098 611.524 119.008 612.38 117.59 612.978C116.184 613.564 114.508 613.857 112.563 613.857H102.948V588.157ZM108.397 598.335H111.561C113.143 598.335 114.239 598.089 114.848 597.597C115.457 597.093 115.762 596.355 115.762 595.382C115.762 594.398 115.399 593.694 114.672 593.273C113.957 592.839 112.821 592.622 111.262 592.622H108.397V598.335ZM108.397 602.659V609.357H111.948C113.588 609.357 114.731 609.04 115.375 608.407C116.02 607.774 116.342 606.925 116.342 605.858C116.342 605.226 116.202 604.669 115.92 604.189C115.639 603.708 115.164 603.333 114.497 603.064C113.84 602.794 112.932 602.659 111.772 602.659H108.397Z" fill="#1D3D90"/>
<path d="M826.67 997.266C825.627 997.266 824.701 997.471 823.893 997.881C823.096 998.28 822.422 998.86 821.871 999.621C821.332 1000.38 820.922 1001.3 820.641 1002.38C820.36 1003.46 820.219 1004.67 820.219 1006.02C820.219 1007.84 820.442 1009.39 820.887 1010.68C821.344 1011.96 822.047 1012.93 822.996 1013.61C823.946 1014.28 825.17 1014.62 826.67 1014.62C827.713 1014.62 828.756 1014.5 829.799 1014.26C830.854 1014.03 831.996 1013.7 833.227 1013.26V1017.83C832.09 1018.3 830.971 1018.64 829.869 1018.83C828.768 1019.05 827.531 1019.15 826.16 1019.15C823.512 1019.15 821.332 1018.61 819.621 1017.52C817.922 1016.41 816.662 1014.88 815.842 1012.91C815.022 1010.93 814.612 1008.62 814.612 1005.98C814.612 1004.04 814.875 1002.26 815.403 1000.64C815.93 999.024 816.703 997.623 817.723 996.44C818.742 995.256 820.002 994.342 821.502 993.698C823.002 993.053 824.725 992.731 826.67 992.731C827.948 992.731 829.225 992.895 830.502 993.223C831.791 993.539 833.022 993.979 834.194 994.541L832.436 998.971C831.475 998.514 830.508 998.115 829.535 997.776C828.563 997.436 827.608 997.266 826.67 997.266Z" fill="#1D3D90"/>
<path d="M612.8 509.1C624.564 509.1 634.1 499.564 634.1 487.8C634.1 476.036 624.564 466.5 612.8 466.5C601.036 466.5 591.5 476.036 591.5 487.8C591.5 499.564 601.036 509.1 612.8 509.1Z" fill="#1D3D90"/>
<path d="M623.4 479H617.1C616.8 479 616.5 479.3 616.5 479.7V482.7H612.1C611.8 482.7 611.5 483 611.5 483.4V486.4H607.1C606.8 486.4 606.5 486.7 606.5 487.1V490.1H602.1C601.8 490.1 601.5 490.4 601.5 490.8V496.1C601.5 496.5 601.8 496.8 602.1 496.8H608.6C608.7 496.8 608.8 496.8 608.9 496.7L623.7 486.2C623.9 486.1 624 485.9 624 485.6V479.8C624.1 479.3 623.8 479 623.4 479ZM622.8 480.3V485L608.4 495.2H602.7V491.3H607.1C607.4 491.3 607.7 491 607.7 490.6V487.6H612.1C612.4 487.6 612.7 487.3 612.7 486.9V483.9H617.1C617.4 483.9 617.7 483.6 617.7 483.2V480.2L622.8 480.3Z" fill="white"/>
<path d="M612.8 506.8C612.8 506.8 613 507.1 613.4 507.5C613.6 507.7 613.8 508 614 508.3C614.1 508.5 614.2 508.6 614.3 508.8C614.4 508.9 614.4 509 614.3 509.1C614.3 509.2 614.3 509.3 614.3 509.4C614.3 510.9 614.3 513 614.3 515C614.3 517 614.3 519.1 614.3 520.6C614.3 520.7 614.3 520.8 614.3 520.9C614.3 521 614.3 521.1 614.3 521.2C614.2 521.4 614.1 521.5 614 521.7C613.8 522 613.6 522.3 613.4 522.5C613.1 522.9 612.8 523.2 612.8 523.2C612.8 523.2 612.6 522.9 612.2 522.5C612 522.3 611.8 522 611.6 521.7C611.5 521.5 611.4 521.4 611.3 521.2C611.2 521.1 611.2 521 611.3 520.9C611.3 520.8 611.3 520.7 611.3 520.6C611.3 519.1 611.3 517 611.3 515C611.3 513 611.3 510.9 611.3 509.4C611.3 509.3 611.3 509.2 611.3 509.1C611.3 509 611.3 508.9 611.3 508.8C611.4 508.6 611.5 508.5 611.6 508.3C611.8 508 612 507.7 612.2 507.5C612.6 507 612.8 506.8 612.8 506.8Z" fill="#1D3D90"/>
<path d="M653.6 296.7C665.364 296.7 674.9 287.164 674.9 275.4C674.9 263.636 665.364 254.1 653.6 254.1C641.836 254.1 632.3 263.636 632.3 275.4C632.3 287.164 641.836 296.7 653.6 296.7Z" fill="#1D3D90"/>
<path d="M664.2 266.6H657.9C657.6 266.6 657.3 266.9 657.3 267.3V270.3H652.9C652.6 270.3 652.3 270.6 652.3 271V274H647.9C647.6 274 647.3 274.3 647.3 274.7V277.7H642.9C642.6 277.7 642.3 278 642.3 278.4V283.7C642.3 284.1 642.6 284.4 642.9 284.4H649.4C649.5 284.4 649.6 284.4 649.7 284.3L664.5 273.8C664.7 273.7 664.8 273.5 664.8 273.2V267.4C664.9 266.9 664.6 266.6 664.2 266.6ZM663.6 267.9V272.6L649.2 282.8H643.5V278.9H647.9C648.2 278.9 648.5 278.6 648.5 278.2V275.2H652.9C653.2 275.2 653.5 274.9 653.5 274.5V271.5H657.9C658.2 271.5 658.5 271.2 658.5 270.8V267.8L663.6 267.9Z" fill="white"/>
<path d="M653.6 294.4C653.6 294.4 653.8 294.7 654.2 295.1C654.4 295.3 654.6 295.6 654.8 295.9C654.9 296.1 655 296.2 655.1 296.4C655.2 296.5 655.2 296.6 655.1 296.7C655.1 296.8 655.1 296.9 655.1 297C655.1 298.5 655.1 300.6 655.1 302.6C655.1 304.6 655.1 306.7 655.1 308.2C655.1 308.3 655.1 308.4 655.1 308.5C655.1 308.6 655.1 308.7 655.1 308.8C655 309 654.9 309.1 654.8 309.3C654.6 309.6 654.4 309.9 654.2 310.1C653.9 310.5 653.6 310.8 653.6 310.8C653.6 310.8 653.4 310.5 653 310.1C652.8 309.9 652.6 309.6 652.4 309.3C652.3 309.1 652.2 309 652.1 308.8C652 308.7 652 308.6 652.1 308.5C652.1 308.4 652.1 308.3 652.1 308.2C652.1 306.7 652.1 304.6 652.1 302.6C652.1 300.6 652.1 298.5 652.1 297C652.1 296.9 652.1 296.8 652.1 296.7C652.1 296.6 652.1 296.5 652.1 296.4C652.2 296.2 652.3 296.1 652.4 295.9C652.6 295.6 652.8 295.3 653 295.1C653.4 294.6 653.6 294.4 653.6 294.4Z" fill="#1D3D90"/>
<path d="M784.3 493.1C796.064 493.1 805.6 483.564 805.6 471.8C805.6 460.036 796.064 450.5 784.3 450.5C772.536 450.5 763 460.036 763 471.8C763 483.564 772.536 493.1 784.3 493.1Z" fill="#1D3D90"/>
<path d="M795 463H788.7C788.4 463 788.1 463.3 788.1 463.7V466.7H783.7C783.4 466.7 783.1 467 783.1 467.4V470.4H778.7C778.4 470.4 778.1 470.7 778.1 471.1V474.1H773.7C773.4 474.1 773.1 474.4 773.1 474.8V480.1C773.1 480.5 773.4 480.8 773.7 480.8H780.2C780.3 480.8 780.4 480.8 780.5 480.7L795.3 470.2C795.5 470.1 795.6 469.9 795.6 469.6V463.8C795.6 463.3 795.3 463 795 463ZM794.3 464.3V469L779.9 479.2H774.2V475.3H778.6C778.9 475.3 779.2 475 779.2 474.6V471.6H783.6C783.9 471.6 784.2 471.3 784.2 470.9V467.9H788.6C788.9 467.9 789.2 467.6 789.2 467.2V464.2L794.3 464.3Z" fill="white"/>
<path d="M784.3 490.7C784.3 490.7 784.5 491 784.9 491.4C785.1 491.6 785.3 491.9 785.5 492.2C785.6 492.4 785.7 492.5 785.8 492.7C785.9 492.8 785.9 492.9 785.8 493C785.8 493.1 785.8 493.2 785.8 493.3C785.8 494.8 785.8 496.9 785.8 498.9C785.8 500.9 785.8 503 785.8 504.5C785.8 504.6 785.8 504.7 785.8 504.8C785.8 504.9 785.8 505 785.8 505.1C785.7 505.3 785.6 505.4 785.5 505.6C785.3 505.9 785.1 506.2 784.9 506.4C784.6 506.8 784.3 507.1 784.3 507.1C784.3 507.1 784.1 506.8 783.7 506.4C783.5 506.2 783.3 505.9 783.1 505.6C783 505.4 782.9 505.3 782.8 505.1C782.7 505 782.7 504.9 782.8 504.8C782.8 504.7 782.8 504.6 782.8 504.5C782.8 503 782.8 500.9 782.8 498.9C782.8 496.9 782.8 494.8 782.8 493.3C782.8 493.2 782.8 493.1 782.8 493C782.8 492.9 782.8 492.8 782.8 492.7C782.9 492.5 783 492.4 783.1 492.2C783.3 491.9 783.5 491.6 783.7 491.4C784.1 491 784.3 490.7 784.3 490.7Z" fill="#1D3D90"/>
<path d="M1575.1 516.8C1586.86 516.8 1596.4 507.264 1596.4 495.5C1596.4 483.736 1586.86 474.2 1575.1 474.2C1563.34 474.2 1553.8 483.736 1553.8 495.5C1553.8 507.264 1563.34 516.8 1575.1 516.8Z" fill="#1D3D90"/>
<path d="M1585.7 486.7H1579.4C1579.1 486.7 1578.8 487 1578.8 487.4V490.4H1574.4C1574.1 490.4 1573.8 490.7 1573.8 491.1V494.1H1569.4C1569.1 494.1 1568.8 494.4 1568.8 494.8V497.8H1564.4C1564.1 497.8 1563.8 498.1 1563.8 498.5V503.8C1563.8 504.2 1564.1 504.5 1564.4 504.5H1570.9C1571 504.5 1571.1 504.5 1571.2 504.4L1586 493.9C1586.2 493.8 1586.3 493.6 1586.3 493.3V487.5C1586.4 487 1586.1 486.7 1585.7 486.7ZM1585.1 488V492.7L1570.7 502.9H1565V499H1569.4C1569.7 499 1570 498.7 1570 498.3V495.3H1574.4C1574.7 495.3 1575 495 1575 494.6V491.6H1579.4C1579.7 491.6 1580 491.3 1580 490.9V487.9L1585.1 488Z" fill="white"/>
<path d="M1575.1 514.5C1575.1 514.5 1575.3 514.8 1575.7 515.2C1575.9 515.4 1576.1 515.7 1576.3 516C1576.4 516.2 1576.5 516.3 1576.6 516.5C1576.7 516.6 1576.7 516.7 1576.6 516.8C1576.6 516.9 1576.6 517 1576.6 517.1C1576.6 518.6 1576.6 520.7 1576.6 522.7C1576.6 524.7 1576.6 526.8 1576.6 528.3C1576.6 528.4 1576.6 528.5 1576.6 528.6C1576.6 528.7 1576.6 528.8 1576.6 528.9C1576.5 529.1 1576.4 529.2 1576.3 529.4C1576.1 529.7 1575.9 530 1575.7 530.2C1575.4 530.6 1575.1 530.9 1575.1 530.9C1575.1 530.9 1574.9 530.6 1574.5 530.2C1574.3 530 1574.1 529.7 1573.9 529.4C1573.8 529.2 1573.7 529.1 1573.6 528.9C1573.5 528.8 1573.5 528.7 1573.6 528.6C1573.6 528.5 1573.6 528.4 1573.6 528.3C1573.6 526.8 1573.6 524.7 1573.6 522.7C1573.6 520.7 1573.6 518.6 1573.6 517.1C1573.6 517 1573.6 516.9 1573.6 516.8C1573.6 516.7 1573.6 516.6 1573.6 516.5C1573.7 516.3 1573.8 516.2 1573.9 516C1574.1 515.7 1574.3 515.4 1574.5 515.2C1574.9 514.7 1575.1 514.5 1575.1 514.5Z" fill="#1D3D90"/>
<path d="M746.9 796.2C758.664 796.2 768.2 786.664 768.2 774.9C768.2 763.136 758.664 753.6 746.9 753.6C735.136 753.6 725.6 763.136 725.6 774.9C725.6 786.664 735.136 796.2 746.9 796.2Z" fill="#1D3D90"/>
<path d="M757.6 766.1H751.3C751 766.1 750.7 766.4 750.7 766.8V769.8H746.3C746 769.8 745.7 770.1 745.7 770.5V773.5H741.3C741 773.5 740.7 773.8 740.7 774.2V777.2H736.3C736 777.2 735.7 777.5 735.7 777.9V783.2C735.7 783.6 736 783.9 736.3 783.9H742.8C742.9 783.9 743 783.9 743.1 783.8L757.9 773.3C758.1 773.2 758.2 773 758.2 772.7V766.9C758.2 766.4 757.9 766.1 757.6 766.1ZM757 767.4V772.1L742.6 782.3H736.9V778.4H741.3C741.6 778.4 741.9 778.1 741.9 777.7V774.7H746.3C746.6 774.7 746.9 774.4 746.9 774V771H751.3C751.6 771 751.9 770.7 751.9 770.3V767.3L757 767.4Z" fill="white"/>
<path d="M746.9 793.9C746.9 793.9 747.1 794.2 747.5 794.6C747.7 794.8 747.9 795.1 748.1 795.4C748.2 795.6 748.3 795.7 748.4 795.9C748.5 796 748.5 796.1 748.4 796.2C748.4 796.3 748.4 796.4 748.4 796.5C748.4 798 748.4 800.1 748.4 802.1C748.4 804.1 748.4 806.2 748.4 807.7C748.4 807.8 748.4 807.9 748.4 808C748.4 808.1 748.4 808.2 748.4 808.3C748.3 808.5 748.2 808.6 748.1 808.8C747.9 809.1 747.7 809.4 747.5 809.6C747.2 810 746.9 810.3 746.9 810.3C746.9 810.3 746.7 810 746.3 809.6C746.1 809.4 745.9 809.1 745.7 808.8C745.6 808.6 745.5 808.5 745.4 808.3C745.3 808.2 745.3 808.1 745.4 808C745.4 807.9 745.4 807.8 745.4 807.7C745.4 806.2 745.4 804.1 745.4 802.1C745.4 800.1 745.4 798 745.4 796.5C745.4 796.4 745.4 796.3 745.4 796.2C745.4 796.1 745.4 796 745.4 795.9C745.5 795.7 745.6 795.6 745.7 795.4C745.9 795.1 746.1 794.8 746.3 794.6C746.7 794.1 746.9 793.9 746.9 793.9Z" fill="#1D3D90"/>
<path d="M776.8 339.6C788.564 339.6 798.1 330.064 798.1 318.3C798.1 306.536 788.564 297 776.8 297C765.036 297 755.5 306.536 755.5 318.3C755.5 330.064 765.036 339.6 776.8 339.6Z" fill="#1D3D90"/>
<path d="M776.8 337.2C776.8 337.2 777 337.5 777.3 337.9C777.5 338.1 777.6 338.4 777.8 338.7C777.9 338.9 778 339 778.1 339.2C778.2 339.4 778.1 339.6 778.1 339.7C778.1 341.2 778.1 343.3 778.1 345.3C778.1 347.3 778.1 349.4 778.1 350.9C778.1 351 778.1 351.1 778.1 351.2C778.1 351.3 778.1 351.4 778.1 351.5C778 351.7 777.9 351.8 777.8 352C777.6 352.3 777.4 352.6 777.3 352.8C777 353.2 776.8 353.5 776.8 353.5C776.8 353.5 776.6 353.2 776.3 352.8C776.2 352.6 776 352.3 775.8 352C775.7 351.8 775.6 351.7 775.5 351.5C775.4 351.4 775.4 351.3 775.5 351.2C775.5 351.1 775.5 351 775.5 350.9C775.5 349.4 775.5 347.3 775.5 345.3C775.5 343.3 775.5 341.2 775.5 339.7C775.5 339.5 775.4 339.3 775.5 339.2C775.6 339 775.7 338.9 775.8 338.7C776 338.4 776.2 338.1 776.3 337.9C776.6 337.4 776.8 337.2 776.8 337.2Z" fill="#1D3D90"/>
<path d="M770.1 311.2C771.094 311.2 771.9 310.394 771.9 309.4C771.9 308.406 771.094 307.6 770.1 307.6C769.106 307.6 768.3 308.406 768.3 309.4C768.3 310.394 769.106 311.2 770.1 311.2Z" fill="white"/>
<path d="M772.4 311.8H767.7C766.9 311.8 766.2 312.5 766.2 313.3V320.8C766.2 321.1 766.5 321.4 766.8 321.4H767.7V327.4C767.7 327.9 768.1 328.3 768.6 328.3C768.6 328.3 768.6 328.3 768.7 328.3C769 328.3 769.3 328.2 769.4 328C769.6 327.8 769.7 327.5 769.7 327.2V321.4H770.6V327.4C770.6 327.9 771 328.3 771.5 328.3C771.5 328.3 771.5 328.3 771.6 328.3C771.9 328.3 772.2 328.2 772.3 328C772.5 327.8 772.6 327.5 772.6 327.2V321.4H773.4C773.7 321.4 774 321.1 774 320.8V313.3C773.9 312.5 773.3 311.8 772.4 311.8Z" fill="white"/>
<path d="M783.6 310.8C784.594 310.8 785.4 309.994 785.4 309C785.4 308.006 784.594 307.2 783.6 307.2C782.606 307.2 781.8 308.006 781.8 309C781.8 309.994 782.606 310.8 783.6 310.8Z" fill="white"/>
<path d="M788.5 320.4L786.7 312.4C786.5 311.5 785.9 311.4 785.2 311.4H781.8C781 311.4 780.3 312.1 780.3 312.8L778.9 320.4C778.9 320.7 779.2 321 779.5 321H781.2V327C781.2 327.5 781.6 327.9 782.1 327.9C782.1 327.9 782.1 327.9 782.2 327.9C782.5 327.9 782.8 327.8 782.9 327.6C783.1 327.4 783.2 327.1 783.2 326.8V321H784.1V327C784.1 327.5 784.5 327.9 785 327.9C785 327.9 785 327.9 785.1 327.9C785.4 327.9 785.7 327.8 785.8 327.6C786 327.4 786.1 327.1 786.1 326.8V321H788C788.2 321 788.5 320.8 788.5 320.4Z" fill="white"/>
<path d="M776.8 305.5C776.5 305.5 776.2 305.8 776.2 306.1V329.5C776.2 329.8 776.5 330.1 776.8 330.1C777.1 330.1 777.4 329.8 777.4 329.5V306.1C777.4 305.7 777.1 305.5 776.8 305.5Z" fill="white"/>
<path d="M483.5 521.8C495.264 521.8 504.8 512.264 504.8 500.5C504.8 488.736 495.264 479.2 483.5 479.2C471.736 479.2 462.2 488.736 462.2 500.5C462.2 512.264 471.736 521.8 483.5 521.8Z" fill="#1D3D90"/>
<path d="M483.5 519.5C483.5 519.5 483.7 519.8 484 520.2C484.2 520.4 484.3 520.7 484.5 521C484.6 521.2 484.7 521.3 484.8 521.5C484.9 521.7 484.8 521.9 484.8 522C484.8 523.5 484.8 525.6 484.8 527.6C484.8 529.6 484.8 531.7 484.8 533.2C484.8 533.3 484.8 533.4 484.8 533.5C484.8 533.6 484.8 533.7 484.8 533.8C484.7 534 484.6 534.1 484.5 534.3C484.3 534.6 484.1 534.9 484 535.1C483.7 535.5 483.5 535.8 483.5 535.8C483.5 535.8 483.3 535.5 483 535.1C482.9 534.9 482.7 534.6 482.5 534.3C482.4 534.1 482.3 534 482.2 533.8C482.1 533.7 482.1 533.6 482.2 533.5C482.2 533.4 482.2 533.3 482.2 533.2C482.2 531.7 482.2 529.6 482.2 527.6C482.2 525.6 482.2 523.5 482.2 522C482.2 521.8 482.1 521.6 482.2 521.5C482.3 521.3 482.4 521.2 482.5 521C482.7 520.7 482.9 520.4 483 520.2C483.2 519.7 483.5 519.5 483.5 519.5Z" fill="#1D3D90"/>
<path d="M492.8 496.2L474.3 496C473.6 496 473 496.6 473 497.3L472.9 511.3C472.9 512 473.5 512.6 474.2 512.6L492.7 512.8C493.4 512.8 494 512.2 494 511.5L494.1 497.5C494.1 496.8 493.5 496.2 492.8 496.2ZM474.2 497.4C474.3 497.3 474.2 497.3 474.2 497.4L492.7 497.5L492.6 511.5L474.1 511.3L474.2 497.4Z" fill="white"/>
<path d="M478.5 494.7C478.6 494.8 478.6 494.8 478.6 494.8C478.6 494.8 478.7 494.9 478.8 494.9C478.9 494.9 478.9 494.9 479 494.9C479.1 494.9 479.1 494.9 479.2 494.9C479.3 494.9 479.3 494.8 479.4 494.8C479.4 494.8 479.4 494.8 479.5 494.7L482.6 490.9C482.7 490.8 482.8 490.6 482.7 490.4C482.7 490.2 482.6 490.1 482.5 489.9C482.2 489.7 481.8 489.7 481.6 490L479.7 492.3L479.8 486.5C479.8 486.1 479.5 485.8 479.1 485.8C478.7 485.8 478.4 486.1 478.4 486.5L478.3 492.4L476.5 490.3C476.4 490.2 476.2 490.1 476 490.1C475.8 490.1 475.6 490.1 475.5 490.3C475.4 490.4 475.3 490.6 475.3 490.8C475.3 491 475.3 491.2 475.5 491.3L478.5 494.7Z" fill="white"/>
<path d="M485.3 490.7C485.5 490.7 485.7 490.6 485.8 490.5L487.6 488.5L487.5 494.4C487.5 494.8 487.8 495.1 488.2 495.1C488.6 495.1 488.9 494.8 488.9 494.4L489 488.6L490.9 491C491.1 491.3 491.5 491.3 491.8 491.1C492.1 490.9 492.1 490.5 491.9 490.2L488.9 486.3C488.9 486.3 488.9 486.2 488.8 486.2C488.8 486.2 488.8 486.2 488.7 486.2C488.6 486.2 488.6 486.1 488.5 486.1C488.4 486.1 488.4 486.1 488.3 486.1C488.2 486.1 488.2 486.1 488.1 486.1C488 486.1 488 486.1 487.9 486.2L487.8 486.3L484.8 489.7C484.6 490 484.6 490.4 484.9 490.6C485 490.6 485.1 490.7 485.3 490.7Z" fill="white"/>
<path d="M478.1 500.6C478.652 500.6 479.1 500.152 479.1 499.6C479.1 499.048 478.652 498.6 478.1 498.6C477.548 498.6 477.1 499.048 477.1 499.6C477.1 500.152 477.548 500.6 478.1 500.6Z" fill="white"/>
<path d="M488.8 500.7C489.352 500.7 489.8 500.252 489.8 499.7C489.8 499.148 489.352 498.7 488.8 498.7C488.248 498.7 487.8 499.148 487.8 499.7C487.8 500.252 488.248 500.7 488.8 500.7Z" fill="white"/>
<path d="M483.5 500.7C484.052 500.7 484.5 500.252 484.5 499.7C484.5 499.148 484.052 498.7 483.5 498.7C482.948 498.7 482.5 499.148 482.5 499.7C482.5 500.252 482.948 500.7 483.5 500.7Z" fill="white"/>
<path d="M476.6 506.1H476.7V509.9C476.7 510.2 477 510.5 477.3 510.5C477.5 510.5 477.7 510.4 477.8 510.3C477.9 510.2 478 510 478 509.8V506.1H478.2V509.9C478.2 510.2 478.5 510.5 478.8 510.5C479 510.5 479.2 510.4 479.3 510.3C479.4 510.2 479.5 510 479.5 509.8V506.1C479.9 506.1 480.2 505.8 480.2 505.4V502.6C480.2 501.6 479.4 500.8 478.4 500.8H477.7C476.7 500.8 475.9 501.6 475.9 502.6V505.4C475.9 505.8 476.2 506.1 476.6 506.1Z" fill="white"/>
<path d="M482 506.1H482.1V509.9C482.1 510.2 482.4 510.5 482.7 510.5C482.9 510.5 483.1 510.4 483.2 510.3C483.3 510.2 483.4 510 483.4 509.8V506.1H483.6V509.9C483.6 510.2 483.9 510.5 484.2 510.5C484.4 510.5 484.6 510.4 484.7 510.3C484.8 510.2 484.9 510 484.9 509.8V506.1C485.3 506.1 485.6 505.8 485.6 505.4V502.6C485.6 501.6 484.8 500.8 483.8 500.8H483.1C482.1 500.8 481.3 501.6 481.3 502.6V505.4C481.3 505.8 481.6 506.1 482 506.1Z" fill="white"/>
<path d="M487.2 506.2V510.1C487.2 510.4 487.5 510.7 487.8 510.7C488 510.7 488.2 510.6 488.3 510.5C488.4 510.4 488.5 510.2 488.5 510V506.2H488.7V510.1C488.7 510.4 489 510.7 489.3 510.7C489.5 510.7 489.7 510.6 489.8 510.5C489.9 510.4 490 510.2 490 510V506.2C490.4 506.2 490.7 505.9 490.7 505.5V502.7C490.7 501.7 489.9 500.9 488.9 500.9H488.2C487.2 500.9 486.4 501.7 486.4 502.7V505.5C486.5 505.9 486.9 506.2 487.2 506.2Z" fill="white"/>
<path d="M968.1 775.1C979.864 775.1 989.4 765.564 989.4 753.8C989.4 742.036 979.864 732.5 968.1 732.5C956.336 732.5 946.8 742.036 946.8 753.8C946.8 765.564 956.336 775.1 968.1 775.1Z" fill="#1D3D90"/>
<path d="M968.1 772.7C968.1 772.7 968.3 773 968.6 773.4C968.8 773.6 968.9 773.9 969.1 774.2C969.2 774.4 969.3 774.5 969.4 774.7C969.5 774.9 969.4 775.1 969.4 775.2C969.4 776.7 969.4 778.8 969.4 780.8C969.4 782.8 969.4 784.9 969.4 786.4C969.4 786.5 969.4 786.6 969.4 786.7C969.4 786.8 969.4 786.9 969.4 787C969.3 787.2 969.2 787.3 969.1 787.5C968.9 787.8 968.7 788.1 968.6 788.3C968.3 788.7 968.1 789 968.1 789C968.1 789 967.9 788.7 967.6 788.3C967.5 788.1 967.3 787.8 967.1 787.5C967 787.3 966.9 787.2 966.8 787C966.7 786.9 966.7 786.8 966.8 786.7C966.8 786.6 966.8 786.5 966.8 786.4C966.8 784.9 966.8 782.8 966.8 780.8C966.8 778.8 966.8 776.7 966.8 775.2C966.8 775 966.7 774.8 966.8 774.7C966.9 774.5 967 774.4 967.1 774.2C967.3 773.9 967.5 773.6 967.6 773.4C967.9 773 968.1 772.7 968.1 772.7Z" fill="#1D3D90"/>
<path d="M977.4 749.5L958.9 749.3C958.2 749.3 957.6 749.9 957.6 750.6L957.5 764.6C957.5 765.3 958.1 765.9 958.8 765.9L977.3 766.1C978 766.1 978.6 765.5 978.6 764.8L978.7 750.8C978.7 750.1 978.1 749.5 977.4 749.5ZM958.9 750.6L977.4 750.7L977.3 764.7L958.8 764.5L958.9 750.6Z" fill="white"/>
<path d="M963.1 748C963.2 748 963.2 748 963.1 748C963.2 748.1 963.2 748.1 963.2 748.1C963.2 748.1 963.3 748.2 963.4 748.2C963.5 748.2 963.5 748.2 963.6 748.2C963.7 748.2 963.7 748.2 963.8 748.2C963.9 748.2 963.9 748.1 964 748.1C964 748.1 964 748.1 964.1 748L967.2 744.2C967.3 744.1 967.4 743.9 967.3 743.7C967.3 743.5 967.2 743.4 967.1 743.2C966.8 743 966.4 743 966.2 743.3L964.3 745.6L964.4 739.8C964.4 739.4 964.1 739.1 963.7 739.1C963.3 739.1 963 739.4 963 739.8L962.9 745.7L961.1 743.6C961 743.5 960.8 743.4 960.6 743.4C960.4 743.4 960.2 743.4 960.1 743.6C960 743.7 959.9 743.9 959.9 744.1C959.9 744.3 959.9 744.5 960.1 744.6L963.1 748Z" fill="white"/>
<path d="M969.9 744C970.1 744 970.3 743.9 970.4 743.8L972.2 741.8L972.1 747.7C972.1 748.1 972.4 748.4 972.8 748.4C973.2 748.4 973.5 748.1 973.5 747.7L973.6 741.9L975.5 744.3C975.7 744.6 976.1 744.6 976.4 744.4C976.7 744.2 976.7 743.8 976.5 743.5L973.5 739.6C973.5 739.6 973.5 739.5 973.4 739.5C973.4 739.5 973.4 739.5 973.3 739.5C973.2 739.5 973.2 739.4 973.1 739.4C973 739.4 973 739.4 972.9 739.4C972.8 739.4 972.8 739.4 972.7 739.4C972.6 739.4 972.6 739.4 972.5 739.5L972.4 739.6L969.4 743C969.2 743.3 969.2 743.7 969.5 743.9C969.6 743.9 969.8 744 969.9 744Z" fill="white"/>
<path d="M962.7 753.9C963.252 753.9 963.7 753.452 963.7 752.9C963.7 752.348 963.252 751.9 962.7 751.9C962.148 751.9 961.7 752.348 961.7 752.9C961.7 753.452 962.148 753.9 962.7 753.9Z" fill="white"/>
<path d="M973.4 754C973.952 754 974.4 753.552 974.4 753C974.4 752.448 973.952 752 973.4 752C972.848 752 972.4 752.448 972.4 753C972.4 753.552 972.848 754 973.4 754Z" fill="white"/>
<path d="M968.1 753.9C968.652 753.9 969.1 753.452 969.1 752.9C969.1 752.348 968.652 751.9 968.1 751.9C967.548 751.9 967.1 752.348 967.1 752.9C967.1 753.452 967.548 753.9 968.1 753.9Z" fill="white"/>
<path d="M961.2 759.3H961.3V763.1C961.3 763.4 961.6 763.7 961.9 763.7C962.1 763.7 962.3 763.6 962.4 763.5C962.5 763.4 962.6 763.2 962.6 763V759.3H962.8V763.1C962.8 763.4 963.1 763.7 963.4 763.7C963.6 763.7 963.8 763.6 963.9 763.5C964 763.4 964.1 763.2 964.1 763V759.3C964.5 759.3 964.8 759 964.8 758.6V755.8C964.8 754.8 964 754 963 754H962.3C961.3 754 960.5 754.8 960.5 755.8V758.6C960.6 759 960.9 759.3 961.2 759.3Z" fill="white"/>
<path d="M966.6 759.4H966.7V763.2C966.7 763.5 967 763.8 967.3 763.8C967.5 763.8 967.7 763.7 967.8 763.6C967.9 763.5 968 763.3 968 763.1V759.4H968.2V763.2C968.2 763.5 968.5 763.8 968.8 763.8C969 763.8 969.2 763.7 969.3 763.6C969.4 763.5 969.5 763.3 969.5 763.1V759.4C969.9 759.4 970.2 759.1 970.2 758.7V755.9C970.2 754.9 969.4 754.1 968.4 754.1H967.7C966.7 754.1 965.9 754.9 965.9 755.9V758.7C965.9 759.1 966.2 759.4 966.6 759.4Z" fill="white"/>
<path d="M971.9 759.4V763.3C971.9 763.6 972.2 763.9 972.5 763.9C972.7 763.9 972.9 763.8 973 763.7C973.1 763.6 973.2 763.4 973.2 763.2V759.4H973.4V763.3C973.4 763.6 973.7 763.9 974 763.9C974.2 763.9 974.4 763.8 974.5 763.7C974.6 763.6 974.7 763.4 974.7 763.2V759.4C975.1 759.4 975.4 759.1 975.4 758.7V755.9C975.4 754.9 974.6 754.1 973.6 754.1H972.9C971.9 754.1 971.1 754.9 971.1 755.9V758.7C971.2 759.1 971.5 759.4 971.9 759.4Z" fill="white"/>
<path d="M708.9 315.8C720.664 315.8 730.2 306.264 730.2 294.5C730.2 282.736 720.664 273.2 708.9 273.2C697.136 273.2 687.6 282.736 687.6 294.5C687.6 306.264 697.136 315.8 708.9 315.8Z" fill="#1D3D90"/>
<path d="M708.9 313.4C708.9 313.4 709.1 313.7 709.4 314.1C709.6 314.3 709.7 314.6 709.9 314.9C710 315.1 710.1 315.2 710.2 315.4C710.3 315.6 710.2 315.8 710.2 315.9C710.2 317.4 710.2 319.5 710.2 321.5C710.2 323.5 710.2 325.6 710.2 327.1C710.2 327.2 710.2 327.3 710.2 327.4C710.2 327.5 710.2 327.6 710.2 327.7C710.1 327.9 710 328 709.9 328.2C709.7 328.5 709.5 328.8 709.4 329C709.1 329.4 708.9 329.7 708.9 329.7C708.9 329.7 708.7 329.4 708.4 329C708.3 328.8 708.1 328.5 707.9 328.2C707.8 328 707.7 327.9 707.6 327.7C707.5 327.6 707.5 327.5 707.6 327.4C707.6 327.3 707.6 327.2 707.6 327.1C707.6 325.6 707.6 323.5 707.6 321.5C707.6 319.5 707.6 317.4 707.6 315.9C707.6 315.7 707.5 315.5 707.6 315.4C707.7 315.2 707.8 315.1 707.9 314.9C708.1 314.6 708.3 314.3 708.4 314.1C708.7 313.7 708.9 313.4 708.9 313.4Z" fill="#1D3D90"/>
<path d="M718.2 290.2L699.7 290C699 290 698.4 290.6 698.4 291.3L698.3 305.3C698.3 306 698.9 306.6 699.6 306.6L718.1 306.8C718.8 306.8 719.4 306.2 719.4 305.5L719.5 291.5C719.5 290.8 718.9 290.2 718.2 290.2ZM699.6 291.3C699.7 291.3 699.7 291.3 699.6 291.3L718.1 291.4L718 305.4L699.5 305.2L699.6 291.3Z" fill="white"/>
<path d="M703.9 288.7C704 288.8 704 288.8 704 288.8C704 288.8 704.1 288.9 704.2 288.9C704.3 288.9 704.3 288.9 704.4 288.9C704.5 288.9 704.5 288.9 704.6 288.9C704.7 288.9 704.7 288.8 704.8 288.8C704.8 288.8 704.8 288.8 704.9 288.7L708 284.9C708.1 284.8 708.2 284.6 708.1 284.4C708.1 284.2 708 284.1 707.9 283.9C707.6 283.7 707.2 283.7 707 284L705.1 286.3L705.2 280.5C705.2 280.1 704.9 279.8 704.5 279.8C704.1 279.8 703.8 280.1 703.8 280.5L703.7 286.4L701.9 284.3C701.8 284.2 701.6 284.1 701.4 284.1C701.2 284.1 701 284.1 700.9 284.3C700.8 284.4 700.7 284.6 700.7 284.8C700.7 285 700.7 285.2 700.9 285.3L703.9 288.7Z" fill="white"/>
<path d="M710.7 284.7C710.9 284.7 711.1 284.6 711.2 284.5L713 282.5L712.9 288.4C712.9 288.8 713.2 289.1 713.6 289.1C714 289.1 714.3 288.8 714.3 288.4L714.4 282.6L716.3 285C716.5 285.3 716.9 285.3 717.2 285.1C717.5 284.9 717.5 284.5 717.3 284.2L714.3 280.3C714.3 280.3 714.3 280.2 714.2 280.2C714.2 280.2 714.2 280.2 714.1 280.2C714 280.2 714 280.1 713.9 280.1C713.8 280.1 713.8 280.1 713.7 280.1C713.6 280.1 713.6 280.1 713.5 280.1C713.4 280.1 713.4 280.1 713.3 280.2L713.2 280.3L710.2 283.7C710 284 710 284.4 710.3 284.6C710.4 284.6 710.5 284.7 710.7 284.7Z" fill="white"/>
<path d="M703.5 294.6C704.052 294.6 704.5 294.152 704.5 293.6C704.5 293.048 704.052 292.6 703.5 292.6C702.948 292.6 702.5 293.048 702.5 293.6C702.5 294.152 702.948 294.6 703.5 294.6Z" fill="white"/>
<path d="M714.2 294.7C714.752 294.7 715.2 294.252 715.2 293.7C715.2 293.148 714.752 292.7 714.2 292.7C713.648 292.7 713.2 293.148 713.2 293.7C713.2 294.252 713.648 294.7 714.2 294.7Z" fill="white"/>
<path d="M708.9 294.6C709.452 294.6 709.9 294.152 709.9 293.6C709.9 293.048 709.452 292.6 708.9 292.6C708.348 292.6 707.9 293.048 707.9 293.6C707.9 294.152 708.348 294.6 708.9 294.6Z" fill="white"/>
<path d="M702 300H702.1V303.8C702.1 304.1 702.4 304.4 702.7 304.4C702.9 304.4 703.1 304.3 703.2 304.2C703.3 304.1 703.4 303.9 703.4 303.7V300H703.6V303.8C703.6 304.1 703.9 304.4 704.2 304.4C704.4 304.4 704.6 304.3 704.7 304.2C704.8 304.1 704.9 303.9 704.9 303.7V300C705.3 300 705.6 299.7 705.6 299.3V296.5C705.6 295.5 704.8 294.7 703.8 294.7H703.1C702.1 294.7 701.3 295.5 701.3 296.5V299.3C701.3 299.7 701.7 300 702 300Z" fill="white"/>
<path d="M707.4 300.1H707.5V303.9C707.5 304.2 707.8 304.5 708.1 304.5C708.3 304.5 708.5 304.4 708.6 304.3C708.7 304.2 708.8 304 708.8 303.8V300.1H709V303.9C709 304.2 709.3 304.5 709.6 304.5C709.8 304.5 710 304.4 710.1 304.3C710.2 304.2 710.3 304 710.3 303.8V300.1C710.7 300.1 711 299.8 711 299.4V296.6C711 295.6 710.2 294.8 709.2 294.8H708.5C707.5 294.8 706.7 295.6 706.7 296.6V299.4C706.7 299.7 707 300.1 707.4 300.1Z" fill="white"/>
<path d="M712.6 300.1V304C712.6 304.3 712.9 304.6 713.2 304.6C713.4 304.6 713.6 304.5 713.7 304.4C713.8 304.3 713.9 304.1 713.9 303.9V300.1H714.1V304C714.1 304.3 714.4 304.6 714.7 304.6C714.9 304.6 715.1 304.5 715.2 304.4C715.3 304.3 715.4 304.1 715.4 303.9V300.1C715.8 300.1 716.1 299.8 716.1 299.4V296.6C716.1 295.6 715.3 294.8 714.3 294.8H713.6C712.6 294.8 711.8 295.6 711.8 296.6V299.4C712 299.8 712.3 300.1 712.6 300.1Z" fill="white"/>
<path d="M1352.6 671.6C1364.36 671.6 1373.9 662.064 1373.9 650.3C1373.9 638.536 1364.36 629 1352.6 629C1340.84 629 1331.3 638.536 1331.3 650.3C1331.3 662.064 1340.84 671.6 1352.6 671.6Z" fill="#1D3D90"/>
<path d="M1352.6 669.2C1352.6 669.2 1352.8 669.5 1353.1 669.9C1353.3 670.1 1353.4 670.4 1353.6 670.7C1353.7 670.9 1353.8 671 1353.9 671.2C1354 671.4 1353.9 671.6 1353.9 671.7C1353.9 673.2 1353.9 675.3 1353.9 677.3C1353.9 679.3 1353.9 681.4 1353.9 682.9C1353.9 683 1353.9 683.1 1353.9 683.2C1353.9 683.3 1353.9 683.4 1353.9 683.5C1353.8 683.7 1353.7 683.8 1353.6 684C1353.4 684.3 1353.2 684.6 1353.1 684.8C1352.8 685.2 1352.6 685.5 1352.6 685.5C1352.6 685.5 1352.4 685.2 1352.1 684.8C1352 684.6 1351.8 684.3 1351.6 684C1351.5 683.8 1351.4 683.7 1351.3 683.5C1351.2 683.4 1351.2 683.3 1351.3 683.2C1351.3 683.1 1351.3 683 1351.3 682.9C1351.3 681.4 1351.3 679.3 1351.3 677.3C1351.3 675.3 1351.3 673.2 1351.3 671.7C1351.3 671.5 1351.2 671.3 1351.3 671.2C1351.4 671 1351.5 670.9 1351.6 670.7C1351.8 670.4 1352 670.1 1352.1 669.9C1352.4 669.5 1352.6 669.2 1352.6 669.2Z" fill="#1D3D90"/>
<path d="M1361.9 646L1343.4 645.8C1342.7 645.8 1342.1 646.4 1342.1 647.1L1342 661.1C1342 661.8 1342.6 662.4 1343.3 662.4L1361.8 662.6C1362.5 662.6 1363.1 662 1363.1 661.3L1363.2 647.3C1363.2 646.6 1362.6 646 1361.9 646ZM1343.4 647.1L1361.9 647.2L1361.8 661.2L1343.3 661L1343.4 647.1Z" fill="white"/>
<path d="M1347.6 644.4C1347.7 644.5 1347.7 644.5 1347.6 644.4C1347.7 644.5 1347.7 644.5 1347.7 644.5C1347.7 644.5 1347.8 644.6 1347.9 644.6C1348 644.6 1348 644.6 1348.1 644.6C1348.2 644.6 1348.2 644.6 1348.3 644.6C1348.4 644.6 1348.4 644.5 1348.5 644.5C1348.5 644.5 1348.5 644.5 1348.6 644.4L1351.7 640.6C1351.8 640.5 1351.9 640.3 1351.8 640.1C1351.8 639.9 1351.7 639.8 1351.6 639.6C1351.3 639.4 1350.9 639.4 1350.7 639.7L1348.8 642L1348.9 636.2C1348.9 635.8 1348.6 635.5 1348.2 635.5C1347.8 635.5 1347.5 635.8 1347.5 636.2L1347.4 642.1L1345.6 640C1345.5 639.9 1345.3 639.8 1345.1 639.8C1344.9 639.8 1344.7 639.8 1344.6 640C1344.5 640.1 1344.4 640.3 1344.4 640.5C1344.4 640.7 1344.4 640.9 1344.6 641L1347.6 644.4Z" fill="white"/>
<path d="M1354.4 640.4C1354.6 640.4 1354.8 640.3 1354.9 640.2L1356.7 638.2L1356.6 644.1C1356.6 644.5 1356.9 644.8 1357.3 644.8C1357.7 644.8 1358 644.5 1358 644.1L1358.1 638.3L1360 640.7C1360.2 641 1360.6 641 1360.9 640.8C1361.2 640.6 1361.2 640.2 1361 639.9L1358 636C1358 636 1358 635.9 1357.9 635.9C1357.9 635.9 1357.9 635.9 1357.8 635.9C1357.7 635.9 1357.7 635.8 1357.6 635.8C1357.5 635.8 1357.5 635.8 1357.4 635.8C1357.3 635.8 1357.3 635.8 1357.2 635.8C1357.1 635.8 1357.1 635.8 1357 635.9L1356.9 636L1353.9 639.4C1353.7 639.7 1353.7 640.1 1354 640.3C1354.1 640.4 1354.3 640.4 1354.4 640.4Z" fill="white"/>
<path d="M1347.2 650.4C1347.75 650.4 1348.2 649.952 1348.2 649.4C1348.2 648.848 1347.75 648.4 1347.2 648.4C1346.65 648.4 1346.2 648.848 1346.2 649.4C1346.2 649.952 1346.65 650.4 1347.2 650.4Z" fill="white"/>
<path d="M1357.9 650.5C1358.45 650.5 1358.9 650.052 1358.9 649.5C1358.9 648.948 1358.45 648.5 1357.9 648.5C1357.35 648.5 1356.9 648.948 1356.9 649.5C1356.9 650.052 1357.35 650.5 1357.9 650.5Z" fill="white"/>
<path d="M1352.6 650.4C1353.15 650.4 1353.6 649.952 1353.6 649.4C1353.6 648.848 1353.15 648.4 1352.6 648.4C1352.05 648.4 1351.6 648.848 1351.6 649.4C1351.6 649.952 1352.05 650.4 1352.6 650.4Z" fill="white"/>
<path d="M1345.7 655.8H1345.8V659.6C1345.8 659.9 1346.1 660.2 1346.4 660.2C1346.6 660.2 1346.8 660.1 1346.9 660C1347 659.9 1347.1 659.7 1347.1 659.5V655.8H1347.3V659.6C1347.3 659.9 1347.6 660.2 1347.9 660.2C1348.1 660.2 1348.3 660.1 1348.4 660C1348.5 659.9 1348.6 659.7 1348.6 659.5V655.8C1349 655.8 1349.3 655.5 1349.3 655.1V652.3C1349.3 651.3 1348.5 650.5 1347.5 650.5H1346.8C1345.8 650.5 1345 651.3 1345 652.3V655.1C1345.1 655.5 1345.4 655.8 1345.7 655.8Z" fill="white"/>
<path d="M1351.1 655.9H1351.2V659.7C1351.2 660 1351.5 660.3 1351.8 660.3C1352 660.3 1352.2 660.2 1352.3 660.1C1352.4 660 1352.5 659.8 1352.5 659.6V655.9H1352.7V659.7C1352.7 660 1353 660.3 1353.3 660.3C1353.5 660.3 1353.7 660.2 1353.8 660.1C1353.9 660 1354 659.8 1354 659.6V655.9C1354.4 655.9 1354.7 655.6 1354.7 655.2V652.4C1354.7 651.4 1353.9 650.6 1352.9 650.6H1352.2C1351.2 650.6 1350.4 651.4 1350.4 652.4V655.2C1350.4 655.5 1350.7 655.9 1351.1 655.9Z" fill="white"/>
<path d="M1356.4 655.9V659.8C1356.4 660.1 1356.7 660.4 1357 660.4C1357.2 660.4 1357.4 660.3 1357.5 660.2C1357.6 660.1 1357.7 659.9 1357.7 659.7V655.9H1357.9V659.8C1357.9 660.1 1358.2 660.4 1358.5 660.4C1358.7 660.4 1358.9 660.3 1359 660.2C1359.1 660.1 1359.2 659.9 1359.2 659.7V655.9C1359.6 655.9 1359.9 655.6 1359.9 655.2V652.4C1359.9 651.4 1359.1 650.6 1358.1 650.6H1357.4C1356.4 650.6 1355.6 651.4 1355.6 652.4V655.2C1355.7 655.6 1356 655.9 1356.4 655.9Z" fill="white"/>
<path d="M405.6 700.1C417.364 700.1 426.9 690.564 426.9 678.8C426.9 667.036 417.364 657.5 405.6 657.5C393.836 657.5 384.3 667.036 384.3 678.8C384.3 690.564 393.836 700.1 405.6 700.1Z" fill="#1D3D90"/>
<path d="M405.6 697.7C405.6 697.7 405.8 698 406.1 698.4C406.3 698.6 406.4 698.9 406.6 699.2C406.7 699.4 406.8 699.5 406.9 699.7C407 699.9 406.9 700.1 406.9 700.2C406.9 701.7 406.9 703.8 406.9 705.8C406.9 707.8 406.9 709.9 406.9 711.4C406.9 711.5 406.9 711.6 406.9 711.7C406.9 711.8 406.9 711.9 406.9 712C406.8 712.2 406.7 712.3 406.6 712.5C406.4 712.8 406.2 713.1 406.1 713.3C405.8 713.7 405.6 714 405.6 714C405.6 714 405.4 713.7 405.1 713.3C405 713.1 404.8 712.8 404.6 712.5C404.5 712.3 404.4 712.2 404.3 712C404.2 711.9 404.2 711.8 404.3 711.7C404.3 711.6 404.3 711.5 404.3 711.4C404.3 709.9 404.3 707.8 404.3 705.8C404.3 703.8 404.3 701.7 404.3 700.2C404.3 700 404.2 699.8 404.3 699.7C404.4 699.5 404.5 699.4 404.6 699.2C404.8 698.9 405 698.6 405.1 698.4C405.4 698 405.6 697.7 405.6 697.7Z" fill="#1D3D90"/>
<path d="M414.9 674.5L396.4 674.3C395.7 674.3 395.1 674.9 395.1 675.6L395 689.6C395 690.3 395.6 690.9 396.3 690.9L414.8 691.1C415.5 691.1 416.1 690.5 416.1 689.8L416.2 675.8C416.2 675.1 415.7 674.5 414.9 674.5ZM396.4 675.6L414.9 675.7L414.8 689.7L396.3 689.5L396.4 675.6Z" fill="white"/>
<path d="M400.7 673C400.8 673.1 400.8 673.1 400.8 673.1C400.8 673.1 400.9 673.2 401 673.2C401.1 673.2 401.1 673.2 401.2 673.2C401.3 673.2 401.3 673.2 401.4 673.2C401.5 673.2 401.5 673.1 401.6 673.1C401.6 673.1 401.6 673.1 401.7 673L404.8 669.2C404.9 669.1 405 668.9 404.9 668.7C404.9 668.5 404.8 668.4 404.7 668.2C404.4 668 404 668 403.8 668.3L401.9 670.6L402 664.8C402 664.4 401.7 664.1 401.3 664.1C400.9 664.1 400.6 664.4 400.6 664.8L400.5 670.7L398.7 668.6C398.6 668.5 398.4 668.4 398.2 668.4C398 668.4 397.8 668.4 397.7 668.6C397.6 668.7 397.5 668.9 397.5 669.1C397.5 669.3 397.5 669.5 397.7 669.6L400.7 673Z" fill="white"/>
<path d="M407.5 669C407.7 669 407.9 668.9 408 668.8L409.8 666.8L409.7 672.7C409.7 673.1 410 673.4 410.4 673.4C410.8 673.4 411.1 673.1 411.1 672.7L411.2 666.9L413.1 669.3C413.3 669.6 413.7 669.6 414 669.4C414.3 669.2 414.3 668.8 414.1 668.5L411.1 664.6C411.1 664.6 411.1 664.5 411 664.5C411 664.5 411 664.5 410.9 664.5C410.8 664.5 410.8 664.4 410.7 664.4C410.6 664.4 410.6 664.4 410.5 664.4C410.4 664.4 410.4 664.4 410.3 664.4C410.2 664.4 410.2 664.4 410.1 664.5L410 664.6L407 668C406.8 668.3 406.8 668.7 407.1 668.9C407.1 668.9 407.3 669 407.5 669Z" fill="white"/>
<path d="M400.3 678.9C400.852 678.9 401.3 678.452 401.3 677.9C401.3 677.348 400.852 676.9 400.3 676.9C399.748 676.9 399.3 677.348 399.3 677.9C399.3 678.452 399.748 678.9 400.3 678.9Z" fill="white"/>
<path d="M410.9 679C411.452 679 411.9 678.552 411.9 678C411.9 677.448 411.452 677 410.9 677C410.348 677 409.9 677.448 409.9 678C409.9 678.552 410.348 679 410.9 679Z" fill="white"/>
<path d="M405.6 679C406.152 679 406.6 678.552 406.6 678C406.6 677.448 406.152 677 405.6 677C405.048 677 404.6 677.448 404.6 678C404.6 678.552 405.048 679 405.6 679Z" fill="white"/>
<path d="M398.8 684.4H398.9V688.2C398.9 688.5 399.2 688.8 399.5 688.8C399.7 688.8 399.9 688.7 400 688.6C400.1 688.5 400.2 688.3 400.2 688.1V684.4H400.4V688.2C400.4 688.5 400.7 688.8 401 688.8C401.2 688.8 401.4 688.7 401.5 688.6C401.6 688.5 401.7 688.3 401.7 688.1V684.4C402.1 684.4 402.4 684.1 402.4 683.7V680.9C402.4 679.9 401.6 679.1 400.6 679.1H399.9C398.9 679.1 398.1 679.9 398.1 680.9V683.7C398.1 684 398.4 684.3 398.8 684.4Z" fill="white"/>
<path d="M404.1 684.4H404.2V688.2C404.2 688.5 404.5 688.8 404.8 688.8C405 688.8 405.2 688.7 405.3 688.6C405.4 688.5 405.5 688.3 405.5 688.1V684.4H405.7V688.2C405.7 688.5 406 688.8 406.3 688.8C406.5 688.8 406.7 688.7 406.8 688.6C406.9 688.5 407 688.3 407 688.1V684.4C407.4 684.4 407.7 684.1 407.7 683.7V680.9C407.7 679.9 406.9 679.1 405.9 679.1H405.2C404.2 679.1 403.4 679.9 403.4 680.9V683.7C403.4 684.1 403.8 684.4 404.1 684.4Z" fill="white"/>
<path d="M409.4 684.5V688.4C409.4 688.7 409.7 689 410 689C410.2 689 410.4 688.9 410.5 688.8C410.6 688.7 410.7 688.5 410.7 688.3V684.5H410.9V688.4C410.9 688.7 411.2 689 411.5 689C411.7 689 411.9 688.9 412 688.8C412.1 688.7 412.2 688.5 412.2 688.3V684.5C412.6 684.5 412.9 684.2 412.9 683.8V681C412.9 680 412.1 679.2 411.1 679.2H410.4C409.4 679.2 408.6 680 408.6 681V683.8C408.7 684.1 409 684.5 409.4 684.5Z" fill="white"/>
<path d="M850.5 166C862.264 166 871.8 156.464 871.8 144.7C871.8 132.936 862.264 123.4 850.5 123.4C838.736 123.4 829.2 132.936 829.2 144.7C829.2 156.464 838.736 166 850.5 166Z" fill="#1D3D90"/>
<path d="M850.5 163.6C850.5 163.6 850.7 163.9 851 164.3C851.2 164.5 851.3 164.8 851.5 165.1C851.6 165.3 851.7 165.4 851.8 165.6C851.9 165.8 851.8 166 851.8 166.1C851.8 167.6 851.8 169.7 851.8 171.7C851.8 173.7 851.8 175.8 851.8 177.3C851.8 177.4 851.8 177.5 851.8 177.6C851.8 177.7 851.8 177.8 851.8 177.9C851.7 178.1 851.6 178.2 851.5 178.4C851.3 178.7 851.1 179 851 179.2C850.7 179.6 850.5 179.9 850.5 179.9C850.5 179.9 850.3 179.6 850 179.2C849.9 179 849.7 178.7 849.5 178.4C849.4 178.2 849.3 178.1 849.2 177.9C849.1 177.8 849.1 177.7 849.2 177.6C849.2 177.5 849.2 177.4 849.2 177.3C849.2 175.8 849.2 173.7 849.2 171.7C849.2 169.7 849.2 167.6 849.2 166.1C849.2 165.9 849.1 165.7 849.2 165.6C849.3 165.4 849.4 165.3 849.5 165.1C849.7 164.8 849.9 164.5 850 164.3C850.3 163.9 850.5 163.6 850.5 163.6Z" fill="#1D3D90"/>
<path d="M851.1 134.8C851.9 135.4 852.5 135.9 852.5 137.2C852.5 138.1 851.6 138.9 851.2 139.1C850.9 139.2 850.8 139.5 850.9 139.7C851 139.9 851.2 140 851.4 140C851.5 140 851.5 140 851.6 140C852.4 139.7 853.5 138.5 853.5 137.2C853.5 135.5 852.5 134.7 851.7 134C851 133.5 850.5 133 850.5 132C850.5 130.6 851.8 129.9 852.2 129.9C852.5 129.9 852.7 129.7 852.7 129.4C852.7 129.1 852.5 128.9 852.2 128.9C851.4 128.9 849.6 130 849.6 132C849.4 133.5 850.3 134.2 851.1 134.8Z" fill="white"/>
<path d="M847 135.3C847.6 135.8 848.1 136.2 848.1 137.2C848.1 137.9 847.4 138.6 847.1 138.7C846.8 138.8 846.7 139.1 846.8 139.3C846.9 139.5 847.1 139.6 847.3 139.6C847.4 139.6 847.4 139.6 847.5 139.6C848.2 139.3 849.2 138.3 849.2 137.2C849.2 135.7 848.4 135 847.7 134.5C847.1 134 846.7 133.7 846.7 132.9C846.7 131.8 847.8 131.2 848 131.2C848.3 131.2 848.5 131 848.5 130.7C848.5 130.4 848.3 130.2 848 130.2C847.2 130.2 845.7 131.2 845.7 132.9C845.6 134.2 846.3 134.8 847 135.3Z" fill="white"/>
<path d="M859.7 142H857H842.8C842.5 142 842.2 142.3 842.2 142.6V151.6C842.2 151.9 842.5 152.2 842.8 152.2H857.9C858.2 152.2 858.5 151.9 858.5 151.6V149.2C858.9 149.3 859.3 149.4 859.7 149.4C861.9 149.4 863.7 147.7 863.7 145.7C863.7 143.7 861.9 142 859.7 142ZM859.7 148.8C859.3 148.8 858.9 148.7 858.5 148.6V142.7H859.7C861.6 142.7 863.1 144.1 863.1 145.8C863.1 147.5 861.6 148.8 859.7 148.8Z" fill="white"/>
<path d="M861 153.9H840.4C840 153.9 839.7 154.2 839.7 154.6C839.7 155 840 155.3 840.4 155.3H861C861.4 155.3 861.7 155 861.7 154.6C861.7 154.2 861.3 153.9 861 153.9Z" fill="white"/>
<path d="M1197.4 606.1C1209.16 606.1 1218.7 596.564 1218.7 584.8C1218.7 573.036 1209.16 563.5 1197.4 563.5C1185.64 563.5 1176.1 573.036 1176.1 584.8C1176.1 596.564 1185.64 606.1 1197.4 606.1Z" fill="#1D3D90"/>
<path d="M1197.4 603.7C1197.4 603.7 1197.6 604 1197.9 604.4C1198.1 604.6 1198.2 604.9 1198.4 605.2C1198.5 605.4 1198.6 605.5 1198.7 605.7C1198.8 605.9 1198.7 606.1 1198.7 606.2C1198.7 607.7 1198.7 609.8 1198.7 611.8C1198.7 613.8 1198.7 615.9 1198.7 617.4C1198.7 617.5 1198.7 617.6 1198.7 617.7C1198.7 617.8 1198.7 617.9 1198.7 618C1198.6 618.2 1198.5 618.3 1198.4 618.5C1198.2 618.8 1198 619.1 1197.9 619.3C1197.6 619.7 1197.4 620 1197.4 620C1197.4 620 1197.2 619.7 1196.9 619.3C1196.8 619.1 1196.6 618.8 1196.4 618.5C1196.3 618.3 1196.2 618.2 1196.1 618C1196 617.9 1196 617.8 1196.1 617.7C1196.1 617.6 1196.1 617.5 1196.1 617.4C1196.1 615.9 1196.1 613.8 1196.1 611.8C1196.1 609.8 1196.1 607.7 1196.1 606.2C1196.1 606 1196 605.8 1196.1 605.7C1196.2 605.5 1196.3 605.4 1196.4 605.2C1196.6 604.9 1196.8 604.6 1196.9 604.4C1197.2 604 1197.4 603.7 1197.4 603.7Z" fill="#1D3D90"/>
<path d="M1198 574.9C1198.8 575.5 1199.4 576 1199.4 577.3C1199.4 578.2 1198.5 579 1198.1 579.2C1197.8 579.3 1197.7 579.6 1197.8 579.8C1197.9 580 1198.1 580.1 1198.3 580.1C1198.4 580.1 1198.4 580.1 1198.5 580.1C1199.3 579.8 1200.4 578.6 1200.4 577.3C1200.4 575.6 1199.4 574.8 1198.6 574.1C1197.9 573.6 1197.4 573.1 1197.4 572.1C1197.4 570.7 1198.7 570 1199.1 570C1199.4 570 1199.6 569.8 1199.6 569.5C1199.6 569.2 1199.4 569 1199.1 569C1198.3 569 1196.5 570.1 1196.5 572.1C1196.4 573.6 1197.2 574.3 1198 574.9Z" fill="white"/>
<path d="M1193.9 575.5C1194.5 576 1195 576.4 1195 577.4C1195 578.1 1194.3 578.8 1194 578.9C1193.7 579 1193.6 579.3 1193.7 579.5C1193.8 579.7 1194 579.8 1194.2 579.8C1194.3 579.8 1194.3 579.8 1194.4 579.8C1195.1 579.5 1196.1 578.5 1196.1 577.4C1196.1 575.9 1195.3 575.2 1194.6 574.7C1194 574.2 1193.6 573.9 1193.6 573.1C1193.6 572 1194.7 571.4 1194.9 571.4C1195.2 571.4 1195.4 571.2 1195.4 570.9C1195.4 570.6 1195.2 570.4 1194.9 570.4C1194.1 570.4 1192.6 571.4 1192.6 573.1C1192.5 574.4 1193.3 575 1193.9 575.5Z" fill="white"/>
<path d="M1206.6 582.2H1203.9H1189.7C1189.4 582.2 1189.1 582.5 1189.1 582.8V591.8C1189.1 592.1 1189.4 592.4 1189.7 592.4H1204.8C1205.1 592.4 1205.4 592.1 1205.4 591.8V589.4C1205.8 589.5 1206.2 589.6 1206.6 589.6C1208.8 589.6 1210.6 587.9 1210.6 585.9C1210.6 583.9 1208.9 582.2 1206.6 582.2ZM1206.6 588.9C1206.2 588.9 1205.8 588.8 1205.4 588.7V582.8H1206.6C1208.5 582.8 1210 584.2 1210 585.9C1210 587.6 1208.5 588.9 1206.6 588.9Z" fill="white"/>
<path d="M1207.9 594H1187.3C1186.9 594 1186.6 594.3 1186.6 594.7C1186.6 595.1 1186.9 595.4 1187.3 595.4H1207.9C1208.3 595.4 1208.6 595.1 1208.6 594.7C1208.6 594.3 1208.2 594 1207.9 594Z" fill="white"/>
<path d="M331.2 629.8C342.964 629.8 352.5 620.264 352.5 608.5C352.5 596.736 342.964 587.2 331.2 587.2C319.436 587.2 309.9 596.736 309.9 608.5C309.9 620.264 319.436 629.8 331.2 629.8Z" fill="#1D3D90"/>
<path d="M331.2 627.4C331.2 627.4 331.4 627.7 331.7 628.1C331.9 628.3 332 628.6 332.2 628.9C332.3 629.1 332.4 629.2 332.5 629.4C332.6 629.6 332.5 629.8 332.5 629.9C332.5 631.4 332.5 633.5 332.5 635.5C332.5 637.5 332.5 639.6 332.5 641.1C332.5 641.2 332.5 641.3 332.5 641.4C332.5 641.5 332.5 641.6 332.5 641.7C332.4 641.9 332.3 642 332.2 642.2C332 642.5 331.8 642.8 331.7 643C331.4 643.4 331.2 643.7 331.2 643.7C331.2 643.7 331 643.4 330.7 643C330.6 642.8 330.4 642.5 330.2 642.2C330.1 642 330 641.9 329.9 641.7C329.8 641.6 329.8 641.5 329.9 641.4C329.9 641.3 329.9 641.2 329.9 641.1C329.9 639.6 329.9 637.5 329.9 635.5C329.9 633.5 329.9 631.4 329.9 629.9C329.9 629.7 329.8 629.5 329.9 629.4C330 629.2 330.1 629.1 330.2 628.9C330.4 628.6 330.6 628.3 330.7 628.1C331 627.7 331.2 627.4 331.2 627.4Z" fill="#1D3D90"/>
<path d="M345.3 602.8C344.7 602.2 344 601.8 343.6 601.7C343.4 601.7 343.3 601.6 343.1 601.6H337.4C337.1 601.6 336.7 601.7 336.5 601.9L331.1 605.9V605.3V605.2C331.1 605 331 604.9 330.9 604.7C330.6 604 330 603.5 329.4 603.4C328.4 603.1 327.6 603.8 327.5 603.9C326.8 604.5 326.7 605.3 326.7 605.6V609.3L325.3 610.4C325.2 610.4 325.2 610.5 325.1 610.5H321.3C321.1 610.5 321 610.5 320.8 610.6C320.3 610.8 319.1 611.3 318.4 612.6C317.7 614.1 318.3 615.4 318.4 615.8C319 617 320 617.5 320.5 617.7C320.7 617.8 320.9 617.8 321.1 617.8H327.5C327.8 617.8 328.2 617.7 328.4 617.5L339.6 609.2C339.7 609.2 339.7 609.1 339.8 609.1H343.4C343.5 609.1 343.6 609.1 343.7 609.1C344 609 344.3 608.9 344.6 608.8C345.8 608.1 346.2 606.8 346.3 606.3C346.6 604.3 345.4 603 345.3 602.8ZM345 605.9C344.9 606.3 344.7 607.1 343.9 607.6C343.7 607.7 343.5 607.8 343.3 607.8C343.3 607.8 343.3 607.8 343.2 607.8H339.6C339.3 607.8 338.9 607.9 338.7 608.1L327.5 616.4C327.4 616.4 327.4 616.5 327.3 616.5H320.9H320.8C320.4 616.4 319.7 616 319.4 615.2C319.3 615 318.9 614 319.4 613C319.8 612.1 320.7 611.7 321 611.6H321.1H324.9C325.2 611.6 325.6 611.5 325.8 611.3L337 602.9C337.1 602.9 337.1 602.8 337.2 602.8H342.9H343C343.3 602.9 343.8 603.1 344.2 603.6C344.4 603.7 345.3 604.7 345 605.9Z" fill="white"/>
<path d="M328.9 603.4C330.06 603.4 331 602.46 331 601.3C331 600.14 330.06 599.2 328.9 599.2C327.74 599.2 326.8 600.14 326.8 601.3C326.8 602.46 327.74 603.4 328.9 603.4Z" fill="white"/>
<path d="M555.1 738.1C555.1 738.1 555.3 738.4 555.6 738.8C555.8 739 555.9 739.3 556.1 739.6C556.2 739.8 556.3 739.9 556.4 740.1C556.5 740.3 556.4 740.5 556.4 740.6C556.4 742.1 556.4 744.2 556.4 746.2C556.4 748.2 556.4 750.3 556.4 751.8C556.4 751.9 556.4 752 556.4 752.1C556.4 752.2 556.4 752.3 556.4 752.4C556.3 752.6 556.2 752.7 556.1 752.9C555.9 753.2 555.7 753.5 555.6 753.7C555.3 754.1 555.1 754.4 555.1 754.4C555.1 754.4 554.9 754.1 554.6 753.7C554.5 753.5 554.3 753.2 554.1 752.9C554 752.7 553.9 752.6 553.8 752.4C553.7 752.3 553.7 752.2 553.8 752.1C553.8 752 553.8 751.9 553.8 751.8C553.8 750.3 553.8 748.2 553.8 746.2C553.8 744.2 553.8 742.1 553.8 740.6C553.8 740.4 553.7 740.2 553.8 740.1C553.9 739.9 554 739.8 554.1 739.6C554.3 739.3 554.5 739 554.6 738.8C554.9 738.3 555.1 738.1 555.1 738.1Z" fill="#1D3D90"/>
<path d="M555.1 741.1C567.25 741.1 577.1 731.25 577.1 719.1C577.1 706.95 567.25 697.1 555.1 697.1C542.95 697.1 533.1 706.95 533.1 719.1C533.1 731.25 542.95 741.1 555.1 741.1Z" fill="#F8493B"/>
<path d="M554.7 697.9C566.4 697.9 576 707.4 576 719.2C576 731 566.5 740.5 554.7 740.5C542.9 740.5 533.4 731 533.4 719.2C533.4 707.4 543 697.9 554.7 697.9ZM554.7 696.3C542.1 696.3 531.8 706.6 531.8 719.2C531.8 731.8 542.1 742.1 554.7 742.1C567.3 742.1 577.6 731.8 577.6 719.2C577.6 706.6 567.3 696.3 554.7 696.3Z" fill="#1D3D90"/>
<path d="M556.774 709.674V727.129H554.66V711.89H554.558L550.296 714.72V712.572L554.66 709.674H556.774Z" fill="white"/>
<path d="M679.6 738.1C679.6 738.1 679.8 738.4 680.1 738.8C680.3 739 680.4 739.3 680.6 739.6C680.7 739.8 680.8 739.9 680.9 740.1C681 740.3 680.9 740.5 680.9 740.6C680.9 742.1 680.9 744.2 680.9 746.2C680.9 748.2 680.9 750.3 680.9 751.8C680.9 751.9 680.9 752 680.9 752.1C680.9 752.2 680.9 752.3 680.9 752.4C680.8 752.6 680.7 752.7 680.6 752.9C680.4 753.2 680.2 753.5 680.1 753.7C679.8 754.1 679.6 754.4 679.6 754.4C679.6 754.4 679.4 754.1 679.1 753.7C679 753.5 678.8 753.2 678.6 752.9C678.5 752.7 678.4 752.6 678.3 752.4C678.2 752.3 678.2 752.2 678.3 752.1C678.3 752 678.3 751.9 678.3 751.8C678.3 750.3 678.3 748.2 678.3 746.2C678.3 744.2 678.3 742.1 678.3 740.6C678.3 740.4 678.2 740.2 678.3 740.1C678.4 739.9 678.5 739.8 678.6 739.6C678.8 739.3 679 739 679.1 738.8C679.4 738.3 679.6 738.1 679.6 738.1Z" fill="#1D3D90"/>
<path d="M679.6 741.1C691.75 741.1 701.6 731.25 701.6 719.1C701.6 706.95 691.75 697.1 679.6 697.1C667.45 697.1 657.6 706.95 657.6 719.1C657.6 731.25 667.45 741.1 679.6 741.1Z" fill="#F8493B"/>
<path d="M679.2 697.9C690.9 697.9 700.5 707.4 700.5 719.2C700.5 731 691 740.5 679.2 740.5C667.4 740.5 657.9 731 657.9 719.2C657.9 707.4 667.5 697.9 679.2 697.9ZM679.2 696.3C666.6 696.3 656.3 706.6 656.3 719.2C656.3 731.8 666.6 742.1 679.2 742.1C691.8 742.1 702.1 731.8 702.1 719.2C702.1 706.6 691.8 696.3 679.2 696.3Z" fill="#1D3D90"/>
<path d="M671.359 727.129V725.595L677.12 719.288C677.796 718.549 678.353 717.907 678.79 717.362C679.228 716.811 679.552 716.294 679.762 715.811C679.978 715.322 680.086 714.811 680.086 714.277C680.086 713.663 679.938 713.132 679.643 712.683C679.353 712.234 678.955 711.887 678.449 711.643C677.944 711.399 677.376 711.277 676.745 711.277C676.074 711.277 675.489 711.416 674.989 711.694C674.495 711.967 674.111 712.35 673.839 712.845C673.572 713.339 673.438 713.919 673.438 714.583H671.427C671.427 713.561 671.662 712.663 672.134 711.89C672.606 711.118 673.248 710.515 674.06 710.083C674.878 709.652 675.796 709.436 676.813 709.436C677.836 709.436 678.742 709.652 679.532 710.083C680.322 710.515 680.941 711.098 681.39 711.831C681.839 712.564 682.063 713.379 682.063 714.277C682.063 714.919 681.947 715.547 681.714 716.16C681.486 716.768 681.089 717.447 680.52 718.197C679.958 718.941 679.177 719.85 678.177 720.924L674.256 725.118V725.254H682.37V727.129H671.359Z" fill="white"/>
<path d="M365.6 892.3L362.3 869.2L327.9 873.1L365.6 892.3Z" fill="#F8493B" stroke="#F8493B" stroke-width="3.5931" stroke-miterlimit="10" stroke-linecap="round" stroke-linejoin="round"/>
</svg>
