<svg width="1920" height="1080" viewBox="0 0 1920 1080" fill="none" xmlns="http://www.w3.org/2000/svg">
<path d="M1542.4 928.7L1546.8 923.3L1503.5 911.4L1460 900L1416.4 888.9L1372.5 878L1328.4 867.4L1284.7 857.3V857L1343.7 726C1455.4 743.4 1576.7 721.8 1652 668.6C1738.8 607.2 1741.7 519.4 1658.9 456.2V456.1C1642.9 444.3 1625.9 433.7 1608.7 423.7L1422.2 316C1416.2 319.5 1410.1 323 1404.1 326.5L1359.9 352.1C1353.2 353.8 1183 455.7 1182.9 461.3C1109.7 522 1126.5 577.3 1133 596.7L702.3 692L615 641.3L935.2 456.5L906.5 433.2L946.2 404.9L673.2 246.1L159.9 539.6L458.6 712.2L511.6 681.7L594.3 729.3L588.8 748.1L514.2 742.1L491.6 829.2L529.2 832.1L566.8 835.5L604.2 838.9L641.6 842.8L678.8 846.8L715.9 851.2L753 855.9L790.1 860.8L827 866L863.7 871.4L900.3 877.1L936.7 883.1L960.5 833.1L1004.6 841.7L1042.7 848.9L1085 856.8L1084.8 857.4C1083.7 862.8 1089.2 867.9 1098 869.6C1106.7 871.3 1116.3 868.9 1120.4 864.2L1121.2 863.4L1126.9 864.5L1144.1 867.9L1141.1 892.7L1125.6 918.4L1162.2 925.6L1198.4 933L1234.6 940.9L1270.7 949L1306.4 957.4L1342 966.1L1377.4 975L1412.6 984.2L1447.5 993.6L1482.2 1003.3L1529.5 945.1L1542.4 928.7Z" fill="#ADCFFF"/>
<path d="M1542.5 899L1546.9 893.6L1503.6 881.7L1460.2 870.3L1416.6 859.2L1372.7 848.3L1328.6 837.7L1284.9 827.6V827.3L1343.9 696.3C1455.6 713.7 1576.9 692.1 1652.2 638.9C1739 577.5 1741.9 489.7 1659.1 426.5V426.4C1643.1 414.6 1626.1 404 1608.9 394L1422.4 286.3C1416.4 289.8 1410.3 293.3 1404.3 296.8L1360.1 322.4C1353.4 324.1 1183.2 426 1183.1 431.6C1109.9 492.3 1126.7 547.6 1133.2 567L697.3 663L638.1 628.8L961.2 443.1L929 423.3L979.7 394.6L673.3 216.4L160.1 509.9L458.8 682.5L511.8 652L594.5 699.6L589 718.4L514.4 712.4L491.8 799.5L529.4 802.4L567 805.8L604.4 809.2L641.8 813.1L679 817.1L716.1 821.5L753.2 826.2L790.3 831.1L827 836L863.7 841.4L900.3 847.1L936.7 853.1L949.8 826.4L993.9 835L1032 842.2L1074.3 850.1L1074.1 850.7C1073 856.1 1078.5 861.2 1087.3 862.9C1096 864.6 1105.6 862.2 1109.7 857.5L1110.5 856.7L1116.2 857.8L1133.4 861.2L1141.1 862.7L1125.6 888.4L1162.2 895.6L1198.4 903L1234.6 910.9L1270.7 919L1306.4 927.4L1342 936.1L1377.4 945L1412.6 954.2L1447.5 963.6L1482.2 973.3L1529.5 915.1L1542.5 899Z" fill="white"/>
<path d="M1583.3 396.8L1544 432.4L1468.8 433.9C1340.4 420.8 1256.2 467.1 1257.6 531C1259.8 637.4 1535.1 668.9 1595.3 553.1L1635.4 517L1698.7 516.4C1692.5 471.2 1652.8 432.9 1583.3 396.8Z" fill="#3387FF"/>
<path d="M1284.6 828.5L1249.3 821.1L1214.6 813.9" stroke="#0086CD" stroke-width="4.8467" stroke-miterlimit="10" stroke-linecap="round" stroke-linejoin="round"/>
<path d="M1150.4 820.3C1140.6 823.9 1129.4 825.9 1117.7 826.2C1108.1 826.5 1098.5 825.6 1089.6 823.5L1089.2 823.4L1089 823.6L1074.2 851.2" stroke="#0086CD" stroke-width="4.8467" stroke-miterlimit="10" stroke-linecap="round" stroke-linejoin="round"/>
<path d="M1107.9 858.3L1126.9 825.6" stroke="#0086CD" stroke-width="1.6156" stroke-miterlimit="10" stroke-linecap="round" stroke-linejoin="round"/>
<path d="M1119.3 842.1L1149.9 848.3L1150 848.6L1140.9 863.7" stroke="#0086CD" stroke-width="4.8467" stroke-miterlimit="10" stroke-linecap="round" stroke-linejoin="round"/>
<path d="M1443.4 900.1L1524.3 922.2" stroke="#0086CD" stroke-width="4.8467" stroke-miterlimit="10" stroke-linecap="round" stroke-linejoin="round"/>
<path d="M1406.8 918.1L1421.3 949.4L1416.1 956.3" stroke="#0086CD" stroke-width="1.6156" stroke-miterlimit="10" stroke-linecap="round" stroke-linejoin="round"/>
<path d="M1444.1 900.1C1443.5 900.7 1443 901.4 1442.3 902C1441.7 902.5 1441 903.1 1440.4 903.6C1439 904.8 1437.4 906 1435.9 907.1C1434.5 908.1 1432.9 908.8 1431.5 909.7C1429.9 910.6 1428.2 911.5 1426.5 912.2C1419.8 915 1412.8 917 1405.6 918.1C1402.1 918.6 1398.5 919.2 1394.9 919.3C1391.3 919.4 1387.7 919.4 1384.1 919C1382.2 918.8 1380.2 918.7 1378.3 918.3C1376.5 918 1374.8 917.5 1373.1 917C1369.7 916.1 1366.3 914.9 1363.2 913.3C1361.6 912.5 1359.9 911.4 1358.5 910.2C1357.9 909.7 1357.3 909.1 1356.9 908.5C1356.4 907.8 1355.8 907.2 1355.4 906.4C1354.6 904.8 1354.3 903 1354.3 901.2C1354.3 899.4 1355.1 897.6 1356.1 896.1C1356.5 895.4 1357 894.8 1357.5 894.1C1356.5 893.8 1355.6 893.5 1354.6 893.3" stroke="#0086CD" stroke-width="1.6156" stroke-miterlimit="10" stroke-linecap="round" stroke-linejoin="round"/>
<path d="M1356.7 892.7L1305.2 880.5" stroke="#0086CD" stroke-width="4.8467" stroke-miterlimit="10" stroke-linecap="round" stroke-linejoin="round"/>
<path d="M1285.1 876L1258.9 870.1" stroke="#0086CD" stroke-width="4.8467" stroke-miterlimit="10" stroke-linecap="round" stroke-linejoin="round"/>
<path d="M1238.8 865.6L1226.4 862.9" stroke="#0086CD" stroke-width="4.8467" stroke-miterlimit="10" stroke-linecap="round" stroke-linejoin="round"/>
<path d="M1225.4 862.5L1188.1 854.8L1150.6 847.4" stroke="#0086CD" stroke-width="1.6156" stroke-miterlimit="10" stroke-linecap="round" stroke-linejoin="round"/>
<path d="M1318.6 884.2L1290.3 924.6" stroke="#0086CD" stroke-width="4.8467" stroke-miterlimit="10" stroke-linecap="round" stroke-linejoin="round"/>
<path d="M1226.4 862.9L1199.4 904.1" stroke="#0086CD" stroke-width="4.8467" stroke-miterlimit="10" stroke-linecap="round" stroke-linejoin="round"/>
<path d="M1272.2 873.1L1245.2 914.2" stroke="#0086CD" stroke-width="4.8467" stroke-miterlimit="10" stroke-linecap="round" stroke-linejoin="round"/>
<path d="M1133.2 862.2L1140.9 863.7L1125.4 889.4L1162 896.6L1198.2 904L1234.4 911.8L1270.5 919.9L1306.2 928.3L1341.8 937L1377.2 945.9L1412.4 955.1L1447.3 964.5L1482 974.2L1529.3 916" stroke="#0086CD" stroke-width="7.4044" stroke-miterlimit="10" stroke-linecap="round" stroke-linejoin="round"/>
<path d="M1116 858.8L1110.3 857.7L1109.5 858.5C1105.4 863.3 1095.8 865.7 1087.1 863.9C1078.3 862.2 1072.8 857.1 1073.9 851.7V851.1L1031.8 843.2" stroke="#0086CD" stroke-width="7.4044" stroke-miterlimit="10" stroke-linecap="round" stroke-linejoin="round"/>
<path d="M1178.1 433.3C1173.8 437 1169.6 440.8 1165.5 444.7C1155.8 454.1 1147 465 1140.1 476.6C1132.8 489 1127.5 502.1 1124.8 516.3C1122.3 529.7 1123 543.9 1126.4 557C1127.3 560.5 1128.5 563.9 1129.6 567.3" stroke="#0086CD" stroke-width="4.8467" stroke-miterlimit="10" stroke-linecap="round" stroke-linejoin="round"/>
<path d="M431.2 578.4L485.3 609.6L667.7 504.3" stroke="#0086CD" stroke-width="4.8467" stroke-miterlimit="10" stroke-linecap="round" stroke-linejoin="round"/>
<path d="M415.7 569.7L326.3 518L466.4 437.2" stroke="#0086CD" stroke-width="4.8467" stroke-miterlimit="10" stroke-linecap="round" stroke-linejoin="round"/>
<path d="M347.5 502.1L350.6 503.9" stroke="#0086CD" stroke-width="4.8467" stroke-miterlimit="10" stroke-linecap="round" stroke-linejoin="round"/>
<path d="M508.8 412.5L481.5 428.3" stroke="#0086CD" stroke-width="4.8467" stroke-miterlimit="10" stroke-linecap="round" stroke-linejoin="round"/>
<path d="M1331.8 623.6C1397.3 645.2 1478.9 642.2 1539.1 615.9" stroke="#0086CD" stroke-width="4.8467" stroke-miterlimit="10" stroke-linecap="round" stroke-linejoin="round"/>
<path d="M1539.1 616C1572.8 601.4 1596.9 580.6 1607.7 557.1" stroke="#0086CD" stroke-width="4.8467" stroke-miterlimit="10" stroke-linecap="round" stroke-linejoin="round"/>
<path d="M1607.6 557.3L1642.2 525.6L1718.8 524.2" stroke="#0086CD" stroke-width="4.8467" stroke-miterlimit="10" stroke-linecap="round" stroke-linejoin="round"/>
<path d="M1238.4 543C1242.6 561.8 1255.2 579.6 1275 594.7" stroke="#0086CD" stroke-width="4.8467" stroke-miterlimit="10" stroke-linecap="round" stroke-linejoin="round"/>
<path d="M1275 594.8C1285 602.5 1296.8 609.4 1310 615.3" stroke="#0086CD" stroke-width="4.8467" stroke-miterlimit="10" stroke-linecap="round" stroke-linejoin="round"/>
<path d="M1586.7 382.8L1540.7 423.2L1470.6 423.6L1468.4 423.4" stroke="#0086CD" stroke-width="4.8467" stroke-miterlimit="10" stroke-linecap="round" stroke-linejoin="round"/>
<path d="M1468.4 423.3C1413.9 415.9 1356.5 422.9 1311.9 442.4" stroke="#0086CD" stroke-width="4.8467" stroke-miterlimit="10" stroke-linecap="round" stroke-linejoin="round"/>
<path d="M1311.8 442.5C1265.6 462.6 1238 493.8 1237 527.2" stroke="#0086CD" stroke-width="4.8467" stroke-miterlimit="10" stroke-linecap="round" stroke-linejoin="round"/>
<path d="M1129.8 567.3L699 662.6L639.8 628.4L883.7 487.5L885.2 486.6L960 443.5L925.1 423.2" stroke="#0086CD" stroke-width="1.6156" stroke-miterlimit="10" stroke-linecap="round" stroke-linejoin="round"/>
<path d="M1158.6 612.6C1166.1 620.6 1174.6 628.3 1184.1 635.6" stroke="#0086CD" stroke-width="4.8467" stroke-miterlimit="10" stroke-linecap="round" stroke-linejoin="round"/>
<path d="M1184.1 635.7C1193.6 643 1204.1 649.8 1215.4 656.1" stroke="#0086CD" stroke-width="4.8467" stroke-miterlimit="10" stroke-linecap="round" stroke-linejoin="round"/>
<path d="M1161 613.1L1159.3 611.1L1118.2 625.7C1126.2 634.4 1135.1 642.7 1145.4 650.6" stroke="#0086CD" stroke-width="1.6156" stroke-miterlimit="10" stroke-linecap="round" stroke-linejoin="round"/>
<path d="M1145.5 650.6C1156.9 659.3 1169.6 667.4 1183.6 674.8L1215.5 657.7" stroke="#0086CD" stroke-width="1.6156" stroke-miterlimit="10" stroke-linecap="round" stroke-linejoin="round"/>
<path d="M713.4 683.4L628.9 634.6L604.1 648.8L688.8 697.8L713.4 683.4Z" stroke="#0086CD" stroke-width="1.6156" stroke-miterlimit="10" stroke-linecap="round" stroke-linejoin="round"/>
<path d="M945.1 797.4C950.7 798.9 956.6 799.9 962.7 800.5" stroke="#0086CD" stroke-width="4.6965" stroke-miterlimit="10" stroke-linecap="round" stroke-linejoin="round"/>
<path d="M562.5 806.2L573.2 771L580.8 771.6" stroke="#0086CD" stroke-width="4.8467" stroke-miterlimit="10" stroke-linecap="round" stroke-linejoin="round"/>
<path d="M685.1 783.5L591.8 773" stroke="#0086CD" stroke-width="4.8467" stroke-miterlimit="10" stroke-linecap="round" stroke-linejoin="round"/>
<path d="M710.6 821.9L735.4 754.5" stroke="#0086CD" stroke-width="1.6156" stroke-miterlimit="10" stroke-linecap="round" stroke-linejoin="round"/>
<path d="M695.8 749.8C701.3 750.1 706.7 750.8 712.1 751.4C717.7 752 723.2 752.8 728.8 753.5C733.9 754.1 739 754.9 744.1 755.6C749.5 756.3 754.9 757 760.2 757.7C766.1 758.4 772 759.2 777.9 760C783.5 760.8 789.1 761.5 794.7 762.3C799.5 763 804.4 763.6 809.2 764.3C815 765.2 820.9 766 826.7 766.8C832.1 767.6 837.4 768.3 842.8 769C845.5 769.4 848.2 769.8 850.9 770.1C852.2 770.3 853.5 770.6 854.8 770.8C856 771 857.2 771 858.3 771.2C859.7 771.4 861 771.7 862.4 771.8" stroke="#0086CD" stroke-width="1.6156" stroke-miterlimit="10" stroke-linecap="round" stroke-linejoin="round"/>
<path d="M833.7 838L862.9 771.6" stroke="#0086CD" stroke-width="4.8467" stroke-miterlimit="10" stroke-linecap="round" stroke-linejoin="round"/>
<path d="M575.1 770.8L591.3 716.6" stroke="#0086CD" stroke-width="1.6156" stroke-miterlimit="10" stroke-linecap="round" stroke-linejoin="round"/>
<path d="M685.1 783.5L696.3 750.7" stroke="#0086CD" stroke-width="4.8467" stroke-miterlimit="10" stroke-linecap="round" stroke-linejoin="round"/>
<path d="M728 733.9L855.2 750.8L864.6 728.3L735.4 711.1L730.5 726.2" stroke="#0086CD" stroke-width="1.6156" stroke-miterlimit="10" stroke-linecap="round" stroke-linejoin="round"/>
<path d="M814.4 487.2L707.1 549.2" stroke="#0086CD" stroke-width="4.8467" stroke-miterlimit="10" stroke-linecap="round" stroke-linejoin="round"/>
<path d="M691.8 558.1L604.9 608.3" stroke="#0086CD" stroke-width="4.8467" stroke-miterlimit="10" stroke-linecap="round" stroke-linejoin="round"/>
<path d="M673.7 568.5L651.2 555.6" stroke="#0086CD" stroke-width="4.8467" stroke-miterlimit="10" stroke-linecap="round" stroke-linejoin="round"/>
<path d="M635.8 546.7L615 534.6" stroke="#0086CD" stroke-width="4.8467" stroke-miterlimit="10" stroke-linecap="round" stroke-linejoin="round"/>
<path d="M559.3 625.5L541.9 615.5" stroke="#0086CD" stroke-width="4.8467" stroke-miterlimit="10" stroke-linecap="round" stroke-linejoin="round"/>
<path d="M526.6 606.6L508.6 596.2" stroke="#0086CD" stroke-width="4.8467" stroke-miterlimit="10" stroke-linecap="round" stroke-linejoin="round"/>
<path d="M1571.1 680L1527.4 635.9" stroke="#0086CD" stroke-width="1.6156" stroke-miterlimit="10" stroke-linecap="round" stroke-linejoin="round"/>
<path d="M1433.2 703.4L1430 652.9V652.4" stroke="#0086CD" stroke-width="4.8467" stroke-miterlimit="10" stroke-linecap="round" stroke-linejoin="round"/>
<path d="M1708.8 576.2L1626.7 562.4" stroke="#0086CD" stroke-width="4.8467" stroke-miterlimit="10" stroke-linecap="round" stroke-linejoin="round"/>
<path d="M1629.3 561.8L1607.3 558.1L1709.9 575.2" stroke="#0086CD" stroke-width="1.6156" stroke-miterlimit="10" stroke-linecap="round" stroke-linejoin="round"/>
<path d="M1622.6 569.5C1624 567.1 1625.3 564.8 1626.6 562.4" stroke="#0086CD" stroke-width="4.8467" stroke-miterlimit="10" stroke-linecap="round" stroke-linejoin="round"/>
<path d="M1571.7 616.2C1585.1 608.5 1596.7 599.8 1606.1 590.3" stroke="#0086CD" stroke-width="1.6156" stroke-miterlimit="10" stroke-linecap="round" stroke-linejoin="round"/>
<path d="M1429.9 652.3C1483.4 651 1534 638.1 1571.8 616.2" stroke="#0086CD" stroke-width="1.6156" stroke-miterlimit="10" stroke-linecap="round" stroke-linejoin="round"/>
<path d="M1398.4 651.5C1409 652.2 1419.6 652.4 1430.3 652.1" stroke="#0086CD" stroke-width="4.8467" stroke-miterlimit="10" stroke-linecap="round" stroke-linejoin="round"/>
<path d="M1157.4 517.3H1124.7" stroke="#0086CD" stroke-width="4.8467" stroke-miterlimit="10" stroke-linecap="round" stroke-linejoin="round"/>
<path d="M1684.3 611.4L1606.8 589.6" stroke="#0086CD" stroke-width="4.8467" stroke-miterlimit="10" stroke-linecap="round" stroke-linejoin="round"/>
<path d="M1607.4 589.8L1607.6 589.6L1608 589.1L1608.6 588.5L1609.3 587.6L1611 585.6L1612.5 583.4" stroke="#0086CD" stroke-width="4.8467" stroke-miterlimit="10" stroke-linecap="round" stroke-linejoin="round"/>
<path d="M670 216.6L976.4 393.7" stroke="#0086CD" stroke-width="4.8467" stroke-miterlimit="10" stroke-linecap="round" stroke-linejoin="round"/>
<path d="M312.7 599.4L377.3 562.1" stroke="#0086CD" stroke-width="4.8467" stroke-miterlimit="10" stroke-linecap="round" stroke-linejoin="round"/>
<path d="M261.9 452.8L336.9 496" stroke="#0086CD" stroke-width="4.8467" stroke-miterlimit="10" stroke-linecap="round" stroke-linejoin="round"/>
<path d="M325.8 532.9L376.8 562.3" stroke="#0086CD" stroke-width="1.6156" stroke-miterlimit="10" stroke-linecap="round" stroke-linejoin="round"/>
<path d="M360.7 394.9L434.3 437.3L287.7 521.9" stroke="#0086CD" stroke-width="1.6156" stroke-miterlimit="10" stroke-linecap="round" stroke-linejoin="round"/>
<path d="M215 479.9L316.3 538.3" stroke="#0086CD" stroke-width="1.6156" stroke-miterlimit="10" stroke-linecap="round" stroke-linejoin="round"/>
<path d="M312.2 423.8L385 465.7" stroke="#0086CD" stroke-width="1.6156" stroke-miterlimit="10" stroke-linecap="round" stroke-linejoin="round"/>
<path d="M325.8 532.9L261.7 569.8" stroke="#0086CD" stroke-width="1.6156" stroke-miterlimit="10" stroke-linecap="round" stroke-linejoin="round"/>
<path d="M976.4 393.7L839.4 472.7" stroke="#0086CD" stroke-width="4.8467" stroke-miterlimit="10" stroke-linecap="round" stroke-linejoin="round"/>
<path d="M935.3 794.1C943.5 797.3 952.8 799.5 962.5 800.5" stroke="#0086CD" stroke-width="4.8467" stroke-miterlimit="10" stroke-linecap="round" stroke-linejoin="round"/>
<path d="M911.5 777.9C916.8 784.4 925 790 935.3 794.1" stroke="#0086CD" stroke-width="4.8467" stroke-miterlimit="10" stroke-linecap="round" stroke-linejoin="round"/>
<path d="M899 798.1L922.9 801.8L900.8 847.4" stroke="#0086CD" stroke-width="4.8467" stroke-miterlimit="10" stroke-linecap="round" stroke-linejoin="round"/>
<path d="M854.2 791.6L855.7 791.8L857.9 792.1L860.5 792.4L863.4 792.8L866.8 793.3L870.3 793.8L874.1 794.4L878.2 794.9" stroke="#0086CD" stroke-width="4.8467" stroke-miterlimit="10" stroke-linecap="round" stroke-linejoin="round"/>
<path d="M922.9 801.8L936.4 794.4" stroke="#0086CD" stroke-width="4.8467" stroke-miterlimit="10" stroke-linecap="round" stroke-linejoin="round"/>
<path d="M631.4 811.7L642.7 779" stroke="#0086CD" stroke-width="4.8467" stroke-miterlimit="10" stroke-linecap="round" stroke-linejoin="round"/>
<path d="M449.4 378.3L419.4 360.9" stroke="#0086CD" stroke-width="4.8467" stroke-miterlimit="10" stroke-linecap="round" stroke-linejoin="round"/>
<path d="M726.4 538.1L473.9 392.4" stroke="#0086CD" stroke-width="4.8467" stroke-miterlimit="10" stroke-linecap="round" stroke-linejoin="round"/>
<path d="M949.5 827.6L962.9 800.5" stroke="#0086CD" stroke-width="4.8467" stroke-miterlimit="10" stroke-linecap="round" stroke-linejoin="round"/>
<path d="M1542.4 900.1L1546.8 894.7L1503.5 882.8L1460.1 871.4L1416.5 860.3L1372.6 849.4L1328.5 838.8L1284.8 828.7V828.4L1343.8 697.4C1455.5 714.8 1576.8 693.2 1652.1 640C1738.9 578.6 1741.8 490.8 1659 427.6V427.5C1643 415.7 1626 405.1 1608.8 395.1L1422.3 287.4C1416.3 290.9 1410.2 294.4 1404.2 297.9C1389.5 306.4 1374.7 315 1360 323.5C1341.6 334.1 1323.2 344.8 1304.8 355.4C1287.8 365.2 1270.9 375 1253.9 384.8C1243.4 390.9 1232.9 396.9 1222.5 403C1214.4 407.7 1206.3 412.4 1198.5 417.7C1191.5 422.5 1183.7 426.9 1177.3 432.4L1078.9 375.5L1099.7 363.6L1064.1 343.1L1228.5 248.2L921.4 71.2L159.9 511L458.6 683.6L511.6 653.1L594.3 700.7L588.8 719.5L514.2 713.5L491.6 800.6L529.2 803.5L566.8 806.9L604.2 810.3L641.6 814.2L678.8 818.2L715.9 822.6L753 827.3L790.1 832.2L827 837.4L863.7 842.8L900.3 848.5L936.7 854.5L949.8 827.8L993.9 836.4" stroke="#0086CD" stroke-width="7.5393" stroke-miterlimit="10" stroke-linecap="round" stroke-linejoin="round"/>
<path d="M696.7 749.7L611.6 740.1" stroke="#0086CD" stroke-width="4.8467" stroke-miterlimit="10" stroke-linecap="round" stroke-linejoin="round"/>
<path d="M1656.6 636.8L1588 606.6" stroke="#0086CD" stroke-width="1.6156" stroke-miterlimit="10" stroke-linecap="round" stroke-linejoin="round"/>
<path d="M597 603.7L543.9 634.4" stroke="#0086CD" stroke-width="4.8467" stroke-miterlimit="10" stroke-linecap="round" stroke-linejoin="round"/>
<path d="M528.3 643.5L511.7 653" stroke="#0086CD" stroke-width="4.8467" stroke-miterlimit="10" stroke-linecap="round" stroke-linejoin="round"/>
<path d="M597 603.7L604.9 608.3" stroke="#0086CD" stroke-width="4.8467" stroke-miterlimit="10" stroke-linecap="round" stroke-linejoin="round"/>
<path d="M515.4 477.1L385.5 552.2" stroke="#0086CD" stroke-width="4.8467" stroke-miterlimit="10" stroke-linecap="round" stroke-linejoin="round"/>
<path d="M617.8 475.5L565.2 505.9" stroke="#0086CD" stroke-width="4.8467" stroke-miterlimit="10" stroke-linecap="round" stroke-linejoin="round"/>
<path d="M615 534.6L456.9 443.4" stroke="#0086CD" stroke-width="4.8467" stroke-miterlimit="10" stroke-linecap="round" stroke-linejoin="round"/>
<path d="M1527.9 692L1497.8 644.1" stroke="#0086CD" stroke-width="1.6156" stroke-miterlimit="10" stroke-linecap="round" stroke-linejoin="round"/>
<path d="M1363.4 647.3C1358 646.1 1352.6 644.9 1347.2 643.7C1341.5 642.4 1335.5 641.7 1329.9 643.8C1325.7 645.4 1323.4 649 1320.6 652.4C1315.2 659 1309.8 665.7 1304.4 672.3C1300.5 677.1 1296.6 681.9 1292.7 686.7L1292.6 686.5C1309.2 691.1 1326.2 694.7 1343.5 697.4" stroke="#0086CD" stroke-width="4.8467" stroke-miterlimit="10" stroke-linecap="round" stroke-linejoin="round"/>
<path d="M604.3 763.4L600.9 774" stroke="#0086CD" stroke-width="4.8467" stroke-miterlimit="10" stroke-linecap="round" stroke-linejoin="round"/>
<path d="M611.6 740.1L608.4 750.5" stroke="#0086CD" stroke-width="4.8467" stroke-miterlimit="10" stroke-linecap="round" stroke-linejoin="round"/>
<path d="M1213.8 494.3C1210.7 501.4 1208.3 508.6 1206.8 515.9L1206.6 517.4H1182.4" stroke="#0086CD" stroke-width="4.8467" stroke-miterlimit="10" stroke-linecap="round" stroke-linejoin="round"/>
<path d="M1137.5 481.3L1220.5 495.3" stroke="#0086CD" stroke-width="4.8467" stroke-miterlimit="10" stroke-linecap="round" stroke-linejoin="round"/>
<path d="M1236.9 497.9L1243.4 498.8" stroke="#0086CD" stroke-width="4.8467" stroke-miterlimit="10" stroke-linecap="round" stroke-linejoin="round"/>
<path d="M940.6 757.2L950.7 758.8L945.4 769.6L935.3 768L940.6 757.2Z" fill="#0085CC" stroke="#0086CD" stroke-width="1.5096" stroke-miterlimit="10" stroke-linecap="round" stroke-linejoin="round"/>
<path d="M1013.4 768.9L1020.5 770.1L1014.8 780.9L1007.7 779.7L1013.4 768.9Z" fill="#0085CC" stroke="#0086CD" stroke-width="1.5096" stroke-miterlimit="10" stroke-linecap="round" stroke-linejoin="round"/>
<path d="M1081.3 780.8L1088.4 782.1L1082.7 792.8L1075.6 791.6L1081.3 780.8Z" fill="#0085CC" stroke="#0086CD" stroke-width="1.5096" stroke-miterlimit="10" stroke-linecap="round" stroke-linejoin="round"/>
<path d="M1148.5 792.7L1158.6 794.8L1152 805.4L1141.9 803.3L1148.5 792.7Z" fill="#0085CC" stroke="#0086CD" stroke-width="1.5096" stroke-miterlimit="10" stroke-linecap="round" stroke-linejoin="round"/>
<path d="M795.6 735.4L791.5 746.1L864 755.8L868.8 745.2L795.6 735.4Z" fill="#0085CC" stroke="#0086CD" stroke-width="1.5096" stroke-miterlimit="10" stroke-linecap="round" stroke-linejoin="round"/>
<path d="M727.6 726.8L723.4 737.5L733.5 738.8L737.6 728L727.6 726.8Z" fill="#0085CC" stroke="#0086CD" stroke-width="1.5096" stroke-miterlimit="10" stroke-linecap="round" stroke-linejoin="round"/>
<path d="M663.8 705.3L655.7 729L667.9 730.3L676 706.7L663.8 705.3Z" fill="#0085CC" stroke="#0086CD" stroke-width="1.5096" stroke-miterlimit="10" stroke-linecap="round" stroke-linejoin="round"/>
<path d="M851.3 466.8L884.4 486.6" stroke="#0086CD" stroke-width="1.6156" stroke-miterlimit="10" stroke-linecap="round" stroke-linejoin="round"/>
<path d="M1537.8 930.4L1564.5 920.7L1557.6 902.6L1537.8 930.4Z" fill="#F8493B" stroke="#F8493B" stroke-width="2.5315" stroke-miterlimit="10" stroke-linecap="round" stroke-linejoin="round"/>
<path d="M1302.6 626.4L1320.7 633.8L1318.1 624.9L1302.6 626.4Z" fill="#F8493B" stroke="#F8493B" stroke-width="3.5931" stroke-miterlimit="10" stroke-linecap="round" stroke-linejoin="round"/>
<path d="M1232 535.8L1222.7 541.2V530.4L1232 535.8Z" fill="#F8493B" stroke="#F8493B" stroke-width="3.5931" stroke-miterlimit="10" stroke-linecap="round" stroke-linejoin="round"/>
<path d="M974 867.4L1027.5 875.1L1007.5 856L974 867.4Z" fill="#F8493B" stroke="#F8493B" stroke-width="3.0143" stroke-miterlimit="10" stroke-linecap="round" stroke-linejoin="round"/>
<path d="M851.3 483.7H830.8V495.4L851.3 483.7Z" fill="#F8493B" stroke="#F8493B" stroke-width="3.2254" stroke-miterlimit="10" stroke-linecap="round" stroke-linejoin="round"/>
<path d="M562 643.5H541.9V655L562 643.5Z" fill="#F8493B" stroke="#F8493B" stroke-width="3.1639" stroke-miterlimit="10" stroke-linecap="round" stroke-linejoin="round"/>
<path d="M417.3 579.9H398.8L417.3 590.5" fill="#F8493B"/>
<path d="M417.3 579.9H398.8L417.3 590.5" stroke="#F8493B" stroke-width="2.8703" stroke-miterlimit="10" stroke-linecap="round" stroke-linejoin="round"/>
<path d="M417.3 590.5V579.9" stroke="#F8493B" stroke-width="2.8703" stroke-miterlimit="10" stroke-linecap="round" stroke-linejoin="round"/>
<path fill-rule="evenodd" clip-rule="evenodd" d="M417.3 579.9V590.5L398.9 579.9H417.3Z" fill="#F8493B" stroke="#F8493B" stroke-width="2.8703" stroke-miterlimit="10" stroke-linecap="round" stroke-linejoin="round"/>
<path fill-rule="evenodd" clip-rule="evenodd" d="M398.9 579.9L417.3 590.5L398.8 579.9H398.9Z" fill="#F8493B" stroke="#F8493B" stroke-width="2.8703" stroke-miterlimit="10" stroke-linecap="round" stroke-linejoin="round"/>
<path d="M417.3 579.9H398.8L417.3 590.5V579.9Z" fill="#F8493B" stroke="#F8493B" stroke-width="2.8703" stroke-miterlimit="10" stroke-linecap="round" stroke-linejoin="round"/>
<path d="M941.1 918.1L942.4 907.8L941.1 897.5H957.8C959.8 897.5 961.4 898 962.6 898.9C963.8 899.8 964.4 901.1 964.4 902.7C964.4 904.2 963.8 905.4 962.6 906.3C961.4 907.2 959.8 907.8 957.7 908L958.2 906.8C960.6 906.9 962.5 907.4 963.8 908.3C965.1 909.2 965.7 910.5 965.7 912.2C965.7 914 965 915.4 963.7 916.4C962.4 917.4 960.6 918 958.4 918H941.1V918.1ZM948.2 916.5L945.4 913.5H955.9C956.7 913.5 957.3 913.3 957.7 913C958.1 912.7 958.3 912.2 958.3 911.5C958.3 910.9 958.1 910.5 957.7 910.1C957.3 909.7 956.6 909.5 955.7 909.5H946.9V905.7H954.9C955.6 905.7 956.2 905.5 956.6 905.2C957 904.9 957.2 904.4 957.2 903.9C957.2 903.3 957 902.9 956.7 902.6C956.4 902.3 955.8 902.1 955.1 902.1H945.6L948.4 899.1L949.6 907.8L948.2 916.5Z" fill="#1D3D90"/>
<path d="M965.9 918.1L975.4 906.6V908.8L966.4 897.6H974.6L980.4 904.7H978.2L984 897.6H992.1L982.8 908.9L982.4 906L992.6 918.2H984.2L977.9 910.6H980.2L974 918.2H965.9V918.1Z" fill="#1D3D90"/>
<path d="M1006 918.6C1003.4 918.6 1001.1 918.1 999.1 917.2C997.1 916.3 995.6 915 994.5 913.4C993.4 911.8 992.8 909.9 992.8 907.7C992.8 905.5 993.4 903.6 994.5 902C995.6 900.4 997.1 899.1 999.1 898.2C1001.1 897.3 1003.4 896.8 1006 896.8C1008.6 896.8 1010.9 897.3 1012.9 898.2C1014.9 899.1 1016.4 900.4 1017.5 902C1018.6 903.6 1019.2 905.5 1019.2 907.7C1019.2 909.8 1018.6 911.7 1017.5 913.4C1016.4 915.1 1014.9 916.3 1012.9 917.2C1011 918.2 1008.7 918.6 1006 918.6ZM1006 913.2C1007.2 913.2 1008.2 913 1009.1 912.6C1010 912.2 1010.6 911.5 1011.1 910.7C1011.6 909.9 1011.8 908.9 1011.8 907.8C1011.8 906.6 1011.6 905.7 1011.1 904.9C1010.6 904.1 1010 903.5 1009.1 903C1008.2 902.6 1007.2 902.4 1006 902.4C1004.8 902.4 1003.8 902.6 1002.9 903C1002 903.4 1001.4 904 1000.9 904.9C1000.4 905.7 1000.2 906.7 1000.2 907.8C1000.2 908.9 1000.4 909.9 1000.9 910.7C1001.4 911.5 1002 912.1 1002.9 912.6C1003.8 913 1004.8 913.2 1006 913.2Z" fill="#1D3D90"/>
<path d="M1051.2 912.6V923H1044.9V918.1H1026.9V923H1020.6V912.6H1026.8L1028.2 912.7H1043.1L1044.4 912.6H1051.2ZM1024.8 897.5H1047.4V916.7H1040.1V899.5L1043.4 902.8H1028.4L1031.1 900.1C1031.4 901.1 1031.6 902 1031.7 902.9C1031.8 903.8 1031.8 904.6 1031.8 905.3C1031.8 908.6 1031.2 911.2 1030.1 913C1029 914.8 1027.4 915.8 1025.3 915.8L1022.3 913.3C1024.2 912 1025.1 908.9 1025.1 903.9C1025.1 902.9 1025.1 901.9 1025 900.8C1024.9 899.7 1025 898.6 1024.8 897.5Z" fill="#1D3D90"/>
<path d="M768.7 713.8C780.464 713.8 790 704.264 790 692.5C790 680.736 780.464 671.2 768.7 671.2C756.936 671.2 747.4 680.736 747.4 692.5C747.4 704.264 756.936 713.8 768.7 713.8Z" fill="#1D3D90"/>
<path d="M757.4 684.3V690.1C757.4 690.3 757.5 690.6 757.7 690.7L772.5 701.2C772.6 701.3 772.7 701.3 772.8 701.3H779.3C779.6 701.3 779.9 701 779.9 700.6V695.3C779.9 694.9 779.6 694.6 779.3 694.6H774.9V691.6C774.9 691.2 774.6 690.9 774.3 690.9H769.9V687.9C769.9 687.5 769.6 687.2 769.3 687.2H764.9V684.2C764.9 683.8 764.6 683.5 764.3 683.5H758C757.7 683.6 757.4 683.9 757.4 684.3ZM763.6 685V688C763.6 688.4 763.9 688.7 764.2 688.7H768.6V691.7C768.6 692.1 768.9 692.4 769.2 692.4H773.6V695.4C773.6 695.8 773.9 696.1 774.2 696.1H778.6V700H772.9L758.5 689.8V685.1L763.6 685Z" fill="white"/>
<path d="M768.7 711.4C768.7 711.4 768.9 711.7 769.3 712.1C769.5 712.3 769.7 712.6 769.9 712.9C770 713.1 770.1 713.2 770.2 713.4C770.3 713.5 770.3 713.6 770.2 713.7C770.2 713.8 770.2 713.9 770.2 714C770.2 715.5 770.2 717.6 770.2 719.6C770.2 721.6 770.2 723.7 770.2 725.2C770.2 725.3 770.2 725.4 770.2 725.5C770.2 725.6 770.2 725.7 770.2 725.8C770.1 726 770 726.1 769.9 726.3C769.7 726.6 769.5 726.9 769.3 727.1C769 727.5 768.7 727.8 768.7 727.8C768.7 727.8 768.5 727.5 768.1 727.1C767.9 726.9 767.7 726.6 767.5 726.3C767.4 726.1 767.3 726 767.2 725.8C767.1 725.7 767.1 725.6 767.2 725.5C767.2 725.4 767.2 725.3 767.2 725.2C767.2 723.7 767.2 721.6 767.2 719.6C767.2 717.6 767.2 715.5 767.2 714C767.2 713.9 767.2 713.8 767.2 713.7C767.2 713.6 767.2 713.5 767.2 713.4C767.3 713.2 767.4 713.1 767.5 712.9C767.7 712.6 767.9 712.3 768.1 712.1C768.4 711.6 768.7 711.4 768.7 711.4Z" fill="#1D3D90"/>
<path d="M586 785.1C597.764 785.1 607.3 775.564 607.3 763.8C607.3 752.036 597.764 742.5 586 742.5C574.236 742.5 564.7 752.036 564.7 763.8C564.7 775.564 574.236 785.1 586 785.1Z" fill="#1D3D90"/>
<path d="M596.6 755H590.3C590 755 589.7 755.3 589.7 755.7V758.7H585.3C585 758.7 584.7 759 584.7 759.4V762.4H580.3C580 762.4 579.7 762.7 579.7 763.1V766.1H575.3C575 766.1 574.7 766.4 574.7 766.8V772.1C574.7 772.5 575 772.8 575.3 772.8H581.8C581.9 772.8 582 772.8 582.1 772.7L596.9 762.2C597.1 762.1 597.2 761.9 597.2 761.6V755.8C597.2 755.3 596.9 755 596.6 755ZM596 756.3V761L581.6 771.2H575.9V767.3H580.3C580.6 767.3 580.9 767 580.9 766.6V763.6H585.3C585.6 763.6 585.9 763.3 585.9 762.9V759.9H590.3C590.6 759.9 590.9 759.6 590.9 759.2V756.2L596 756.3Z" fill="white"/>
<path d="M586 782.8C586 782.8 586.2 783.1 586.6 783.5C586.8 783.7 587 784 587.2 784.3C587.3 784.5 587.4 784.6 587.5 784.8C587.6 784.9 587.6 785 587.5 785.1C587.5 785.2 587.5 785.3 587.5 785.4C587.5 786.9 587.5 789 587.5 791C587.5 793 587.5 795.1 587.5 796.6C587.5 796.7 587.5 796.8 587.5 796.9C587.5 797 587.5 797.1 587.5 797.2C587.4 797.4 587.3 797.5 587.2 797.7C587 798 586.8 798.3 586.6 798.5C586.3 798.9 586 799.2 586 799.2C586 799.2 585.8 798.9 585.4 798.5C585.2 798.3 585 798 584.8 797.7C584.7 797.5 584.6 797.4 584.5 797.2C584.4 797.1 584.4 797 584.5 796.9C584.5 796.8 584.5 796.7 584.5 796.6C584.5 795.1 584.5 793 584.5 791C584.5 789 584.5 786.9 584.5 785.4C584.5 785.3 584.5 785.2 584.5 785.1C584.5 785 584.5 784.9 584.5 784.8C584.6 784.6 584.7 784.5 584.8 784.3C585 784 585.2 783.7 585.4 783.5C585.7 783 586 782.8 586 782.8Z" fill="#1D3D90"/>
<path d="M1188 644C1199.76 644 1209.3 634.464 1209.3 622.7C1209.3 610.936 1199.76 601.4 1188 601.4C1176.24 601.4 1166.7 610.936 1166.7 622.7C1166.7 634.464 1176.24 644 1188 644Z" fill="#1D3D90"/>
<path d="M1198.6 613.9H1192.3C1192 613.9 1191.7 614.2 1191.7 614.6V617.6H1187.3C1187 617.6 1186.7 617.9 1186.7 618.3V621.3H1182.3C1182 621.3 1181.7 621.6 1181.7 622V625H1177.3C1177 625 1176.7 625.3 1176.7 625.7V631C1176.7 631.4 1177 631.7 1177.3 631.7H1183.8C1183.9 631.7 1184 631.7 1184.1 631.6L1198.9 621.1C1199.1 621 1199.2 620.8 1199.2 620.5V614.7C1199.2 614.2 1198.9 613.9 1198.6 613.9ZM1198 615.2V619.9L1183.6 630.1H1177.9V626.2H1182.3C1182.6 626.2 1182.9 625.9 1182.9 625.5V622.5H1187.3C1187.6 622.5 1187.9 622.2 1187.9 621.8V618.8H1192.3C1192.6 618.8 1192.9 618.5 1192.9 618.1V615.1L1198 615.2Z" fill="white"/>
<path d="M1188 641.7C1188 641.7 1188.2 642 1188.6 642.4C1188.8 642.6 1189 642.9 1189.2 643.2C1189.3 643.4 1189.4 643.5 1189.5 643.7C1189.6 643.8 1189.6 643.9 1189.5 644C1189.5 644.1 1189.5 644.2 1189.5 644.3C1189.5 645.8 1189.5 647.9 1189.5 649.9C1189.5 651.9 1189.5 654 1189.5 655.5C1189.5 655.6 1189.5 655.7 1189.5 655.8C1189.5 655.9 1189.5 656 1189.5 656.1C1189.4 656.3 1189.3 656.4 1189.2 656.6C1189 656.9 1188.8 657.2 1188.6 657.4C1188.3 657.8 1188 658.1 1188 658.1C1188 658.1 1187.8 657.8 1187.4 657.4C1187.2 657.2 1187 656.9 1186.8 656.6C1186.7 656.4 1186.6 656.3 1186.5 656.1C1186.4 656 1186.4 655.9 1186.5 655.8C1186.5 655.7 1186.5 655.6 1186.5 655.5C1186.5 654 1186.5 651.9 1186.5 649.9C1186.5 647.9 1186.5 645.8 1186.5 644.3C1186.5 644.2 1186.5 644.1 1186.5 644C1186.5 643.9 1186.5 643.8 1186.5 643.7C1186.6 643.5 1186.7 643.4 1186.8 643.2C1187 642.9 1187.2 642.6 1187.4 642.4C1187.7 641.9 1188 641.7 1188 641.7Z" fill="#1D3D90"/>
<path d="M1663.2 580.3C1674.96 580.3 1684.5 570.764 1684.5 559C1684.5 547.236 1674.96 537.7 1663.2 537.7C1651.44 537.7 1641.9 547.236 1641.9 559C1641.9 570.764 1651.44 580.3 1663.2 580.3Z" fill="#1D3D90"/>
<path d="M1673.9 550.1H1667.6C1667.3 550.1 1667 550.4 1667 550.8V553.8H1662.6C1662.3 553.8 1662 554.1 1662 554.5V557.5H1657.6C1657.3 557.5 1657 557.8 1657 558.2V561.2H1652.6C1652.3 561.2 1652 561.5 1652 561.9V567.2C1652 567.6 1652.3 567.9 1652.6 567.9H1659.1C1659.2 567.9 1659.3 567.9 1659.4 567.8L1674.2 557.3C1674.4 557.2 1674.5 557 1674.5 556.7V550.9C1674.5 550.4 1674.2 550.1 1673.9 550.1ZM1673.2 551.5V556.2L1658.8 566.4H1653.1V562.5H1657.5C1657.8 562.5 1658.1 562.2 1658.1 561.8V558.8H1662.5C1662.8 558.8 1663.1 558.5 1663.1 558.1V555.1H1667.5C1667.8 555.1 1668.1 554.8 1668.1 554.4V551.4L1673.2 551.5Z" fill="white"/>
<path d="M1663.2 577.9C1663.2 577.9 1663.4 578.2 1663.8 578.6C1664 578.8 1664.2 579.1 1664.4 579.4C1664.5 579.6 1664.6 579.7 1664.7 579.9C1664.8 580 1664.8 580.1 1664.7 580.2C1664.7 580.3 1664.7 580.4 1664.7 580.5C1664.7 582 1664.7 584.1 1664.7 586.1C1664.7 588.1 1664.7 590.2 1664.7 591.7C1664.7 591.8 1664.7 591.9 1664.7 592C1664.7 592.1 1664.7 592.2 1664.7 592.3C1664.6 592.5 1664.5 592.6 1664.4 592.8C1664.2 593.1 1664 593.4 1663.8 593.6C1663.5 594 1663.2 594.3 1663.2 594.3C1663.2 594.3 1663 594 1662.6 593.6C1662.4 593.4 1662.2 593.1 1662 592.8C1661.9 592.6 1661.8 592.5 1661.7 592.3C1661.6 592.2 1661.6 592.1 1661.7 592C1661.7 591.9 1661.7 591.8 1661.7 591.7C1661.7 590.2 1661.7 588.1 1661.7 586.1C1661.7 584.1 1661.7 582 1661.7 580.5C1661.7 580.4 1661.7 580.3 1661.7 580.2C1661.7 580.1 1661.7 580 1661.7 579.9C1661.8 579.7 1661.9 579.6 1662 579.4C1662.2 579.1 1662.4 578.8 1662.6 578.6C1663 578.1 1663.2 577.9 1663.2 577.9Z" fill="#1D3D90"/>
<path d="M658.8 655C670.564 655 680.1 645.464 680.1 633.7C680.1 621.936 670.564 612.4 658.8 612.4C647.036 612.4 637.5 621.936 637.5 633.7C637.5 645.464 647.036 655 658.8 655Z" fill="#1D3D90"/>
<path d="M658.8 652.7C658.8 652.7 659 653 659.3 653.4C659.5 653.6 659.6 653.9 659.8 654.2C659.9 654.4 660 654.5 660.1 654.7C660.2 654.9 660.1 655.1 660.1 655.2C660.1 656.7 660.1 658.8 660.1 660.8C660.1 662.8 660.1 664.9 660.1 666.4C660.1 666.5 660.1 666.6 660.1 666.7C660.1 666.8 660.1 666.9 660.1 667C660 667.2 659.9 667.3 659.8 667.5C659.6 667.8 659.4 668.1 659.3 668.3C659 668.7 658.8 669 658.8 669C658.8 669 658.6 668.7 658.3 668.3C658.2 668.1 658 667.8 657.8 667.5C657.7 667.3 657.6 667.2 657.5 667C657.4 666.9 657.4 666.8 657.5 666.7C657.5 666.6 657.5 666.5 657.5 666.4C657.5 664.9 657.5 662.8 657.5 660.8C657.5 658.8 657.5 656.7 657.5 655.2C657.5 655 657.4 654.8 657.5 654.7C657.6 654.5 657.7 654.4 657.8 654.2C658 653.9 658.2 653.6 658.3 653.4C658.6 652.9 658.8 652.7 658.8 652.7Z" fill="#1D3D90"/>
<path d="M645.7 631.4C645.8 631.9 646.2 633.2 647.4 633.9C647.7 634.1 648 634.2 648.3 634.2C648.4 634.2 648.5 634.2 648.6 634.2H652.2C652.3 634.2 652.3 634.2 652.4 634.3L663.6 642.6C663.9 642.8 664.2 642.9 664.5 642.9H670.9C671.1 642.9 671.3 642.9 671.5 642.8C672 642.6 673 642 673.6 640.9C673.8 640.5 674.3 639.2 673.6 637.7C673 636.3 671.7 635.8 671.2 635.7C671.1 635.7 670.9 635.6 670.7 635.6H666.9C666.8 635.6 666.8 635.6 666.7 635.5L665.3 634.4V630.7C665.3 630.5 665.2 629.6 664.5 629C664.4 628.9 663.6 628.3 662.6 628.5C661.9 628.7 661.4 629.1 661.1 629.8C661 629.9 661 630.1 660.9 630.3V630.4V631L655.5 627C655.2 626.8 654.9 626.7 654.6 626.7H648.9C648.7 626.7 648.6 626.7 648.4 626.8C647.9 627 647.2 627.3 646.7 627.9C646.5 628.3 645.3 629.6 645.7 631.4ZM647.5 628.9C647.9 628.5 648.4 628.2 648.7 628.1H648.8H654.5C654.6 628.1 654.6 628.1 654.7 628.2L665.9 636.6C666.2 636.8 666.5 636.9 666.8 636.9H670.6H670.7C671 637 671.9 637.4 672.3 638.3C672.8 639.3 672.4 640.3 672.3 640.5C671.9 641.3 671.2 641.7 670.9 641.8H670.8H664.4C664.3 641.8 664.3 641.8 664.2 641.7L653 633.4C652.7 633.2 652.4 633.1 652.1 633.1H648.5C648.5 633.1 648.5 633.1 648.4 633.1C648.2 633.1 648 633 647.8 632.9C647 632.5 646.8 631.6 646.7 631.2C646.6 629.9 647.5 629 647.5 628.9Z" fill="white"/>
<path d="M663 628.6C664.16 628.6 665.1 627.66 665.1 626.5C665.1 625.34 664.16 624.4 663 624.4C661.84 624.4 660.9 625.34 660.9 626.5C660.9 627.66 661.84 628.6 663 628.6Z" fill="white"/>
<path d="M899 447.6C910.764 447.6 920.3 438.064 920.3 426.3C920.3 414.536 910.764 405 899 405C887.236 405 877.7 414.536 877.7 426.3C877.7 438.064 887.236 447.6 899 447.6Z" fill="#1D3D90"/>
<path d="M899 445.2C899 445.2 899.2 445.5 899.5 445.9C899.7 446.1 899.8 446.4 900 446.7C900.1 446.9 900.2 447 900.3 447.2C900.4 447.4 900.3 447.6 900.3 447.7C900.3 449.2 900.3 451.3 900.3 453.3C900.3 455.3 900.3 457.4 900.3 458.9C900.3 459 900.3 459.1 900.3 459.2C900.3 459.3 900.3 459.4 900.3 459.5C900.2 459.7 900.1 459.8 900 460C899.8 460.3 899.6 460.6 899.5 460.8C899.2 461.2 899 461.5 899 461.5C899 461.5 898.8 461.2 898.5 460.8C898.4 460.6 898.2 460.3 898 460C897.9 459.8 897.8 459.7 897.7 459.5C897.6 459.4 897.6 459.3 897.7 459.2C897.7 459.1 897.7 459 897.7 458.9C897.7 457.4 897.7 455.3 897.7 453.3C897.7 451.3 897.7 449.2 897.7 447.7C897.7 447.5 897.6 447.3 897.7 447.2C897.8 447 897.9 446.9 898 446.7C898.2 446.4 898.4 446.1 898.5 445.9C898.7 445.5 899 445.2 899 445.2Z" fill="#1D3D90"/>
<path d="M885.9 424C886 424.5 886.4 425.8 887.6 426.5C887.9 426.7 888.2 426.8 888.5 426.8C888.6 426.8 888.7 426.8 888.8 426.8H892.4C892.5 426.8 892.5 426.8 892.6 426.9L903.8 435.2C904.1 435.4 904.4 435.5 904.7 435.5H911.1C911.3 435.5 911.5 435.5 911.7 435.4C912.2 435.2 913.2 434.6 913.8 433.5C914 433.1 914.5 431.8 913.8 430.3C913.2 428.9 911.9 428.4 911.4 428.3C911.3 428.3 911.1 428.2 910.9 428.2H907.1C907 428.2 907 428.2 906.9 428.1L905.5 427V423.3C905.5 423.1 905.4 422.2 904.7 421.6C904.6 421.5 903.8 420.9 902.8 421.1C902.1 421.3 901.6 421.7 901.3 422.4C901.2 422.5 901.2 422.7 901.1 422.9V423V423.6L895.7 419.6C895.4 419.4 895.1 419.3 894.8 419.3H889.1C888.9 419.3 888.8 419.3 888.6 419.4C888.1 419.6 887.4 419.9 886.9 420.5C886.7 420.8 885.5 422.2 885.9 424ZM887.7 421.5C888.1 421.1 888.6 420.8 888.9 420.7H889H894.7C894.8 420.7 894.8 420.7 894.9 420.8L906.1 429.2C906.4 429.4 906.7 429.5 907 429.5H910.8H910.9C911.2 429.6 912.1 430 912.5 430.9C913 431.9 912.6 432.9 912.5 433.1C912.1 433.9 911.4 434.3 911.1 434.4H911H904.6C904.5 434.4 904.5 434.4 904.4 434.3L893.2 426C892.9 425.8 892.6 425.7 892.3 425.7H888.7C888.7 425.7 888.7 425.7 888.6 425.7C888.4 425.7 888.2 425.6 888 425.5C887.2 425.1 887 424.2 886.9 423.8C886.8 422.5 887.7 421.5 887.7 421.5Z" fill="white"/>
<path d="M903.2 421.2C904.36 421.2 905.3 420.26 905.3 419.1C905.3 417.94 904.36 417 903.2 417C902.04 417 901.1 417.94 901.1 419.1C901.1 420.26 902.04 421.2 903.2 421.2Z" fill="white"/>
<path d="M1601.2 895.2L1613.5 922.2H1605.5L1595.2 898.4H1597.4L1587.1 922.2H1579.1L1591.4 895.2H1601.2ZM1586.8 917.1V911.1H1605.4V917.1H1586.8Z" fill="#1D3D90"/>
<path d="M1465 621.7V791.8H1596.8" stroke="#1D3D90" stroke-width="1.4635" stroke-linecap="round" stroke-linejoin="round"/>
<path d="M1465 627.2C1468.04 627.2 1470.5 624.738 1470.5 621.7C1470.5 618.662 1468.04 616.2 1465 616.2C1461.96 616.2 1459.5 618.662 1459.5 621.7C1459.5 624.738 1461.96 627.2 1465 627.2Z" fill="#1D3D90"/>
<path d="M666 738.2C677.764 738.2 687.3 728.664 687.3 716.9C687.3 705.136 677.764 695.6 666 695.6C654.236 695.6 644.7 705.136 644.7 716.9C644.7 728.664 654.236 738.2 666 738.2Z" fill="#1D3D90"/>
<path d="M666 735.8C666 735.8 666.2 736.1 666.5 736.5C666.7 736.7 666.8 737 667 737.3C667.1 737.5 667.2 737.6 667.3 737.8C667.4 738 667.3 738.2 667.3 738.3C667.3 739.8 667.3 741.9 667.3 743.9C667.3 745.9 667.3 748 667.3 749.5C667.3 749.6 667.3 749.7 667.3 749.8C667.3 749.9 667.3 750 667.3 750.1C667.2 750.3 667.1 750.4 667 750.6C666.8 750.9 666.6 751.2 666.5 751.4C666.2 751.8 666 752.1 666 752.1C666 752.1 665.8 751.8 665.5 751.4C665.4 751.2 665.2 750.9 665 750.6C664.9 750.4 664.8 750.3 664.7 750.1C664.6 750 664.6 749.9 664.7 749.8C664.7 749.7 664.7 749.6 664.7 749.5C664.7 748 664.7 745.9 664.7 743.9C664.7 741.9 664.7 739.8 664.7 738.3C664.7 738.1 664.6 737.9 664.7 737.8C664.8 737.6 664.9 737.5 665 737.3C665.2 737 665.4 736.7 665.5 736.5C665.8 736.1 666 735.8 666 735.8Z" fill="#1D3D90"/>
<path d="M675.3 712.6L656.8 712.4C656.1 712.4 655.5 713 655.5 713.7L655.4 727.7C655.4 728.4 656 729 656.7 729L675.2 729.2C675.9 729.2 676.5 728.6 676.5 727.9L676.6 713.9C676.6 713.2 676 712.6 675.3 712.6ZM656.8 713.7L675.3 713.8L675.2 727.8L656.7 727.6L656.8 713.7Z" fill="white"/>
<path d="M661.1 711.1C661.2 711.2 661.2 711.2 661.2 711.2C661.2 711.2 661.3 711.3 661.4 711.3C661.5 711.3 661.5 711.3 661.6 711.3C661.7 711.3 661.7 711.3 661.8 711.3C661.9 711.3 661.9 711.2 662 711.2C662 711.2 662 711.2 662.1 711.1L665.2 707.3C665.3 707.2 665.4 707 665.3 706.8C665.3 706.6 665.2 706.5 665.1 706.3C664.8 706.1 664.4 706.1 664.2 706.4L662.3 708.7L662.4 702.9C662.4 702.5 662.1 702.2 661.7 702.2C661.3 702.2 661 702.5 661 702.9L660.9 708.8L659.1 706.7C659 706.6 658.8 706.5 658.6 706.5C658.4 706.5 658.2 706.5 658.1 706.7C658 706.8 657.9 707 657.9 707.2C657.9 707.4 657.9 707.6 658.1 707.7L661.1 711.1Z" fill="white"/>
<path d="M667.8 707.1C668 707.1 668.2 707 668.3 706.9L670.1 704.9L670 710.8C670 711.2 670.3 711.5 670.7 711.5C671.1 711.5 671.4 711.2 671.4 710.8L671.5 705L673.4 707.4C673.6 707.7 674 707.7 674.3 707.5C674.6 707.3 674.6 706.9 674.4 706.6L671.4 702.7C671.4 702.7 671.4 702.6 671.3 702.6C671.3 702.6 671.3 702.6 671.2 702.6C671.1 702.6 671.1 702.5 671 702.5C670.9 702.5 670.9 702.5 670.8 702.5C670.7 702.5 670.7 702.5 670.6 702.5C670.5 702.5 670.5 702.5 670.4 702.6L670.3 702.7L667.3 706.1C667.1 706.4 667.1 706.8 667.4 707C667.5 707 667.7 707.1 667.8 707.1Z" fill="white"/>
<path d="M660.7 717C661.252 717 661.7 716.552 661.7 716C661.7 715.448 661.252 715 660.7 715C660.148 715 659.7 715.448 659.7 716C659.7 716.552 660.148 717 660.7 717Z" fill="white"/>
<path d="M671.3 717.1C671.852 717.1 672.3 716.652 672.3 716.1C672.3 715.548 671.852 715.1 671.3 715.1C670.748 715.1 670.3 715.548 670.3 716.1C670.3 716.652 670.748 717.1 671.3 717.1Z" fill="white"/>
<path d="M666 717C666.552 717 667 716.552 667 716C667 715.448 666.552 715 666 715C665.448 715 665 715.448 665 716C665 716.552 665.448 717 666 717Z" fill="white"/>
<path d="M659.2 722.4H659.3V726.2C659.3 726.5 659.6 726.8 659.9 726.8C660.1 726.8 660.3 726.7 660.4 726.6C660.5 726.5 660.6 726.3 660.6 726.1V722.4H660.8V726.2C660.8 726.5 661.1 726.8 661.4 726.8C661.6 726.8 661.8 726.7 661.9 726.6C662 726.5 662.1 726.3 662.1 726.1V722.4C662.5 722.4 662.8 722.1 662.8 721.7V718.9C662.8 717.9 662 717.1 661 717.1H660.3C659.3 717.1 658.5 717.9 658.5 718.9V721.7C658.5 722.1 658.8 722.4 659.2 722.4Z" fill="white"/>
<path d="M664.5 722.5H664.6V726.3C664.6 726.6 664.9 726.9 665.2 726.9C665.4 726.9 665.6 726.8 665.7 726.7C665.8 726.6 665.9 726.4 665.9 726.2V722.5H666.1V726.3C666.1 726.6 666.4 726.9 666.7 726.9C666.9 726.9 667.1 726.8 667.2 726.7C667.3 726.6 667.4 726.4 667.4 726.2V722.5C667.8 722.5 668.1 722.2 668.1 721.8V719C668.1 718 667.3 717.2 666.3 717.2H665.6C664.6 717.2 663.8 718 663.8 719V721.8C663.8 722.1 664.1 722.5 664.5 722.5Z" fill="white"/>
<path d="M669.8 722.5V726.4C669.8 726.7 670.1 727 670.4 727C670.6 727 670.8 726.9 670.9 726.8C671 726.7 671.1 726.5 671.1 726.3V722.5H671.3V726.4C671.3 726.7 671.6 727 671.9 727C672.1 727 672.3 726.9 672.4 726.8C672.5 726.7 672.6 726.5 672.6 726.3V722.5C673 722.5 673.3 722.2 673.3 721.8V719C673.3 718 672.5 717.2 671.5 717.2H670.8C669.8 717.2 669 718 669 719V721.8C669.1 722.2 669.4 722.5 669.8 722.5Z" fill="white"/>
<path d="M1172.4 499.2C1184.16 499.2 1193.7 489.664 1193.7 477.9C1193.7 466.136 1184.16 456.6 1172.4 456.6C1160.64 456.6 1151.1 466.136 1151.1 477.9C1151.1 489.664 1160.64 499.2 1172.4 499.2Z" fill="#1D3D90"/>
<path d="M1172.4 496.8C1172.4 496.8 1172.6 497.1 1172.9 497.5C1173.1 497.7 1173.2 498 1173.4 498.3C1173.5 498.5 1173.6 498.6 1173.7 498.8C1173.8 499 1173.7 499.2 1173.7 499.3C1173.7 500.8 1173.7 502.9 1173.7 504.9C1173.7 506.9 1173.7 509 1173.7 510.5C1173.7 510.6 1173.7 510.7 1173.7 510.8C1173.7 510.9 1173.7 511 1173.7 511.1C1173.6 511.3 1173.5 511.4 1173.4 511.6C1173.2 511.9 1173 512.2 1172.9 512.4C1172.6 512.8 1172.4 513.1 1172.4 513.1C1172.4 513.1 1172.2 512.8 1171.9 512.4C1171.8 512.2 1171.6 511.9 1171.4 511.6C1171.3 511.4 1171.2 511.3 1171.1 511.1C1171 511 1171 510.9 1171.1 510.8C1171.1 510.7 1171.1 510.6 1171.1 510.5C1171.1 509 1171.1 506.9 1171.1 504.9C1171.1 502.9 1171.1 500.8 1171.1 499.3C1171.1 499.1 1171 498.9 1171.1 498.8C1171.2 498.6 1171.3 498.5 1171.4 498.3C1171.6 498 1171.8 497.7 1171.9 497.5C1172.2 497.1 1172.4 496.8 1172.4 496.8Z" fill="#1D3D90"/>
<path d="M1181.7 473.6L1163.2 473.4C1162.5 473.4 1161.9 474 1161.9 474.7L1161.8 488.7C1161.8 489.4 1162.4 490 1163.1 490L1181.6 490.2C1182.3 490.2 1182.9 489.6 1182.9 488.9L1183 474.9C1183 474.2 1182.4 473.6 1181.7 473.6ZM1163.1 474.7L1181.6 474.8L1181.5 488.8L1163 488.6L1163.1 474.7Z" fill="white"/>
<path d="M1167.4 472C1167.5 472.1 1167.4 472.1 1167.4 472C1167.5 472.1 1167.5 472.1 1167.5 472.1C1167.5 472.1 1167.6 472.2 1167.7 472.2C1167.8 472.2 1167.8 472.2 1167.9 472.2C1168 472.2 1168 472.2 1168.1 472.2C1168.2 472.2 1168.2 472.1 1168.3 472.1C1168.3 472.1 1168.3 472.1 1168.4 472L1171.5 468.2C1171.6 468.1 1171.7 467.9 1171.6 467.7C1171.6 467.5 1171.5 467.4 1171.4 467.2C1171.1 467 1170.7 467 1170.5 467.3L1168.6 469.6L1168.7 463.8C1168.7 463.4 1168.4 463.1 1168 463.1C1167.6 463.1 1167.3 463.4 1167.3 463.8L1167.2 469.7L1165.4 467.6C1165.3 467.5 1165.1 467.4 1164.9 467.4C1164.7 467.4 1164.5 467.4 1164.4 467.6C1164.3 467.7 1164.2 467.9 1164.2 468.1C1164.2 468.3 1164.2 468.5 1164.4 468.6L1167.4 472Z" fill="white"/>
<path d="M1174.2 468C1174.4 468 1174.6 467.9 1174.7 467.8L1176.5 465.8L1176.4 471.7C1176.4 472.1 1176.7 472.4 1177.1 472.4C1177.5 472.4 1177.8 472.1 1177.8 471.7L1177.9 465.9L1179.8 468.3C1180 468.6 1180.4 468.6 1180.7 468.4C1181 468.2 1181 467.8 1180.8 467.5L1177.8 463.6C1177.8 463.6 1177.8 463.5 1177.7 463.5C1177.7 463.5 1177.7 463.5 1177.6 463.5C1177.5 463.5 1177.5 463.4 1177.4 463.4C1177.3 463.4 1177.3 463.4 1177.2 463.4C1177.1 463.4 1177.1 463.4 1177 463.4C1176.9 463.4 1176.9 463.4 1176.8 463.5L1176.7 463.6L1173.7 467C1173.5 467.3 1173.5 467.7 1173.8 467.9C1173.9 468 1174 468 1174.2 468Z" fill="white"/>
<path d="M1167 478C1167.55 478 1168 477.552 1168 477C1168 476.448 1167.55 476 1167 476C1166.45 476 1166 476.448 1166 477C1166 477.552 1166.45 478 1167 478Z" fill="white"/>
<path d="M1177.7 478.1C1178.25 478.1 1178.7 477.652 1178.7 477.1C1178.7 476.548 1178.25 476.1 1177.7 476.1C1177.15 476.1 1176.7 476.548 1176.7 477.1C1176.7 477.652 1177.15 478.1 1177.7 478.1Z" fill="white"/>
<path d="M1172.4 478C1172.95 478 1173.4 477.552 1173.4 477C1173.4 476.448 1172.95 476 1172.4 476C1171.85 476 1171.4 476.448 1171.4 477C1171.4 477.552 1171.85 478 1172.4 478Z" fill="white"/>
<path d="M1165.5 483.4H1165.6V487.2C1165.6 487.5 1165.9 487.8 1166.2 487.8C1166.4 487.8 1166.6 487.7 1166.7 487.6C1166.8 487.5 1166.9 487.3 1166.9 487.1V483.4H1167.1V487.2C1167.1 487.5 1167.4 487.8 1167.7 487.8C1167.9 487.8 1168.1 487.7 1168.2 487.6C1168.3 487.5 1168.4 487.3 1168.4 487.1V483.4C1168.8 483.4 1169.1 483.1 1169.1 482.7V479.9C1169.1 478.9 1168.3 478.1 1167.3 478.1H1166.6C1165.6 478.1 1164.8 478.9 1164.8 479.9V482.7C1164.8 483.1 1165.2 483.4 1165.5 483.4Z" fill="white"/>
<path d="M1170.9 483.5H1171V487.3C1171 487.6 1171.3 487.9 1171.6 487.9C1171.8 487.9 1172 487.8 1172.1 487.7C1172.2 487.6 1172.3 487.4 1172.3 487.2V483.5H1172.5V487.3C1172.5 487.6 1172.8 487.9 1173.1 487.9C1173.3 487.9 1173.5 487.8 1173.6 487.7C1173.7 487.6 1173.8 487.4 1173.8 487.2V483.5C1174.2 483.5 1174.5 483.2 1174.5 482.8V480C1174.5 479 1173.7 478.2 1172.7 478.2H1172C1171 478.2 1170.2 479 1170.2 480V482.8C1170.2 483.1 1170.5 483.5 1170.9 483.5Z" fill="white"/>
<path d="M1176.1 483.5V487.4C1176.1 487.7 1176.4 488 1176.7 488C1176.9 488 1177.1 487.9 1177.2 487.8C1177.3 487.7 1177.4 487.5 1177.4 487.3V483.5H1177.6V487.4C1177.6 487.7 1177.9 488 1178.2 488C1178.4 488 1178.6 487.9 1178.7 487.8C1178.8 487.7 1178.9 487.5 1178.9 487.3V483.5C1179.3 483.5 1179.6 483.2 1179.6 482.8V480C1179.6 479 1178.8 478.2 1177.8 478.2H1177.1C1176.1 478.2 1175.3 479 1175.3 480V482.8C1175.5 483.2 1175.8 483.5 1176.1 483.5Z" fill="white"/>
<path d="M1369.8 667.6C1381.56 667.6 1391.1 658.064 1391.1 646.3C1391.1 634.536 1381.56 625 1369.8 625C1358.04 625 1348.5 634.536 1348.5 646.3C1348.5 658.064 1358.04 667.6 1369.8 667.6Z" fill="#1D3D90"/>
<path d="M1369.8 665.3C1369.8 665.3 1370 665.6 1370.3 666C1370.5 666.2 1370.6 666.5 1370.8 666.8C1370.9 667 1371 667.1 1371.1 667.3C1371.2 667.5 1371.1 667.7 1371.1 667.8C1371.1 669.3 1371.1 671.4 1371.1 673.4C1371.1 675.4 1371.1 677.5 1371.1 679C1371.1 679.1 1371.1 679.2 1371.1 679.3C1371.1 679.4 1371.1 679.5 1371.1 679.6C1371 679.8 1370.9 679.9 1370.8 680.1C1370.6 680.4 1370.4 680.7 1370.3 680.9C1370 681.3 1369.8 681.6 1369.8 681.6C1369.8 681.6 1369.6 681.3 1369.3 680.9C1369.2 680.7 1369 680.4 1368.8 680.1C1368.7 679.9 1368.6 679.8 1368.5 679.6C1368.4 679.5 1368.4 679.4 1368.5 679.3C1368.5 679.2 1368.5 679.1 1368.5 679C1368.5 677.5 1368.5 675.4 1368.5 673.4C1368.5 671.4 1368.5 669.3 1368.5 667.8C1368.5 667.6 1368.4 667.4 1368.5 667.3C1368.6 667.1 1368.7 667 1368.8 666.8C1369 666.5 1369.2 666.2 1369.3 666C1369.6 665.5 1369.8 665.3 1369.8 665.3Z" fill="#1D3D90"/>
<path d="M1363 639.2C1363.99 639.2 1364.8 638.394 1364.8 637.4C1364.8 636.406 1363.99 635.6 1363 635.6C1362.01 635.6 1361.2 636.406 1361.2 637.4C1361.2 638.394 1362.01 639.2 1363 639.2Z" fill="white"/>
<path d="M1365.4 639.9H1360.7C1359.9 639.9 1359.2 640.6 1359.2 641.4V648.9C1359.2 649.2 1359.5 649.5 1359.8 649.5H1360.7V655.5C1360.7 656 1361.1 656.4 1361.6 656.4C1361.6 656.4 1361.6 656.4 1361.7 656.4C1362 656.4 1362.3 656.3 1362.4 656.1C1362.6 655.9 1362.7 655.6 1362.7 655.3V649.5H1363.6V655.5C1363.6 656 1364 656.4 1364.5 656.4C1364.5 656.4 1364.5 656.4 1364.6 656.4C1364.9 656.4 1365.2 656.3 1365.3 656.1C1365.5 655.9 1365.6 655.6 1365.6 655.3V649.5H1366.4C1366.7 649.5 1367 649.2 1367 648.9V641.4C1366.9 640.6 1366.2 639.9 1365.4 639.9Z" fill="white"/>
<path d="M1376.5 638.9C1377.49 638.9 1378.3 638.094 1378.3 637.1C1378.3 636.106 1377.49 635.3 1376.5 635.3C1375.51 635.3 1374.7 636.106 1374.7 637.1C1374.7 638.094 1375.51 638.9 1376.5 638.9Z" fill="white"/>
<path d="M1381.4 648.5L1379.6 640.5C1379.4 639.6 1378.8 639.5 1378.1 639.5H1374.7C1373.9 639.5 1373.2 640.2 1373.2 640.9L1371.8 648.5C1371.8 648.8 1372.1 649.1 1372.4 649.1H1374.1V655.1C1374.1 655.6 1374.5 656 1375 656C1375 656 1375 656 1375.1 656C1375.4 656 1375.7 655.9 1375.8 655.7C1376 655.5 1376.1 655.2 1376.1 654.9V649.1H1377V655.1C1377 655.6 1377.4 656 1377.9 656C1377.9 656 1377.9 656 1378 656C1378.3 656 1378.6 655.9 1378.7 655.7C1378.9 655.5 1379 655.2 1379 654.9V649.1H1380.9C1381.2 649.1 1381.4 648.8 1381.4 648.5Z" fill="white"/>
<path d="M1369.8 633.5C1369.5 633.5 1369.2 633.8 1369.2 634.1V657.5C1369.2 657.8 1369.5 658.1 1369.8 658.1C1370.1 658.1 1370.4 657.8 1370.4 657.5V634.1C1370.3 633.8 1370.1 633.5 1369.8 633.5Z" fill="white"/>
<path d="M853.2 808.4C864.964 808.4 874.5 798.864 874.5 787.1C874.5 775.336 864.964 765.8 853.2 765.8C841.436 765.8 831.9 775.336 831.9 787.1C831.9 798.864 841.436 808.4 853.2 808.4Z" fill="#1D3D90"/>
<path d="M853.2 806.1C853.2 806.1 853.4 806.4 853.7 806.8C853.9 807 854 807.3 854.2 807.6C854.3 807.8 854.4 807.9 854.5 808.1C854.6 808.3 854.5 808.5 854.5 808.6C854.5 810.1 854.5 812.2 854.5 814.2C854.5 816.2 854.5 818.3 854.5 819.8C854.5 819.9 854.5 820 854.5 820.1C854.5 820.2 854.5 820.3 854.5 820.4C854.4 820.6 854.3 820.7 854.2 820.9C854 821.2 853.8 821.5 853.7 821.7C853.4 822.1 853.2 822.4 853.2 822.4C853.2 822.4 853 822.1 852.7 821.7C852.6 821.5 852.4 821.2 852.2 820.9C852.1 820.7 852 820.6 851.9 820.4C851.8 820.3 851.8 820.2 851.9 820.1C851.9 820 851.9 819.9 851.9 819.8C851.9 818.3 851.9 816.2 851.9 814.2C851.9 812.2 851.9 810.1 851.9 808.6C851.9 808.4 851.8 808.2 851.9 808.1C852 807.9 852.1 807.8 852.2 807.6C852.4 807.3 852.6 807 852.7 806.8C853 806.3 853.2 806.1 853.2 806.1Z" fill="#1D3D90"/>
<path d="M846.4 780C847.394 780 848.2 779.194 848.2 778.2C848.2 777.206 847.394 776.4 846.4 776.4C845.406 776.4 844.6 777.206 844.6 778.2C844.6 779.194 845.406 780 846.4 780Z" fill="white"/>
<path d="M848.8 780.7H844.1C843.3 780.7 842.6 781.4 842.6 782.2V789.7C842.6 790 842.9 790.3 843.2 790.3H844.1V796.3C844.1 796.8 844.5 797.2 845 797.2C845 797.2 845 797.2 845.1 797.2C845.4 797.2 845.7 797.1 845.8 796.9C846 796.7 846.1 796.4 846.1 796.1V790.3H847V796.3C847 796.8 847.4 797.2 847.9 797.2C847.9 797.2 847.9 797.2 848 797.2C848.3 797.2 848.6 797.1 848.7 796.9C848.9 796.7 849 796.4 849 796.1V790.3H849.8C850.1 790.3 850.4 790 850.4 789.7V782.2C850.3 781.4 849.6 780.7 848.8 780.7Z" fill="white"/>
<path d="M859.9 779.7C860.894 779.7 861.7 778.894 861.7 777.9C861.7 776.906 860.894 776.1 859.9 776.1C858.906 776.1 858.1 776.906 858.1 777.9C858.1 778.894 858.906 779.7 859.9 779.7Z" fill="white"/>
<path d="M864.8 789.3L863 781.3C862.8 780.4 862.2 780.3 861.5 780.3H858.1C857.3 780.3 856.6 781 856.6 781.7L855.2 789.3C855.2 789.6 855.5 789.9 855.8 789.9H857.5V795.9C857.5 796.4 857.9 796.8 858.4 796.8C858.4 796.8 858.4 796.8 858.5 796.8C858.8 796.8 859.1 796.7 859.2 796.5C859.4 796.3 859.5 796 859.5 795.7V789.9H860.4V795.9C860.4 796.4 860.8 796.8 861.3 796.8C861.3 796.8 861.3 796.8 861.4 796.8C861.7 796.8 862 796.7 862.1 796.5C862.3 796.3 862.4 796 862.4 795.7V789.9H864.3C864.6 789.9 864.8 789.7 864.8 789.3Z" fill="white"/>
<path d="M853.2 774.4C852.9 774.4 852.6 774.7 852.6 775V798.4C852.6 798.7 852.9 799 853.2 799C853.5 799 853.8 798.7 853.8 798.4V775C853.7 774.6 853.5 774.4 853.2 774.4Z" fill="white"/>
<path d="M586 572.5C597.764 572.5 607.3 562.964 607.3 551.2C607.3 539.436 597.764 529.9 586 529.9C574.236 529.9 564.7 539.436 564.7 551.2C564.7 562.964 574.236 572.5 586 572.5Z" fill="#1D3D90"/>
<path d="M586 570.1C586 570.1 586.2 570.4 586.5 570.8C586.7 571 586.8 571.3 587 571.6C587.1 571.8 587.2 571.9 587.3 572.1C587.4 572.3 587.3 572.5 587.3 572.6C587.3 574.1 587.3 576.2 587.3 578.2C587.3 580.2 587.3 582.3 587.3 583.8C587.3 583.9 587.3 584 587.3 584.1C587.3 584.2 587.3 584.3 587.3 584.4C587.2 584.6 587.1 584.7 587 584.9C586.8 585.2 586.6 585.5 586.5 585.7C586.2 586.1 586 586.4 586 586.4C586 586.4 585.8 586.1 585.5 585.7C585.4 585.5 585.2 585.2 585 584.9C584.9 584.7 584.8 584.6 584.7 584.4C584.6 584.3 584.6 584.2 584.7 584.1C584.7 584 584.7 583.9 584.7 583.8C584.7 582.3 584.7 580.2 584.7 578.2C584.7 576.2 584.7 574.1 584.7 572.6C584.7 572.4 584.6 572.2 584.7 572.1C584.8 571.9 584.9 571.8 585 571.6C585.2 571.3 585.4 571 585.5 570.8C585.7 570.3 586 570.1 586 570.1Z" fill="#1D3D90"/>
<path d="M579.2 544.1C580.194 544.1 581 543.294 581 542.3C581 541.306 580.194 540.5 579.2 540.5C578.206 540.5 577.4 541.306 577.4 542.3C577.4 543.294 578.206 544.1 579.2 544.1Z" fill="white"/>
<path d="M581.5 544.7H576.8C576 544.7 575.3 545.4 575.3 546.2V553.7C575.3 554 575.6 554.3 575.9 554.3H576.8V560.3C576.8 560.8 577.2 561.2 577.7 561.2C577.7 561.2 577.7 561.2 577.8 561.2C578.1 561.2 578.4 561.1 578.5 560.9C578.7 560.7 578.8 560.4 578.8 560.1V554.3H579.7V560.3C579.7 560.8 580.1 561.2 580.6 561.2C580.6 561.2 580.6 561.2 580.7 561.2C581 561.2 581.3 561.1 581.4 560.9C581.6 560.7 581.7 560.4 581.7 560.1V554.3H582.5C582.8 554.3 583.1 554 583.1 553.7V546.2C583 545.4 582.4 544.7 581.5 544.7Z" fill="white"/>
<path d="M592.7 543.7C593.694 543.7 594.5 542.894 594.5 541.9C594.5 540.906 593.694 540.1 592.7 540.1C591.706 540.1 590.9 540.906 590.9 541.9C590.9 542.894 591.706 543.7 592.7 543.7Z" fill="white"/>
<path d="M597.6 553.3L595.8 545.3C595.6 544.4 595 544.3 594.3 544.3H590.9C590.1 544.3 589.4 545 589.4 545.7L588 553.3C588 553.6 588.3 553.9 588.6 553.9H590.3V559.9C590.3 560.4 590.7 560.8 591.2 560.8C591.2 560.8 591.2 560.8 591.3 560.8C591.6 560.8 591.9 560.7 592 560.5C592.2 560.3 592.3 560 592.3 559.7V553.9H593.2V559.9C593.2 560.4 593.6 560.8 594.1 560.8C594.1 560.8 594.1 560.8 594.2 560.8C594.5 560.8 594.8 560.7 594.9 560.5C595.1 560.3 595.2 560 595.2 559.7V553.9H597.1C597.3 553.9 597.6 553.7 597.6 553.3Z" fill="white"/>
<path d="M585.9 538.4C585.6 538.4 585.3 538.7 585.3 539V562.4C585.3 562.7 585.6 563 585.9 563C586.2 563 586.5 562.7 586.5 562.4V539C586.5 538.6 586.2 538.4 585.9 538.4Z" fill="white"/>
<path d="M1821.5 762.4H1564.5V818.7H1821.5V762.4Z" fill="#3387FF"/>
<path d="M1602.9 796.3C1601 796.3 1599.3 796 1597.9 795.5C1596.5 795 1595.4 794.2 1594.6 793.2C1593.8 792.2 1593.4 791.1 1593.3 789.8H1598.3C1598.4 790.7 1598.9 791.3 1599.6 791.8C1600.4 792.3 1601.5 792.5 1602.9 792.5C1604.2 792.5 1605.3 792.3 1606 792C1606.7 791.6 1607.1 791.1 1607.1 790.4C1607.1 789.8 1606.8 789.3 1606.2 789C1605.6 788.7 1604.6 788.6 1603.2 788.6H1599.9V785.3H1603.1C1603.9 785.3 1604.6 785.2 1605.1 785.1C1605.6 784.9 1606 784.7 1606.3 784.4C1606.6 784.1 1606.7 783.8 1606.7 783.4C1606.7 783 1606.6 782.6 1606.3 782.3C1606 782 1605.6 781.8 1605 781.6C1604.4 781.4 1603.8 781.4 1603 781.4C1601.7 781.4 1600.7 781.6 1600 782.1C1599.3 782.5 1598.8 783.2 1598.7 784H1593.8C1593.9 782.8 1594.3 781.7 1595.1 780.8C1595.9 779.9 1596.9 779.1 1598.3 778.5C1599.7 777.9 1601.4 777.6 1603.4 777.6C1605.1 777.6 1606.6 777.8 1607.9 778.2C1609.2 778.6 1610.2 779.2 1610.9 780C1611.6 780.8 1612 781.6 1612 782.7C1612 783.5 1611.8 784.3 1611.3 784.9C1610.8 785.6 1610 786.1 1609 786.5C1608 786.9 1606.6 787.1 1604.9 787.1V786.6C1606.5 786.5 1607.8 786.6 1608.9 786.9C1610 787.2 1610.9 787.7 1611.5 788.3C1612.1 788.9 1612.4 789.8 1612.4 790.8C1612.4 791.9 1612 792.9 1611.3 793.7C1610.6 794.5 1609.5 795.2 1608.2 795.7C1606.5 796.1 1604.9 796.3 1602.9 796.3Z" fill="white"/>
<path d="M1627.8 789.1C1627.6 790.5 1627.1 791.8 1626.5 792.9C1625.9 794 1625 794.8 1624 795.4C1623 796 1621.8 796.3 1620.5 796.3C1619.2 796.3 1618 796 1617 795.4C1616 794.8 1615.2 794 1614.6 792.9C1614 791.8 1613.7 790.5 1613.7 789.1C1613.7 787.6 1614 786.4 1614.6 785.3C1615.2 784.2 1616 783.4 1617 782.8C1618 782.2 1619.2 781.9 1620.5 781.9C1621.8 781.9 1623 782.2 1624 782.8C1625 783.4 1625.9 784.2 1626.5 785.3C1627.1 786.4 1627.6 787.6 1627.8 789.1ZM1618.7 789.1C1618.7 789.8 1618.8 790.4 1619.1 790.9C1619.4 791.4 1619.8 791.8 1620.3 792.1C1620.8 792.4 1621.4 792.5 1622 792.5C1622.7 792.5 1623.3 792.4 1623.9 792.1C1624.5 791.8 1625 791.4 1625.5 790.9C1626 790.4 1626.3 789.8 1626.5 789.1C1626.3 788.4 1625.9 787.8 1625.5 787.3C1625.1 786.8 1624.5 786.4 1623.9 786.1C1623.3 785.8 1622.7 785.6 1622 785.6C1621.4 785.6 1620.8 785.8 1620.3 786.1C1619.8 786.4 1619.4 786.8 1619.1 787.3C1618.8 787.8 1618.7 788.4 1618.7 789.1ZM1626.7 796L1626.1 791.1L1626.7 789.2L1626.1 787.3L1626.7 782.3H1631.8L1630.9 789.1L1631.8 796H1626.7Z" fill="white"/>
<path d="M1636.5 782.3H1651.4V796H1646.5V783.7L1648.8 786H1639L1641.1 784.1C1641.2 785 1641.3 785.9 1641.3 786.7C1641.3 787.5 1641.4 788.2 1641.4 788.8C1641.4 791.5 1641 793.4 1640.2 794.6C1639.4 795.8 1638 796.4 1636.2 796.4C1635.7 796.4 1635.1 796.3 1634.7 796.2C1634.2 796.1 1633.7 795.9 1633.3 795.6V792.1C1633.6 792.2 1633.9 792.3 1634.2 792.4C1634.5 792.5 1634.7 792.5 1635 792.5C1635.8 792.5 1636.3 792.2 1636.7 791.5C1637 790.8 1637.2 789.7 1637.2 788.1C1637.2 787.3 1637.2 786.5 1637.1 785.5C1637 784.5 1636.6 783.4 1636.5 782.3Z" fill="white"/>
<path d="M1663.1 782.8H1668.1L1664.1 789.1V788L1668.1 794.3H1663.1L1659.6 788.6L1663.1 782.8ZM1670.3 782.8H1675.3L1671.3 789.1V788L1675.3 794.3H1670.3L1666.8 788.6L1670.3 782.8Z" fill="white"/>
<path d="M1697.9 788.4C1697.7 790 1697.2 791.4 1696.3 792.6C1695.4 793.8 1694.2 794.7 1692.7 795.4C1691.2 796.1 1689.5 796.4 1687.6 796.4C1685.5 796.4 1683.7 796 1682.1 795.2C1680.5 794.4 1679.3 793.3 1678.4 791.9C1677.5 790.5 1677.1 788.9 1677.1 787C1677.1 785.1 1677.5 783.5 1678.4 782.1C1679.3 780.7 1680.5 779.6 1682.1 778.8C1683.7 778 1685.5 777.6 1687.6 777.6C1689.5 777.6 1691.2 777.9 1692.7 778.6C1694.2 779.3 1695.4 780.2 1696.3 781.4C1697.2 782.6 1697.8 784 1697.9 785.6H1692.9C1692.7 784.8 1692.4 784.2 1692 783.6C1691.5 783.1 1690.9 782.7 1690.2 782.4C1689.5 782.1 1688.6 782 1687.6 782C1686.5 782 1685.5 782.2 1684.7 782.6C1683.9 783 1683.3 783.6 1682.8 784.4C1682.3 785.2 1682.2 786.1 1682.2 787.1C1682.2 788.1 1682.4 789.1 1682.8 789.8C1683.2 790.6 1683.9 791.1 1684.7 791.6C1685.5 792 1686.5 792.2 1687.6 792.2C1688.6 792.2 1689.4 792.1 1690.2 791.8C1690.9 791.5 1691.5 791.1 1692 790.6C1692.5 790.1 1692.8 789.4 1692.9 788.6H1697.9V788.4Z" fill="white"/>
<path d="M1699.9 796V782.3H1704.7V793.3L1703.6 793L1710.8 782.3H1717.1V796H1712.3V784.6L1713.4 785L1706 796H1699.9Z" fill="white"/>
<path d="M1719.9 782.3H1724.8V796H1719.9V782.3ZM1722.7 787.1H1733.1V790.7H1722.7V787.1ZM1731.2 782.3H1736.1V796H1731.2V782.3Z" fill="white"/>
<path d="M1738.8 796V782.3H1743.6V793.3L1742.5 793L1749.7 782.3H1756V796H1751.2V784.6L1752.3 785L1744.9 796H1738.8Z" fill="white"/>
<path d="M1758.8 796V782.3H1763.6V793.3L1762.5 793L1769.7 782.3H1776V796H1771.2V784.6L1772.3 785L1764.9 796H1758.8ZM1767.3 781.1C1765.6 781.1 1764.3 780.7 1763.3 779.9C1762.3 779.1 1761.7 777.9 1761.4 776.4H1765.1C1765.2 777 1765.5 777.5 1765.8 777.8C1766.1 778.1 1766.6 778.3 1767.2 778.3C1767.8 778.3 1768.2 778.1 1768.6 777.8C1769 777.5 1769.2 777 1769.3 776.4H1773.1C1772.9 777.9 1772.2 779.1 1771.2 779.9C1770.3 780.7 1769 781.1 1767.3 781.1Z" fill="white"/>
<path d="M1783.4 782.8L1787 788.6L1783.4 794.3H1778.4L1782.4 788V789.1L1778.4 782.8H1783.4ZM1790.5 782.8L1794 788.6L1790.5 794.3H1785.5L1789.5 788V789.1L1785.5 782.8H1790.5Z" fill="white"/>
<path d="M1581.2 785.7C1575.3 785.7 1570.5 780.9 1570.5 775V774.4H1558.4V775C1558.4 780.9 1553.6 785.7 1547.7 785.7H1547.1V797.8H1547.7C1553.6 797.8 1558.4 802.6 1558.4 808.5V809.1H1570.5V808.5C1570.5 802.6 1575.3 797.8 1581.2 797.8H1581.8V785.7H1581.2Z" fill="#1D3D90"/>
<path d="M1581.2 791.8C1571.9 791.8 1564.4 799.3 1564.4 808.6C1564.4 799.3 1556.9 791.8 1547.6 791.8C1556.9 791.8 1564.4 784.3 1564.4 775C1564.5 784.3 1572 791.8 1581.2 791.8Z" fill="white"/>
</svg>
