<svg width="1920" height="1080" viewBox="0 0 1920 1080" fill="none" xmlns="http://www.w3.org/2000/svg">
<path d="M1542.4 929L1546.8 923.6L1503.5 911.7L1460.1 900.3L1416.5 889.2L1372.6 878.3L1328.5 867.7L1284.8 857.6V857.3L1343.8 726.3C1455.5 743.7 1576.8 722.1 1652.1 668.9C1738.9 607.5 1741.8 519.7 1659 456.5V456.4C1643 444.6 1626 434 1608.8 424L1422.3 316.3C1416.3 319.8 1410.2 323.3 1404.2 326.8L1360 352.4C1353.3 354.1 1183.1 456 1183 461.6C1109.8 522.3 1126.6 577.6 1133.1 597L702.4 692.3L615.3 641.6L935.5 456.8L906.8 433.5L946.5 405.2L673.5 246.4L160 539.9L458.7 712.5L511.7 682L594.4 729.6L588.9 748.4L514.3 742.4L491.7 829.5L529.3 832.4L566.9 835.8L604.3 839.2L641.7 843.1L678.9 847.1L716 851.5L753.1 856.2L790.2 861.1L827.1 866.3L863.8 871.7L900.4 877.4L936.8 883.4L960.6 833.4L1004.7 842L1042.8 849.2L1085.1 857.1L1084.9 857.7C1083.8 863.1 1089.3 868.2 1098.1 869.9C1106.8 871.6 1116.4 869.2 1120.5 864.5L1121.3 863.7L1127 864.8L1144.2 868.2L1141.2 893L1125.7 918.7L1162.3 925.9L1198.5 933.3L1234.7 941.2L1270.8 949.3L1306.5 957.7L1342.1 966.4L1377.5 975.3L1412.7 984.5L1447.6 993.9L1482.3 1003.6L1529.6 945.4L1542.4 929Z" fill="#ADCFFF"/>
<path d="M1542.6 899.3L1547 893.9L1503.7 882L1460.3 870.6L1416.7 859.5L1372.8 848.6L1328.7 838L1285 827.9V827.6L1344 696.6C1455.7 714 1577 692.4 1652.3 639.2C1739.1 577.8 1742 490 1659.2 426.8V426.7C1643.2 414.9 1626.2 404.3 1609 394.3L1422.5 286.6C1416.5 290.1 1410.4 293.6 1404.4 297.1L1360.2 322.7C1353.5 324.4 1183.3 426.3 1183.2 431.9C1110 492.6 1126.8 547.9 1133.3 567.3L697.5 663.2L638.3 629L961.4 443.3L929.2 423.5L979.9 394.8L673.3 216.7L160.2 510.2L458.9 682.8L511.9 652.3L594.6 699.9L589.1 718.7L514.5 712.7L491.9 799.8L529.5 802.7L567.1 806.1L604.5 809.5L641.9 813.4L679.1 817.4L716.2 821.8L753.3 826.5L790.4 831.4L827.3 836.6L864 842L900.6 847.7L937 853.7L950.1 827L994.2 835.6L1032.3 842.8L1074.6 850.7L1074.4 851.3C1073.3 856.7 1078.8 861.8 1087.6 863.5C1096.3 865.2 1105.9 862.8 1110 858.1L1110.8 857.3L1116.5 858.4L1133.7 861.8L1141.4 863.3L1125.9 889L1162.5 896.2L1198.7 903.6L1234.9 911.5L1271 919.6L1306.7 928L1342.3 936.7L1377.7 945.6L1412.9 954.8L1447.8 964.2L1482.5 973.9L1529.8 915.7L1542.6 899.3Z" fill="white"/>
<path d="M1284.6 828.8L1249.4 821.4L1214.7 814.2" stroke="#0086CD" stroke-width="4.8467" stroke-miterlimit="10" stroke-linecap="round" stroke-linejoin="round"/>
<path d="M1150.5 820.7C1140.7 824.3 1129.5 826.3 1117.8 826.6C1108.2 826.9 1098.6 826 1089.7 823.9L1089.3 823.8L1089.1 824L1074.3 851.6" stroke="#0086CD" stroke-width="4.8467" stroke-miterlimit="10" stroke-linecap="round" stroke-linejoin="round"/>
<path d="M1108 858.7L1127 826" stroke="#0086CD" stroke-width="1.6156" stroke-miterlimit="10" stroke-linecap="round" stroke-linejoin="round"/>
<path d="M1119.4 842.4L1150 848.6L1150.1 848.9L1141 864" stroke="#0086CD" stroke-width="4.8467" stroke-miterlimit="10" stroke-linecap="round" stroke-linejoin="round"/>
<path d="M1443.5 900.4L1524.3 922.6" stroke="#0086CD" stroke-width="4.8467" stroke-miterlimit="10" stroke-linecap="round" stroke-linejoin="round"/>
<path d="M1406.9 918.4L1421.3 949.7L1416.1 956.6" stroke="#0086CD" stroke-width="1.6156" stroke-miterlimit="10" stroke-linecap="round" stroke-linejoin="round"/>
<path d="M1444.2 900.4C1443.6 901 1443.1 901.7 1442.4 902.3C1441.8 902.8 1441.1 903.4 1440.5 903.9C1439.1 905.1 1437.5 906.3 1436 907.4C1434.6 908.4 1433 909.1 1431.6 910C1430 910.9 1428.3 911.8 1426.6 912.5C1419.9 915.3 1412.9 917.3 1405.7 918.4C1402.2 918.9 1398.6 919.5 1395 919.6C1391.4 919.7 1387.8 919.7 1384.2 919.3C1382.3 919.1 1380.3 919 1378.4 918.6C1376.6 918.3 1374.9 917.8 1373.2 917.3C1369.8 916.4 1366.4 915.2 1363.3 913.6C1361.7 912.8 1360 911.7 1358.6 910.5C1358 910 1357.4 909.4 1357 908.8C1356.5 908.1 1355.9 907.5 1355.5 906.7C1354.7 905.1 1354.4 903.3 1354.4 901.5C1354.4 899.7 1355.2 897.9 1356.2 896.4C1356.6 895.7 1357.1 895.1 1357.6 894.4C1356.6 894.1 1355.7 893.8 1354.7 893.6" stroke="#0086CD" stroke-width="1.6156" stroke-miterlimit="10" stroke-linecap="round" stroke-linejoin="round"/>
<path d="M1356.8 893L1305.3 880.8" stroke="#0086CD" stroke-width="4.8467" stroke-miterlimit="10" stroke-linecap="round" stroke-linejoin="round"/>
<path d="M1285.1 876.3L1259 870.4" stroke="#0086CD" stroke-width="4.8467" stroke-miterlimit="10" stroke-linecap="round" stroke-linejoin="round"/>
<path d="M1238.9 865.9L1226.4 863.2" stroke="#0086CD" stroke-width="4.8467" stroke-miterlimit="10" stroke-linecap="round" stroke-linejoin="round"/>
<path d="M1225.4 862.9L1188.2 855.1L1150.6 847.8" stroke="#0086CD" stroke-width="1.6156" stroke-miterlimit="10" stroke-linecap="round" stroke-linejoin="round"/>
<path d="M1318.7 884.5L1290.3 924.9" stroke="#0086CD" stroke-width="4.8467" stroke-miterlimit="10" stroke-linecap="round" stroke-linejoin="round"/>
<path d="M1226.4 863.2L1199.4 904.4" stroke="#0086CD" stroke-width="4.8467" stroke-miterlimit="10" stroke-linecap="round" stroke-linejoin="round"/>
<path d="M1272.2 873.4L1245.2 914.5" stroke="#0086CD" stroke-width="4.8467" stroke-miterlimit="10" stroke-linecap="round" stroke-linejoin="round"/>
<path d="M1133.2 862.5L1141 864L1125.5 889.7L1162 896.9L1198.3 904.3L1234.5 912.2L1270.6 920.2L1306.3 928.6L1341.8 937.3L1377.2 946.2L1412.5 955.4L1447.3 964.8L1482.1 974.6L1529.4 916.4" stroke="#0086CD" stroke-width="7.4044" stroke-miterlimit="10" stroke-linecap="round" stroke-linejoin="round"/>
<path d="M1116 859.1L1110.3 858L1109.5 858.8C1105.4 863.6 1095.8 866 1087.1 864.2C1078.3 862.5 1072.8 857.4 1073.9 852V851.4L1031.8 843.5" stroke="#0086CD" stroke-width="7.4044" stroke-miterlimit="10" stroke-linecap="round" stroke-linejoin="round"/>
<path d="M1178.2 433.6C1173.9 437.3 1169.7 441.1 1165.6 445C1155.9 454.4 1147.1 465.3 1140.2 476.9C1132.9 489.3 1127.6 502.4 1124.9 516.6C1122.4 530 1123.1 544.2 1126.5 557.3C1127.4 560.8 1128.6 564.2 1129.7 567.6" stroke="#0086CD" stroke-width="4.8467" stroke-miterlimit="10" stroke-linecap="round" stroke-linejoin="round"/>
<path d="M431.2 578.7L485.4 609.9L667.7 504.6" stroke="#0086CD" stroke-width="4.8467" stroke-miterlimit="10" stroke-linecap="round" stroke-linejoin="round"/>
<path d="M415.8 570L326.4 518.3L466.5 437.5" stroke="#0086CD" stroke-width="4.8467" stroke-miterlimit="10" stroke-linecap="round" stroke-linejoin="round"/>
<path d="M347.5 502.4L350.7 504.2" stroke="#0086CD" stroke-width="4.8467" stroke-miterlimit="10" stroke-linecap="round" stroke-linejoin="round"/>
<path d="M508.9 412.8L481.6 428.6" stroke="#0086CD" stroke-width="4.8467" stroke-miterlimit="10" stroke-linecap="round" stroke-linejoin="round"/>
<path d="M1331.9 623.9C1397.4 645.5 1479 642.5 1539.2 616.2" stroke="#0086CD" stroke-width="4.8467" stroke-miterlimit="10" stroke-linecap="round" stroke-linejoin="round"/>
<path d="M1539.1 616.3C1572.8 601.7 1596.9 580.9 1607.7 557.4" stroke="#0086CD" stroke-width="4.8467" stroke-miterlimit="10" stroke-linecap="round" stroke-linejoin="round"/>
<path d="M1607.7 557.6L1642.2 525.9L1718.9 524.5" stroke="#0086CD" stroke-width="4.8467" stroke-miterlimit="10" stroke-linecap="round" stroke-linejoin="round"/>
<path d="M1238.5 543.4C1242.7 562.2 1255.3 580 1275.1 595.1" stroke="#0086CD" stroke-width="4.8467" stroke-miterlimit="10" stroke-linecap="round" stroke-linejoin="round"/>
<path d="M1275.1 595.1C1285.1 602.8 1296.9 609.7 1310.1 615.6" stroke="#0086CD" stroke-width="4.8467" stroke-miterlimit="10" stroke-linecap="round" stroke-linejoin="round"/>
<path d="M1586.7 383.1L1540.8 423.6L1470.7 423.9L1468.5 423.7" stroke="#0086CD" stroke-width="4.8467" stroke-miterlimit="10" stroke-linecap="round" stroke-linejoin="round"/>
<path d="M1468.4 423.6C1413.9 416.2 1356.5 423.2 1311.9 442.7" stroke="#0086CD" stroke-width="4.8467" stroke-miterlimit="10" stroke-linecap="round" stroke-linejoin="round"/>
<path d="M1311.9 442.8C1265.7 462.9 1238.1 494.1 1237.1 527.5" stroke="#0086CD" stroke-width="4.8467" stroke-miterlimit="10" stroke-linecap="round" stroke-linejoin="round"/>
<path d="M1129.8 567.6L699.1 662.9L639.9 628.7L883.8 487.8L885.3 487L960.1 443.9L925.2 423.6" stroke="#0086CD" stroke-width="1.6156" stroke-miterlimit="10" stroke-linecap="round" stroke-linejoin="round"/>
<path d="M1158.7 612.9C1166.2 620.9 1174.7 628.6 1184.2 635.9" stroke="#0086CD" stroke-width="4.8467" stroke-miterlimit="10" stroke-linecap="round" stroke-linejoin="round"/>
<path d="M1184.2 636C1193.7 643.3 1204.2 650.1 1215.5 656.4" stroke="#0086CD" stroke-width="4.8467" stroke-miterlimit="10" stroke-linecap="round" stroke-linejoin="round"/>
<path d="M1161 613.4L1159.3 611.4L1118.2 626C1126.2 634.7 1135.1 643 1145.4 650.9" stroke="#0086CD" stroke-width="1.6156" stroke-miterlimit="10" stroke-linecap="round" stroke-linejoin="round"/>
<path d="M1145.6 650.9C1157 659.6 1169.7 667.7 1183.7 675.1L1215.6 658" stroke="#0086CD" stroke-width="1.6156" stroke-miterlimit="10" stroke-linecap="round" stroke-linejoin="round"/>
<path d="M713.5 683.7L629 634.9L604.2 649.2L688.9 698.1L713.5 683.7Z" stroke="#0086CD" stroke-width="1.6156" stroke-miterlimit="10" stroke-linecap="round" stroke-linejoin="round"/>
<path d="M945.2 797.7C950.8 799.2 956.7 800.2 962.8 800.8" stroke="#0086CD" stroke-width="4.6965" stroke-miterlimit="10" stroke-linecap="round" stroke-linejoin="round"/>
<path d="M562.6 806.5L573.3 771.3L580.8 771.9" stroke="#0086CD" stroke-width="4.8467" stroke-miterlimit="10" stroke-linecap="round" stroke-linejoin="round"/>
<path d="M685.2 783.9L591.9 773.3" stroke="#0086CD" stroke-width="4.8467" stroke-miterlimit="10" stroke-linecap="round" stroke-linejoin="round"/>
<path d="M710.7 822.3L735.5 754.8" stroke="#0086CD" stroke-width="1.6156" stroke-miterlimit="10" stroke-linecap="round" stroke-linejoin="round"/>
<path d="M695.9 750.1C701.4 750.4 706.8 751.1 712.2 751.7C717.8 752.3 723.3 753.1 728.9 753.8C734 754.4 739.1 755.2 744.2 755.9C749.6 756.6 755 757.3 760.3 758C766.2 758.7 772.1 759.5 778 760.3C783.6 761.1 789.2 761.8 794.8 762.6C799.6 763.3 804.5 763.9 809.3 764.6C815.1 765.5 821 766.3 826.8 767.1C832.2 767.9 837.5 768.6 842.9 769.3C845.6 769.7 848.3 770.1 851 770.4C852.3 770.6 853.6 770.9 854.9 771.1C856.1 771.3 857.3 771.3 858.4 771.5C859.8 771.7 861.1 772 862.5 772.1" stroke="#0086CD" stroke-width="1.6156" stroke-miterlimit="10" stroke-linecap="round" stroke-linejoin="round"/>
<path d="M833.8 838.4L863 771.9" stroke="#0086CD" stroke-width="4.8467" stroke-miterlimit="10" stroke-linecap="round" stroke-linejoin="round"/>
<path d="M575.1 771.1L591.4 716.9" stroke="#0086CD" stroke-width="1.6156" stroke-miterlimit="10" stroke-linecap="round" stroke-linejoin="round"/>
<path d="M685.2 783.9L696.4 751" stroke="#0086CD" stroke-width="4.8467" stroke-miterlimit="10" stroke-linecap="round" stroke-linejoin="round"/>
<path d="M728.1 734.2L855.3 751.1L864.6 728.7L735.5 711.4L730.6 726.6" stroke="#0086CD" stroke-width="1.6156" stroke-miterlimit="10" stroke-linecap="round" stroke-linejoin="round"/>
<path d="M814.5 487.5L707.1 549.5" stroke="#0086CD" stroke-width="4.8467" stroke-miterlimit="10" stroke-linecap="round" stroke-linejoin="round"/>
<path d="M691.9 558.4L605 608.6" stroke="#0086CD" stroke-width="4.8467" stroke-miterlimit="10" stroke-linecap="round" stroke-linejoin="round"/>
<path d="M673.8 568.8L651.3 555.9" stroke="#0086CD" stroke-width="4.8467" stroke-miterlimit="10" stroke-linecap="round" stroke-linejoin="round"/>
<path d="M635.9 547L615.1 534.9" stroke="#0086CD" stroke-width="4.8467" stroke-miterlimit="10" stroke-linecap="round" stroke-linejoin="round"/>
<path d="M559.4 625.8L541.9 615.8" stroke="#0086CD" stroke-width="4.8467" stroke-miterlimit="10" stroke-linecap="round" stroke-linejoin="round"/>
<path d="M526.7 606.9L508.7 596.5" stroke="#0086CD" stroke-width="4.8467" stroke-miterlimit="10" stroke-linecap="round" stroke-linejoin="round"/>
<path d="M1571.1 680.4L1527.5 636.2" stroke="#0086CD" stroke-width="1.6156" stroke-miterlimit="10" stroke-linecap="round" stroke-linejoin="round"/>
<path d="M1433.3 703.7L1430.1 653.2V652.7" stroke="#0086CD" stroke-width="4.8467" stroke-miterlimit="10" stroke-linecap="round" stroke-linejoin="round"/>
<path d="M1708.8 576.5L1626.8 562.7L1708.8 576.5Z" stroke="#0086CD" stroke-width="4.8467" stroke-miterlimit="10" stroke-linecap="round" stroke-linejoin="round"/>
<path d="M1629.4 562.1L1607.4 558.4L1710 575.5" stroke="#0086CD" stroke-width="1.6156" stroke-miterlimit="10" stroke-linecap="round" stroke-linejoin="round"/>
<path d="M1622.7 569.8C1624.1 567.4 1625.4 565.1 1626.7 562.7" stroke="#0086CD" stroke-width="4.8467" stroke-miterlimit="10" stroke-linecap="round" stroke-linejoin="round"/>
<path d="M1571.8 616.5C1585.2 608.8 1596.8 600.1 1606.2 590.6" stroke="#0086CD" stroke-width="1.6156" stroke-miterlimit="10" stroke-linecap="round" stroke-linejoin="round"/>
<path d="M1430 652.6C1483.5 651.3 1534.1 638.4 1571.9 616.5" stroke="#0086CD" stroke-width="1.6156" stroke-miterlimit="10" stroke-linecap="round" stroke-linejoin="round"/>
<path d="M1398.5 651.8C1409.1 652.5 1419.7 652.7 1430.4 652.4" stroke="#0086CD" stroke-width="4.8467" stroke-miterlimit="10" stroke-linecap="round" stroke-linejoin="round"/>
<path d="M1157.5 517.7H1124.8" stroke="#0086CD" stroke-width="4.8467" stroke-miterlimit="10" stroke-linecap="round" stroke-linejoin="round"/>
<path d="M1684.3 611.8L1606.9 590" stroke="#0086CD" stroke-width="4.8467" stroke-miterlimit="10" stroke-linecap="round" stroke-linejoin="round"/>
<path d="M1607.5 590.1L1607.7 590L1608 589.5L1608.7 588.8L1609.4 587.9L1611 585.9L1612.6 583.7" stroke="#0086CD" stroke-width="4.8467" stroke-miterlimit="10" stroke-linecap="round" stroke-linejoin="round"/>
<path d="M670.1 216.9L976.5 394" stroke="#0086CD" stroke-width="4.8467" stroke-miterlimit="10" stroke-linecap="round" stroke-linejoin="round"/>
<path d="M312.8 599.7L377.4 562.4" stroke="#0086CD" stroke-width="4.8467" stroke-miterlimit="10" stroke-linecap="round" stroke-linejoin="round"/>
<path d="M262 453.1L337 496.4" stroke="#0086CD" stroke-width="4.8467" stroke-miterlimit="10" stroke-linecap="round" stroke-linejoin="round"/>
<path d="M325.9 533.3L376.9 562.6" stroke="#0086CD" stroke-width="1.6156" stroke-miterlimit="10" stroke-linecap="round" stroke-linejoin="round"/>
<path d="M360.8 395.2L434.4 437.7L287.8 522.2" stroke="#0086CD" stroke-width="1.6156" stroke-miterlimit="10" stroke-linecap="round" stroke-linejoin="round"/>
<path d="M215 480.3L316.3 538.6" stroke="#0086CD" stroke-width="1.6156" stroke-miterlimit="10" stroke-linecap="round" stroke-linejoin="round"/>
<path d="M312.3 424.1L385.1 466" stroke="#0086CD" stroke-width="1.6156" stroke-miterlimit="10" stroke-linecap="round" stroke-linejoin="round"/>
<path d="M325.9 533.3L261.8 570.2" stroke="#0086CD" stroke-width="1.6156" stroke-miterlimit="10" stroke-linecap="round" stroke-linejoin="round"/>
<path d="M976.5 394L839.5 473" stroke="#0086CD" stroke-width="4.8467" stroke-miterlimit="10" stroke-linecap="round" stroke-linejoin="round"/>
<path d="M935.4 794.4C943.6 797.6 952.9 799.8 962.6 800.8" stroke="#0086CD" stroke-width="4.8467" stroke-miterlimit="10" stroke-linecap="round" stroke-linejoin="round"/>
<path d="M911.5 778.3C916.8 784.8 925 790.4 935.3 794.5" stroke="#0086CD" stroke-width="4.8467" stroke-miterlimit="10" stroke-linecap="round" stroke-linejoin="round"/>
<path d="M899 798.4L923 802.1L900.9 847.8" stroke="#0086CD" stroke-width="4.8467" stroke-miterlimit="10" stroke-linecap="round" stroke-linejoin="round"/>
<path d="M854.2 791.9L855.8 792.1L857.9 792.4L860.6 792.7L863.5 793.1L866.8 793.6L870.4 794.1L874.2 794.8L878.2 795.3" stroke="#0086CD" stroke-width="4.8467" stroke-miterlimit="10" stroke-linecap="round" stroke-linejoin="round"/>
<path d="M923 802.1L936.4 794.8" stroke="#0086CD" stroke-width="4.8467" stroke-miterlimit="10" stroke-linecap="round" stroke-linejoin="round"/>
<path d="M631.5 812L642.7 779.3" stroke="#0086CD" stroke-width="4.8467" stroke-miterlimit="10" stroke-linecap="round" stroke-linejoin="round"/>
<path d="M449.5 378.6L419.5 361.2" stroke="#0086CD" stroke-width="4.8467" stroke-miterlimit="10" stroke-linecap="round" stroke-linejoin="round"/>
<path d="M726.4 538.5L474 392.7" stroke="#0086CD" stroke-width="4.8467" stroke-miterlimit="10" stroke-linecap="round" stroke-linejoin="round"/>
<path d="M949.6 828L962.9 800.8" stroke="#0086CD" stroke-width="4.8467" stroke-miterlimit="10" stroke-linecap="round" stroke-linejoin="round"/>
<path d="M1542.4 900.4L1546.8 895L1503.5 883.1L1460.1 871.7L1416.5 860.6L1372.6 849.7L1328.5 839.1L1284.8 829V828.7L1343.8 697.7C1455.5 715.1 1576.8 693.5 1652.1 640.3C1738.9 578.9 1741.8 491.1 1659 427.9V427.8C1643 416 1626 405.4 1608.8 395.4L1422.3 287.7C1416.3 291.2 1410.2 294.7 1404.2 298.2C1389.5 306.7 1374.7 315.3 1360 323.8C1341.6 334.4 1323.2 345.1 1304.8 355.7C1287.8 365.5 1270.9 375.3 1253.9 385.1C1243.4 391.2 1232.9 397.2 1222.5 403.3C1214.4 408 1206.3 412.7 1198.5 418C1191.5 422.8 1183.7 427.2 1177.3 432.7L1078.9 375.8L1099.7 363.9L1064.1 343.4L1228.5 248.5L921.5 71.5L160 511.3L458.7 683.9L511.7 653.4L594.4 701L588.9 719.8L514.3 713.8L491.7 800.9L529.3 803.8L566.9 807.2L604.3 810.6L641.7 814.5L678.9 818.5L716 822.9L753.1 827.6L790.2 832.5L827.1 837.7L863.8 843.1L900.4 848.8L936.8 854.8L949.9 828.1L994 836.7" stroke="#0086CD" stroke-width="7.5393" stroke-miterlimit="10" stroke-linecap="round" stroke-linejoin="round"/>
<path d="M696.7 750L611.7 740.4" stroke="#0086CD" stroke-width="4.8467" stroke-miterlimit="10" stroke-linecap="round" stroke-linejoin="round"/>
<path d="M1656.7 637.1L1588.1 606.9" stroke="#0086CD" stroke-width="1.6156" stroke-miterlimit="10" stroke-linecap="round" stroke-linejoin="round"/>
<path d="M597.1 604L543.9 634.7" stroke="#0086CD" stroke-width="4.8467" stroke-miterlimit="10" stroke-linecap="round" stroke-linejoin="round"/>
<path d="M528.3 643.8L511.7 653.4" stroke="#0086CD" stroke-width="4.8467" stroke-miterlimit="10" stroke-linecap="round" stroke-linejoin="round"/>
<path d="M597.1 604L605 608.6" stroke="#0086CD" stroke-width="4.8467" stroke-miterlimit="10" stroke-linecap="round" stroke-linejoin="round"/>
<path d="M515.4 477.4L385.6 552.6" stroke="#0086CD" stroke-width="4.8467" stroke-miterlimit="10" stroke-linecap="round" stroke-linejoin="round"/>
<path d="M617.9 475.8L565.2 506.3" stroke="#0086CD" stroke-width="4.8467" stroke-miterlimit="10" stroke-linecap="round" stroke-linejoin="round"/>
<path d="M615.1 534.9L456.9 443.7" stroke="#0086CD" stroke-width="4.8467" stroke-miterlimit="10" stroke-linecap="round" stroke-linejoin="round"/>
<path d="M1528 692.3L1497.8 644.5" stroke="#0086CD" stroke-width="1.6156" stroke-miterlimit="10" stroke-linecap="round" stroke-linejoin="round"/>
<path d="M1363.5 647.7C1358.1 646.5 1352.7 645.3 1347.3 644.1C1341.6 642.8 1335.6 642.1 1330 644.2C1325.8 645.8 1323.5 649.4 1320.7 652.8C1315.3 659.4 1309.9 666.1 1304.5 672.7C1300.6 677.5 1296.7 682.3 1292.8 687.1L1292.7 686.9C1309.3 691.5 1326.3 695.1 1343.6 697.8" stroke="#0086CD" stroke-width="4.8467" stroke-miterlimit="10" stroke-linecap="round" stroke-linejoin="round"/>
<path d="M604.3 763.7L601 774.3" stroke="#0086CD" stroke-width="4.8467" stroke-miterlimit="10" stroke-linecap="round" stroke-linejoin="round"/>
<path d="M611.7 740.4L608.5 750.8" stroke="#0086CD" stroke-width="4.8467" stroke-miterlimit="10" stroke-linecap="round" stroke-linejoin="round"/>
<path d="M1213.9 494.6C1210.8 501.7 1208.4 508.9 1206.9 516.2L1206.7 517.7H1182.5" stroke="#0086CD" stroke-width="4.8467" stroke-miterlimit="10" stroke-linecap="round" stroke-linejoin="round"/>
<path d="M1137.5 481.6L1220.6 495.7" stroke="#0086CD" stroke-width="4.8467" stroke-miterlimit="10" stroke-linecap="round" stroke-linejoin="round"/>
<path d="M1237 498.2L1243.4 499.1" stroke="#0086CD" stroke-width="4.8467" stroke-miterlimit="10" stroke-linecap="round" stroke-linejoin="round"/>
<path d="M940.7 757.5L950.8 759.1L945.5 769.9L935.4 768.3L940.7 757.5Z" fill="#0086CC" stroke="#0086CD" stroke-width="1.5096" stroke-miterlimit="10" stroke-linecap="round" stroke-linejoin="round"/>
<path d="M1013.5 769.2L1020.5 770.5L1014.9 781.2L1007.7 780L1013.5 769.2Z" fill="#0086CC" stroke="#0086CD" stroke-width="1.5096" stroke-miterlimit="10" stroke-linecap="round" stroke-linejoin="round"/>
<path d="M1081.4 781.1L1088.5 782.4L1082.8 793.1L1075.7 791.9L1081.4 781.1Z" fill="#0086CC" stroke="#0086CD" stroke-width="1.5096" stroke-miterlimit="10" stroke-linecap="round" stroke-linejoin="round"/>
<path d="M1148.6 793L1158.6 795.1L1152 805.7L1142 803.6L1148.6 793Z" fill="#0086CC" stroke="#0086CD" stroke-width="1.5096" stroke-miterlimit="10" stroke-linecap="round" stroke-linejoin="round"/>
<path d="M795.6 735.7L791.6 746.4L864.1 756.1L868.9 745.5L795.6 735.7Z" fill="#0086CC" stroke="#0086CD" stroke-width="1.5096" stroke-miterlimit="10" stroke-linecap="round" stroke-linejoin="round"/>
<path d="M727.7 727.1L723.5 737.8L733.6 739.1L737.7 728.4L727.7 727.1Z" fill="#0086CC" stroke="#0086CD" stroke-width="1.5096" stroke-miterlimit="10" stroke-linecap="round" stroke-linejoin="round"/>
<path d="M663.9 705.6L655.8 729.3L668 730.7L676.1 707L663.9 705.6Z" fill="#0086CC" stroke="#0086CD" stroke-width="1.5096" stroke-miterlimit="10" stroke-linecap="round" stroke-linejoin="round"/>
<path d="M851.4 467.1L884.5 487" stroke="#0086CD" stroke-width="1.6156" stroke-miterlimit="10" stroke-linecap="round" stroke-linejoin="round"/>
<path d="M1537.9 930.7L1564.5 921.1L1557.7 902.9L1537.9 930.7Z" fill="#F8493B" stroke="#F8493B" stroke-width="2.5315" stroke-miterlimit="10" stroke-linecap="round" stroke-linejoin="round"/>
<path d="M1302.7 626.8L1320.8 634.1L1318.2 625.3L1302.7 626.8Z" fill="#F8493B" stroke="#F8493B" stroke-width="3.5931" stroke-miterlimit="10" stroke-linecap="round" stroke-linejoin="round"/>
<path d="M1232.1 536.1L1222.8 541.5V530.8L1232.1 536.1Z" fill="#F8493B" stroke="#F8493B" stroke-width="3.5931" stroke-miterlimit="10" stroke-linecap="round" stroke-linejoin="round"/>
<path d="M974.1 867.7L1027.5 875.5L1007.6 856.3L974.1 867.7Z" fill="#F8493B" stroke="#F8493B" stroke-width="3.0143" stroke-miterlimit="10" stroke-linecap="round" stroke-linejoin="round"/>
<path d="M851.4 484H830.9V495.8L851.4 484Z" fill="#F8493B" stroke="#F8493B" stroke-width="3.2254" stroke-miterlimit="10" stroke-linecap="round" stroke-linejoin="round"/>
<path d="M562 643.8H541.9V655.3L562 643.8Z" fill="#F8493B" stroke="#F8493B" stroke-width="3.1639" stroke-miterlimit="10" stroke-linecap="round" stroke-linejoin="round"/>
<path d="M417.4 580.3H398.9L417.4 590.8" fill="#F8493B"/>
<path d="M417.4 580.3H398.9L417.4 590.8" stroke="#F8493B" stroke-width="2.8703" stroke-miterlimit="10" stroke-linecap="round" stroke-linejoin="round"/>
<path d="M417.4 590.8V580.3" stroke="#F8493B" stroke-width="2.8703" stroke-miterlimit="10" stroke-linecap="round" stroke-linejoin="round"/>
<path fill-rule="evenodd" clip-rule="evenodd" d="M417.4 580.3V590.8L398.9 580.3H417.4Z" fill="#F8493B" stroke="#F8493B" stroke-width="2.8703" stroke-miterlimit="10" stroke-linecap="round" stroke-linejoin="round"/>
<path fill-rule="evenodd" clip-rule="evenodd" d="M398.9 580.3L417.4 590.8L398.9 580.3Z" fill="#F8493B" stroke="#F8493B" stroke-width="2.8703" stroke-miterlimit="10" stroke-linecap="round" stroke-linejoin="round"/>
<path d="M417.4 580.3H398.9L417.4 590.8V580.3Z" fill="#F8493B" stroke="#F8493B" stroke-width="2.8703" stroke-miterlimit="10" stroke-linecap="round" stroke-linejoin="round"/>
<path d="M941.2 918.4L942.5 908.1L941.2 897.8H957.9C959.9 897.8 961.5 898.3 962.7 899.2C963.9 900.1 964.5 901.4 964.5 903C964.5 904.5 963.9 905.7 962.7 906.6C961.5 907.5 959.9 908.1 957.8 908.3L958.3 907.1C960.7 907.2 962.6 907.7 963.9 908.6C965.2 909.5 965.8 910.8 965.8 912.5C965.8 914.3 965.1 915.7 963.8 916.7C962.5 917.8 960.7 918.3 958.5 918.3H941.2V918.4ZM948.3 916.8L945.5 913.8H956C956.8 913.8 957.4 913.6 957.8 913.3C958.2 913 958.4 912.5 958.4 911.8C958.4 911.2 958.2 910.8 957.8 910.4C957.4 910 956.7 909.8 955.8 909.8H947V906H955C955.7 906 956.3 905.8 956.7 905.5C957.1 905.2 957.3 904.7 957.3 904.2C957.3 903.6 957.1 903.2 956.8 902.9C956.5 902.6 955.9 902.4 955.2 902.4H945.7L948.5 899.4L949.7 908.1L948.3 916.8Z" fill="#1D3D90"/>
<path d="M965.9 918.4L975.4 906.9V909.1L966.4 897.9H974.6L980.4 905H978.2L984 897.9H992.1L982.8 909.2L982.4 906.3L992.6 918.5H984.2L977.9 910.9H980.2L974 918.5H965.9V918.4Z" fill="#1D3D90"/>
<path d="M1006.1 918.9C1003.5 918.9 1001.2 918.4 999.2 917.6C997.2 916.7 995.7 915.4 994.6 913.8C993.5 912.2 992.9 910.3 992.9 908.1C992.9 905.9 993.5 904 994.6 902.4C995.7 900.8 997.2 899.5 999.2 898.6C1001.2 897.7 1003.5 897.2 1006.1 897.2C1008.7 897.2 1011 897.7 1013 898.6C1015 899.5 1016.5 900.8 1017.6 902.4C1018.7 904 1019.3 905.9 1019.3 908.1C1019.3 910.2 1018.7 912.1 1017.6 913.8C1016.5 915.4 1015 916.7 1013 917.6C1011 918.5 1008.7 918.9 1006.1 918.9ZM1006.1 913.5C1007.3 913.5 1008.3 913.3 1009.2 912.9C1010.1 912.5 1010.7 911.8 1011.2 911C1011.7 910.2 1011.9 909.2 1011.9 908.1C1011.9 906.9 1011.7 906 1011.2 905.2C1010.7 904.4 1010.1 903.8 1009.2 903.3C1008.3 902.9 1007.3 902.7 1006.1 902.7C1004.9 902.7 1003.9 902.9 1003 903.3C1002.1 903.7 1001.5 904.3 1001 905.2C1000.5 906 1000.3 907 1000.3 908.1C1000.3 909.2 1000.5 910.2 1001 911C1001.5 911.8 1002.1 912.4 1003 912.9C1003.9 913.4 1004.9 913.5 1006.1 913.5Z" fill="#1D3D90"/>
<path d="M1051.3 912.9V923.3H1045V918.4H1027V923.3H1020.7V912.9H1026.9L1028.3 913H1043.2L1044.5 912.9H1051.3ZM1024.9 897.8H1047.5V917H1040.2V899.8L1043.5 903.1H1028.5L1031.2 900.4C1031.5 901.4 1031.7 902.3 1031.8 903.2C1031.9 904.1 1031.9 904.9 1031.9 905.6C1031.9 908.9 1031.3 911.5 1030.2 913.3C1029.1 915.1 1027.5 916.1 1025.4 916.1L1022.4 913.6C1024.3 912.3 1025.2 909.2 1025.2 904.2C1025.2 903.2 1025.2 902.2 1025.1 901.1C1025 900 1025.1 898.9 1024.9 897.8Z" fill="#1D3D90"/>
<path d="M768.7 714.1C780.464 714.1 790 704.564 790 692.8C790 681.036 780.464 671.5 768.7 671.5C756.936 671.5 747.4 681.036 747.4 692.8C747.4 704.564 756.936 714.1 768.7 714.1Z" fill="#1D3D90"/>
<path d="M757.5 684.6V690.4C757.5 690.6 757.6 690.9 757.8 691L772.6 701.5C772.7 701.6 772.8 701.6 772.9 701.6H779.4C779.7 701.6 780 701.3 780 700.9V695.6C780 695.2 779.7 694.9 779.4 694.9H775V691.9C775 691.5 774.7 691.2 774.4 691.2H770V688.2C770 687.8 769.7 687.5 769.4 687.5H765V684.5C765 684.1 764.7 683.8 764.4 683.8H758.1C757.7 683.9 757.5 684.2 757.5 684.6ZM763.7 685.3V688.3C763.7 688.7 764 689 764.3 689H768.7V692C768.7 692.4 769 692.7 769.3 692.7H773.7V695.7C773.7 696.1 774 696.4 774.3 696.4H778.7V700.3H773L758.7 690V685.3H763.7Z" fill="white"/>
<path d="M768.7 711.7C768.7 711.7 768.9 712 769.3 712.4C769.5 712.6 769.7 712.9 769.9 713.2C770 713.4 770.1 713.5 770.2 713.7C770.3 713.8 770.3 713.9 770.2 714C770.2 714.1 770.2 714.2 770.2 714.3C770.2 715.8 770.2 717.9 770.2 719.9C770.2 721.9 770.2 724 770.2 725.5C770.2 725.6 770.2 725.7 770.2 725.8C770.2 725.9 770.2 726 770.2 726.1C770.1 726.3 770 726.4 769.9 726.6C769.7 726.9 769.5 727.2 769.3 727.4C769 727.8 768.7 728.1 768.7 728.1C768.7 728.1 768.5 727.8 768.1 727.4C767.9 727.2 767.7 726.9 767.5 726.6C767.4 726.4 767.3 726.3 767.2 726.1C767.1 726 767.1 725.9 767.2 725.8C767.2 725.7 767.2 725.6 767.2 725.5C767.2 724 767.2 721.9 767.2 719.9C767.2 717.9 767.2 715.8 767.2 714.3C767.2 714.2 767.2 714.1 767.2 714C767.2 713.9 767.2 713.8 767.2 713.7C767.3 713.5 767.4 713.4 767.5 713.2C767.7 712.9 767.9 712.6 768.1 712.4C768.5 712 768.7 711.7 768.7 711.7Z" fill="#1D3D90"/>
<path d="M586 785.5C597.764 785.5 607.3 775.964 607.3 764.2C607.3 752.436 597.764 742.9 586 742.9C574.236 742.9 564.7 752.436 564.7 764.2C564.7 775.964 574.236 785.5 586 785.5Z" fill="#1D3D90"/>
<path d="M596.7 755.3H590.4C590.1 755.3 589.8 755.6 589.8 756V759H585.4C585.1 759 584.8 759.3 584.8 759.7V762.7H580.4C580.1 762.7 579.8 763 579.8 763.4V766.4H575.4C575.1 766.4 574.8 766.7 574.8 767.1V772.4C574.8 772.8 575.1 773.1 575.4 773.1H581.9C582 773.1 582.1 773.1 582.2 773L597 762.5C597.2 762.4 597.3 762.2 597.3 761.9V756.1C597.3 755.6 597 755.3 596.7 755.3ZM596 756.7V761.4L581.6 771.6H575.9V767.7H580.3C580.6 767.7 580.9 767.4 580.9 767V764H585.3C585.6 764 585.9 763.7 585.9 763.3V760.3H590.3C590.6 760.3 590.9 760 590.9 759.6V756.6L596 756.7Z" fill="white"/>
<path d="M586 783.1C586 783.1 586.2 783.4 586.6 783.8C586.8 784 587 784.3 587.2 784.6C587.3 784.8 587.4 784.9 587.5 785.1C587.6 785.2 587.6 785.3 587.5 785.4C587.5 785.5 587.5 785.6 587.5 785.7C587.5 787.2 587.5 789.3 587.5 791.3C587.5 793.3 587.5 795.4 587.5 796.9C587.5 797 587.5 797.1 587.5 797.2C587.5 797.3 587.5 797.4 587.5 797.5C587.4 797.7 587.3 797.8 587.2 798C587 798.3 586.8 798.6 586.6 798.8C586.3 799.2 586 799.5 586 799.5C586 799.5 585.8 799.2 585.4 798.8C585.2 798.6 585 798.3 584.8 798C584.7 797.8 584.6 797.7 584.5 797.5C584.4 797.4 584.4 797.3 584.5 797.2C584.5 797.1 584.5 797 584.5 796.9C584.5 795.4 584.5 793.3 584.5 791.3C584.5 789.3 584.5 787.2 584.5 785.7C584.5 785.6 584.5 785.5 584.5 785.4C584.5 785.3 584.5 785.2 584.5 785.1C584.6 784.9 584.7 784.8 584.8 784.6C585 784.3 585.2 784 585.4 783.8C585.8 783.3 586 783.1 586 783.1Z" fill="#1D3D90"/>
<path d="M1188 644.4C1199.76 644.4 1209.3 634.864 1209.3 623.1C1209.3 611.336 1199.76 601.8 1188 601.8C1176.24 601.8 1166.7 611.336 1166.7 623.1C1166.7 634.864 1176.24 644.4 1188 644.4Z" fill="#1D3D90"/>
<path d="M1198.7 614.2H1192.4C1192.1 614.2 1191.8 614.5 1191.8 614.9V617.9H1187.4C1187.1 617.9 1186.8 618.2 1186.8 618.6V621.6H1182.4C1182.1 621.6 1181.8 621.9 1181.8 622.3V625.3H1177.4C1177.1 625.3 1176.8 625.6 1176.8 626V631.3C1176.8 631.7 1177.1 632 1177.4 632H1183.9C1184 632 1184.1 632 1184.2 631.9L1199 621.4C1199.2 621.3 1199.3 621.1 1199.3 620.8V615C1199.3 614.5 1199 614.2 1198.7 614.2ZM1198.1 615.6V620.3L1183.7 630.5H1178V626.6H1182.4C1182.7 626.6 1183 626.3 1183 625.9V622.9H1187.4C1187.7 622.9 1188 622.6 1188 622.2V619.2H1192.4C1192.7 619.2 1193 618.9 1193 618.5V615.5L1198.1 615.6Z" fill="white"/>
<path d="M1188 642C1188 642 1188.2 642.3 1188.6 642.7C1188.8 642.9 1189 643.2 1189.2 643.5C1189.3 643.7 1189.4 643.8 1189.5 644C1189.6 644.1 1189.6 644.2 1189.5 644.3C1189.5 644.4 1189.5 644.5 1189.5 644.6C1189.5 646.1 1189.5 648.2 1189.5 650.2C1189.5 652.2 1189.5 654.3 1189.5 655.8C1189.5 655.9 1189.5 656 1189.5 656.1C1189.5 656.2 1189.5 656.3 1189.5 656.4C1189.4 656.6 1189.3 656.7 1189.2 656.9C1189 657.2 1188.8 657.5 1188.6 657.7C1188.3 658.1 1188 658.4 1188 658.4C1188 658.4 1187.8 658.1 1187.4 657.7C1187.2 657.5 1187 657.2 1186.8 656.9C1186.7 656.7 1186.6 656.6 1186.5 656.4C1186.4 656.3 1186.4 656.2 1186.5 656.1C1186.5 656 1186.5 655.9 1186.5 655.8C1186.5 654.3 1186.5 652.2 1186.5 650.2C1186.5 648.2 1186.5 646.1 1186.5 644.6C1186.5 644.5 1186.5 644.4 1186.5 644.3C1186.5 644.2 1186.5 644.1 1186.5 644C1186.6 643.8 1186.7 643.7 1186.8 643.5C1187 643.2 1187.2 642.9 1187.4 642.7C1187.8 642.2 1188 642 1188 642Z" fill="#1D3D90"/>
<path d="M1663.3 580.6C1675.06 580.6 1684.6 571.064 1684.6 559.3C1684.6 547.536 1675.06 538 1663.3 538C1651.54 538 1642 547.536 1642 559.3C1642 571.064 1651.54 580.6 1663.3 580.6Z" fill="#1D3D90"/>
<path d="M1673.9 550.5H1667.6C1667.3 550.5 1667 550.8 1667 551.2V554.2H1662.6C1662.3 554.2 1662 554.5 1662 554.9V557.9H1657.6C1657.3 557.9 1657 558.2 1657 558.6V561.6H1652.6C1652.3 561.6 1652 561.9 1652 562.3V567.6C1652 568 1652.3 568.3 1652.6 568.3H1659.1C1659.2 568.3 1659.3 568.3 1659.4 568.2L1674.2 557.7C1674.4 557.6 1674.5 557.4 1674.5 557.1V551.3C1674.6 550.7 1674.3 550.4 1673.9 550.5ZM1673.3 551.8V556.5L1658.9 566.7H1653.2V562.8H1657.6C1657.9 562.8 1658.2 562.5 1658.2 562.1V559.1H1662.6C1662.9 559.1 1663.2 558.8 1663.2 558.4V555.4H1667.6C1667.9 555.4 1668.2 555.1 1668.2 554.7V551.7L1673.3 551.8Z" fill="white"/>
<path d="M1663.3 578.2C1663.3 578.2 1663.5 578.5 1663.9 578.9C1664.1 579.1 1664.3 579.4 1664.5 579.7C1664.6 579.9 1664.7 580 1664.8 580.2C1664.9 580.3 1664.9 580.4 1664.8 580.5C1664.8 580.6 1664.8 580.7 1664.8 580.8C1664.8 582.3 1664.8 584.4 1664.8 586.4C1664.8 588.4 1664.8 590.5 1664.8 592C1664.8 592.1 1664.8 592.2 1664.8 592.3C1664.8 592.4 1664.8 592.5 1664.8 592.6C1664.7 592.8 1664.6 592.9 1664.5 593.1C1664.3 593.4 1664.1 593.7 1663.9 593.9C1663.6 594.3 1663.3 594.6 1663.3 594.6C1663.3 594.6 1663.1 594.3 1662.7 593.9C1662.5 593.7 1662.3 593.4 1662.1 593.1C1662 592.9 1661.9 592.8 1661.8 592.6C1661.7 592.5 1661.7 592.4 1661.8 592.3C1661.8 592.2 1661.8 592.1 1661.8 592C1661.8 590.5 1661.8 588.4 1661.8 586.4C1661.8 584.4 1661.8 582.3 1661.8 580.8C1661.8 580.7 1661.8 580.6 1661.8 580.5C1661.8 580.4 1661.8 580.3 1661.8 580.2C1661.9 580 1662 579.9 1662.1 579.7C1662.3 579.4 1662.5 579.1 1662.7 578.9C1663.1 578.5 1663.3 578.2 1663.3 578.2Z" fill="#1D3D90"/>
<path d="M658.8 655.4C670.564 655.4 680.1 645.864 680.1 634.1C680.1 622.336 670.564 612.8 658.8 612.8C647.036 612.8 637.5 622.336 637.5 634.1C637.5 645.864 647.036 655.4 658.8 655.4Z" fill="#1D3D90"/>
<path d="M658.8 653C658.8 653 659 653.3 659.3 653.7C659.5 653.9 659.6 654.2 659.8 654.5C659.9 654.7 660 654.8 660.1 655C660.2 655.2 660.1 655.4 660.1 655.5C660.1 657 660.1 659.1 660.1 661.1C660.1 663.1 660.1 665.2 660.1 666.7C660.1 666.8 660.1 666.9 660.1 667C660.1 667.1 660.1 667.2 660.1 667.3C660 667.5 659.9 667.6 659.8 667.8C659.6 668.1 659.4 668.4 659.3 668.6C659 669 658.8 669.3 658.8 669.3C658.8 669.3 658.6 669 658.3 668.6C658.2 668.4 658 668.1 657.8 667.8C657.7 667.6 657.6 667.5 657.5 667.3C657.4 667.2 657.4 667.1 657.5 667C657.5 666.9 657.5 666.8 657.5 666.7C657.5 665.2 657.5 663.1 657.5 661.1C657.5 659.1 657.5 657 657.5 655.5C657.5 655.3 657.4 655.1 657.5 655C657.6 654.8 657.7 654.7 657.8 654.5C658 654.2 658.2 653.9 658.3 653.7C658.6 653.3 658.8 653 658.8 653Z" fill="#1D3D90"/>
<path d="M645.7 631.7C645.8 632.2 646.2 633.5 647.4 634.2C647.7 634.4 648 634.5 648.3 634.5C648.4 634.5 648.5 634.5 648.6 634.5H652.2C652.3 634.5 652.3 634.5 652.4 634.6L663.6 642.9C663.9 643.1 664.2 643.2 664.5 643.2H670.9C671.1 643.2 671.3 643.2 671.5 643.1C672 642.9 673 642.3 673.6 641.2C673.8 640.8 674.3 639.5 673.6 638C673 636.6 671.7 636.1 671.2 636C671.1 636 670.9 635.9 670.7 635.9H666.9C666.8 635.9 666.8 635.9 666.7 635.8L665.3 634.7V631C665.3 630.8 665.2 629.9 664.5 629.3C664.4 629.2 663.6 628.6 662.6 628.8C661.9 629 661.4 629.4 661.1 630.1C661 630.2 661 630.4 660.9 630.6V630.7V631.3L655.5 627.3C655.2 627.1 654.9 627 654.6 627H648.9C648.7 627 648.6 627 648.4 627.1C647.9 627.3 647.2 627.6 646.7 628.2C646.6 628.6 645.4 629.9 645.7 631.7ZM647.6 629.2C648 628.8 648.5 628.5 648.8 628.4H648.9H654.6C654.7 628.4 654.7 628.4 654.8 628.5L666 636.9C666.3 637.1 666.6 637.2 666.9 637.2H670.7H670.8C671.1 637.3 672 637.7 672.4 638.6C672.9 639.6 672.5 640.6 672.4 640.8C672 641.6 671.3 642 671 642.1H670.9H664.5C664.4 642.1 664.4 642.1 664.3 642L653.1 633.7C652.8 633.5 652.5 633.4 652.2 633.4H648.6C648.6 633.4 648.6 633.4 648.5 633.4C648.3 633.4 648.1 633.3 647.9 633.2C647.1 632.8 646.9 631.9 646.8 631.5C646.7 630.2 647.6 629.3 647.6 629.2Z" fill="white"/>
<path d="M663.1 628.9C664.26 628.9 665.2 627.96 665.2 626.8C665.2 625.64 664.26 624.7 663.1 624.7C661.94 624.7 661 625.64 661 626.8C661 627.96 661.94 628.9 663.1 628.9Z" fill="white"/>
<path d="M899 447.9C910.764 447.9 920.3 438.364 920.3 426.6C920.3 414.836 910.764 405.3 899 405.3C887.236 405.3 877.7 414.836 877.7 426.6C877.7 438.364 887.236 447.9 899 447.9Z" fill="#1D3D90"/>
<path d="M899 445.6C899 445.6 899.2 445.9 899.5 446.3C899.7 446.5 899.8 446.8 900 447.1C900.1 447.3 900.2 447.4 900.3 447.6C900.4 447.8 900.3 448 900.3 448.1C900.3 449.6 900.3 451.7 900.3 453.7C900.3 455.7 900.3 457.8 900.3 459.3C900.3 459.4 900.3 459.5 900.3 459.6C900.3 459.7 900.3 459.8 900.3 459.9C900.2 460.1 900.1 460.2 900 460.4C899.8 460.7 899.6 461 899.5 461.2C899.2 461.6 899 461.9 899 461.9C899 461.9 898.8 461.6 898.5 461.2C898.4 461 898.2 460.7 898 460.4C897.9 460.2 897.8 460.1 897.7 459.9C897.6 459.8 897.6 459.7 897.7 459.6C897.7 459.5 897.7 459.4 897.7 459.3C897.7 457.8 897.7 455.7 897.7 453.7C897.7 451.7 897.7 449.6 897.7 448.1C897.7 447.9 897.6 447.7 897.7 447.6C897.8 447.4 897.9 447.3 898 447.1C898.2 446.8 898.4 446.5 898.5 446.3C898.8 445.8 899 445.6 899 445.6Z" fill="#1D3D90"/>
<path d="M885.9 424.3C886 424.8 886.4 426.1 887.6 426.8C887.9 427 888.2 427.1 888.5 427.1C888.6 427.1 888.7 427.1 888.8 427.1H892.4C892.5 427.1 892.5 427.1 892.6 427.2L903.8 435.5C904.1 435.7 904.4 435.8 904.7 435.8H911.1C911.3 435.8 911.5 435.8 911.7 435.7C912.2 435.5 913.2 434.9 913.8 433.8C914 433.4 914.5 432.1 913.8 430.6C913.2 429.2 911.9 428.7 911.4 428.6C911.3 428.6 911.1 428.5 910.9 428.5H907.1C907 428.5 907 428.5 906.9 428.4L905.5 427.3V423.6C905.5 423.4 905.4 422.5 904.7 421.9C904.6 421.8 903.8 421.2 902.8 421.4C902.1 421.6 901.6 422 901.3 422.7C901.2 422.8 901.2 423 901.1 423.2V423.3V423.9L895.7 419.9C895.4 419.7 895.1 419.6 894.8 419.6H889.1C888.9 419.6 888.8 419.6 888.6 419.7C888.1 419.9 887.4 420.2 886.9 420.8C886.7 421.1 885.6 422.5 885.9 424.3ZM887.8 421.8C888.2 421.4 888.7 421.1 889 421H889.1H894.8C894.9 421 894.9 421 895 421.1L906.2 429.5C906.5 429.7 906.8 429.8 907.1 429.8H910.9H911C911.3 429.9 912.2 430.3 912.6 431.2C913.1 432.2 912.7 433.2 912.6 433.4C912.2 434.2 911.5 434.6 911.2 434.7H911.1H904.7C904.6 434.7 904.6 434.7 904.5 434.6L893.3 426.3C893 426.1 892.7 426 892.4 426H888.8C888.8 426 888.8 426 888.7 426C888.5 426 888.3 425.9 888.1 425.8C887.3 425.4 887.1 424.5 887 424.1C886.9 422.8 887.7 421.8 887.8 421.8Z" fill="white"/>
<path d="M903.3 421.5C904.46 421.5 905.4 420.56 905.4 419.4C905.4 418.24 904.46 417.3 903.3 417.3C902.14 417.3 901.2 418.24 901.2 419.4C901.2 420.56 902.14 421.5 903.3 421.5Z" fill="white"/>
<path d="M1601.3 895.6L1613.6 922.6H1605.6L1595.3 898.8H1597.5L1587.2 922.6H1579.2L1591.5 895.6H1601.3ZM1586.9 917.4V911.4H1605.5V917.4H1586.9Z" fill="#1D3D90"/>
<path d="M666.1 738.5C677.864 738.5 687.4 728.964 687.4 717.2C687.4 705.436 677.864 695.9 666.1 695.9C654.336 695.9 644.8 705.436 644.8 717.2C644.8 728.964 654.336 738.5 666.1 738.5Z" fill="#1D3D90"/>
<path d="M666.1 736.1C666.1 736.1 666.3 736.4 666.6 736.8C666.8 737 666.9 737.3 667.1 737.6C667.2 737.8 667.3 737.9 667.4 738.1C667.5 738.3 667.4 738.5 667.4 738.6C667.4 740.1 667.4 742.2 667.4 744.2C667.4 746.2 667.4 748.3 667.4 749.8C667.4 749.9 667.4 750 667.4 750.1C667.4 750.2 667.4 750.3 667.4 750.4C667.3 750.6 667.2 750.7 667.1 750.9C666.9 751.2 666.7 751.5 666.6 751.7C666.3 752.1 666.1 752.4 666.1 752.4C666.1 752.4 665.9 752.1 665.6 751.7C665.5 751.5 665.3 751.2 665.1 750.9C665 750.7 664.9 750.6 664.8 750.4C664.7 750.3 664.7 750.2 664.8 750.1C664.8 750 664.8 749.9 664.8 749.8C664.8 748.3 664.8 746.2 664.8 744.2C664.8 742.2 664.8 740.1 664.8 738.6C664.8 738.4 664.7 738.2 664.8 738.1C664.9 737.9 665 737.8 665.1 737.6C665.3 737.3 665.5 737 665.6 736.8C665.9 736.4 666.1 736.1 666.1 736.1Z" fill="#1D3D90"/>
<path d="M675.4 712.9L656.9 712.7C656.2 712.7 655.6 713.3 655.6 714L655.5 728C655.5 728.7 656.1 729.3 656.8 729.3L675.3 729.5C676 729.5 676.6 728.9 676.6 728.2L676.7 714.2C676.7 713.5 676.1 712.9 675.4 712.9ZM656.9 714L675.4 714.1L675.3 728.1L656.8 727.9L656.9 714Z" fill="white"/>
<path d="M661.1 711.4C661.2 711.4 661.2 711.4 661.1 711.4C661.2 711.5 661.2 711.5 661.2 711.5C661.2 711.5 661.3 711.6 661.4 711.6C661.5 711.6 661.5 711.6 661.6 711.6C661.7 711.6 661.7 711.6 661.8 711.6C661.9 711.6 661.9 711.5 662 711.5C662 711.5 662 711.5 662.1 711.4L665.2 707.6C665.3 707.5 665.4 707.3 665.3 707.1C665.3 706.9 665.2 706.8 665.1 706.6C664.8 706.4 664.4 706.4 664.2 706.7L662.3 709L662.4 703.2C662.4 702.8 662.1 702.5 661.7 702.5C661.3 702.5 661 702.8 661 703.2L660.9 709.1L659.1 707C659 706.9 658.8 706.8 658.6 706.8C658.4 706.8 658.2 706.8 658.1 707C658 707.1 657.9 707.3 657.9 707.5C657.9 707.7 657.9 707.9 658.1 708L661.1 711.4Z" fill="white"/>
<path d="M667.9 707.4C668.1 707.4 668.3 707.3 668.4 707.2L670.2 705.2L670.1 711.1C670.1 711.5 670.4 711.8 670.8 711.8C671.2 711.8 671.5 711.5 671.5 711.1L671.6 705.3L673.5 707.7C673.7 708 674.1 708 674.4 707.8C674.7 707.6 674.7 707.2 674.5 706.9L671.5 703C671.5 703 671.5 702.9 671.4 702.9C671.4 702.9 671.4 702.9 671.3 702.9C671.2 702.9 671.2 702.8 671.1 702.8C671 702.8 671 702.8 670.9 702.8C670.8 702.8 670.8 702.8 670.7 702.8C670.6 702.8 670.6 702.8 670.5 702.9L670.4 703L667.4 706.4C667.2 706.7 667.2 707.1 667.5 707.3C667.6 707.3 667.8 707.4 667.9 707.4Z" fill="white"/>
<path d="M660.7 717.3C661.252 717.3 661.7 716.852 661.7 716.3C661.7 715.748 661.252 715.3 660.7 715.3C660.148 715.3 659.7 715.748 659.7 716.3C659.7 716.852 660.148 717.3 660.7 717.3Z" fill="white"/>
<path d="M671.4 717.4C671.952 717.4 672.4 716.952 672.4 716.4C672.4 715.848 671.952 715.4 671.4 715.4C670.848 715.4 670.4 715.848 670.4 716.4C670.4 716.952 670.848 717.4 671.4 717.4Z" fill="white"/>
<path d="M666.1 717.3C666.652 717.3 667.1 716.852 667.1 716.3C667.1 715.748 666.652 715.3 666.1 715.3C665.548 715.3 665.1 715.748 665.1 716.3C665.1 716.852 665.548 717.3 666.1 717.3Z" fill="white"/>
<path d="M659.2 722.7H659.3V726.5C659.3 726.8 659.6 727.1 659.9 727.1C660.1 727.1 660.3 727 660.4 726.9C660.5 726.8 660.6 726.6 660.6 726.4V722.7H660.8V726.5C660.8 726.8 661.1 727.1 661.4 727.1C661.6 727.1 661.8 727 661.9 726.9C662 726.8 662.1 726.6 662.1 726.4V722.7C662.5 722.7 662.8 722.4 662.8 722V719.2C662.8 718.2 662 717.4 661 717.4H660.3C659.3 717.4 658.5 718.2 658.5 719.2V722C658.6 722.4 658.9 722.7 659.2 722.7Z" fill="white"/>
<path d="M664.6 722.8H664.7V726.6C664.7 726.9 665 727.2 665.3 727.2C665.5 727.2 665.7 727.1 665.8 727C665.9 726.9 666 726.7 666 726.5V722.8H666.2V726.6C666.2 726.9 666.5 727.2 666.8 727.2C667 727.2 667.2 727.1 667.3 727C667.4 726.9 667.5 726.7 667.5 726.5V722.8C667.9 722.8 668.2 722.5 668.2 722.1V719.3C668.2 718.3 667.4 717.5 666.4 717.5H665.7C664.7 717.5 663.9 718.3 663.9 719.3V722.1C663.9 722.5 664.2 722.8 664.6 722.8Z" fill="white"/>
<path d="M669.9 722.8V726.7C669.9 727 670.2 727.3 670.5 727.3C670.7 727.3 670.9 727.2 671 727.1C671.1 727 671.2 726.8 671.2 726.6V722.8H671.4V726.7C671.4 727 671.7 727.3 672 727.3C672.2 727.3 672.4 727.2 672.5 727.1C672.6 727 672.7 726.8 672.7 726.6V722.8C673.1 722.8 673.4 722.5 673.4 722.1V719.3C673.4 718.3 672.6 717.5 671.6 717.5H670.9C669.9 717.5 669.1 718.3 669.1 719.3V722.1C669.2 722.5 669.5 722.8 669.9 722.8Z" fill="white"/>
<path d="M1172.4 499.5C1184.16 499.5 1193.7 489.964 1193.7 478.2C1193.7 466.436 1184.16 456.9 1172.4 456.9C1160.64 456.9 1151.1 466.436 1151.1 478.2C1151.1 489.964 1160.64 499.5 1172.4 499.5Z" fill="#1D3D90"/>
<path d="M1172.4 497.1C1172.4 497.1 1172.6 497.4 1172.9 497.8C1173.1 498 1173.2 498.3 1173.4 498.6C1173.5 498.8 1173.6 498.9 1173.7 499.1C1173.8 499.3 1173.7 499.5 1173.7 499.6C1173.7 501.1 1173.7 503.2 1173.7 505.2C1173.7 507.2 1173.7 509.3 1173.7 510.8C1173.7 510.9 1173.7 511 1173.7 511.1C1173.7 511.2 1173.7 511.3 1173.7 511.4C1173.6 511.6 1173.5 511.7 1173.4 511.9C1173.2 512.2 1173 512.5 1172.9 512.7C1172.6 513.1 1172.4 513.4 1172.4 513.4C1172.4 513.4 1172.2 513.1 1171.9 512.7C1171.8 512.5 1171.6 512.2 1171.4 511.9C1171.3 511.7 1171.2 511.6 1171.1 511.4C1171 511.3 1171 511.2 1171.1 511.1C1171.1 511 1171.1 510.9 1171.1 510.8C1171.1 509.3 1171.1 507.2 1171.1 505.2C1171.1 503.2 1171.1 501.1 1171.1 499.6C1171.1 499.4 1171 499.2 1171.1 499.1C1171.2 498.9 1171.3 498.8 1171.4 498.6C1171.6 498.3 1171.8 498 1171.9 497.8C1172.2 497.4 1172.4 497.1 1172.4 497.1Z" fill="#1D3D90"/>
<path d="M1181.8 473.9L1163.3 473.7C1162.6 473.7 1162 474.3 1162 475L1161.9 489C1161.9 489.7 1162.5 490.3 1163.2 490.3L1181.7 490.5C1182.4 490.5 1183 489.9 1183 489.2L1183.1 475.2C1183.1 474.5 1182.5 473.9 1181.8 473.9ZM1163.2 475L1181.7 475.1L1181.6 489.1L1163.1 488.9L1163.2 475Z" fill="white"/>
<path d="M1167.5 472.4L1167.6 472.5C1167.6 472.5 1167.7 472.6 1167.8 472.6C1167.9 472.6 1167.9 472.6 1168 472.6C1168.1 472.6 1168.1 472.6 1168.2 472.6C1168.3 472.6 1168.3 472.5 1168.4 472.5C1168.4 472.5 1168.4 472.5 1168.5 472.4L1171.6 468.6C1171.7 468.5 1171.8 468.3 1171.7 468.1C1171.7 467.9 1171.6 467.8 1171.5 467.6C1171.2 467.4 1170.8 467.4 1170.6 467.7L1168.7 470L1168.8 464.2C1168.8 463.8 1168.5 463.5 1168.1 463.5C1167.7 463.5 1167.4 463.8 1167.4 464.2L1167.3 470.1L1165.5 468C1165.4 467.9 1165.2 467.8 1165 467.8C1164.8 467.8 1164.6 467.8 1164.5 468C1164.4 468.1 1164.3 468.3 1164.3 468.5C1164.3 468.7 1164.3 468.9 1164.5 469L1167.5 472.4Z" fill="white"/>
<path d="M1174.3 468.4C1174.5 468.4 1174.7 468.3 1174.8 468.2L1176.6 466.2L1176.5 472.1C1176.5 472.5 1176.8 472.8 1177.2 472.8C1177.6 472.8 1177.9 472.5 1177.9 472.1L1178 466.3L1179.9 468.7C1180.1 469 1180.5 469 1180.8 468.8C1181.1 468.6 1181.1 468.2 1180.9 467.9L1177.9 464C1177.9 464 1177.9 463.9 1177.8 463.9C1177.8 463.9 1177.8 463.9 1177.7 463.9C1177.6 463.9 1177.6 463.8 1177.5 463.8C1177.4 463.8 1177.4 463.8 1177.3 463.8C1177.2 463.8 1177.2 463.8 1177.1 463.8C1177 463.8 1177 463.8 1176.9 463.9L1176.8 464L1173.8 467.4C1173.6 467.7 1173.6 468.1 1173.9 468.3C1174 468.3 1174.1 468.4 1174.3 468.4Z" fill="white"/>
<path d="M1167.1 478.3C1167.65 478.3 1168.1 477.852 1168.1 477.3C1168.1 476.748 1167.65 476.3 1167.1 476.3C1166.55 476.3 1166.1 476.748 1166.1 477.3C1166.1 477.852 1166.55 478.3 1167.1 478.3Z" fill="white"/>
<path d="M1177.7 478.4C1178.25 478.4 1178.7 477.952 1178.7 477.4C1178.7 476.848 1178.25 476.4 1177.7 476.4C1177.15 476.4 1176.7 476.848 1176.7 477.4C1176.7 477.952 1177.15 478.4 1177.7 478.4Z" fill="white"/>
<path d="M1172.5 478.3C1173.05 478.3 1173.5 477.852 1173.5 477.3C1173.5 476.748 1173.05 476.3 1172.5 476.3C1171.95 476.3 1171.5 476.748 1171.5 477.3C1171.5 477.852 1171.95 478.3 1172.5 478.3Z" fill="white"/>
<path d="M1165.6 483.7H1165.7V487.5C1165.7 487.8 1166 488.1 1166.3 488.1C1166.5 488.1 1166.7 488 1166.8 487.9C1166.9 487.8 1167 487.6 1167 487.4V483.7H1167.2V487.5C1167.2 487.8 1167.5 488.1 1167.8 488.1C1168 488.1 1168.2 488 1168.3 487.9C1168.4 487.8 1168.5 487.6 1168.5 487.4V483.7C1168.9 483.7 1169.2 483.4 1169.2 483V480.2C1169.2 479.2 1168.4 478.4 1167.4 478.4H1166.7C1165.7 478.4 1164.9 479.2 1164.9 480.2V483C1164.9 483.4 1165.2 483.7 1165.6 483.7Z" fill="white"/>
<path d="M1171 483.8H1171.1V487.6C1171.1 487.9 1171.4 488.2 1171.7 488.2C1171.9 488.2 1172.1 488.1 1172.2 488C1172.3 487.9 1172.4 487.7 1172.4 487.5V483.8H1172.6V487.6C1172.6 487.9 1172.9 488.2 1173.2 488.2C1173.4 488.2 1173.6 488.1 1173.7 488C1173.8 487.9 1173.9 487.7 1173.9 487.5V483.8C1174.3 483.8 1174.6 483.5 1174.6 483.1V480.3C1174.6 479.3 1173.8 478.5 1172.8 478.5H1172.1C1171.1 478.5 1170.3 479.3 1170.3 480.3V483.1C1170.3 483.5 1170.6 483.8 1171 483.8Z" fill="white"/>
<path d="M1176.2 483.8V487.7C1176.2 488 1176.5 488.3 1176.8 488.3C1177 488.3 1177.2 488.2 1177.3 488.1C1177.4 488 1177.5 487.8 1177.5 487.6V483.8H1177.7V487.7C1177.7 488 1178 488.3 1178.3 488.3C1178.5 488.3 1178.7 488.2 1178.8 488.1C1178.9 488 1179 487.8 1179 487.6V483.8C1179.4 483.8 1179.7 483.5 1179.7 483.1V480.3C1179.7 479.3 1178.9 478.5 1177.9 478.5H1177.2C1176.2 478.5 1175.4 479.3 1175.4 480.3V483.1C1175.5 483.5 1175.8 483.8 1176.2 483.8Z" fill="white"/>
<path d="M1369.9 667.9C1381.66 667.9 1391.2 658.364 1391.2 646.6C1391.2 634.836 1381.66 625.3 1369.9 625.3C1358.14 625.3 1348.6 634.836 1348.6 646.6C1348.6 658.364 1358.14 667.9 1369.9 667.9Z" fill="#1D3D90"/>
<path d="M1369.9 665.6C1369.9 665.6 1370.1 665.9 1370.4 666.3C1370.6 666.5 1370.7 666.8 1370.9 667.1C1371 667.3 1371.1 667.4 1371.2 667.6C1371.3 667.8 1371.2 668 1371.2 668.1C1371.2 669.6 1371.2 671.7 1371.2 673.7C1371.2 675.7 1371.2 677.8 1371.2 679.3C1371.2 679.4 1371.2 679.5 1371.2 679.6C1371.2 679.7 1371.2 679.8 1371.2 679.9C1371.1 680.1 1371 680.2 1370.9 680.4C1370.7 680.7 1370.5 681 1370.4 681.2C1370.1 681.6 1369.9 681.9 1369.9 681.9C1369.9 681.9 1369.7 681.6 1369.4 681.2C1369.3 681 1369.1 680.7 1368.9 680.4C1368.8 680.2 1368.7 680.1 1368.6 679.9C1368.5 679.8 1368.5 679.7 1368.6 679.6C1368.6 679.5 1368.6 679.4 1368.6 679.3C1368.6 677.8 1368.6 675.7 1368.6 673.7C1368.6 671.7 1368.6 669.6 1368.6 668.1C1368.6 667.9 1368.5 667.7 1368.6 667.6C1368.7 667.4 1368.8 667.3 1368.9 667.1C1369.1 666.8 1369.3 666.5 1369.4 666.3C1369.6 665.8 1369.9 665.6 1369.9 665.6Z" fill="#1D3D90"/>
<path d="M1363.1 639.5C1364.09 639.5 1364.9 638.694 1364.9 637.7C1364.9 636.706 1364.09 635.9 1363.1 635.9C1362.11 635.9 1361.3 636.706 1361.3 637.7C1361.3 638.694 1362.11 639.5 1363.1 639.5Z" fill="white"/>
<path d="M1365.4 640.2H1360.7C1359.9 640.2 1359.2 640.9 1359.2 641.7V649.2C1359.2 649.5 1359.5 649.8 1359.8 649.8H1360.7V655.8C1360.7 656.3 1361.1 656.7 1361.6 656.7C1361.6 656.7 1361.6 656.7 1361.7 656.7C1362 656.7 1362.3 656.6 1362.4 656.4C1362.6 656.2 1362.7 655.9 1362.7 655.6V649.8H1363.6V655.8C1363.6 656.3 1364 656.7 1364.5 656.7C1364.5 656.7 1364.5 656.7 1364.6 656.7C1364.9 656.7 1365.2 656.6 1365.3 656.4C1365.5 656.2 1365.6 655.9 1365.6 655.6V649.8H1366.4C1366.7 649.8 1367 649.5 1367 649.2V641.7C1366.9 640.9 1366.3 640.2 1365.4 640.2Z" fill="white"/>
<path d="M1376.6 639.2C1377.59 639.2 1378.4 638.394 1378.4 637.4C1378.4 636.406 1377.59 635.6 1376.6 635.6C1375.61 635.6 1374.8 636.406 1374.8 637.4C1374.8 638.394 1375.61 639.2 1376.6 639.2Z" fill="white"/>
<path d="M1381.5 648.8L1379.7 640.8C1379.5 639.9 1378.9 639.8 1378.2 639.8H1374.8C1374 639.8 1373.3 640.5 1373.3 641.2L1371.9 648.8C1371.9 649.1 1372.2 649.4 1372.5 649.4H1374.2V655.4C1374.2 655.9 1374.6 656.3 1375.1 656.3C1375.1 656.3 1375.1 656.3 1375.2 656.3C1375.5 656.3 1375.8 656.2 1375.9 656C1376.1 655.8 1376.2 655.5 1376.2 655.2V649.4H1377.1V655.4C1377.1 655.9 1377.5 656.3 1378 656.3C1378 656.3 1378 656.3 1378.1 656.3C1378.4 656.3 1378.7 656.2 1378.8 656C1379 655.8 1379.1 655.5 1379.1 655.2V649.4H1381C1381.2 649.4 1381.5 649.2 1381.5 648.8Z" fill="white"/>
<path d="M1369.8 633.9C1369.5 633.9 1369.2 634.2 1369.2 634.5V657.9C1369.2 658.2 1369.5 658.5 1369.8 658.5C1370.1 658.5 1370.4 658.2 1370.4 657.9V634.5C1370.4 634.1 1370.2 633.9 1369.8 633.9Z" fill="white"/>
<path d="M853.3 808.8C865.064 808.8 874.6 799.264 874.6 787.5C874.6 775.736 865.064 766.2 853.3 766.2C841.536 766.2 832 775.736 832 787.5C832 799.264 841.536 808.8 853.3 808.8Z" fill="#1D3D90"/>
<path d="M853.3 806.4C853.3 806.4 853.5 806.7 853.8 807.1C854 807.3 854.1 807.6 854.3 807.9C854.4 808.1 854.5 808.2 854.6 808.4C854.7 808.6 854.6 808.8 854.6 808.9C854.6 810.4 854.6 812.5 854.6 814.5C854.6 816.5 854.6 818.6 854.6 820.1C854.6 820.2 854.6 820.3 854.6 820.4C854.6 820.5 854.6 820.6 854.6 820.7C854.5 820.9 854.4 821 854.3 821.2C854.1 821.5 853.9 821.8 853.8 822C853.5 822.4 853.3 822.7 853.3 822.7C853.3 822.7 853.1 822.4 852.8 822C852.7 821.8 852.5 821.5 852.3 821.2C852.2 821 852.1 820.9 852 820.7C851.9 820.6 851.9 820.5 852 820.4C852 820.3 852 820.2 852 820.1C852 818.6 852 816.5 852 814.5C852 812.5 852 810.4 852 808.9C852 808.7 851.9 808.5 852 808.4C852.1 808.2 852.2 808.1 852.3 807.9C852.5 807.6 852.7 807.3 852.8 807.1C853.1 806.7 853.3 806.4 853.3 806.4Z" fill="#1D3D90"/>
<path d="M846.5 780.4C847.494 780.4 848.3 779.594 848.3 778.6C848.3 777.606 847.494 776.8 846.5 776.8C845.506 776.8 844.7 777.606 844.7 778.6C844.7 779.594 845.506 780.4 846.5 780.4Z" fill="white"/>
<path d="M848.9 781H844.2C843.4 781 842.7 781.7 842.7 782.5V790C842.7 790.3 843 790.6 843.3 790.6H844.2V796.6C844.2 797.1 844.6 797.5 845.1 797.5C845.1 797.5 845.1 797.5 845.2 797.5C845.5 797.5 845.8 797.4 845.9 797.2C846.1 797 846.2 796.7 846.2 796.4V790.6H847.1V796.6C847.1 797.1 847.5 797.5 848 797.5C848 797.5 848 797.5 848.1 797.5C848.4 797.5 848.7 797.4 848.8 797.2C849 797 849.1 796.7 849.1 796.4V790.6H849.9C850.2 790.6 850.5 790.3 850.5 790V782.5C850.4 781.7 849.7 781 848.9 781Z" fill="white"/>
<path d="M860 780C860.994 780 861.8 779.194 861.8 778.2C861.8 777.206 860.994 776.4 860 776.4C859.006 776.4 858.2 777.206 858.2 778.2C858.2 779.194 859.006 780 860 780Z" fill="white"/>
<path d="M864.9 789.6L863.1 781.6C862.9 780.7 862.3 780.6 861.6 780.6H858.2C857.4 780.6 856.7 781.3 856.7 782L855.3 789.6C855.3 789.9 855.6 790.2 855.9 790.2H857.6V796.2C857.6 796.7 858 797.1 858.5 797.1C858.5 797.1 858.5 797.1 858.6 797.1C858.9 797.1 859.2 797 859.3 796.8C859.5 796.6 859.6 796.3 859.6 796V790.2H860.5V796.2C860.5 796.7 860.9 797.1 861.4 797.1C861.4 797.1 861.4 797.1 861.5 797.1C861.8 797.1 862.1 797 862.2 796.8C862.4 796.6 862.5 796.3 862.5 796V790.2H864.4C864.7 790.2 864.9 790 864.9 789.6Z" fill="white"/>
<path d="M853.3 774.7C853 774.7 852.7 775 852.7 775.3V798.7C852.7 799 853 799.3 853.3 799.3C853.6 799.3 853.9 799 853.9 798.7V775.3C853.8 774.9 853.6 774.7 853.3 774.7Z" fill="white"/>
<path d="M415.4 550.1L513.2 493.8L583.1 534.7L485.4 590L415.4 550.1Z" fill="#66B9FF"/>
<path d="M586 572.8C597.764 572.8 607.3 563.264 607.3 551.5C607.3 539.736 597.764 530.2 586 530.2C574.236 530.2 564.7 539.736 564.7 551.5C564.7 563.264 574.236 572.8 586 572.8Z" fill="#1D3D90"/>
<path d="M586 570.4C586 570.4 586.2 570.7 586.5 571.1C586.7 571.3 586.8 571.6 587 571.9C587.1 572.1 587.2 572.2 587.3 572.4C587.4 572.6 587.3 572.8 587.3 572.9C587.3 574.4 587.3 576.5 587.3 578.5C587.3 580.5 587.3 582.6 587.3 584.1C587.3 584.2 587.3 584.3 587.3 584.4C587.3 584.5 587.3 584.6 587.3 584.7C587.2 584.9 587.1 585 587 585.2C586.8 585.5 586.6 585.8 586.5 586C586.2 586.4 586 586.7 586 586.7C586 586.7 585.8 586.4 585.5 586C585.4 585.8 585.2 585.5 585 585.2C584.9 585 584.8 584.9 584.7 584.7C584.6 584.6 584.6 584.5 584.7 584.4C584.7 584.3 584.7 584.2 584.7 584.1C584.7 582.6 584.7 580.5 584.7 578.5C584.7 576.5 584.7 574.4 584.7 572.9C584.7 572.7 584.6 572.5 584.7 572.4C584.8 572.2 584.9 572.1 585 571.9C585.2 571.6 585.4 571.3 585.5 571.1C585.8 570.7 586 570.4 586 570.4Z" fill="#1D3D90"/>
<path d="M579.3 544.4C580.294 544.4 581.1 543.594 581.1 542.6C581.1 541.606 580.294 540.8 579.3 540.8C578.306 540.8 577.5 541.606 577.5 542.6C577.5 543.594 578.306 544.4 579.3 544.4Z" fill="white"/>
<path d="M581.6 545.1H576.9C576.1 545.1 575.4 545.8 575.4 546.6V554.1C575.4 554.4 575.7 554.7 576 554.7H576.9V560.7C576.9 561.2 577.3 561.6 577.8 561.6C577.8 561.6 577.8 561.6 577.9 561.6C578.2 561.6 578.5 561.5 578.6 561.3C578.8 561.1 578.9 560.8 578.9 560.5V554.7H579.8V560.7C579.8 561.2 580.2 561.6 580.7 561.6C580.7 561.6 580.7 561.6 580.8 561.6C581.1 561.6 581.4 561.5 581.5 561.3C581.7 561.1 581.8 560.8 581.8 560.5V554.7H582.6C582.9 554.7 583.2 554.4 583.2 554.1V546.6C583.1 545.7 582.4 545.1 581.6 545.1Z" fill="white"/>
<path d="M592.7 544C593.694 544 594.5 543.194 594.5 542.2C594.5 541.206 593.694 540.4 592.7 540.4C591.706 540.4 590.9 541.206 590.9 542.2C590.9 543.194 591.706 544 592.7 544Z" fill="white"/>
<path d="M597.7 553.6L595.9 545.6C595.7 544.7 595.1 544.6 594.4 544.6H591C590.2 544.6 589.5 545.3 589.5 546L588.1 553.6C588.1 553.9 588.4 554.2 588.7 554.2H590.4V560.2C590.4 560.7 590.8 561.1 591.3 561.1C591.3 561.1 591.3 561.1 591.4 561.1C591.7 561.1 592 561 592.1 560.8C592.3 560.6 592.4 560.3 592.4 560V554.2H593.3V560.2C593.3 560.7 593.7 561.1 594.2 561.1C594.2 561.1 594.2 561.1 594.3 561.1C594.6 561.1 594.9 561 595 560.8C595.2 560.6 595.3 560.3 595.3 560V554.2H597.2C597.4 554.2 597.7 554 597.7 553.6C597.7 553.7 597.7 553.7 597.7 553.6Z" fill="white"/>
<path d="M586 538.7C585.7 538.7 585.4 539 585.4 539.3V562.7C585.4 563 585.7 563.3 586 563.3C586.3 563.3 586.6 563 586.6 562.7V539.3C586.6 538.9 586.3 538.7 586 538.7Z" fill="white"/>
<path d="M466.9 523.7V321.3L385.3 321.6" stroke="#1D3D90" stroke-width="1.4173" stroke-linecap="round" stroke-linejoin="round"/>
<path d="M466.9 529C469.827 529 472.2 526.627 472.2 523.7C472.2 520.773 469.827 518.4 466.9 518.4C463.973 518.4 461.6 520.773 461.6 523.7C461.6 526.627 463.973 529 466.9 529Z" fill="#1D3D90"/>
<path d="M385.3 285.9H176.8V363.9H385.3V285.9Z" fill="#66B9FF"/>
<path d="M261.2 318.9C259.4 318.9 257.8 318.6 256.4 318.1C255 317.6 254 316.9 253.2 315.9C252.4 315 252 313.9 252 312.6H256.8C256.9 313.4 257.3 314.1 258.1 314.5C258.9 314.9 259.9 315.2 261.3 315.2C262.6 315.2 263.6 315 264.3 314.7C265 314.4 265.3 313.8 265.3 313.1C265.3 312.5 265 312.1 264.4 311.8C263.8 311.5 262.8 311.4 261.5 311.4H258.3V308.2H261.4C262.2 308.2 262.9 308.1 263.4 308C263.9 307.9 264.3 307.6 264.5 307.4C264.8 307.1 264.9 306.8 264.9 306.4C264.9 306 264.8 305.6 264.5 305.4C264.2 305.1 263.8 304.9 263.3 304.8C262.8 304.7 262.1 304.6 261.4 304.6C260.2 304.6 259.2 304.8 258.5 305.2C257.8 305.6 257.4 306.2 257.3 307H252.6C252.7 305.9 253.1 304.8 253.8 303.9C254.5 303 255.5 302.2 256.9 301.7C258.2 301.2 259.9 300.9 261.8 300.9C263.4 300.9 264.9 301.1 266.1 301.5C267.3 301.9 268.3 302.5 269 303.2C269.7 303.9 270 304.8 270 305.7C270 306.5 269.8 307.2 269.3 307.8C268.8 308.4 268.1 309 267.1 309.3C266.1 309.7 264.8 309.9 263.2 309.9V309.4C264.7 309.3 266 309.4 267.1 309.7C268.2 310 269 310.4 269.6 311C270.2 311.6 270.5 312.4 270.5 313.4C270.5 314.4 270.2 315.4 269.5 316.2C268.8 317 267.8 317.6 266.5 318.1C264.7 318.6 263.1 318.9 261.2 318.9Z" fill="white"/>
<path d="M285.2 311.9C285 313.3 284.6 314.5 283.9 315.5C283.2 316.5 282.5 317.4 281.5 317.9C280.5 318.5 279.4 318.8 278.2 318.8C276.9 318.8 275.8 318.5 274.8 317.9C273.8 317.3 273.1 316.5 272.5 315.5C271.9 314.4 271.7 313.2 271.7 311.9C271.7 310.5 272 309.3 272.5 308.2C273.1 307.2 273.8 306.3 274.8 305.8C275.8 305.3 276.9 304.9 278.2 304.9C279.4 304.9 280.6 305.2 281.5 305.8C282.5 306.4 283.3 307.2 283.9 308.2C284.5 309.2 285 310.5 285.2 311.9ZM276.4 311.9C276.4 312.5 276.5 313.1 276.8 313.6C277.1 314.1 277.4 314.5 277.9 314.8C278.4 315.1 278.9 315.2 279.5 315.2C280.1 315.2 280.8 315.1 281.3 314.8C281.9 314.5 282.4 314.1 282.8 313.6C283.2 313.1 283.6 312.5 283.8 311.9C283.6 311.2 283.3 310.7 282.8 310.1C282.4 309.6 281.9 309.2 281.3 308.9C280.7 308.6 280.1 308.5 279.5 308.5C278.9 308.5 278.3 308.6 277.9 308.9C277.4 309.2 277.1 309.6 276.8 310.1C276.5 310.7 276.4 311.3 276.4 311.9ZM284.1 318.5L283.5 313.8L284.1 312L283.5 310.2L284.1 305.4H289L288.2 312L289 318.6H284.1V318.5Z" fill="white"/>
<path d="M293.5 305.3H307.8V318.5H303V306.7L305.2 308.9H295.8L297.8 307.1C297.9 308 298 308.8 298 309.6C298 310.4 298.1 311 298.1 311.6C298.1 314.2 297.7 316 296.9 317.2C296.1 318.3 294.8 318.9 293.1 318.9C292.6 318.9 292.1 318.8 291.6 318.7C291.1 318.6 290.7 318.4 290.2 318.2V314.9C290.5 315 290.7 315.1 291 315.1C291.3 315.2 291.5 315.2 291.7 315.2C292.5 315.2 293 314.9 293.3 314.2C293.6 313.5 293.8 312.5 293.8 310.9C293.8 310.2 293.8 309.4 293.7 308.4C293.7 307.4 293.6 306.4 293.5 305.3Z" fill="white"/>
<path d="M191.3 333.5H196.1L192.3 339.6V338.5L196.1 344.6H191.3L187.9 339.1L191.3 333.5ZM198.2 333.5H203L199.2 339.6V338.5L203 344.6H198.2L194.8 339.1L198.2 333.5Z" fill="white"/>
<path d="M205.5 346.1V328.8H210.2V342.3L208.9 341.3L218.7 328.8H223.7L209.7 346.1H205.5ZM213.7 337.9L217.2 335L224 346.2H218.6L213.7 337.9Z" fill="white"/>
<path d="M231.9 346.5C230.2 346.5 228.7 346.2 227.5 345.6C226.2 345 225.3 344.2 224.5 343.2C223.8 342.1 223.4 340.9 223.4 339.6C223.4 338.2 223.8 337 224.5 335.9C225.2 334.9 226.2 334 227.5 333.5C228.8 332.9 230.2 332.6 231.9 332.6C233.6 332.6 235 332.9 236.3 333.5C237.6 334.1 238.6 334.9 239.3 335.9C240 336.9 240.4 338.2 240.4 339.6C240.4 341 240 342.2 239.3 343.2C238.6 344.3 237.6 345.1 236.3 345.6C235 346.1 233.6 346.5 231.9 346.5ZM231.9 343C232.7 343 233.3 342.9 233.9 342.6C234.4 342.3 234.9 341.9 235.2 341.4C235.5 340.9 235.6 340.3 235.6 339.6C235.6 338.9 235.5 338.2 235.2 337.7C234.9 337.2 234.5 336.8 233.9 336.5C233.4 336.2 232.7 336.1 231.9 336.1C231.1 336.1 230.5 336.2 229.9 336.5C229.3 336.8 228.9 337.2 228.6 337.7C228.3 338.2 228.2 338.8 228.2 339.6C228.2 340.3 228.3 340.9 228.6 341.5C228.9 342.1 229.3 342.4 229.9 342.7C230.5 342.9 231.1 343 231.9 343Z" fill="white"/>
<path d="M244.3 333H258.6V346.2H253.9V334.4L256.1 336.6H246.7L248.7 334.8C248.8 335.7 248.9 336.5 248.9 337.3C248.9 338.1 249 338.7 249 339.3C249 341.9 248.6 343.7 247.8 344.9C247 346 245.7 346.6 244 346.6C243.5 346.6 243 346.5 242.5 346.4C242 346.3 241.6 346.1 241.1 345.9V342.6C241.4 342.7 241.6 342.8 241.9 342.8C242.2 342.9 242.4 342.9 242.6 342.9C243.4 342.9 243.9 342.6 244.2 341.9C244.5 341.2 244.7 340.2 244.7 338.6C244.7 337.9 244.7 337.1 244.6 336.1C244.5 335.1 244.4 334.1 244.3 333Z" fill="white"/>
<path d="M269 346.5C267.3 346.5 265.8 346.2 264.6 345.6C263.3 345 262.4 344.2 261.6 343.2C260.9 342.1 260.5 340.9 260.5 339.6C260.5 338.2 260.9 337 261.6 335.9C262.3 334.9 263.3 334 264.6 333.5C265.9 332.9 267.3 332.6 269 332.6C270.7 332.6 272.1 332.9 273.4 333.5C274.7 334.1 275.7 334.9 276.4 335.9C277.1 336.9 277.5 338.2 277.5 339.6C277.5 341 277.1 342.2 276.4 343.2C275.7 344.3 274.7 345.1 273.4 345.6C272.1 346.1 270.6 346.5 269 346.5ZM269 343C269.8 343 270.4 342.9 271 342.6C271.5 342.3 272 341.9 272.3 341.4C272.6 340.9 272.7 340.3 272.7 339.6C272.7 338.9 272.6 338.2 272.3 337.7C272 337.2 271.6 336.8 271 336.5C270.5 336.2 269.8 336.1 269 336.1C268.2 336.1 267.6 336.2 267 336.5C266.4 336.8 266 337.2 265.7 337.7C265.4 338.2 265.3 338.8 265.3 339.6C265.3 340.3 265.4 340.9 265.7 341.5C266 342.1 266.4 342.4 267 342.7C267.5 342.9 268.2 343 269 343Z" fill="white"/>
<path d="M279.4 333H284.1V346.2H279.4V333ZM282.1 337.7H292.1V341.2H282.1V337.7ZM290.3 333H295V346.2H290.3V333Z" fill="white"/>
<path d="M297.6 333H302.3V346.2H297.6V333ZM300.3 337.7H310.3V341.2H300.3V337.7ZM308.5 333H313.2V346.2H308.5V333Z" fill="white"/>
<path d="M315.8 346.1V333H320.5V345L319 342.9H323.7C324.3 342.9 324.7 342.8 325.1 342.5C325.4 342.2 325.6 341.8 325.6 341.3C325.6 340.8 325.4 340.4 325.1 340.1C324.8 339.8 324.3 339.7 323.7 339.7H319V336.5H324.5C325.7 336.5 326.7 336.7 327.5 337.1C328.4 337.5 329 338.1 329.5 338.8C330 339.5 330.2 340.4 330.2 341.3C330.2 342.3 330 343.1 329.5 343.9C329 344.6 328.4 345.2 327.5 345.6C326.6 346 325.6 346.2 324.5 346.2H315.8V346.1ZM331.4 333H336.1V346.2H331.4V333Z" fill="white"/>
<path d="M338.7 346.1V333H343.4V343.6L342.4 343.3L349.3 333H355.3V346.2H350.7V335.3L351.7 335.6L344.6 346.2H338.7V346.1ZM346.9 331.9C345.3 331.9 344 331.5 343 330.7C342 329.9 341.4 328.8 341.2 327.3H344.8C344.9 327.9 345.2 328.4 345.5 328.7C345.8 329 346.3 329.2 346.9 329.2C347.5 329.2 347.9 329 348.3 328.7C348.7 328.4 348.9 327.9 349 327.3H352.6C352.4 328.8 351.8 329.9 350.8 330.7C349.8 331.5 348.5 331.9 346.9 331.9Z" fill="white"/>
<path d="M362.3 333.5L365.7 339L362.3 344.5H357.5L361.3 338.4V339.5L357.5 333.4H362.3V333.5ZM369.2 333.5L372.6 339L369.2 344.5H364.4L368.3 338.4V339.5L364.4 333.4H369.2V333.5Z" fill="white"/>
<path d="M192.9 280.6C187.2 280.6 182.6 276 182.6 270.3V269.8H171V270.3C171 276 166.4 280.6 160.7 280.6H160.2V292.3H160.7C166.4 292.3 171 296.9 171 302.6V303.1H182.7V302.6C182.7 296.9 187.3 292.3 193 292.3H193.5V280.6H192.9Z" fill="#1D3D90"/>
<path d="M192.9 286.4C184 286.4 176.8 293.6 176.8 302.5C176.8 293.6 169.6 286.4 160.7 286.4C169.6 286.4 176.8 279.2 176.8 270.3C176.8 279.2 184 286.4 192.9 286.4Z" fill="white"/>
<path d="M587.1 541.9C588.039 541.9 588.8 541.139 588.8 540.2C588.8 539.261 588.039 538.5 587.1 538.5C586.161 538.5 585.4 539.261 585.4 540.2C585.4 541.139 586.161 541.9 587.1 541.9Z" fill="white"/>
</svg>
