<svg width="309" height="190" viewBox="0 0 309 190" fill="none" xmlns="http://www.w3.org/2000/svg">
<path fill-rule="evenodd" clip-rule="evenodd" d="M132.66 85.68V90.26C132.66 97.25 131.9 103.82 129.2 108.22H140.91V85.68H132.65H132.66ZM154.74 75.82V108.22H158.43V123H145.19V118.08H125.51V123H112.27V108.22H115.61C118.54 102.53 119.42 96.13 119.42 86.68V75.82H154.73H154.74Z" fill="white"/>
<path fill-rule="evenodd" clip-rule="evenodd" d="M180.39 108.21H186.42C189.82 108.21 192.4 107.51 192.4 104.34C192.4 100.64 189.18 100.4 184.79 100.4H180.4V108.21H180.39ZM180.39 92.72H186.13C188.88 92.72 190.87 91.49 190.87 89.02C190.87 85.73 188.18 85.67 185.25 85.67H180.39V92.71V92.72ZM166.57 75.82H186.72C196.21 75.82 203.76 78.05 203.76 86.44C203.76 90.78 200.95 93.95 198.25 95.65C202.82 96.82 205.28 100.76 205.28 105.34C205.28 114.79 198.08 118.07 187.13 118.07H166.57V75.81V75.82Z" fill="white"/>
<path fill-rule="evenodd" clip-rule="evenodd" d="M244.45 102.4H247.08C250.65 102.4 252.23 100.05 252.23 96.41C252.23 92.48 250.53 90.54 246.26 90.54H244.44V102.4H244.45ZM230.63 90.54H228.76C224.48 90.54 222.84 92.48 222.84 96.41C222.84 100.05 224.42 102.4 227.99 102.4H230.62V90.54H230.63ZM244.45 75.81V80.68H247.67C259.97 80.68 265.47 87.84 265.47 96.53C265.47 105.63 259.96 112.26 247.85 112.26H244.45V118.07H230.63V112.26H227.23C215.11 112.26 209.61 105.63 209.61 96.53C209.61 87.43 215.11 80.68 227.41 80.68H230.63V75.81H244.45Z" fill="white"/>
<path fill-rule="evenodd" clip-rule="evenodd" d="M280.32 75.82L287.05 92.49L293.73 75.82H308.61L293.03 108.8C289.46 116.37 285.93 118.9 280.61 119.19C278.33 119.31 275.19 119.02 271.49 117.97V108.28C273.97 108.73 275.42 109.08 276.98 108.86C278.34 108.67 279.44 108.21 280.26 106.51L264.74 75.81H280.32V75.82Z" fill="white"/>
<path fill-rule="evenodd" clip-rule="evenodd" d="M116.97 132.14V133.39C116.97 135.3 116.76 137.09 116.03 138.3H119.23V132.15H116.97V132.14ZM123 129.45V138.3H124.01V143H120.4V141H115.03V143H111.41V138.3H112.32C113.12 136.75 113.36 135 113.36 132.42V129.46H123V129.45Z" fill="white"/>
<path fill-rule="evenodd" clip-rule="evenodd" d="M132.04 137.06L130.83 132.93L129.66 137.06H132.04ZM132.78 129.45L136.91 140.99H133.15L132.7 139.47H128.94L128.51 140.99H124.82L128.95 129.45H132.79H132.78Z" fill="white"/>
<path fill-rule="evenodd" clip-rule="evenodd" d="M149.92 129.45V140.99H146.15V132.14H143.44V135.42C143.44 140.07 141.99 141.22 139.83 141.22C139.04 141.22 138.53 141.16 137.78 140.98V138.29C138 138.37 138.21 138.4 138.64 138.4C139.39 138.4 139.82 138.09 139.82 135.38V129.44H149.91L149.92 129.45Z" fill="white"/>
<path fill-rule="evenodd" clip-rule="evenodd" d="M155.51 138.29H156.9C157.83 138.29 158.53 138.1 158.53 137.23C158.53 136.22 157.65 136.15 156.45 136.15H155.51V138.28V138.29ZM155.51 133.46H157.3C160.21 133.46 162.05 134.77 162.05 137.29C162.05 139.81 160.24 140.98 157.25 140.98H151.73V129.44H155.51V133.46Z" fill="white"/>
<path fill-rule="evenodd" clip-rule="evenodd" d="M167.29 133.47H170.85V129.45H174.63V140.99H170.85V136.16H167.29V140.99H163.51V129.45H167.29V133.47Z" fill="white"/>
<path fill-rule="evenodd" clip-rule="evenodd" d="M186.26 129.45V132.14H180.64V133.79H185.39V136.48H180.64V138.29H186.48V140.99H176.87V129.45H186.26Z" fill="white"/>
<path fill-rule="evenodd" clip-rule="evenodd" d="M192.09 138.29H193.74C194.67 138.29 195.37 138.1 195.37 137.23C195.37 136.22 194.49 136.15 193.29 136.15H192.09V138.28V138.29ZM192.09 134.06H193.66C194.41 134.06 194.96 133.72 194.96 133.05C194.96 132.15 194.22 132.14 193.42 132.14H192.09V134.06ZM188.32 129.45H193.82C196.41 129.45 198.47 130.06 198.47 132.35C198.47 133.54 197.7 134.4 196.97 134.87C198.22 135.19 198.89 136.26 198.89 137.51C198.89 140.09 196.92 140.99 193.93 140.99H188.32V129.45Z" fill="white"/>
<path fill-rule="evenodd" clip-rule="evenodd" d="M204.01 135.15C204.01 136.62 204.46 138.47 206.27 138.47C207.9 138.47 208.54 137.06 208.54 135.15C208.54 133.58 207.92 131.96 206.24 131.96C204.56 131.96 204.02 133.69 204.02 135.15H204.01ZM212.31 135.15C212.31 139.08 209.67 141.29 206.26 141.29C202.65 141.29 200.23 139.04 200.23 135.12C200.23 131.5 202.68 129.14 206.26 129.14C210.37 129.14 212.31 132.11 212.31 135.15Z" fill="white"/>
<path fill-rule="evenodd" clip-rule="evenodd" d="M221.99 133.85C221.88 132.65 221.13 131.96 219.94 131.96C218.61 131.96 217.81 133.1 217.81 135.33C217.81 136.95 218.16 138.47 220.08 138.47C221.29 138.47 221.87 137.62 222.02 136.51H225.65C225.31 139.49 223.18 141.29 220.15 141.29C216.34 141.29 214.04 138.95 214.04 135.2C214.04 131.45 216.57 129.14 219.78 129.14C223.3 129.14 225.26 130.89 225.57 133.85H221.99Z" fill="white"/>
<path fill-rule="evenodd" clip-rule="evenodd" d="M233.81 140.99H230.03V132.14H226.64V129.45H237.2V132.14H233.81V140.99Z" fill="white"/>
<path fill-rule="evenodd" clip-rule="evenodd" d="M241.81 135.15C241.81 136.62 242.26 138.47 244.07 138.47C245.7 138.47 246.34 137.06 246.34 135.15C246.34 133.58 245.71 131.96 244.04 131.96C242.37 131.96 241.82 133.69 241.82 135.15H241.81ZM250.11 135.15C250.11 139.08 247.47 141.29 244.06 141.29C240.44 141.29 238.03 139.04 238.03 135.12C238.03 131.5 240.48 129.14 244.06 129.14C248.17 129.14 250.11 132.11 250.11 135.15Z" fill="white"/>
<path fill-rule="evenodd" clip-rule="evenodd" d="M255.26 129.45V132.43C255.26 133.34 255.79 133.76 256.7 133.76C257.44 133.76 258.08 133.67 258.41 133.55V129.45H262.18V140.99H258.41V136.33C257.74 136.49 257.26 136.59 255.26 136.59C253.56 136.59 251.49 135.53 251.49 133.03V129.46H255.26V129.45Z" fill="white"/>
<path fill-rule="evenodd" clip-rule="evenodd" d="M268.2 133.47H271.76V129.45H275.54V140.99H271.76V136.16H268.2V140.99H264.42V129.45H268.2V133.47Z" fill="white"/>
<path fill-rule="evenodd" clip-rule="evenodd" d="M293.5 140.99H289.73V129.45H293.5V140.99ZM281.55 138.3H282.94C283.87 138.3 284.57 138.11 284.57 137.24C284.57 136.23 283.69 136.16 282.49 136.16H281.55V138.29V138.3ZM281.55 133.47H283.34C286.25 133.47 288.09 134.78 288.09 137.3C288.09 139.77 286.28 140.99 283.29 140.99H277.77V129.45H281.55V133.47Z" fill="white"/>
<path fill-rule="evenodd" clip-rule="evenodd" d="M299.78 126.14C299.89 127.04 300.76 127.13 301.49 127.13C302.48 127.13 302.96 126.82 303.08 126.14H304.33C304.27 127.79 302.94 128.59 301.4 128.59C299.72 128.59 298.65 127.92 298.52 126.14H299.78ZM306.85 129.44V140.98H303.23V137.31L303.42 134.36L299.26 140.98H295.73V129.44H299.34V133.11L299.15 136.06L303.31 129.44H306.85Z" fill="white"/>
<path fill-rule="evenodd" clip-rule="evenodd" d="M124.69 157.68H125.66C126.97 157.68 127.55 156.82 127.55 155.48C127.55 154.04 126.92 153.32 125.35 153.32H124.68V157.67L124.69 157.68ZM119.61 153.33H118.92C117.35 153.33 116.75 154.04 116.75 155.49C116.75 156.83 117.33 157.69 118.64 157.69H119.61V153.34V153.33ZM124.69 147.92V149.71H125.87C130.39 149.71 132.41 152.34 132.41 155.53C132.41 158.72 130.39 161.31 125.94 161.31H124.69V163.44H119.61V161.31H118.36C113.91 161.31 111.89 158.87 111.89 155.53C111.89 152.19 113.91 149.71 118.43 149.71H119.61V147.92H124.69Z" fill="white"/>
<path fill-rule="evenodd" clip-rule="evenodd" d="M146.88 147.91V151.53H139.33V153.75H145.72V157.38H139.33V159.81H147.19V163.43H134.26V147.91H146.88Z" fill="white"/>
<path fill-rule="evenodd" clip-rule="evenodd" d="M156.68 151.53V153.21C156.68 155.77 156.4 158.19 155.41 159.8H159.71V151.52H156.68V151.53ZM164.79 147.91V159.81H166.15V165.66H161.29V163.43H154.06V165.66H149.2V159.81H150.42C151.5 157.72 151.82 155.37 151.82 151.9V147.91H164.79Z" fill="white"/>
<path fill-rule="evenodd" clip-rule="evenodd" d="M181.05 147.91V151.53H173.5V153.75H179.89V157.38H173.5V159.81H181.35V163.43H168.42V147.91H181.05Z" fill="white"/>
<path fill-rule="evenodd" clip-rule="evenodd" d="M188.68 154.98H190.79C191.97 154.98 192.83 154.51 192.83 153.17C192.83 151.72 191.2 151.53 190.12 151.53H188.68V154.98ZM188.68 163.43H183.6V147.91H191.06C195.51 147.91 197.66 149.96 197.66 153.15C197.66 156.34 195.68 158.6 191.23 158.6H188.67V163.43H188.68Z" fill="white"/>
<path fill-rule="evenodd" clip-rule="evenodd" d="M206.23 158.15L204.59 152.59L203.02 158.15H206.23ZM207.22 147.91L212.77 163.43H207.71L207.11 161.38H202.06L201.48 163.43H196.51L202.06 147.91H207.22Z" fill="white"/>
<path fill-rule="evenodd" clip-rule="evenodd" d="M230.56 147.91V163.43H225.48V151.53H221.84V155.95C221.84 162.2 219.88 163.75 216.98 163.75C215.93 163.75 215.24 163.67 214.23 163.43V159.81C214.53 159.92 214.81 159.96 215.39 159.96C216.4 159.96 216.98 159.55 216.98 155.9V147.91H230.55H230.56Z" fill="white"/>
<path fill-rule="evenodd" clip-rule="evenodd" d="M238.65 159.81H240.52C241.77 159.81 242.71 159.55 242.71 158.39C242.71 157.03 241.53 156.95 239.91 156.95H238.64V159.82L238.65 159.81ZM238.65 153.32H241.06C244.97 153.32 247.45 155.09 247.45 158.47C247.45 161.85 245.02 163.43 241 163.43H233.58V147.91H238.66V153.32H238.65Z" fill="white"/>
<path fill-rule="evenodd" clip-rule="evenodd" d="M254.87 153.32H259.66V147.91H264.74V163.43H259.66V156.94H254.87V163.43H249.79V147.91H254.87V153.32Z" fill="white"/>
<path fill-rule="evenodd" clip-rule="evenodd" d="M288.9 163.43H283.82V147.91H288.9V163.43ZM272.83 159.81H274.7C275.94 159.81 276.89 159.55 276.89 158.39C276.89 157.03 275.71 156.95 274.09 156.95H272.82V159.82L272.83 159.81ZM272.83 153.32H275.24C279.15 153.32 281.63 155.09 281.63 158.47C281.63 161.79 279.2 163.43 275.18 163.43H267.76V147.91H272.83V153.32Z" fill="white"/>
<path fill-rule="evenodd" clip-rule="evenodd" d="M297.35 143.47C297.5 144.68 298.66 144.81 299.65 144.81C300.99 144.81 301.63 144.4 301.78 143.47H303.46C303.37 145.69 301.59 146.77 299.52 146.77C297.26 146.77 295.82 145.86 295.64 143.47H297.34H297.35ZM306.86 147.91V163.43H302V158.49L302.26 154.52L296.66 163.42H291.91V147.9H296.77V152.83L296.51 156.8L302.1 147.9H306.85L306.86 147.91Z" fill="white"/>
<path fill-rule="evenodd" clip-rule="evenodd" d="M117.69 171.08L120.35 177.66L122.98 171.08H128.86L122.71 184.11C121.3 187.1 119.89 188.21 117.81 188.21C116.91 188.21 115.87 187.96 115.24 187.7V183.9C115.56 184.02 115.75 184.13 116.37 184.13C116.95 184.13 117.34 183.88 117.67 183.2L111.54 171.08H117.69Z" fill="white"/>
<path fill-rule="evenodd" clip-rule="evenodd" d="M136.17 176.9H141.33V171.08H146.79V187.77H141.33V180.8H136.17V187.77H130.71V171.08H136.17V176.9Z" fill="white"/>
<path fill-rule="evenodd" clip-rule="evenodd" d="M166.1 171.08V187.77H160.88V182.47L161.15 178.2L155.14 187.77H150.03V171.08H155.25V176.39L154.98 180.66L160.99 171.08H166.1Z" fill="white"/>
<path fill-rule="evenodd" clip-rule="evenodd" d="M174.8 183.88H177.18C178.52 183.88 179.54 183.6 179.54 182.35C179.54 180.89 178.27 180.8 176.53 180.8H174.8V183.88ZM174.8 177.76H177.06C178.15 177.76 178.93 177.27 178.93 176.3C178.93 175 177.87 174.98 176.71 174.98H174.79V177.76H174.8ZM169.34 171.08H177.3C181.05 171.08 184.03 171.96 184.03 175.28C184.03 176.99 182.92 178.24 181.86 178.92C183.66 179.38 184.64 180.94 184.64 182.74C184.64 186.48 181.79 187.77 177.47 187.77H169.35V171.08H169.34Z" fill="white"/>
<path fill-rule="evenodd" clip-rule="evenodd" d="M200.87 171.08V174.98H192.75V177.37H199.62V181.26H192.75V183.88H201.2V187.77H187.29V171.08H200.87Z" fill="white"/>
<path fill-rule="evenodd" clip-rule="evenodd" d="M209.32 178.69H211.58C212.85 178.69 213.78 178.18 213.78 176.74C213.78 175.19 212.02 174.97 210.87 174.97H209.32V178.68V178.69ZM209.32 187.78H203.86V171.09H211.89C216.68 171.09 218.99 173.29 218.99 176.72C218.99 180.15 216.86 182.58 212.08 182.58H209.33V187.77L209.32 187.78Z" fill="white"/>
<path fill-rule="evenodd" clip-rule="evenodd" d="M232.28 177.46C232.12 175.72 231.03 174.72 229.32 174.72C227.4 174.72 226.24 176.37 226.24 179.59C226.24 181.93 226.75 184.13 229.53 184.13C231.29 184.13 232.12 182.9 232.33 181.3H237.58C237.09 185.61 234.02 188.21 229.62 188.21C224.12 188.21 220.79 184.83 220.79 179.4C220.79 173.97 224.44 170.64 229.09 170.64C234.18 170.64 237.02 173.17 237.46 177.45H232.28V177.46Z" fill="white"/>
<path fill-rule="evenodd" clip-rule="evenodd" d="M255.97 171.08V187.77H250.74V182.47L251.02 178.2L245.01 187.77H239.9V171.08H245.12V176.39L244.85 180.66L250.86 171.08H255.97Z" fill="white"/>
<path fill-rule="evenodd" clip-rule="evenodd" d="M268.67 187.77H263.21V174.98H258.31V171.08H273.57V174.98H268.67V187.77Z" fill="white"/>
<path fill-rule="evenodd" clip-rule="evenodd" d="M289.49 171.08V174.98H281.37V177.37H288.24V181.26H281.37V183.88H289.81V187.77H275.91V171.08H289.49Z" fill="white"/>
<path fill-rule="evenodd" clip-rule="evenodd" d="M301.94 187.77H296.48V174.98H291.57V171.08H306.84V174.98H301.94V187.77Z" fill="white"/>
<path d="M43 143C83 161 88.5 176.5 93 188L93.0326 187.779C95.534 170.773 99.37 144.694 69.5 129C39.5 113.237 27 106 20.5 99.5C44.5 83 32 93 61 73C90 53 80.5 39 72 35.5C74.4 43.9 64.5 46.5 26.5 71.5C-11.5 96.5 -5.56572 121.145 43 143Z" fill="white" stroke="white"/>
<path d="M59 108C82 119 87.5 123.5 93 138.5C101 90.5 71 91.5 55 79C39 66.5 35.5 67 27.5 58.5C34 55 44.8 50.6 58 39C71.2 27.4 64 19.8333 58.5 17.5C56.5 26.5 48.7325 27.9859 33 36.5C-9.5 59.5 19.8324 89.2677 59 108Z" fill="white" stroke="white"/>
<path d="M65.9999 69.9999C84.8546 79.9608 90.4999 83.9999 92.9999 93.4999C101 59.4999 74.9999 52.9999 63.9999 45.9999C52.9999 38.9999 33.4999 26.9998 33.4999 26.9998L41.4999 22.4998C63.4999 8.49984 47.4999 1.49985 47.4999 1.49985C47.4999 8 36.6247 10 29.4999 14.9998C0.999863 34.9997 39.4999 55.9999 65.9999 69.9999Z" fill="white" stroke="white"/>
</svg>
