<svg width="95" height="190" viewBox="0 0 95 190" fill="none" xmlns="http://www.w3.org/2000/svg">
<g clip-path="url(#clip0_5_2)">
<path d="M43 143C83 161 88.5 176.5 93 188L93.0326 187.779C95.534 170.773 99.37 144.694 69.5 129C39.5 113.237 27 106 20.5 99.5C44.5 83 32 93 61 73C90 53 80.5 39 72 35.5C74.4 43.9 64.5 46.5 26.5 71.5C-11.5 96.5 -5.56572 121.145 43 143Z" fill="white" stroke="white"/>
<path d="M59 108C82 119 87.5 123.5 93 138.5C101 90.5 71 91.5 55 79C39 66.5 35.5 67 27.5 58.5C34 55 44.8 50.6 58 39C71.2 27.4 64 19.8333 58.5 17.5C56.5 26.5 48.7325 27.9859 33 36.5C-9.5 59.5 19.8324 89.2677 59 108Z" fill="white" stroke="white"/>
<path d="M65.9999 69.9999C84.8546 79.9608 90.4999 83.9999 92.9999 93.4999C101 59.4999 74.9999 52.9999 63.9999 45.9999C52.9999 38.9999 33.4999 26.9998 33.4999 26.9998L41.4999 22.4998C63.4999 8.49984 47.4999 1.49985 47.4999 1.49985C47.4999 8 36.6247 10 29.4999 14.9998C0.999863 34.9997 39.4999 55.9999 65.9999 69.9999Z" fill="white" stroke="white"/>
</g>
<defs>
<clipPath id="clip0_5_2">
<rect width="95" height="190" fill="white"/>
</clipPath>
</defs>
</svg>
