<svg width="1259" height="2175" viewBox="0 0 1259 2175" fill="none" xmlns="http://www.w3.org/2000/svg">
<g clip-path="url(#clip0_2_10)">
<path d="M629.9 1122.4C939.9 1122.3 1191 870.9 1190.9 561C1190.8 251 939.4 -0.0999701 629.5 2.98582e-05C319.6 0.10003 68.4 251.5 68.5 561.4C68.9 871.2 320.1 1122.2 629.9 1122.4ZM629.9 329C758.3 329 862.4 433.1 862.4 561.5C862.4 689.9 758.3 793.9 629.9 793.9C501.5 793.9 397.4 689.8 397.4 561.4C397.6 433.1 501.6 329.1 629.9 329ZM856.8 1580.3C972.3 1554.1 1082.5 1508.4 1182.8 1445.3C1259.2 1396 1281.2 1294.2 1231.9 1217.8C1183.4 1142.6 1083.6 1119.9 1007.4 1166.8C776.3 1311.3 482.9 1311.3 251.8 1166.8C175.1 1118.7 73.8 1141.7 25.5 1218.3C-23 1295 -0.199959 1396.6 76.6 1445.1C76.7 1445.1 76.8 1445.2 76.8 1445.2C177 1508.2 287.2 1553.9 402.6 1580.2L88.8 1894C26.3 1960 29.2001 2064.2 95.3 2126.7C158.8 2186.7 258 2186.7 321.5 2126.7L629.7 1818.3L938.1 2126.7C1002.3 2190.8 1106.2 2190.8 1170.4 2126.7C1234.5 2062.5 1234.5 1958.6 1170.4 1894.4L856.8 1580.3Z" fill="white"/>
</g>
<defs>
<clipPath id="clip0_2_10">
<rect width="1258.2" height="2174.7" fill="white"/>
</clipPath>
</defs>
</svg>
