<svg width="512" height="512" viewBox="0 0 512 512" fill="none" xmlns="http://www.w3.org/2000/svg">
<g clip-path="url(#clip0_1_2)">
<path d="M424.853 277.931C416.576 267.477 418.944 262.827 424.853 253.483C424.96 253.376 493.291 158.955 500.331 126.933L500.373 126.912C503.872 115.243 500.373 106.667 483.456 106.667H427.477C413.227 106.667 406.656 114.027 403.136 122.261C403.136 122.261 374.635 190.485 334.315 234.709C321.301 247.488 315.285 251.584 308.181 251.584C304.683 251.584 299.243 247.488 299.243 235.819V126.912C299.243 112.917 295.253 106.667 283.456 106.667H195.435C186.496 106.667 181.184 113.195 181.184 119.275C181.184 132.544 201.344 135.595 203.435 172.928V253.931C203.435 271.68 200.213 274.944 193.067 274.944C174.037 274.944 127.851 206.443 100.48 128.043C94.9547 112.832 89.5573 106.688 75.2 106.688H19.2C3.22133 106.688 0 114.048 0 122.283C0 136.832 19.0293 209.173 88.4907 304.747C134.784 369.984 199.979 405.333 259.285 405.333C294.933 405.333 299.285 397.483 299.285 383.979C299.285 321.643 296.064 315.755 313.92 315.755C322.197 315.755 336.448 319.851 369.728 351.317C407.765 388.629 414.016 405.333 435.307 405.333H491.285C507.243 405.333 515.328 397.483 510.677 381.995C500.032 349.419 428.096 282.411 424.853 277.931Z" fill="white"/>
</g>
<defs>
<clipPath id="clip0_1_2">
<rect width="512" height="512" fill="white"/>
</clipPath>
</defs>
</svg>
